<svg width="40" height="40" viewBox="0 0 40 40" fill="none" xmlns="http://www.w3.org/2000/svg">
<g clip-path="url(#clip0_830_6750)">
<path d="M29.1061 21.9415C28.8833 21.9415 28.7023 21.7585 28.7023 21.5332V6.54806C28.7023 6.09184 29.0671 5.72291 29.5182 5.72291H30.4983H30.5039C30.5039 5.72291 30.5039 5.71728 30.5039 5.71446C30.5039 5.71446 30.5039 5.71446 30.5039 5.71165L27.1709 1.82245C27.1709 1.82245 27.1625 1.81963 27.1597 1.82245L23.8267 5.71165L23.824 5.71446C23.824 5.71446 23.8239 5.7201 23.8295 5.72291C23.8295 5.72291 23.8295 5.72291 23.8323 5.72291H24.9906C25.4417 5.72291 25.8065 6.09184 25.8065 6.54806V15.7684C25.8065 15.9937 25.6255 16.1767 25.4027 16.1767C25.18 16.1767 24.999 15.9937 24.999 15.7684V6.54806C24.999 6.54806 24.9962 6.54243 24.9934 6.54243H23.8351C23.5121 6.54243 23.2281 6.35656 23.0944 6.06086C22.9608 5.76234 23.0081 5.42439 23.2197 5.17657L26.5527 1.28737C26.7087 1.10713 26.9314 1.00293 27.1681 1.00293C27.4048 1.00293 27.6303 1.10713 27.7835 1.28737L31.1165 5.17657C31.3281 5.42439 31.3754 5.76234 31.2418 6.06086C31.1081 6.35938 30.8241 6.54243 30.5011 6.54243H29.521C29.521 6.54243 29.5154 6.54525 29.5154 6.54806V21.536C29.5154 21.7613 29.3344 21.9443 29.1117 21.9443L29.1061 21.9415Z" fill="url(#paint0_linear_830_6750)"/>
<path d="M35.8795 38.4277C35.6568 38.4277 35.4758 38.2447 35.4758 38.0194V23.0315C35.4758 22.5752 35.8405 22.2063 36.2916 22.2063H37.2718H37.2773C37.2773 22.2063 37.2773 22.2007 37.2773 22.1979C37.2773 22.1979 37.2773 22.1979 37.2773 22.195L33.9443 18.3058C33.9443 18.3058 33.936 18.303 33.9332 18.3058L30.6002 22.195L30.5974 22.1979C30.5974 22.1979 30.5974 22.2035 30.603 22.2063C30.603 22.2063 30.603 22.2063 30.6057 22.2063H31.7641C32.2152 22.2063 32.5799 22.5752 32.5799 23.0315V32.2518C32.5799 32.4771 32.3989 32.6601 32.1762 32.6601C31.9534 32.6601 31.7724 32.4771 31.7724 32.2518V23.0315C31.7724 23.0315 31.7697 23.0258 31.7669 23.0258H30.6085C30.2855 23.0258 30.0015 22.84 29.8679 22.5443C29.7342 22.2457 29.7815 21.9078 29.9932 21.66L33.3262 17.7708C33.4821 17.5905 33.7049 17.4863 33.9415 17.4863C34.1782 17.4863 34.4038 17.5905 34.5569 17.7708L37.8899 21.66C38.1015 21.9078 38.1489 22.2457 38.0152 22.5443C37.8816 22.8428 37.5975 23.0258 37.2745 23.0258H36.2944C36.2944 23.0258 36.2888 23.0286 36.2888 23.0315V38.0194C36.2888 38.2447 36.1079 38.4277 35.8851 38.4277H35.8795Z" fill="url(#paint1_linear_830_6750)"/>
<path d="M10.9863 21.9414C10.7635 21.9414 10.5825 21.7583 10.5825 21.5331V6.54795C10.5825 6.54795 10.5797 6.54232 10.5769 6.54232H9.59681C9.27381 6.54232 8.98979 6.35645 8.85614 6.06074C8.72248 5.76223 8.76982 5.42428 8.98144 5.17645L12.3089 1.28444C12.4648 1.1042 12.6876 1 12.9242 1C13.1609 1 13.3865 1.1042 13.5396 1.28444L16.8726 5.17364C17.0842 5.42146 17.1316 5.75941 16.9979 6.05793C16.8643 6.35645 16.5803 6.5395 16.2573 6.5395H15.0989C15.0989 6.5395 15.0934 6.54232 15.0934 6.54513V15.7654C15.0934 15.9907 14.9124 16.1738 14.6896 16.1738C14.4668 16.1738 14.2859 15.9907 14.2859 15.7654V6.54795C14.2859 6.09172 14.6506 5.7228 15.1017 5.7228H16.26H16.2656C16.2656 5.7228 16.2656 5.71717 16.2656 5.71435C16.2656 5.71435 16.2656 5.71435 16.2656 5.71153L12.9326 1.82234C12.9326 1.82234 12.9242 1.81952 12.9215 1.82234L9.58845 5.71153L9.58567 5.71435C9.58567 5.71435 9.58567 5.71998 9.59124 5.7228C9.59124 5.7228 9.59124 5.7228 9.59402 5.7228H10.5742C11.0252 5.7228 11.39 6.09172 11.39 6.54795V21.5359C11.39 21.7612 11.209 21.9442 10.9863 21.9442V21.9414Z" fill="url(#paint2_linear_830_6750)"/>
<path d="M4.20501 38.4277C3.98225 38.4277 3.80126 38.2447 3.80126 38.0194V23.0315C3.80126 23.0315 3.79847 23.0258 3.79569 23.0258H2.81556C2.49256 23.0258 2.20854 22.84 2.07489 22.5443C1.94123 22.2457 1.98857 21.9078 2.20019 21.66L5.5332 17.7708C5.68913 17.5905 5.91189 17.4863 6.14857 17.4863C6.38525 17.4863 6.61079 17.5905 6.76394 17.7708L10.0969 21.66C10.3086 21.9078 10.3559 22.2457 10.2222 22.5443C10.0886 22.8428 9.80458 23.0258 9.48158 23.0258H8.32324C8.32324 23.0258 8.31767 23.0286 8.31767 23.0315V32.2518C8.31767 32.4771 8.13668 32.6601 7.91392 32.6601C7.69116 32.6601 7.51017 32.4771 7.51017 32.2518V23.0315C7.51017 22.5752 7.87494 22.2063 8.32602 22.2063H9.48436H9.48993C9.48993 22.2063 9.48993 22.2007 9.48993 22.1979C9.48993 22.1979 9.48993 22.1979 9.48993 22.195L6.15692 18.3058C6.15692 18.3058 6.14857 18.303 6.14578 18.3058L2.81277 22.195L2.80999 22.1979C2.80999 22.1979 2.80999 22.2035 2.81556 22.2063C2.81556 22.2063 2.81556 22.2063 2.81834 22.2063H3.79847C4.24956 22.2063 4.61432 22.5752 4.61432 23.0315V38.0194C4.61432 38.2447 4.43333 38.4277 4.21058 38.4277H4.20501Z" fill="url(#paint3_linear_830_6750)"/>
<path d="M20.018 28.5283C19.7006 28.8972 19.2216 29.0578 18.7316 29.2098C17.0442 29.7365 15.354 30.2603 13.675 30.8151C12.628 31.1587 11.5198 30.5166 11.3277 29.483C11.2413 29.0155 11.2748 28.5142 11.3137 28.0355C11.4196 26.8104 11.5449 25.5882 11.6896 24.3688C11.8762 22.7889 12.4442 21.4202 13.9284 20.6401C14.4268 20.3782 14.967 20.1923 15.4737 19.9445C16.117 19.6291 16.7574 19.3024 17.3839 18.9503C17.7709 18.7335 18.0689 18.4124 18.1246 17.9365C18.1357 17.8267 18.1051 17.6774 18.0355 17.6014C17.1528 16.6439 16.7379 15.4751 16.5318 14.2106C16.362 13.1743 16.3648 12.1464 16.7657 11.1579C17.2057 10.0764 17.9296 9.26537 19.0518 8.90489C20.5888 8.41206 22.176 9.03726 23.0475 10.4538C23.6239 11.3916 23.8049 12.4195 23.7158 13.5122C23.635 14.5261 23.4178 15.5033 22.9417 16.4017C22.7217 16.8157 22.4071 17.1761 22.1537 17.5732C22.0841 17.6802 22.0284 17.8351 22.0451 17.9562C22.1008 18.404 22.382 18.7194 22.7523 18.9278C23.3844 19.2855 24.0332 19.6178 24.6848 19.9417C25.0356 20.1163 25.4087 20.2402 25.7707 20.3979C27.1936 21.0203 28.093 22.0904 28.338 23.6506C28.5329 24.9095 28.6666 26.1796 28.8058 27.4469C28.8615 27.9651 28.8754 28.4917 28.8838 29.0127C28.906 30.3251 27.7449 31.2009 26.5058 30.8094C24.7098 30.2434 22.9111 29.6858 21.1206 29.0972C20.7503 28.9761 20.4162 28.7339 20.0236 28.5255L20.018 28.5283ZM19.1214 18.3336C18.9181 19.1024 18.3919 19.5784 17.7654 19.967C17.5927 20.074 17.4257 20.1895 17.2447 20.274C16.4622 20.6316 15.6798 20.9893 14.889 21.3301C13.7975 21.8004 13.1042 22.5861 12.8675 23.7802C12.5222 25.5121 12.3913 27.2666 12.3189 29.024C12.2939 29.6182 12.8034 29.9702 13.3798 29.7872C15.148 29.2295 16.9189 28.6719 18.6842 28.1087C19.3107 27.9087 19.5725 27.5483 19.5725 26.8921C19.5725 26.1176 19.5669 25.3403 19.5725 24.5659C19.5725 24.4532 19.5725 24.3265 19.617 24.2251C19.7145 23.997 19.9066 23.8872 20.1489 23.9153C20.4217 23.9463 20.586 24.1378 20.5888 24.4363C20.5972 25.2587 20.5916 26.0838 20.6 26.9062C20.6055 27.5314 20.8645 27.9116 21.4242 28.089C23.2285 28.6663 25.0328 29.238 26.8372 29.8041C27.3551 29.9674 27.834 29.6097 27.8563 29.0606C27.8591 28.9648 27.8563 28.8663 27.8507 28.7705C27.7031 27.261 27.5667 25.7459 27.3968 24.2392C27.2326 22.7832 26.478 21.7891 25.108 21.2456C24.2309 20.8964 23.3789 20.4711 22.5379 20.0346C21.8502 19.6769 21.2961 19.1616 21.0538 18.3787C21.051 18.3646 21.0232 18.3589 20.9926 18.342C20.3855 18.5392 19.7646 18.5251 19.127 18.328L19.1214 18.3336ZM22.6883 13.0729C22.7134 12.4505 22.5881 11.8619 22.3235 11.3043C21.7778 10.1581 20.6473 9.56952 19.4862 9.88212C18.4531 10.1609 17.8823 10.9354 17.6122 11.9323C17.3226 12.994 17.4897 14.0417 17.8016 15.0724C18.0132 15.7624 18.3167 16.4045 18.8485 16.9114C19.5892 17.6155 20.5554 17.6267 21.2961 16.9227C21.5105 16.7199 21.6998 16.4777 21.8502 16.2242C22.4266 15.2583 22.6605 14.1909 22.6855 13.0729H22.6883Z" fill="black"/>
<path d="M24.098 32.9331C23.9783 32.5445 23.8614 32.1868 23.7611 31.8292C23.6525 31.4433 23.775 31.1448 24.0618 31.0603C24.3988 30.9618 24.6438 31.1336 24.7719 31.5475C24.8666 31.8601 24.9779 32.1699 25.0698 32.4853C25.1255 32.674 25.2258 32.6994 25.4123 32.6628C26.6987 32.4121 27.9852 32.1615 29.3078 32.215C30.8866 32.2798 32.2844 33.5189 32.4375 35.0115C32.6129 36.7378 31.5938 38.2896 29.99 38.6979C29.6698 38.7796 29.3301 38.8218 28.9987 38.8246C25.2926 38.8331 21.5837 38.8303 17.8775 38.8303C17.3429 38.8303 17.1341 38.6303 17.1675 38.0924C17.2733 36.3942 18.117 35.1692 19.5733 34.3553C20.5033 33.8371 21.5391 33.6175 22.5499 33.3302C23.0539 33.1866 23.5634 33.0683 24.1008 32.9331H24.098ZM18.259 37.7601C18.4122 37.7601 18.5152 37.7601 18.6182 37.7601C21.4055 37.7601 24.1927 37.7601 26.98 37.7601C27.7457 37.7601 28.5142 37.7742 29.2799 37.7517C30.3993 37.7179 31.3683 36.7125 31.4156 35.5606C31.463 34.3975 30.6388 33.4006 29.4637 33.3161C28.7565 33.2654 28.0325 33.3133 27.3252 33.4062C25.429 33.6569 23.5718 34.1187 21.7368 34.6538C20.9739 34.8763 20.2137 35.1129 19.5677 35.6085C18.8688 36.1436 18.4038 36.8251 18.259 37.7601Z" fill="black"/>
<path d="M16.0716 32.9336C16.5895 33.0688 17.0963 33.1984 17.6031 33.3279C17.6588 33.342 17.7145 33.3561 17.7674 33.373C18.1071 33.4828 18.2686 33.7334 18.1906 34.0179C18.1015 34.3389 17.8314 34.4657 17.4639 34.384C15.9129 34.0489 14.3675 33.6912 12.8082 33.4011C12.0146 33.2519 11.1988 33.1308 10.3913 33.3673C9.29422 33.6856 8.62316 34.6403 8.76517 35.6851C8.92667 36.8735 9.85111 37.7466 10.9872 37.7578C12.4435 37.7691 13.8997 37.7606 15.356 37.7606C15.4507 37.7606 15.5481 37.755 15.6428 37.7663C15.9435 37.8029 16.1524 38.0254 16.1524 38.3014C16.1524 38.583 15.9185 38.8224 15.6094 38.8308C15.2084 38.8421 14.8047 38.8336 14.4009 38.8336C13.2593 38.8336 12.1205 38.8505 10.9788 38.828C8.66493 38.7857 7.08056 36.3722 7.95489 34.2122C8.39205 33.1308 9.24688 32.5309 10.3495 32.2944C11.2433 32.1 12.1427 32.2324 13.0338 32.3591C13.6296 32.4464 14.2199 32.5619 14.8103 32.6774C14.969 32.7083 15.0414 32.652 15.0859 32.5112C15.1945 32.1704 15.3087 31.8325 15.4201 31.4946C15.5426 31.12 15.7848 30.9651 16.1078 31.0609C16.3779 31.1397 16.5171 31.4326 16.4225 31.7762C16.3194 32.1564 16.1941 32.5281 16.0716 32.9336Z" fill="black"/>
<path d="M16.675 27.2443C16.6861 27.6836 16.5163 27.9117 16.2322 27.9512C15.9454 27.9906 15.7171 27.8188 15.6531 27.4837C15.4971 26.6895 15.3579 25.8925 15.2048 25.0983C15.1741 24.9378 15.1185 24.7829 15.0767 24.6252C14.9904 24.2985 15.124 24.0225 15.4136 23.9268C15.6865 23.8338 15.9872 23.9916 16.0763 24.3182C16.2378 24.9125 16.3798 25.5123 16.5051 26.115C16.5887 26.5205 16.6304 26.9345 16.6778 27.2443H16.675Z" fill="black"/>
<path d="M23.418 27.3381C23.6491 26.3242 23.8691 25.3076 24.1141 24.2965C24.1837 24.0093 24.49 23.8544 24.7378 23.922C25.0135 23.998 25.1694 24.2825 25.1081 24.5866C24.9188 25.5329 24.7322 26.4763 24.5485 27.4225C24.4761 27.7886 24.2561 27.9914 23.9526 27.9548C23.663 27.921 23.482 27.6844 23.4904 27.3578C23.4653 27.3521 23.443 27.3465 23.418 27.3409V27.3381Z" fill="black"/>
</g>
<defs>
<linearGradient id="paint0_linear_830_6750" x1="18.6033" y1="13.2834" x2="35.5455" y2="13.2952" gradientUnits="userSpaceOnUse">
<stop stop-color="#AA2F88"/>
<stop offset="0.245" stop-color="#DD4057"/>
<stop offset="0.52" stop-color="#CC2E6E"/>
<stop offset="0.765" stop-color="#F07745"/>
<stop offset="1" stop-color="#C738CA"/>
</linearGradient>
<linearGradient id="paint1_linear_830_6750" x1="25.3768" y1="29.7668" x2="42.319" y2="29.7786" gradientUnits="userSpaceOnUse">
<stop stop-color="#AA2F88"/>
<stop offset="0.245" stop-color="#DD4057"/>
<stop offset="0.52" stop-color="#CC2E6E"/>
<stop offset="0.765" stop-color="#F07745"/>
<stop offset="1" stop-color="#C738CA"/>
</linearGradient>
<linearGradient id="paint2_linear_830_6750" x1="4.368" y1="13.2821" x2="21.2988" y2="13.2939" gradientUnits="userSpaceOnUse">
<stop stop-color="#AA2F88"/>
<stop offset="0.245" stop-color="#DD4057"/>
<stop offset="0.52" stop-color="#CC2E6E"/>
<stop offset="0.765" stop-color="#F07745"/>
<stop offset="1" stop-color="#C738CA"/>
</linearGradient>
<linearGradient id="paint3_linear_830_6750" x1="-2.41622" y1="29.7668" x2="14.526" y2="29.7786" gradientUnits="userSpaceOnUse">
<stop stop-color="#AA2F88"/>
<stop offset="0.245" stop-color="#DD4057"/>
<stop offset="0.52" stop-color="#CC2E6E"/>
<stop offset="0.765" stop-color="#F07745"/>
<stop offset="1" stop-color="#C738CA"/>
</linearGradient>
<clipPath id="clip0_830_6750">
<rect width="36.0923" height="37.8387" fill="white" transform="translate(2 1)"/>
</clipPath>
</defs>
</svg>
