<svg width="40" height="40" viewBox="0 0 40 40" fill="none" xmlns="http://www.w3.org/2000/svg">
<g clip-path="url(#clip0_830_6720)">
<path d="M20.1167 25.9201C19.7214 26.3821 19.1241 26.581 18.5124 26.771C16.409 27.4319 14.3027 28.0839 12.208 28.774C10.9038 29.2038 9.52172 28.4026 9.28224 27.1102C9.17548 26.5254 9.21588 25.9026 9.26493 25.3032C9.39477 23.7739 9.55058 22.2476 9.73235 20.7242C9.96607 18.7504 10.673 17.0428 12.5254 16.0662C13.1486 15.7387 13.818 15.5077 14.4499 15.1978C15.252 14.803 16.0512 14.3937 16.8303 13.955C17.3121 13.6831 17.6843 13.2825 17.7536 12.6889C17.768 12.5544 17.7276 12.3644 17.6411 12.2708C16.5389 11.0749 16.0224 9.61288 15.7656 8.03683C15.555 6.74441 15.5578 5.45784 16.057 4.22098C16.6052 2.87008 17.5083 1.85837 18.9077 1.40807C20.8265 0.791103 22.8029 1.57182 23.8907 3.34377C24.6091 4.51631 24.8342 5.79995 24.7245 7.16547C24.6236 8.4345 24.3552 9.65381 23.7608 10.7766C23.4867 11.2942 23.0943 11.7445 22.7769 12.2386C22.6904 12.3732 22.6211 12.5661 22.6413 12.7182C22.7106 13.2767 23.0626 13.6714 23.5214 13.9317C24.3119 14.379 25.1169 14.7942 25.9306 15.1978C26.3692 15.4141 26.8337 15.572 27.2838 15.7679C29.0583 16.5457 30.1807 17.882 30.4837 19.8294C30.7289 21.4025 30.8934 22.9874 31.0665 24.5722C31.1386 25.2213 31.1531 25.8763 31.1617 26.5283C31.1877 28.1687 29.7421 29.2623 28.1956 28.774C25.9566 28.0693 23.7147 27.3705 21.4843 26.6365C21.0198 26.4845 20.6043 26.1833 20.1138 25.9201H20.1167ZM19 13.186C18.7461 14.1451 18.0883 14.7416 17.3092 15.227C17.0957 15.3586 16.888 15.5048 16.66 15.61C15.6848 16.0574 14.7067 16.5048 13.7228 16.9288C12.3609 17.5136 11.4982 18.499 11.201 19.9902C10.7711 22.154 10.6066 24.3441 10.5172 26.543C10.4854 27.2857 11.1231 27.7243 11.8386 27.4991C14.043 26.8032 16.2503 26.1044 18.4518 25.4026C19.2309 25.1541 19.5569 24.7008 19.5569 23.8821C19.5569 22.9143 19.5511 21.9464 19.5569 20.9756C19.5569 20.8323 19.5598 20.6774 19.6146 20.5516C19.7358 20.268 19.9753 20.1306 20.2782 20.1657C20.6187 20.2037 20.8236 20.4435 20.8265 20.8177C20.838 21.847 20.8293 22.8762 20.8409 23.9055C20.8467 24.6862 21.1727 25.1599 21.8681 25.3821C24.1157 26.1014 26.3663 26.8178 28.6169 27.5254C29.2632 27.7272 29.8604 27.2798 29.8864 26.5956C29.8922 26.4757 29.8893 26.3529 29.8777 26.233C29.6931 24.347 29.5229 22.4552 29.3122 20.5721C29.1074 18.7534 28.1667 17.5136 26.4586 16.8323C25.3651 16.3966 24.3033 15.8644 23.2559 15.3206C22.399 14.8732 21.7065 14.2299 21.4064 13.2504C21.4006 13.2328 21.3689 13.227 21.3314 13.2065C20.5754 13.4521 19.8022 13.4375 19.0058 13.189L19 13.186ZM23.4463 6.61575C23.4781 5.83797 23.3223 5.10404 22.9905 4.40519C22.3095 2.97535 20.8986 2.23557 19.453 2.63031C18.1662 2.9812 17.4535 3.9432 17.1159 5.19176C16.7553 6.51634 16.963 7.8263 17.3525 9.11287C17.6151 9.97546 17.9959 10.7796 18.6596 11.4082C19.5829 12.2884 20.7889 12.3001 21.7094 11.4228C21.9748 11.1685 22.2143 10.8673 22.4019 10.5515C23.1203 9.34387 23.4117 8.01344 23.4463 6.61575Z" fill="black"/>
<path d="M25.2029 31.4258C25.0529 30.9404 24.9086 30.496 24.7816 30.0457C24.646 29.5632 24.799 29.1918 25.1567 29.0866C25.578 28.9638 25.8838 29.1772 26.0425 29.6948C26.1608 30.0866 26.2993 30.4726 26.4147 30.8644C26.484 31.1012 26.6081 31.1334 26.8418 31.0866C28.446 30.7737 30.0474 30.4609 31.6978 30.5281C33.6656 30.6071 35.4083 32.1568 35.5988 34.0223C35.818 36.1802 34.5456 38.116 32.549 38.6277C32.1479 38.73 31.7266 38.7826 31.314 38.7856C26.6917 38.7972 22.0694 38.7914 17.45 38.7914C16.7835 38.7914 16.5238 38.5429 16.5671 37.8703C16.6998 35.7475 17.7501 34.2182 19.565 33.2036C20.7249 32.5545 22.0175 32.2825 23.2755 31.9229C23.9045 31.7445 24.5393 31.5954 25.2087 31.4258H25.2029ZM17.9232 37.4522C18.1136 37.4522 18.2435 37.4522 18.3733 37.4522C21.8473 37.4522 25.3241 37.4522 28.798 37.4522C29.7531 37.4522 30.7081 37.4697 31.6632 37.4434C33.0597 37.4025 34.2657 36.1452 34.3234 34.7065C34.384 33.2533 33.3569 32.0077 31.8911 31.9053C31.0082 31.8439 30.1051 31.8995 29.2279 32.0164C26.862 32.3322 24.5508 32.9053 22.2599 33.572C21.3077 33.8498 20.3613 34.1451 19.5563 34.765C18.6849 35.4346 18.1079 36.2826 17.9232 37.4522Z" fill="black"/>
<path d="M15.1966 31.4198C15.8429 31.5865 16.4748 31.7503 17.1038 31.914C17.1731 31.9316 17.2423 31.9491 17.3116 31.9696C17.7357 32.107 17.9377 32.4199 17.8396 32.7766C17.7299 33.1801 17.3924 33.3351 16.9336 33.2357C15.0004 32.8146 13.073 32.3702 11.1312 32.0076C10.1415 31.8234 9.12587 31.6713 8.116 31.9637C6.74836 32.3614 5.91161 33.5544 6.08762 34.8585C6.28959 36.3439 7.44084 37.4346 8.85754 37.4463C10.6724 37.4609 12.4902 37.4492 14.305 37.4492C14.4233 37.4492 14.5445 37.4433 14.6628 37.458C15.0379 37.5047 15.3005 37.7825 15.2976 38.1246C15.2976 38.4755 15.0033 38.7738 14.6195 38.7855C14.1175 38.8001 13.6155 38.7913 13.1134 38.7913C11.6909 38.7913 10.2713 38.8118 8.84888 38.7855C5.96355 38.7328 3.98709 35.7182 5.07775 33.0193C5.62308 31.6684 6.69065 30.9198 8.06407 30.6216C9.18069 30.3789 10.3002 30.5426 11.4111 30.7035C12.1526 30.8117 12.8883 30.9579 13.627 31.1011C13.8261 31.1391 13.9155 31.069 13.9703 30.8935C14.106 30.4695 14.2502 30.0485 14.3858 29.6245C14.5388 29.1567 14.8388 28.9637 15.2428 29.0836C15.5804 29.183 15.7535 29.5455 15.6352 29.9754C15.5053 30.4491 15.3495 30.9169 15.1966 31.4198Z" fill="black"/>
<path d="M29.7392 8.74121C30.1374 8.73536 30.5731 9.17688 30.5702 9.58332C30.5702 9.92543 30.2701 10.2295 29.9297 10.2325C29.5401 10.2354 29.0987 9.78216 29.1016 9.38157C29.1045 9.01899 29.3786 8.74413 29.7363 8.73828L29.7392 8.74121Z" fill="url(#paint0_linear_830_6720)"/>
<path d="M29.7562 12.7853C29.4215 12.797 29.1157 12.5016 29.0983 12.1507C29.0781 11.7531 29.5081 11.2882 29.9033 11.2794C30.2496 11.2735 30.5468 11.5542 30.567 11.9051C30.5872 12.2736 30.1284 12.7706 29.7562 12.7853Z" fill="url(#paint1_linear_830_6720)"/>
<path d="M32.2463 11.2793C32.6272 11.2764 33.0917 11.7472 33.086 12.1273C33.0802 12.4635 32.7686 12.7735 32.4368 12.7793C32.0732 12.7852 31.6173 12.3349 31.6058 11.9635C31.5943 11.5922 31.8857 11.2822 32.2463 11.2793Z" fill="url(#paint2_linear_830_6720)"/>
<path d="M32.4163 8.74129C32.7798 8.73545 33.0914 9.04247 33.0857 9.3992C33.0799 9.76762 32.6327 10.2238 32.2662 10.2355C31.9113 10.2442 31.6026 9.93722 31.6055 9.56879C31.6055 9.1799 32.0296 8.74714 32.4163 8.74129Z" fill="url(#paint3_linear_830_6720)"/>
<path d="M9.05239 8.37011C9.4448 8.37011 9.8574 8.7824 9.86317 9.17714C9.86894 9.55142 9.58329 9.84089 9.21109 9.83505C8.83888 9.8292 8.39454 9.3906 8.383 9.01924C8.37434 8.66251 8.67441 8.36719 9.04951 8.36719L9.05239 8.37011Z" fill="url(#paint4_linear_830_6720)"/>
<path d="M7.35445 6.65659C7.34868 7.02502 7.089 7.28525 6.71968 7.28818C6.33016 7.2911 5.87428 6.83495 5.88293 6.45191C5.89159 6.10395 6.18012 5.82617 6.53502 5.82324C6.94474 5.82324 7.36022 6.24138 7.35445 6.65659Z" fill="url(#paint5_linear_830_6720)"/>
<path d="M9.23603 5.8252C9.60246 5.83104 9.86503 6.09713 9.86792 6.46263C9.8708 6.87492 9.44377 7.2989 9.03405 7.29013C8.68204 7.28428 8.39062 6.9948 8.39062 6.64977C8.39062 6.26965 8.84939 5.82227 9.23891 5.82812L9.23603 5.8252Z" fill="url(#paint6_linear_830_6720)"/>
<path d="M6.71226 8.36621C7.09313 8.36621 7.36146 8.63815 7.35569 9.02704C7.34992 9.42178 6.93155 9.83699 6.54203 9.83699C6.18713 9.83699 5.8986 9.55921 5.88706 9.20833C5.87263 8.82528 6.31986 8.36913 6.71515 8.36621H6.71226Z" fill="url(#paint7_linear_830_6720)"/>
<path d="M34.6763 23.3878C34.3012 23.3937 34.0127 23.1188 34.004 22.7475C33.9954 22.3586 34.4138 21.9404 34.809 21.9404C35.1784 21.9404 35.4438 22.1948 35.4554 22.5632C35.4698 22.9668 35.0774 23.382 34.6763 23.3907V23.3878Z" fill="url(#paint8_linear_830_6720)"/>
<path d="M36.7841 21.2121C36.4234 21.2121 36.1465 20.9373 36.1407 20.5805C36.1349 20.2004 36.5706 19.7647 36.9543 19.7706C37.3006 19.7764 37.5949 20.0688 37.6007 20.4109C37.6035 20.794 37.1765 21.2121 36.7841 21.2092V21.2121Z" fill="url(#paint9_linear_830_6720)"/>
<path d="M36.9581 23.387C36.5628 23.3928 36.1358 22.9864 36.1329 22.5975C36.1271 22.2232 36.4012 21.9542 36.7936 21.9455C37.1918 21.9367 37.5987 22.346 37.5958 22.7496C37.5929 23.1004 37.3101 23.3811 36.9581 23.387Z" fill="url(#paint10_linear_830_6720)"/>
<path d="M3.61742 24.0539C3.22213 24.0568 2.80664 23.6445 2.80087 23.244C2.7951 22.8931 3.07786 22.6153 3.4443 22.6094C3.85401 22.6036 4.25508 22.9983 4.25508 23.4135C4.25508 23.7732 3.97808 24.051 3.61742 24.0539Z" fill="url(#paint11_linear_830_6720)"/>
<path d="M4.25603 25.4308C4.25026 25.8109 3.84343 26.2232 3.46833 26.229C3.10767 26.2349 2.80182 25.9278 2.80471 25.5682C2.80759 25.1735 3.23462 24.767 3.6328 24.7816C3.99346 24.7933 4.2618 25.0711 4.25603 25.4308Z" fill="url(#paint12_linear_830_6720)"/>
<path d="M5.5888 24.7822C5.98986 24.7822 6.40246 25.1916 6.39669 25.5863C6.39092 25.9343 6.09662 26.2296 5.75326 26.2296C5.36374 26.2296 4.9396 25.8027 4.94537 25.4138C4.95114 25.0483 5.22236 24.7822 5.58591 24.7822H5.5888Z" fill="url(#paint13_linear_830_6720)"/>
<path d="M34.7995 21.2121C34.3984 21.2121 34.0176 20.8378 34.0118 20.4372C34.006 20.0483 34.2744 19.7764 34.6581 19.7764C35.0448 19.7764 35.4429 20.174 35.4516 20.56C35.4574 20.946 35.1948 21.2121 34.8024 21.2121H34.7995Z" fill="url(#paint14_linear_830_6720)"/>
<path d="M5.60427 24.0509C5.23207 24.0539 4.94353 23.7673 4.9493 23.396C4.95507 23.0129 5.35614 22.6153 5.73989 22.6123C6.10055 22.6094 6.38331 22.8726 6.39774 23.2293C6.41217 23.6182 5.99957 24.048 5.60427 24.0509Z" fill="url(#paint15_linear_830_6720)"/>
<path d="M15.9454 24.3171C15.9598 24.8668 15.7492 25.1504 15.3914 25.2001C15.0336 25.2498 14.7509 25.0334 14.6672 24.6153C14.4739 23.6241 14.2979 22.6299 14.1074 21.6386C14.0699 21.4369 13.9978 21.2439 13.9459 21.0451C13.8391 20.6357 14.0065 20.2936 14.3671 20.1708C14.7076 20.0568 15.0827 20.2527 15.1923 20.6591C15.3914 21.4018 15.5703 22.1504 15.729 22.9047C15.8329 23.4106 15.8848 23.9282 15.9425 24.3171H15.9454Z" fill="black"/>
<path d="M24.3584 24.4344C24.644 23.1683 24.921 21.8964 25.224 20.6332C25.3105 20.2735 25.6943 20.0805 26.003 20.1653C26.3464 20.2589 26.5397 20.6156 26.4646 20.9958C26.2309 22.1771 25.9972 23.3584 25.7664 24.5397C25.677 24.9958 25.4028 25.2502 25.022 25.2064C24.6613 25.1654 24.4334 24.8701 24.4449 24.4578C24.4161 24.452 24.3843 24.4432 24.3555 24.4373L24.3584 24.4344Z" fill="black"/>
</g>
<defs>
<linearGradient id="paint0_linear_830_6720" x1="28.3199" y1="9.6145" x2="31.3188" y2="9.6197" gradientUnits="userSpaceOnUse">
<stop stop-color="#AA2F88"/>
<stop offset="0.245" stop-color="#DD4057"/>
<stop offset="0.52" stop-color="#CC2E6E"/>
<stop offset="0.765" stop-color="#F07745"/>
<stop offset="1" stop-color="#C738CA"/>
</linearGradient>
<linearGradient id="paint1_linear_830_6720" x1="28.3153" y1="12.1626" x2="31.3168" y2="12.1678" gradientUnits="userSpaceOnUse">
<stop stop-color="#AA2F88"/>
<stop offset="0.245" stop-color="#DD4057"/>
<stop offset="0.52" stop-color="#CC2E6E"/>
<stop offset="0.765" stop-color="#F07745"/>
<stop offset="1" stop-color="#C738CA"/>
</linearGradient>
<linearGradient id="paint2_linear_830_6720" x1="30.8174" y1="12.159" x2="33.8406" y2="12.1642" gradientUnits="userSpaceOnUse">
<stop stop-color="#AA2F88"/>
<stop offset="0.245" stop-color="#DD4057"/>
<stop offset="0.52" stop-color="#CC2E6E"/>
<stop offset="0.765" stop-color="#F07745"/>
<stop offset="1" stop-color="#C738CA"/>
</linearGradient>
<linearGradient id="paint3_linear_830_6720" x1="30.8176" y1="9.61758" x2="33.8402" y2="9.62286" gradientUnits="userSpaceOnUse">
<stop stop-color="#AA2F88"/>
<stop offset="0.245" stop-color="#DD4057"/>
<stop offset="0.52" stop-color="#CC2E6E"/>
<stop offset="0.765" stop-color="#F07745"/>
<stop offset="1" stop-color="#C738CA"/>
</linearGradient>
<linearGradient id="paint4_linear_830_6720" x1="7.59483" y1="9.22802" x2="10.6178" y2="9.2334" gradientUnits="userSpaceOnUse">
<stop stop-color="#AA2F88"/>
<stop offset="0.245" stop-color="#DD4057"/>
<stop offset="0.52" stop-color="#CC2E6E"/>
<stop offset="0.765" stop-color="#F07745"/>
<stop offset="1" stop-color="#C738CA"/>
</linearGradient>
<linearGradient id="paint5_linear_830_6720" x1="5.09949" y1="6.68232" x2="8.1046" y2="6.68764" gradientUnits="userSpaceOnUse">
<stop stop-color="#AA2F88"/>
<stop offset="0.245" stop-color="#DD4057"/>
<stop offset="0.52" stop-color="#CC2E6E"/>
<stop offset="0.765" stop-color="#F07745"/>
<stop offset="1" stop-color="#C738CA"/>
</linearGradient>
<linearGradient id="paint6_linear_830_6720" x1="7.60432" y1="6.68434" x2="10.6209" y2="6.6897" gradientUnits="userSpaceOnUse">
<stop stop-color="#AA2F88"/>
<stop offset="0.245" stop-color="#DD4057"/>
<stop offset="0.52" stop-color="#CC2E6E"/>
<stop offset="0.765" stop-color="#F07745"/>
<stop offset="1" stop-color="#C738CA"/>
</linearGradient>
<linearGradient id="paint7_linear_830_6720" x1="5.1048" y1="9.22871" x2="8.10453" y2="9.23399" gradientUnits="userSpaceOnUse">
<stop stop-color="#AA2F88"/>
<stop offset="0.245" stop-color="#DD4057"/>
<stop offset="0.52" stop-color="#CC2E6E"/>
<stop offset="0.765" stop-color="#F07745"/>
<stop offset="1" stop-color="#C738CA"/>
</linearGradient>
<linearGradient id="paint8_linear_830_6720" x1="33.2312" y1="22.7909" x2="36.1957" y2="22.7962" gradientUnits="userSpaceOnUse">
<stop stop-color="#AA2F88"/>
<stop offset="0.245" stop-color="#DD4057"/>
<stop offset="0.52" stop-color="#CC2E6E"/>
<stop offset="0.765" stop-color="#F07745"/>
<stop offset="1" stop-color="#C738CA"/>
</linearGradient>
<linearGradient id="paint9_linear_830_6720" x1="35.3635" y1="20.6159" x2="38.3448" y2="20.6212" gradientUnits="userSpaceOnUse">
<stop stop-color="#AA2F88"/>
<stop offset="0.245" stop-color="#DD4057"/>
<stop offset="0.52" stop-color="#CC2E6E"/>
<stop offset="0.765" stop-color="#F07745"/>
<stop offset="1" stop-color="#C738CA"/>
</linearGradient>
<linearGradient id="paint10_linear_830_6720" x1="35.3541" y1="22.7908" x2="38.3414" y2="22.7961" gradientUnits="userSpaceOnUse">
<stop stop-color="#AA2F88"/>
<stop offset="0.245" stop-color="#DD4057"/>
<stop offset="0.52" stop-color="#CC2E6E"/>
<stop offset="0.765" stop-color="#F07745"/>
<stop offset="1" stop-color="#C738CA"/>
</linearGradient>
<linearGradient id="paint11_linear_830_6720" x1="2.02672" y1="23.4565" x2="4.99629" y2="23.4618" gradientUnits="userSpaceOnUse">
<stop stop-color="#AA2F88"/>
<stop offset="0.245" stop-color="#DD4057"/>
<stop offset="0.52" stop-color="#CC2E6E"/>
<stop offset="0.765" stop-color="#F07745"/>
<stop offset="1" stop-color="#C738CA"/>
</linearGradient>
<linearGradient id="paint12_linear_830_6720" x1="2.03215" y1="25.6303" x2="4.99588" y2="25.6355" gradientUnits="userSpaceOnUse">
<stop stop-color="#AA2F88"/>
<stop offset="0.245" stop-color="#DD4057"/>
<stop offset="0.52" stop-color="#CC2E6E"/>
<stop offset="0.765" stop-color="#F07745"/>
<stop offset="1" stop-color="#C738CA"/>
</linearGradient>
<linearGradient id="paint13_linear_830_6720" x1="4.17277" y1="25.631" x2="7.13651" y2="25.6362" gradientUnits="userSpaceOnUse">
<stop stop-color="#AA2F88"/>
<stop offset="0.245" stop-color="#DD4057"/>
<stop offset="0.52" stop-color="#CC2E6E"/>
<stop offset="0.765" stop-color="#F07745"/>
<stop offset="1" stop-color="#C738CA"/>
</linearGradient>
<linearGradient id="paint14_linear_830_6720" x1="33.2453" y1="20.6183" x2="36.1856" y2="20.6235" gradientUnits="userSpaceOnUse">
<stop stop-color="#AA2F88"/>
<stop offset="0.245" stop-color="#DD4057"/>
<stop offset="0.52" stop-color="#CC2E6E"/>
<stop offset="0.765" stop-color="#F07745"/>
<stop offset="1" stop-color="#C738CA"/>
</linearGradient>
<linearGradient id="paint15_linear_830_6720" x1="4.17804" y1="23.456" x2="7.13657" y2="23.4612" gradientUnits="userSpaceOnUse">
<stop stop-color="#AA2F88"/>
<stop offset="0.245" stop-color="#DD4057"/>
<stop offset="0.52" stop-color="#CC2E6E"/>
<stop offset="0.765" stop-color="#F07745"/>
<stop offset="1" stop-color="#C738CA"/>
</linearGradient>
<clipPath id="clip0_830_6720">
<rect width="34.8" height="37.6" fill="white" transform="translate(2.80078 1.2002)"/>
</clipPath>
</defs>
</svg>
