<svg width="80" height="81" viewBox="0 0 80 81" fill="none" xmlns="http://www.w3.org/2000/svg">
<g clip-path="url(#clip0_1465_6607)">
<path d="M78.861 21.7324C78.8609 21.7324 78.8609 21.7324 78.8607 21.7324L78.8581 21.7298L73.6943 20.993C72.9685 20.8896 72.4639 20.2175 72.5673 19.4917C72.6169 19.1429 72.8033 18.8283 73.085 18.6169L77.2585 15.4868C77.8451 15.0469 77.9639 14.2149 77.524 13.6284L72.7452 7.25665C72.3053 6.67008 71.4733 6.55128 70.8868 6.99116L66.7146 10.1213C66.1305 10.5645 65.2979 10.4503 64.8547 9.86623C64.6395 9.58266 64.5472 9.22441 64.5987 8.87214L65.3367 3.70839C65.4408 2.98261 64.9368 2.3101 64.2112 2.20589C64.2107 2.20589 64.2102 2.20573 64.2097 2.20573L56.33 1.08005C55.6044 0.975851 54.9316 1.47962 54.8274 2.20539C54.8274 2.20556 54.8274 2.20556 54.8274 2.20573L54.0893 7.36948C53.9859 8.09526 53.3138 8.59985 52.588 8.49648C52.2392 8.44686 51.9246 8.26052 51.7132 7.97878L48.5844 3.80529C48.1445 3.21873 47.3125 3.09992 46.726 3.53981L42.737 6.53319C40.9324 6.34137 39.1124 6.34137 37.3078 6.53319C25.4892 7.88403 16.2212 17.3092 15.0691 29.1488C15.0333 29.5245 15.02 29.8975 15.0014 30.2705H14.6032C13.9733 30.2717 13.4309 30.7154 13.305 31.3325L12.3877 35.6945L8.71334 33.1604C8.18601 32.7965 7.47384 32.8614 7.02085 33.3143L3.03852 37.2967C2.58619 37.7495 2.52148 38.4607 2.88454 38.9878L5.40668 42.6556L1.04337 43.5728C0.433081 43.7066 -0.00132441 44.2477 3.03392e-06 44.8724V50.1822C-0.000328827 50.81 0.439552 51.3523 1.05399 51.4817L5.4173 52.399L2.89516 56.0667C2.5321 56.5939 2.59681 57.3051 3.04914 57.7579L7.03147 61.7402C7.48446 62.1932 8.19663 62.2581 8.72396 61.8942L12.3917 59.3654L13.3089 63.7287C13.4349 64.3458 13.9773 64.7895 14.6072 64.7907H19.917C20.5448 64.791 21.0871 64.3511 21.2165 63.7367L22.1338 59.3734L25.8015 61.8955C26.3287 62.2586 27.0398 62.1939 27.4927 61.7415L29.5542 59.6734V63.4566C29.5602 65.345 30.5718 67.0872 32.2091 68.0283V75.4036C32.2091 78.3361 34.5864 80.7133 37.5188 80.7133H42.8286C45.7611 80.7133 48.1384 78.3361 48.1384 75.4036V68.0283C49.7756 67.0872 50.7873 65.345 50.7933 63.4566V58.2026C50.8293 55.9919 51.9858 53.9509 53.8636 52.784C54.9653 52.0693 56.01 51.2703 56.9884 50.3946L55.2176 48.4167C54.3424 49.2012 53.4072 49.9162 52.4207 50.5552C49.7849 52.2095 48.1714 55.0907 48.1384 58.2026V63.4566C48.1384 64.9229 46.9498 66.1115 45.4835 66.1115H34.864C33.3976 66.1115 32.2091 64.9229 32.2091 63.4566V58.0924C32.1784 55.0394 30.5903 52.2138 27.9984 50.6003C17.4773 43.9893 14.3073 30.1011 20.9183 19.58C25.0201 13.0521 32.1787 9.07889 39.8883 9.05135C39.8686 9.09864 39.8512 9.14692 39.8366 9.19604C39.7873 9.54449 39.8785 9.89842 40.0901 10.1797L43.2189 14.3518C43.5488 14.7788 43.5804 15.3652 43.2985 15.8253C43.0271 16.2882 42.5022 16.5408 41.9711 16.4638L36.8073 15.7257C36.0816 15.6217 35.409 16.1256 35.3048 16.8512C35.3048 16.8517 35.3047 16.8522 35.3047 16.8527L34.1777 24.7364C34.0736 25.462 34.5776 26.1347 35.3032 26.2389C35.3037 26.2389 35.3042 26.2391 35.3047 26.2391L40.4684 26.9771C41.1942 27.0805 41.6988 27.7527 41.5954 28.4785C41.5458 28.8273 41.3595 29.1419 41.0777 29.3533L36.9056 32.482C36.319 32.9219 36.2002 33.7539 36.6401 34.3405L41.4189 40.7122C41.8587 41.2987 42.6907 41.4176 43.2773 40.9777L47.4508 37.8489C48.0378 37.4098 48.8698 37.5298 49.3089 38.117C49.5189 38.398 49.6094 38.7507 49.5601 39.098L48.8233 44.2618C48.7191 44.9874 49.2229 45.6602 49.9487 45.7644C49.9489 45.7644 49.9488 45.7644 49.949 45.7644L57.834 46.8914C57.8961 46.8994 57.9586 46.9034 58.0212 46.9034C58.6821 46.9042 59.2428 46.4187 59.3367 45.7644L60.0734 40.6007C60.1768 39.8749 60.849 39.3703 61.5748 39.4737C61.9235 39.5233 62.2381 39.7096 62.4495 39.9914L65.5797 44.1635C66.0195 44.7501 66.8515 44.8689 67.4381 44.429L73.8098 39.6502C74.3964 39.2104 74.5152 38.3784 74.0753 37.7918L70.9465 33.6197C70.6181 33.1921 70.5864 32.6067 70.8669 32.1462C71.1325 31.6771 71.6622 31.4229 72.1943 31.509L77.3581 32.2458C78.0837 32.35 78.7565 31.846 78.8607 31.1204C78.8607 31.1203 78.8607 31.1203 78.8607 31.1201L79.9864 23.2351C80.0906 22.5093 79.5868 21.8366 78.861 21.7324ZM34.864 68.7664H45.4835V71.4212H34.864V68.7664ZM34.864 74.0761H45.4835V75.4036C45.4835 76.8699 44.2949 78.0585 42.8286 78.0585H37.5188C36.0525 78.0585 34.864 76.8699 34.864 75.4036V74.0761ZM24.2962 51.1844C25.021 51.7771 25.7783 52.329 26.5648 52.837C27.8191 53.6297 28.7632 54.8289 29.2396 56.234L26.3922 59.076L23.6351 57.1751C22.4278 56.3432 20.7746 56.6475 19.9425 57.8548C19.7431 58.1443 19.603 58.4706 19.5307 58.8145L18.8351 62.1291H15.6798L14.9842 58.8198C14.6822 57.385 13.2743 56.4666 11.8395 56.7686C11.4955 56.8409 11.1693 56.981 10.8797 57.1804L8.1213 59.076L5.7027 56.6627L7.60227 53.907C8.43507 52.7002 8.13175 51.0468 6.92494 50.214C6.63523 50.0141 6.30867 49.8737 5.9642 49.8012L2.65489 49.1043V45.9503L5.9642 45.2534C7.3985 44.9492 8.31477 43.54 8.01062 42.1055C7.93844 41.7652 7.80022 41.4424 7.60359 41.1556L5.7027 38.3918L8.1213 35.9785L10.881 37.8794C12.0889 38.7106 13.742 38.4053 14.5732 37.1974C14.7723 36.9082 14.912 36.5823 14.9842 36.2387L15.2165 35.1343C15.4292 36.6638 15.7815 38.1705 16.2691 39.6356C11.9014 40.1563 8.7827 44.1194 9.30338 48.4872C9.82407 52.855 13.7872 55.9736 18.1549 55.4529C20.7843 55.1393 23.0859 53.5396 24.2962 51.1844ZM22.2347 49.314C21.2434 52.0693 18.2064 53.4993 15.4511 52.5082C12.6958 51.5169 11.2658 48.4799 12.2569 45.7246C13.0152 43.6168 15.0165 42.2129 17.2566 42.2175C17.2738 42.2175 17.2898 42.2175 17.307 42.2175C18.5278 44.8497 20.1949 47.2505 22.2347 49.314ZM76.4129 29.4263L72.5633 28.8767C70.386 28.5658 68.3689 30.0789 68.058 32.256C67.9087 33.3016 68.1808 34.3637 68.8146 35.2086L71.1469 38.3188L66.8991 41.5047L64.5655 38.3958C63.246 36.6361 60.7499 36.2792 58.9904 37.5987C58.1455 38.2322 57.5868 39.1755 57.4371 40.221L56.8995 44.0759L51.6442 43.3246L52.1937 39.475C52.5055 37.2978 50.9932 35.2801 48.816 34.9685C47.7699 34.8187 46.7072 35.0908 45.8618 35.725L42.7516 38.0573L39.5658 33.8095L42.6746 31.4758C44.4343 30.1564 44.7912 27.6603 43.4718 25.9007C42.8382 25.0558 41.8949 24.4971 40.8494 24.3475L36.9998 23.7979L37.7511 18.5426L41.6007 19.0921C43.7779 19.4039 45.7956 17.8916 46.1072 15.7144C46.2571 14.6683 45.9849 13.6056 45.3508 12.7602L43.0105 9.64737L47.2583 6.46151L49.5919 9.57171C50.9114 11.3314 53.4075 11.6883 55.167 10.3688C56.0119 9.73531 56.5706 8.792 56.7203 7.74647L57.2699 3.89689L62.5252 4.64689L61.9756 8.49648C61.6647 10.6738 63.1776 12.6909 65.355 13.0018C66.4005 13.1512 67.4626 12.879 68.3075 12.2452L71.4177 9.91286L74.6036 14.1607L71.4934 16.4943C69.7337 17.8138 69.3768 20.3099 70.6963 22.0694C71.3298 22.9143 72.2731 23.473 73.3186 23.6227L77.1682 24.1723L76.4129 29.4263Z" fill="#F1A229"/>
<path d="M57.0805 13.3672C51.2155 13.3672 46.4609 18.1218 46.4609 23.9867C46.4609 29.8517 51.2155 34.6063 57.0805 34.6063C62.9455 34.6063 67.7 29.8517 67.7 23.9867C67.6934 18.1244 62.9428 13.3737 57.0805 13.3672ZM57.0805 31.9514C52.6817 31.9514 49.1158 28.3855 49.1158 23.9867C49.1158 19.5879 52.6817 16.0221 57.0805 16.0221C61.4793 16.0221 65.0451 19.5879 65.0451 23.9867C65.04 28.3834 61.4771 31.9462 57.0805 31.9514Z" fill="#F1A229"/>
<path d="M41.5025 59.4766H38.8477V63.4589H41.5025V59.4766Z" fill="#F1A229"/>
<path d="M34.3673 46.4394C26.1728 43.2382 22.125 34.0002 25.3263 25.8058C26.5668 22.6305 28.793 19.937 31.6779 18.121L30.2589 15.875C21.5747 21.3459 18.9698 32.8208 24.4407 41.5049C26.5595 44.8682 29.7008 47.4635 33.4036 48.9097C36.681 50.1655 38.8453 53.3115 38.8461 56.8213H41.501C41.5051 52.2164 38.6674 48.0866 34.3673 46.4394Z" fill="#F1A229"/>
<path d="M74.6866 50.1836H65.3945V52.8385H74.6866V50.1836Z" fill="#F1A229"/>
<path d="M64.9181 57.1282L63.2188 59.168L71.184 65.8041L72.8834 63.7643L64.9181 57.1282Z" fill="#F1A229"/>
<path d="M60.0846 60.8047H57.4297V70.0968H60.0846V60.8047Z" fill="#F1A229"/>
<path d="M11.9743 21.0214L1.35547 23.6758L1.99896 26.25L12.6178 23.5956L11.9743 21.0214Z" fill="#F1A229"/>
<path d="M5.10475 7.95408L3.5625 10.1133L12.8539 16.7498L14.3961 14.5906L5.10475 7.95408Z" fill="#F1A229"/>
<path d="M17.5056 0.736916L14.9336 1.39453L17.6486 12.0133L20.2206 11.3556L17.5056 0.736916Z" fill="#F1A229"/>
</g>
<defs>
<clipPath id="clip0_1465_6607">
<rect width="80" height="80" fill="white" transform="translate(0 0.726562)"/>
</clipPath>
</defs>
</svg>
