<svg width="80" height="81" viewBox="0 0 80 81" fill="none" xmlns="http://www.w3.org/2000/svg">
<path d="M71.8912 77.0791H66.5821L69.9397 52.8003C70.1336 51.3942 69.7094 49.9761 68.7881 48.9094C67.9275 47.9276 66.7154 47.3579 65.4184 47.2609C64.2669 42.1579 59.6851 38.4367 54.376 38.4367H51.1639C50.5942 37.9033 49.2124 36.4367 48.2063 34.0973C50.8972 31.7336 52.4366 28.3882 52.4366 24.7639V23.2245C53.4306 20.6791 54.0487 17.467 54.1457 15.5639C54.4487 9.80637 50.873 4.48516 45.4306 2.63061C39.8791 0.727581 35.3457 3.73364 33.3094 6.01243C30.4003 5.46697 28.2306 6.00031 26.8487 7.61243C23.3094 11.7215 26.8003 21.273 27.5397 23.1761V24.7761C27.5397 28.4003 29.0791 31.7458 31.77 34.1094C30.776 36.4488 29.3942 37.9155 28.8245 38.4488H25.6003C20.2912 38.4488 15.7215 42.1821 14.57 47.273C13.273 47.3579 12.0487 47.9276 11.1881 48.9215C10.2548 49.9882 9.84268 51.4064 10.0366 52.8124L13.3942 77.0912H8.10935C7.46693 77.0912 6.93359 77.6124 6.93359 78.267C6.93359 78.9215 7.45481 79.4427 8.10935 79.4427H71.9033C72.5457 79.4427 73.0791 78.9215 73.0791 78.267C73.0669 77.6003 72.5457 77.0791 71.8912 77.0791ZM62.9821 47.2367H44.873L50.9942 40.7882H54.376C58.3881 40.7882 61.8791 43.4791 62.9821 47.2367ZM38.3639 47.2367L31.0548 39.5397C31.8184 38.7155 32.873 37.37 33.7336 35.5276C35.6245 36.6306 37.77 37.2245 40.0003 37.2245C42.2306 37.2245 44.3639 36.6306 46.2669 35.5276C47.1275 37.3821 48.1821 38.7155 48.9457 39.5397L41.6366 47.2367H38.3639ZM28.6306 9.1397C29.5033 8.12152 31.1397 7.89122 33.4912 8.44879C33.9397 8.55788 34.4245 8.38819 34.7033 8.01243C34.7397 7.96394 38.7154 2.81243 44.6791 4.84879C49.1275 6.37607 52.0609 10.7276 51.8063 15.4427C51.7457 16.5215 51.4912 18.1336 51.0791 19.7579C50.1336 18.3639 48.5578 16.7639 45.9518 15.5882C44.17 14.7882 42.1942 14.3761 40.073 14.3761C40.0366 14.3761 39.9881 14.3761 39.9518 14.3761C37.0427 14.4124 34.9094 13.8427 34.376 12.9215C34.0972 12.4488 33.5275 12.2185 33.0063 12.3882C32.8366 12.4367 29.7821 13.4549 28.3154 17.7579C27.5639 14.5458 27.176 10.8245 28.6306 9.1397ZM29.8912 24.7639V23.0185C29.8912 22.9942 29.9033 22.9821 29.9033 22.9579C29.8912 17.7458 31.976 15.6852 33.0669 14.97C34.6791 16.4245 37.6003 16.7397 39.976 16.7155C41.7942 16.6912 43.4912 17.0427 44.9942 17.7215C48.8851 19.4791 49.8912 22.3155 50.0972 23.0185V24.7639C50.0972 27.9518 48.6306 30.8973 46.0851 32.8245C44.3154 34.1579 42.2184 34.873 40.0003 34.873C37.77 34.873 35.6609 34.17 33.9033 32.8245C31.3578 30.8973 29.8912 27.9639 29.8912 24.7639ZM25.6124 40.7882H29.0063L35.1275 47.2367H17.0184C18.1215 43.4791 21.6003 40.7882 25.6124 40.7882ZM12.97 50.4488C13.4548 49.8912 14.1457 49.5761 14.8851 49.5761H15.5639H64.4245H65.0912C65.8306 49.5761 66.5215 49.8912 67.0063 50.4488C67.4912 51.0064 67.7094 51.7458 67.6124 52.473L64.2063 77.0791H15.77L12.3639 52.473C12.2669 51.7458 12.4972 51.0064 12.97 50.4488Z" fill="#59696E"/>
<path d="M37.0171 64.5691C37.8656 65.2237 38.9201 65.5873 39.9989 65.5873C41.0777 65.5873 42.1323 65.2237 42.9686 64.5813C44.1808 63.6722 44.908 62.2176 44.908 60.6903C44.908 57.9873 42.702 55.7812 39.9989 55.7812C37.2959 55.7812 35.0898 57.9873 35.0898 60.6903C35.0898 62.2176 35.8171 63.6722 37.0171 64.5691ZM39.9989 58.1206C41.405 58.1206 42.5565 59.2722 42.5565 60.6903C42.5565 61.4903 42.1929 62.2297 41.5383 62.7267C40.6777 63.4055 39.3444 63.4176 38.4474 62.7146C37.805 62.2297 37.4414 61.5025 37.4414 60.6903C37.4414 59.2722 38.5929 58.1206 39.9989 58.1206Z" fill="#59696E"/>
<path d="M43.5984 23.5275C44.2651 23.5275 44.9318 23.273 45.4409 22.7639C45.9015 22.3033 45.9015 21.5639 45.4409 21.1033C44.9803 20.6427 44.2409 20.6427 43.7803 21.1033C43.6712 21.2124 43.5015 21.2124 43.4045 21.1033C42.9439 20.6427 42.2045 20.6427 41.7439 21.1033C41.2833 21.5639 41.2833 22.3033 41.7439 22.7639C42.2651 23.273 42.9318 23.5275 43.5984 23.5275Z" fill="#59696E"/>
<path d="M36.3875 23.5275C37.0542 23.5275 37.7208 23.273 38.2299 22.7639C38.6905 22.3033 38.6905 21.5639 38.2299 21.1033C37.7693 20.6427 37.0299 20.6427 36.5693 21.1033C36.4602 21.2124 36.2905 21.2124 36.1936 21.1033C35.733 20.6427 34.9936 20.6427 34.533 21.1033C34.0723 21.5639 34.0723 22.3033 34.533 22.7639C35.042 23.273 35.7208 23.5275 36.3875 23.5275Z" fill="#59696E"/>
<path d="M36.8259 28.1931C36.3653 28.6537 36.3653 29.3931 36.8259 29.8537C37.6987 30.7264 38.8502 31.1628 40.0017 31.1628C41.1532 31.1628 42.2926 30.7264 43.1774 29.8537C43.638 29.3931 43.638 28.6537 43.1774 28.1931C42.7168 27.7325 41.9774 27.7325 41.5168 28.1931C40.6805 29.0295 39.3229 29.0295 38.4987 28.1931C38.0259 27.7325 37.2865 27.7325 36.8259 28.1931Z" fill="#59696E"/>
</svg>
