<svg width="65" height="63" viewBox="0 0 65 63" fill="none" xmlns="http://www.w3.org/2000/svg">
<g clip-path="url(#clip0_878_281)">
<path d="M160.012 -125.392C160.012 -198.945 99.6346 -258.173 26.4713 -254.749C-38.5595 -251.706 -91.4623 -198.301 -94.8245 -132.273C-98.2851 -64.3274 -50.148 -7.09963 13.3216 2.62715C21.0199 3.80643 26.805 10.3552 26.805 18.2619V18.8284C26.805 23.6105 24.5993 28.0328 21.0313 31.1551C16.4896 35.1317 13.973 41.4228 15.2782 48.2339C16.6107 55.1865 22.1239 60.7928 28.9719 62.1462C40.2244 64.3724 50.0758 55.681 50.0758 44.6519C50.0758 39.0619 47.541 34.0801 43.5776 30.8139C40.0347 27.8935 38.2061 23.3273 38.2061 18.6914V18.371C38.2061 10.5548 43.7878 3.81803 51.3992 2.67125C112.86 -6.59821 160.012 -60.3949 160.012 -125.392Z" fill="#05BCC1"/>
</g>
<defs>
<clipPath id="clip0_878_281">
<rect width="65" height="63" fill="white"/>
</clipPath>
</defs>
</svg>
