<svg width="142" height="157" viewBox="0 0 142 157" fill="none" xmlns="http://www.w3.org/2000/svg">
<path d="M0 16.7756L8.46382 40.4408C-2.69569 67.8887 6.1001 100.366 31.4023 118.083C41.6285 125.244 53.196 129.036 64.8064 129.717V0C50.3268 0.873798 36.2453 6.57577 25.1221 16.6368L0 16.7756Z" fill="#F1A229"/>
<path d="M105.94 11.6336C95.7134 4.47305 84.1459 0.678887 72.5371 0V4.8166C83.5347 5.5087 94.0649 9.17073 103.191 15.5615C130.373 34.5951 137.003 72.1949 117.97 99.3768C107.468 114.375 90.6986 123.726 72.5371 124.91V129.719C91.6434 128.567 110.066 119.023 121.896 102.127C142.479 72.7301 135.335 32.2166 105.94 11.6336Z" fill="#F1A229"/>
<g opacity="0.8">
<path opacity="0.01" d="M109.485 60.33C135.004 70.0987 147.772 98.7061 138.002 124.225C128.233 149.743 99.6257 162.512 74.1072 152.741C48.5886 142.972 35.8203 114.365 45.5906 88.8465C55.3593 63.3296 83.9667 50.5613 109.485 60.33Z" fill="#F0F0F0"/>
<path opacity="0.0139" d="M109.254 59.9377C134.759 69.7014 147.521 98.294 137.757 123.801C127.994 149.306 99.4011 162.068 73.8941 152.304C48.3888 142.541 35.6271 113.948 45.3908 88.441C55.1546 62.9357 83.7471 50.1739 109.254 59.9377Z" fill="#EDEDED"/>
<path opacity="0.0208" d="M109.014 59.5456C134.508 69.3044 147.262 97.8837 137.503 123.376C127.744 148.87 99.1663 161.623 73.6726 151.864C48.1805 142.106 35.4253 113.528 45.1841 88.0341C54.9429 62.5403 83.5222 49.7868 109.014 59.5456Z" fill="#EBEBEB"/>
<path opacity="0.0277" d="M108.773 59.1534C134.254 68.9072 147.002 97.4716 137.247 122.952C127.493 148.433 98.9285 161.181 73.4479 151.426C47.9674 141.672 35.2189 113.108 44.9743 87.627C54.7298 62.1464 83.2926 49.3995 108.773 59.1534Z" fill="#E8E8E8"/>
<path opacity="0.0347" d="M108.538 58.7696C134.005 68.5184 146.747 97.068 136.998 122.535C127.249 148.003 98.6995 160.745 73.2322 150.994C47.7649 141.245 35.0229 112.696 44.7735 87.2283C54.5224 61.761 83.0703 49.019 108.538 58.7696Z" fill="#E6E6E6"/>
<path opacity="0.0416" d="M108.304 58.3695C133.758 68.1134 146.494 96.6481 136.75 122.102C127.006 147.556 98.4711 160.292 73.0153 150.548C47.5612 140.804 34.8258 112.269 44.5698 86.815C54.3153 61.3592 82.85 48.6239 108.304 58.3695Z" fill="#E4E4E4"/>
<path opacity="0.0485" d="M108.065 57.985C133.506 67.724 146.236 96.2455 136.496 121.686C126.757 147.127 98.2369 159.856 72.7943 150.117C47.3534 140.378 34.6231 111.857 44.3637 86.4157C54.1043 60.9731 82.6241 48.2444 108.065 57.985Z" fill="#E1E1E1"/>
<path opacity="0.0554" d="M107.831 57.5927C133.261 67.3268 145.983 95.8334 136.247 121.261C126.513 146.69 98.0063 159.413 72.5786 149.677C47.1509 139.943 34.4272 111.436 44.1629 86.0085C53.8969 60.5792 82.4019 47.8571 107.831 57.5927Z" fill="#DFDFDF"/>
<path opacity="0.0624" d="M107.588 57.1996C133.005 66.9303 145.72 95.4204 135.991 120.837C126.262 146.253 97.7702 158.968 72.3541 149.239C46.938 139.51 34.2225 111.018 43.9515 85.6022C53.6822 60.186 82.1724 47.4705 107.588 57.1996Z" fill="#DCDCDC"/>
<path opacity="0.0693" d="M107.357 56.8073C132.759 66.5331 145.468 95.0083 135.744 120.411C126.02 145.814 97.5432 158.523 72.1403 148.799C46.7374 139.075 34.0285 110.598 43.7526 85.195C53.4767 59.7921 81.9536 47.0832 107.357 56.8073Z" fill="#DADADA"/>
<path opacity="0.0762" d="M107.119 56.415C132.509 66.1342 145.213 94.5979 135.492 119.988C125.771 145.377 97.3091 158.081 71.9194 148.36C46.5297 138.641 33.8258 110.178 43.5466 84.7879C53.2674 59.3982 81.7294 46.6959 107.119 56.415Z" fill="#D8D8D8"/>
<path opacity="0.0832" d="M106.881 56.0234C132.258 65.7393 144.955 94.1865 135.239 119.563C125.523 144.939 97.0763 157.637 71.6998 147.921C46.3233 138.207 33.626 109.758 43.3418 84.3814C53.056 59.0049 81.5032 46.3076 106.881 56.0234Z" fill="#D5D5D5"/>
<path opacity="0.0901" d="M106.642 55.6311C132.006 65.342 144.696 93.7743 134.987 119.139C125.276 144.503 96.8439 157.193 71.4789 147.484C46.1157 137.775 33.4249 109.341 43.1342 83.9776C52.8451 58.611 81.279 45.9202 106.642 55.6311Z" fill="#D3D3D3"/>
<path opacity="0.097" d="M106.407 55.2389C131.759 64.9448 144.443 93.3623 134.737 118.714C125.031 144.066 96.6138 156.748 71.2621 147.044C45.9104 137.34 33.2263 108.92 42.9322 83.5688C52.6365 58.2171 81.0556 45.5329 106.407 55.2389Z" fill="#D0D0D0"/>
<path opacity="0.104" d="M106.167 54.8466C131.506 64.5476 144.183 92.9518 134.482 118.289C124.781 143.627 96.3787 156.305 71.0386 146.604C45.7001 136.904 33.0226 108.498 42.7236 83.1616C52.4245 57.8231 80.8288 45.1456 106.167 54.8466Z" fill="#CECECE"/>
<path opacity="0.1109" d="M105.934 54.4543C131.259 64.1504 143.93 92.5397 134.235 117.865C124.539 143.19 96.1501 155.861 70.8248 146.165C45.4995 136.469 32.8286 108.08 42.5247 82.7545C52.2174 57.4292 80.6084 44.7583 105.934 54.4543Z" fill="#CCCCCC"/>
<path opacity="0.1178" d="M105.699 54.0612C131.011 63.7522 143.675 92.1267 133.985 117.439C124.294 142.751 95.92 155.415 70.6079 145.726C45.2958 136.035 32.6315 107.66 42.3209 82.3481C52.0104 57.0361 80.3865 44.3718 105.699 54.0612Z" fill="#C9C9C9"/>
<path opacity="0.1248" d="M105.459 53.6767C130.758 63.3628 143.417 91.7225 133.731 117.023C124.045 142.322 95.6855 154.981 70.385 145.295C45.0862 135.609 32.4268 107.249 42.1129 81.9488C51.7974 56.65 80.1587 43.9923 105.459 53.6767Z" fill="#C7C7C7"/>
<path opacity="0.1317" d="M105.216 53.2844C130.503 62.9656 143.154 91.312 133.473 116.598C123.792 141.885 95.447 154.536 70.1597 144.855C44.8724 135.174 32.2214 106.827 41.9025 81.5417C51.582 56.2561 79.9301 43.6049 105.216 53.2844Z" fill="#C4C4C4"/>
<path opacity="0.1386" d="M104.984 52.8928C130.258 62.569 142.902 90.9006 133.228 116.175C123.552 141.449 95.22 154.093 69.9459 144.419C44.6719 134.742 32.0274 106.411 41.7036 81.1368C51.3781 55.8628 79.7097 43.2166 104.984 52.8928Z" fill="#C2C2C2"/>
<path opacity="0.1455" d="M104.749 52.5006C130.01 62.1718 142.647 90.4885 132.978 115.749C123.307 141.01 94.9899 153.648 69.729 143.978C44.4682 134.307 31.8303 105.991 41.4999 80.7297C51.1711 55.4689 79.4878 42.8293 104.749 52.5006Z" fill="#C0C0C0"/>
<path opacity="0.1525" d="M104.509 52.1083C129.757 61.7746 142.39 90.0764 132.724 115.326C123.057 140.573 94.7554 153.206 69.5061 143.54C44.2585 133.874 31.6256 105.572 41.2919 80.3242C50.9582 55.0749 79.26 42.442 104.509 52.1083Z" fill="#BDBDBD"/>
<path opacity="0.1594" d="M104.27 51.716C129.504 61.3774 142.13 89.666 132.469 114.9C122.808 140.135 94.519 152.761 69.2846 143.1C44.0501 133.438 31.4238 105.15 41.0852 79.9155C50.7465 54.681 79.0351 42.0547 104.27 51.716Z" fill="#BBBBBB"/>
<path opacity="0.1663" d="M104.033 51.3237C129.256 60.9801 141.874 89.2539 132.219 114.475C122.563 139.698 94.2888 152.316 69.0676 142.661C43.8464 133.005 31.2267 104.731 40.8815 79.51C50.5362 54.2871 78.8099 41.6674 104.033 51.3237Z" fill="#B8B8B8"/>
<path opacity="0.1733" d="M103.796 50.9306C129.005 60.582 141.618 88.8408 131.967 114.051C122.315 139.26 94.0566 151.872 68.8469 142.222C43.6373 132.57 31.0242 104.312 40.6756 79.1019C50.327 53.8939 78.5859 41.2808 103.796 50.9306Z" fill="#B6B6B6"/>
<path opacity="0.1802" d="M103.562 50.5385C128.758 60.185 141.365 88.429 131.718 113.625C122.072 138.822 93.8276 151.428 68.6312 141.782C43.4347 132.135 30.8283 103.891 40.4747 78.695C50.1196 53.4985 78.3652 40.8937 103.562 50.5385Z" fill="#B4B4B4"/>
<path opacity="0.1871" d="M103.326 50.1469C128.509 59.7884 141.109 88.0192 131.469 113.202C121.828 138.386 93.5968 150.986 68.4135 141.344C43.2303 131.703 30.6304 103.472 40.2719 78.2885C49.9118 53.1053 78.1426 40.5054 103.326 50.1469Z" fill="#B1B1B1"/>
<path opacity="0.1941" d="M103.087 49.7625C128.257 59.399 140.85 87.6149 131.215 112.785C121.579 137.955 93.3627 150.548 68.1927 140.913C43.0227 131.277 30.4294 103.061 40.0643 77.8908C49.6992 52.7191 77.9151 40.1259 103.087 49.7625Z" fill="#AFAFAF"/>
<path opacity="0.201" d="M102.851 49.3624C128.008 58.994 140.596 87.195 130.965 112.353C121.333 137.512 93.1322 150.099 67.9737 140.467C42.8169 130.835 30.2286 102.634 39.8602 77.4759C49.4918 52.3174 77.6945 39.7308 102.851 49.3624Z" fill="#ADADAD"/>
<path opacity="0.2079" d="M102.612 48.9779C127.757 58.6046 140.337 86.7907 130.71 111.936C121.084 137.081 92.8975 149.661 67.7523 140.035C42.6071 130.408 30.027 102.222 39.6537 77.0765C49.2787 51.9313 77.4665 39.3513 102.612 48.9779Z" fill="#AAAAAA"/>
<path opacity="0.2149" d="M102.38 48.5856C127.512 58.2073 140.085 86.3802 130.465 111.512C120.844 136.644 92.6705 149.218 67.5385 139.598C42.4065 129.976 29.8331 101.803 39.4548 76.6727C49.0748 51.5373 77.2477 38.9639 102.38 48.5856Z" fill="#A8A8A8"/>
<path opacity="0.2218" d="M102.136 48.1934C127.254 57.8101 139.823 85.9682 130.206 111.087C120.589 136.206 92.4314 148.773 67.3126 139.158C42.1938 129.541 29.6252 101.383 39.242 76.2639C48.8571 51.1434 77.0168 38.5766 102.136 48.1934Z" fill="#A5A5A5"/>
<path opacity="0.2287" d="M101.904 47.8002C127.009 57.412 139.571 85.5552 129.959 110.661C120.348 135.766 92.2044 148.328 67.0988 138.716C41.9932 129.105 29.4313 100.961 39.0431 75.8559C48.6532 50.7503 76.7981 38.1901 101.904 47.8002Z" fill="#A3A3A3"/>
<path opacity="0.2356" d="M101.666 47.4079C126.758 57.0148 139.313 85.1431 129.706 110.237C120.1 135.33 91.9712 147.885 66.8771 138.278C41.7848 128.671 29.2295 100.543 38.8363 75.4487C48.4415 50.3564 76.5715 37.8028 101.666 47.4079Z" fill="#A1A1A1"/>
<path opacity="0.2426" d="M101.427 47.0163C126.508 56.6182 139.055 84.7333 129.455 109.813C119.853 134.893 91.7376 147.44 66.6585 137.84C41.5777 128.238 29.0307 100.123 38.6309 75.0439C48.2328 49.9631 76.3462 37.4145 101.427 47.0163Z" fill="#9E9E9E"/>
<path opacity="0.2495" d="M101.19 46.6241C126.257 56.221 138.799 84.3212 129.202 109.389C119.605 134.456 91.5052 146.999 66.4376 137.402C41.37 127.805 28.8279 99.7044 38.4248 74.6368C48.0217 49.5692 76.1221 37.0271 101.19 46.6241Z" fill="#9C9C9C"/>
<path opacity="0.2564" d="M100.954 46.2318C126.008 55.8237 138.544 83.9092 128.952 108.964C119.36 134.018 91.2743 146.553 66.2199 136.961C41.1655 127.369 28.6301 99.284 38.222 74.2296C47.814 49.1752 75.8994 36.6398 100.954 46.2318Z" fill="#999999"/>
<path opacity="0.2634" d="M100.716 45.8395C125.757 55.4265 138.286 83.497 128.699 108.54C119.112 133.581 91.0411 146.11 65.9983 136.523C40.9571 126.936 28.4283 98.8653 38.0153 73.8225C47.6023 48.7813 75.6728 36.2525 100.716 45.8395Z" fill="#979797"/>
<path opacity="0.2703" d="M100.482 45.4472C125.51 55.0293 138.033 83.0866 128.451 108.115C118.869 133.143 90.8119 145.665 65.784 136.084C40.756 126.502 28.2322 98.445 37.8142 73.417C47.3963 48.3874 75.4536 35.8652 100.482 45.4472Z" fill="#959595"/>
<path opacity="0.2772" d="M100.24 45.0549C125.256 54.632 137.772 82.6745 128.195 107.691C118.618 132.707 90.5751 145.223 65.5587 135.646C40.5423 126.069 28.0267 98.0262 37.6038 73.0115C47.1809 47.9935 75.2234 35.4778 100.24 45.0549Z" fill="#929292"/>
<path opacity="0.2842" d="M100.008 44.6618C125.011 54.2339 137.52 82.2615 127.948 107.265C118.376 132.268 90.3481 144.777 65.3449 135.205C40.3418 125.633 27.8327 97.6051 37.4049 72.6019C46.977 47.6004 75.0046 35.0913 100.008 44.6618Z" fill="#909090"/>
<path opacity="0.2911" d="M99.7683 44.2702C124.758 53.8374 137.261 81.8501 127.695 106.84C118.128 131.83 90.1152 144.332 65.1253 134.767C40.1353 125.2 27.6329 97.187 37.2001 72.197C46.764 47.2071 74.7784 34.703 99.7683 44.2702Z" fill="#8D8D8D"/>
<path opacity="0.298" d="M99.5317 43.8857C124.508 53.448 137.006 81.4475 127.444 106.424C117.881 131.401 89.8819 143.898 64.9051 134.336C39.9284 124.774 27.4309 96.7744 36.9932 71.7977C46.5554 46.8209 74.5549 34.3235 99.5317 43.8857Z" fill="#8B8B8B"/>
<path opacity="0.305" d="M99.2958 43.4857C124.259 53.0429 136.75 81.0276 127.193 105.991C117.636 130.955 89.651 143.445 64.6875 133.888C39.7239 124.331 27.2331 96.3463 36.7903 71.3828C46.346 46.4192 74.3306 33.9284 99.2958 43.4857Z" fill="#898989"/>
<path opacity="0.3119" d="M99.0577 43.1012C124.01 52.6535 136.492 80.6233 126.94 105.575C117.388 130.527 89.4178 143.01 64.4659 133.458C39.5156 123.905 27.0313 95.9354 36.5836 70.9835C46.1359 46.0331 74.1074 33.5489 99.0577 43.1012Z" fill="#868686"/>
<path opacity="0.3188" d="M98.8231 42.7089C123.762 52.2563 136.238 80.2129 126.692 105.15C117.145 130.089 89.1899 142.565 64.2511 133.019C39.3124 123.472 26.8364 95.5167 36.3821 70.5779C45.9278 45.6392 73.8844 33.1616 98.8231 42.7089Z" fill="#848484"/>
<path opacity="0.3257" d="M98.5818 42.3166C123.507 51.859 135.978 79.8007 126.436 104.726C116.894 129.652 88.9518 142.123 64.0263 132.58C39.1007 123.038 26.6297 95.0964 36.1721 70.1708C45.7145 45.2453 73.6562 32.7742 98.5818 42.3166Z" fill="#818181"/>
<path opacity="0.3327" d="M98.3498 41.9244C123.262 51.4618 135.727 79.3887 126.189 104.301C116.652 129.213 88.7248 141.678 63.8125 132.14C38.9002 122.603 26.4357 94.676 35.9732 69.7637C45.509 44.8513 73.4358 32.3869 98.3498 41.9244Z" fill="#7F7F7F"/>
<path opacity="0.3396" d="M98.1081 41.5312C123.007 51.0637 135.465 78.9757 125.933 103.875C116.4 128.774 88.4881 141.232 63.589 131.699C38.6898 122.167 26.232 94.2548 35.7645 69.3557C45.2954 44.4582 73.209 32.0004 98.1081 41.5312Z" fill="#7D7D7D"/>
<path opacity="0.3465" d="M97.8737 41.1398C122.76 50.6673 135.212 78.5661 125.685 103.452C116.157 128.34 88.2603 140.791 63.3727 131.263C38.4868 121.736 26.0339 93.8386 35.5615 68.951C45.0874 44.0635 72.9861 31.6123 97.8737 41.1398Z" fill="#7A7A7A"/>
<path opacity="0.3535" d="M97.6341 40.7475C122.508 50.2701 134.953 78.154 125.43 103.027C115.908 127.901 88.024 140.346 63.1513 130.823C38.277 121.3 25.8324 93.4166 35.355 68.5439C44.8775 43.6696 72.7598 31.225 97.6341 40.7475Z" fill="#787878"/>
<path opacity="0.3604" d="M97.398 40.3553C122.259 49.8729 134.697 77.7419 125.179 102.603C115.662 127.464 87.7928 139.902 62.9317 130.385C38.0706 120.867 25.6326 92.9979 35.1502 68.1368C44.6678 43.2756 72.5369 30.8376 97.398 40.3553Z" fill="#757575"/>
<path opacity="0.3673" d="M97.1644 39.963C122.012 49.4756 134.444 77.3298 124.933 102.178C115.42 127.026 87.5658 139.457 62.7179 129.946C37.87 120.433 25.4386 92.5792 34.9513 67.7313C44.4623 42.8817 72.3165 30.4503 97.1644 39.963Z" fill="#737373"/>
<path opacity="0.3743" d="M96.9277 39.5707C121.762 49.0784 134.189 76.9194 124.681 101.754C115.173 126.589 87.3341 139.015 62.4978 129.507C37.6631 120 25.2366 92.1605 34.7443 67.3241C44.2521 42.4878 72.0914 30.063 96.9277 39.5707Z" fill="#717171"/>
<path opacity="0.3812" d="M96.684 39.1862C121.505 48.689 133.925 76.5151 124.423 101.337C114.92 126.16 87.0937 138.578 62.2723 129.075C37.4508 119.572 25.0309 91.7463 34.5337 66.9248C44.0365 42.1017 71.8625 29.6835 96.684 39.1862Z" fill="#6E6E6E"/>
<path opacity="0.3881" d="M96.452 38.794C121.262 48.2918 133.674 76.103 124.176 100.913C114.678 125.723 86.8667 138.134 62.0568 128.637C37.2468 119.139 24.8352 91.3276 34.333 66.5177C43.8308 41.7077 71.6421 29.2962 96.452 38.794Z" fill="#6C6C6C"/>
<path opacity="0.395" d="M96.212 38.3937C121.009 47.8865 133.415 75.6829 123.922 100.48C114.43 125.276 86.6333 137.681 61.8366 128.19C37.0399 118.697 24.6332 90.9009 34.1261 66.1041C43.619 41.3074 71.4153 28.9008 96.212 38.3937Z" fill="#696969"/>
<path opacity="0.402" d="M95.9761 38.0092C120.76 47.4971 133.16 75.2802 123.672 100.062C114.184 124.846 86.4024 137.246 61.6189 127.758C36.8354 118.27 24.4354 90.4867 33.9233 65.7048C43.4095 40.9213 71.1927 28.5213 95.9761 38.0092Z" fill="#676767"/>
<path opacity="0.4089" d="M95.7439 37.617C120.514 47.0999 132.908 74.8682 123.425 99.6385C113.942 124.409 86.1734 136.802 61.4031 127.319C36.6329 117.836 24.2395 90.068 33.7224 65.2977C43.2054 40.5274 70.9736 28.134 95.7439 37.617Z" fill="#656565"/>
<path opacity="0.4158" d="M95.5003 37.2247C120.257 46.7027 132.644 74.4561 123.166 99.2131C113.688 123.97 85.9348 136.357 61.1777 126.879C36.4206 117.401 24.0338 89.6476 33.5118 64.8905C42.9881 40.1335 70.7416 27.7467 95.5003 37.2247Z" fill="#626262"/>
<path opacity="0.4228" d="M95.2697 36.8324C120.015 46.3054 132.395 74.044 122.922 98.7895C113.449 123.535 85.7108 135.915 60.9653 126.442C36.2215 116.969 23.8396 89.2305 33.3127 64.485C42.7857 39.7395 70.5242 27.3594 95.2697 36.8324Z" fill="#606060"/>
<path opacity="0.4297" d="M95.0262 36.4323C119.759 45.9004 132.132 73.6257 122.664 98.3564C113.196 123.089 85.4723 135.462 60.74 125.994C36.0077 116.526 23.6342 88.8007 33.1022 64.0701C42.5687 39.3378 70.294 26.9642 95.0262 36.4323Z" fill="#5D5D5D"/>
<path opacity="0.4366" d="M94.794 36.0479C119.513 45.511 131.88 73.2214 122.417 97.9405C112.954 122.66 85.2434 135.027 60.5243 125.563C35.8052 116.1 23.4383 88.3898 32.9014 63.6708C42.3645 38.9517 70.075 26.5847 94.794 36.0479Z" fill="#5B5B5B"/>
<path opacity="0.4436" d="M94.5533 35.6547C119.259 45.1129 131.621 72.8085 122.163 97.5143C112.705 122.22 85.0093 134.581 60.3034 125.124C35.5975 115.666 23.2355 87.9702 32.6953 63.2644C42.1502 38.5585 69.8458 26.1982 94.5533 35.6547Z" fill="#595959"/>
<path opacity="0.4505" d="M94.3198 35.2631C119.012 44.7163 131.368 72.397 121.915 97.0913C112.462 121.784 84.7808 134.139 60.0865 124.686C35.3938 115.233 23.0384 87.5522 32.4916 62.8579C41.9448 38.1653 69.6272 25.8099 94.3198 35.2631Z" fill="#565656"/>
<path opacity="0.4574" d="M94.0781 34.8786C118.758 44.3269 131.106 71.9944 121.658 96.6739C112.21 121.355 84.544 133.702 59.8629 124.254C35.1835 114.806 22.8347 87.138 32.2829 62.4586C41.7295 37.7792 69.3971 25.4304 94.0781 34.8786Z" fill="#545454"/>
<path opacity="0.4644" d="M93.8425 34.4786C118.51 43.9219 130.851 71.5745 121.408 96.2407C111.964 120.909 84.3116 133.249 59.6454 123.806C34.9775 114.363 22.637 86.7099 32.0803 62.042C41.5236 37.3775 69.1746 25.0353 93.8425 34.4786Z" fill="#515151"/>
<path opacity="0.4713" d="M93.6112 34.0941C118.266 43.5324 130.601 71.1702 121.163 95.8249C111.725 120.48 84.087 132.815 59.4323 123.377C34.7777 113.938 22.4421 86.3006 31.8821 61.646C41.3188 36.9913 68.9566 24.6557 93.6112 34.0941Z" fill="#4F4F4F"/>
<path opacity="0.4782" d="M93.3703 33.694C118.012 43.1274 130.341 70.7503 120.907 95.3917C111.474 120.033 83.851 132.362 59.2096 122.929C34.5681 113.495 22.2391 85.8724 31.6725 61.231C41.1059 36.5896 68.7288 24.2606 93.3703 33.694Z" fill="#4D4D4D"/>
<path opacity="0.4851" d="M93.1283 33.3095C117.756 42.738 130.079 70.3477 120.65 94.9759C111.222 119.604 83.6139 131.926 58.984 122.498C34.3558 113.07 22.0335 85.4599 31.4619 60.8317C40.8903 36.2035 68.4984 23.8811 93.1283 33.3095Z" fill="#4A4A4A"/>
<path opacity="0.4921" d="M92.897 32.9094C117.512 42.3329 129.829 69.9277 120.404 94.5427C110.981 119.159 83.3859 131.474 58.7709 122.052C34.1559 112.628 21.8385 85.0334 31.2636 60.4184C40.6871 35.8017 68.2819 23.486 92.897 32.9094Z" fill="#484848"/>
<path opacity="0.499" d="M92.6581 32.5248C117.262 41.9433 129.571 69.5233 120.152 94.1267C110.734 118.73 83.1537 131.039 58.5503 121.621C33.9468 112.202 21.6377 84.6223 31.0562 60.0189C40.4747 35.4171 68.0547 23.1063 92.6581 32.5248Z" fill="#454545"/>
<path opacity="0.5059" d="M92.4204 32.1247C117.011 41.5383 129.313 69.1034 119.9 93.6936C110.486 118.284 82.9209 130.586 58.3307 121.173C33.7405 111.759 21.4379 84.1942 30.8515 59.6039C40.265 35.0154 67.8302 22.7111 92.4204 32.1247Z" fill="#434343"/>
<path opacity="0.5129" d="M92.1823 31.7404C116.759 41.149 129.055 68.7009 119.647 93.278C110.238 117.855 82.6878 130.151 58.1091 120.742C33.5321 111.334 21.2361 83.7818 30.6447 59.2048C40.055 34.6278 67.6052 22.3318 92.1823 31.7404Z" fill="#414141"/>
<path opacity="0.5198" d="M91.9471 31.3481C116.511 40.7518 128.802 68.2889 119.397 92.8527C109.993 117.416 82.4558 129.706 57.892 120.304C33.3282 110.9 21.0373 83.3631 30.4426 58.7993C39.8462 34.2339 67.3832 21.9445 91.9471 31.3481Z" fill="#3E3E3E"/>
<path opacity="0.5267" d="M91.7123 30.9559C116.263 40.3546 128.547 67.8767 119.149 92.4273C109.75 116.978 82.2277 129.262 57.6771 119.864C33.1265 110.465 20.8421 82.9428 30.2408 58.3922C39.6395 33.8399 67.1617 21.5572 91.7123 30.9559Z" fill="#3C3C3C"/>
<path opacity="0.5337" d="M91.4744 30.5636C116.013 39.9573 128.29 67.4647 118.896 92.0037C109.502 116.543 81.9948 128.819 57.4557 119.425C32.9167 110.031 20.6406 82.5241 30.0343 57.985C39.428 33.446 66.9354 21.1699 91.4744 30.5636Z" fill="#3A3A3A"/>
<path opacity="0.5406" d="M91.2385 30.1713C115.764 39.5601 128.034 67.0542 118.645 91.5784C109.256 116.104 81.7639 128.374 57.238 118.985C32.7122 109.596 20.4427 82.102 29.8315 57.5779C39.2203 33.0521 66.7144 20.7825 91.2385 30.1713Z" fill="#373737"/>
<path opacity="0.5475" d="M90.9994 29.7869C115.512 39.1707 127.777 66.6499 118.393 91.1625C109.009 115.675 81.5297 127.94 57.0171 118.556C32.5045 109.172 20.24 81.6928 29.6254 57.1802C39.0076 32.666 66.4868 20.403 90.9994 29.7869Z" fill="#353535"/>
<path opacity="0.5545" d="M90.7624 29.3866C115.262 38.7655 127.52 66.2298 118.141 90.7292C108.762 115.229 81.2976 127.487 56.7982 118.108C32.2988 108.729 20.0409 81.2644 29.4198 56.7651C38.7987 32.2657 66.263 20.0077 90.7624 29.3866Z" fill="#323232"/>
<path opacity="0.5614" d="M90.5243 29.0021C115.01 38.376 127.262 65.8255 117.888 90.3134C108.514 114.8 81.0645 127.051 56.5767 117.677C32.0905 108.303 19.8391 80.8535 29.2131 56.3657C38.587 31.8796 66.0381 19.6282 90.5243 29.0021Z" fill="#303030"/>
<path opacity="0.5683" d="M90.2852 28.602C114.758 37.971 127.005 65.4073 117.634 89.8802C108.265 114.355 80.8304 126.598 56.3557 117.231C31.8828 107.862 19.6364 80.4254 29.007 55.9524C38.376 31.4778 65.8122 19.233 90.2852 28.602Z" fill="#2E2E2E"/>
<path opacity="0.5752" d="M90.0467 28.2176C114.508 37.5816 126.746 65.003 117.382 89.4644C108.018 113.926 80.5968 126.164 56.137 116.8C31.6756 107.436 19.4375 80.0145 28.8015 55.5531C38.1656 31.0917 65.5853 18.8535 90.0467 28.2176Z" fill="#2B2B2B"/>
<path opacity="0.5822" d="M89.8164 27.8253C114.265 37.1843 126.496 64.5909 117.137 89.0391C107.778 113.487 80.3714 125.719 55.9232 116.36C31.4751 107.001 19.2436 79.5941 28.6026 55.1459C37.9633 30.6978 65.3699 18.4662 89.8164 27.8253Z" fill="#292929"/>
<path opacity="0.5891" d="M89.5727 27.4252C114.008 36.7793 126.233 64.171 116.879 88.6059C107.524 113.041 80.1328 125.266 55.6978 115.912C31.2628 106.558 19.0379 79.166 28.392 54.731C37.7461 30.296 65.1378 18.0711 89.5727 27.4252Z" fill="#262626"/>
<path opacity="0.596" d="M89.3412 27.0407C113.763 36.3899 125.983 63.7684 116.632 88.1901C107.283 112.612 79.9061 124.832 55.4827 115.483C31.061 106.133 18.841 78.7551 28.1918 54.3333C37.5426 29.9099 64.9194 17.6916 89.3412 27.0407Z" fill="#242424"/>
<path opacity="0.603" d="M89.1005 26.6491C113.509 35.9933 125.722 63.3569 116.378 87.7654C107.034 112.176 79.6704 124.387 55.2619 115.043C30.8534 105.699 18.64 78.3354 27.9842 53.9268C37.3284 29.5167 64.6903 17.3033 89.1005 26.6491Z" fill="#222222"/>
<path opacity="0.6099" d="M88.8665 26.256C113.263 35.5952 125.469 62.944 116.129 87.341C106.79 111.738 79.4414 123.943 55.0444 114.604C30.6474 105.265 18.4423 77.9158 27.7816 53.5188C37.1225 29.1235 64.4712 16.9168 88.8665 26.256Z" fill="#1F1F1F"/>
<path opacity="0.6168" d="M88.6274 25.8637C113.011 35.198 125.211 62.5319 115.875 86.9156C106.541 111.299 79.2073 123.498 54.8235 114.164C30.4397 104.829 18.2396 77.4954 27.5755 53.1117C36.9098 28.7296 64.2437 16.5294 88.6274 25.8637Z" fill="#1D1D1D"/>
<path opacity="0.6238" d="M88.3896 25.4714C112.76 34.8008 124.954 62.1214 115.624 86.492C106.295 110.863 78.9761 123.056 54.6039 113.727C30.2333 104.397 18.0398 77.0767 27.3708 52.7062C36.7001 28.3357 64.0191 16.1421 88.3896 25.4714Z" fill="#1A1A1A"/>
<path opacity="0.6307" d="M88.1506 25.0792C112.508 34.4035 124.695 61.7094 115.371 86.0667C106.046 110.424 78.7404 122.611 54.383 113.287C30.0257 103.962 17.8388 76.6564 27.1631 52.2991C36.4875 27.9417 63.7933 15.7548 88.1506 25.0792Z" fill="#181818"/>
<path opacity="0.6376" d="M87.9186 24.6947C112.263 34.0141 124.443 61.3051 115.124 85.6508C105.804 109.997 78.5134 122.175 54.1693 112.856C29.8251 103.536 17.6448 76.2455 26.9642 51.8997C36.2836 27.5556 63.5745 15.3753 87.9186 24.6947Z" fill="#161616"/>
<path opacity="0.6446" d="M87.6776 24.3024C112.01 33.6169 124.184 60.893 114.868 85.2255C105.553 109.558 78.2772 121.732 53.9446 112.417C29.6121 103.103 17.4384 75.8268 26.7545 51.4942C36.0689 27.1617 63.345 14.988 87.6776 24.3024Z" fill="#131313"/>
<path opacity="0.6515" d="M87.4428 23.9023C111.762 33.2118 123.929 60.4747 114.62 84.7924C105.31 109.112 78.049 121.279 53.7297 111.969C29.4103 102.66 17.2432 75.397 26.5527 51.0793C35.8622 26.7599 63.1251 14.5928 87.4428 23.9023Z" fill="#111111"/>
<path opacity="0.6584" d="M87.2085 23.5185C111.515 32.8231 123.675 60.0711 114.371 84.3772C105.066 108.683 77.8181 120.844 53.512 111.539C29.2059 102.235 17.0454 74.9867 26.3499 50.6806C35.6545 26.3745 62.9024 14.2124 87.2085 23.5185Z" fill="#0E0E0E"/>
<path opacity="0.6653" d="M86.9695 23.1178C111.262 32.4174 123.416 59.6504 114.117 83.9433C104.817 108.236 77.584 120.39 53.2911 111.091C28.9981 101.791 16.8426 74.5579 26.1439 50.265C35.4434 25.9721 62.6766 13.8182 86.9695 23.1178Z" fill="#0C0C0C"/>
<path opacity="0.6723" d="M86.7294 22.7333C111.009 32.028 123.158 59.2462 113.862 83.5275C104.567 107.809 77.3489 119.956 53.0675 110.662C28.7878 101.367 16.6389 74.1486 25.9352 49.8673C35.2298 25.5859 62.4497 13.4387 86.7294 22.7333Z" fill="#0A0A0A"/>
<path opacity="0.6792" d="M86.4929 22.3332C110.761 31.6229 122.902 58.8279 113.612 83.0944C104.322 107.363 77.1189 119.503 52.8508 110.213C28.5827 100.924 16.442 73.7188 25.7317 49.4524C35.023 25.1842 62.2264 13.0436 86.4929 22.3332Z" fill="#070707"/>
<path opacity="0.6861" d="M86.2625 21.9488C110.517 31.2335 122.652 58.4236 113.367 82.6786C104.082 106.933 76.8919 119.068 52.637 109.783C28.3821 100.498 16.248 73.3079 25.5328 49.053C34.8191 24.7981 62.0076 12.6641 86.2625 21.9488Z" fill="#050505"/>
<path opacity="0.6931" d="M86.0215 21.5487C110.263 30.8285 122.392 58.0037 113.111 82.2454C103.831 106.487 76.6558 118.616 52.4141 109.335C28.1724 100.055 16.0433 72.8798 25.3248 48.6381C34.6062 24.3964 61.7798 12.2689 86.0215 21.5487Z" fill="#020202"/>
<path opacity="0.7" d="M85.784 21.1642C110.013 30.439 122.135 57.5995 112.86 81.8296C103.585 106.058 76.4249 118.181 52.1965 108.906C27.968 99.6293 15.8455 72.4689 25.1219 48.2404C34.3951 24.0103 61.5555 11.8894 85.784 21.1642Z" fill="black"/>
</g>
</svg>
