<svg width="157" height="157" viewBox="0 0 157 157" fill="none" xmlns="http://www.w3.org/2000/svg">
<path d="M21.0662 50.3375L0.5625 64.8666L21.0662 79.3958C27.3909 107.065 51.3683 128.005 80.5274 129.718V0.015625C51.3683 1.72853 27.3909 22.6683 21.0662 50.3375Z" fill="#F7615A"/>
<path d="M88.2578 0.015625V4.82235C119.647 6.82267 144.574 32.9821 144.574 64.8666C144.574 96.7512 119.645 122.909 88.2578 124.911V129.718C122.343 127.717 149.368 99.4535 149.368 64.8666C149.368 30.2798 122.343 2.0176 88.2578 0.015625Z" fill="#F7615A"/>
<g opacity="0.8">
<path opacity="0.01" d="M124.763 60.1271C150.281 69.8958 163.05 98.5032 153.279 124.022C143.51 149.54 114.903 162.309 89.3845 152.538C63.866 142.77 51.0976 114.162 60.868 88.6436C70.6367 63.1251 99.2441 50.3584 124.763 60.1271Z" fill="#F0F0F0"/>
<path opacity="0.0139" d="M124.531 59.7348C150.037 69.4985 162.798 98.0911 153.035 123.598C143.271 149.103 114.678 161.865 89.1715 152.101C63.6661 142.338 50.9044 113.745 60.6682 88.2381C70.4319 62.7311 99.0244 49.971 124.531 59.7348Z" fill="#EDEDED"/>
<path opacity="0.0208" d="M124.292 59.3425C149.785 69.1013 162.539 97.6806 152.78 123.173C143.021 148.666 114.444 161.42 88.9499 151.661C63.4578 141.902 50.7027 113.323 60.4614 87.831C70.2202 62.3372 98.7979 49.5837 124.292 59.3425Z" fill="#EBEBEB"/>
<path opacity="0.0277" d="M124.051 58.9509C149.531 68.7047 162.28 97.2692 152.524 122.75C142.77 148.23 114.206 160.979 88.7253 151.223C63.2447 141.469 50.4962 112.905 60.2517 87.4261C70.0055 61.9439 98.57 49.1954 124.051 58.9509Z" fill="#E8E8E8"/>
<path opacity="0.0347" d="M123.815 58.5664C149.282 68.3153 162.024 96.8649 152.275 122.332C142.526 147.8 113.977 160.541 88.5096 150.793C63.0422 141.044 50.3003 112.494 60.0508 87.0268C69.798 61.5578 98.3476 48.8159 123.815 58.5664Z" fill="#E6E6E6"/>
<path opacity="0.0416" d="M123.581 58.1663C149.036 67.9103 161.771 96.445 152.027 121.899C142.283 147.353 113.748 160.089 88.2926 150.345C62.8385 140.601 50.1032 112.066 59.8471 86.6119C69.591 61.1561 98.1257 48.4208 123.581 58.1663Z" fill="#E4E4E4"/>
<path opacity="0.0485" d="M123.342 57.781C148.783 67.52 161.514 96.0415 151.773 121.482C142.034 146.923 113.514 159.652 88.0717 149.913C62.6308 140.174 49.9004 111.653 59.6411 86.2116C69.3817 60.7707 97.9015 48.0421 123.342 57.781Z" fill="#E1E1E1"/>
<path opacity="0.0554" d="M123.109 57.3887C148.538 67.1228 161.26 95.6294 151.524 121.057C141.79 146.486 113.284 159.209 87.856 149.473C62.4283 139.739 49.7045 111.232 59.4402 85.8045C69.1742 60.3768 97.6792 47.6547 123.109 57.3887Z" fill="#DFDFDF"/>
<path opacity="0.0624" d="M122.866 56.9965C148.282 66.7272 160.997 95.2173 151.268 120.633C141.538 146.05 113.048 158.765 87.6315 149.036C62.2153 139.305 49.4998 110.815 59.2289 85.399C68.9596 59.9829 97.4497 47.2674 122.866 56.9965Z" fill="#DCDCDC"/>
<path opacity="0.0693" d="M122.634 56.6042C148.037 66.3283 160.746 94.8052 151.022 120.208C141.297 145.611 112.821 158.32 87.4177 148.596C62.0148 138.87 49.3059 110.395 59.03 84.9918C68.7541 59.5889 97.2309 46.8801 122.634 56.6042Z" fill="#DADADA"/>
<path opacity="0.0762" d="M122.396 56.2119C147.786 65.9311 160.49 94.3947 150.769 119.784C141.05 145.174 112.588 157.878 87.1968 148.157C61.8071 138.436 49.1031 109.974 58.8239 84.5848C68.5447 59.1951 97.0067 46.4928 122.396 56.2119Z" fill="#D8D8D8"/>
<path opacity="0.0832" d="M122.159 55.8203C147.535 65.5362 160.232 93.9833 150.517 119.36C140.801 144.736 112.354 157.434 86.9771 147.718C61.6006 138.002 48.9033 109.555 58.6191 84.1783C68.3333 58.8018 96.7805 46.1045 122.159 55.8203Z" fill="#D5D5D5"/>
<path opacity="0.0901" d="M121.92 55.428C147.283 65.1389 159.974 93.5712 150.264 118.936C140.554 144.299 112.121 156.99 86.7563 147.281C61.393 137.57 48.7023 109.138 58.4115 83.7744C68.1224 58.4078 96.5547 45.7171 121.92 55.428Z" fill="#D3D3D3"/>
<path opacity="0.097" d="M121.685 55.0358C147.036 64.7417 159.72 93.1591 150.015 118.511C140.309 143.863 111.891 156.545 86.5395 146.841C61.1878 137.135 48.5037 108.717 58.2096 83.3656C67.9139 58.0139 96.333 45.3298 121.685 55.0358Z" fill="#D0D0D0"/>
<path opacity="0.104" d="M121.445 54.6426C146.783 64.3436 159.461 92.7478 149.76 118.085C140.059 143.423 111.656 156.101 86.3159 146.4C60.9774 136.699 48.2999 108.294 58.0009 82.9576C67.7019 57.6208 96.1061 44.9433 121.445 54.6426Z" fill="#CECECE"/>
<path opacity="0.1109" d="M121.211 54.2503C146.536 63.9463 159.207 92.3357 149.513 117.661C139.817 142.986 111.427 155.657 86.1021 145.963C60.7769 136.267 48.106 107.877 57.802 82.5521C67.4947 57.2269 95.8841 44.556 121.211 54.2503Z" fill="#CCCCCC"/>
<path opacity="0.1178" d="M120.976 53.8659C146.288 63.5569 158.952 91.9314 149.263 117.243C139.572 142.556 111.197 155.22 85.8852 145.53C60.5732 135.839 47.9089 107.465 57.5983 82.1528C67.2877 56.8407 95.6639 44.1765 120.976 53.8659Z" fill="#C9C9C9"/>
<path opacity="0.1248" d="M120.737 53.4736C146.035 63.1597 158.695 91.5193 149.009 116.82C139.322 142.119 110.963 154.778 85.6624 145.092C60.3635 135.406 47.7042 107.046 57.3903 81.7457C67.0747 56.4468 95.436 43.7891 120.737 53.4736Z" fill="#C7C7C7"/>
<path opacity="0.1317" d="M120.493 53.082C145.78 62.7632 158.431 91.1095 148.75 116.395C139.069 141.682 110.723 154.334 85.4371 144.652C60.1498 134.971 47.4987 106.625 57.1799 81.3392C66.8594 56.0536 95.2057 43.4008 120.493 53.082Z" fill="#C4C4C4"/>
<path opacity="0.1386" d="M120.262 52.6897C145.536 62.3659 158.18 90.6975 148.506 115.972C138.83 141.246 110.498 153.89 85.224 144.216C59.95 134.539 47.3055 106.208 56.9801 80.9337C66.6546 55.6596 94.9878 43.0135 120.262 52.6897Z" fill="#C2C2C2"/>
<path opacity="0.1455" d="M120.026 52.2974C145.287 61.9687 157.925 90.2853 148.255 115.546C138.584 140.807 110.267 153.445 85.0064 143.775C59.7455 134.104 47.1076 105.787 56.7772 80.5266C66.4468 55.2657 94.7652 42.6262 120.026 52.2974Z" fill="#C0C0C0"/>
<path opacity="0.1525" d="M119.787 51.9054C145.034 61.5716 157.667 89.8735 148.001 115.123C138.335 140.37 110.033 153.003 84.7835 143.337C59.5358 133.671 46.9029 105.369 56.5692 80.1213C66.2339 54.8703 94.5373 42.2391 119.787 51.9054Z" fill="#BDBDBD"/>
<path opacity="0.1594" d="M119.547 51.5122C144.781 61.1736 157.408 89.4621 147.746 114.697C138.085 139.931 109.798 152.557 84.5619 142.896C59.3275 133.235 46.7012 104.946 56.3625 79.7116C66.0238 54.4772 94.3124 41.8525 119.547 51.5122Z" fill="#BBBBBB"/>
<path opacity="0.1663" d="M119.31 51.1199C144.533 60.7763 157.151 89.05 147.496 114.271C137.84 139.494 109.566 152.112 84.345 142.457C59.1238 132.801 46.5041 104.527 56.1588 79.3061C65.8152 54.0832 94.0889 41.4652 119.31 51.1199Z" fill="#B8B8B8"/>
<path opacity="0.1733" d="M119.073 50.7277C144.283 60.3791 156.896 88.6379 147.244 113.848C137.593 139.057 109.334 151.67 84.1243 142.019C58.9146 132.368 46.3015 104.109 55.9529 78.899C65.6044 53.6893 93.8633 41.0779 119.073 50.7277Z" fill="#B6B6B6"/>
<path opacity="0.1802" d="M118.839 50.3361C144.035 59.9825 156.642 88.2265 146.995 113.423C137.349 138.619 109.105 151.226 83.9085 141.579C58.7121 131.933 46.1056 103.689 55.7521 78.4925C65.3986 53.2961 93.6425 40.6896 118.839 50.3361Z" fill="#B4B4B4"/>
<path opacity="0.1871" d="M118.603 49.9438C143.786 59.5853 156.386 87.816 146.746 112.999C137.105 138.182 108.874 150.782 83.6908 141.143C58.5076 131.501 45.9078 103.27 55.5493 78.087C65.1891 52.9021 93.4199 40.3023 118.603 49.9438Z" fill="#B1B1B1"/>
<path opacity="0.1941" d="M118.364 49.5593C143.534 59.1959 156.127 87.4118 146.492 112.582C136.856 137.752 108.64 150.345 83.47 140.71C58.3 131.074 45.7068 102.858 55.3417 77.6877C64.9782 52.516 93.1941 39.9228 118.364 49.5593Z" fill="#AFAFAF"/>
<path opacity="0.201" d="M118.129 49.1592C143.285 58.7908 155.874 86.9919 146.242 112.15C136.611 137.309 108.41 149.895 83.2511 140.264C58.0943 130.632 45.506 102.431 55.1376 77.2727C64.7692 52.1143 92.9702 39.5276 118.129 49.1592Z" fill="#ADADAD"/>
<path opacity="0.2079" d="M117.889 48.7748C143.034 58.4014 155.614 86.5876 145.988 111.733C136.361 136.878 108.175 149.458 83.0297 139.831C57.8845 130.205 45.3044 102.019 54.931 76.8734C64.5577 51.7282 92.7455 39.1481 117.889 48.7748Z" fill="#AAAAAA"/>
<path opacity="0.2149" d="M117.657 48.3816C142.789 58.0033 155.363 86.1763 145.743 111.308C136.121 136.44 107.948 149.014 82.8159 139.394C57.6839 129.772 45.1104 101.599 54.7321 76.4687C64.3522 51.335 92.5251 38.7616 117.657 48.3816Z" fill="#A8A8A8"/>
<path opacity="0.2218" d="M117.413 47.9894C142.532 57.6061 155.1 85.7642 145.483 110.883C135.867 136.002 107.709 148.57 82.5899 138.954C57.4711 129.337 44.9026 101.179 54.5193 76.0599C64.1361 50.9411 92.2941 38.3743 117.413 47.9894Z" fill="#A5A5A5"/>
<path opacity="0.2287" d="M117.181 47.5971C142.287 57.2089 154.849 85.3521 145.237 110.458C135.625 135.563 107.482 148.125 82.3761 138.513C57.2705 128.902 44.7086 100.758 54.3204 75.6528C63.9305 50.5472 92.0754 37.987 117.181 47.5971Z" fill="#A3A3A3"/>
<path opacity="0.2356" d="M116.943 47.2055C142.035 56.8123 154.591 84.9407 144.984 110.035C135.377 135.127 107.249 147.682 82.1545 138.076C57.0622 128.469 44.5069 100.34 54.1137 75.2463C63.7205 50.1539 91.8506 37.5987 116.943 47.2055Z" fill="#A1A1A1"/>
<path opacity="0.2426" d="M116.704 46.8132C141.785 56.4151 154.332 84.5302 144.732 109.609C135.13 134.69 107.015 147.237 81.9358 137.637C56.855 128.035 44.308 99.92 53.9082 74.8408C63.5084 49.76 91.6236 37.2113 116.704 46.8132Z" fill="#9E9E9E"/>
<path opacity="0.2495" d="M116.467 46.4209C141.535 56.0178 154.077 84.1181 144.48 109.186C134.883 134.253 106.782 146.795 81.7149 137.198C56.6473 127.602 44.1053 99.5012 53.7022 74.4337C63.2991 49.3661 91.401 36.824 116.467 46.4209Z" fill="#9C9C9C"/>
<path opacity="0.2564" d="M116.231 46.0287C141.285 55.6206 153.821 83.706 144.229 108.76C134.637 133.815 106.552 146.35 81.4973 136.758C56.4429 127.166 43.9074 99.0809 53.4994 74.0265C63.0897 48.9721 91.1767 36.4367 116.231 46.0287Z" fill="#999999"/>
<path opacity="0.2634" d="M115.993 45.6364C141.034 55.2234 153.563 83.2939 143.976 108.337C134.389 133.378 106.318 145.907 81.2757 136.321C56.2345 126.734 43.7056 98.6638 53.2926 73.621C62.8796 48.5782 90.9519 36.0494 115.993 45.6364Z" fill="#979797"/>
<path opacity="0.2703" d="M115.759 45.2432C140.787 54.8253 153.311 82.8826 143.729 107.911C134.147 132.939 106.089 145.461 81.0613 135.88C56.0334 126.298 43.5095 98.241 53.0916 73.213C62.6736 48.1851 90.7309 35.6628 115.759 45.2432Z" fill="#959595"/>
<path opacity="0.2772" d="M115.517 44.851C140.533 54.428 153.049 82.4705 143.472 107.485C133.895 132.502 105.852 145.017 80.836 135.44C55.8196 125.863 43.304 97.8206 52.8811 72.8059C62.4599 47.7912 90.5023 35.2755 115.517 44.851Z" fill="#929292"/>
<path opacity="0.2842" d="M115.285 44.4594C140.288 54.0315 152.797 82.0591 143.225 107.062C133.653 132.065 105.625 144.574 80.6223 135.002C55.6191 125.43 43.1101 97.4026 52.6822 72.3994C62.2543 47.3979 90.282 34.8872 115.285 44.4594Z" fill="#909090"/>
<path opacity="0.2911" d="M115.046 44.0671C140.036 53.6342 152.538 81.647 142.973 106.637C133.405 131.627 105.393 144.129 80.4027 134.564C55.4127 124.997 42.9103 96.9839 52.4774 71.9939C62.043 47.004 90.0557 34.4999 115.046 44.0671Z" fill="#8D8D8D"/>
<path opacity="0.298" d="M114.809 43.6826C139.786 53.2448 152.283 81.2444 142.721 106.221C133.159 131.198 105.159 143.695 80.1825 134.133C55.2057 124.571 42.7083 96.5714 52.2705 71.5946C61.8327 46.6179 89.8322 34.1204 114.809 43.6826Z" fill="#8B8B8B"/>
<path opacity="0.305" d="M114.573 43.2825C139.537 52.8398 152.028 80.8245 142.47 105.788C132.913 130.752 104.928 143.242 79.9648 133.685C55.0012 124.128 42.5104 96.1432 52.0677 71.1797C61.625 46.2161 89.6096 33.7253 114.573 43.2825Z" fill="#898989"/>
<path opacity="0.3119" d="M114.335 42.8981C139.285 52.4504 151.77 80.4202 142.217 105.372C132.665 130.324 104.695 142.807 79.7432 133.254C54.7929 123.702 42.3086 95.7323 51.861 70.7803C61.4133 45.83 89.3831 33.3458 114.335 42.8981Z" fill="#868686"/>
<path opacity="0.3188" d="M114.1 42.5058C139.039 52.0531 151.515 80.0081 141.97 104.947C132.422 129.886 104.467 142.362 79.5285 132.816C54.5897 123.269 42.1137 95.3119 51.6594 70.3748C61.2068 45.4361 89.1633 32.9584 114.1 42.5058Z" fill="#848484"/>
<path opacity="0.3257" d="M113.859 42.1128C138.785 51.6552 151.256 79.5969 141.713 104.522C132.171 129.448 104.229 141.919 79.3036 132.377C54.3781 122.834 41.907 94.8926 51.4494 69.967C60.9919 45.0415 88.9336 32.5721 113.859 42.1128Z" fill="#818181"/>
<path opacity="0.3327" d="M113.627 41.7206C138.54 51.258 151.004 79.1849 141.466 104.097C131.929 129.01 104.002 141.474 79.0899 131.937C54.1775 122.399 41.7131 94.4722 51.2505 69.5599C60.788 44.6475 88.7148 32.1848 113.627 41.7206Z" fill="#7F7F7F"/>
<path opacity="0.3396" d="M113.385 41.3289C138.285 50.8614 150.742 78.7734 141.21 103.673C131.677 128.572 103.765 141.029 78.8663 131.499C53.9672 121.966 41.5094 94.0542 51.0419 69.1551C60.5727 44.2543 88.4864 31.7965 113.385 41.3289Z" fill="#7D7D7D"/>
<path opacity="0.3465" d="M113.151 40.9367C138.037 50.4642 150.49 78.363 140.962 103.249C131.435 128.136 103.538 140.588 78.6501 131.06C53.7642 121.533 41.3113 93.6338 50.8388 68.7479C60.3664 43.8604 88.2651 31.4091 113.151 40.9367Z" fill="#7A7A7A"/>
<path opacity="0.3535" d="M112.911 40.5444C137.786 50.067 150.23 77.9509 140.708 102.824C131.185 127.698 103.301 140.143 78.4287 130.62C53.5543 121.097 41.1097 93.2135 50.6323 68.3408C60.1532 43.4664 88.0371 31.0218 112.911 40.5444Z" fill="#787878"/>
<path opacity="0.3604" d="M112.675 40.1521C137.536 49.6698 149.974 77.5388 140.457 102.4C130.939 127.261 103.07 139.699 78.209 130.181C53.3479 120.664 40.9099 92.7948 50.4275 67.9336C59.9452 43.0725 87.8142 30.6345 112.675 40.1521Z" fill="#757575"/>
<path opacity="0.3673" d="M112.442 39.7599C137.29 49.2725 149.721 77.1267 140.21 101.975C130.697 126.823 102.843 139.254 77.9952 129.743C53.1473 120.23 40.7159 92.3761 50.2286 67.5281C59.738 42.6786 87.5938 30.2472 112.442 39.7599Z" fill="#737373"/>
<path opacity="0.3743" d="M112.205 39.3676C137.04 48.8753 149.466 76.7162 139.958 101.551C130.451 126.386 102.611 138.812 77.7751 129.304C52.9404 119.797 40.514 91.9557 50.0217 67.121C59.531 42.2846 87.3704 29.8599 112.205 39.3676Z" fill="#717171"/>
<path opacity="0.3812" d="M111.961 38.9823C136.783 48.485 149.203 76.3111 139.7 101.133C130.197 125.954 102.371 138.374 77.5496 128.871C52.7281 119.368 40.3083 91.5423 49.8111 66.7208C59.3138 41.8993 87.1383 29.4811 111.961 38.9823Z" fill="#6E6E6E"/>
<path opacity="0.3881" d="M111.729 38.5907C136.539 48.0885 148.951 75.8997 139.453 100.71C129.955 125.52 102.144 137.931 77.3341 128.433C52.5241 118.936 40.1126 91.1243 49.6104 66.3143C59.1098 41.5061 86.9211 29.0929 111.729 38.5907Z" fill="#6C6C6C"/>
<path opacity="0.395" d="M111.489 38.1984C136.286 47.6912 148.693 75.4876 139.2 100.284C129.707 125.081 101.911 137.488 77.1139 127.995C52.3172 118.502 39.9106 90.7055 49.4034 65.9088C58.8963 41.1121 86.6927 28.7055 111.489 38.1984Z" fill="#696969"/>
<path opacity="0.402" d="M111.254 37.8061C136.037 47.294 148.437 75.0772 138.949 99.859C129.461 124.642 101.68 137.043 76.8962 127.555C52.1127 118.067 39.7127 90.2835 49.2006 65.5017C58.6885 40.7182 86.47 28.3182 111.254 37.8061Z" fill="#676767"/>
<path opacity="0.4089" d="M111.021 37.4138C135.792 46.8968 148.185 74.6651 138.702 99.4353C129.219 124.206 101.451 136.599 76.6805 127.116C51.9102 117.633 39.5168 89.8648 48.9998 65.0946C58.4827 40.3243 86.251 27.9309 111.021 37.4138Z" fill="#656565"/>
<path opacity="0.4158" d="M110.778 37.0215C135.535 46.4995 147.921 74.253 138.443 99.01C128.965 123.767 101.212 136.154 76.455 126.678C51.6979 117.2 39.3112 89.4461 48.7891 64.6891C58.2671 39.9303 86.0205 27.5436 110.778 37.0215Z" fill="#626262"/>
<path opacity="0.4228" d="M110.547 36.6293C135.293 46.1023 147.673 73.8408 138.2 98.5863C128.727 123.332 100.988 135.712 76.2427 126.239C51.4989 116.766 39.117 89.0274 48.59 64.2819C58.063 39.5364 85.8016 27.1562 110.547 36.6293Z" fill="#606060"/>
<path opacity="0.4297" d="M110.304 36.237C135.036 45.7051 147.409 73.4304 137.941 98.1611C128.473 122.893 100.75 135.267 76.0174 125.799C51.2851 116.331 38.9115 88.6054 48.3796 63.8748C57.8476 39.1425 85.573 26.7689 110.304 36.237Z" fill="#5D5D5D"/>
<path opacity="0.4366" d="M110.071 35.8438C134.79 45.307 147.157 73.0174 137.694 97.7365C128.231 122.456 100.521 134.823 75.8016 125.359C51.0826 115.896 38.7156 88.1859 48.1787 63.4668C57.6418 38.7494 85.3523 26.3824 110.071 35.8438Z" fill="#5B5B5B"/>
<path opacity="0.4436" d="M109.831 35.4522C134.536 44.9104 146.898 72.606 137.44 97.3119C127.982 122.018 100.287 134.378 75.5807 124.922C50.8748 115.463 38.5128 87.7678 47.9727 63.0619C57.4292 38.3561 85.1247 25.9941 109.831 35.4522Z" fill="#595959"/>
<path opacity="0.4505" d="M109.597 35.06C134.29 44.5132 146.645 72.1939 137.192 96.8882C127.739 121.581 100.058 133.936 75.3638 124.483C50.6711 115.03 38.3157 87.3491 47.769 62.6548C57.2222 37.9622 84.9045 25.6068 109.597 35.06Z" fill="#565656"/>
<path opacity="0.4574" d="M109.355 34.6755C134.035 44.1238 146.384 71.7913 136.935 96.4707C127.487 121.152 99.8214 133.499 75.1403 124.051C50.4609 114.602 38.112 86.9349 47.5603 62.2555C57.0085 37.5761 84.6761 25.2273 109.355 34.6755Z" fill="#545454"/>
<path opacity="0.4644" d="M109.12 34.2754C133.788 43.7187 146.128 71.3714 136.685 96.0376C127.242 120.705 99.589 133.046 74.9227 123.603C50.2549 114.159 37.9144 86.5068 47.3577 61.8406C56.7993 37.1744 84.4519 24.8321 109.12 34.2754Z" fill="#515151"/>
<path opacity="0.4713" d="M108.881 33.8909C133.535 43.3293 145.871 70.9671 136.433 95.6217C126.994 120.276 99.3565 132.612 74.7018 123.174C50.0472 113.735 37.7116 86.0975 47.1516 61.4429C56.5883 36.7882 84.2261 24.4526 108.881 33.8909Z" fill="#4F4F4F"/>
<path opacity="0.4782" d="M108.648 33.4909C133.289 42.9242 145.618 70.5472 136.185 95.1886C126.751 119.83 99.1283 132.159 74.4869 122.726C49.8455 113.292 37.5165 85.6694 46.9498 61.0279C56.3816 36.3865 84.0062 24.0575 108.648 33.4909Z" fill="#4D4D4D"/>
<path opacity="0.4851" d="M108.406 33.1066C133.034 42.535 145.356 70.1448 135.928 94.773C126.499 119.401 98.8913 131.724 74.2614 122.295C49.6332 112.867 37.3108 85.257 46.7392 60.6288C56.1693 35.9989 83.7774 23.6782 108.406 33.1066Z" fill="#4A4A4A"/>
<path opacity="0.4921" d="M108.174 32.7063C132.789 42.1298 145.104 69.7247 135.681 94.3397C126.257 118.956 98.6626 131.27 74.0476 121.849C49.4326 112.425 37.1168 84.8303 46.5403 60.2153C55.9638 35.5986 83.557 23.2828 108.174 32.7063Z" fill="#484848"/>
<path opacity="0.499" d="M107.936 32.3218C132.539 41.7404 144.848 69.3204 135.43 93.9238C126.011 118.527 98.4311 130.836 73.8276 121.418C49.2242 111.999 36.9151 84.4194 46.3336 59.816C55.7537 35.2125 83.3337 22.9033 107.936 32.3218Z" fill="#454545"/>
<path opacity="0.5059" d="M107.698 31.9218C132.288 41.3353 144.59 68.9005 135.177 93.4907C125.763 118.081 98.1983 130.383 73.608 120.97C49.0178 111.556 36.7152 83.9912 46.1288 59.401C55.5424 34.8108 83.1075 22.5082 107.698 31.9218Z" fill="#434343"/>
<path opacity="0.5129" d="M107.458 31.5373C132.035 40.9459 144.331 68.4978 134.922 93.0748C125.514 117.652 97.9635 129.948 73.3864 120.539C48.8094 111.131 36.5135 83.5787 45.9221 59.0017C55.3307 34.4247 82.8809 22.1287 107.458 31.5373Z" fill="#414141"/>
<path opacity="0.5198" d="M107.224 31.145C131.788 40.5487 144.079 68.0857 134.674 92.6495C125.27 117.213 97.7332 129.504 73.1694 120.101C48.6056 110.697 36.3146 83.16 45.7199 58.5962C55.1236 34.0307 82.6606 21.7414 107.224 31.145Z" fill="#3E3E3E"/>
<path opacity="0.5267" d="M106.99 30.7527C131.54 40.1514 143.825 67.6737 134.426 92.2242C125.027 116.776 97.505 129.059 72.9544 119.66C48.4038 110.262 36.1195 82.7396 45.5182 58.189C54.9169 33.6368 82.439 21.354 106.99 30.7527Z" fill="#3C3C3C"/>
<path opacity="0.5337" d="M106.752 30.3605C131.291 39.7542 143.567 67.2615 134.173 91.8006C124.779 116.34 97.2721 128.616 72.733 119.222C48.194 109.828 35.9179 82.3209 45.3117 57.7819C54.7054 33.2429 82.2127 20.9667 106.752 30.3605Z" fill="#3A3A3A"/>
<path opacity="0.5406" d="M106.516 29.9682C131.042 39.357 143.311 66.8511 133.922 91.3753C124.534 115.901 97.0412 128.171 72.5154 118.782C47.9896 109.393 35.72 81.8989 45.1088 57.3748C54.4976 32.849 81.9917 20.5794 106.516 29.9682Z" fill="#373737"/>
<path opacity="0.5475" d="M106.277 29.5835C130.789 38.9674 143.054 66.4466 133.67 90.9592C124.286 115.472 96.8071 127.736 72.2945 118.353C47.7819 108.969 35.5173 81.4894 44.9028 56.9768C54.285 32.4642 81.7642 20.1997 106.277 29.5835Z" fill="#353535"/>
<path opacity="0.5545" d="M106.04 29.1835C130.539 38.5623 142.797 66.0267 133.418 90.5261C124.039 115.025 96.5749 127.283 72.0756 117.904C47.5762 108.526 35.3183 81.0613 44.6971 56.5619C54.076 32.0625 81.5403 19.8046 106.04 29.1835Z" fill="#323232"/>
<path opacity="0.5614" d="M105.802 28.799C130.288 38.1729 142.539 65.6224 133.165 90.1102C123.791 114.596 96.3418 126.848 71.854 117.474C47.3678 108.1 35.1165 80.6504 44.4904 56.1626C53.8643 31.6764 81.3138 19.4251 105.802 28.799Z" fill="#303030"/>
<path opacity="0.5683" d="M105.563 28.4067C130.037 37.7757 142.282 65.2119 132.911 89.6849C123.542 114.159 96.1077 126.404 71.6331 117.035C47.1601 107.666 34.9137 80.23 44.2844 55.7571C53.6533 31.2825 81.0896 19.0377 105.563 28.4067Z" fill="#2E2E2E"/>
<path opacity="0.5752" d="M105.324 28.0144C129.785 37.3785 142.024 64.7998 132.66 89.2612C123.296 113.723 95.8742 125.961 71.4144 116.597C46.953 107.233 34.7149 79.8113 44.0789 55.3499C53.4412 30.8885 80.8627 18.6504 105.324 28.0144Z" fill="#2B2B2B"/>
<path opacity="0.5822" d="M105.094 27.6222C129.542 36.9812 141.773 64.3878 132.414 88.836C123.055 113.284 95.6488 125.516 71.2006 116.157C46.7525 106.798 34.5209 79.391 43.88 54.9428C53.239 30.4946 80.6456 18.2631 105.094 27.6222Z" fill="#292929"/>
<path opacity="0.5891" d="M104.85 27.2221C129.285 36.5762 141.51 63.9679 132.156 88.4028C122.802 112.838 95.4101 125.063 70.9751 115.709C46.5402 106.355 34.3152 78.9628 43.6693 54.5279C53.0218 30.0929 80.4151 17.868 104.85 27.2221Z" fill="#262626"/>
<path opacity="0.596" d="M104.619 26.8374C129.04 36.1866 141.26 63.565 131.909 87.9867C122.56 112.409 95.1835 124.628 70.7601 115.279C46.3383 105.93 34.1184 78.5517 43.4692 54.1299C52.82 29.7082 80.1968 17.4883 104.619 26.8374Z" fill="#242424"/>
<path opacity="0.603" d="M104.378 26.4451C128.786 35.7893 141 63.1529 131.656 87.5615C122.311 111.972 94.9478 124.183 70.5393 114.839C46.1307 105.495 33.9174 78.1313 43.2615 53.7228C52.6057 29.3143 79.9677 17.101 104.378 26.4451Z" fill="#222222"/>
<path opacity="0.6099" d="M104.144 26.0529C128.541 35.3921 140.746 62.7408 131.407 87.1378C122.067 111.535 94.7187 123.74 70.3218 114.401C45.9248 105.061 33.7197 77.7126 43.0589 53.3157C52.3998 28.9203 79.7485 16.7136 104.144 26.0529Z" fill="#1F1F1F"/>
<path opacity="0.6168" d="M103.905 25.6606C128.289 34.9949 140.489 62.3287 131.153 86.7125C121.818 111.096 94.4846 123.296 70.1008 113.96C45.717 104.626 33.517 77.2923 42.8529 52.9086C52.1872 28.5265 79.521 16.3263 103.905 25.6606Z" fill="#1D1D1D"/>
<path opacity="0.6238" d="M103.667 25.2683C128.038 34.5976 140.231 61.9183 130.902 86.2888C121.572 110.659 94.2534 122.853 69.8812 113.524C45.5107 104.194 33.3171 76.8736 42.6481 52.503C51.9774 28.1325 79.2964 15.939 103.667 25.2683Z" fill="#1A1A1A"/>
<path opacity="0.6307" d="M103.428 24.8839C127.785 34.2082 139.972 61.514 130.648 85.8713C121.323 110.229 94.0177 122.416 69.6604 113.091C45.3031 103.767 33.1161 76.461 42.4405 52.1037C51.7649 27.7464 79.0706 15.5595 103.428 24.8839Z" fill="#181818"/>
<path opacity="0.6376" d="M103.196 24.4916C127.54 33.811 139.72 61.1019 130.401 85.4476C121.082 109.793 93.7907 121.972 69.4466 112.653C45.1025 103.333 32.9222 76.0424 42.2416 51.6966C51.561 27.3525 78.8519 15.1722 103.196 24.4916Z" fill="#161616"/>
<path opacity="0.6446" d="M102.955 24.1C127.287 33.4144 139.461 60.6905 130.145 85.023C120.831 109.356 93.5545 121.529 69.222 112.215C44.8894 102.9 32.7157 75.6243 42.0318 51.2917C51.3463 26.9592 78.6223 14.7839 102.955 24.1Z" fill="#131313"/>
<path opacity="0.6515" d="M102.72 23.699C127.039 33.0085 139.207 60.2714 129.897 84.589C120.588 108.908 93.3263 121.075 69.007 111.766C44.6877 102.456 32.5206 75.1936 41.8301 50.876C51.1396 26.5583 78.4008 14.3895 102.72 23.699Z" fill="#111111"/>
<path opacity="0.6584" d="M102.486 23.3148C126.792 32.6193 138.952 59.8673 129.648 84.1734C120.343 108.48 93.0955 120.64 68.7893 111.335C44.4832 102.031 32.3227 74.783 41.6273 50.4768C50.9318 26.1707 78.1798 14.0102 102.486 23.3148Z" fill="#0E0E0E"/>
<path opacity="0.6653" d="M102.246 22.9147C126.539 32.2143 138.693 59.4474 129.393 83.7403C120.094 108.033 92.8606 120.187 68.5677 110.887C44.2748 101.588 32.1209 74.3548 41.4205 50.0619C50.7201 25.769 77.9532 13.6151 102.246 22.9147Z" fill="#0C0C0C"/>
<path opacity="0.6723" d="M102.007 22.5302C126.286 31.8248 138.435 59.043 129.139 83.3244C119.844 107.606 92.6262 119.753 68.3449 110.458C44.0652 101.164 31.9162 73.9455 41.2125 49.6642C50.5072 25.3828 77.7254 13.2356 102.007 22.5302Z" fill="#0A0A0A"/>
<path opacity="0.6792" d="M101.77 22.1301C126.038 31.4198 138.179 58.6248 128.889 82.8913C119.6 107.159 92.3963 119.3 68.1281 110.01C43.86 100.721 31.7193 73.5157 41.009 49.2492C50.2987 24.9811 77.5037 12.8404 101.77 22.1301Z" fill="#070707"/>
<path opacity="0.6861" d="M101.54 21.7457C125.795 31.0304 137.929 58.2205 128.644 82.4754C119.359 106.73 92.1693 118.864 67.9144 109.58C43.6594 100.295 31.5254 73.1048 40.8101 48.8499C50.0948 24.595 77.285 12.4609 101.54 21.7457Z" fill="#050505"/>
<path opacity="0.6931" d="M101.299 21.3534C125.541 30.6332 137.67 57.8084 128.388 82.0501C119.108 106.292 91.9332 118.421 67.6915 109.14C43.4498 99.8598 31.3207 72.6845 40.6021 48.4428C49.8819 24.2011 77.0572 12.0736 101.299 21.3534Z" fill="#020202"/>
<path opacity="0.7" d="M101.061 20.9618C125.29 30.2366 137.412 57.397 128.138 81.6271C118.863 105.856 91.7023 117.978 67.4738 108.703C43.2454 99.4268 31.1228 72.2664 40.3993 48.0379C49.6708 23.8078 76.8329 11.6853 101.061 20.9618Z" fill="black"/>
</g>
</svg>
