<svg width="138" height="171" viewBox="0 0 138 171" fill="none" xmlns="http://www.w3.org/2000/svg">
<path d="M36.3181 0L29.6779 24.2401C4.79196 40.3236 -6.6302 71.9736 3.93467 100.997C13.0691 126.095 36.062 142.133 61.1263 143.638V13.9114C59.7487 13.994 58.3678 14.1278 56.9853 14.2979L36.3181 0Z" fill="#8F4881"/>
<path d="M126.043 56.5567C116.909 31.4594 93.9159 15.4205 68.8516 13.9141V18.7158C92.4871 20.2503 113.357 35.7193 121.539 58.1953C127.036 73.3009 126.324 89.6438 119.53 104.213C112.736 118.781 100.677 129.832 85.571 135.331C80.1465 137.305 74.5387 138.471 68.8532 138.839V143.643C74.978 143.276 81.1508 142.042 87.2112 139.837C120.931 127.562 138.318 90.278 126.043 56.5567Z" fill="#8F4881"/>
<g opacity="0.8">
<path opacity="0.01" d="M105.52 74.1121C131.039 83.8808 143.807 112.488 134.037 138.007C124.268 163.525 95.6609 176.294 70.1423 166.523C44.6238 156.755 31.8554 128.147 41.6258 102.629C51.3945 77.1101 80.0002 64.3418 105.52 74.1121Z" fill="#F0F0F0"/>
<path opacity="0.0139" d="M105.289 73.7189C130.795 83.4827 143.556 112.075 133.793 137.582C124.029 163.088 95.4363 175.849 69.9293 166.086C44.424 156.322 31.6622 127.729 41.426 102.222C51.1914 76.717 79.7839 63.9552 105.289 73.7189Z" fill="#EDEDED"/>
<path opacity="0.0208" d="M105.053 73.3269C130.547 83.0857 143.301 111.665 133.542 137.157C123.783 162.651 95.2054 175.404 69.7116 165.646C44.2195 155.887 31.4644 127.309 41.2232 101.815C50.9819 76.3216 79.5596 63.5681 105.053 73.3269Z" fill="#EBEBEB"/>
<path opacity="0.0277" d="M104.814 72.9346C130.295 82.6884 143.043 111.253 133.288 136.732C123.534 162.212 94.9695 174.961 69.4889 165.205C44.0084 155.452 31.2599 126.887 41.0154 101.408C50.7708 75.9277 79.3336 63.1808 104.814 72.9346Z" fill="#E8E8E8"/>
<path opacity="0.0347" d="M104.581 72.5501C130.048 82.299 142.79 110.849 133.041 136.316C123.292 161.783 94.7425 174.525 69.2752 164.776C43.8078 155.027 31.0659 126.478 40.8164 101.011C50.5637 75.5415 79.1132 62.8012 104.581 72.5501Z" fill="#E6E6E6"/>
<path opacity="0.0416" d="M104.339 72.1507C129.793 81.8946 142.529 110.429 132.785 135.883C123.041 161.338 94.5062 174.073 69.0504 164.329C43.5963 154.585 30.861 126.05 40.6049 100.596C50.3505 75.1405 78.8852 62.4051 104.339 72.1507Z" fill="#E4E4E4"/>
<path opacity="0.0485" d="M104.106 71.7663C129.547 81.5052 142.277 110.027 132.537 135.468C122.798 160.909 94.2779 173.639 68.8354 163.898C43.3945 154.159 30.6641 125.639 40.4047 100.197C50.1437 74.7544 78.6636 62.0256 104.106 71.7663Z" fill="#E1E1E1"/>
<path opacity="0.0554" d="M103.866 71.374C129.296 81.108 142.018 109.615 132.282 135.042C122.548 160.472 94.0415 173.194 68.6138 163.458C43.1861 153.724 30.4623 125.217 40.198 99.7898C49.932 74.3604 78.437 61.6383 103.866 71.374Z" fill="#DFDFDF"/>
<path opacity="0.0624" d="M103.631 70.9817C129.048 80.7108 141.763 109.203 132.034 134.619C122.303 160.035 93.8132 172.75 68.3971 163.021C42.9809 153.292 30.2654 124.8 39.9945 99.3843C49.7236 73.9665 78.2153 61.251 103.631 70.9817Z" fill="#DCDCDC"/>
<path opacity="0.0693" d="M103.392 70.5886C128.795 80.3127 141.504 108.79 131.779 134.192C122.055 159.595 93.5784 172.304 68.1755 162.58C42.7726 152.856 30.0637 124.379 39.7878 98.9763C49.5119 73.5734 77.9888 60.8645 103.392 70.5886Z" fill="#DADADA"/>
<path opacity="0.0762" d="M103.156 70.1963C128.546 79.9154 141.25 108.379 131.529 133.769C121.81 159.159 93.3479 171.862 67.9565 162.142C42.5668 152.423 29.8629 123.96 39.5837 98.5691C49.3028 73.1794 77.7649 60.4771 103.156 70.1963Z" fill="#D8D8D8"/>
<path opacity="0.0832" d="M102.916 69.804C128.293 79.5182 140.99 107.967 131.274 133.344C121.559 158.72 93.1114 171.417 67.7349 161.702C42.3584 151.987 29.6611 123.538 39.377 98.162C49.0911 72.7855 77.54 60.0898 102.916 69.804Z" fill="#D5D5D5"/>
<path opacity="0.0901" d="M102.685 69.4124C128.049 79.1216 140.739 107.556 131.03 132.919C121.319 158.284 92.8868 170.973 67.5219 161.264C42.1586 151.554 29.4679 123.12 39.1772 97.7572C48.8864 72.3922 77.3204 59.7015 102.685 69.4124Z" fill="#D3D3D3"/>
<path opacity="0.097" d="M102.442 69.0201C127.794 78.7244 140.478 107.144 130.772 132.495C121.066 157.847 92.649 170.531 67.2973 160.825C41.9456 151.121 29.2615 122.702 38.9674 97.35C48.6717 71.9983 77.0908 59.3142 102.442 69.0201Z" fill="#D0D0D0"/>
<path opacity="0.104" d="M102.21 68.6279C127.549 78.3272 140.226 106.733 130.525 132.07C120.824 157.408 92.4217 170.086 67.0816 160.385C41.7431 150.686 29.0656 122.28 38.7665 96.9429C48.4675 71.6044 76.8717 58.9269 102.21 68.6279Z" fill="#CECECE"/>
<path opacity="0.1109" d="M101.969 68.2356C127.294 77.9299 139.965 106.321 130.271 131.646C120.575 156.972 92.1852 169.642 66.86 159.948C41.5347 150.252 28.8638 121.863 38.5598 96.5374C48.2542 71.2105 76.6436 58.5396 101.969 68.2356Z" fill="#CCCCCC"/>
<path opacity="0.1178" d="M101.734 67.8511C127.046 77.5405 139.71 105.917 130.021 131.229C120.33 156.541 91.9551 169.205 66.643 159.516C41.331 149.826 28.6667 121.45 38.3561 96.1381C48.0455 70.8243 76.42 58.16 101.734 67.8511Z" fill="#C9C9C9"/>
<path opacity="0.1248" d="M101.494 67.458C126.793 77.1424 139.452 105.504 129.766 130.804C120.08 156.103 91.7207 168.762 66.4202 159.076C41.1213 149.39 28.462 121.031 38.1481 95.73C47.8342 70.4312 76.1955 57.7735 101.494 67.458Z" fill="#C7C7C7"/>
<path opacity="0.1317" d="M101.259 67.0657C126.546 76.7469 139.197 105.093 129.516 130.379C119.835 155.666 91.49 168.317 66.2027 158.636C40.9154 148.955 28.2643 120.609 37.9455 95.3229C47.625 70.0373 75.9714 57.3862 101.259 67.0657Z" fill="#C4C4C4"/>
<path opacity="0.1386" d="M101.02 66.6734C126.294 76.348 138.938 104.681 129.264 129.955C119.587 155.229 91.2559 167.874 65.9819 158.199C40.7078 148.523 28.0633 120.191 37.7379 94.9174C47.4141 69.6433 75.7456 56.9989 101.02 66.6734Z" fill="#C2C2C2"/>
<path opacity="0.1455" d="M100.784 66.2818C126.045 75.9514 138.683 104.27 129.013 129.531C119.342 154.791 91.025 167.429 65.7642 157.76C40.5033 148.088 27.8655 119.772 37.535 94.5109C47.2046 69.2501 75.5213 56.6106 100.784 66.2818Z" fill="#C0C0C0"/>
<path opacity="0.1525" d="M100.544 65.8895C125.792 75.5558 138.425 103.858 128.759 129.105C119.092 154.353 90.7906 166.986 65.5413 157.32C40.2937 147.653 27.6608 119.351 37.327 94.1038C46.9933 68.8562 75.2968 56.2233 100.544 65.8895Z" fill="#BDBDBD"/>
<path opacity="0.1594" d="M100.313 65.4973C125.547 75.1586 138.173 103.447 128.512 128.682C118.851 153.916 90.562 166.542 65.3275 156.881C40.0931 147.22 27.4668 118.931 37.1281 93.6967C46.7895 68.4622 75.0781 55.8359 100.313 65.4973Z" fill="#BBBBBB"/>
<path opacity="0.1663" d="M100.076 65.105C125.299 74.7614 137.917 103.035 128.262 128.256C118.606 153.479 90.3318 166.097 65.1106 156.442C39.8894 146.786 27.2697 118.512 36.9244 93.2912C46.5791 68.0683 74.8529 55.4486 100.076 65.105Z" fill="#B8B8B8"/>
<path opacity="0.1733" d="M99.8366 64.7127C125.046 74.3641 137.659 102.623 128.008 127.833C118.356 153.042 90.0976 165.655 64.8879 156.004C39.6783 146.353 27.0652 118.094 36.7166 92.8841C46.368 67.6744 74.6286 55.0613 99.8366 64.7127Z" fill="#B6B6B6"/>
<path opacity="0.1802" d="M99.6007 64.3196C124.797 73.966 137.404 102.21 127.757 127.406C118.111 152.603 89.8667 165.209 64.6703 155.563C39.4738 145.916 26.8673 117.672 36.5138 92.476C46.1586 67.2812 74.4043 54.6748 99.6007 64.3196Z" fill="#B4B4B4"/>
<path opacity="0.1871" d="M99.361 63.9275C124.544 73.569 137.144 101.8 127.504 126.983C117.863 152.166 89.6319 164.766 64.4487 155.126C39.2654 145.485 26.6656 117.254 36.3071 92.0707C45.9469 66.8858 74.1777 54.2876 99.361 63.9275Z" fill="#B1B1B1"/>
<path opacity="0.1941" d="M99.1278 63.5437C124.298 73.1803 136.891 101.396 127.256 126.566C117.62 151.736 89.4037 164.329 64.2337 154.695C39.0637 145.058 26.4704 116.842 36.1053 91.6721C45.7402 66.5004 73.9578 53.9071 99.1278 63.5437Z" fill="#AFAFAF"/>
<path opacity="0.201" d="M98.8865 63.1436C124.043 72.7752 136.632 100.976 127 126.135C117.368 151.293 89.1673 163.88 64.0089 154.248C38.8521 144.617 26.2638 116.416 35.8954 91.2571C45.527 66.0987 73.7297 53.512 98.8865 63.1436Z" fill="#ADADAD"/>
<path opacity="0.2079" d="M98.6547 62.7592C123.8 72.3858 136.38 100.572 126.753 125.717C117.127 150.862 88.9405 163.443 63.7953 153.816C38.65 144.189 26.07 116.003 35.6967 90.8578C45.3217 65.7125 73.5095 53.1325 98.6547 62.7592Z" fill="#AAAAAA"/>
<path opacity="0.2149" d="M98.415 62.3669C123.547 71.9886 136.12 100.162 126.5 125.292C116.879 150.424 88.7057 162.997 63.5737 153.377C38.4417 143.756 25.8682 115.583 35.4899 90.4523C45.1116 65.3186 73.2846 52.7452 98.415 62.3669Z" fill="#A8A8A8"/>
<path opacity="0.2218" d="M98.1786 61.9746C123.297 71.5913 135.866 99.7494 126.249 124.868C116.632 149.987 88.4743 162.555 63.3555 152.939C38.2367 143.322 25.6682 115.164 35.285 90.0451C44.9017 64.9247 73.0598 52.3579 98.1786 61.9746Z" fill="#A5A5A5"/>
<path opacity="0.2287" d="M97.9388 61.5823C123.044 71.1941 135.606 99.3373 125.995 124.443C116.383 149.549 88.2395 162.11 63.1339 152.499C38.0283 142.887 25.4664 114.744 35.0782 89.638C44.69 64.5308 72.8332 51.9706 97.9388 61.5823Z" fill="#A3A3A3"/>
<path opacity="0.2356" d="M97.7046 61.1892C122.797 70.796 135.352 98.9244 125.745 124.018C116.139 149.112 88.0103 161.666 62.9162 152.059C37.8239 142.452 25.2686 114.324 34.8754 89.23C44.4822 64.1376 72.6106 51.584 97.7046 61.1892Z" fill="#A1A1A1"/>
<path opacity="0.2426" d="M97.4622 60.7976C122.543 70.3994 135.09 98.5146 125.49 123.594C115.888 148.675 87.7728 161.222 62.6937 151.621C37.6128 142.019 25.0658 113.904 34.666 88.8252C44.2679 63.7444 72.3831 51.1957 97.4622 60.7976Z" fill="#9E9E9E"/>
<path opacity="0.2495" d="M97.2326 60.4053C122.3 70.0022 134.842 98.1025 125.245 123.17C115.648 148.238 87.5481 160.78 62.4805 151.183C37.4129 141.586 24.8709 113.486 34.4678 88.418C44.0647 63.3504 72.165 50.8084 97.2326 60.4053Z" fill="#9C9C9C"/>
<path opacity="0.2564" d="M96.989 60.013C122.043 69.605 134.579 97.6904 124.987 122.745C115.395 147.799 87.3095 160.335 62.2551 150.743C37.2007 141.151 24.6652 113.065 34.2572 88.0109C43.8491 62.9565 71.9346 50.4211 96.989 60.013Z" fill="#999999"/>
<path opacity="0.2634" d="M96.7567 59.6207C121.798 69.2077 134.327 97.2783 124.74 122.321C115.153 147.362 87.0821 159.891 62.0393 150.306C36.9981 140.719 24.4693 112.648 34.0563 87.6054C43.6433 62.5626 71.7155 50.0337 96.7567 59.6207Z" fill="#979797"/>
<path opacity="0.2703" d="M96.5167 59.2285C121.545 68.8105 134.069 96.8679 124.487 121.896C114.904 146.925 86.8471 159.448 61.8192 149.866C36.7912 140.284 24.2673 112.226 33.8494 87.1982C43.4314 62.1686 71.4888 49.6464 96.5167 59.2285Z" fill="#959595"/>
<path opacity="0.2772" d="M96.2825 58.8362C121.299 68.4133 133.815 96.4557 124.237 121.47C114.66 146.487 86.6179 159.003 61.6015 149.425C36.5867 139.848 24.0695 111.806 33.6465 86.7911C43.2236 61.7747 71.2661 49.2591 96.2825 58.8362Z" fill="#929292"/>
<path opacity="0.2842" d="M96.043 58.4431C121.046 68.0152 133.555 96.0428 123.983 121.046C114.411 146.049 86.3833 158.558 61.3801 148.986C36.3769 139.414 23.8679 111.386 33.44 86.3831C43.0122 61.3816 71.0414 48.8726 96.043 58.4431Z" fill="#909090"/>
<path opacity="0.2911" d="M95.8035 58.0508C120.793 67.618 133.296 95.6307 123.73 120.621C114.163 145.611 86.1504 158.113 61.1605 148.548C36.1705 138.98 23.6681 110.968 33.2353 85.9776C42.7991 60.9876 70.8135 48.4852 95.8035 58.0508Z" fill="#8D8D8D"/>
<path opacity="0.298" d="M95.5668 57.667C120.544 67.2292 133.041 95.2287 123.479 120.205C113.917 145.182 85.917 157.68 60.9403 148.117C35.9635 138.555 23.4661 110.556 33.0283 85.579C42.5905 60.6022 70.5901 48.1048 95.5668 57.667Z" fill="#8B8B8B"/>
<path opacity="0.305" d="M95.331 57.2669C120.294 66.8242 132.785 94.8088 123.228 119.772C113.671 144.736 85.6861 157.227 60.7226 147.67C35.7591 138.112 23.2682 110.128 32.8255 85.164C42.3811 60.2005 70.3674 47.7096 95.331 57.2669Z" fill="#898989"/>
<path opacity="0.3119" d="M95.0928 56.8824C120.045 66.4348 132.527 94.4045 122.975 119.357C113.423 144.308 85.453 156.791 60.501 147.239C35.5507 137.686 23.0665 109.717 32.6188 84.7647C42.1711 59.8144 70.1425 47.3301 95.0928 56.8824Z" fill="#868686"/>
<path opacity="0.3188" d="M94.8583 56.4902C119.797 66.0375 132.273 93.9924 122.727 118.931C113.18 143.87 85.225 156.346 60.2862 146.8C35.3475 137.253 22.8715 109.298 32.4172 84.3592C41.9646 59.4204 69.9195 46.9428 94.8583 56.4902Z" fill="#848484"/>
<path opacity="0.3257" d="M94.6169 56.0979C119.542 65.6403 132.013 93.582 122.471 118.508C112.929 143.433 84.987 155.904 60.0614 146.362C35.1359 136.819 22.6649 108.878 32.2073 83.9521C41.7513 59.0265 69.6914 46.5555 94.6169 56.0979Z" fill="#818181"/>
<path opacity="0.3327" d="M94.385 55.7056C119.297 65.2431 131.762 93.1699 122.224 118.082C112.687 142.995 84.76 155.459 59.8477 145.922C34.9353 136.384 22.4709 108.457 32.0083 83.5449C41.5458 58.6326 69.4727 46.1682 94.385 55.7056Z" fill="#7F7F7F"/>
<path opacity="0.3396" d="M94.1472 55.3125C119.046 64.8449 131.504 92.7569 121.972 117.656C112.439 142.555 84.5271 155.013 59.628 145.482C34.7289 135.95 22.2711 108.038 31.8036 83.1386C41.3361 58.2394 69.2481 45.7816 94.1472 55.3125Z" fill="#7D7D7D"/>
<path opacity="0.3465" d="M93.9088 54.9209C118.795 64.4484 131.248 92.3455 121.72 117.233C112.193 142.121 84.2954 154.572 59.4078 145.044C34.5219 135.517 22.0691 107.618 31.5966 82.7321C41.1242 57.8462 69.0213 45.3933 93.9088 54.9209Z" fill="#7A7A7A"/>
<path opacity="0.3535" d="M93.6771 54.5288C118.551 64.0514 130.996 91.9353 121.473 116.808C111.951 141.682 84.067 154.127 59.1943 144.604C34.32 135.082 21.8753 107.198 31.3979 82.3252C40.9205 57.4508 68.8044 45.0062 93.6771 54.5288Z" fill="#787878"/>
<path opacity="0.3604" d="M93.4331 54.1365C118.294 63.6541 130.732 91.5232 121.215 116.384C111.697 141.245 83.828 153.683 58.9668 144.166C34.1057 134.648 21.6677 106.779 31.1853 81.918C40.703 57.0569 68.572 44.6189 93.4331 54.1365Z" fill="#757575"/>
<path opacity="0.3673" d="M93.1995 53.7442C118.047 63.2569 130.479 91.1111 120.968 115.959C111.455 140.807 83.601 153.238 58.7531 143.727C33.9051 134.215 21.4738 106.36 30.9864 81.5125C40.4975 56.663 68.3516 44.2316 93.1995 53.7442Z" fill="#737373"/>
<path opacity="0.3743" d="M92.9629 53.352C117.798 62.8597 130.224 90.7006 120.716 115.535C111.209 140.37 83.3693 152.796 58.5329 143.289C33.6982 133.781 21.2718 105.942 30.7795 81.1054C40.2872 56.269 68.1282 43.8442 92.9629 53.352Z" fill="#717171"/>
<path opacity="0.3812" d="M92.7251 52.9675C117.547 62.4703 129.966 90.2964 120.464 115.118C110.961 139.941 83.1348 152.359 58.3133 142.856C33.4918 133.354 21.072 105.528 30.5747 80.706C40.0775 55.8829 67.9036 43.4647 92.7251 52.9675Z" fill="#6E6E6E"/>
<path opacity="0.3881" d="M92.4869 52.5753C117.297 62.0731 129.708 89.8843 120.211 114.693C110.713 139.502 82.9016 151.914 58.0917 142.416C33.2834 132.918 20.8702 105.107 30.368 80.2973C39.8658 55.489 67.677 43.0774 92.4869 52.5753Z" fill="#6C6C6C"/>
<path opacity="0.395" d="M92.2511 52.1821C117.048 61.6749 129.454 89.4713 119.962 114.268C110.469 139.065 82.6723 151.471 57.8756 141.978C33.0789 132.486 20.6723 104.689 30.1652 79.8925C39.658 55.0958 67.456 42.6909 92.2511 52.1821Z" fill="#696969"/>
<path opacity="0.402" d="M92.0113 51.7905C116.795 61.2784 129.195 89.0599 119.707 113.843C110.219 138.627 82.4375 151.027 57.654 141.539C32.8705 132.051 20.4705 104.27 29.9584 79.4861C39.4447 54.7026 67.2278 42.3026 92.0113 51.7905Z" fill="#676767"/>
<path opacity="0.4089" d="M91.7791 51.3982C116.549 60.8811 128.943 88.6494 119.46 113.42C109.977 138.19 82.2086 150.583 57.4383 141.1C32.668 131.617 20.2746 103.849 29.7576 79.0789C39.2405 54.3087 67.0088 41.9153 91.7791 51.3982Z" fill="#656565"/>
<path opacity="0.4158" d="M91.5432 51.0059C116.3 60.4839 128.687 88.2373 119.209 112.994C109.731 137.753 81.9777 150.138 57.2206 140.662C32.4636 131.184 20.0768 103.43 29.5548 78.6734C39.0311 53.9147 66.7845 41.5279 91.5432 51.0059Z" fill="#626262"/>
<path opacity="0.4228" d="M91.3049 50.6136C116.05 60.0867 128.431 87.8252 118.958 112.571C109.485 137.316 81.746 149.696 57.0005 140.223C32.2566 130.75 19.8748 103.012 29.3478 78.2663C38.8208 53.5208 66.5611 41.1406 91.3049 50.6136Z" fill="#606060"/>
<path opacity="0.4297" d="M91.0673 50.2136C115.8 59.6816 128.173 87.407 118.705 112.138C109.237 136.87 81.5133 149.243 56.781 139.775C32.0487 130.307 19.6752 102.582 29.1432 77.8513C38.6113 53.1191 66.335 40.7455 91.0673 50.2136Z" fill="#5D5D5D"/>
<path opacity="0.4366" d="M90.8292 49.8291C115.548 59.2922 127.915 87.0027 118.452 111.722C108.989 136.441 81.2785 148.808 56.5594 139.345C31.8404 129.882 19.4734 102.171 28.9365 77.452C38.4013 52.7329 66.1101 40.366 90.8292 49.8291Z" fill="#5B5B5B"/>
<path opacity="0.4436" d="M90.5901 49.4368C115.296 58.895 127.658 86.5906 118.198 111.296C108.74 136.002 81.0444 148.364 56.3385 138.906C31.6327 129.448 19.2707 101.752 28.7305 77.0465C38.1886 52.339 65.8842 39.9786 90.5901 49.4368Z" fill="#595959"/>
<path opacity="0.4505" d="M90.355 49.0444C115.048 58.4976 127.403 86.1783 117.95 110.871C108.497 135.564 80.8159 147.919 56.1216 138.466C31.429 129.013 19.0736 101.332 28.5268 76.6376C37.9816 51.9466 65.6624 39.5912 90.355 49.0444Z" fill="#565656"/>
<path opacity="0.4574" d="M90.1211 48.6599C114.801 58.1081 127.149 85.7757 117.701 110.455C108.253 135.136 80.587 147.483 55.9059 138.035C31.2265 128.587 18.8776 100.919 28.3259 76.2399C37.7742 51.5605 65.44 39.2116 90.1211 48.6599Z" fill="#545454"/>
<path opacity="0.4644" d="M89.8776 48.2598C114.546 57.7031 126.886 85.3557 117.443 110.022C107.999 134.69 80.3468 147.03 55.6806 137.587C31.0127 128.144 18.6722 100.491 28.1155 75.8249C37.5588 51.1587 65.2114 38.8165 89.8776 48.2598Z" fill="#515151"/>
<path opacity="0.4713" d="M89.6463 47.8753C114.301 57.3137 126.637 84.9515 117.198 109.606C107.76 134.261 80.1221 146.596 55.4675 137.158C30.8128 127.72 18.4772 100.082 27.9172 75.4272C37.3539 50.7726 64.9917 38.437 89.6463 47.8753Z" fill="#4F4F4F"/>
<path opacity="0.4782" d="M89.4054 47.4752C114.047 56.9086 126.376 84.5315 116.942 109.173C107.509 133.814 79.8861 146.143 55.2447 136.71C30.6032 127.277 18.2743 99.6537 27.7077 75.0123C37.1411 50.3708 64.764 38.0419 89.4054 47.4752Z" fill="#4D4D4D"/>
<path opacity="0.4851" d="M89.1712 47.0908C113.799 56.5192 126.122 84.1289 116.693 108.757C107.265 133.385 79.6569 145.708 55.027 136.279C30.3988 126.851 18.0764 99.2412 27.5048 74.613C36.9333 49.9847 64.543 37.6624 89.1712 47.0908Z" fill="#4A4A4A"/>
<path opacity="0.4921" d="M88.9314 46.6907C113.546 56.1142 125.862 83.709 116.439 108.324C107.015 132.941 79.4204 145.255 54.8054 135.833C30.1904 126.41 17.8746 98.8146 27.2981 74.1996C36.7216 49.583 64.3164 37.2672 88.9314 46.6907Z" fill="#484848"/>
<path opacity="0.499" d="M88.6972 46.3062C113.301 55.7247 125.61 83.3047 116.191 107.908C106.773 132.512 79.1928 144.821 54.5894 135.402C29.9859 125.984 17.6768 98.4037 27.0953 73.8003C36.5138 49.1968 64.0938 36.8877 88.6972 46.3062Z" fill="#454545"/>
<path opacity="0.5059" d="M88.4555 45.9059C113.046 55.3195 125.348 82.8846 115.935 107.475C106.521 132.065 78.9561 144.368 54.3658 134.954C29.7756 125.541 17.473 97.9754 26.8866 73.3852C36.3002 48.7966 63.8653 36.4924 88.4555 45.9059Z" fill="#434343"/>
<path opacity="0.5129" d="M88.2252 45.5215C112.802 54.9301 125.098 82.482 115.69 107.057C106.281 131.634 78.7307 143.93 54.1521 134.522C29.575 125.113 17.2791 97.5612 26.6877 72.9842C36.0963 48.4105 63.6482 36.1129 88.2252 45.5215Z" fill="#414141"/>
<path opacity="0.5198" d="M87.9822 45.1294C112.546 54.533 124.837 82.0701 115.432 106.634C106.028 131.198 78.491 143.489 53.9272 134.085C29.3634 124.681 17.0724 97.1444 26.4777 72.5806C35.8814 48.0151 63.4184 35.7257 87.9822 45.1294Z" fill="#3E3E3E"/>
<path opacity="0.5267" d="M87.7474 44.7371C112.298 54.1358 124.582 81.658 115.184 106.209C105.785 130.761 78.2628 143.044 53.7123 133.645C29.1617 124.246 16.8773 96.724 26.276 72.1734C35.673 47.6212 63.1952 35.3384 87.7474 44.7371Z" fill="#3C3C3C"/>
<path opacity="0.5337" d="M87.5093 44.3449C112.048 53.7386 124.324 81.2459 114.931 105.785C105.537 130.324 78.0297 142.6 53.4907 133.206C28.9533 123.813 16.6755 96.3053 26.0693 71.7663C35.463 47.2273 62.972 34.9511 87.5093 44.3449Z" fill="#3A3A3A"/>
<path opacity="0.5406" d="M87.2737 43.9526C111.799 53.3414 124.069 80.8354 114.68 105.36C105.291 129.885 77.799 142.155 53.2732 132.766C28.7474 123.377 16.4779 95.8833 25.8666 71.3591C35.2554 46.8333 62.7479 34.5638 87.2737 43.9526Z" fill="#373737"/>
<path opacity="0.5475" d="M87.0346 43.5681C111.547 52.9519 123.812 80.4312 114.428 104.944C105.044 129.456 77.5649 141.721 53.0523 132.337C28.5397 122.953 16.2751 95.474 25.6606 70.9615C35.0444 46.4472 62.522 34.1843 87.0346 43.5681Z" fill="#353535"/>
<path opacity="0.5545" d="M86.7975 43.1687C111.297 52.5476 123.555 80.0119 114.176 104.511C104.797 129.011 77.3328 141.269 52.8334 131.89C28.334 122.511 16.0761 95.0466 25.4549 70.5472C34.8338 46.0461 62.2982 33.7882 86.7975 43.1687Z" fill="#323232"/>
<path opacity="0.5614" d="M86.5594 42.7834C111.046 52.1573 123.297 79.6068 113.923 104.095C104.549 128.581 77.0996 140.832 52.6118 131.458C28.1256 122.084 15.8743 94.6348 25.2482 70.147C34.6238 45.6608 62.0733 33.4094 86.5594 42.7834Z" fill="#303030"/>
<path opacity="0.5683" d="M86.3243 42.3833C110.799 51.7522 123.044 79.1885 113.673 103.661C104.304 128.136 76.8694 140.381 52.3948 131.012C27.9219 121.643 15.6755 94.2066 25.0461 69.7337C34.415 45.2591 61.8497 33.0143 86.3243 42.3833Z" fill="#2E2E2E"/>
<path opacity="0.5752" d="M86.0896 41.9988C110.551 51.3628 122.789 78.7842 113.425 103.244C104.061 127.705 76.6398 139.944 52.18 130.579C27.7186 121.215 15.4805 93.7941 24.8445 69.3343C34.2085 44.8729 61.6299 32.6348 86.0896 41.9988Z" fill="#2B2B2B"/>
<path opacity="0.5822" d="M85.8516 41.6065C110.3 50.9656 122.531 78.3722 113.172 102.82C103.813 127.269 76.4066 139.5 51.9584 130.141C27.5103 120.782 15.2787 93.3754 24.6378 68.9272C33.9968 44.479 61.4034 32.2475 85.8516 41.6065Z" fill="#292929"/>
<path opacity="0.5891" d="M85.6157 41.2065C110.051 50.5606 122.276 77.9522 112.921 102.387C103.567 126.822 76.1757 139.047 51.7407 129.693C27.3058 120.339 15.0809 92.9472 24.435 68.5122C33.7891 44.0773 61.1807 31.8524 85.6157 41.2065Z" fill="#262626"/>
<path opacity="0.596" d="M85.3763 40.822C109.798 50.1711 122.018 77.5496 112.667 101.971C103.318 126.393 75.9413 138.613 51.5179 129.264C27.0961 119.915 14.8762 92.5363 24.227 68.1146C33.5761 43.6912 60.9529 31.4728 85.3763 40.822Z" fill="#242424"/>
<path opacity="0.603" d="M85.1396 40.4304C109.548 49.7746 121.761 77.1382 112.417 101.547C103.073 125.957 75.7095 138.169 51.301 128.824C26.8924 119.48 14.6791 92.1166 24.0233 67.7081C33.3675 43.2979 60.731 31.0845 85.1396 40.4304Z" fill="#222222"/>
<path opacity="0.6099" d="M84.9017 40.0381C109.299 49.3773 121.504 76.7261 112.164 101.123C102.825 125.52 75.4766 137.725 51.0796 128.386C26.6826 119.047 14.4775 91.6979 23.8167 67.301C33.156 42.904 60.5047 30.6972 84.9017 40.0381Z" fill="#1F1F1F"/>
<path opacity="0.6168" d="M84.6684 39.645C109.052 48.9793 121.252 76.3131 111.916 100.697C102.582 125.081 75.2483 137.281 50.8645 127.945C26.4808 118.611 14.2806 91.2767 23.6165 66.8929C32.9508 42.5108 60.2847 30.3107 84.6684 39.645Z" fill="#1D1D1D"/>
<path opacity="0.6238" d="M84.4248 39.2527C108.795 48.582 120.989 75.9026 111.66 100.273C102.33 124.644 75.0112 136.837 50.639 127.508C26.2685 118.179 14.0749 90.8579 23.4059 66.4874C32.7336 42.1169 60.0542 29.9234 84.4248 39.2527Z" fill="#1A1A1A"/>
<path opacity="0.6307" d="M84.1936 38.8604C108.551 48.1848 120.738 75.4906 111.413 99.8479C102.089 124.205 74.7833 136.392 50.426 127.068C26.0687 117.743 13.8817 90.4376 23.2061 66.0803C32.5305 41.7229 59.8363 29.5361 84.1936 38.8604Z" fill="#181818"/>
<path opacity="0.6376" d="M83.9577 38.476C108.302 47.7954 120.482 75.0863 111.163 99.4304C101.843 123.776 74.5524 135.955 50.2083 126.635C25.8642 117.316 13.6839 90.0251 23.0033 65.681C32.3211 41.3369 59.612 29.1565 83.9577 38.476Z" fill="#161616"/>
<path opacity="0.6446" d="M83.7183 38.0837C108.051 47.3981 120.225 74.6742 110.908 99.0068C101.594 123.339 74.318 135.513 49.9854 126.199C25.6545 116.884 13.4792 89.608 22.7953 65.2755C32.1098 40.9429 59.3874 28.7692 83.7183 38.0837Z" fill="#131313"/>
<path opacity="0.6515" d="M83.4849 37.6836C107.804 46.9931 119.971 74.2559 110.662 98.5736C101.352 122.893 74.0912 135.06 49.7719 125.751C25.4525 116.441 13.2854 89.1782 22.5966 64.8605C31.9044 40.5412 59.1656 28.3741 83.4849 37.6836Z" fill="#111111"/>
<path opacity="0.6584" d="M83.2437 37.2998C107.55 46.6043 119.71 73.8524 110.406 98.1585C101.101 122.465 73.8533 134.625 49.5471 125.321C25.241 116.016 13.0805 88.768 22.3851 64.4619C31.6913 40.1557 58.9376 27.9936 83.2437 37.2998Z" fill="#0E0E0E"/>
<path opacity="0.6653" d="M83.0098 36.8997C107.303 46.1993 119.458 73.4324 110.157 97.7253C100.857 122.018 73.6243 134.172 49.3314 124.873C25.0385 115.573 12.8846 88.3399 22.1842 64.047C31.4838 39.7541 58.7169 27.5985 83.0098 36.8997Z" fill="#0C0C0C"/>
<path opacity="0.6723" d="M82.7724 36.5144C107.052 45.809 119.201 73.0272 109.905 97.3086C100.61 121.59 73.3918 133.737 49.1105 124.443C24.8308 115.148 12.6819 87.9297 21.9782 63.6484C31.2744 39.3687 58.4927 27.2197 82.7724 36.5144Z" fill="#0A0A0A"/>
<path opacity="0.6792" d="M82.5356 36.1143C106.804 45.404 118.944 72.609 109.655 96.8755C100.365 121.144 73.1617 133.284 48.8936 123.995C24.6271 114.705 12.4848 87.4999 21.7744 63.2334C31.0641 38.9669 58.2675 26.8246 82.5356 36.1143Z" fill="#070707"/>
<path opacity="0.6861" d="M82.2977 35.73C106.553 45.0147 118.687 72.2049 109.402 96.4598C100.117 120.715 72.9271 132.849 48.6722 123.564C24.4173 114.279 12.2832 87.0892 21.5679 62.8343C30.8543 38.5794 58.0428 26.4453 82.2977 35.73Z" fill="#050505"/>
<path opacity="0.6931" d="M82.0567 35.3299C106.298 44.6097 118.427 71.785 109.146 96.0267C99.8663 120.268 72.691 132.398 48.4493 123.116C24.2076 113.836 12.0785 86.661 21.3599 62.4193C30.6397 38.1776 57.815 26.0502 82.0567 35.3299Z" fill="#020202"/>
<path opacity="0.7" d="M81.8208 34.9455C106.049 44.2203 118.172 71.3807 108.895 95.6092C99.6205 119.838 72.4601 131.96 48.2316 122.685C24.0031 113.409 11.8806 86.2485 21.1571 62.02C30.4319 37.7915 57.5923 25.6707 81.8208 34.9455Z" fill="black"/>
</g>
</svg>
