<svg width="139" height="157" viewBox="0 0 139 157" fill="none" xmlns="http://www.w3.org/2000/svg">
<path d="M4.77746 43.3692C-5.78575 72.3929 5.63639 104.043 30.5223 120.126L37.1625 144.366L57.8297 130.067C59.2106 130.239 60.5915 130.371 61.9708 130.453V0.726562C36.9065 2.23465 13.9119 18.2719 4.77746 43.3692Z" fill="#05BCC1"/>
<path d="M88.055 4.53229C81.9929 2.3255 75.8218 1.09326 69.697 0.726562V5.52997C75.3808 5.89667 80.9903 7.06283 86.4148 9.03838C101.52 14.5355 113.58 25.5877 120.374 40.1565C127.168 54.7253 127.881 71.0681 122.383 86.1738C114.203 108.65 93.3308 124.119 69.6953 125.653V130.455C94.758 128.949 117.753 112.908 126.887 87.8123C139.163 54.091 121.776 16.8068 88.055 4.53229Z" fill="#05BCC1"/>
<g opacity="0.8">
<path opacity="0.01" d="M106.364 60.7684C131.883 70.5371 144.651 99.1444 134.881 124.663C125.112 150.182 96.5046 162.95 70.9861 153.18C45.4675 143.411 32.6992 114.803 42.4695 89.2849C52.2382 63.7664 80.844 50.998 106.364 60.7684Z" fill="#F0F0F0"/>
<path opacity="0.0139" d="M106.133 60.3752C131.638 70.1389 144.4 98.7315 134.636 124.238C124.873 149.744 96.28 162.506 70.7731 152.742C45.2677 142.978 32.506 114.386 42.2697 88.8785C52.0351 63.3732 80.6276 50.6114 106.133 60.3752Z" fill="#EDEDED"/>
<path opacity="0.0208" d="M105.897 59.9829C131.391 69.7417 144.144 98.321 134.386 123.813C124.627 149.307 96.0491 162.06 70.5554 152.302C45.0633 142.543 32.3081 113.965 42.0669 88.4714C51.8257 62.9793 80.4034 50.2241 105.897 59.9829Z" fill="#EBEBEB"/>
<path opacity="0.0277" d="M105.658 59.5906C131.138 69.3445 143.887 97.9089 134.132 123.389C124.378 148.87 95.8132 161.619 70.3327 151.863C44.8521 142.109 32.1036 113.545 41.8591 88.0659C51.6146 62.5853 80.1774 49.8368 105.658 59.5906Z" fill="#E8E8E8"/>
<path opacity="0.0347" d="M105.424 59.2064C130.892 68.9553 143.634 97.5049 133.885 122.972C124.136 148.44 95.5863 161.181 70.1189 151.431C44.6516 141.682 31.9097 113.132 41.6602 87.6651C51.4074 62.1978 79.957 49.4575 105.424 59.2064Z" fill="#E6E6E6"/>
<path opacity="0.0416" d="M105.183 58.807C130.637 68.5509 143.372 97.0856 133.629 122.54C123.885 147.994 95.3499 160.729 69.8942 150.985C44.4401 141.241 31.7048 112.707 41.4487 87.2525C51.1942 61.7967 79.729 49.0614 105.183 58.807Z" fill="#E4E4E4"/>
<path opacity="0.0485" d="M104.95 58.4225C130.391 68.1615 143.121 96.683 133.381 122.124C123.642 147.565 95.1217 160.293 69.6791 150.555C44.2382 140.816 31.5079 112.296 41.2485 86.8532C50.9875 61.4106 79.5073 48.6819 104.95 58.4225Z" fill="#E1E1E1"/>
<path opacity="0.0554" d="M104.71 58.0302C130.139 67.7643 142.862 96.2709 133.126 121.699C123.392 147.128 94.8852 159.85 69.4575 150.114C44.0299 140.38 31.3061 111.874 41.0418 86.446C50.7758 61.0167 79.2807 48.2946 104.71 58.0302Z" fill="#DFDFDF"/>
<path opacity="0.0624" d="M104.475 57.6379C129.891 67.367 142.607 95.8588 132.878 121.275C123.147 146.691 94.6569 159.407 69.2408 149.677C43.8247 139.948 31.1092 111.457 40.8383 86.0405C50.5673 60.6227 79.0591 47.9072 104.475 57.6379Z" fill="#DCDCDC"/>
<path opacity="0.0693" d="M104.235 57.2448C129.638 66.9689 142.347 95.4458 132.623 120.849C122.899 146.252 94.4222 158.961 69.0192 149.236C43.6163 139.512 30.9074 111.035 40.6315 85.6325C50.3556 60.2296 78.8325 47.5207 104.235 57.2448Z" fill="#DADADA"/>
<path opacity="0.0762" d="M104 56.8525C129.39 66.5717 142.094 95.0354 132.373 120.425C122.654 145.815 94.1916 158.519 68.8003 148.798C43.4106 139.079 30.7066 110.615 40.4274 85.2254C50.1466 59.8357 78.6086 47.1334 104 56.8525Z" fill="#D8D8D8"/>
<path opacity="0.0832" d="M103.76 56.4603C129.137 66.1761 141.834 94.6233 132.118 120C122.402 145.376 93.9552 158.074 68.5787 148.358C43.2022 138.644 30.5049 110.195 40.2207 84.8182C49.9349 59.4418 78.3837 46.7461 103.76 56.4603Z" fill="#D5D5D5"/>
<path opacity="0.0901" d="M103.529 56.0686C128.892 65.7795 141.583 94.2118 131.874 119.577C122.163 144.94 93.7306 157.631 68.3657 147.922C43.0024 138.212 30.3117 109.778 40.0209 84.415C49.7301 59.0485 78.1641 46.3577 103.529 56.0686Z" fill="#D3D3D3"/>
<path opacity="0.097" d="M103.286 55.6764C128.638 65.3823 141.322 93.7998 131.616 119.151C121.91 144.503 93.4927 157.186 68.141 147.481C42.7893 137.777 30.1052 109.358 39.8111 84.0063C49.5154 58.6546 77.9345 45.9704 103.286 55.6764Z" fill="#D0D0D0"/>
<path opacity="0.104" d="M103.054 55.2841C128.392 64.9851 141.07 93.3893 131.369 118.726C121.668 144.065 93.2654 156.742 67.9253 147.041C42.5868 137.342 29.9093 108.936 39.6103 83.5991C49.3113 58.2606 77.7155 45.5831 103.054 55.2841Z" fill="#CECECE"/>
<path opacity="0.1109" d="M102.813 54.8918C128.138 64.5879 140.809 92.9772 131.114 118.303C121.418 143.628 93.029 156.299 67.7037 146.603C42.3784 136.908 29.7075 108.517 39.4036 83.192C49.0979 57.8667 77.4873 45.1958 102.813 54.8918Z" fill="#CCCCCC"/>
<path opacity="0.1178" d="M102.577 54.5074C127.89 64.1984 140.554 92.5729 130.864 117.885C121.173 143.197 92.7989 155.861 67.4868 146.172C42.1747 136.481 29.5104 108.106 39.1999 82.7943C48.8893 57.4806 77.2638 44.8163 102.577 54.5074Z" fill="#C9C9C9"/>
<path opacity="0.1248" d="M102.338 54.1142C127.637 63.8003 140.296 92.1599 130.61 117.46C120.924 142.759 92.5644 155.419 67.2639 145.733C41.9651 136.046 29.3057 107.687 38.9918 82.3863C48.678 57.0874 77.0392 44.4298 102.338 54.1142Z" fill="#C7C7C7"/>
<path opacity="0.1317" d="M102.102 53.722C127.39 63.4031 140.041 91.7495 130.36 117.035C120.678 142.322 92.3337 154.974 67.0464 145.292C41.7591 135.611 29.1081 107.265 38.7892 81.9792C48.4687 56.6935 76.8151 44.0424 102.102 53.722Z" fill="#C4C4C4"/>
<path opacity="0.1386" d="M101.863 53.3297C127.138 63.0059 139.782 91.3374 130.107 116.611C120.431 141.886 92.0997 154.53 66.8256 144.855C41.5515 135.179 28.9071 106.848 38.5816 81.5737C48.2578 56.2996 76.5894 43.6551 101.863 53.3297Z" fill="#C2C2C2"/>
<path opacity="0.1455" d="M101.628 52.9381C126.888 62.6093 139.526 90.926 129.857 116.187C120.185 141.448 91.8688 154.086 66.6079 144.416C41.3471 134.745 28.7092 106.428 38.3788 81.1672C48.0484 55.9063 76.3651 43.2668 101.628 52.9381Z" fill="#C0C0C0"/>
<path opacity="0.1525" d="M101.388 52.5458C126.636 62.2121 139.269 90.5139 129.602 115.763C119.936 141.011 91.6343 153.644 66.3851 143.977C41.1374 134.311 28.5045 106.009 38.1708 80.7617C47.8371 55.5124 76.1405 42.8795 101.388 52.5458Z" fill="#BDBDBD"/>
<path opacity="0.1594" d="M101.156 52.1535C126.391 61.8149 139.017 90.1034 129.356 115.338C119.694 140.572 91.4057 153.199 66.1713 143.537C40.9369 133.876 28.3106 105.587 37.9719 80.3529C47.6332 55.1185 75.9218 42.4922 101.156 52.1535Z" fill="#BBBBBB"/>
<path opacity="0.1663" d="M100.92 51.7612C126.142 61.4176 138.76 89.6913 129.106 114.913C119.449 140.135 91.1756 152.753 65.9544 143.099C40.7332 133.442 28.1134 105.169 37.7682 79.9474C47.4229 54.7245 75.6966 42.1049 100.92 51.7612Z" fill="#B8B8B8"/>
<path opacity="0.1733" d="M100.68 51.369C125.89 61.0204 138.503 89.2792 128.852 114.489C119.2 139.699 90.9414 152.312 65.7317 142.66C40.522 133.009 27.9089 104.75 37.5604 79.5403C47.2118 54.3306 75.4723 41.7175 100.68 51.369Z" fill="#B6B6B6"/>
<path opacity="0.1802" d="M100.444 50.9758C125.641 60.6223 138.247 88.8663 128.601 114.063C118.954 139.259 90.7105 151.866 65.514 142.219C40.3176 132.573 27.7111 104.329 37.3576 79.1323C47.0024 53.9375 75.248 41.331 100.444 50.9758Z" fill="#B4B4B4"/>
<path opacity="0.1871" d="M100.205 50.5836C125.388 60.2251 137.988 88.4559 128.348 113.639C118.706 138.822 90.4756 151.422 65.2924 141.781C40.1092 132.139 27.5093 103.908 37.1508 78.7251C46.7907 53.5436 75.0215 40.9437 100.205 50.5836Z" fill="#B1B1B1"/>
<path opacity="0.1941" d="M99.9715 50.1998C125.142 59.8363 137.735 88.0522 128.1 113.222C118.463 138.392 90.2474 150.986 65.0774 141.351C39.9074 131.714 27.3142 103.498 36.9491 78.3281C46.584 53.1581 74.8015 40.5632 99.9715 50.1998Z" fill="#AFAFAF"/>
<path opacity="0.201" d="M99.7302 49.7999C124.887 59.4315 137.475 87.6325 127.844 112.791C118.212 137.949 90.0111 150.536 64.8526 140.904C39.6958 131.273 27.1075 103.072 36.7391 77.9134C46.3707 52.7549 74.5734 40.1683 99.7302 49.7999Z" fill="#ADADAD"/>
<path opacity="0.2079" d="M99.4985 49.4154C124.644 59.0421 137.224 87.2282 127.597 112.373C117.97 137.519 89.7843 150.099 64.639 140.472C39.4938 130.845 26.9138 102.659 36.5404 77.5141C46.1654 52.3688 74.3532 39.7888 99.4985 49.4154Z" fill="#AAAAAA"/>
<path opacity="0.2149" d="M99.2587 49.0231C124.391 58.6448 136.964 86.8178 127.344 111.95C117.722 137.082 89.5495 149.655 64.4175 140.035C39.2854 130.414 26.712 102.241 36.3337 77.1102C45.9554 51.9748 74.1283 39.4014 99.2587 49.0231Z" fill="#A8A8A8"/>
<path opacity="0.2218" d="M99.0223 48.6308C124.141 58.2476 136.71 86.4057 127.093 111.524C117.476 136.643 89.318 149.21 64.1992 139.595C39.0804 129.978 26.512 101.82 36.1287 76.7014C45.7454 51.581 73.9035 39.0141 99.0223 48.6308Z" fill="#A5A5A5"/>
<path opacity="0.2287" d="M98.7826 48.2386C123.888 57.8504 136.45 85.9936 126.838 111.099C117.226 136.205 89.0833 148.767 63.9777 139.155C38.8721 129.543 26.3102 101.4 35.922 76.2943C45.5338 51.187 73.677 38.6268 98.7826 48.2386Z" fill="#A3A3A3"/>
<path opacity="0.2356" d="M98.5484 47.8454C123.641 57.4523 136.196 85.5806 126.589 110.675C116.982 135.767 88.854 148.322 63.76 138.715C38.6676 129.109 26.1123 100.98 35.7192 75.8863C45.326 50.7939 73.4544 38.2403 98.5484 47.8454Z" fill="#A1A1A1"/>
<path opacity="0.2426" d="M98.306 47.4531C123.387 57.055 135.934 85.1702 126.334 110.249C116.732 135.33 88.6166 147.877 63.5374 138.277C38.4566 128.675 25.9096 100.56 35.5098 75.4808C45.1117 50.3999 73.2268 37.8529 98.306 47.4531Z" fill="#9E9E9E"/>
<path opacity="0.2495" d="M98.0764 47.0616C123.144 56.6585 135.686 84.7588 126.089 109.826C116.492 134.894 88.3919 147.436 63.3243 137.839C38.2567 128.242 25.7146 100.142 35.3116 75.0743C44.9085 50.0067 73.0088 37.4646 98.0764 47.0616Z" fill="#9C9C9C"/>
<path opacity="0.2564" d="M97.8327 46.6693C122.887 56.2612 135.423 84.3467 125.831 109.401C116.239 134.455 88.1532 146.991 63.0988 137.399C38.0444 127.807 25.509 99.7215 35.1009 74.6672C44.6929 49.6128 72.7783 37.0773 97.8327 46.6693Z" fill="#999999"/>
<path opacity="0.2634" d="M97.6004 46.277C122.642 55.864 135.17 83.9362 125.583 108.977C115.996 134.019 87.9259 146.547 62.8831 136.96C37.8419 127.373 25.3131 99.3028 34.9001 74.26C44.4871 49.2188 72.5593 36.69 97.6004 46.277Z" fill="#979797"/>
<path opacity="0.2703" d="M97.3605 45.8847C122.388 55.4668 134.912 83.5241 125.33 108.552C115.748 133.58 87.6909 146.102 62.6629 136.522C37.635 126.94 25.1111 98.8825 34.6931 73.8545C44.2752 48.8249 72.3325 36.3027 97.3605 45.8847Z" fill="#959595"/>
<path opacity="0.2772" d="M97.1263 45.4924C122.143 55.0695 134.658 83.112 125.081 108.128C115.504 133.145 87.4616 145.66 62.4452 136.083C37.4305 126.506 24.9132 98.4638 34.4903 73.449C44.0674 48.431 72.1099 35.9153 97.1263 45.4924Z" fill="#929292"/>
<path opacity="0.2842" d="M96.8867 45.1002C121.89 54.6723 134.399 82.6999 124.827 107.703C115.255 132.706 87.227 145.215 62.2239 135.643C37.2207 126.071 24.7116 98.0434 34.2838 73.0403C43.8559 48.0371 71.8852 35.528 96.8867 45.1002Z" fill="#909090"/>
<path opacity="0.2911" d="M96.6472 44.707C121.637 54.2742 134.14 82.2886 124.574 107.277C115.007 132.267 86.9942 144.769 62.0042 135.204C37.0142 125.637 24.5118 97.6238 34.079 72.6339C43.6429 47.6439 71.6573 35.1415 96.6472 44.707Z" fill="#8D8D8D"/>
<path opacity="0.298" d="M96.4106 44.3232C121.387 53.8855 133.885 81.885 124.323 106.862C114.76 131.838 86.7608 144.336 61.784 134.774C36.8073 125.211 24.3098 97.212 33.8721 72.2352C43.4343 47.2585 71.4338 34.761 96.4106 44.3232Z" fill="#8B8B8B"/>
<path opacity="0.305" d="M96.1747 43.9232C121.138 53.4804 133.629 81.4651 124.072 106.429C114.515 131.392 86.5299 143.883 61.5664 134.326C36.6028 124.768 24.112 96.7838 33.6692 71.8203C43.2249 46.8567 71.2112 34.3659 96.1747 43.9232Z" fill="#898989"/>
<path opacity="0.3119" d="M95.9366 43.5387C120.889 53.091 133.371 81.0608 123.819 106.013C114.267 130.965 86.2967 143.447 61.3448 133.895C36.3944 124.343 23.9102 96.3729 33.4625 71.4209C43.0148 46.4706 70.9863 33.9864 95.9366 43.5387Z" fill="#868686"/>
<path opacity="0.3188" d="M95.702 43.1464C120.641 52.6938 133.117 80.6504 123.571 105.587C114.024 130.526 86.0688 143.002 61.13 133.456C36.1912 123.909 23.7153 95.9542 33.261 71.0154C42.8083 46.0767 70.7633 33.599 95.702 43.1464Z" fill="#848484"/>
<path opacity="0.3257" d="M95.4607 42.7541C120.386 52.2965 132.857 80.2383 123.315 105.164C113.772 130.089 85.8307 142.56 60.9052 133.018C35.9796 123.476 23.5086 95.5339 33.051 70.6083C42.5951 45.6828 70.5351 33.2117 95.4607 42.7541Z" fill="#818181"/>
<path opacity="0.3327" d="M95.2287 42.3619C120.141 51.8993 132.606 79.8262 123.068 104.739C113.531 129.651 85.6037 142.115 60.6914 132.578C35.7791 123.04 23.3147 95.1135 32.8521 70.2012C42.3895 45.2888 70.3164 32.8244 95.2287 42.3619Z" fill="#7F7F7F"/>
<path opacity="0.3396" d="M94.9909 41.9687C119.89 51.5012 132.348 79.4132 122.815 104.312C113.283 129.211 85.3709 141.669 60.4718 132.137C35.5727 122.604 23.1148 94.6923 32.6473 69.7932C42.1798 44.8957 70.0918 32.4379 94.9909 41.9687Z" fill="#7D7D7D"/>
<path opacity="0.3465" d="M94.7526 41.5764C119.638 51.104 132.091 79.0027 122.564 103.889C113.036 128.776 85.1392 141.227 60.2516 131.7C35.3657 122.172 22.9129 94.2752 32.4404 69.3877C41.9679 44.5018 69.865 32.0505 94.7526 41.5764Z" fill="#7A7A7A"/>
<path opacity="0.3535" d="M94.5209 41.1848C119.395 50.7074 131.84 78.5913 122.317 103.464C112.795 128.338 84.9107 140.783 60.038 131.26C35.1637 121.738 22.7191 93.8539 32.2417 68.9812C41.7643 44.1085 69.6482 31.6623 94.5209 41.1848Z" fill="#787878"/>
<path opacity="0.3604" d="M94.2769 40.7928C119.138 50.3104 131.576 78.1794 122.058 103.041C112.541 127.902 84.6717 140.34 59.8106 130.822C34.9495 121.304 22.5115 93.4354 32.0291 68.5743C41.5467 43.7131 69.4158 31.2751 94.2769 40.7928Z" fill="#757575"/>
<path opacity="0.3673" d="M94.0433 40.4005C118.891 49.9131 131.323 77.7673 121.812 102.615C112.299 127.463 84.4447 139.895 59.5968 130.384C34.7489 120.871 22.3175 93.0167 31.8302 68.1688C41.3412 43.3192 69.1954 30.8878 94.0433 40.4005Z" fill="#737373"/>
<path opacity="0.3743" d="M93.8066 40.0082C118.641 49.5159 131.068 77.3569 121.56 102.192C112.052 127.026 84.213 139.453 59.3767 129.945C34.542 120.437 22.1155 92.598 31.6232 67.7616C41.131 42.9253 68.9719 30.5005 93.8066 40.0082Z" fill="#717171"/>
<path opacity="0.3812" d="M93.5688 39.6237C118.39 49.1265 130.81 76.9526 121.307 101.774C111.805 126.597 83.9785 139.015 59.157 129.513C34.3355 120.01 21.9157 92.1838 31.4185 67.3623C40.9212 42.5392 68.7473 30.121 93.5688 39.6237Z" fill="#6E6E6E"/>
<path opacity="0.3881" d="M93.3307 39.2315C118.141 48.7293 130.552 76.5405 121.054 101.35C111.557 126.16 83.7453 138.572 58.9354 129.074C34.1272 119.576 21.7139 91.7651 31.2117 66.9552C40.7096 42.1452 68.5208 29.7337 93.3307 39.2315Z" fill="#6C6C6C"/>
<path opacity="0.395" d="M93.0948 38.8383C117.892 48.3312 130.298 76.1275 120.805 100.924C111.312 125.721 83.5161 138.126 58.7194 128.635C33.9227 119.142 21.5161 91.3455 31.0089 66.5488C40.5018 41.7521 68.2998 29.3471 93.0948 38.8383Z" fill="#696969"/>
<path opacity="0.402" d="M92.8551 38.4467C117.639 47.9346 130.039 75.7178 120.551 100.5C111.063 125.283 83.2813 137.683 58.4978 128.195C33.7143 118.707 21.3143 90.9242 30.8022 66.1423C40.2884 41.3588 68.0716 28.9588 92.8551 38.4467Z" fill="#676767"/>
<path opacity="0.4089" d="M92.6228 38.0545C117.393 47.5374 129.786 75.3057 120.304 100.076C110.821 124.846 83.0523 137.24 58.2821 127.757C33.5118 118.274 21.1184 90.5055 30.6013 65.7352C40.0843 40.9649 67.8525 28.5715 92.6228 38.0545Z" fill="#656565"/>
<path opacity="0.4158" d="M92.387 37.6622C117.144 47.1402 129.531 74.8936 120.053 99.6506C110.575 124.408 82.8214 136.794 58.0644 127.317C33.3073 117.839 20.9205 90.0851 30.3985 65.3281C39.8748 40.571 67.6283 28.1842 92.387 37.6622Z" fill="#626262"/>
<path opacity="0.4228" d="M92.1487 37.2699C116.894 46.7429 129.274 74.4815 119.801 99.227C110.328 123.972 82.5897 136.353 57.8442 126.88C33.1004 117.407 20.7185 89.668 30.1916 64.9225C39.6646 40.177 67.4048 27.7969 92.1487 37.2699Z" fill="#606060"/>
<path opacity="0.4297" d="M91.911 36.8698C116.643 46.3379 129.017 74.0632 119.549 98.7938C110.081 123.526 82.3571 135.9 57.6248 126.432C32.8925 116.964 20.5189 89.2382 29.987 64.5076C39.4551 39.7753 67.1787 27.4017 91.911 36.8698Z" fill="#5D5D5D"/>
<path opacity="0.4366" d="M91.6729 36.4854C116.392 45.9485 128.759 73.6589 119.296 98.378C109.833 123.097 82.1223 135.464 57.4032 126.001C32.6841 116.538 20.3172 88.8273 29.7803 64.1083C39.245 39.3892 66.9539 27.0222 91.6729 36.4854Z" fill="#5B5B5B"/>
<path opacity="0.4436" d="M91.4338 36.0931C116.14 45.5512 128.502 73.2468 119.042 97.9527C109.584 122.659 81.8881 135.019 57.1823 125.562C32.4764 116.104 20.1144 88.4086 29.5742 63.7028C39.0324 38.9953 66.728 26.6349 91.4338 36.0931Z" fill="#595959"/>
<path opacity="0.4505" d="M91.1988 35.6999C115.891 45.1531 128.247 72.8339 118.794 97.5282C109.34 122.221 81.6596 134.576 56.9653 125.123C32.2727 115.67 19.9173 87.989 29.3705 63.2948C38.8254 38.6021 66.5061 26.2484 91.1988 35.6999Z" fill="#565656"/>
<path opacity="0.4574" d="M90.9648 35.3161C115.644 44.7644 127.993 72.4319 118.545 97.1113C109.097 121.792 81.4307 134.14 56.7496 124.691C32.0702 115.243 19.7214 87.5755 29.1696 62.8961C38.6179 38.2167 66.2838 25.8679 90.9648 35.3161Z" fill="#545454"/>
<path opacity="0.4644" d="M90.7214 34.9161C115.389 44.3593 127.73 72.012 118.287 96.6782C108.843 121.346 81.1905 133.687 56.5243 124.243C31.8565 114.8 19.5159 87.1474 28.9592 62.4812C38.4025 37.815 66.0552 25.4728 90.7214 34.9161Z" fill="#515151"/>
<path opacity="0.4713" d="M90.4901 34.5316C115.145 43.9699 127.48 71.6077 118.042 96.2624C108.604 120.917 80.9659 133.253 56.3112 123.814C31.6566 114.376 19.321 86.7381 28.761 62.0835C38.1977 37.4288 65.8354 25.0932 90.4901 34.5316Z" fill="#4F4F4F"/>
<path opacity="0.4782" d="M90.2491 34.1315C114.891 43.5649 127.22 71.1878 117.786 95.8292C108.353 120.471 80.7299 132.8 56.0884 123.366C31.447 113.933 19.118 86.31 28.5514 61.6685C37.9848 37.0271 65.6077 24.6981 90.2491 34.1315Z" fill="#4D4D4D"/>
<path opacity="0.4851" d="M90.015 33.747C114.643 43.1755 126.966 70.7852 117.537 95.4134C108.109 120.042 80.5006 132.364 55.8708 122.936C31.2425 113.507 18.9202 85.8974 28.3486 61.2692C37.777 36.641 65.3867 24.3186 90.015 33.747Z" fill="#4A4A4A"/>
<path opacity="0.4921" d="M89.7752 33.347C114.39 42.7704 126.706 70.3653 117.282 94.9803C107.859 119.597 80.2642 131.911 55.6492 122.488C31.0342 113.064 18.7184 85.4693 28.1419 60.8543C37.5653 36.2392 65.1602 23.9235 89.7752 33.347Z" fill="#484848"/>
<path opacity="0.499" d="M89.541 32.9625C114.144 42.381 126.454 69.961 117.035 94.5644C107.617 119.168 80.0366 131.477 55.4331 122.059C30.8297 112.64 18.5205 85.06 27.939 60.4566C37.3576 35.8531 64.9375 23.544 89.541 32.9625Z" fill="#454545"/>
<path opacity="0.5059" d="M89.2993 32.5622C113.889 41.9758 126.192 69.5409 116.778 94.1311C107.365 118.721 79.7998 131.024 55.2096 121.61C30.6193 112.197 18.3168 84.6316 27.7304 60.0414C37.1439 35.4528 64.709 23.1486 89.2993 32.5622Z" fill="#434343"/>
<path opacity="0.5129" d="M89.069 32.1777C113.646 41.5863 125.942 69.1382 116.533 93.7153C107.125 118.292 79.5745 130.588 54.9958 121.18C30.4188 111.771 18.1228 84.2191 27.5315 59.6421C36.9401 35.0667 64.492 22.7691 89.069 32.1777Z" fill="#414141"/>
<path opacity="0.5198" d="M88.826 31.7854C113.39 41.1891 125.681 68.7261 116.275 93.2899C106.872 117.854 79.3348 130.145 54.771 120.741C30.2072 111.337 17.9162 83.8004 27.3215 59.2366C36.7251 34.6728 64.2622 22.3818 88.826 31.7854Z" fill="#3E3E3E"/>
<path opacity="0.5267" d="M88.5912 31.3934C113.142 40.7921 125.426 68.3142 116.027 92.8648C106.629 117.417 79.1066 129.7 54.556 120.301C30.0054 110.902 17.721 83.3802 27.1197 58.8296C36.5168 34.2774 64.0389 21.9947 88.5912 31.3934Z" fill="#3C3C3C"/>
<path opacity="0.5337" d="M88.3531 31.0011C112.892 40.3948 125.168 67.9021 115.774 92.4412C106.381 116.98 78.8734 129.256 54.3344 119.863C29.797 110.469 17.5193 82.9615 26.913 58.4225C36.3068 33.8835 63.8157 21.6074 88.3531 31.0011Z" fill="#3A3A3A"/>
<path opacity="0.5406" d="M88.1174 30.6088C112.643 39.9976 124.913 67.4917 115.524 92.0159C106.135 116.542 78.6427 128.811 54.1169 119.422C29.5911 110.034 17.3216 82.5395 26.7104 58.0154C36.0992 33.4896 63.5916 21.22 88.1174 30.6088Z" fill="#373737"/>
<path opacity="0.5475" d="M87.8783 30.2244C112.391 39.6082 124.656 67.0874 115.272 91.6C105.888 116.113 78.4086 128.377 53.896 118.993C29.3834 109.609 17.1189 82.1303 26.5043 57.6177C35.8882 33.1034 63.3658 20.8405 87.8783 30.2244Z" fill="#353535"/>
<path opacity="0.5545" d="M87.6413 29.8243C112.141 39.2032 124.399 66.6675 115.02 91.1669C105.641 115.666 78.1765 127.924 53.6771 118.545C29.1778 109.166 16.9198 81.7021 26.2987 57.2027C35.6776 32.7017 63.1419 20.4454 87.6413 29.8243Z" fill="#323232"/>
<path opacity="0.5614" d="M87.4032 29.4396C111.889 38.8135 124.141 66.263 114.767 90.7509C105.393 115.237 77.9434 127.488 53.4555 118.114C28.9694 108.741 16.718 81.291 26.092 56.8032C35.4675 32.317 62.917 20.0657 87.4032 29.4396Z" fill="#303030"/>
<path opacity="0.5683" d="M87.168 29.0395C111.643 38.4085 123.887 65.8448 114.517 90.3177C105.148 114.792 77.7132 127.035 53.2386 117.668C28.7656 108.299 16.5192 80.8628 25.8898 56.3899C35.2588 31.9153 62.6934 19.6706 87.168 29.0395Z" fill="#2E2E2E"/>
<path opacity="0.5752" d="M86.9334 28.6551C111.395 38.0191 123.633 65.4405 114.269 89.9019C104.905 114.363 77.4835 126.601 53.0238 117.237C28.5624 107.873 16.3243 80.452 25.6883 55.9906C35.0523 31.5292 62.4737 19.291 86.9334 28.6551Z" fill="#2B2B2B"/>
<path opacity="0.5822" d="M86.6953 28.2628C111.143 37.6218 123.375 65.0284 114.016 89.4766C104.657 113.925 77.2504 126.156 52.8022 116.797C28.354 107.438 16.1225 80.0316 25.4815 55.5834C34.8406 31.1353 62.2471 18.9037 86.6953 28.2628Z" fill="#292929"/>
<path opacity="0.5891" d="M86.4595 27.8627C110.894 37.2168 123.119 64.6085 113.765 89.0434C104.411 113.478 77.0195 125.703 52.5845 116.349C28.1495 106.995 15.9246 79.6034 25.2787 55.1685C34.6328 30.7335 62.0245 18.5086 86.4595 27.8627Z" fill="#262626"/>
<path opacity="0.596" d="M86.2201 27.4782C110.642 36.8274 122.862 64.2058 113.511 88.6276C104.162 113.049 76.785 125.269 52.3616 115.92C27.9399 106.571 15.7199 79.1925 25.0707 54.7708C34.4199 30.3474 61.7967 18.1291 86.2201 27.4782Z" fill="#242424"/>
<path opacity="0.603" d="M85.9833 27.086C110.392 36.4302 122.605 63.7937 113.261 88.2023C103.917 112.612 76.5532 124.824 52.1447 115.48C27.7362 106.136 15.5228 78.7722 24.867 54.3637C34.2112 29.9535 61.5748 17.7418 85.9833 27.086Z" fill="#222222"/>
<path opacity="0.6099" d="M85.7454 26.6944C110.142 36.0336 122.347 63.3823 113.008 87.7793C103.669 112.176 76.3203 124.381 51.9233 115.042C27.5264 105.703 15.3213 78.3542 24.6605 53.9572C33.9997 29.5602 61.3484 17.3535 85.7454 26.6944Z" fill="#1F1F1F"/>
<path opacity="0.6168" d="M85.5122 26.3012C109.896 35.6355 122.096 62.9694 112.76 87.3531C103.426 111.737 76.092 123.935 51.7083 114.601C27.3245 105.267 15.1244 77.9329 24.4603 53.5492C33.7946 29.1671 61.1284 16.9669 85.5122 26.3012Z" fill="#1D1D1D"/>
<path opacity="0.6238" d="M85.2685 25.9089C109.639 35.2383 121.833 62.5589 112.503 86.9294C103.174 111.3 75.855 123.494 51.4828 114.164C27.1122 104.835 14.9187 77.5142 24.2497 53.1437C33.5773 28.7731 60.898 16.5796 85.2685 25.9089Z" fill="#1A1A1A"/>
<path opacity="0.6307" d="M85.0373 25.5167C109.395 34.841 121.582 62.1468 112.257 86.5041C102.933 110.861 75.6271 123.048 51.2698 113.724C26.9124 104.4 14.7255 77.0939 24.0499 52.7365C33.3742 28.3792 60.68 16.1923 85.0373 25.5167Z" fill="#181818"/>
<path opacity="0.6376" d="M84.8015 25.1322C109.146 34.4516 121.326 61.7425 112.007 86.0883C102.687 110.434 75.3962 122.613 51.0521 113.293C26.708 103.974 14.5276 76.683 23.847 52.3372C33.1648 27.9931 60.4557 15.8128 84.8015 25.1322Z" fill="#161616"/>
<path opacity="0.6446" d="M84.5621 24.7399C108.895 34.0544 121.068 61.3304 111.752 85.663C102.438 109.996 75.1617 122.169 50.8292 112.855C26.4983 103.54 14.3229 76.2643 23.639 51.9317C32.9535 27.5992 60.2312 15.4255 84.5621 24.7399Z" fill="#131313"/>
<path opacity="0.6515" d="M84.3287 24.3398C108.648 33.6493 120.815 60.9122 111.506 85.2299C102.196 109.549 74.9349 121.716 50.6156 112.407C26.2963 103.097 14.1292 75.8345 23.4403 51.5168C32.7482 27.1974 60.0094 15.0303 84.3287 24.3398Z" fill="#111111"/>
<path opacity="0.6584" d="M84.0874 23.9554C108.394 33.2599 120.554 60.5079 111.25 84.814C101.945 109.12 74.697 121.281 50.3909 111.976C26.0848 102.672 13.9243 75.4236 23.2288 51.1174C32.535 26.8113 59.7813 14.6508 84.0874 23.9554Z" fill="#0E0E0E"/>
<path opacity="0.6653" d="M83.8536 23.556C108.146 32.8556 120.302 60.0887 111.001 84.3816C101.701 108.674 74.4681 120.828 50.1752 111.529C25.8822 102.229 13.7284 74.9961 23.0279 50.7032C32.3275 26.4103 59.5606 14.2547 83.8536 23.556Z" fill="#0C0C0C"/>
<path opacity="0.6723" d="M83.6161 23.1706C107.896 32.4653 120.045 59.6835 110.748 83.9648C101.454 108.246 74.2356 120.393 49.9542 111.099C25.6745 101.804 13.5256 74.586 22.8219 50.3046C32.1182 26.0249 59.3364 13.876 83.6161 23.1706Z" fill="#0A0A0A"/>
<path opacity="0.6792" d="M83.3794 22.7705C107.648 32.0602 119.788 59.2652 110.498 83.5317C101.209 107.8 74.0054 119.941 49.7373 110.651C25.4708 101.361 13.3285 74.1561 22.6182 49.8897C31.9079 25.6232 59.1112 13.4809 83.3794 22.7705Z" fill="#070707"/>
<path opacity="0.6861" d="M83.1415 22.3863C107.396 31.671 119.53 58.8612 110.246 83.1161C100.961 107.371 73.7708 119.505 49.5159 110.22C25.261 100.936 13.1269 73.7454 22.4117 49.4905C31.698 25.2356 58.8866 13.1016 83.1415 22.3863Z" fill="#050505"/>
<path opacity="0.6931" d="M82.9004 21.9862C107.142 31.266 119.271 58.4413 109.99 82.683C100.71 106.925 73.5348 119.054 49.2931 109.772C25.0514 100.493 12.9222 73.3173 22.2037 49.0756C31.4834 24.8339 58.6587 12.7064 82.9004 21.9862Z" fill="#020202"/>
<path opacity="0.7" d="M82.6646 21.6017C106.893 30.8765 119.016 58.037 109.739 82.2671C100.464 106.496 73.3038 118.618 49.0754 109.343C24.8469 100.068 12.7244 72.908 22.0008 48.6779C31.2757 24.4478 58.4361 12.3269 82.6646 21.6017Z" fill="black"/>
</g>
</svg>
