<svg width="146" height="158" viewBox="0 0 146 158" fill="none" xmlns="http://www.w3.org/2000/svg">
<path d="M121.896 27.5915C110.064 10.6937 91.6434 1.14965 72.5371 0V4.80836C90.6986 5.99269 107.468 15.3435 117.97 30.3418C137.003 57.5253 130.373 95.1234 103.191 114.157C94.0666 120.546 83.5364 124.208 72.5371 124.902V129.719C84.1459 129.038 95.7167 125.244 105.94 118.085C135.335 97.502 142.479 56.9868 121.896 27.5915Z" fill="#A3CE37"/>
<path d="M8.46382 89.2761L0 112.941L25.1205 113.082C36.2436 123.144 50.3235 128.846 64.8048 129.719V0C53.196 0.680538 41.6252 4.4747 31.4006 11.6336C6.10008 29.349 -2.69569 61.8266 8.46382 89.2761Z" fill="#A3CE37"/>
<g opacity="0.8">
<path opacity="0.01" d="M109.386 60.1271C134.904 69.8958 147.673 98.5032 137.902 124.022C128.133 149.54 99.5261 162.309 74.0076 152.538C48.489 142.77 35.7207 114.162 45.491 88.6436C55.2597 63.1251 83.8655 50.3584 109.386 60.1271Z" fill="#F0F0F0"/>
<path opacity="0.0139" d="M109.147 59.7348C134.652 69.4985 147.414 98.091 137.65 123.598C127.886 149.103 99.2937 161.865 73.7867 152.101C48.2814 142.338 35.5197 113.745 45.2834 88.2381C55.0488 62.7311 83.6413 49.971 109.147 59.7348Z" fill="#EDEDED"/>
<path opacity="0.0208" d="M108.915 59.3425C134.407 69.1013 147.162 97.6806 137.403 123.173C127.644 148.666 99.0667 161.42 73.573 151.661C48.0809 141.902 35.3257 113.325 45.0845 87.831C54.8433 62.3372 83.4209 49.5837 108.915 59.3425Z" fill="#EBEBEB"/>
<path opacity="0.0277" d="M108.672 58.9509C134.152 68.7047 146.901 97.2692 137.145 122.748C127.391 148.229 98.8269 160.977 73.3464 151.222C47.8658 141.468 35.1173 112.903 44.8728 87.4245C54.6283 61.944 83.1911 49.1954 108.672 58.9509Z" fill="#E8E8E8"/>
<path opacity="0.0347" d="M108.44 58.5664C133.907 68.3153 146.649 96.8649 136.898 122.332C127.15 147.8 98.5999 160.541 73.1326 150.793C47.6653 141.044 34.9233 112.494 44.6739 87.0268C54.4227 61.5578 82.9723 48.8159 108.44 58.5664Z" fill="#E6E6E6"/>
<path opacity="0.0416" d="M108.201 58.1663C133.655 67.9103 146.39 96.445 136.646 121.899C126.902 147.353 98.3675 160.089 72.9118 150.345C47.4577 140.601 34.7223 112.066 44.4662 86.6118C54.2118 61.1561 82.7465 48.4208 108.201 58.1663Z" fill="#E4E4E4"/>
<path opacity="0.0485" d="M107.963 57.7819C133.404 67.5208 146.132 96.0423 136.394 121.483C126.655 146.924 98.1347 159.655 72.6921 149.914C47.2512 140.175 34.5225 111.655 44.2615 86.2125C54.0004 60.77 82.5203 48.0413 107.963 57.7819Z" fill="#E1E1E1"/>
<path opacity="0.0554" d="M107.724 57.3887C133.151 67.1228 145.875 95.6294 136.14 121.057C126.406 146.486 97.8989 159.209 72.4712 149.473C47.0435 139.739 34.3198 111.232 44.0554 85.8045C53.7894 60.3768 82.2961 47.6547 107.724 57.3887Z" fill="#DFDFDF"/>
<path opacity="0.0624" d="M107.489 56.9965C132.905 66.7255 145.621 95.2173 135.891 120.633C126.161 146.05 97.6706 158.765 72.2545 149.036C46.8384 139.307 34.1229 110.815 43.8519 85.399C53.581 59.9829 82.0727 47.2674 107.489 56.9965Z" fill="#DCDCDC"/>
<path opacity="0.0693" d="M107.249 56.6042C132.652 66.3283 145.361 94.8052 135.637 120.208C125.913 145.611 97.4358 158.32 72.0329 148.596C46.63 138.872 33.9211 110.395 43.6452 84.9919C53.3693 59.589 81.8462 46.8801 107.249 56.6042Z" fill="#DADADA"/>
<path opacity="0.0762" d="M107.018 56.2119C132.407 65.9327 145.111 94.3947 135.39 119.784C125.671 145.174 97.2092 157.878 71.8178 148.157C46.4281 138.438 33.7242 109.974 43.445 84.5848C53.1658 59.1951 81.6278 46.4928 107.018 56.2119Z" fill="#D8D8D8"/>
<path opacity="0.0832" d="M106.774 55.8203C132.15 65.5362 144.848 93.9833 135.132 119.36C125.416 144.736 96.9688 157.434 71.5923 147.718C46.2159 138.004 33.5185 109.555 43.2344 84.1783C52.9502 58.8018 81.3974 46.1045 106.774 55.8203Z" fill="#D5D5D5"/>
<path opacity="0.0901" d="M106.543 55.428C131.906 65.1389 144.597 93.5712 134.887 118.934C125.177 144.299 96.7443 156.988 71.3793 147.279C46.0161 137.57 33.3253 109.136 43.0346 83.7728C52.7455 58.4079 81.1778 45.7171 106.543 55.428Z" fill="#D3D3D3"/>
<path opacity="0.097" d="M106.299 55.0358C131.651 64.7417 144.333 93.1591 134.629 118.511C124.923 143.863 96.5057 156.547 71.154 146.841C45.8023 137.136 33.1199 108.717 42.8241 83.3656C52.5301 58.0139 80.9491 45.3298 106.299 55.0358Z" fill="#D0D0D0"/>
<path opacity="0.104" d="M106.068 54.6435C131.406 64.3445 144.084 92.7487 134.383 118.086C124.682 143.424 96.2791 156.102 70.939 146.401C45.6005 136.701 32.923 108.295 42.624 82.9585C52.3249 57.62 80.7291 44.9425 106.068 54.6435Z" fill="#CECECE"/>
<path opacity="0.1109" d="M105.828 54.2503C131.153 63.9463 143.824 92.3357 134.128 117.661C124.432 142.986 96.0427 155.657 70.7174 145.963C45.3921 136.268 32.7212 107.877 42.4172 82.5521C52.1133 57.2268 80.5026 44.556 105.828 54.2503Z" fill="#CCCCCC"/>
<path opacity="0.1178" d="M97.2411 147.936C123.868 142.867 141.345 117.173 136.276 90.5456C131.208 63.9185 105.514 46.4417 78.8865 51.5102C52.2594 56.5787 34.7826 82.273 39.8511 108.9C44.9196 135.527 70.6139 153.004 97.2411 147.936Z" fill="#C9C9C9"/>
<path opacity="0.1248" d="M96.3005 147.615C122.982 142.926 140.81 117.495 136.121 90.8136C131.431 64.1323 106 46.3042 79.3188 50.9935C52.6374 55.6829 34.8093 81.1139 39.4986 107.795C44.188 134.477 69.6191 152.305 96.3005 147.615Z" fill="#C7C7C7"/>
<path opacity="0.1317" d="M95.3915 147.245C122.124 142.943 140.306 117.783 136.004 91.0506C131.701 64.3177 106.543 46.1341 79.8108 50.4365C53.0788 54.7388 34.8961 79.8979 39.1986 106.631C43.5011 133.364 68.6595 151.547 95.3915 147.245Z" fill="#C4C4C4"/>
<path opacity="0.1386" d="M94.3989 146.929C121.177 143.027 139.721 118.156 135.819 91.3776C131.917 64.5996 107.045 46.0552 80.2672 49.9576C53.4891 53.8599 34.9447 78.7313 38.8471 105.509C42.7495 132.287 67.6209 150.832 94.3989 146.929Z" fill="#C2C2C2"/>
<path opacity="0.1455" d="M93.4539 146.59C120.275 143.095 139.185 118.519 135.69 91.698C132.196 64.8767 107.62 45.9667 80.7986 49.4614C53.9773 52.9561 35.0674 77.532 38.562 104.353C42.0567 131.175 66.6326 150.085 93.4539 146.59Z" fill="#C0C0C0"/>
<path opacity="0.1525" d="M92.4946 146.229C119.354 143.15 138.631 118.88 135.552 92.0208C132.473 65.1617 108.203 45.8843 81.3436 48.9636C54.4845 52.0428 35.2072 76.3127 38.2864 103.172C41.3657 130.031 65.6356 149.308 92.4946 146.229Z" fill="#BDBDBD"/>
<path opacity="0.1594" d="M91.5034 145.906C118.395 143.253 138.044 119.302 135.39 92.4103C132.737 65.5188 108.786 45.8701 81.8944 48.5236C55.0029 51.1771 35.3542 75.1279 38.0077 102.019C40.6611 128.911 64.612 148.56 91.5034 145.906Z" fill="#BBBBBB"/>
<path opacity="0.1663" d="M90.4463 145.544C117.362 143.324 137.382 119.705 135.162 92.7894C132.942 65.8738 109.323 45.854 82.4069 48.0741C55.4913 50.2941 35.4715 73.9132 37.6916 100.829C39.9116 127.744 63.5307 147.764 90.4463 145.544Z" fill="#B8B8B8"/>
<path opacity="0.1733" d="M89.4277 145.164C116.362 143.382 136.752 120.103 134.971 93.1689C133.189 66.2345 109.91 45.8441 82.976 47.6257C56.0417 49.4073 35.6513 72.6862 37.4329 99.6206C39.2145 126.555 62.4934 146.945 89.4277 145.164Z" fill="#B6B6B6"/>
<path opacity="0.1802" d="M88.4325 144.757C115.379 143.419 136.139 120.489 134.801 93.5409C133.463 66.5932 110.533 45.8326 83.5864 47.1708C56.6396 48.509 35.8798 71.4392 37.218 98.3869C38.5562 125.335 61.4857 146.095 88.4325 144.757Z" fill="#B4B4B4"/>
<path opacity="0.1871" d="M87.412 144.342C114.364 143.452 135.492 120.882 134.602 93.93C133.712 66.978 111.142 45.8505 84.1896 46.7403C57.2376 47.6302 36.11 70.2005 36.9999 97.1525C37.8898 124.104 60.46 145.232 87.412 144.342Z" fill="#B1B1B1"/>
<path opacity="0.1941" d="M86.3456 143.926C113.295 143.489 134.787 121.289 134.351 94.3395C133.914 67.3904 111.714 45.8978 84.7644 46.3344C57.8153 46.7711 36.3227 68.9716 36.7593 95.9207C37.1959 122.87 59.3965 144.362 86.3456 143.926Z" fill="#AFAFAF"/>
<path opacity="0.201" d="M85.307 143.489C112.245 143.489 134.083 121.651 134.083 94.7133C134.083 67.7752 112.245 45.9375 85.307 45.9375C58.3689 45.9375 36.5312 67.7752 36.5312 94.7133C36.5312 121.651 58.3689 143.489 85.307 143.489Z" fill="#ADADAD"/>
<path opacity="0.2079" d="M133.83 95.1955C134.306 68.2764 112.87 46.0679 85.9514 45.5913C59.0323 45.1147 36.8238 66.5506 36.3473 93.4697C35.8707 120.389 57.3066 142.597 84.2256 143.074C111.145 143.55 133.353 122.115 133.83 95.1955Z" fill="#AAAAAA"/>
<path opacity="0.2149" d="M133.527 95.5577C134.458 68.6631 113.411 46.1059 86.5161 45.1748C59.6215 44.2437 37.0643 65.2912 36.1332 92.1858C35.2021 119.08 56.2497 141.638 83.1443 142.569C110.039 143.5 132.596 122.452 133.527 95.5577Z" fill="#A8A8A8"/>
<path opacity="0.2218" d="M133.266 95.9582C134.654 69.0961 114.003 46.195 87.1407 44.8071C60.2786 43.4192 37.3774 64.0701 35.9896 90.9322C34.6017 117.794 55.2526 140.695 82.1147 142.083C108.977 143.471 131.878 122.82 133.266 95.9582Z" fill="#A5A5A5"/>
<path opacity="0.2287" d="M132.966 96.3538C134.808 69.5322 114.558 46.2963 87.7376 44.4548C60.917 42.6134 37.6817 62.8638 35.8402 89.6853C33.9987 116.507 54.2483 139.743 81.0689 141.584C107.89 143.426 131.125 123.175 132.966 96.3538Z" fill="#A3A3A3"/>
<path opacity="0.2356" d="M132.651 96.7621C134.943 69.9901 115.098 46.4291 88.3256 44.1372C61.5536 41.8453 37.9926 61.6903 35.7006 88.4624C33.4087 115.234 53.2538 138.795 80.0259 141.087C106.798 143.379 130.359 123.534 132.651 96.7621Z" fill="#A1A1A1"/>
<path opacity="0.2426" d="M132.338 97.1876C135.077 70.4722 115.64 46.5944 88.925 43.8552C62.2096 41.116 38.3318 60.5526 35.5926 87.268C32.8534 113.983 52.29 137.861 79.0054 140.6C105.721 143.34 129.599 123.903 132.338 97.1876Z" fill="#9E9E9E"/>
<path opacity="0.2495" d="M131.973 97.5372C135.151 70.8837 116.12 46.7004 89.4664 43.5224C62.8129 40.3444 38.6296 59.3751 35.4516 86.0286C32.2736 112.682 51.3042 136.865 77.9577 140.043C104.611 143.221 128.795 124.191 131.973 97.5372Z" fill="#9C9C9C"/>
<path opacity="0.2564" d="M131.643 97.9447C135.257 71.3611 116.636 46.8813 90.0523 43.2676C63.4687 39.6539 38.9889 58.2747 35.3752 84.8583C31.7615 111.442 50.3823 135.922 76.9659 139.535C103.549 143.149 128.029 124.528 131.643 97.9447Z" fill="#999999"/>
<path opacity="0.2634" d="M131.237 98.2666C135.275 71.7582 117.059 46.9954 90.5509 42.9572C64.0426 38.919 39.2797 57.1346 35.2415 83.643C31.2033 110.151 49.419 134.914 75.9273 138.952C102.436 142.991 127.199 124.775 131.237 98.2666Z" fill="#979797"/>
<path opacity="0.2703" d="M130.869 98.6084C135.326 72.1805 117.515 47.1435 91.0874 42.6866C64.6596 38.2297 39.6225 56.0406 35.1656 82.4685C30.7087 108.896 48.5197 133.933 74.9476 138.39C101.375 142.847 126.412 125.036 130.869 98.6084Z" fill="#959595"/>
<path opacity="0.2772" d="M130.505 98.9379C135.372 72.5967 117.964 47.2976 91.6224 42.4306C65.2813 37.5636 39.9821 54.9719 35.1152 81.313C30.2482 107.654 47.6564 132.953 73.9976 137.82C100.339 142.687 125.638 125.279 130.505 98.9379Z" fill="#929292"/>
<path opacity="0.2842" d="M130.091 99.2277C135.357 72.9777 118.346 47.4289 92.0961 42.1628C65.8461 36.8967 40.2972 53.9076 35.0312 80.1576C29.7651 106.408 46.7759 131.956 73.026 137.223C99.276 142.489 124.825 125.478 130.091 99.2277Z" fill="#909090"/>
<path opacity="0.2911" d="M129.69 99.5513C135.346 73.3976 118.73 47.6102 92.5765 41.9535C66.4229 36.2968 40.6355 52.9128 34.9787 79.0665C29.322 105.22 45.9381 131.008 72.0917 136.664C98.2454 142.321 124.033 125.705 129.69 99.5513Z" fill="#8D8D8D"/>
<path opacity="0.298" d="M129.278 99.8159C135.314 73.7612 119.086 47.7463 93.0316 41.71C66.9769 35.6738 40.962 51.9019 34.9258 77.9566C28.8895 104.011 45.1176 130.026 71.1723 136.062C97.227 142.099 123.242 125.871 129.278 99.8159Z" fill="#8B8B8B"/>
<path opacity="0.305" d="M128.92 100.086C135.328 74.1328 119.483 47.8994 93.5297 41.492C67.5765 35.0845 41.3431 50.9295 34.9357 76.8826C28.5282 102.836 44.3732 129.069 70.3263 135.477C96.2795 141.884 122.513 126.039 128.92 100.086Z" fill="#898989"/>
<path opacity="0.3119" d="M128.466 100.339C135.231 74.4929 119.762 48.0563 93.9158 41.2915C68.0694 34.5266 41.6328 49.9952 34.868 75.8416C28.1031 101.688 43.5718 128.125 69.4181 134.889C95.2645 141.654 121.701 126.186 128.466 100.339Z" fill="#868686"/>
<path opacity="0.3188" d="M128.043 100.529C135.154 74.7892 120.052 48.1584 94.3128 41.0472C68.5731 33.936 41.9422 49.0374 34.831 74.777C27.7198 100.517 42.8212 127.148 68.5609 134.259C94.3005 141.37 120.931 126.269 128.043 100.529Z" fill="#848484"/>
<path opacity="0.3257" d="M127.612 100.715C135.058 75.0856 120.318 48.2725 94.688 40.8262C69.0585 33.38 42.2453 48.1204 34.799 73.7499C27.3528 99.3794 42.0933 126.193 67.7228 133.639C93.3523 141.085 120.165 126.345 127.612 100.715Z" fill="#818181"/>
<path opacity="0.3327" d="M127.167 100.912C134.937 75.3947 120.551 48.4092 95.0329 40.6387C69.5152 32.8682 42.5298 47.255 34.7593 72.7727C26.9887 98.2904 41.3756 125.276 66.8933 133.046C92.411 140.817 119.396 126.43 127.167 100.912Z" fill="#7F7F7F"/>
<path opacity="0.3396" d="M126.738 101.062C134.822 75.6557 120.779 48.5069 95.3733 40.4231C69.9674 32.3393 42.8186 46.3816 34.7347 71.7875C26.6509 97.1935 40.6933 124.342 66.0992 132.426C91.5051 140.51 118.654 126.468 126.738 101.062Z" fill="#7D7D7D"/>
<path opacity="0.3465" d="M126.32 101.171C134.706 75.8768 121 48.5734 95.7054 40.1873C70.4111 31.8011 43.1077 45.5079 34.7215 70.8022C26.3354 96.0965 40.0422 123.4 65.3365 131.786C90.6308 140.172 117.934 126.465 126.32 101.171Z" fill="#7A7A7A"/>
<path opacity="0.3535" d="M125.866 101.308C134.543 76.1277 121.165 48.6807 95.9852 40.0033C70.8051 31.3258 43.3582 44.7038 34.6807 69.8839C26.0032 95.064 39.3813 122.511 64.5613 131.189C89.7414 139.866 117.188 126.488 125.866 101.308Z" fill="#787878"/>
<path opacity="0.3604" d="M125.445 101.369C134.402 76.3001 121.342 48.7161 96.2734 39.7583C71.2048 30.8004 43.6208 43.8608 34.663 68.9295C25.7051 93.9981 38.7655 121.582 63.8342 130.54C88.9029 139.498 116.487 126.437 125.445 101.369Z" fill="#757575"/>
<path opacity="0.3673" d="M125.036 101.49C134.266 76.5355 121.519 48.8234 96.5641 39.5934C71.6095 30.3635 43.8973 43.1109 34.6674 68.0656C25.4374 93.0203 38.1848 120.732 63.1395 129.962C88.0942 139.192 115.806 126.445 125.036 101.49Z" fill="#737373"/>
<path opacity="0.3743" d="M124.588 101.495C134.076 76.6528 121.629 48.8222 96.7865 39.3341C71.9439 29.8459 44.1133 42.2931 34.6251 67.1357C25.137 91.9783 37.5842 119.809 62.4268 129.297C87.2694 138.785 115.1 126.338 124.588 101.495Z" fill="#717171"/>
<path opacity="0.3812" d="M124.168 101.525C133.907 76.7933 121.752 48.8499 97.0209 39.1115C72.2894 29.373 44.346 41.5273 34.6076 66.2588C24.8692 90.9902 37.0234 118.934 61.7549 128.672C86.4863 138.41 114.43 126.256 124.168 101.525Z" fill="#6E6E6E"/>
<path opacity="0.3881" d="M123.765 101.563C133.745 76.9428 121.877 48.8932 97.2569 38.9128C72.6365 28.9323 44.5869 40.8003 34.6064 65.4208C24.6259 90.0412 36.494 118.091 61.1144 128.071C85.7349 138.052 113.784 126.184 123.765 101.563Z" fill="#6C6C6C"/>
<path opacity="0.395" d="M96.1085 38.1984C120.905 47.6912 133.312 75.4876 123.819 100.284C114.326 125.081 86.5298 137.488 61.7331 127.995C36.9363 118.502 24.5297 90.7055 34.0226 65.9088C43.5138 41.1121 71.3118 28.7055 96.1085 38.1984Z" fill="#696969"/>
<path opacity="0.402" d="M95.8746 37.8061C120.658 47.294 133.058 75.0771 123.57 99.859C114.082 124.642 86.3008 137.042 61.5173 127.555C36.7338 118.067 24.3338 90.2852 33.8217 65.5017C43.3096 40.7182 71.0911 28.3182 95.8746 37.8061Z" fill="#676767"/>
<path opacity="0.4089" d="M95.6365 37.4138C120.407 46.8968 132.8 74.665 123.317 99.4353C113.834 124.206 86.066 136.599 61.2957 127.116C36.5254 117.633 24.1321 89.8648 33.615 65.0946C43.0979 40.3243 70.8646 27.9309 95.6365 37.4138Z" fill="#656565"/>
<path opacity="0.4158" d="M95.4007 37.0216C120.158 46.4995 132.545 74.253 123.067 99.01C113.589 123.769 85.8351 136.154 61.0781 126.676C36.321 117.198 23.9342 89.4445 33.4122 64.6874C42.8902 39.9304 70.6436 27.5436 95.4007 37.0216Z" fill="#626262"/>
<path opacity="0.4228" d="M95.1623 36.6293C119.908 46.1023 132.288 73.8408 122.815 98.5863C113.342 123.332 85.6034 135.712 60.8579 126.239C36.114 116.766 23.7322 89.0274 33.2052 64.2819C42.6783 39.5364 70.4168 27.1562 95.1623 36.6293Z" fill="#606060"/>
<path opacity="0.4297" d="M94.9247 36.237C119.657 45.7051 132.031 73.4304 122.563 98.1611C113.094 122.893 85.3707 135.267 60.6384 125.799C35.9062 116.331 23.5326 88.6071 33.0007 63.8748C42.4687 39.1425 70.1924 26.7689 94.9247 36.237Z" fill="#5D5D5D"/>
<path opacity="0.4366" d="M94.6866 35.8447C119.406 45.3078 131.773 73.0183 122.31 97.7374C112.846 122.456 85.1359 134.823 60.4169 125.36C35.6978 115.897 23.3308 88.1867 32.7939 63.4677C42.2571 38.7486 69.9675 26.3816 94.6866 35.8447Z" fill="#5B5B5B"/>
<path opacity="0.4436" d="M94.4547 35.4522C119.161 44.9104 131.521 72.606 122.063 97.3119C112.605 122.018 84.909 134.378 60.2031 124.922C35.4973 115.463 23.1369 87.7678 32.595 63.0619C42.0532 38.3561 69.7488 25.9941 94.4547 35.4522Z" fill="#595959"/>
<path opacity="0.4505" d="M94.2124 35.06C118.905 44.5132 131.26 72.1939 121.807 96.8882C112.354 121.581 84.6733 133.936 59.979 124.483C35.2864 115.03 22.931 87.3491 32.3842 62.6548C41.8374 37.9622 69.5181 25.6068 94.2124 35.06Z" fill="#565656"/>
<path opacity="0.4574" d="M93.9785 34.6755C118.658 44.1238 131.007 71.7913 121.559 96.4707C112.11 121.152 84.4444 133.499 59.7633 124.051C35.0839 114.602 22.7351 86.9365 32.1833 62.2555C41.6316 37.576 69.2991 25.2273 93.9785 34.6755Z" fill="#545454"/>
<path opacity="0.4644" d="M93.7429 34.2754C118.411 43.7187 130.751 71.3714 121.308 96.0376C111.865 120.705 84.212 133.046 59.5458 123.603C34.8779 114.159 22.5374 86.5068 31.9807 61.8405C41.4224 37.1743 69.075 24.8321 93.7429 34.2754Z" fill="#515151"/>
<path opacity="0.4713" d="M93.5038 33.891C118.158 43.3293 130.494 70.9671 121.056 95.6217C111.617 120.276 83.9796 132.612 59.3249 123.174C34.6703 113.735 22.3347 86.0975 31.7747 61.4428C41.2113 36.7882 68.8491 24.4526 93.5038 33.891Z" fill="#4F4F4F"/>
<path opacity="0.4782" d="M93.2706 33.4909C117.912 42.9243 130.241 70.5472 120.808 95.1886C111.374 119.83 83.7514 132.159 59.1099 122.726C34.4685 113.292 22.1395 85.6693 31.5729 61.0279C41.0046 36.3864 68.6275 24.0575 93.2706 33.4909Z" fill="#4D4D4D"/>
<path opacity="0.4851" d="M93.0286 33.1066C117.657 42.535 129.979 70.1447 120.551 94.773C111.122 119.401 83.5143 131.724 58.8845 122.295C34.2562 112.867 21.9338 85.257 31.3623 60.6288C40.7907 35.9989 68.4004 23.6782 93.0286 33.1066Z" fill="#4A4A4A"/>
<path opacity="0.4921" d="M92.7967 32.7143C117.412 42.1378 129.727 69.7326 120.304 94.3476C110.881 118.964 83.2856 131.278 58.6706 121.855C34.0556 112.431 21.7399 84.8366 31.1634 60.2216C40.5852 35.605 68.18 23.2909 92.7967 32.7143Z" fill="#484848"/>
<path opacity="0.499" d="M92.5566 32.3219C117.16 41.7404 129.469 69.3204 120.051 93.9238C110.632 118.527 83.0522 130.836 58.4487 121.418C33.8453 111.999 21.5361 84.4194 30.9547 59.8159C40.3732 35.2125 67.9531 22.9033 92.5566 32.3219Z" fill="#454545"/>
<path opacity="0.5059" d="M92.3208 31.9218C116.911 41.3353 129.214 68.9004 119.8 93.4907C110.386 118.081 82.8213 130.383 58.2311 120.97C33.6409 111.556 21.3383 83.9912 30.7518 59.401C40.1638 34.8108 67.7305 22.5082 92.3208 31.9218Z" fill="#434343"/>
<path opacity="0.5129" d="M92.081 31.5373C116.658 40.9459 128.954 68.4978 119.545 93.0748C110.137 117.652 82.5865 129.948 58.0095 120.539C33.4324 111.131 21.1365 83.5787 30.5451 59.0017C39.9537 34.4246 67.504 22.1287 92.081 31.5373Z" fill="#414141"/>
<path opacity="0.5198" d="M91.8455 31.145C116.409 40.5487 128.7 68.0857 119.295 92.6495C109.891 117.213 82.3543 129.504 57.7905 120.101C33.2267 110.697 20.9357 83.16 30.341 58.5962C39.7447 34.0307 67.28 21.7414 91.8455 31.145Z" fill="#3E3E3E"/>
<path opacity="0.5267" d="M91.6049 30.7528C116.155 40.1514 128.44 67.6736 119.041 92.2242C109.642 116.776 82.1203 129.059 57.5697 119.66C33.0191 110.262 20.7347 82.7396 30.1334 58.189C39.5321 33.6368 67.0543 21.3541 91.6049 30.7528Z" fill="#3C3C3C"/>
<path opacity="0.5337" d="M91.3707 30.3605C115.91 39.7542 128.186 67.2615 118.792 91.8005C109.398 116.34 81.891 128.616 57.352 119.222C32.8146 109.828 20.5368 82.3209 29.9306 57.7819C39.3243 33.2429 66.8317 20.9667 91.3707 30.3605Z" fill="#3A3A3A"/>
<path opacity="0.5406" d="M91.1311 29.9682C115.657 39.357 127.926 66.8511 118.538 91.3752C109.149 115.901 81.6564 128.171 57.1306 118.782C32.6048 109.393 20.3353 81.8989 29.7241 57.3747C39.1129 32.8489 66.6053 20.5794 91.1311 29.9682Z" fill="#373737"/>
<path opacity="0.5475" d="M90.8978 29.5835C115.41 38.9674 127.675 66.4466 118.291 90.9592C108.907 115.472 81.4281 127.736 56.9155 118.352C32.4029 108.969 20.1384 81.4895 29.5239 56.9769C38.9061 32.4643 66.3852 20.1997 90.8978 29.5835Z" fill="#353535"/>
<path opacity="0.5545" d="M90.655 29.1835C115.154 38.5623 127.412 66.0267 118.033 90.5261C108.655 115.025 81.1902 127.283 56.6908 117.905C32.1914 108.526 19.9335 81.0613 29.3124 56.5619C38.6912 32.0625 66.1556 19.8046 90.655 29.1835Z" fill="#323232"/>
<path opacity="0.5614" d="M90.4246 28.799C114.911 38.1729 127.162 65.6224 117.788 90.1102C108.414 114.596 80.9648 126.848 56.477 117.474C31.9908 108.1 19.7395 80.6504 29.1135 56.1626C38.489 31.6764 65.9385 19.4251 90.4246 28.799Z" fill="#303030"/>
<path opacity="0.5683" d="M90.1836 28.3989C114.658 37.7679 126.903 65.2042 117.532 89.6771C108.163 114.152 80.7288 126.395 56.2542 117.026C31.7812 107.657 19.5348 80.2206 28.9054 55.7477C38.2744 31.2747 65.7107 19.0299 90.1836 28.3989Z" fill="#2E2E2E"/>
<path opacity="0.5752" d="M89.9471 28.0144C114.408 37.3784 126.647 64.7999 117.283 89.2613C107.919 113.723 80.4972 125.961 56.0374 116.597C31.576 107.233 19.3379 79.8113 28.7019 55.3499C38.066 30.8885 65.4874 18.6504 89.9471 28.0144Z" fill="#2B2B2B"/>
<path opacity="0.5822" d="M89.709 27.6222C114.157 36.9812 126.389 64.3878 117.03 88.8359C107.671 113.284 80.264 125.516 55.8158 116.157C31.3676 106.798 19.1362 79.391 28.4952 54.9428C37.8543 30.4946 65.2608 18.2631 89.709 27.6222Z" fill="#292929"/>
<path opacity="0.5891" d="M89.4731 27.2221C113.908 36.5762 126.133 63.9679 116.779 88.4028C107.425 112.838 80.0331 125.063 55.5982 115.709C31.1632 106.355 18.9383 78.9628 28.2924 54.5279C37.6465 30.0929 65.0382 17.868 89.4731 27.2221Z" fill="#262626"/>
<path opacity="0.596" d="M89.2338 26.8376C113.656 36.1868 125.875 63.5652 116.525 87.987C107.175 112.409 79.7987 124.629 55.3753 115.28C30.9536 105.93 18.7336 78.5519 28.0844 54.1302C37.4335 29.7068 64.812 17.4885 89.2338 26.8376Z" fill="#242424"/>
<path opacity="0.603" d="M89.0009 26.4451C113.411 35.7893 125.623 63.1529 116.279 87.5615C106.934 111.972 79.5708 124.183 55.1623 114.839C30.7538 105.495 18.5404 78.1314 27.8846 53.7228C37.2288 29.3143 64.5924 17.1009 89.0009 26.4451Z" fill="#222222"/>
<path opacity="0.6099" d="M88.7591 26.0529C113.156 35.3921 125.361 62.7408 116.022 87.1378C106.683 111.535 79.334 123.74 54.937 114.401C30.54 105.061 18.3349 77.7127 27.6742 53.3157C37.0134 28.9204 64.3621 16.7136 88.7591 26.0529Z" fill="#1F1F1F"/>
<path opacity="0.6168" d="M88.5259 25.6606C112.91 34.9949 125.11 62.3288 115.774 86.7125C106.44 111.096 79.1057 123.295 54.7219 113.96C30.3382 104.626 18.138 77.2923 27.474 52.9086C36.8099 28.5265 64.1438 16.3263 88.5259 25.6606Z" fill="#1D1D1D"/>
<path opacity="0.6238" d="M88.29 25.2683C112.661 34.5976 124.854 61.9183 115.525 86.2888C106.195 110.659 78.8764 122.853 54.5043 113.524C30.1337 104.194 17.9402 76.8736 27.2712 52.5031C36.6005 28.1325 63.9195 15.939 88.29 25.2683Z" fill="#1A1A1A"/>
<path opacity="0.6307" d="M88.051 24.8838C112.408 34.2082 124.595 61.514 115.271 85.8713C105.947 110.229 78.6408 122.416 54.2834 113.091C29.9261 103.767 17.7392 76.4611 27.0635 52.1037C36.3896 27.7464 63.6937 15.5595 88.051 24.8838Z" fill="#181818"/>
<path opacity="0.6376" d="M87.8171 24.4916C112.161 33.811 124.342 61.1019 115.022 85.4477C105.703 109.793 78.4118 121.972 54.0677 112.653C29.7235 103.333 17.5433 76.0424 26.8627 51.6966C36.1821 27.3525 63.473 15.1722 87.8171 24.4916Z" fill="#161616"/>
<path opacity="0.6446" d="M87.5758 24.0993C111.908 33.4138 124.082 60.6898 114.766 85.0224C105.451 109.355 78.1754 121.529 53.8429 112.213C29.512 102.898 17.3366 75.622 26.6527 51.2895C35.9688 26.9586 63.2449 14.7849 87.5758 24.0993Z" fill="#131313"/>
<path opacity="0.6515" d="M87.3431 23.7001C111.662 33.0096 123.83 60.2724 114.52 84.5901C105.211 108.909 77.9494 121.077 53.6301 111.767C29.3107 102.458 17.1436 75.1947 26.4531 50.877C35.7626 26.556 63.0238 14.3889 87.3431 23.7001Z" fill="#111111"/>
<path opacity="0.6584" d="M87.1011 23.3148C111.407 32.6193 123.568 59.8673 114.263 84.1734C104.959 108.48 77.7107 120.64 53.4046 111.335C29.0984 102.031 16.9379 74.783 26.2425 50.4768C35.5487 26.1707 62.7966 14.0102 87.1011 23.3148Z" fill="#0E0E0E"/>
<path opacity="0.6653" d="M86.8672 22.9147C111.16 32.2143 123.314 59.4473 114.014 83.7402C104.715 108.033 77.4817 120.187 53.1888 110.887C28.8959 101.588 16.742 74.3548 26.0416 50.0619C35.3412 25.769 62.5743 13.6151 86.8672 22.9147Z" fill="#0C0C0C"/>
<path opacity="0.6723" d="M86.6298 22.5302C110.909 31.8248 123.058 59.043 113.762 83.3244C104.467 107.606 77.2492 119.753 52.9679 110.458C28.6882 101.164 16.5393 73.9455 25.8356 49.6642C35.1319 25.3828 62.3501 13.2356 86.6298 22.5302Z" fill="#0A0A0A"/>
<path opacity="0.6792" d="M86.393 22.1301C110.661 31.4198 122.802 58.6248 113.512 82.8913C104.222 107.159 77.0191 119.3 52.751 110.01C28.4845 100.721 16.3422 73.5157 25.6319 49.2492C34.9215 24.9811 62.1249 12.8404 86.393 22.1301Z" fill="#070707"/>
<path opacity="0.6861" d="M86.1532 21.7457C110.408 31.0304 122.542 58.2205 113.257 82.4754C103.973 106.73 76.7826 118.864 52.5276 109.58C28.2727 100.295 16.1387 73.1048 25.4234 48.8499C34.7098 24.595 61.8999 12.4609 86.1532 21.7457Z" fill="#050505"/>
<path opacity="0.6931" d="M85.918 21.3534C110.16 30.6332 122.289 57.8084 113.007 82.0501C103.728 106.292 76.5523 118.421 52.3106 109.14C28.0689 99.8598 15.9398 72.6845 25.2212 48.4428C34.501 24.2011 61.6763 12.0736 85.918 21.3534Z" fill="#020202"/>
<path opacity="0.7" d="M85.6783 20.9618C109.907 30.2366 122.029 57.397 112.753 81.6271C103.478 105.856 76.3176 117.978 52.0891 108.703C27.8606 99.4285 15.738 72.2681 25.0145 48.0379C34.2893 23.8078 61.4498 11.6853 85.6783 20.9618Z" fill="black"/>
</g>
</svg>
