<svg width="80" height="81" viewBox="0 0 80 81" fill="none" xmlns="http://www.w3.org/2000/svg">
<g clip-path="url(#clip0_1465_5355)">
<path d="M74.6667 0.726563H5.33333C3.91885 0.726563 2.56229 1.28847 1.5621 2.28866C0.561903 3.28885 0 4.64541 0 6.0599L0 75.3932C0 76.8077 0.561903 78.1643 1.5621 79.1645C2.56229 80.1647 3.91885 80.7266 5.33333 80.7266H74.6667C76.0812 80.7266 77.4377 80.1647 78.4379 79.1645C79.4381 78.1643 80 76.8077 80 75.3932V6.0599C80 4.64541 79.4381 3.28885 78.4379 2.28866C77.4377 1.28847 76.0812 0.726563 74.6667 0.726563ZM5.33333 3.39323H74.6667C75.3739 3.39323 76.0522 3.67418 76.5523 4.17428C77.0524 4.67437 77.3333 5.35265 77.3333 6.0599V62.0599H2.66667V6.0599C2.66667 5.35265 2.94762 4.67437 3.44772 4.17428C3.94781 3.67418 4.62609 3.39323 5.33333 3.39323ZM74.6667 78.0599H5.33333C4.62609 78.0599 3.94781 77.7789 3.44772 77.2789C2.94762 76.7788 2.66667 76.1005 2.66667 75.3932V64.7266H77.3333V75.3932C77.3333 76.1005 77.0524 76.7788 76.5523 77.2789C76.0522 77.7789 75.3739 78.0599 74.6667 78.0599Z" fill="#05BCC1"/>
<path d="M22.9703 28.5653L32.8197 38.4159L20.1903 51.0706C19.6928 51.5704 19.4136 52.2468 19.4136 52.9519C19.4136 53.6571 19.6928 54.3335 20.1903 54.8333L23.9597 58.6093C24.2065 58.8573 24.4998 59.0541 24.8229 59.1884C25.146 59.3227 25.4924 59.3918 25.8423 59.3918C26.1922 59.3918 26.5387 59.3227 26.8617 59.1884C27.1848 59.0541 27.4782 58.8573 27.725 58.6093L40.357 45.9533L52.233 57.8279C52.7215 58.3512 53.3103 58.7708 53.9644 59.0616C54.6185 59.3525 55.3244 59.5087 56.0402 59.521C56.7559 59.5333 57.4668 59.4013 58.1304 59.133C58.7941 58.8647 59.397 58.4656 59.9031 57.9593C60.4092 57.4531 60.8083 56.8502 61.0765 56.1865C61.3446 55.5228 61.4765 54.8119 61.4641 54.0961C61.4517 53.3804 61.2953 52.6745 61.0043 52.0205C60.7134 51.3664 60.2937 50.7777 59.7703 50.2893L47.8103 38.3253C48.144 37.7249 48.2324 37.0187 48.057 36.3546L54.9063 29.4826C55.2684 29.84 55.5195 30.2944 55.6294 30.7911C55.7394 31.2878 55.7036 31.8058 55.5263 32.2826C55.3491 32.7438 55.2587 33.2338 55.2597 33.7279C55.2694 34.8707 55.7276 35.9639 56.5357 36.7719C56.9369 37.1791 57.415 37.5024 57.9423 37.723C58.4695 37.9437 59.0354 38.0573 59.607 38.0573C60.1786 38.0573 60.7445 37.9437 61.2717 37.723C61.799 37.5024 62.2771 37.1791 62.6783 36.7719L65.2597 34.1853C66.1265 33.3186 66.814 32.2896 67.2831 31.1572C67.7522 30.0248 67.9937 28.811 67.9937 27.5853C67.9937 26.3595 67.7522 25.1458 67.2831 24.0133C66.814 22.8809 66.1265 21.852 65.2597 20.9853L58.6677 14.3906C58.3382 14.0637 57.9289 13.8289 57.4804 13.7096C57.0319 13.5903 56.56 13.5906 56.1117 13.7106L53.7063 11.2959C53.8272 10.8477 53.8282 10.3756 53.7093 9.92679C53.5905 9.47801 53.3559 9.06829 53.029 8.73861L51.149 6.84128C50.9016 6.59214 50.6072 6.39466 50.2829 6.2603C49.9586 6.12594 49.6107 6.05738 49.2597 6.05861C48.9088 6.05756 48.5613 6.1262 48.2372 6.26056C47.9131 6.39491 47.6189 6.5923 47.3717 6.84128L41.725 12.5106C41.2259 13.0106 40.9456 13.6882 40.9456 14.3946C40.9456 15.1011 41.2259 15.7786 41.725 16.2786L43.6117 18.1559C43.8579 18.4047 44.1512 18.602 44.4744 18.7364C44.7976 18.8707 45.1443 18.9395 45.4943 18.9386C45.7197 18.9346 45.9437 18.9023 46.161 18.8426L48.581 21.2586C48.4606 21.7073 48.4595 22.1797 48.5778 22.629C48.6962 23.0782 48.9298 23.4888 49.2557 23.8199L42.401 30.6946C41.7357 30.5201 41.0286 30.611 40.429 30.9479L30.5343 21.0466C31.0196 19.2402 31.0201 17.3378 30.5358 15.5311C30.0515 13.7245 29.0994 12.0774 27.7757 10.7559C26.5758 9.55725 25.1236 8.64148 23.5248 8.07542C21.9261 7.50936 20.2211 7.30729 18.5343 7.48394C18.0964 7.54495 17.6843 7.72707 17.3443 8.00977C17.0044 8.29247 16.7502 8.66451 16.6103 9.08394C16.4727 9.49141 16.4522 9.92929 16.5509 10.3479C16.6497 10.7664 16.8638 11.1489 17.169 11.4519L21.1823 15.4653C21.4319 15.7153 21.572 16.0541 21.572 16.4073C21.572 16.7605 21.4319 17.0993 21.1823 17.3493L19.277 19.2399C19.0253 19.4804 18.6901 19.6139 18.3421 19.6124C17.994 19.6109 17.66 19.4745 17.4103 19.2319L13.397 15.2319C13.0922 14.9255 12.7078 14.7105 12.2872 14.6113C11.8665 14.5121 11.4266 14.5327 11.017 14.6706C10.6006 14.8086 10.2312 15.0603 9.95033 15.3972C9.66948 15.7341 9.48844 16.1429 9.42766 16.5773C9.23494 18.3231 9.4515 20.0898 10.0602 21.7373C10.6688 23.3849 11.6529 24.8681 12.9343 26.0693C14.2661 27.2896 15.8821 28.1573 17.635 28.5932C19.3879 29.0292 21.2221 29.0196 22.9703 28.5653ZM25.8477 56.7253L22.0783 52.9519L41.7237 33.2586L45.4903 37.0333L25.8477 56.7253ZM57.889 55.9373C57.3874 56.4343 56.7098 56.7131 56.0037 56.7131C55.2975 56.7131 54.62 56.4343 54.1183 55.9373L42.241 44.0653L46.001 40.2933L57.881 52.1746C58.38 52.6734 58.6609 53.3495 58.6624 54.055C58.6639 54.7604 58.3858 55.4364 57.889 55.9373ZM46.4357 34.2039L45.5023 33.2706L44.553 32.3199L51.141 25.7093L51.1583 25.7279L53.025 27.5946L46.4357 34.2039ZM50.2023 19.1053L48.317 17.2159L52.0837 13.4453L53.9677 15.3333L50.2023 19.1053ZM63.3797 22.8799C64.6299 24.1302 65.3322 25.8259 65.3322 27.5939C65.3322 29.362 64.6299 31.0577 63.3797 32.3079L60.7917 34.9026C60.4767 35.2097 60.0542 35.3815 59.6143 35.3815C59.1745 35.3815 58.752 35.2097 58.437 34.9026C58.1251 34.5925 57.9446 34.1743 57.933 33.7346C57.9319 33.5656 57.9621 33.3979 58.0223 33.2399C58.378 32.2815 58.4518 31.2413 58.2349 30.2423C58.0179 29.2432 57.5195 28.3272 56.7983 27.6026L51.1517 21.9333L56.7877 16.2759L63.3797 22.8799ZM43.613 14.3946L49.2583 8.72528L51.1397 10.6199L45.4983 16.2733L43.613 14.3946ZM15.5197 21.1146C16.279 21.842 17.2893 22.249 18.3409 22.251C19.3924 22.253 20.4043 21.8498 21.1663 21.1253L23.0677 19.2413C23.4394 18.8698 23.7342 18.4287 23.9354 17.9433C24.1366 17.4578 24.2401 16.9374 24.2401 16.4119C24.2401 15.8864 24.1366 15.3661 23.9354 14.8806C23.7342 14.3951 23.4394 13.9541 23.0677 13.5826L19.549 10.0679C20.7243 10.05 21.8913 10.2688 22.9803 10.7114C24.0693 11.1539 25.058 11.8112 25.8877 12.6439C26.9572 13.7104 27.7013 15.059 28.033 16.5325C28.3647 18.006 28.2704 19.5434 27.761 20.9653C27.675 21.2036 27.6587 21.4614 27.7139 21.7087C27.7692 21.9559 27.8937 22.1823 28.073 22.3613L38.473 32.7613L34.7077 36.5333L24.2957 26.1213C24.1188 25.9444 23.8957 25.8208 23.6519 25.7647C23.4081 25.7086 23.1534 25.7222 22.917 25.8039C21.5332 26.2877 20.0443 26.3879 18.6082 26.094C17.172 25.8001 15.8422 25.123 14.7597 24.1346C13.8687 23.3015 13.1627 22.2905 12.6874 21.167C12.2122 20.0436 11.9783 18.8329 12.001 17.6133L15.5197 21.1146Z" fill="#05BCC1"/>
<path d="M73.3333 70.0586H41.088C40.8165 69.2792 40.3091 68.6036 39.6363 68.1255C38.9636 67.6475 38.1587 67.3906 37.3333 67.3906C36.508 67.3906 35.7031 67.6475 35.0303 68.1255C34.3575 68.6036 33.8502 69.2792 33.5787 70.0586H17.3333C16.9797 70.0586 16.6406 70.199 16.3905 70.4491C16.1405 70.6991 16 71.0383 16 71.3919C16 71.7455 16.1405 72.0846 16.3905 72.3347C16.6406 72.5847 16.9797 72.7252 17.3333 72.7252H33.5787C33.8502 73.5046 34.3575 74.1802 35.0303 74.6582C35.7031 75.1363 36.508 75.3931 37.3333 75.3931C38.1587 75.3931 38.9636 75.1363 39.6363 74.6582C40.3091 74.1802 40.8165 73.5046 41.088 72.7252H73.3333C73.687 72.7252 74.0261 72.5847 74.2761 72.3347C74.5262 72.0846 74.6667 71.7455 74.6667 71.3919C74.6667 71.0383 74.5262 70.6991 74.2761 70.4491C74.0261 70.199 73.687 70.0586 73.3333 70.0586ZM37.3333 72.7252C37.0696 72.7252 36.8118 72.647 36.5926 72.5005C36.3733 72.354 36.2024 72.1458 36.1015 71.9021C36.0006 71.6585 35.9742 71.3904 36.0256 71.1318C36.0771 70.8731 36.2041 70.6355 36.3905 70.4491C36.577 70.2626 36.8146 70.1356 37.0732 70.0842C37.3319 70.0327 37.5999 70.0591 37.8436 70.16C38.0872 70.261 38.2955 70.4319 38.442 70.6511C38.5885 70.8704 38.6667 71.1282 38.6667 71.3919C38.6667 71.7455 38.5262 72.0846 38.2761 72.3347C38.0261 72.5847 37.687 72.7252 37.3333 72.7252Z" fill="#05BCC1"/>
<path d="M6.66536 68.7266C6.31174 68.7266 5.9726 68.867 5.72256 69.1171C5.47251 69.3671 5.33203 69.7063 5.33203 70.0599V72.7266C5.33203 73.0802 5.47251 73.4193 5.72256 73.6694C5.9726 73.9194 6.31174 74.0599 6.66536 74.0599C7.01899 74.0599 7.35813 73.9194 7.60817 73.6694C7.85822 73.4193 7.9987 73.0802 7.9987 72.7266V70.0599C7.9987 69.7063 7.85822 69.3671 7.60817 69.1171C7.35813 68.867 7.01899 68.7266 6.66536 68.7266Z" fill="#05BCC1"/>
<path d="M12.0013 68.7266C11.6477 68.7266 11.3085 68.867 11.0585 69.1171C10.8084 69.3671 10.668 69.7063 10.668 70.0599V72.7266C10.668 73.0802 10.8084 73.4193 11.0585 73.6694C11.3085 73.9194 11.6477 74.0599 12.0013 74.0599C12.3549 74.0599 12.6941 73.9194 12.9441 73.6694C13.1942 73.4193 13.3346 73.0802 13.3346 72.7266V70.0599C13.3346 69.7063 13.1942 69.3671 12.9441 69.1171C12.6941 68.867 12.3549 68.7266 12.0013 68.7266Z" fill="#05BCC1"/>
</g>
<defs>
<clipPath id="clip0_1465_5355">
<rect width="80" height="80" fill="white" transform="translate(0 0.726562)"/>
</clipPath>
</defs>
</svg>
