<svg width="188" height="189" viewBox="0 0 188 189" fill="none" xmlns="http://www.w3.org/2000/svg">
<path d="M2.74453 1.24342C2.74453 1.9301 2.13014 2.48684 1.37226 2.48684C0.614384 2.48684 0 1.9301 0 1.24342C0 0.556747 0.614384 0 1.37226 0C2.13014 0 2.74453 0.556747 2.74453 1.24342Z" fill="#BDBDBD" fill-opacity="0.8"/>
<path d="M2.74453 57.1974C2.74453 57.884 2.13014 58.4408 1.37226 58.4408C0.614384 58.4408 0 57.884 0 57.1974C0 56.5107 0.614384 55.9539 1.37226 55.9539C2.13014 55.9539 2.74453 56.5107 2.74453 57.1974Z" fill="#BDBDBD" fill-opacity="0.8"/>
<path d="M2.74453 113.151C2.74453 113.838 2.13014 114.395 1.37226 114.395C0.614384 114.395 0 113.838 0 113.151C0 112.465 0.614384 111.908 1.37226 111.908C2.13014 111.908 2.74453 112.465 2.74453 113.151Z" fill="#BDBDBD" fill-opacity="0.8"/>
<path d="M2.74453 169.105C2.74453 169.792 2.13014 170.349 1.37226 170.349C0.614384 170.349 0 169.792 0 169.105C0 168.419 0.614384 167.862 1.37226 167.862C2.13014 167.862 2.74453 168.419 2.74453 169.105Z" fill="#BDBDBD" fill-opacity="0.8"/>
<path d="M2.74453 19.8947C2.74453 20.5814 2.13014 21.1382 1.37226 21.1382C0.614384 21.1382 0 20.5814 0 19.8947C0 19.2081 0.614384 18.6513 1.37226 18.6513C2.13014 18.6513 2.74453 19.2081 2.74453 19.8947Z" fill="#BDBDBD" fill-opacity="0.8"/>
<path d="M2.74453 75.8487C2.74453 76.5354 2.13014 77.0921 1.37226 77.0921C0.614384 77.0921 0 76.5354 0 75.8487C0 75.162 0.614384 74.6053 1.37226 74.6053C2.13014 74.6053 2.74453 75.162 2.74453 75.8487Z" fill="#BDBDBD" fill-opacity="0.8"/>
<path d="M2.74453 131.803C2.74453 132.489 2.13014 133.046 1.37226 133.046C0.614384 133.046 0 132.489 0 131.803C0 131.116 0.614384 130.559 1.37226 130.559C2.13014 130.559 2.74453 131.116 2.74453 131.803Z" fill="#BDBDBD" fill-opacity="0.8"/>
<path d="M2.74453 187.757C2.74453 188.443 2.13014 189 1.37226 189C0.614384 189 0 188.443 0 187.757C0 187.07 0.614384 186.513 1.37226 186.513C2.13014 186.513 2.74453 187.07 2.74453 187.757Z" fill="#BDBDBD" fill-opacity="0.8"/>
<path d="M2.74453 38.5461C2.74453 39.2327 2.13014 39.7895 1.37226 39.7895C0.614384 39.7895 0 39.2327 0 38.5461C0 37.8594 0.614384 37.3026 1.37226 37.3026C2.13014 37.3026 2.74453 37.8594 2.74453 38.5461Z" fill="#BDBDBD" fill-opacity="0.8"/>
<path d="M2.74453 94.5C2.74453 95.1867 2.13014 95.7434 1.37226 95.7434C0.614384 95.7434 0 95.1867 0 94.5C0 93.8133 0.614384 93.2566 1.37226 93.2566C2.13014 93.2566 2.74453 93.8133 2.74453 94.5Z" fill="#BDBDBD" fill-opacity="0.8"/>
<path d="M2.74453 150.454C2.74453 151.141 2.13014 151.697 1.37226 151.697C0.614384 151.697 0 151.141 0 150.454C0 149.767 0.614384 149.211 1.37226 149.211C2.13014 149.211 2.74453 149.767 2.74453 150.454Z" fill="#BDBDBD" fill-opacity="0.8"/>
<path d="M23.3285 1.24342C23.3285 1.9301 22.7141 2.48684 21.9562 2.48684C21.1983 2.48684 20.5839 1.9301 20.5839 1.24342C20.5839 0.556747 21.1983 0 21.9562 0C22.7141 0 23.3285 0.556747 23.3285 1.24342Z" fill="#BDBDBD" fill-opacity="0.8"/>
<path d="M23.3285 57.1974C23.3285 57.884 22.7141 58.4408 21.9562 58.4408C21.1983 58.4408 20.5839 57.884 20.5839 57.1974C20.5839 56.5107 21.1983 55.9539 21.9562 55.9539C22.7141 55.9539 23.3285 56.5107 23.3285 57.1974Z" fill="#BDBDBD" fill-opacity="0.8"/>
<path d="M23.3285 113.151C23.3285 113.838 22.7141 114.395 21.9562 114.395C21.1983 114.395 20.5839 113.838 20.5839 113.151C20.5839 112.465 21.1983 111.908 21.9562 111.908C22.7141 111.908 23.3285 112.465 23.3285 113.151Z" fill="#BDBDBD" fill-opacity="0.8"/>
<path d="M23.3285 169.105C23.3285 169.792 22.7141 170.349 21.9562 170.349C21.1983 170.349 20.5839 169.792 20.5839 169.105C20.5839 168.419 21.1983 167.862 21.9562 167.862C22.7141 167.862 23.3285 168.419 23.3285 169.105Z" fill="#BDBDBD" fill-opacity="0.8"/>
<path d="M23.3285 19.8947C23.3285 20.5814 22.7141 21.1382 21.9562 21.1382C21.1983 21.1382 20.5839 20.5814 20.5839 19.8947C20.5839 19.2081 21.1983 18.6513 21.9562 18.6513C22.7141 18.6513 23.3285 19.2081 23.3285 19.8947Z" fill="#BDBDBD" fill-opacity="0.8"/>
<path d="M23.3285 75.8487C23.3285 76.5354 22.7141 77.0921 21.9562 77.0921C21.1983 77.0921 20.5839 76.5354 20.5839 75.8487C20.5839 75.162 21.1983 74.6053 21.9562 74.6053C22.7141 74.6053 23.3285 75.162 23.3285 75.8487Z" fill="#BDBDBD" fill-opacity="0.8"/>
<path d="M23.3285 131.803C23.3285 132.489 22.7141 133.046 21.9562 133.046C21.1983 133.046 20.5839 132.489 20.5839 131.803C20.5839 131.116 21.1983 130.559 21.9562 130.559C22.7141 130.559 23.3285 131.116 23.3285 131.803Z" fill="#BDBDBD" fill-opacity="0.8"/>
<path d="M23.3285 187.757C23.3285 188.443 22.7141 189 21.9562 189C21.1983 189 20.5839 188.443 20.5839 187.757C20.5839 187.07 21.1983 186.513 21.9562 186.513C22.7141 186.513 23.3285 187.07 23.3285 187.757Z" fill="#BDBDBD" fill-opacity="0.8"/>
<path d="M23.3285 38.5461C23.3285 39.2327 22.7141 39.7895 21.9562 39.7895C21.1983 39.7895 20.5839 39.2327 20.5839 38.5461C20.5839 37.8594 21.1983 37.3026 21.9562 37.3026C22.7141 37.3026 23.3285 37.8594 23.3285 38.5461Z" fill="#BDBDBD" fill-opacity="0.8"/>
<path d="M23.3285 94.5C23.3285 95.1867 22.7141 95.7434 21.9562 95.7434C21.1983 95.7434 20.5839 95.1867 20.5839 94.5C20.5839 93.8133 21.1983 93.2566 21.9562 93.2566C22.7141 93.2566 23.3285 93.8133 23.3285 94.5Z" fill="#BDBDBD" fill-opacity="0.8"/>
<path d="M23.3285 150.454C23.3285 151.141 22.7141 151.697 21.9562 151.697C21.1983 151.697 20.5839 151.141 20.5839 150.454C20.5839 149.767 21.1983 149.211 21.9562 149.211C22.7141 149.211 23.3285 149.767 23.3285 150.454Z" fill="#BDBDBD" fill-opacity="0.8"/>
<path d="M42.5401 2.48684C43.298 2.48684 43.9124 1.9301 43.9124 1.24342C43.9124 0.556747 43.298 0 42.5401 0C41.7823 0 41.1679 0.556747 41.1679 1.24342C41.1679 1.9301 41.7823 2.48684 42.5401 2.48684Z" fill="#BDBDBD" fill-opacity="0.8"/>
<path d="M42.5401 58.4408C43.298 58.4408 43.9124 57.884 43.9124 57.1974C43.9124 56.5107 43.298 55.9539 42.5401 55.9539C41.7823 55.9539 41.1679 56.5107 41.1679 57.1974C41.1679 57.884 41.7823 58.4408 42.5401 58.4408Z" fill="#BDBDBD" fill-opacity="0.8"/>
<path d="M42.5401 114.395C43.298 114.395 43.9124 113.838 43.9124 113.151C43.9124 112.465 43.298 111.908 42.5401 111.908C41.7823 111.908 41.1679 112.465 41.1679 113.151C41.1679 113.838 41.7823 114.395 42.5401 114.395Z" fill="#BDBDBD" fill-opacity="0.8"/>
<path d="M42.5401 170.349C43.298 170.349 43.9124 169.792 43.9124 169.105C43.9124 168.419 43.298 167.862 42.5401 167.862C41.7823 167.862 41.1679 168.419 41.1679 169.105C41.1679 169.792 41.7823 170.349 42.5401 170.349Z" fill="#BDBDBD" fill-opacity="0.8"/>
<path d="M42.5401 21.1382C43.298 21.1382 43.9124 20.5814 43.9124 19.8947C43.9124 19.2081 43.298 18.6513 42.5401 18.6513C41.7823 18.6513 41.1679 19.2081 41.1679 19.8947C41.1679 20.5814 41.7823 21.1382 42.5401 21.1382Z" fill="#BDBDBD" fill-opacity="0.8"/>
<path d="M42.5401 77.0921C43.298 77.0921 43.9124 76.5354 43.9124 75.8487C43.9124 75.162 43.298 74.6053 42.5401 74.6053C41.7823 74.6053 41.1679 75.162 41.1679 75.8487C41.1679 76.5354 41.7823 77.0921 42.5401 77.0921Z" fill="#BDBDBD" fill-opacity="0.8"/>
<path d="M42.5401 133.046C43.298 133.046 43.9124 132.489 43.9124 131.803C43.9124 131.116 43.298 130.559 42.5401 130.559C41.7823 130.559 41.1679 131.116 41.1679 131.803C41.1679 132.489 41.7823 133.046 42.5401 133.046Z" fill="#BDBDBD" fill-opacity="0.8"/>
<path d="M42.5401 189C43.298 189 43.9124 188.443 43.9124 187.757C43.9124 187.07 43.298 186.513 42.5401 186.513C41.7823 186.513 41.1679 187.07 41.1679 187.757C41.1679 188.443 41.7823 189 42.5401 189Z" fill="#BDBDBD" fill-opacity="0.8"/>
<path d="M42.5401 39.7895C43.298 39.7895 43.9124 39.2327 43.9124 38.5461C43.9124 37.8594 43.298 37.3026 42.5401 37.3026C41.7823 37.3026 41.1679 37.8594 41.1679 38.5461C41.1679 39.2327 41.7823 39.7895 42.5401 39.7895Z" fill="#BDBDBD" fill-opacity="0.8"/>
<path d="M42.5401 95.7434C43.298 95.7434 43.9124 95.1867 43.9124 94.5C43.9124 93.8133 43.298 93.2566 42.5401 93.2566C41.7823 93.2566 41.1679 93.8133 41.1679 94.5C41.1679 95.1867 41.7823 95.7434 42.5401 95.7434Z" fill="#BDBDBD" fill-opacity="0.8"/>
<path d="M42.5401 151.697C43.298 151.697 43.9124 151.141 43.9124 150.454C43.9124 149.767 43.298 149.211 42.5401 149.211C41.7823 149.211 41.1679 149.767 41.1679 150.454C41.1679 151.141 41.7823 151.697 42.5401 151.697Z" fill="#BDBDBD" fill-opacity="0.8"/>
<path d="M64.4964 1.24342C64.4964 1.9301 63.882 2.48684 63.1241 2.48684C62.3662 2.48684 61.7518 1.9301 61.7518 1.24342C61.7518 0.556747 62.3662 0 63.1241 0C63.882 0 64.4964 0.556747 64.4964 1.24342Z" fill="#BDBDBD" fill-opacity="0.8"/>
<path d="M64.4964 57.1974C64.4964 57.884 63.882 58.4408 63.1241 58.4408C62.3662 58.4408 61.7518 57.884 61.7518 57.1974C61.7518 56.5107 62.3662 55.9539 63.1241 55.9539C63.882 55.9539 64.4964 56.5107 64.4964 57.1974Z" fill="#BDBDBD" fill-opacity="0.8"/>
<path d="M64.4964 113.151C64.4964 113.838 63.882 114.395 63.1241 114.395C62.3662 114.395 61.7518 113.838 61.7518 113.151C61.7518 112.465 62.3662 111.908 63.1241 111.908C63.882 111.908 64.4964 112.465 64.4964 113.151Z" fill="#BDBDBD" fill-opacity="0.8"/>
<path d="M64.4964 169.105C64.4964 169.792 63.882 170.349 63.1241 170.349C62.3662 170.349 61.7518 169.792 61.7518 169.105C61.7518 168.419 62.3662 167.862 63.1241 167.862C63.882 167.862 64.4964 168.419 64.4964 169.105Z" fill="#BDBDBD" fill-opacity="0.8"/>
<path d="M64.4964 19.8947C64.4964 20.5814 63.882 21.1382 63.1241 21.1382C62.3662 21.1382 61.7518 20.5814 61.7518 19.8947C61.7518 19.2081 62.3662 18.6513 63.1241 18.6513C63.882 18.6513 64.4964 19.2081 64.4964 19.8947Z" fill="#BDBDBD" fill-opacity="0.8"/>
<path d="M64.4964 75.8487C64.4964 76.5354 63.882 77.0921 63.1241 77.0921C62.3662 77.0921 61.7518 76.5354 61.7518 75.8487C61.7518 75.162 62.3662 74.6053 63.1241 74.6053C63.882 74.6053 64.4964 75.162 64.4964 75.8487Z" fill="#BDBDBD" fill-opacity="0.8"/>
<path d="M64.4964 131.803C64.4964 132.489 63.882 133.046 63.1241 133.046C62.3662 133.046 61.7518 132.489 61.7518 131.803C61.7518 131.116 62.3662 130.559 63.1241 130.559C63.882 130.559 64.4964 131.116 64.4964 131.803Z" fill="#BDBDBD" fill-opacity="0.8"/>
<path d="M64.4964 187.757C64.4964 188.443 63.882 189 63.1241 189C62.3662 189 61.7518 188.443 61.7518 187.757C61.7518 187.07 62.3662 186.513 63.1241 186.513C63.882 186.513 64.4964 187.07 64.4964 187.757Z" fill="#BDBDBD" fill-opacity="0.8"/>
<path d="M64.4964 38.5461C64.4964 39.2327 63.882 39.7895 63.1241 39.7895C62.3662 39.7895 61.7518 39.2327 61.7518 38.5461C61.7518 37.8594 62.3662 37.3026 63.1241 37.3026C63.882 37.3026 64.4964 37.8594 64.4964 38.5461Z" fill="#BDBDBD" fill-opacity="0.8"/>
<path d="M64.4964 94.5C64.4964 95.1867 63.882 95.7434 63.1241 95.7434C62.3662 95.7434 61.7518 95.1867 61.7518 94.5C61.7518 93.8133 62.3662 93.2566 63.1241 93.2566C63.882 93.2566 64.4964 93.8133 64.4964 94.5Z" fill="#BDBDBD" fill-opacity="0.8"/>
<path d="M64.4964 150.454C64.4964 151.141 63.882 151.697 63.1241 151.697C62.3662 151.697 61.7518 151.141 61.7518 150.454C61.7518 149.767 62.3662 149.211 63.1241 149.211C63.882 149.211 64.4964 149.767 64.4964 150.454Z" fill="#BDBDBD" fill-opacity="0.8"/>
<path d="M83.708 2.48684C84.4659 2.48684 85.0803 1.9301 85.0803 1.24342C85.0803 0.556747 84.4659 0 83.708 0C82.9502 0 82.3358 0.556747 82.3358 1.24342C82.3358 1.9301 82.9502 2.48684 83.708 2.48684Z" fill="#BDBDBD" fill-opacity="0.8"/>
<path d="M83.708 58.4408C84.4659 58.4408 85.0803 57.884 85.0803 57.1974C85.0803 56.5107 84.4659 55.9539 83.708 55.9539C82.9502 55.9539 82.3358 56.5107 82.3358 57.1974C82.3358 57.884 82.9502 58.4408 83.708 58.4408Z" fill="#BDBDBD" fill-opacity="0.8"/>
<path d="M83.708 114.395C84.4659 114.395 85.0803 113.838 85.0803 113.151C85.0803 112.465 84.4659 111.908 83.708 111.908C82.9502 111.908 82.3358 112.465 82.3358 113.151C82.3358 113.838 82.9502 114.395 83.708 114.395Z" fill="#BDBDBD" fill-opacity="0.8"/>
<path d="M83.708 170.349C84.4659 170.349 85.0803 169.792 85.0803 169.105C85.0803 168.419 84.4659 167.862 83.708 167.862C82.9502 167.862 82.3358 168.419 82.3358 169.105C82.3358 169.792 82.9502 170.349 83.708 170.349Z" fill="#BDBDBD" fill-opacity="0.8"/>
<path d="M83.708 21.1382C84.4659 21.1382 85.0803 20.5814 85.0803 19.8947C85.0803 19.2081 84.4659 18.6513 83.708 18.6513C82.9502 18.6513 82.3358 19.2081 82.3358 19.8947C82.3358 20.5814 82.9502 21.1382 83.708 21.1382Z" fill="#BDBDBD" fill-opacity="0.8"/>
<path d="M83.708 77.0921C84.4659 77.0921 85.0803 76.5354 85.0803 75.8487C85.0803 75.162 84.4659 74.6053 83.708 74.6053C82.9502 74.6053 82.3358 75.162 82.3358 75.8487C82.3358 76.5354 82.9502 77.0921 83.708 77.0921Z" fill="#BDBDBD" fill-opacity="0.8"/>
<path d="M83.708 133.046C84.4659 133.046 85.0803 132.489 85.0803 131.803C85.0803 131.116 84.4659 130.559 83.708 130.559C82.9502 130.559 82.3358 131.116 82.3358 131.803C82.3358 132.489 82.9502 133.046 83.708 133.046Z" fill="#BDBDBD" fill-opacity="0.8"/>
<path d="M83.708 189C84.4659 189 85.0803 188.443 85.0803 187.757C85.0803 187.07 84.4659 186.513 83.708 186.513C82.9502 186.513 82.3358 187.07 82.3358 187.757C82.3358 188.443 82.9502 189 83.708 189Z" fill="#BDBDBD" fill-opacity="0.8"/>
<path d="M83.708 39.7895C84.4659 39.7895 85.0803 39.2327 85.0803 38.5461C85.0803 37.8594 84.4659 37.3026 83.708 37.3026C82.9502 37.3026 82.3358 37.8594 82.3358 38.5461C82.3358 39.2327 82.9502 39.7895 83.708 39.7895Z" fill="#BDBDBD" fill-opacity="0.8"/>
<path d="M83.708 95.7434C84.4659 95.7434 85.0803 95.1867 85.0803 94.5C85.0803 93.8133 84.4659 93.2566 83.708 93.2566C82.9502 93.2566 82.3358 93.8133 82.3358 94.5C82.3358 95.1867 82.9502 95.7434 83.708 95.7434Z" fill="#BDBDBD" fill-opacity="0.8"/>
<path d="M83.708 151.697C84.4659 151.697 85.0803 151.141 85.0803 150.454C85.0803 149.767 84.4659 149.211 83.708 149.211C82.9502 149.211 82.3358 149.767 82.3358 150.454C82.3358 151.141 82.9502 151.697 83.708 151.697Z" fill="#BDBDBD" fill-opacity="0.8"/>
<path d="M105.664 1.24342C105.664 1.9301 105.05 2.48684 104.292 2.48684C103.534 2.48684 102.92 1.9301 102.92 1.24342C102.92 0.556747 103.534 0 104.292 0C105.05 0 105.664 0.556747 105.664 1.24342Z" fill="#BDBDBD" fill-opacity="0.8"/>
<path d="M105.664 57.1974C105.664 57.884 105.05 58.4408 104.292 58.4408C103.534 58.4408 102.92 57.884 102.92 57.1974C102.92 56.5107 103.534 55.9539 104.292 55.9539C105.05 55.9539 105.664 56.5107 105.664 57.1974Z" fill="#BDBDBD" fill-opacity="0.8"/>
<path d="M105.664 113.151C105.664 113.838 105.05 114.395 104.292 114.395C103.534 114.395 102.92 113.838 102.92 113.151C102.92 112.465 103.534 111.908 104.292 111.908C105.05 111.908 105.664 112.465 105.664 113.151Z" fill="#BDBDBD" fill-opacity="0.8"/>
<path d="M105.664 169.105C105.664 169.792 105.05 170.349 104.292 170.349C103.534 170.349 102.92 169.792 102.92 169.105C102.92 168.419 103.534 167.862 104.292 167.862C105.05 167.862 105.664 168.419 105.664 169.105Z" fill="#BDBDBD" fill-opacity="0.8"/>
<path d="M105.664 19.8947C105.664 20.5814 105.05 21.1382 104.292 21.1382C103.534 21.1382 102.92 20.5814 102.92 19.8947C102.92 19.2081 103.534 18.6513 104.292 18.6513C105.05 18.6513 105.664 19.2081 105.664 19.8947Z" fill="#BDBDBD" fill-opacity="0.8"/>
<path d="M105.664 75.8487C105.664 76.5354 105.05 77.0921 104.292 77.0921C103.534 77.0921 102.92 76.5354 102.92 75.8487C102.92 75.162 103.534 74.6053 104.292 74.6053C105.05 74.6053 105.664 75.162 105.664 75.8487Z" fill="#BDBDBD" fill-opacity="0.8"/>
<path d="M105.664 131.803C105.664 132.489 105.05 133.046 104.292 133.046C103.534 133.046 102.92 132.489 102.92 131.803C102.92 131.116 103.534 130.559 104.292 130.559C105.05 130.559 105.664 131.116 105.664 131.803Z" fill="#BDBDBD" fill-opacity="0.8"/>
<path d="M105.664 187.757C105.664 188.443 105.05 189 104.292 189C103.534 189 102.92 188.443 102.92 187.757C102.92 187.07 103.534 186.513 104.292 186.513C105.05 186.513 105.664 187.07 105.664 187.757Z" fill="#BDBDBD" fill-opacity="0.8"/>
<path d="M105.664 38.5461C105.664 39.2327 105.05 39.7895 104.292 39.7895C103.534 39.7895 102.92 39.2327 102.92 38.5461C102.92 37.8594 103.534 37.3026 104.292 37.3026C105.05 37.3026 105.664 37.8594 105.664 38.5461Z" fill="#BDBDBD" fill-opacity="0.8"/>
<path d="M105.664 94.5C105.664 95.1867 105.05 95.7434 104.292 95.7434C103.534 95.7434 102.92 95.1867 102.92 94.5C102.92 93.8133 103.534 93.2566 104.292 93.2566C105.05 93.2566 105.664 93.8133 105.664 94.5Z" fill="#BDBDBD" fill-opacity="0.8"/>
<path d="M105.664 150.454C105.664 151.141 105.05 151.697 104.292 151.697C103.534 151.697 102.92 151.141 102.92 150.454C102.92 149.767 103.534 149.211 104.292 149.211C105.05 149.211 105.664 149.767 105.664 150.454Z" fill="#BDBDBD" fill-opacity="0.8"/>
<path d="M124.876 2.48684C125.634 2.48684 126.248 1.9301 126.248 1.24342C126.248 0.556747 125.634 0 124.876 0C124.118 0 123.504 0.556747 123.504 1.24342C123.504 1.9301 124.118 2.48684 124.876 2.48684Z" fill="#BDBDBD" fill-opacity="0.8"/>
<path d="M124.876 58.4408C125.634 58.4408 126.248 57.884 126.248 57.1974C126.248 56.5107 125.634 55.9539 124.876 55.9539C124.118 55.9539 123.504 56.5107 123.504 57.1974C123.504 57.884 124.118 58.4408 124.876 58.4408Z" fill="#BDBDBD" fill-opacity="0.8"/>
<path d="M124.876 114.395C125.634 114.395 126.248 113.838 126.248 113.151C126.248 112.465 125.634 111.908 124.876 111.908C124.118 111.908 123.504 112.465 123.504 113.151C123.504 113.838 124.118 114.395 124.876 114.395Z" fill="#BDBDBD" fill-opacity="0.8"/>
<path d="M124.876 170.349C125.634 170.349 126.248 169.792 126.248 169.105C126.248 168.419 125.634 167.862 124.876 167.862C124.118 167.862 123.504 168.419 123.504 169.105C123.504 169.792 124.118 170.349 124.876 170.349Z" fill="#BDBDBD" fill-opacity="0.8"/>
<path d="M124.876 21.1382C125.634 21.1382 126.248 20.5814 126.248 19.8947C126.248 19.2081 125.634 18.6513 124.876 18.6513C124.118 18.6513 123.504 19.2081 123.504 19.8947C123.504 20.5814 124.118 21.1382 124.876 21.1382Z" fill="#BDBDBD" fill-opacity="0.8"/>
<path d="M124.876 77.0921C125.634 77.0921 126.248 76.5354 126.248 75.8487C126.248 75.162 125.634 74.6053 124.876 74.6053C124.118 74.6053 123.504 75.162 123.504 75.8487C123.504 76.5354 124.118 77.0921 124.876 77.0921Z" fill="#BDBDBD" fill-opacity="0.8"/>
<path d="M124.876 133.046C125.634 133.046 126.248 132.489 126.248 131.803C126.248 131.116 125.634 130.559 124.876 130.559C124.118 130.559 123.504 131.116 123.504 131.803C123.504 132.489 124.118 133.046 124.876 133.046Z" fill="#BDBDBD" fill-opacity="0.8"/>
<path d="M124.876 189C125.634 189 126.248 188.443 126.248 187.757C126.248 187.07 125.634 186.513 124.876 186.513C124.118 186.513 123.504 187.07 123.504 187.757C123.504 188.443 124.118 189 124.876 189Z" fill="#BDBDBD" fill-opacity="0.8"/>
<path d="M124.876 39.7895C125.634 39.7895 126.248 39.2327 126.248 38.5461C126.248 37.8594 125.634 37.3026 124.876 37.3026C124.118 37.3026 123.504 37.8594 123.504 38.5461C123.504 39.2327 124.118 39.7895 124.876 39.7895Z" fill="#BDBDBD" fill-opacity="0.8"/>
<path d="M124.876 95.7434C125.634 95.7434 126.248 95.1867 126.248 94.5C126.248 93.8133 125.634 93.2566 124.876 93.2566C124.118 93.2566 123.504 93.8133 123.504 94.5C123.504 95.1867 124.118 95.7434 124.876 95.7434Z" fill="#BDBDBD" fill-opacity="0.8"/>
<path d="M124.876 151.697C125.634 151.697 126.248 151.141 126.248 150.454C126.248 149.767 125.634 149.211 124.876 149.211C124.118 149.211 123.504 149.767 123.504 150.454C123.504 151.141 124.118 151.697 124.876 151.697Z" fill="#BDBDBD" fill-opacity="0.8"/>
<path d="M146.832 1.24342C146.832 1.9301 146.218 2.48684 145.46 2.48684C144.702 2.48684 144.088 1.9301 144.088 1.24342C144.088 0.556747 144.702 0 145.46 0C146.218 0 146.832 0.556747 146.832 1.24342Z" fill="#BDBDBD" fill-opacity="0.8"/>
<path d="M146.832 57.1974C146.832 57.884 146.218 58.4408 145.46 58.4408C144.702 58.4408 144.088 57.884 144.088 57.1974C144.088 56.5107 144.702 55.9539 145.46 55.9539C146.218 55.9539 146.832 56.5107 146.832 57.1974Z" fill="#BDBDBD" fill-opacity="0.8"/>
<path d="M146.832 113.151C146.832 113.838 146.218 114.395 145.46 114.395C144.702 114.395 144.088 113.838 144.088 113.151C144.088 112.465 144.702 111.908 145.46 111.908C146.218 111.908 146.832 112.465 146.832 113.151Z" fill="#BDBDBD" fill-opacity="0.8"/>
<path d="M146.832 169.105C146.832 169.792 146.218 170.349 145.46 170.349C144.702 170.349 144.088 169.792 144.088 169.105C144.088 168.419 144.702 167.862 145.46 167.862C146.218 167.862 146.832 168.419 146.832 169.105Z" fill="#BDBDBD" fill-opacity="0.8"/>
<path d="M146.832 19.8947C146.832 20.5814 146.218 21.1382 145.46 21.1382C144.702 21.1382 144.088 20.5814 144.088 19.8947C144.088 19.2081 144.702 18.6513 145.46 18.6513C146.218 18.6513 146.832 19.2081 146.832 19.8947Z" fill="#BDBDBD" fill-opacity="0.8"/>
<path d="M146.832 75.8487C146.832 76.5354 146.218 77.0921 145.46 77.0921C144.702 77.0921 144.088 76.5354 144.088 75.8487C144.088 75.162 144.702 74.6053 145.46 74.6053C146.218 74.6053 146.832 75.162 146.832 75.8487Z" fill="#BDBDBD" fill-opacity="0.8"/>
<path d="M146.832 131.803C146.832 132.489 146.218 133.046 145.46 133.046C144.702 133.046 144.088 132.489 144.088 131.803C144.088 131.116 144.702 130.559 145.46 130.559C146.218 130.559 146.832 131.116 146.832 131.803Z" fill="#BDBDBD" fill-opacity="0.8"/>
<path d="M146.832 187.757C146.832 188.443 146.218 189 145.46 189C144.702 189 144.088 188.443 144.088 187.757C144.088 187.07 144.702 186.513 145.46 186.513C146.218 186.513 146.832 187.07 146.832 187.757Z" fill="#BDBDBD" fill-opacity="0.8"/>
<path d="M146.832 38.5461C146.832 39.2327 146.218 39.7895 145.46 39.7895C144.702 39.7895 144.088 39.2327 144.088 38.5461C144.088 37.8594 144.702 37.3026 145.46 37.3026C146.218 37.3026 146.832 37.8594 146.832 38.5461Z" fill="#BDBDBD" fill-opacity="0.8"/>
<path d="M146.832 94.5C146.832 95.1867 146.218 95.7434 145.46 95.7434C144.702 95.7434 144.088 95.1867 144.088 94.5C144.088 93.8133 144.702 93.2566 145.46 93.2566C146.218 93.2566 146.832 93.8133 146.832 94.5Z" fill="#BDBDBD" fill-opacity="0.8"/>
<path d="M146.832 150.454C146.832 151.141 146.218 151.697 145.46 151.697C144.702 151.697 144.088 151.141 144.088 150.454C144.088 149.767 144.702 149.211 145.46 149.211C146.218 149.211 146.832 149.767 146.832 150.454Z" fill="#BDBDBD" fill-opacity="0.8"/>
<path d="M166.044 2.48684C166.802 2.48684 167.416 1.9301 167.416 1.24342C167.416 0.556747 166.802 0 166.044 0C165.286 0 164.672 0.556747 164.672 1.24342C164.672 1.9301 165.286 2.48684 166.044 2.48684Z" fill="#BDBDBD" fill-opacity="0.8"/>
<path d="M166.044 58.4408C166.802 58.4408 167.416 57.884 167.416 57.1974C167.416 56.5107 166.802 55.9539 166.044 55.9539C165.286 55.9539 164.672 56.5107 164.672 57.1974C164.672 57.884 165.286 58.4408 166.044 58.4408Z" fill="#BDBDBD" fill-opacity="0.8"/>
<path d="M166.044 114.395C166.802 114.395 167.416 113.838 167.416 113.151C167.416 112.465 166.802 111.908 166.044 111.908C165.286 111.908 164.672 112.465 164.672 113.151C164.672 113.838 165.286 114.395 166.044 114.395Z" fill="#BDBDBD" fill-opacity="0.8"/>
<path d="M166.044 170.349C166.802 170.349 167.416 169.792 167.416 169.105C167.416 168.419 166.802 167.862 166.044 167.862C165.286 167.862 164.672 168.419 164.672 169.105C164.672 169.792 165.286 170.349 166.044 170.349Z" fill="#BDBDBD" fill-opacity="0.8"/>
<path d="M166.044 21.1382C166.802 21.1382 167.416 20.5814 167.416 19.8947C167.416 19.2081 166.802 18.6513 166.044 18.6513C165.286 18.6513 164.672 19.2081 164.672 19.8947C164.672 20.5814 165.286 21.1382 166.044 21.1382Z" fill="#BDBDBD" fill-opacity="0.8"/>
<path d="M166.044 77.0921C166.802 77.0921 167.416 76.5354 167.416 75.8487C167.416 75.162 166.802 74.6053 166.044 74.6053C165.286 74.6053 164.672 75.162 164.672 75.8487C164.672 76.5354 165.286 77.0921 166.044 77.0921Z" fill="#BDBDBD" fill-opacity="0.8"/>
<path d="M166.044 133.046C166.802 133.046 167.416 132.489 167.416 131.803C167.416 131.116 166.802 130.559 166.044 130.559C165.286 130.559 164.672 131.116 164.672 131.803C164.672 132.489 165.286 133.046 166.044 133.046Z" fill="#BDBDBD" fill-opacity="0.8"/>
<path d="M166.044 189C166.802 189 167.416 188.443 167.416 187.757C167.416 187.07 166.802 186.513 166.044 186.513C165.286 186.513 164.672 187.07 164.672 187.757C164.672 188.443 165.286 189 166.044 189Z" fill="#BDBDBD" fill-opacity="0.8"/>
<path d="M166.044 39.7895C166.802 39.7895 167.416 39.2327 167.416 38.5461C167.416 37.8594 166.802 37.3026 166.044 37.3026C165.286 37.3026 164.672 37.8594 164.672 38.5461C164.672 39.2327 165.286 39.7895 166.044 39.7895Z" fill="#BDBDBD" fill-opacity="0.8"/>
<path d="M166.044 95.7434C166.802 95.7434 167.416 95.1867 167.416 94.5C167.416 93.8133 166.802 93.2566 166.044 93.2566C165.286 93.2566 164.672 93.8133 164.672 94.5C164.672 95.1867 165.286 95.7434 166.044 95.7434Z" fill="#BDBDBD" fill-opacity="0.8"/>
<path d="M166.044 151.697C166.802 151.697 167.416 151.141 167.416 150.454C167.416 149.767 166.802 149.211 166.044 149.211C165.286 149.211 164.672 149.767 164.672 150.454C164.672 151.141 165.286 151.697 166.044 151.697Z" fill="#BDBDBD" fill-opacity="0.8"/>
<path d="M188 1.24342C188 1.9301 187.386 2.48684 186.628 2.48684C185.87 2.48684 185.255 1.9301 185.255 1.24342C185.255 0.556747 185.87 0 186.628 0C187.386 0 188 0.556747 188 1.24342Z" fill="#BDBDBD" fill-opacity="0.8"/>
<path d="M188 57.1974C188 57.884 187.386 58.4408 186.628 58.4408C185.87 58.4408 185.255 57.884 185.255 57.1974C185.255 56.5107 185.87 55.9539 186.628 55.9539C187.386 55.9539 188 56.5107 188 57.1974Z" fill="#BDBDBD" fill-opacity="0.8"/>
<path d="M188 113.151C188 113.838 187.386 114.395 186.628 114.395C185.87 114.395 185.255 113.838 185.255 113.151C185.255 112.465 185.87 111.908 186.628 111.908C187.386 111.908 188 112.465 188 113.151Z" fill="#BDBDBD" fill-opacity="0.8"/>
<path d="M188 169.105C188 169.792 187.386 170.349 186.628 170.349C185.87 170.349 185.255 169.792 185.255 169.105C185.255 168.419 185.87 167.862 186.628 167.862C187.386 167.862 188 168.419 188 169.105Z" fill="#BDBDBD" fill-opacity="0.8"/>
<path d="M188 19.8947C188 20.5814 187.386 21.1382 186.628 21.1382C185.87 21.1382 185.255 20.5814 185.255 19.8947C185.255 19.2081 185.87 18.6513 186.628 18.6513C187.386 18.6513 188 19.2081 188 19.8947Z" fill="#BDBDBD" fill-opacity="0.8"/>
<path d="M188 75.8487C188 76.5354 187.386 77.0921 186.628 77.0921C185.87 77.0921 185.255 76.5354 185.255 75.8487C185.255 75.162 185.87 74.6053 186.628 74.6053C187.386 74.6053 188 75.162 188 75.8487Z" fill="#BDBDBD" fill-opacity="0.8"/>
<path d="M188 131.803C188 132.489 187.386 133.046 186.628 133.046C185.87 133.046 185.255 132.489 185.255 131.803C185.255 131.116 185.87 130.559 186.628 130.559C187.386 130.559 188 131.116 188 131.803Z" fill="#BDBDBD" fill-opacity="0.8"/>
<path d="M188 187.757C188 188.443 187.386 189 186.628 189C185.87 189 185.255 188.443 185.255 187.757C185.255 187.07 185.87 186.513 186.628 186.513C187.386 186.513 188 187.07 188 187.757Z" fill="#BDBDBD" fill-opacity="0.8"/>
<path d="M188 38.5461C188 39.2327 187.386 39.7895 186.628 39.7895C185.87 39.7895 185.255 39.2327 185.255 38.5461C185.255 37.8594 185.87 37.3026 186.628 37.3026C187.386 37.3026 188 37.8594 188 38.5461Z" fill="#BDBDBD" fill-opacity="0.8"/>
<path d="M188 94.5C188 95.1867 187.386 95.7434 186.628 95.7434C185.87 95.7434 185.255 95.1867 185.255 94.5C185.255 93.8133 185.87 93.2566 186.628 93.2566C187.386 93.2566 188 93.8133 188 94.5Z" fill="#BDBDBD" fill-opacity="0.8"/>
<path d="M188 150.454C188 151.141 187.386 151.697 186.628 151.697C185.87 151.697 185.255 151.141 185.255 150.454C185.255 149.767 185.87 149.211 186.628 149.211C187.386 149.211 188 149.767 188 150.454Z" fill="#BDBDBD" fill-opacity="0.8"/>
</svg>
