<svg width="206" height="559" viewBox="0 0 206 559" fill="none" xmlns="http://www.w3.org/2000/svg">
<path d="M111.036 162.384L42.0673 122.382L45.3282 116.709L114.294 156.708L114.723 156.957L114.975 156.53C134.997 122.688 163.18 94.3341 196.871 74.2207L197.293 73.9686L197.048 73.5422L157.242 4.28688L162.888 1.01246L204.562 73.5198L204.563 73.5204C204.997 74.2736 205.114 75.1704 204.887 76.0125C204.66 76.855 204.11 77.5704 203.359 78.0027C168.147 98.2629 138.875 127.667 118.693 163.062C98.3578 198.129 87.6099 238.333 87.6099 279.329C87.6099 320.327 98.3579 360.533 118.707 395.622C138.877 430.993 168.149 460.397 203.359 480.656L203.36 480.656C204.11 481.086 204.66 481.802 204.887 482.645C205.112 483.486 204.996 484.385 204.563 485.135L204.562 485.136L162.888 557.644L157.242 554.369L197.048 485.112L197.293 484.686L196.871 484.434C163.176 464.318 134.987 435.958 114.975 402.128L114.723 401.701L114.294 401.95L45.3283 441.95L42.0673 436.274L111.036 396.273L111.462 396.026L111.222 395.596C92.1248 361.402 81.7729 322.671 81.1529 283.093L81.1452 282.601H80.653H1V276.053H80.653H81.1452L81.1529 275.561C81.7729 235.978 92.1287 197.24 111.222 163.06L111.462 162.631L111.036 162.384Z" fill="#EDEDED" stroke="white"/>
<path d="M154 128.328C162.56 128.328 169.5 121.389 169.5 112.828C169.5 104.268 162.56 97.3281 154 97.3281C145.44 97.3281 138.5 104.268 138.5 112.828C138.5 121.389 145.44 128.328 154 128.328Z" fill="url(#paint0_linear_64_7)"/>
<path d="M93 233.328C101.56 233.328 108.5 226.612 108.5 218.328C108.5 210.044 101.56 203.328 93 203.328C84.4396 203.328 77.5 210.044 77.5 218.328C77.5 226.612 84.4396 233.328 93 233.328Z" fill="url(#paint1_linear_64_7)"/>
<path d="M93 355.328C101.56 355.328 108.5 348.389 108.5 339.828C108.5 331.268 101.56 324.328 93 324.328C84.4396 324.328 77.5 331.268 77.5 339.828C77.5 348.389 84.4396 355.328 93 355.328Z" fill="url(#paint2_linear_64_7)"/>
<path d="M154 461.328C162.56 461.328 169.5 454.612 169.5 446.328C169.5 438.044 162.56 431.328 154 431.328C145.44 431.328 138.5 438.044 138.5 446.328C138.5 454.612 145.44 461.328 154 461.328Z" fill="url(#paint3_linear_64_7)"/>
<defs>
<linearGradient id="paint0_linear_64_7" x1="169.5" y1="112.829" x2="138.501" y2="112.829" gradientUnits="userSpaceOnUse">
<stop stop-color="#39A5E0"/>
<stop offset="1" stop-color="#B8E2FF"/>
</linearGradient>
<linearGradient id="paint1_linear_64_7" x1="108.503" y1="218.329" x2="77.496" y2="218.329" gradientUnits="userSpaceOnUse">
<stop stop-color="#3976E0"/>
<stop offset="1" stop-color="#B8CEFF"/>
</linearGradient>
<linearGradient id="paint2_linear_64_7" x1="108.504" y1="339.828" x2="77.497" y2="339.828" gradientUnits="userSpaceOnUse">
<stop stop-color="#6839E0"/>
<stop offset="1" stop-color="#CEB8FF"/>
</linearGradient>
<linearGradient id="paint3_linear_64_7" x1="169.5" y1="446.327" x2="138.501" y2="446.327" gradientUnits="userSpaceOnUse">
<stop stop-color="#BC39E0"/>
<stop offset="1" stop-color="#F3B8FF"/>
</linearGradient>
</defs>
</svg>
