<svg width="206" height="559" viewBox="0 0 206 559" fill="none" xmlns="http://www.w3.org/2000/svg">
<path d="M94.9636 396.273L163.933 436.274L160.672 441.95L91.7062 401.95L91.2774 401.701L91.025 402.128C71.0132 435.958 42.8239 464.318 9.12896 484.434L8.70669 484.686L8.95176 485.112L48.7583 554.369L43.1121 557.644L1.43779 485.136L1.43724 485.135C1.00384 484.385 0.888096 483.487 1.11327 482.645C1.34034 481.802 1.89015 481.086 2.63996 480.656L2.6406 480.656C37.8515 460.397 67.1234 430.993 87.2926 395.622C107.642 360.533 118.39 320.327 118.39 279.329C118.39 238.333 107.642 198.129 87.3065 163.062C67.1254 127.667 37.8535 98.2629 2.64061 78.0026C1.88963 77.5703 1.34003 76.855 1.11317 76.0125C0.886425 75.1704 1.00335 74.2736 1.43749 73.5204L1.43779 73.5198L43.1121 1.01247L48.7583 4.28688L8.95176 73.5422L8.70669 73.9686L9.12896 74.2207C42.82 94.3341 71.0033 122.688 91.025 156.53L91.2774 156.957L91.7062 156.708L160.672 116.709L163.933 122.382L94.9636 162.384L94.5381 162.631L94.778 163.06C113.871 197.24 124.227 235.978 124.847 275.561L124.855 276.053H125.347H205V282.601H125.347H124.855L124.847 283.093C124.227 322.671 113.875 361.402 94.778 395.596L94.5381 396.026L94.9636 396.273Z" fill="#EDEDED" stroke="white"/>
<path d="M53 128.328C61.5604 128.328 68.5 121.389 68.5 112.828C68.5 104.268 61.5604 97.3281 53 97.3281C44.4396 97.3281 37.5 104.268 37.5 112.828C37.5 121.389 44.4396 128.328 53 128.328Z" fill="url(#paint0_linear_64_13)"/>
<path d="M113.5 233.328C122.337 233.328 129.5 226.612 129.5 218.328C129.5 210.044 122.337 203.328 113.5 203.328C104.663 203.328 97.5 210.044 97.5 218.328C97.5 226.612 104.663 233.328 113.5 233.328Z" fill="url(#paint1_linear_64_13)"/>
<path d="M113.5 355.328C122.337 355.328 129.5 348.389 129.5 339.828C129.5 331.268 122.337 324.328 113.5 324.328C104.663 324.328 97.5 331.268 97.5 339.828C97.5 348.389 104.663 355.328 113.5 355.328Z" fill="url(#paint2_linear_64_13)"/>
<path d="M53 461.328C61.5604 461.328 68.5 454.612 68.5 446.328C68.5 438.044 61.5604 431.328 53 431.328C44.4396 431.328 37.5 438.044 37.5 446.328C37.5 454.612 44.4396 461.328 53 461.328Z" fill="url(#paint3_linear_64_13)"/>
<defs>
<linearGradient id="paint0_linear_64_13" x1="37.5006" y1="112.829" x2="68.4996" y2="112.829" gradientUnits="userSpaceOnUse">
<stop stop-color="#39A5E0"/>
<stop offset="1" stop-color="#B8E2FF"/>
</linearGradient>
<linearGradient id="paint1_linear_64_13" x1="97.4957" y1="218.329" x2="129.503" y2="218.329" gradientUnits="userSpaceOnUse">
<stop stop-color="#3976E0"/>
<stop offset="1" stop-color="#B8CEFF"/>
</linearGradient>
<linearGradient id="paint2_linear_64_13" x1="97.4969" y1="339.828" x2="129.504" y2="339.828" gradientUnits="userSpaceOnUse">
<stop stop-color="#6839E0"/>
<stop offset="1" stop-color="#CEB8FF"/>
</linearGradient>
<linearGradient id="paint3_linear_64_13" x1="37.5006" y1="446.327" x2="68.4998" y2="446.327" gradientUnits="userSpaceOnUse">
<stop stop-color="#BC39E0"/>
<stop offset="1" stop-color="#F3B8FF"/>
</linearGradient>
</defs>
</svg>
