<svg width="272" height="73" viewBox="0 0 272 73" fill="none" xmlns="http://www.w3.org/2000/svg">
<path d="M25.6895 14.707V31.9541L32.1397 25.9042V21.1572C32.149 17.5924 29.2543 14.707 25.6895 14.707Z" fill="#CC2E6E"/>
<path d="M32.1495 57.8742V37.7324L25.6992 43.7173V51.424C25.6899 54.9888 28.5846 57.8742 32.1495 57.8742Z" fill="#CC2E6E"/>
<path d="M13.3127 32.4085C15.1277 35.5545 15.5931 38.5609 14.9508 41.195C15.9654 39.3893 16.5331 37.3137 16.5331 35.1077C16.5331 28.3038 11.0789 22.7472 4.31219 22.5703H4.04226C2.26449 22.5703 0.8125 24.013 0.8125 25.8001C0.8125 27.5778 2.25518 29.0298 4.04226 29.0298H7.44887C9.86887 29.0298 12.1027 30.3236 13.3127 32.4085Z" fill="url(#paint0_linear_2056_3341)"/>
<path d="M52.4798 14.5284C48.4496 14.5284 44.7545 15.999 41.9063 18.4283L41.8598 18.4748C41.5433 18.7448 41.2455 19.024 40.9476 19.3125L32.1519 27.466V27.373L25.7017 33.423V33.4416L23.6261 35.3683L23.5423 35.4427L23.1979 35.7592L21.6063 37.2391C20.992 31.1426 17.0176 26.0327 11.5726 23.7802C15.2212 26.2281 17.6226 30.3793 17.6226 35.0983C17.6226 38.5329 16.3474 41.6789 14.2346 44.0709L12.5406 45.6346L12.1683 45.979L11.6005 46.5095C11.5912 46.5189 11.5912 46.5189 11.5819 46.5282C9.88792 47.9057 7.72856 48.7248 5.38302 48.7248H4.05202C2.27426 48.7248 0.822266 50.1675 0.822266 51.9545C0.822266 53.7323 2.26495 55.1843 4.05202 55.1843H5.38302C9.36671 55.1843 13.0246 53.7509 15.8634 51.3681C15.8728 51.3588 15.8914 51.3495 15.9007 51.3402C16.2916 51.0145 16.6639 50.6701 17.0176 50.3071L17.0362 50.2885L25.711 42.2466V42.2559L29.4899 38.7469L32.1612 36.2618L34.2089 34.363L36.2659 32.455C36.8709 38.5515 40.8452 43.6707 46.2995 45.9139C42.6602 43.4659 40.2589 39.3147 40.2589 34.605C40.2589 31.1519 41.5526 27.9966 43.6841 25.5859L45.4246 23.9757L45.6759 23.743L46.2065 23.2497C47.9191 21.8256 50.1157 20.9693 52.5077 20.9693H53.8387C55.6165 20.9693 57.0685 19.5266 57.0685 17.7395C57.0685 15.9618 55.6258 14.5098 53.8387 14.5098H52.4798V14.5284Z" fill="url(#paint1_linear_2056_3341)"/>
<path d="M42.6214 30.8371C42.6214 30.0367 42.7145 29.2548 42.9007 28.5195C41.8954 30.3252 41.3184 32.4008 41.3184 34.6161C41.3184 41.42 46.7727 46.9766 53.5393 47.1535H53.8092C55.587 47.1535 57.039 45.7108 57.039 43.9237C57.039 42.146 55.5963 40.694 53.8092 40.694H52.4783C47.0426 40.694 42.6214 36.2728 42.6214 30.8371Z" fill="url(#paint2_linear_2056_3341)"/>
<path d="M94.2179 49L87.3865 36.9341H84.4587V49H78.2483V18.0367H89.8707C92.2661 18.0367 94.3067 18.4655 95.9923 19.3232C97.678 20.1512 98.9349 21.2898 99.7629 22.7389C100.621 24.1584 101.049 25.7554 101.049 27.5298C101.049 29.5703 100.458 31.4187 99.275 33.0748C98.092 34.7013 96.3324 35.8251 93.9961 36.4461L101.404 49H94.2179ZM84.4587 32.2763H89.6489C91.3345 32.2763 92.5914 31.877 93.4195 31.0786C94.2475 30.2505 94.6615 29.1119 94.6615 27.6628C94.6615 26.2433 94.2475 25.1491 93.4195 24.3802C92.5914 23.5817 91.3345 23.1825 89.6489 23.1825H84.4587V32.2763ZM112.877 18.0367V49H106.666V18.0367H112.877ZM140.572 27.3523C139.862 26.0511 138.886 25.0604 137.644 24.3802C136.402 23.7 134.953 23.3599 133.297 23.3599C131.463 23.3599 129.837 23.7739 128.417 24.602C126.998 25.4301 125.889 26.613 125.09 28.1508C124.292 29.6886 123.892 31.463 123.892 33.474C123.892 35.5441 124.292 37.3481 125.09 38.8859C125.918 40.4237 127.057 41.6067 128.506 42.4347C129.955 43.2628 131.641 43.6768 133.563 43.6768C135.929 43.6768 137.866 43.0558 139.374 41.8137C140.882 40.542 141.873 38.7824 142.346 36.5348H131.7V31.7883H148.468V37.2002C148.054 39.3591 147.167 41.3553 145.806 43.1888C144.446 45.0224 142.686 46.5011 140.527 47.6248C138.398 48.7191 136.003 49.2662 133.341 49.2662C130.354 49.2662 127.648 48.6008 125.223 47.27C122.828 45.9096 120.935 44.0317 119.545 41.6362C118.185 39.2408 117.505 36.5201 117.505 33.474C117.505 30.4279 118.185 27.7072 119.545 25.3118C120.935 22.8867 122.828 21.0088 125.223 19.678C127.648 18.3177 130.339 17.6375 133.297 17.6375C136.786 17.6375 139.818 18.4951 142.39 20.2104C144.963 21.896 146.738 24.2767 147.714 27.3523H140.572ZM180.876 18.0367L169.52 49H161.979L150.623 18.0367H157.277L165.794 42.6565L174.267 18.0367H180.876ZM190.81 23.0494V30.8124H201.235V35.7364H190.81V43.943H202.566V49H184.6V17.9924H202.566V23.0494H190.81ZM219.033 18.0367C222.286 18.0367 225.14 18.6725 227.595 19.9442C230.079 21.2159 231.986 23.0346 233.317 25.4005C234.677 27.7368 235.358 30.4575 235.358 33.5627C235.358 36.6679 234.677 39.3887 233.317 41.725C231.986 44.0317 230.079 45.8209 227.595 47.0925C225.14 48.3642 222.286 49 219.033 49H208.209V18.0367H219.033ZM218.811 43.7212C222.064 43.7212 224.578 42.834 226.353 41.0596C228.127 39.2852 229.014 36.7862 229.014 33.5627C229.014 30.3392 228.127 27.8255 226.353 26.0215C224.578 24.188 222.064 23.2712 218.811 23.2712H214.42V43.7212H218.811Z" fill="#1D3499"/>
<path d="M243.651 17.754V49H240.522V17.754H243.651ZM269.019 17.754V20.3466H260.347V49H257.218V20.3466H248.501V17.754H269.019Z" fill="#CC2E6E"/>
<path d="M79.7065 69.1777H78.4129L82.1545 58.988H83.4282L87.1697 69.1777H85.8761L82.8311 60.6001H82.7515L79.7065 69.1777ZM80.1842 65.1974H85.3984V66.292H80.1842V65.1974ZM92.6974 69.1777V58.988H96.1404C96.9365 58.988 97.5899 59.124 98.1007 59.396C98.6115 59.6647 98.9897 60.0345 99.2351 60.5055C99.4806 60.9766 99.6033 61.5122 99.6033 62.1126C99.6033 62.713 99.4806 63.2454 99.2351 63.7097C98.9897 64.1741 98.6132 64.539 98.1057 64.8043C97.5982 65.0664 96.9497 65.1974 96.1603 65.1974H93.3741V64.0829H96.1205C96.6645 64.0829 97.1023 64.0033 97.434 63.8441C97.769 63.6848 98.0112 63.4593 98.1604 63.1674C98.313 62.8722 98.3893 62.5206 98.3893 62.1126C98.3893 61.7046 98.313 61.3481 98.1604 61.0429C98.0079 60.7377 97.7641 60.5022 97.429 60.3364C97.094 60.1672 96.6512 60.0826 96.1006 60.0826H93.9313V69.1777H92.6974ZM97.4937 64.6003L100.001 69.1777H98.5684L96.1006 64.6003H97.4937ZM102.893 58.988V69.1777H101.659V58.988H102.893ZM112.333 62.1723C112.224 61.8373 112.079 61.5371 111.9 61.2718C111.724 61.0031 111.514 60.7742 111.268 60.5851C111.026 60.3961 110.751 60.2518 110.442 60.1523C110.134 60.0528 109.796 60.003 109.427 60.003C108.824 60.003 108.275 60.1589 107.78 60.4707C107.286 60.7825 106.893 61.2419 106.601 61.8489C106.309 62.4559 106.163 63.2006 106.163 64.0829C106.163 64.9652 106.311 65.7099 106.606 66.3169C106.901 66.9239 107.301 67.3833 107.805 67.6951C108.31 68.0068 108.877 68.1627 109.507 68.1627C110.091 68.1627 110.605 68.0384 111.049 67.7896C111.497 67.5375 111.845 67.1826 112.094 66.7248C112.346 66.2638 112.472 65.7215 112.472 65.0979L112.85 65.1775H109.786V64.0829H113.666V65.1775C113.666 66.0167 113.487 66.7464 113.129 67.3667C112.774 67.9869 112.283 68.4679 111.656 68.8096C111.033 69.1479 110.316 69.317 109.507 69.317C108.605 69.317 107.812 69.1048 107.129 68.6802C106.449 68.2556 105.918 67.6519 105.537 66.8691C105.158 66.0863 104.969 65.1576 104.969 64.0829C104.969 63.2769 105.077 62.5521 105.293 61.9086C105.512 61.2618 105.82 60.7112 106.218 60.2568C106.616 59.8023 107.087 59.4541 107.631 59.2119C108.175 58.9698 108.774 58.8487 109.427 58.8487C109.965 58.8487 110.466 58.93 110.93 59.0925C111.398 59.2517 111.814 59.4789 112.179 59.7742C112.547 60.066 112.854 60.416 113.099 60.824C113.345 61.2286 113.514 61.6781 113.607 62.1723H112.333ZM115.883 58.988L118.908 67.5657H119.027L122.053 58.988H123.346L119.605 69.1777H118.331L114.589 58.988H115.883ZM124.933 69.1777V58.988H131.083V60.0826H126.167V63.5256H130.764V64.6202H126.167V68.0831H131.163V69.1777H124.933ZM136.451 69.1777H133.307V58.988H136.591C137.579 58.988 138.425 59.192 139.128 59.6C139.831 60.0047 140.37 60.5868 140.745 61.3464C141.12 62.1027 141.307 63.0082 141.307 64.063C141.307 65.1244 141.118 66.0382 140.74 66.8044C140.362 67.5674 139.812 68.1545 139.088 68.5658C138.365 68.9737 137.486 69.1777 136.451 69.1777ZM134.541 68.0831H136.372C137.214 68.0831 137.913 67.9206 138.466 67.5955C139.02 67.2705 139.433 66.8078 139.705 66.2074C139.977 65.607 140.113 64.8922 140.113 64.063C140.113 63.2404 139.979 62.5322 139.71 61.9385C139.442 61.3414 139.04 60.8837 138.506 60.5652C137.972 60.2435 137.307 60.0826 136.511 60.0826H134.541V68.0831ZM146.761 60.0826V58.988H154.403V60.0826H151.199V69.1777H149.965V60.0826H146.761ZM156.307 69.1777V58.988H162.457V60.0826H157.541V63.5256H162.138V64.6202H157.541V68.0831H162.536V69.1777H156.307ZM172.88 62.1723H171.646C171.573 61.8174 171.446 61.5056 171.263 61.2369C171.084 60.9683 170.865 60.7427 170.607 60.5603C170.351 60.3745 170.068 60.2352 169.756 60.1423C169.444 60.0495 169.119 60.003 168.781 60.003C168.164 60.003 167.605 60.1589 167.104 60.4707C166.606 60.7825 166.21 61.2419 165.915 61.8489C165.623 62.4559 165.477 63.2006 165.477 64.0829C165.477 64.9652 165.623 65.7099 165.915 66.3169C166.21 66.9239 166.606 67.3833 167.104 67.6951C167.605 68.0068 168.164 68.1627 168.781 68.1627C169.119 68.1627 169.444 68.1163 169.756 68.0234C170.068 67.9306 170.351 67.7929 170.607 67.6105C170.865 67.4247 171.084 67.1975 171.263 66.9288C171.446 66.6568 171.573 66.3451 171.646 65.9935H172.88C172.787 66.5142 172.618 66.9802 172.373 67.3916C172.127 67.8029 171.822 68.1528 171.457 68.4414C171.093 68.7266 170.683 68.9439 170.228 69.0932C169.777 69.2424 169.295 69.317 168.781 69.317C167.912 69.317 167.139 69.1048 166.462 68.6802C165.785 68.2556 165.253 67.6519 164.865 66.8691C164.477 66.0863 164.283 65.1576 164.283 64.0829C164.283 63.0082 164.477 62.0794 164.865 61.2966C165.253 60.5138 165.785 59.9101 166.462 59.4856C167.139 59.061 167.912 58.8487 168.781 58.8487C169.295 58.8487 169.777 58.9234 170.228 59.0726C170.683 59.2219 171.093 59.4408 171.457 59.7294C171.822 60.0146 172.127 60.3629 172.373 60.7742C172.618 61.1822 172.787 61.6482 172.88 62.1723ZM174.874 69.1777V58.988H176.108V63.5256H181.541V58.988H182.775V69.1777H181.541V64.6202H176.108V69.1777H174.874ZM197.386 62.1723H196.152C196.079 61.8174 195.951 61.5056 195.769 61.2369C195.59 60.9683 195.371 60.7427 195.112 60.5603C194.856 60.3745 194.573 60.2352 194.261 60.1423C193.949 60.0495 193.624 60.003 193.286 60.003C192.669 60.003 192.11 60.1589 191.609 60.4707C191.112 60.7825 190.715 61.2419 190.42 61.8489C190.128 62.4559 189.982 63.2006 189.982 64.0829C189.982 64.9652 190.128 65.7099 190.42 66.3169C190.715 66.9239 191.112 67.3833 191.609 67.6951C192.11 68.0068 192.669 68.1627 193.286 68.1627C193.624 68.1627 193.949 68.1163 194.261 68.0234C194.573 67.9306 194.856 67.7929 195.112 67.6105C195.371 67.4247 195.59 67.1975 195.769 66.9288C195.951 66.6568 196.079 66.3451 196.152 65.9935H197.386C197.293 66.5142 197.124 66.9802 196.878 67.3916C196.633 67.8029 196.328 68.1528 195.963 68.4414C195.598 68.7266 195.188 68.9439 194.734 69.0932C194.283 69.2424 193.8 69.317 193.286 69.317C192.417 69.317 191.644 69.1048 190.967 68.6802C190.291 68.2556 189.758 67.6519 189.37 66.8691C188.982 66.0863 188.788 65.1576 188.788 64.0829C188.788 63.0082 188.982 62.0794 189.37 61.2966C189.758 60.5138 190.291 59.9101 190.967 59.4856C191.644 59.061 192.417 58.8487 193.286 58.8487C193.8 58.8487 194.283 58.9234 194.734 59.0726C195.188 59.2219 195.598 59.4408 195.963 59.7294C196.328 60.0146 196.633 60.3629 196.878 60.7742C197.124 61.1822 197.293 61.6482 197.386 62.1723ZM207.977 64.0829C207.977 65.1576 207.783 66.0863 207.395 66.8691C207.007 67.6519 206.475 68.2556 205.798 68.6802C205.121 69.1048 204.348 69.317 203.479 69.317C202.61 69.317 201.837 69.1048 201.161 68.6802C200.484 68.2556 199.952 67.6519 199.564 66.8691C199.176 66.0863 198.982 65.1576 198.982 64.0829C198.982 63.0082 199.176 62.0794 199.564 61.2966C199.952 60.5138 200.484 59.9101 201.161 59.4856C201.837 59.061 202.61 58.8487 203.479 58.8487C204.348 58.8487 205.121 59.061 205.798 59.4856C206.475 59.9101 207.007 60.5138 207.395 61.2966C207.783 62.0794 207.977 63.0082 207.977 64.0829ZM206.783 64.0829C206.783 63.2006 206.635 62.4559 206.34 61.8489C206.048 61.2419 205.652 60.7825 205.151 60.4707C204.654 60.1589 204.096 60.003 203.479 60.003C202.862 60.003 202.303 60.1589 201.803 60.4707C201.305 60.7825 200.909 61.2419 200.613 61.8489C200.322 62.4559 200.176 63.2006 200.176 64.0829C200.176 64.9652 200.322 65.7099 200.613 66.3169C200.909 66.9239 201.305 67.3833 201.803 67.6951C202.303 68.0068 202.862 68.1627 203.479 68.1627C204.096 68.1627 204.654 68.0068 205.151 67.6951C205.652 67.3833 206.048 66.9239 206.34 66.3169C206.635 65.7099 206.783 64.9652 206.783 64.0829ZM210.052 58.988H211.525L214.987 67.4463H215.107L218.57 58.988H220.043V69.1777H218.888V61.436H218.789L215.604 69.1777H214.49L211.306 61.436H211.206V69.1777H210.052V58.988ZM222.517 69.1777V58.988H225.96C226.759 58.988 227.412 59.1323 227.92 59.4209C228.431 59.7062 228.809 60.0926 229.054 60.5802C229.3 61.0678 229.422 61.6117 229.422 62.2121C229.422 62.8125 229.3 63.3581 229.054 63.849C228.812 64.3399 228.437 64.7313 227.93 65.0232C227.422 65.3118 226.772 65.4561 225.979 65.4561H223.512V64.3615H225.94C226.487 64.3615 226.926 64.267 227.258 64.0779C227.59 63.8888 227.83 63.6334 227.98 63.3117C228.132 62.9866 228.208 62.6201 228.208 62.2121C228.208 61.8041 228.132 61.4393 227.98 61.1175C227.83 60.7958 227.588 60.5437 227.253 60.3613C226.918 60.1755 226.474 60.0826 225.92 60.0826H223.75V69.1777H222.517ZM230.788 69.1777H229.495L233.236 58.988H234.51L238.251 69.1777H236.958L233.913 60.6001H233.833L230.788 69.1777ZM231.266 65.1974H236.48V66.292H231.266V65.1974ZM247.919 58.988V69.1777H246.725L241.172 61.1772H241.072V69.1777H239.839V58.988H241.033L246.605 67.0084H246.705V58.988H247.919ZM249.512 58.988H250.925L253.751 63.7446H253.871L256.697 58.988H258.11L254.428 64.9785V69.1777H253.194V64.9785L249.512 58.988Z" fill="#0096E7"/>
<defs>
<linearGradient id="paint0_linear_2056_3341" x1="15.0444" y1="34.9048" x2="3.87635" y2="23.7367" gradientUnits="userSpaceOnUse">
<stop stop-color="#F2B45C"/>
<stop offset="1" stop-color="#ED1C24"/>
</linearGradient>
<linearGradient id="paint1_linear_2056_3341" x1="3.40354" y1="52.3432" x2="56.5834" y2="15.9051" gradientUnits="userSpaceOnUse">
<stop stop-color="#6811CE"/>
<stop offset="0.257" stop-color="#F44940"/>
<stop offset="0.486" stop-color="#FFB243"/>
<stop offset="0.7263" stop-color="#F44940"/>
<stop offset="1" stop-color="#6811CE"/>
</linearGradient>
<linearGradient id="paint2_linear_2056_3341" x1="43.2875" y1="35.7353" x2="53.9406" y2="42.6598" gradientUnits="userSpaceOnUse">
<stop stop-color="#F2B45C"/>
<stop offset="1" stop-color="#ED1C24"/>
</linearGradient>
</defs>
</svg>
