<svg width="228" height="207" viewBox="0 0 228 207" fill="none" xmlns="http://www.w3.org/2000/svg">
<rect width="228" height="207" fill="white"/>
<path d="M82.8254 95.0021V123.421C82.8448 125.616 84.0416 126.647 85.7787 126.781H96.279C96.9414 126.758 96.9065 124.929 95.7658 125.051C94.1739 125.219 93.3838 124.435 93.4264 122.603V94.7873C93.3548 93.539 92.5627 93.0436 91.2826 93.0668H84.7581C83.4374 93.032 82.7886 93.6783 82.8254 95.0021ZM67.7392 83.3905C67.6017 80.7411 68.9612 79.4542 71.8158 79.52H80.5557C82.6744 79.52 83.8964 80.7644 83.7414 82.9802V89.8098C83.6814 91.0425 81.921 90.9341 81.8939 89.8098V84.3717C81.8939 81.2346 78.1311 81.1611 78.1311 84.4239V123.421C78.104 124.319 79.8372 124.42 79.8701 123.421V116.182C79.8372 114.873 81.7893 114.595 81.8184 116.182V123.787C81.8184 125.788 80.1258 126.75 78.2395 126.68H71.2058C68.7579 126.512 67.5339 124.372 67.5339 121.794L67.7392 83.3905ZM56.9542 99.1435C55.4146 97.9533 54.4889 96.6045 54.4347 95.3272C54.365 93.6396 56.1447 92.7417 57.4829 93.5719C58.7882 94.3808 59.5377 95.4685 59.6364 96.8793C59.7313 98.2281 58.5403 100.37 56.9542 99.1435ZM42.1953 110.027L49.4905 106.819L54.8859 112.646C57.6592 115.638 58.9451 119.822 54.1907 121.918L47.5559 124.848C46.6302 125.413 47.1124 126.822 48.2647 126.58C54.3476 124.55 59.9424 122.1 64.5148 118.777C70.739 114.26 64.6619 105.543 60.2949 102.337C63.562 96.9857 62.1831 92.134 56.7044 89.9568C52.3509 88.2267 46.8916 90.1407 44.802 94.3925C43.0707 97.8546 44.0525 101.319 47.7612 104.781L40.4117 108.516C39.0948 109.201 41.3471 110.401 42.1953 110.027Z" fill="#ED3237"/>
<path d="M105.477 102.129L109.906 101.853C110.002 102.572 110.198 103.118 110.49 103.498C110.967 104.107 111.656 104.409 112.547 104.409C113.211 104.409 113.725 104.254 114.085 103.943C114.443 103.631 114.621 103.269 114.621 102.859C114.621 102.47 114.453 102.12 114.108 101.81C113.765 101.502 112.973 101.21 111.722 100.939C109.681 100.48 108.227 99.8728 107.357 99.1142C106.48 98.3536 106.044 97.386 106.044 96.2074C106.044 95.4333 106.269 94.7018 106.716 94.0148C107.165 93.3277 107.841 92.7897 108.742 92.393C109.642 92.0001 110.876 91.8047 112.444 91.8047C114.371 91.8047 115.841 92.1608 116.85 92.8768C117.859 93.5909 118.46 94.7308 118.651 96.2906L114.265 96.5461C114.149 95.8687 113.903 95.3752 113.527 95.0675C113.155 94.7637 112.642 94.6089 111.986 94.6089C111.441 94.6089 111.033 94.7211 110.76 94.9514C110.489 95.1817 110.351 95.4604 110.351 95.7894C110.351 96.0274 110.463 96.2422 110.688 96.4358C110.911 96.6351 111.428 96.8189 112.251 96.9892C114.286 97.4285 115.743 97.8737 116.624 98.3207C117.505 98.7697 118.146 99.3212 118.545 99.9889C118.946 100.653 119.149 101.396 119.149 102.218C119.149 103.182 118.88 104.072 118.345 104.883C117.813 105.7 117.065 106.317 116.105 106.737C115.148 107.157 113.938 107.366 112.479 107.366C109.917 107.366 108.141 106.876 107.159 105.89C106.162 104.903 105.608 103.652 105.477 102.129Z" fill="#848688"/>
<path d="M120.844 92.0586H125.029V97.6031C125.596 97.0167 126.162 96.5929 126.723 96.3394C127.283 96.0859 127.951 95.9581 128.72 95.9581C129.857 95.9581 130.75 96.3046 131.408 96.9974C132.059 97.6883 132.386 98.7488 132.386 100.177V107.109H128.185V101.114C128.185 100.431 128.058 99.9486 127.804 99.6622C127.548 99.3758 127.194 99.2365 126.735 99.2365C126.231 99.2365 125.815 99.4281 125.505 99.8093C125.191 100.192 125.031 100.883 125.031 101.874V107.109H120.846V92.0586H120.844Z" fill="#848688"/>
<path d="M134.486 96.2067H138.398V97.991C138.778 97.2208 139.167 96.6866 139.568 96.3963C139.967 96.106 140.461 95.957 141.051 95.957C141.667 95.957 142.341 96.1506 143.073 96.5337L141.78 99.5121C141.288 99.305 140.895 99.2044 140.608 99.2044C140.062 99.2044 139.636 99.4328 139.336 99.8817C138.904 100.518 138.685 101.712 138.685 103.456V107.11H134.484V96.2067H134.486Z" fill="#848688"/>
<path d="M151.677 100.693C151.595 99.8837 151.378 99.3031 151.026 98.9586C150.671 98.6083 150.209 98.4322 149.633 98.4322C148.967 98.4322 148.439 98.6993 148.036 99.2238C147.784 99.5527 147.623 100.042 147.555 100.693H151.677ZM155.929 102.694H147.548C147.621 103.367 147.805 103.865 148.092 104.193C148.497 104.666 149.025 104.902 149.674 104.902C150.085 104.902 150.478 104.801 150.846 104.594C151.074 104.464 151.316 104.236 151.574 103.907L155.695 104.286C155.064 105.384 154.307 106.167 153.418 106.644C152.527 107.118 151.251 107.358 149.583 107.358C148.142 107.358 147.004 107.153 146.173 106.746C145.346 106.338 144.658 105.691 144.114 104.805C143.572 103.919 143.297 102.876 143.297 101.678C143.297 99.9746 143.845 98.5929 144.935 97.542C146.027 96.4873 147.536 95.957 149.463 95.957C151.024 95.957 152.26 96.1951 153.162 96.6673C154.066 97.1375 154.758 97.8246 155.228 98.7186C155.699 99.6166 155.935 100.784 155.935 102.221L155.929 102.694Z" fill="#848688"/>
<path d="M165.11 100.693C165.027 99.8837 164.81 99.3031 164.459 98.9586C164.107 98.6083 163.642 98.4322 163.069 98.4322C162.401 98.4322 161.872 98.6993 161.471 99.2238C161.219 99.5527 161.059 100.042 160.991 100.693H165.11ZM169.363 102.694H160.981C161.055 103.367 161.237 103.865 161.524 104.193C161.928 104.666 162.457 104.902 163.106 104.902C163.514 104.902 163.909 104.801 164.277 104.594C164.506 104.464 164.746 104.236 165.006 103.907L169.127 104.286C168.495 105.384 167.738 106.167 166.849 106.644C165.956 107.118 164.678 107.358 163.013 107.358C161.572 107.358 160.433 107.153 159.6 106.746C158.774 106.338 158.086 105.691 157.544 104.805C157 103.919 156.727 102.876 156.727 101.678C156.727 99.9746 157.273 98.5929 158.363 97.542C159.457 96.4873 160.966 95.957 162.891 95.957C164.452 95.957 165.685 96.1951 166.586 96.6673C167.492 97.1375 168.184 97.8246 168.652 98.7186C169.125 99.6166 169.361 100.784 169.361 102.221L169.363 102.694Z" fill="#848688"/>
<path d="M115.673 121.299L119.606 122.488C119.339 123.589 118.922 124.508 118.357 125.247C117.788 125.987 117.083 126.544 116.24 126.921C115.396 127.301 114.323 127.484 113.027 127.484C111.449 127.484 110.157 127.256 109.158 126.797C108.159 126.339 107.293 125.53 106.567 124.376C105.843 123.223 105.477 121.744 105.477 119.943C105.477 117.541 106.118 115.693 107.394 114.406C108.672 113.115 110.485 112.469 112.816 112.469C114.644 112.469 116.081 112.836 117.131 113.578C118.179 114.315 118.957 115.451 119.463 116.982L115.499 117.866C115.363 117.421 115.218 117.098 115.067 116.893C114.815 116.552 114.511 116.287 114.149 116.101C113.781 115.915 113.376 115.824 112.923 115.824C111.91 115.824 111.131 116.233 110.587 117.05C110.179 117.659 109.973 118.611 109.973 119.912C109.973 121.524 110.221 122.623 110.707 123.223C111.195 123.821 111.883 124.117 112.764 124.117C113.624 124.117 114.273 123.879 114.714 123.393C115.156 122.917 115.473 122.217 115.673 121.299Z" fill="#848688"/>
<path d="M128.931 121.038C128.852 120.258 128.643 119.701 128.302 119.364C127.961 119.027 127.515 118.857 126.96 118.857C126.317 118.857 125.809 119.114 125.422 119.619C125.18 119.939 125.023 120.407 124.959 121.036H128.931V121.038ZM133.033 122.967H124.949C125.021 123.614 125.197 124.096 125.474 124.415C125.864 124.87 126.375 125.096 126.998 125.096C127.395 125.096 127.775 124.997 128.131 124.8C128.35 124.676 128.584 124.454 128.832 124.138L132.804 124.502C132.196 125.561 131.468 126.315 130.61 126.776C129.748 127.231 128.517 127.459 126.913 127.459C125.521 127.459 124.421 127.264 123.623 126.873C122.825 126.48 122.161 125.857 121.638 125.001C121.115 124.146 120.852 123.143 120.852 121.988C120.852 120.345 121.378 119.014 122.43 118.002C123.485 116.984 124.938 116.473 126.795 116.473C128.298 116.473 129.487 116.703 130.358 117.158C131.23 117.611 131.898 118.274 132.349 119.136C132.804 120.001 133.035 121.127 133.035 122.511L133.033 122.967Z" fill="#848688"/>
<path d="M134.344 116.715H138.105V118.247C138.653 117.607 139.193 117.154 139.745 116.879C140.297 116.608 140.965 116.475 141.744 116.475C142.582 116.475 143.244 116.624 143.734 116.92C144.222 117.216 144.621 117.659 144.933 118.245C145.564 117.562 146.142 117.092 146.666 116.844C147.185 116.598 147.83 116.473 148.597 116.473C149.728 116.473 150.609 116.806 151.241 117.479C151.876 118.149 152.188 119.198 152.188 120.622V127.223H148.148V121.235C148.148 120.761 148.059 120.405 147.873 120.177C147.604 119.815 147.267 119.631 146.862 119.631C146.389 119.631 146.004 119.803 145.712 120.144C145.421 120.49 145.282 121.042 145.282 121.8V127.223H141.236V121.433C141.236 120.97 141.207 120.661 141.159 120.496C141.072 120.231 140.92 120.018 140.711 119.854C140.5 119.693 140.254 119.612 139.97 119.612C139.507 119.612 139.127 119.788 138.831 120.136C138.535 120.486 138.385 121.061 138.385 121.858V127.223H134.346L134.344 116.715Z" fill="#848688"/>
<path d="M161.359 121.038C161.277 120.258 161.068 119.701 160.729 119.364C160.389 119.027 159.943 118.857 159.387 118.857C158.744 118.857 158.235 119.114 157.852 119.619C157.608 119.939 157.451 120.407 157.387 121.036H161.359V121.038ZM165.457 122.967H157.377C157.447 123.614 157.623 124.096 157.896 124.415C158.287 124.87 158.799 125.096 159.424 125.096C159.819 125.096 160.199 124.997 160.555 124.8C160.772 124.676 161.008 124.454 161.256 124.138L165.23 124.502C164.622 125.561 163.89 126.315 163.032 126.776C162.172 127.231 160.942 127.459 159.335 127.459C157.941 127.459 156.846 127.264 156.045 126.873C155.247 126.48 154.585 125.857 154.06 125.001C153.539 124.146 153.273 123.143 153.273 121.988C153.273 120.345 153.8 119.014 154.85 118.002C155.903 116.984 157.36 116.473 159.215 116.473C160.724 116.473 161.911 116.703 162.778 117.158C163.652 117.611 164.32 118.274 164.773 119.136C165.23 120.001 165.455 121.127 165.455 122.511L165.457 122.967Z" fill="#848688"/>
<path d="M166.742 116.717H170.499V118.425C171.059 117.727 171.626 117.231 172.205 116.929C172.779 116.628 173.48 116.477 174.305 116.477C175.42 116.477 176.294 116.809 176.925 117.473C177.554 118.137 177.864 119.161 177.864 120.543V127.227H173.817V121.448C173.817 120.788 173.697 120.322 173.453 120.049C173.207 119.772 172.864 119.637 172.422 119.637C171.934 119.637 171.537 119.823 171.237 120.192C170.929 120.56 170.78 121.226 170.78 122.18V127.227H166.746L166.742 116.717Z" fill="#848688"/>
<path d="M184.631 112.717V116.717H186.848V119.657H184.631V123.386C184.631 123.835 184.677 124.133 184.758 124.278C184.892 124.501 185.121 124.615 185.452 124.615C185.748 124.615 186.166 124.528 186.701 124.354L186.995 127.138C185.998 127.355 185.07 127.463 184.205 127.463C183.201 127.463 182.462 127.336 181.985 127.078C181.509 126.823 181.154 126.432 180.932 125.906C180.701 125.381 180.589 124.532 180.589 123.357V119.655H179.102V116.715H180.589V114.782L184.631 112.717Z" fill="#848688"/>
</svg>
