<svg width="228" height="207" viewBox="0 0 228 207" fill="none" xmlns="http://www.w3.org/2000/svg">
<rect width="228" height="207" fill="white"/>
<path fill-rule="evenodd" clip-rule="evenodd" d="M57 131.866H115.117L172 75.1328H57V131.866Z" fill="url(#paint0_linear_1483_14132)"/>
<path fill-rule="evenodd" clip-rule="evenodd" d="M125.242 85.7962L113.924 85.7927V112.632L104.033 85.7927H94.2293L85.7839 108.236C84.8898 102.582 79.0192 100.622 74.3996 99.157C71.343 98.1824 68.1166 96.7447 68.1443 95.155C68.1651 93.8521 69.8806 92.6425 73.2664 92.8257C75.5432 92.9466 77.5532 93.1298 81.5455 95.0513L85.4858 88.2188C81.8332 86.3664 76.7908 85.1983 72.6634 85.1914H72.6357C67.8186 85.1914 63.802 86.7535 61.3138 89.3144C59.581 91.108 58.6453 93.3786 58.6037 95.898C58.5414 99.3644 59.8167 101.818 62.4955 103.781C64.7516 105.43 67.6418 106.504 70.189 107.296C73.3288 108.264 75.8967 109.107 75.8621 110.907C75.8482 111.564 75.5952 112.172 75.1239 112.666C74.3372 113.475 73.1382 113.779 71.4747 113.81C68.2656 113.876 65.8883 113.375 62.1005 111.142L58.6037 118.068C62.3846 120.211 66.8586 121.469 71.4158 121.469L72.0049 121.465C75.9799 121.396 79.1855 120.259 81.75 118.206C81.8921 118.092 82.0272 117.971 82.1624 117.85L81.0292 120.878H91.3079L93.0337 115.642C94.8393 116.25 96.8943 116.596 99.0776 116.596C101.199 116.596 103.205 116.271 104.979 115.69L106.643 120.878H123.409V110.036H127.065C135.906 110.036 141.139 105.547 141.139 98.0235C141.146 89.6427 136.062 85.7962 125.242 85.7962ZM99.0811 108.768C97.7607 108.768 96.5201 108.533 95.4527 108.129L99.043 96.8415H99.1157L102.63 108.16C101.576 108.543 100.37 108.768 99.0811 108.768ZM125.908 102.278H123.413V93.1782H125.908C129.235 93.1782 131.882 94.2772 131.882 97.6744C131.882 101.179 129.235 102.278 125.908 102.278Z" fill="white"/>
<defs>
<linearGradient id="paint0_linear_1483_14132" x1="114.5" y1="131.946" x2="114.5" y2="75.215" gradientUnits="userSpaceOnUse">
<stop stop-color="#225FBC"/>
<stop offset="1" stop-color="#1FB2F0"/>
</linearGradient>
</defs>
</svg>
