<svg width="228" height="207" viewBox="0 0 228 207" fill="none" xmlns="http://www.w3.org/2000/svg">
<rect width="228" height="207" fill="white"/>
<g clip-path="url(#clip0_1483_14123)">
<path d="M54.7258 134.844H51.9922V144.951H54.7258C57.8988 144.951 59.9491 142.969 59.9491 139.898C59.9491 136.826 57.8988 134.844 54.7258 134.844ZM53.8716 136.677H54.6526C56.8249 136.677 58.0209 137.817 58.0209 139.898C58.0209 141.978 56.8249 143.118 54.6526 143.118H53.8716V136.677Z" fill="#AB1F24"/>
<path d="M63.9272 134.844H62.0234V144.951H63.9272V134.844Z" fill="#AB1F24"/>
<path d="M65.7109 136.677H68.4934V144.951H70.3728V136.677H73.1308V134.844H65.7109V136.677Z" fill="#AB1F24"/>
<path d="M80.4718 134.844L78.1775 138.882L75.8588 134.844H73.7109L77.2256 140.938V144.951H79.105V140.938L82.5709 134.844H80.4718Z" fill="#AB1F24"/>
<path d="M102.39 139.6C102.854 139.13 103.098 138.485 103.098 137.693C103.098 135.959 101.902 134.844 100.023 134.844H96.5078V144.951H100.218C102.244 144.951 103.537 143.762 103.537 141.929C103.537 140.913 103.147 140.096 102.39 139.6ZM99.9493 136.652C100.804 136.652 101.218 136.999 101.218 137.742C101.218 138.485 100.877 138.832 100.096 138.832H98.3872V136.652H99.9493ZM98.4116 140.616H100.12C101.121 140.616 101.658 141.037 101.658 141.879C101.658 142.722 101.17 143.143 100.145 143.143H98.4116V140.616Z" fill="#AB1F24"/>
<path d="M107.49 134.844H105.586V144.951H107.49V134.844Z" fill="#AB1F24"/>
<path d="M116.788 138.064C116.788 136.132 115.397 134.844 113.298 134.844H110.125V144.951H112.004V141.26H113.2L115.446 144.951H117.618L115.104 140.864C116.178 140.343 116.788 139.353 116.788 138.064ZM111.98 136.677H113.225C114.323 136.677 114.86 137.148 114.86 138.089C114.86 138.684 114.689 139.452 113.225 139.452H111.98V136.677Z" fill="#AB1F24"/>
<path d="M120.919 134.844H119.016V144.951H125.044V143.143H120.919V134.844Z" fill="#AB1F24"/>
<path d="M144.906 141.258H147.591V142.547C147.029 142.968 146.297 143.166 145.394 143.166C143.515 143.166 142.148 141.779 142.148 139.846C142.148 137.914 143.442 136.527 145.248 136.527C146.566 136.527 147.2 137.047 147.64 137.542L147.981 137.939L149.324 136.65L148.982 136.279C148.03 135.214 146.81 134.693 145.248 134.693C142.416 134.693 140.195 136.948 140.195 139.846C140.195 142.794 142.416 144.999 145.37 144.999C146.956 144.999 148.177 144.553 149.251 143.612L149.421 143.463V139.45H144.882V141.258" fill="#AB1F24"/>
<path d="M158.28 138.014C158.28 136.081 156.889 134.793 154.79 134.793H151.617V144.901H153.497V141.209H154.693L156.938 144.901H159.11L156.596 140.813C157.67 140.293 158.28 139.277 158.28 138.014ZM153.497 136.601H154.741C155.84 136.601 156.352 137.072 156.352 138.014C156.352 138.608 156.181 139.376 154.741 139.376H153.497V136.601Z" fill="#AB1F24"/>
<path d="M165.022 134.693C162.166 134.693 159.945 136.948 159.945 139.846C159.945 142.745 162.166 144.999 165.022 144.999C167.878 144.999 170.123 142.745 170.123 139.846C170.123 136.948 167.878 134.693 165.022 134.693ZM165.022 143.166C163.192 143.166 161.849 141.779 161.849 139.846C161.849 137.914 163.192 136.527 165.022 136.527C166.853 136.527 168.195 137.914 168.195 139.846C168.195 141.779 166.853 143.166 165.022 143.166Z" fill="#AB1F24"/>
<path d="M177.466 141.234C177.466 142.522 176.856 143.166 175.685 143.166C174.513 143.166 173.903 142.498 173.903 141.234V134.793H172.023V141.284C172.023 143.538 173.463 144.975 175.685 144.975C177.906 144.975 179.346 143.513 179.346 141.284V134.793H177.466V141.234Z" fill="#AB1F24"/>
<path d="M184.985 134.793H181.836V144.901H183.715V141.284H184.96C187.084 141.284 188.45 140.02 188.45 138.038C188.475 136.081 187.108 134.793 184.985 134.793ZM183.74 136.601H184.936C186.034 136.601 186.547 137.072 186.547 138.038C186.547 139.004 186.01 139.45 184.936 139.45H183.74V136.601Z" fill="#AB1F24"/>
<path d="M42.0312 144.927H43.8862L44.7161 142.846H47.8403L48.6701 144.927H50.5495L46.3026 134.473L42.0312 144.927ZM45.3995 141.137L46.2782 138.932L47.1568 141.137H45.3995Z" fill="#AB1F24"/>
<path d="M81.8906 144.95H83.7456L84.5511 142.87H87.6752L88.5051 144.95H90.3845L86.1375 134.496L81.8906 144.95ZM85.2345 141.185L86.1131 138.98L86.9918 141.185H85.2345Z" fill="#AB1F24"/>
<path d="M126.234 144.927H128.089L128.919 142.846H132.043L132.873 144.927H134.753L130.506 134.473L126.234 144.927ZM129.578 141.137L130.457 138.932L131.336 141.137H129.578Z" fill="#AB1F24"/>
<path d="M166.042 103.529L152.325 109.946L137.266 90.8948L154.082 63.0742H166.042V103.529Z" fill="#AB1F24"/>
<path d="M166.045 127.287V103.529L152.328 109.946L166.045 127.287Z" fill="#EF7032"/>
<path d="M137.266 90.8948L115.25 63.0742H154.083L137.266 90.8948Z" fill="#EF7032"/>
<path d="M131.213 100.904L137.241 90.9202L115.25 63.0996V96.4198H115.396C121.205 96.3951 126.624 98.0549 131.213 100.904Z" fill="#FFD35D"/>
<path d="M115.396 96.3945H115.25V127.287L131.213 100.903C126.6 98.0544 121.205 96.3945 115.396 96.3945Z" fill="#AB1F24"/>
<path d="M143.032 114.305L152.331 109.945L137.272 90.8945L131.219 100.903C136.344 104.074 140.469 108.731 143.032 114.305Z" fill="#EF7032"/>
<path d="M131.213 100.904L115.25 127.313L143.026 114.307C140.463 108.733 136.338 104.075 131.213 100.904Z" fill="#D31F26"/>
<path d="M152.331 109.945L143.031 114.305C144.837 118.244 145.863 122.654 145.863 127.311H166.048L152.331 109.945Z" fill="#FFD35D"/>
<path d="M115.25 127.287H145.833C145.833 122.655 144.832 118.245 143.026 114.281L115.25 127.287Z" fill="#AB1F24"/>
<path d="M64.4844 103.529L78.2015 109.946L93.2609 90.8948L76.4441 63.0742H64.4844V103.529Z" fill="#AB1F24"/>
<path d="M64.4844 127.287V103.529L78.2015 109.946L64.4844 127.287Z" fill="#EF7032"/>
<path d="M93.2622 90.8948L115.253 63.0742H76.4453L93.2622 90.8948Z" fill="#EF7032"/>
<path d="M99.2943 100.904L93.2656 90.9202L115.257 63.0996V96.4198H115.11C109.326 96.3951 103.907 98.0549 99.2943 100.904Z" fill="#D31F26"/>
<path d="M115.112 96.3945H115.258V127.287L99.3203 100.903C103.909 98.0544 109.327 96.3945 115.112 96.3945Z" fill="#EF7032"/>
<path d="M87.5024 114.305L78.2031 109.945L93.2626 90.8945L99.2913 100.878C94.1657 104.074 90.0408 108.731 87.5024 114.305Z" fill="#EF7032"/>
<path d="M99.2889 100.904L115.251 127.313L87.5 114.307C90.0384 108.733 94.1633 104.075 99.2889 100.904Z" fill="#D31F26"/>
<path d="M78.2015 109.945L87.5008 114.305C85.6946 118.244 84.6695 122.654 84.6695 127.311H64.4844L78.2015 109.945Z" fill="#FFD35D"/>
<path d="M115.255 127.287H84.6719C84.6719 122.655 85.6726 118.245 87.5032 114.281L115.255 127.287Z" fill="#AB1F24"/>
</g>
<defs>
<clipPath id="clip0_1483_14123">
<rect width="147" height="82" fill="white" transform="translate(41 63)"/>
</clipPath>
</defs>
</svg>
