<svg width="228" height="207" viewBox="0 0 228 207" fill="none" xmlns="http://www.w3.org/2000/svg">
<rect width="228" height="207" fill="white"/>
<g clip-path="url(#clip0_1483_14115)">
<mask id="mask0_1483_14115" style="mask-type:luminance" maskUnits="userSpaceOnUse" x="-1020" y="-602" width="2267" height="1833">
<path d="M-1019.32 1230.38H1246.31V-601.033H-1019.32V1230.38Z" fill="white"/>
</mask>
<g mask="url(#mask0_1483_14115)">
<path d="M83.5232 89.5906H72.8119C72.2859 89.5906 71.7887 89.8886 71.5027 90.3445L69.6925 93.3686H80.4845C81.166 93.4168 81.7054 94.0633 81.7054 94.8522C81.7054 94.8631 81.7035 100.631 81.7035 100.631H73.6085V98.9764V98.9698C73.6085 98.6411 73.8427 98.376 74.1287 98.376H79.7839V96.2394C79.7839 95.7156 79.4998 95.422 79.112 95.422H71.2685C70.3087 95.422 69.5312 96.3095 69.5312 97.403V102.676C69.5312 102.7 69.5389 102.728 69.5504 102.761C69.6579 103.552 70.2569 104.133 70.9786 104.133H86.2721V92.7331C86.2721 90.9975 85.0417 89.5906 83.5232 89.5906Z" fill="#E51636"/>
<path d="M181.098 89.5906H170.39C169.86 89.5906 169.365 89.8886 169.079 90.3445L167.267 93.3686H178.061C178.74 93.4168 179.284 94.0633 179.284 94.8522C179.284 94.8631 179.28 100.631 179.28 100.631H171.183V98.9764V98.9698C171.183 98.6411 171.417 98.376 171.705 98.376H177.362V96.2394C177.362 95.7156 177.076 95.422 176.686 95.422H168.845C167.885 95.422 167.109 96.3095 167.109 97.403V102.676C167.109 102.7 167.117 102.728 167.129 102.761C167.234 103.552 167.833 104.133 168.557 104.133H183.85V92.7331C183.85 90.9975 182.618 89.5906 181.098 89.5906Z" fill="#E51636"/>
<path d="M147.383 84.3047V89.5948V100.51H140.665C140.2 100.51 139.876 100.037 139.876 99.6468V94.8585V94.8541C139.876 94.0324 140.459 93.3706 141.179 93.3706H144.577C145.085 93.3706 145.606 93.0397 145.819 92.6342L147.383 89.5948C147.383 89.5948 137.967 89.597 137.962 89.597C136.445 89.597 135.211 91.0016 135.211 92.735C135.211 92.746 135.213 92.7526 135.213 92.7635C135.213 92.7723 135.211 100.898 135.211 101.536C135.211 103.206 136.393 104.135 137.468 104.135H152.048V84.3047H147.383Z" fill="#E51636"/>
<path d="M157.01 89.5926C155.85 89.5926 155.102 90.616 155.102 91.7139V104.135H159.766V94.8761C159.764 94.0433 160.283 93.353 161.022 93.353H164.473C164.974 93.3158 165.41 92.9805 165.675 92.5334C165.688 92.5115 167.485 89.5926 167.485 89.5926H157.01Z" fill="#E51636"/>
<path d="M108.594 94.3236V104.137H113.226V95.3623V89.7611C113.226 89.7611 111.076 91.2885 109.555 92.371C108.976 92.7962 108.594 93.5106 108.594 94.3236ZM108.594 84.2913H113.226V87.9553L108.594 91.466V84.2913Z" fill="#E51636"/>
<path d="M63.3941 84.3027H41.1094V104.133H45.7375V88.931H50.6844C51.1566 88.9398 51.5309 89.378 51.5309 89.9193L51.5328 104.133H56.1648V89.9193C56.1648 89.3715 56.5545 88.9288 57.0344 88.9288C57.0363 88.9288 57.0382 88.931 57.0421 88.931H60.6874C61.39 88.931 61.9601 89.5797 61.9601 90.3817V104.133H66.5902V87.9492C66.5902 85.9375 65.1582 84.3027 63.3941 84.3027Z" fill="#E51636"/>
<path d="M129.444 89.5948C129.398 89.5948 116.273 89.6035 116.273 89.6035V104.135H120.934V93.3662H126.24C126.96 93.3662 127.543 94.0302 127.543 94.852L127.545 104.135H132.195V92.735C132.195 91.0016 130.962 89.5948 129.444 89.5948Z" fill="#E51636"/>
<path d="M105.534 92.7309C105.534 90.9975 104.304 89.5906 102.783 89.5906C102.772 89.5906 102.743 89.5928 102.741 89.5906H96.6906C96.1454 89.5906 95.8824 89.904 95.6002 90.3839C95.5849 90.408 93.7804 93.3686 93.7804 93.3686H99.6564C100.351 93.4037 100.904 94.0545 100.904 94.8544C100.904 94.861 100.902 104.133 100.902 104.133H105.534V92.766V92.7309ZM89.1484 84.3049H93.7824V104.133H89.1484V84.3049Z" fill="#E51636"/>
<path d="M159.198 112.381C159.198 111.879 159.113 111.462 158.952 111.127C158.789 110.794 158.576 110.524 158.305 110.321C158.038 110.117 157.733 109.972 157.393 109.889C157.052 109.806 156.7 109.764 156.343 109.764C155.984 109.764 155.624 109.768 155.257 109.777C154.892 109.786 154.529 109.79 154.174 109.79L153.539 115.668C153.911 115.705 154.276 115.736 154.623 115.764C154.975 115.793 155.334 115.806 155.71 115.806C156.833 115.806 157.693 115.519 158.294 114.942C158.896 114.368 159.198 113.514 159.198 112.381ZM160.806 121.996C160.806 122.299 160.668 122.536 160.392 122.704C160.115 122.877 159.643 122.963 158.977 122.963C158.816 122.963 158.674 122.91 158.549 122.807C158.43 122.706 158.336 122.582 158.271 122.433L155.904 116.919C155.821 116.937 155.718 116.947 155.585 116.947H155.318C154.961 116.947 154.648 116.932 154.38 116.906C154.113 116.877 153.798 116.836 153.439 116.781L152.759 122.766C152.677 122.805 152.575 122.834 152.452 122.849C152.331 122.869 152.182 122.88 151.999 122.88C151.723 122.88 151.535 122.818 151.427 122.698C151.322 122.577 151.268 122.387 151.268 122.126C151.268 122.034 151.287 121.821 151.32 121.486C151.35 121.151 151.393 120.734 151.441 120.232C151.489 119.731 151.546 119.165 151.612 118.534C151.677 117.903 151.748 117.235 151.83 116.529C151.959 115.398 152.095 114.274 152.232 113.161C152.37 112.047 152.506 110.923 152.635 109.79L151.051 109.736C150.986 109.641 150.953 109.512 150.953 109.345C150.953 108.771 151.35 108.482 152.147 108.482H156.662C157.15 108.482 157.637 108.539 158.121 108.651C158.61 108.76 159.048 108.955 159.428 109.232C159.808 109.51 160.117 109.88 160.357 110.345C160.591 110.807 160.709 111.381 160.709 112.067C160.709 113.345 160.413 114.342 159.818 115.054C159.227 115.766 158.409 116.301 157.368 116.652L159.586 121.598L160.638 121.486C160.751 121.617 160.806 121.786 160.806 121.996Z" fill="#656263"/>
<path d="M166.119 109.025C166.119 109.378 166.019 109.656 165.825 109.86C165.63 110.066 165.345 110.166 164.969 110.166C164.695 110.166 164.472 110.096 164.301 109.958C164.13 109.818 164.044 109.581 164.044 109.248C164.044 108.913 164.151 108.639 164.363 108.426C164.572 108.212 164.866 108.107 165.24 108.107C165.564 108.107 165.791 108.19 165.921 108.356C166.054 108.523 166.119 108.746 166.119 109.025ZM166.545 121.996C166.545 122.261 166.39 122.484 166.079 122.664C165.77 122.844 165.253 122.934 164.52 122.934C164.065 122.934 163.723 122.833 163.497 122.627C163.268 122.423 163.155 122.053 163.155 121.514C163.155 121.123 163.201 120.547 163.299 119.787L164.13 113.188L162.593 113.243C162.479 113.134 162.422 112.985 162.422 112.798C162.422 112.483 162.579 112.25 162.896 112.101C163.215 111.952 163.762 111.88 164.545 111.88C165.017 111.88 165.324 111.948 165.47 112.086C165.616 112.226 165.668 112.498 165.616 112.906L165.105 117.21C164.99 118.137 164.892 118.941 164.812 119.627C164.729 120.31 164.691 120.764 164.691 120.985C164.691 121.246 164.729 121.406 164.812 121.472C164.892 121.538 165.09 121.571 165.399 121.571C165.512 121.571 165.672 121.546 165.873 121.498C166.079 121.452 166.236 121.411 166.349 121.373C166.48 121.485 166.545 121.693 166.545 121.996Z" fill="#656263"/>
<path d="M175.052 112.908C175.052 113.169 175.009 113.36 174.919 113.478C174.829 113.601 174.693 113.697 174.518 113.774C174.192 113.474 173.833 113.274 173.443 113.173C173.051 113.072 172.612 113.02 172.128 113.02C171.425 113.02 170.894 113.195 170.529 113.548C170.162 113.903 169.978 114.291 169.978 114.72C169.978 114.997 170.011 115.233 170.076 115.428C170.141 115.623 170.264 115.805 170.445 115.972C170.621 116.138 170.869 116.3 171.186 116.458C171.502 116.616 171.905 116.798 172.393 117.002C172.834 117.205 173.193 117.401 173.481 117.587C173.764 117.773 173.986 117.972 174.149 118.185C174.311 118.398 174.428 118.63 174.491 118.882C174.556 119.132 174.591 119.406 174.591 119.704C174.591 120.094 174.522 120.484 174.382 120.872C174.242 121.262 174.032 121.61 173.746 121.917C173.464 122.222 173.099 122.469 172.664 122.653C172.222 122.84 171.704 122.932 171.101 122.932C170.873 122.932 170.56 122.923 170.162 122.908C169.763 122.888 169.364 122.829 168.966 122.728C168.567 122.629 168.222 122.474 167.93 122.265C167.638 122.057 167.492 121.768 167.492 121.402C167.492 121.141 167.565 120.937 167.713 120.788C167.857 120.642 168.045 120.528 168.273 120.455C168.613 120.9 169.07 121.22 169.638 121.415C170.208 121.61 170.744 121.707 171.249 121.707C171.865 121.707 172.351 121.553 172.698 121.246C173.048 120.94 173.224 120.534 173.224 120.032C173.224 119.623 173.086 119.279 172.808 119C172.531 118.72 172.011 118.422 171.249 118.106C170.761 117.92 170.347 117.725 170.003 117.519C169.661 117.315 169.391 117.092 169.185 116.848C168.984 116.607 168.834 116.329 168.734 116.011C168.636 115.696 168.59 115.323 168.59 114.896C168.59 114.429 168.684 114.002 168.869 113.609C169.057 113.219 169.318 112.88 169.652 112.59C169.982 112.303 170.379 112.075 170.848 111.907C171.308 111.74 171.815 111.657 172.37 111.657C173.215 111.657 173.875 111.771 174.347 112.003C174.815 112.235 175.052 112.538 175.052 112.908Z" fill="#656263"/>
<path d="M182.565 114.496C182.565 113.994 182.43 113.602 182.162 113.311C181.893 113.026 181.417 112.881 180.735 112.881C180.426 112.881 180.102 112.936 179.758 113.048C179.417 113.159 179.09 113.346 178.783 113.604C178.474 113.865 178.196 114.218 177.942 114.663C177.691 115.108 177.499 115.666 177.368 116.333C177.645 116.39 177.99 116.431 178.407 116.46C178.822 116.486 179.198 116.501 179.541 116.501C180.662 116.501 181.448 116.328 181.893 115.986C182.342 115.642 182.565 115.145 182.565 114.496ZM183.882 114.301C183.882 116.528 182.465 117.643 179.639 117.643C179.263 117.643 178.871 117.628 178.466 117.601C178.059 117.573 177.645 117.523 177.224 117.448C177.207 117.558 177.198 117.669 177.198 117.781V118.059C177.198 120.474 178.067 121.68 179.806 121.68C180.346 121.68 180.881 121.616 181.417 121.485C181.956 121.355 182.482 121.152 183.004 120.873C183.198 121.038 183.296 121.252 183.296 121.513C183.296 121.886 183.01 122.232 182.444 122.556C181.874 122.881 180.937 123.045 179.639 123.045C177.054 123.045 175.758 121.504 175.758 118.421C175.758 117.42 175.873 116.501 176.101 115.666C176.326 114.829 176.662 114.115 177.1 113.521C177.541 112.927 178.084 112.469 178.735 112.143C179.386 111.818 180.14 111.656 181.004 111.656C181.557 111.656 182.016 111.726 182.38 111.864C182.747 112.005 183.039 112.189 183.258 112.421C183.48 112.653 183.64 112.932 183.734 113.258C183.832 113.582 183.882 113.929 183.882 114.301Z" fill="#656263"/>
<path d="M187.067 121.57C187.067 121.98 186.952 122.293 186.725 122.517C186.497 122.74 186.18 122.85 185.775 122.85C185.483 122.85 185.239 122.771 185.042 122.613C184.85 122.455 184.75 122.192 184.75 121.822C184.75 121.447 184.865 121.143 185.094 120.901C185.32 120.66 185.646 120.54 186.067 120.54C186.424 120.54 186.683 120.632 186.837 120.816C186.988 121.004 187.067 121.254 187.067 121.57Z" fill="#656263"/>
</g>
</g>
<defs>
<clipPath id="clip0_1483_14115">
<rect width="148" height="41" fill="white" transform="translate(40 83)"/>
</clipPath>
</defs>
</svg>
