<svg width="228" height="207" viewBox="0 0 228 207" fill="none" xmlns="http://www.w3.org/2000/svg">
<rect width="228" height="207" fill="white"/>
<path d="M76.7379 132.074H78.353L78.5713 132.03L78.7459 131.987L78.9205 131.9L79.0078 131.814L79.0951 131.727L79.1388 131.597L79.1824 131.335L79.1388 131.163L79.0951 131.031L79.0515 130.901L78.9642 130.814L78.8332 130.728L78.6586 130.684L78.2657 130.642H76.7379V132.074ZM76.7379 135.067H78.353H78.5713L78.7896 135.024L78.9642 134.937L79.0951 134.807L79.2261 134.677L79.3134 134.503L79.3571 134.33L79.4007 134.113L79.3571 133.896L79.3134 133.679L79.2261 133.505L79.1388 133.375L78.9642 133.288L78.7896 133.202L78.615 133.158H78.353H76.7379V135.067ZM75.5156 136.193V129.473H78.3967L78.8332 129.516L79.2697 129.603L79.619 129.733L79.9245 129.948L80.1865 130.21L80.3611 130.514L80.4484 130.861L80.492 131.25L80.4484 131.423L80.4047 131.64L80.3611 131.814L80.2738 132.03L80.1428 132.161L80.0118 132.336L79.8809 132.466L79.7063 132.553L80.0118 132.726L80.1865 132.856L80.3611 133.03L80.492 133.203L80.623 133.463L80.6666 133.724L80.7103 134.071L80.6666 134.548L80.5357 134.982L80.3611 135.329L80.0992 135.632L79.7499 135.893L79.3571 136.066L78.8769 136.153L78.353 136.196H75.5156V136.193Z" fill="#808080"/>
<path d="M83.1574 136.282L82.8955 136.239L82.6773 136.195L82.459 136.065L82.2844 135.978L82.1534 135.805L81.8915 135.501L81.7169 135.154L81.6296 134.764L81.5859 134.418V134.07V131.295H82.8082V133.983V134.287L82.8519 134.547L82.9392 134.72L83.0265 134.894L83.1574 135.024L83.2884 135.111L83.5067 135.197H83.7249H83.8995L84.1178 135.111L84.2487 135.024L84.3797 134.894L84.5107 134.72L84.5543 134.547L84.598 134.287L84.6416 134.026V131.295H85.8202V136.195H84.6416V135.805L84.3797 136.022L84.1178 136.195L83.7686 136.282L83.4193 136.325L83.1574 136.282Z" fill="#808080"/>
<path d="M102.026 136.192V133.504V133.199L101.981 132.982L101.893 132.767L101.808 132.592L101.675 132.462L101.546 132.376L101.327 132.333L101.153 132.29L100.935 132.333L100.715 132.376L100.584 132.462L100.453 132.592L100.323 132.767L100.235 132.982L100.193 133.199V133.504V136.192H98.9688V131.292H100.193V131.726L100.453 131.465L100.76 131.335L101.066 131.205H101.415H101.851L102.201 131.335L102.506 131.509L102.768 131.769L102.986 132.073L103.117 132.462L103.205 132.895L103.248 133.416V136.192H102.026Z" fill="#808080"/>
<path d="M88.1832 131.295H86.9609V136.195H88.1832V131.295Z" fill="#808080"/>
<path d="M89.2266 136.195V129.864L90.4503 129.258V136.195H89.2266Z" fill="#808080"/>
<path d="M93.3361 132.335L93.1615 132.378L92.9869 132.421L92.856 132.552L92.725 132.725L92.6377 132.985L92.5941 133.289L92.5504 133.679L92.5941 134.113L92.6377 134.46L92.725 134.722L92.856 134.894L93.0306 135.026L93.1615 135.112L93.3361 135.199H93.5108L93.7727 135.156L94.0346 135.026L94.2092 134.894L94.3402 134.722V132.77L94.2092 132.64L94.0346 132.466L93.7727 132.336L93.4671 132.293L93.3361 132.335ZM92.8123 136.282L92.4194 136.15L92.1139 135.934L91.8083 135.63L91.59 135.24L91.4591 134.806L91.3718 134.285L91.3281 133.721L91.3718 133.157L91.4591 132.637L91.6337 132.246L91.852 131.858L92.1139 131.596L92.4631 131.38L92.8123 131.25L93.2488 131.207H93.5544L93.86 131.294L94.1219 131.425L94.3402 131.642V129.865L95.5624 129.258V136.197H94.3402V135.85L94.0782 136.023L93.8163 136.198L93.5544 136.285L93.2488 136.328L92.8123 136.282Z" fill="#808080"/>
<path d="M120.491 132.331L120.229 132.418L120.053 132.592L119.877 132.809V134.716L120.008 134.847L120.183 135.021L120.445 135.151L120.575 135.194H120.75L120.968 135.151L121.143 135.108L121.318 134.978L121.449 134.804L121.536 134.587L121.581 134.327L121.625 134.023L121.668 133.676L121.625 133.331L121.581 133.027L121.494 132.81L121.363 132.593L121.232 132.463L121.057 132.376L120.883 132.333L120.752 132.29L120.491 132.331ZM120.664 136.279L120.359 136.192L120.097 136.019L119.879 135.845V136.192H118.656V129.992L119.879 129.385V131.64L120.097 131.467L120.402 131.293L120.664 131.207H120.97L121.406 131.25L121.756 131.38L122.105 131.597L122.367 131.859L122.586 132.248L122.761 132.638L122.848 133.159L122.892 133.723L122.848 134.286L122.761 134.807L122.63 135.241L122.412 135.631L122.106 135.935L121.801 136.152L121.408 136.283L120.971 136.325L120.664 136.279Z" fill="#808080"/>
<path d="M105.904 132.331L105.729 132.418L105.598 132.548L105.467 132.722L105.38 132.982L105.336 133.286L105.293 133.676L105.336 134.108L105.38 134.412L105.467 134.716L105.598 134.889L105.729 135.021L105.904 135.108L106.078 135.194H106.209L106.515 135.151L106.733 135.021L106.951 134.889L107.082 134.716V132.765L106.951 132.592L106.777 132.462L106.515 132.331L106.209 132.288H106.035L105.904 132.331ZM105.467 137.232H105.511L106.035 137.188L106.428 137.102L106.689 136.971L106.908 136.798L106.995 136.581L107.082 136.364V135.93V135.844L106.82 136.017L106.559 136.191L106.297 136.277L105.947 136.319L105.555 136.277L105.162 136.102L104.856 135.887L104.55 135.627L104.332 135.236L104.201 134.804L104.07 134.283V133.676V133.156L104.201 132.635L104.332 132.203L104.594 131.856L104.856 131.552L105.205 131.379L105.555 131.248L105.991 131.205H106.297L106.602 131.292L106.864 131.465L107.082 131.639V131.292H108.305V135.758L108.261 136.322L108.174 136.799L107.955 137.232L107.868 137.405L107.693 137.579L107.563 137.709L107.388 137.84L106.951 138.012L106.471 138.144L105.904 138.187L105.467 137.232Z" fill="#808080"/>
<path d="M112.937 133.936L112.806 133.98L112.675 134.067L112.588 134.153L112.5 134.283L112.457 134.414V134.587V134.717L112.5 134.891L112.588 135.021L112.675 135.108L112.806 135.194L112.937 135.238L113.111 135.281L113.286 135.325L113.592 135.281L113.897 135.151L114.072 134.977L114.246 134.804V134.11L114.028 134.023L113.81 133.936L113.548 133.893H113.286H113.111L112.937 133.936ZM112.719 136.277L112.413 136.234L112.107 136.102L111.846 135.93L111.584 135.67L111.409 135.366L111.278 135.019L111.234 134.587L111.278 134.153L111.409 133.806L111.627 133.546L111.889 133.331L112.195 133.156L112.5 133.069L112.85 132.982H113.199H113.461L113.766 133.025L114.028 133.112L114.246 133.199V132.852V132.722L114.203 132.548L114.115 132.418L114.028 132.331L113.897 132.245L113.723 132.201L113.373 132.158L113.024 132.201L112.675 132.245L112.369 132.376L112.107 132.506L111.627 131.682L112.064 131.465L112.5 131.292L112.98 131.205H113.461H113.897L114.29 131.292L114.639 131.465L114.945 131.639L115.163 131.898L115.338 132.159L115.425 132.506L115.469 132.897V136.192H114.246V135.802L113.984 136.019L113.635 136.192L113.33 136.279L113.068 136.322L112.719 136.277Z" fill="#808080"/>
<path d="M125.514 132.246L125.34 132.29L125.165 132.376L125.034 132.506L124.947 132.637L124.86 132.81L124.772 133.027V133.244H126.606L126.562 132.853L126.475 132.681L126.387 132.55L126.256 132.42L126.082 132.29L125.906 132.246L125.687 132.203L125.514 132.246ZM125.34 136.279L124.86 136.105L124.467 135.888L124.161 135.63L123.856 135.239L123.682 134.805L123.551 134.328L123.508 133.764L123.551 133.2L123.682 132.723L123.856 132.29L124.119 131.899L124.468 131.595L124.817 131.379L125.254 131.248L125.734 131.205L126.171 131.248L126.563 131.379L126.913 131.595L127.218 131.899L127.48 132.246L127.655 132.68L127.742 133.2L127.786 133.764V134.111H124.73L124.817 134.458L124.905 134.719L125.079 134.892L125.21 135.022L125.429 135.109L125.558 135.151L125.864 135.194L126.169 135.151L126.431 135.064L126.649 134.934L126.824 134.761L127.61 135.541L127.391 135.715L127.215 135.888L126.997 136.019L126.779 136.105L126.342 136.279L125.864 136.322L125.34 136.279Z" fill="#808080"/>
<path d="M137.253 132.245L137.077 132.288L136.946 132.375L136.815 132.506L136.684 132.637L136.597 132.81L136.553 133.027V133.244H138.387L138.3 132.853L138.256 132.681L138.169 132.55L138.038 132.42L137.863 132.29L137.69 132.246L137.472 132.203L137.253 132.245ZM137.122 136.277L136.641 136.104L136.249 135.887L135.9 135.628L135.638 135.238L135.42 134.804L135.333 134.327L135.289 133.763L135.333 133.199L135.42 132.722L135.638 132.29L135.9 131.899L136.206 131.595L136.6 131.379L137.037 131.247L137.473 131.205L137.952 131.247L138.346 131.379L138.695 131.595L139.001 131.899L139.219 132.246L139.394 132.68L139.525 133.2L139.569 133.764V134.111H136.513L136.556 134.458L136.687 134.717L136.818 134.892L136.992 135.022L137.166 135.109L137.341 135.151L137.603 135.194L137.908 135.151L138.169 135.064L138.387 134.934L138.605 134.761L139.349 135.541L139.174 135.715L138.956 135.888L138.783 136.019L138.565 136.105L138.083 136.279L137.603 136.322L137.122 136.277Z" fill="#808080"/>
<path d="M133.371 136.278L133.067 136.148L132.849 136.018L132.673 135.801L132.543 135.584L132.454 135.324L132.412 135.064L132.367 134.805V132.419H131.625V131.291H132.367V130.035L133.589 129.428V131.291H134.726V132.419H133.589V134.5L133.635 134.805L133.722 134.979L133.808 135.064L133.895 135.107L134.113 135.151H134.333L134.508 135.107L134.855 134.934L134.726 136.062L134.508 136.192L134.244 136.235L133.982 136.278L133.677 136.322L133.371 136.278Z" fill="#808080"/>
<path d="M129.879 136.278L129.573 136.148L129.355 136.018L129.18 135.801L129.05 135.584L128.962 135.324L128.919 135.064L128.875 134.805V132.419H128.133V131.291H128.875V130.035L130.097 129.428V131.291H131.145V132.419H130.097V134.5L130.142 134.805L130.228 134.979L130.315 135.064L130.403 135.107L130.621 135.151H130.839L131.015 135.107L131.363 134.934L131.234 136.062L131.015 136.192L130.752 136.235L130.49 136.278L130.184 136.322L129.879 136.278Z" fill="#808080"/>
<path d="M140.359 136.192V131.292H141.582V131.726L141.8 131.465L142.063 131.335L142.367 131.205H142.673H142.891L143.155 131.248L143.373 131.379L143.591 131.465L143.24 132.68L143.066 132.55L142.891 132.463L142.673 132.42H142.455H142.236L142.063 132.463L141.931 132.55L141.8 132.68L141.713 132.853L141.627 133.025L141.582 133.287V133.546V136.192H140.359Z" fill="#808080"/>
<path d="M88.1832 129.385H86.9609V130.598H88.1832V129.385Z" fill="#808080"/>
<path d="M97.8707 131.291H96.6484V136.191H97.8707V131.291Z" fill="#808080"/>
<path d="M97.8707 129.385H96.6484V130.598H97.8707V129.385Z" fill="#808080"/>
<path d="M130.183 140.917L130.053 141.004L129.922 141.134L129.791 141.308L129.703 141.525L129.616 141.872V142.219V142.652L129.703 142.999L129.791 143.261L129.922 143.478L130.053 143.608L130.227 143.695L130.358 143.738H130.533H130.838L131.057 143.608L131.233 143.435L131.407 143.263V141.354L131.276 141.181L131.058 141.05L130.84 140.919L130.534 140.875H130.36L130.183 140.917ZM130.271 144.863L129.834 144.82L129.485 144.688L129.136 144.471L128.874 144.168L128.656 143.821L128.483 143.345L128.395 142.868L128.352 142.261L128.395 141.697L128.483 141.219L128.656 140.786L128.874 140.439L129.136 140.135L129.485 139.918L129.878 139.788L130.314 139.745L130.576 139.788L130.882 139.875L131.144 140.005L131.406 140.222V138.443L132.628 137.836V144.773H131.406V144.383L131.144 144.6L130.838 144.773L130.578 144.86H130.271V144.863Z" fill="#808080"/>
<path d="M87.0469 144.777V139.878H88.2691V140.312L88.4874 140.05L88.7508 139.878L89.0127 139.791L89.3605 139.748L89.5787 139.791L89.8406 139.833L90.0604 139.922L90.2787 140.05L89.9295 141.221L89.7533 141.135L89.5351 141.049L89.3605 141.005L89.1422 140.961L88.9239 141.005L88.7508 141.049L88.5747 141.135L88.4874 141.265L88.3565 141.395L88.3128 141.612L88.2691 141.829V142.132V144.777H87.0469Z" fill="#808080"/>
<path d="M79.1053 144.778L78.5814 142.74L78.2759 141.656L78.014 142.782L77.4901 144.778H76.4425L76.3988 144.734L75.0938 140.049V139.879H76.2679L76.748 141.699L76.9663 142.914L77.1409 142.263L77.2719 141.656L77.7957 139.879H78.8449L79.3235 141.656L79.6306 142.914L79.891 141.656L80.3291 139.879H81.5513L80.1544 144.778H79.1053Z" fill="#808080"/>
<path d="M83.6381 141.006L83.4635 141.136L83.2889 141.266L83.2016 141.483L83.1143 141.743L83.0706 142.004L83.027 142.307L83.0706 142.612L83.1143 142.916L83.2016 143.133L83.2889 143.35L83.4635 143.523L83.6381 143.654L83.8127 143.697L84.031 143.74L84.2492 143.697L84.4238 143.654L84.5985 143.523L84.7731 143.35L84.8604 143.133L84.9477 142.916L85.035 142.612V142.307V142.004L84.9477 141.743L84.8604 141.483L84.7731 141.266L84.5985 141.136L84.4238 141.006L84.2492 140.919H84.031H83.8127L83.6381 141.006ZM83.5508 144.823L83.1143 144.692L82.765 144.475L82.4158 144.171L82.1539 143.781L81.9356 143.348L81.8483 142.871L81.8047 142.307L81.8483 141.787L81.9356 141.31L82.1539 140.833L82.4158 140.485L82.765 140.182L83.1143 139.965L83.5508 139.791L84.031 139.748L84.5112 139.791L84.9477 139.965L85.2969 140.182L85.6461 140.485L85.908 140.833L86.1263 141.31L86.2136 141.787L86.2573 142.307L86.2136 142.871L86.1263 143.348L85.908 143.781L85.6461 144.171L85.2969 144.475L84.9477 144.692L84.5112 144.823L84.031 144.865L83.5508 144.823Z" fill="#808080"/>
<path d="M122.461 144.777V139.877H123.683V140.31L123.944 140.05L124.207 139.877L124.469 139.791L124.775 139.748L125.036 139.791L125.298 139.833L125.517 139.92L125.69 140.05L125.386 141.221L125.211 141.135L124.993 141.048L124.775 141.005L124.556 140.961L124.38 141.005L124.207 141.048L124.032 141.135L123.901 141.265L123.814 141.395L123.771 141.612L123.725 141.829L123.683 142.131V144.777H122.461Z" fill="#808080"/>
<path d="M114.55 144.775L113.981 142.736L113.721 141.652L113.459 142.78L112.891 144.775H111.844V144.732L110.445 139.875H111.713L112.149 141.697L112.411 142.911L112.542 142.261L112.717 141.652L113.241 139.875H114.245L114.768 141.652L115.074 142.911L115.336 141.652L115.772 139.875H116.995L115.598 144.775H114.55Z" fill="#808080"/>
<path d="M119.051 141.005L118.876 141.135L118.745 141.265L118.614 141.482L118.527 141.743L118.483 142.002V142.306V142.61L118.527 142.913L118.614 143.13L118.745 143.347L118.876 143.52L119.051 143.651L119.269 143.694L119.487 143.737L119.705 143.694L119.88 143.651L120.056 143.52L120.187 143.347L120.318 143.13L120.405 142.913L120.449 142.61V142.306V142.002L120.405 141.743L120.318 141.482L120.187 141.265L120.056 141.135L119.88 141.005L119.705 140.918H119.487H119.269L119.051 141.005ZM119.007 144.82L118.57 144.69L118.178 144.473L117.872 144.17L117.61 143.779L117.392 143.345L117.261 142.868L117.219 142.304L117.261 141.784L117.392 141.308L117.61 140.874L117.872 140.485L118.178 140.182L118.57 139.965L119.007 139.79L119.489 139.748L119.925 139.79L120.362 139.965L120.755 140.182L121.06 140.485L121.366 140.874L121.539 141.308L121.67 141.784L121.713 142.304L121.67 142.868L121.539 143.345L121.366 143.779L121.06 144.17L120.755 144.473L120.362 144.69L119.925 144.82L119.489 144.864L119.007 144.82Z" fill="#808080"/>
<path d="M93.7248 144.775L92.6772 142.478L92.066 143.301V144.775H90.8438V138.445L92.066 137.838V141.74L92.5026 141.133L93.4629 139.875H94.9034L93.5939 141.479L95.0781 144.775H93.7248Z" fill="#808080"/>
<path d="M101.198 144.778V142.047V141.785L101.154 141.527L101.067 141.31L100.98 141.18L100.849 141.048L100.718 140.963L100.542 140.876H100.325H100.106L99.8867 140.963L99.7573 141.048L99.6248 141.18L99.4939 141.353L99.4517 141.527L99.4065 141.785L99.3629 142.047V144.778H98.1406V139.877H99.3629V140.269L99.6248 140.052L99.9304 139.877L100.236 139.791L100.63 139.748L101.022 139.791L101.416 139.922L101.722 140.095L101.982 140.312L102.158 140.659L102.289 141.048L102.376 141.482L102.42 142.002V144.778H101.198Z" fill="#808080"/>
<path d="M105.076 140.918L104.901 141.005L104.77 141.135L104.639 141.31L104.552 141.526L104.508 141.873L104.464 142.22L104.508 142.653L104.552 143L104.639 143.261L104.77 143.478L104.945 143.608L105.076 143.695L105.25 143.738H105.381H105.687L105.905 143.608L106.123 143.434L106.254 143.261V141.352L106.123 141.179L105.949 141.048L105.687 140.918L105.381 140.875H105.25L105.076 140.918ZM104.639 145.819H104.683L105.207 145.775L105.599 145.688L105.861 145.515L106.08 145.34L106.167 145.166L106.254 144.95V144.516V144.386L106.036 144.601L105.73 144.733L105.468 144.863H105.163L104.726 144.819L104.334 144.689L104.028 144.472L103.722 144.169L103.504 143.823L103.373 143.345L103.286 142.824L103.242 142.26L103.286 141.696L103.373 141.219L103.548 140.785L103.766 140.438L104.028 140.135L104.377 139.918L104.726 139.788L105.163 139.744L105.468 139.788L105.774 139.874L106.036 140.006L106.254 140.223V139.876H107.476V144.299L107.433 144.863L107.346 145.383L107.171 145.817L107.04 145.991L106.909 146.121L106.734 146.293L106.56 146.424L106.123 146.598L105.643 146.728L105.076 146.771L104.639 145.819Z" fill="#808080"/>
<path d="M97.0426 139.875H95.8203V144.775H97.0426V139.875Z" fill="#808080"/>
<path d="M97.0426 137.967H95.8203V139.181H97.0426V137.967Z" fill="#808080"/>
<path d="M126.297 144.774V138.445L127.519 137.838V144.774H126.297Z" fill="#808080"/>
<path d="M75.0938 86.8742L128.668 67.4453H128.674V77.4821L75.0938 86.8802V86.8742Z" fill="#FFE504"/>
<path d="M75.5156 122.75V95.1719H91.2772L94.9441 101.504H83.8111V106.055H93.8964V111.866H83.8111V116.42H97.7378V122.75H75.5156Z" fill="#808080"/>
<path d="M103.599 122.75V111.866L93.9062 95.1719H103.118L107.789 104.192L112.505 95.1719H121.63L111.893 111.866V122.75H103.599Z" fill="#808080"/>
</svg>
