<svg width="228" height="207" viewBox="0 0 228 207" fill="none" xmlns="http://www.w3.org/2000/svg">
<rect width="228" height="207" fill="white"/>
<g clip-path="url(#clip0_1483_14140)">
<path d="M91.1543 87.7246H41V73H91.1543V87.7246ZM44.2965 84.3567H87.8578V76.3679H44.2965V84.3567Z" fill="#00A984"/>
<path d="M53.1315 97.002V111.162H50.2424V105.212H43.9672V111.162H41.0781V97.002H43.9672V102.629H50.2424V97.002H53.1315Z" fill="black"/>
<path d="M57.7328 106.665C57.9586 108.348 59.155 109.041 60.6448 109.041C61.7506 109.041 62.5407 108.787 63.534 108.141V110.493C62.6987 111.116 61.57 111.393 60.2159 111.393C57.1459 111.393 55.0469 109.363 55.0469 106.089C55.0469 102.86 57.0334 100.623 59.787 100.623C62.7213 100.623 64.2337 102.698 64.2337 105.742V106.665H57.7328V106.665ZM57.8231 104.797H61.6378C61.57 103.69 60.9609 102.906 59.8544 102.906C58.9292 102.906 58.1391 103.506 57.8231 104.797Z" fill="black"/>
<path d="M75.1138 107.426L76.9194 100.854H79.6282L76.5582 111.162H73.9851L72.3375 104.843L70.69 111.162H68.1169L65.0469 100.854H67.846L69.6516 107.426L71.2991 100.854H73.4437L75.1138 107.426Z" fill="black"/>
<path d="M89.8031 106.665C90.0289 108.348 91.2253 109.041 92.7152 109.041C93.8209 109.041 94.611 108.787 95.6043 108.141V110.493C94.769 111.116 93.6403 111.393 92.2863 111.393C89.2162 111.393 87.1172 109.363 87.1172 106.089C87.1172 102.86 89.1037 100.623 91.8574 100.623C94.7916 100.623 96.3041 102.698 96.3041 105.742V106.665H89.8031V106.665ZM89.8934 104.797H93.7081C93.6403 103.69 93.0309 102.906 91.9247 102.906C90.9995 102.906 90.2095 103.506 89.8934 104.797Z" fill="black"/>
<path d="M119.054 106.249V111.162H116.188V97.002H121.831C124.765 97.002 126.706 98.616 126.706 101.637C126.706 104.635 124.765 106.249 121.831 106.249H119.054ZM121.65 99.5158H119.054V103.736H121.65C123.14 103.736 123.862 102.86 123.862 101.637C123.862 100.369 123.14 99.5158 121.65 99.5158Z" fill="black"/>
<path d="M133.568 104.729C133.568 103.738 132.733 103.115 131.311 103.115C130.295 103.115 129.347 103.415 128.557 103.945V101.478C129.28 101.017 130.588 100.625 131.92 100.625C134.697 100.625 136.254 102.078 136.254 104.591V111.164H133.568V110.611C133.23 110.956 132.237 111.349 131.131 111.349C129.099 111.349 127.406 110.149 127.406 108.005C127.406 106.045 129.099 104.707 131.311 104.707C132.191 104.707 133.162 105.007 133.568 105.306V104.729ZM133.568 107.612C133.32 107.058 132.575 106.713 131.785 106.713C130.905 106.713 130.002 107.105 130.002 107.981C130.002 108.88 130.905 109.249 131.785 109.249C132.575 109.249 133.32 108.904 133.568 108.35V107.612Z" fill="black"/>
<path d="M143.383 100.625C144.398 100.625 145.391 100.856 146.114 101.432V104.038C145.436 103.416 144.624 103.115 143.721 103.115C142.231 103.115 141.057 104.176 141.057 106.021C141.057 107.843 142.231 108.927 143.721 108.927C144.624 108.927 145.436 108.604 146.114 108.004V110.587C145.391 111.164 144.398 111.394 143.383 111.394C140.516 111.394 138.281 109.319 138.281 106.021C138.281 102.7 140.516 100.625 143.383 100.625Z" fill="black"/>
<path d="M158.105 111.162H154.832L151.198 106.411V111.162H148.398V96.1719H151.198V104.935L154.651 100.853H158.015L153.816 105.58L158.105 111.162Z" fill="black"/>
<path d="M164.678 104.729C164.678 103.738 163.843 103.115 162.421 103.115C161.405 103.115 160.457 103.415 159.667 103.945V101.478C160.389 101.017 161.698 100.625 163.03 100.625C165.806 100.625 167.364 102.078 167.364 104.591V111.164H164.678V110.611C164.339 110.956 163.346 111.349 162.24 111.349C160.208 111.349 158.516 110.149 158.516 108.005C158.516 106.045 160.208 104.707 162.421 104.707C163.301 104.707 164.271 105.007 164.678 105.306V104.729H164.678ZM164.678 107.612C164.43 107.058 163.685 106.713 162.895 106.713C162.015 106.713 161.112 107.105 161.112 107.981C161.112 108.88 162.015 109.249 162.895 109.249C163.685 109.249 164.43 108.904 164.678 108.35V107.612Z" fill="black"/>
<path d="M176.141 103.667C175.757 103.437 175.26 103.321 174.741 103.321C173.793 103.321 173.025 103.829 172.823 104.774V111.162H170.023V100.854H172.823V101.868C173.251 101.131 174.086 100.623 175.08 100.623C175.554 100.623 175.983 100.715 176.141 100.807V103.667H176.141Z" fill="black"/>
<path d="M184.181 110.308C183.73 110.861 182.736 111.392 181.652 111.392C178.718 111.392 177.07 108.97 177.07 106.019C177.07 103.067 178.718 100.623 181.652 100.623C182.736 100.623 183.729 101.153 184.181 101.707V96.1719H187.002V111.162H184.181V110.308ZM184.181 104.312C183.865 103.62 183.097 103.113 182.285 103.113C180.772 103.113 179.87 104.358 179.87 106.018C179.87 107.656 180.773 108.901 182.285 108.901C183.12 108.901 183.865 108.417 184.181 107.702V104.312Z" fill="black"/>
<path d="M85.615 109.405C84.7716 109.405 84.2582 108.933 84.2415 108.018H84.2835V97.1055H81.4844V107.32V108.018V108.159C81.4844 110.488 82.9062 111.826 85.0507 111.826C85.7053 111.826 86.202 111.734 86.6083 111.549V109.127C86.3148 109.336 85.9537 109.405 85.615 109.405Z" fill="black"/>
<path d="M108.679 103.628H111.226V101.299H108.679V97.1055H105.88V101.299H101.838V97.1055H99.0391V101.299H97.2031V103.628H99.0391V107.32V108.019V108.159C99.0391 110.489 100.461 111.826 102.606 111.826C103.26 111.826 103.757 111.734 104.163 111.549V109.128C103.87 109.336 103.509 109.405 103.17 109.405C102.326 109.405 101.813 108.933 101.796 108.018H101.838V103.628H105.88V107.32V108.018V108.159C105.88 110.488 107.302 111.826 109.446 111.826C110.101 111.826 110.598 111.734 111.004 111.549V109.127C110.71 109.335 110.349 109.404 110.011 109.404C109.167 109.404 108.654 108.933 108.637 108.018H108.679V103.628Z" fill="black"/>
<path d="M50.1193 116.784V118.41H43.0007V122.918H49.4602V124.545H43.0007V129.401H50.1193V131.051H41.2266V116.783H50.1193V116.784Z" fill="black"/>
<path d="M52.805 120.738H54.5107V122.04C55.1024 121.226 56.1938 120.529 57.4901 120.529C59.7875 120.529 61.0383 122.04 61.0383 124.293V131.055H59.3097V124.572C59.3097 123.132 58.6048 122.133 57.0807 122.133C55.898 122.133 54.8746 122.946 54.5104 124.061V131.056H52.8047V120.738H52.805Z" fill="black"/>
<path d="M71.9328 126.197C72.0012 128.591 73.4794 129.729 75.3216 129.729C76.4588 129.729 77.278 129.45 78.1874 128.753V130.356C77.369 131.007 76.3227 131.263 75.1171 131.263C72.2057 131.263 70.25 129.241 70.25 125.988C70.25 122.781 72.0692 120.527 74.7531 120.527C77.4822 120.527 78.8924 122.549 78.8924 125.57V126.197H71.9328ZM72.0238 124.826H77.2322C77.1641 123.316 76.4133 122.015 74.7757 122.015C73.4339 122.015 72.3422 122.921 72.0238 124.826Z" fill="black"/>
<path d="M86.3964 122.479C86.1235 122.293 85.6912 122.2 85.2592 122.2C84.1903 122.2 83.2576 122.921 82.9166 124.129V131.053H81.2109V120.736H82.9166V122.084C83.3486 121.201 84.3039 120.527 85.4182 120.527C85.8505 120.527 86.2141 120.597 86.3961 120.69V122.479H86.3964Z" fill="black"/>
<path d="M89.8776 135.004H88.1719V120.736H89.8776V121.945C90.4005 121.201 91.4694 120.527 92.7205 120.527C95.7003 120.527 97.2695 123.037 97.2695 125.895C97.2695 128.753 95.7003 131.262 92.7205 131.262C91.4697 131.262 90.4009 130.588 89.8776 129.845V135.004ZM89.8776 127.986C90.4005 129.055 91.4013 129.683 92.4701 129.683C94.4033 129.683 95.5405 128.079 95.5405 125.895C95.5405 123.711 94.4033 122.108 92.4701 122.108C91.4013 122.108 90.4005 122.735 89.8776 123.804V127.986Z" fill="black"/>
<path d="M105.115 122.479C104.842 122.293 104.41 122.2 103.978 122.2C102.909 122.2 101.977 122.921 101.635 124.129V131.053H99.9297V120.736H101.635V122.084C102.068 121.201 103.023 120.527 104.137 120.527C104.569 120.527 104.933 120.597 105.115 120.69V122.479H105.115Z" fill="black"/>
<path d="M108.068 118.736C107.477 118.736 106.977 118.225 106.977 117.621C106.977 116.994 107.477 116.506 108.068 116.506C108.682 116.506 109.183 116.994 109.183 117.621C109.182 118.225 108.682 118.736 108.068 118.736ZM108.932 131.052H107.227V120.735H108.932V131.052Z" fill="black"/>
<path d="M111.399 128.381C112.331 129.264 113.491 129.776 114.72 129.776C115.834 129.776 116.812 129.357 116.812 128.335C116.812 127.568 116.243 127.15 115.356 126.848L113.969 126.36C112.445 125.849 111.421 125.105 111.421 123.432C111.421 121.619 112.991 120.527 114.992 120.527C116.129 120.527 117.176 120.853 117.994 121.433V123.246C117.153 122.526 116.22 122.015 114.992 122.015C113.946 122.015 113.082 122.479 113.082 123.362C113.082 124.199 113.628 124.477 114.583 124.826L116.129 125.36C117.653 125.895 118.495 126.801 118.495 128.265C118.495 130.17 116.834 131.262 114.719 131.262C113.4 131.262 112.149 130.844 111.398 130.24V128.381H111.399Z" fill="black"/>
<path d="M121.878 126.197C121.946 128.591 123.425 129.729 125.267 129.729C126.404 129.729 127.223 129.45 128.133 128.753V130.356C127.314 131.007 126.268 131.263 125.062 131.263C122.151 131.263 120.195 129.241 120.195 125.988C120.195 122.781 122.015 120.527 124.699 120.527C127.428 120.527 128.838 122.549 128.838 125.57V126.197H121.878ZM121.969 124.826H127.177C127.109 123.316 126.359 122.015 124.721 122.015C123.379 122.015 122.287 122.921 121.969 124.826Z" fill="black"/>
<path d="M68.0325 129.727C67.0318 129.727 66.3723 129.077 66.3723 127.845V126.954H66.4144V122.21H69.0935V120.754H66.4144V118.191H64.6892V120.754H62.3672V122.21H64.6892V126.954V127.985C64.6892 130.053 66.0081 131.261 67.7822 131.261C68.3284 131.261 68.7149 131.191 69.1014 131.029V129.448C68.7833 129.658 68.3968 129.727 68.0325 129.727Z" fill="black"/>
</g>
<defs>
<clipPath id="clip0_1483_14140">
<rect width="146" height="62" fill="white" transform="translate(41 73)"/>
</clipPath>
</defs>
</svg>
