<svg width="228" height="207" viewBox="0 0 228 207" fill="none" xmlns="http://www.w3.org/2000/svg">
<rect width="228" height="207" fill="white"/>
<g clip-path="url(#clip0_1483_14121)">
<mask id="mask0_1483_14121" style="mask-type:luminance" maskUnits="userSpaceOnUse" x="40" y="86" width="148" height="35">
<path d="M40 86H187.719V120.723H40V86Z" fill="white"/>
</mask>
<g mask="url(#mask0_1483_14121)">
<path d="M80.849 95.9834H85.6121V102.383H91.9021V95.9834H96.66V113.086H91.9021V106.588H85.6068V113.086H80.8438V95.9834H80.849ZM100.782 104.582V104.535C100.782 99.6245 104.67 95.6387 109.97 95.6387C115.269 95.6387 119.105 99.5723 119.105 104.483V104.53C119.105 109.44 115.217 113.421 109.917 113.421C104.618 113.426 100.782 109.492 100.782 104.582ZM114.248 104.582V104.535C114.248 102.069 112.544 99.917 109.923 99.917C107.322 99.917 105.67 102.017 105.67 104.488V104.535C105.67 107.001 107.374 109.153 109.975 109.153C112.591 109.153 114.248 107.053 114.248 104.582ZM123.446 95.9834H128.209V108.933H136.078V113.086H123.446V95.9834ZM138.47 104.582V104.535C138.47 99.5514 142.321 95.6387 147.527 95.6387C151.034 95.6387 153.296 97.1066 154.818 99.2066L151.232 101.97C150.253 100.748 149.122 99.964 147.48 99.964C145.078 99.964 143.384 101.991 143.384 104.483V104.53C143.384 107.095 145.078 109.101 147.48 109.101C149.273 109.101 150.326 108.27 151.357 107.022L154.943 109.56C153.322 111.786 151.139 113.421 147.334 113.421C142.42 113.426 138.47 109.691 138.47 104.582ZM159.216 95.9834H164V113.086H159.216V95.9834ZM168.925 95.9834H173.953L178.321 102.607L182.688 95.9834H187.716V113.086H182.979V103.083L178.321 109.78H178.221L173.583 103.135V113.086H168.919V95.9834H168.925Z" fill="#1D4370"/>
<path d="M62.5961 86C58.0362 86 54.1225 88.9254 53.0699 93.4336C52.851 94.4 52.6999 95.6433 52.6999 97.3515V100.679H59.8028V93.1201H65.3893V105.401C69.4854 104.19 72.4975 100.397 72.4975 95.8836C72.4975 90.3201 68.1513 86 62.5961 86ZM49.8128 120.206C54.3779 120.206 58.3749 117.281 59.4276 112.772C59.6465 111.806 59.7976 110.563 59.7976 108.854V105.527H52.6946V113.086H47.1082V100.804C43.0121 102.016 40 105.809 40 110.317C40 116.121 44.0231 120.206 49.8128 120.206Z" fill="url(#paint0_linear_1483_14121)"/>
</g>
</g>
<defs>
<linearGradient id="paint0_linear_1483_14121" x1="39.0599" y1="110.403" x2="73.3748" y2="95.8722" gradientUnits="userSpaceOnUse">
<stop offset="0.15" stop-color="#94C12E"/>
<stop offset="0.186" stop-color="#8DC137"/>
<stop offset="0.245" stop-color="#7BC04F"/>
<stop offset="0.32" stop-color="#5EBF77"/>
<stop offset="0.407" stop-color="#36BDAE"/>
<stop offset="0.5" stop-color="#04BBF1"/>
<stop offset="0.586" stop-color="#05B7ED"/>
<stop offset="0.674" stop-color="#08ABE0"/>
<stop offset="0.764" stop-color="#0C98CC"/>
<stop offset="0.855" stop-color="#117DAF"/>
<stop offset="0.946" stop-color="#185B8A"/>
<stop offset="1" stop-color="#1D4370"/>
</linearGradient>
<clipPath id="clip0_1483_14121">
<rect width="148" height="35" fill="white" transform="translate(40 86)"/>
</clipPath>
</defs>
</svg>
