<svg width="228" height="207" viewBox="0 0 228 207" fill="none" xmlns="http://www.w3.org/2000/svg">
<rect width="228" height="207" fill="white"/>
<g clip-path="url(#clip0_1483_14136)">
<path fill-rule="evenodd" clip-rule="evenodd" d="M66.9766 117.65H71.9637L75.8748 103.273H70.8876L66.9766 117.65Z" fill="#005370"/>
<path fill-rule="evenodd" clip-rule="evenodd" d="M92.5938 117.65H97.5809L101.492 103.273H96.5048L92.5938 117.65Z" fill="#005370"/>
<path fill-rule="evenodd" clip-rule="evenodd" d="M118.219 117.65H123.206L127.117 103.273H122.13L118.219 117.65Z" fill="#005370"/>
<path fill-rule="evenodd" clip-rule="evenodd" d="M87.9468 108.199H92.9392C93.6011 104.968 91.4801 103.303 86.5867 103.303C80.9273 103.303 77.0813 106.033 75.7889 110.773C74.619 115.07 76.9354 117.685 82.2587 117.685C87.642 117.685 90.8234 116.037 92.1836 112.339H87.173C86.4746 113.963 85.164 114.815 83.3948 114.815C80.9768 114.815 80.0309 113.306 80.7735 110.576C81.5474 107.732 83.3687 106.164 85.8076 106.164C87.3397 106.167 88.0615 106.844 87.9468 108.199Z" fill="#005370"/>
<mask id="mask0_1483_14136" style="mask-type:luminance" maskUnits="userSpaceOnUse" x="40" y="88" width="148" height="31">
<path d="M40 88.7246H188V118.099H40V88.7246Z" fill="white"/>
</mask>
<g mask="url(#mask0_1483_14136)">
<path fill-rule="evenodd" clip-rule="evenodd" d="M113.571 108.197H118.561C119.223 104.966 117.102 103.301 112.211 103.301C106.551 103.301 102.703 106.031 101.413 110.771C100.246 115.068 102.56 117.683 107.883 117.683C113.266 117.683 116.448 116.035 117.805 112.337H112.794C112.096 113.961 110.783 114.814 109.016 114.814C106.598 114.814 105.655 113.304 106.398 110.574C107.171 107.73 108.993 106.162 111.429 106.162C112.964 106.165 113.686 106.842 113.571 108.197Z" fill="#005370"/>
</g>
<mask id="mask1_1483_14136" style="mask-type:luminance" maskUnits="userSpaceOnUse" x="40" y="88" width="148" height="31">
<path d="M40 88.7246H188V118.099H40V88.7246Z" fill="white"/>
</mask>
<g mask="url(#mask1_1483_14136)">
<path fill-rule="evenodd" clip-rule="evenodd" d="M47.707 95.301C54.3878 88.7773 62.4653 87.0937 65.6885 91.5515C68.9116 96.0067 66.0897 104.961 59.4089 111.485C52.728 118.006 44.648 119.692 41.4274 115.237C38.2042 110.779 41.0261 101.825 47.707 95.301Z" fill="#F59D0F"/>
</g>
<mask id="mask2_1483_14136" style="mask-type:luminance" maskUnits="userSpaceOnUse" x="40" y="88" width="148" height="31">
<path d="M40 88.7246H188V118.099H40V88.7246Z" fill="white"/>
</mask>
<g mask="url(#mask2_1483_14136)">
<path fill-rule="evenodd" clip-rule="evenodd" d="M52.1288 91.8218C51.4071 92.353 50.641 92.9741 49.9219 93.6849C44.067 99.3643 41.6359 107.171 44.5178 111.075C47.4908 114.978 54.6954 113.559 60.6414 107.79C63.8385 104.731 66.0012 101.138 66.9028 97.8091C67.1738 95.3685 66.8142 93.1948 65.6859 91.5549C63.1194 88.0954 57.6241 88.3623 52.1288 91.8218Z" fill="#AD2221"/>
</g>
<mask id="mask3_1483_14136" style="mask-type:luminance" maskUnits="userSpaceOnUse" x="40" y="88" width="148" height="31">
<path d="M40 88.7246H188V118.099H40V88.7246Z" fill="white"/>
</mask>
<g mask="url(#mask3_1483_14136)">
<path fill-rule="evenodd" clip-rule="evenodd" d="M55.4403 114.701C52.3135 117.015 49.0799 118.16 45.9297 117.683C47.2507 117.749 48.3217 116.305 49.1972 114.362C50.0857 112.373 50.6224 110.525 51.0472 108.8C51.6673 106.067 51.7168 104.114 51.3989 103.693C50.8648 102.998 49.6453 103.178 48.2722 103.958C47.6155 104.317 46.7374 104.078 47.7719 102.844C48.8193 101.597 52.9805 98.5991 54.4788 98.1321C56.1229 97.665 57.9964 98.2989 57.3632 100.075C56.9124 101.363 51.154 116.243 55.4403 114.701ZM60.1486 91.6186C60.9277 92.386 60.4535 94.0644 59.1272 95.3835C57.7879 96.6898 56.0474 97.1568 55.2917 96.4023C54.4892 95.6478 54.9634 93.9437 56.3027 92.6144C57.655 91.2824 59.3956 90.8744 60.1486 91.6186Z" fill="white"/>
</g>
<path fill-rule="evenodd" clip-rule="evenodd" d="M134.604 115.379L135.745 111.186H139.01C141.524 111.186 142.639 111.625 142.178 113.324C141.754 114.881 140.524 115.379 138.252 115.379H134.604ZM137.293 105.496H140.396C142.728 105.496 143.807 105.776 143.416 107.213C143.025 108.65 141.772 109.01 139.359 109.01H136.339L137.293 105.496ZM130.836 117.676H138.317C140.446 117.676 142.03 117.517 143.549 116.478C144.565 115.798 145.313 114.761 145.623 113.621C146.162 111.645 145.242 110.326 142.957 110.005C145.115 109.608 146.472 108.489 146.934 106.792C147.293 105.473 146.999 104.536 146.037 103.897C145.245 103.379 143.95 103.297 142.186 103.297H134.744L130.836 117.676Z" fill="#005370"/>
<path fill-rule="evenodd" clip-rule="evenodd" d="M155.013 113.042L154.963 113.222C154.458 115.077 152.936 116.196 151.073 116.196C149.716 116.196 149.145 115.678 149.408 114.718C149.768 113.399 150.94 113.04 153.108 113.04H155.013M153.853 117.677H156.855C156.938 116.999 157.097 116.26 157.322 115.442L158.413 111.428C159.135 108.772 157.801 107.414 154.416 107.414C151.154 107.414 149.025 108.533 148.371 110.409H151.25C151.628 109.47 152.457 109.031 153.835 109.031C155.375 109.031 155.922 109.708 155.526 111.166L155.477 111.346H153.895C149.434 111.346 147.029 112.144 146.339 114.679C145.807 116.635 147.061 117.918 149.716 117.918C151.438 117.918 152.949 117.356 154.15 116.296L153.853 117.677Z" fill="#005370"/>
<path fill-rule="evenodd" clip-rule="evenodd" d="M159.445 117.677H162.465L163.862 112.544C164.367 110.686 166.1 109.387 167.903 109.387C169.667 109.387 170.282 110.406 169.727 112.444L168.304 117.674H171.264L172.937 111.525C173.643 108.93 172.307 107.432 169.368 107.432C167.463 107.432 165.91 108.071 164.607 109.428L164.969 107.652H161.988C161.681 109.231 161.475 110.208 161.371 110.588L159.445 117.677Z" fill="#005370"/>
<path fill-rule="evenodd" clip-rule="evenodd" d="M173.922 117.676H176.864L178.336 112.264L182.296 117.676H186.33L181.869 111.943L187.922 107.652H184.131L178.492 111.686L180.775 103.297H177.833L173.922 117.676Z" fill="#005370"/>
</g>
<defs>
<clipPath id="clip0_1483_14136">
<rect width="148" height="29" fill="white" transform="translate(40 89)"/>
</clipPath>
</defs>
</svg>
