<svg width="228" height="207" viewBox="0 0 228 207" fill="none" xmlns="http://www.w3.org/2000/svg">
<rect width="228" height="207" fill="white"/>
<path d="M110.512 78.8398C99.9227 78.8398 91.3686 87.4181 91.3686 98.0009C91.3686 108.584 99.9227 117.162 110.512 117.162C121.101 117.162 129.685 108.584 129.685 98.0009C129.685 87.4329 121.101 78.8398 110.512 78.8398ZM121.927 80.5349C124.508 82.2741 126.927 84.765 128.52 87.3886H134.685V115.497H141.631L141.661 102.511C141.764 102.511 148.106 115.497 148.106 115.497H155.259L148.489 101.067C149.92 100.374 151.129 99.4012 152.088 98.1926C154.565 95.1857 155.155 90.2481 153.312 86.7843C151.542 83.1732 147.722 80.8149 143.725 80.5938L121.927 80.5349ZM149.698 80.5349C152.412 82.2594 154.064 84.087 155.303 87.3886H165.155C165.155 87.3886 165.7 87.3297 165.509 87.934L157.028 108.26C156.468 109.321 156.35 110.809 156.763 112.298C157.412 114.023 158.592 115.202 160.627 115.497H173.679V108.407C173.679 108.407 165.656 108.407 165.17 108.407C164.683 108.407 164.786 107.921 164.786 107.921L173.325 87.4181C173.709 86.0326 173.606 84.5587 173.03 83.3206C172.219 81.7582 170.833 80.5643 169.019 80.5938C169.034 80.5791 149.684 80.5201 149.698 80.5349ZM61.6654 80.5496C58.3027 80.8296 55.0876 83.2027 53.9667 86.5043C52.8606 89.8648 53.8045 93.476 56.3265 95.8785L64.2316 102.32C65.1165 103.219 65.4557 104.309 65.3377 105.489C65.1165 106.874 63.8924 108.068 62.4913 108.363L54.8811 108.333V115.482H62.1963C67.9777 115.025 71.2518 111.06 72.1367 107.581C73.0364 103.882 72.0335 100.212 69.5263 97.5882L61.0754 90.5871C60.7952 90.2039 60.515 89.5258 60.5887 88.9952C60.692 88.2583 61.2967 87.5802 62.2406 87.3739H68.8626V80.5496H61.6654ZM70.7946 80.5496V87.3444H77.9476C78.7588 87.3592 79.0242 87.8308 79.0242 88.3909L79.0537 115.482H86.0887L86.0592 88.5088C86.1182 87.6982 86.3837 87.3739 87.1948 87.3739L92.3125 87.3444C94.2151 84.5145 96.4126 82.1857 98.964 80.5496H70.7946ZM110.512 87.1233C116.544 87.1233 121.441 91.9873 121.441 98.0157C121.441 104.044 116.544 108.938 110.512 108.938C104.495 108.938 99.613 104.044 99.613 98.0157C99.613 91.9873 104.48 87.1233 110.512 87.1233ZM142.147 87.3739C142.118 87.3739 143.504 87.3886 143.489 87.3739C144.994 87.4034 146.011 87.993 146.749 89.29C147.427 90.4249 147.457 92.2968 146.749 93.476C145.893 94.773 144.979 95.2447 143.607 95.3921C143.593 95.3479 142.133 95.3921 142.133 95.3921C142.133 95.3921 141.646 95.3479 141.646 94.9499C141.646 94.5519 141.646 88.2288 141.646 87.8013C141.631 87.3886 142.177 87.3739 142.147 87.3739ZM110.335 92.8127C107.459 92.8127 105.129 95.1415 105.129 98.0157C105.129 100.89 107.459 103.219 110.335 103.219C113.211 103.219 115.541 100.89 115.541 98.0157C115.541 95.1268 113.211 92.8127 110.335 92.8127ZM75.1749 120.198C74.2457 120.213 73.4346 120.537 72.8741 121.333C72.24 122.041 72.24 123.235 72.5202 124.119C73.1249 125.637 74.9979 125.003 75.9123 126.065C76.0745 126.389 75.8533 126.787 75.5289 126.993C74.644 127.376 73.6558 126.964 72.9479 126.359C72.9479 126.389 71.9892 128.01 71.9892 128.01C72.7414 128.541 73.3608 128.968 74.4817 129.057C75.7648 129.086 76.9152 128.865 77.7411 127.833C78.3753 127.052 78.4638 125.726 78.0066 124.841C77.3282 123.5 75.7353 123.913 74.7767 123.102C74.6735 122.748 74.7177 122.35 75.0422 122.173C75.7206 121.849 76.9889 122.527 76.9889 122.527C76.9889 122.527 77.8148 120.803 77.8296 120.847C77.2987 120.567 76.7235 120.39 76.1188 120.272C75.8238 120.198 75.4846 120.184 75.1749 120.198ZM87.9912 120.198C85.7347 120.434 83.9797 122.35 83.9797 124.664C83.9797 127.141 85.9855 129.13 88.4484 129.13C90.9262 129.13 92.9172 127.126 92.9172 124.664C92.9172 122.188 90.9114 120.198 88.4484 120.198C88.3009 120.198 88.1387 120.184 87.9912 120.198ZM148.548 120.198C145.952 120.198 143.873 122.232 143.873 124.694C143.873 127.17 145.952 129.16 148.548 129.16C151.144 129.16 153.253 127.155 153.253 124.694C153.253 122.218 151.129 120.198 148.548 120.198ZM156.453 120.198C155.524 120.213 154.713 120.537 154.152 121.333C153.518 122.041 153.518 123.264 153.799 124.148C154.403 125.667 156.276 125.033 157.191 126.094C157.353 126.418 157.132 126.787 156.807 126.993C155.922 127.376 154.934 126.949 154.226 126.359C154.226 126.389 153.268 128.01 153.268 128.01C154.02 128.541 154.639 128.968 155.76 129.057C157.043 129.086 158.194 128.895 159.019 127.863C159.654 127.082 159.742 125.726 159.285 124.841C158.606 123.5 157.014 123.913 156.055 123.102C155.952 122.748 155.996 122.35 156.32 122.173C156.999 121.849 158.267 122.557 158.267 122.557C158.267 122.557 159.064 120.803 159.078 120.847C158.547 120.567 158.002 120.419 157.397 120.302C157.087 120.228 156.748 120.184 156.453 120.198ZM171.202 120.198C168.621 120.198 166.526 122.232 166.526 124.694C166.526 127.17 168.621 129.16 171.202 129.16C173.783 129.16 175.877 127.155 175.877 124.694C175.877 122.218 173.797 120.198 171.202 120.198ZM93.5956 120.449V128.865H95.8964L95.9259 125.873L95.9554 125.932L98.0201 128.865H107.636V126.978H104.126L108.079 120.449H101.014V122.365L104.303 122.395L100.513 128.556L98.0939 125.416C98.5953 125.21 98.9788 125.048 99.4655 124.517C99.9079 123.809 99.9227 122.792 99.7015 122.026C99.4065 121.333 98.6543 120.493 97.9021 120.493L93.5956 120.449ZM126.75 120.449V128.865H129.11V123.898L133.092 128.865H135.304V120.449H133.033L133.062 125.504L129.051 120.449H126.75ZM40 120.478V128.865H42.2713V125.387L45.0587 128.865H49.7929L50.3386 127.465L53.2441 127.494L53.8487 128.865H56.2085L52.8901 120.478H50.6188L47.5069 128.231L44.3065 124.546L47.6987 120.478H44.8522L42.2418 123.795V120.478H40ZM56.5034 120.478V128.865H58.7452V125.991L60.8395 128.865H63.5679L61.0164 125.519C61.5474 125.313 61.8129 125.136 62.2701 124.65C62.7273 124.09 62.8452 122.896 62.6535 122.129C62.3438 121.436 61.6949 120.582 60.8837 120.478H56.5034ZM64.0841 120.478V128.865H68.9068V126.89L66.3259 126.919V120.478H64.0841ZM78.2278 120.478V122.365H79.9976V128.865H82.3574V122.395H84.0682V120.478H78.2278ZM121.293 120.478V128.865H126.145V126.978H123.535L123.505 125.549H125.924V123.721H123.535L123.505 122.38H126.086V120.464H121.293V120.478ZM136.086 120.478V128.85L139.684 128.88C140.481 128.88 141.69 128.423 142.501 127.48C143.445 126.404 143.814 124.797 143.371 123.323C142.944 121.938 141.469 120.464 139.994 120.478H136.086ZM159.934 120.478V128.865H162.205V125.475L165.052 128.865H167.957L164.27 124.429L167.721 120.478H164.875L162.235 123.765L162.205 123.736V120.478H159.934ZM176.319 120.478V128.85H178.679V126.183C180.065 126.197 181.54 126.33 182.425 125.165C182.927 124.311 183.089 123.146 182.691 122.114C182.366 121.304 181.452 120.596 180.39 120.493H176.319V120.478ZM183.266 120.478V128.85H188V127.082L185.478 127.052L185.449 125.622H187.838V123.736L185.419 123.765V122.365H188V120.478H183.266ZM96.737 122.173C97.268 122.262 97.5334 122.616 97.5187 123.161C97.5334 123.721 97.2827 124.045 96.8255 124.148H95.9259V122.203L96.737 122.173ZM58.7304 122.188H59.5416C60.0725 122.277 60.338 122.63 60.3233 123.176C60.338 123.736 60.0578 124.031 59.6006 124.134L58.7304 124.163V122.188ZM88.4632 122.336C89.7463 122.336 90.8229 123.367 90.8229 124.664C90.8229 125.947 89.761 126.993 88.4632 126.993C87.1801 126.993 86.1329 125.961 86.1329 124.664C86.1329 123.382 87.1653 122.336 88.4632 122.336ZM148.548 122.336C149.905 122.336 150.982 123.397 150.982 124.694C150.982 125.976 149.89 127.023 148.548 127.023C147.191 127.023 146.115 125.991 146.115 124.694C146.1 123.397 147.191 122.336 148.548 122.336ZM171.202 122.336C172.544 122.336 173.635 123.397 173.635 124.694C173.635 125.976 172.544 127.023 171.202 127.023C169.859 127.023 168.768 125.991 168.768 124.694C168.768 123.397 169.859 122.336 171.202 122.336ZM138.372 122.365C138.372 122.365 139.404 122.38 139.389 122.395C140.318 122.483 141.13 123.249 141.13 124.605C141.13 126.138 140.215 126.875 139.36 126.964H138.372V122.365ZM178.679 122.365H179.52C180.051 122.453 180.287 122.807 180.272 123.353C180.287 123.913 180.006 124.237 179.549 124.34L178.679 124.311V122.365ZM51.7102 123.47C51.7102 123.5 52.5214 125.622 52.5214 125.622L50.9875 125.652C50.9728 125.652 51.7102 123.456 51.7102 123.47ZM108.919 124.723V125.21H119.037V124.723H108.919Z" fill="#074089"/>
</svg>
