<svg width="228" height="207" viewBox="0 0 228 207" fill="none" xmlns="http://www.w3.org/2000/svg">
<rect width="228" height="207" fill="white"/>
<g clip-path="url(#clip0_1483_14117)">
<path d="M114 65C106.287 65 98.7463 67.2873 92.3328 71.5727C85.9193 75.8581 80.9205 81.949 77.9687 89.0753C75.0169 96.2017 74.2446 104.043 75.7494 111.609C77.2542 119.174 80.9686 126.123 86.4229 131.577C91.8771 137.031 98.8262 140.746 106.391 142.251C113.957 143.755 121.798 142.983 128.925 140.031C136.051 137.079 142.142 132.081 146.427 125.667C150.713 119.254 153 111.713 153 104C153 93.6566 148.891 83.7368 141.577 76.4228C134.263 69.1089 124.343 65 114 65Z" fill="#2B3990"/>
<path d="M102.566 88.5326H101.266C98.7986 88.5326 97.4674 89.9418 97.4674 92.7212V106.114C97.4674 109.559 96.2922 110.773 93.5518 110.773C92.5233 110.777 91.5084 110.538 90.5899 110.075C89.6713 109.612 88.875 108.939 88.266 108.111C87.3515 108.441 86.5684 109.059 86.0334 109.871C85.4983 110.683 85.2399 111.646 85.2968 112.616C85.2968 116.22 88.6768 118.412 94.8908 118.412C102.488 118.412 106.482 114.613 106.482 106.233V92.6926C106.482 89.9054 105.109 88.5326 102.566 88.5326ZM114.313 95.3056H113.413C111.221 95.3056 109.537 96.3248 109.537 99.4942V113.864C109.537 117.036 111.141 118.053 113.491 118.053H114.391C116.583 118.053 118.15 116.956 118.15 113.864V99.4968C118.189 96.2468 116.661 95.3056 114.313 95.3056ZM113.793 84.89C113.222 84.8146 112.641 84.863 112.09 85.0318C111.539 85.2007 111.031 85.486 110.6 85.8685C110.169 86.251 109.826 86.7217 109.593 87.2487C109.36 87.7756 109.243 88.3465 109.251 88.9226C109.251 91.429 111.052 92.9942 113.91 92.9942C114.484 93.0687 115.068 93.0185 115.621 92.8469C116.174 92.6753 116.683 92.3864 117.114 91.9999C117.546 91.6134 117.888 91.1383 118.119 90.6073C118.35 90.0762 118.464 89.5015 118.452 88.9226C118.501 86.4188 116.7 84.8926 113.803 84.8926L113.793 84.89ZM132.773 95.0716C125.412 95.0716 120.516 99.7308 120.516 106.701C120.516 113.828 125.215 118.401 132.656 118.401C140.016 118.401 144.876 113.82 144.876 106.733C144.936 105.149 144.662 103.57 144.071 102.1C143.479 100.629 142.584 99.3005 141.443 98.1999C140.303 97.0994 138.943 96.2521 137.452 95.7135C135.962 95.1749 134.374 94.957 132.794 95.0742L132.773 95.0716ZM132.695 111.831C131.673 111.88 130.66 111.621 129.787 111.088C128.914 110.555 128.221 109.772 127.797 108.842C127.373 107.911 127.237 106.874 127.408 105.866C127.579 104.857 128.048 103.923 128.755 103.184C129.462 102.445 130.374 101.934 131.374 101.718C132.373 101.503 133.415 101.592 134.364 101.973C135.313 102.355 136.125 103.013 136.697 103.861C137.268 104.71 137.572 105.71 137.57 106.733C137.601 107.39 137.499 108.047 137.27 108.664C137.04 109.28 136.688 109.844 136.234 110.321C135.78 110.798 135.234 111.177 134.63 111.437C134.025 111.696 133.374 111.831 132.716 111.831H132.695Z" fill="white"/>
</g>
<defs>
<clipPath id="clip0_1483_14117">
<rect width="78" height="78" fill="white" transform="translate(75 65)"/>
</clipPath>
</defs>
</svg>
