<svg width="228" height="207" viewBox="0 0 228 207" fill="none" xmlns="http://www.w3.org/2000/svg">
<rect width="228" height="207" fill="white"/>
<path fill-rule="evenodd" clip-rule="evenodd" d="M40.8984 89.6073H47.4784V98.4538H52.6084V89.5586H59.1396V110.956H52.6084V101.159H47.4297V110.846H40.8984V89.6073Z" fill="#E40F1A"/>
<path d="M40.8984 89.6073H47.4784V98.4538H52.6084V89.5586H59.1396V110.956H52.6084V101.159H47.4297V110.846H40.8984V89.6073Z" stroke="#E40F1A" stroke-width="0.216" stroke-miterlimit="2.6131"/>
<path fill-rule="evenodd" clip-rule="evenodd" d="M71.7391 98.4051C71.9219 98.8803 72.1168 99.782 72.129 100.988C72.1534 103.096 72.1534 105.582 72.1047 106.094C72.0194 107.093 71.666 108.531 70.8252 109.238C69.9844 109.944 68.9487 109.652 68.3151 108.689C67.6692 107.727 67.4499 106.813 67.4987 104.083C67.5474 101.354 67.4012 99.4652 67.913 98.3442C68.4247 97.2231 68.9609 96.7601 69.4483 96.6748C70.4597 96.4677 71.2395 97.1622 71.7391 98.4051ZM69.5458 94.8348C69.5458 94.8348 71.666 94.713 73.3719 95.3832C75.0778 96.0533 76.3573 96.8088 77.5514 98.8559C78.7456 100.903 78.8796 103.864 78.0388 106.277C77.198 108.689 75.5043 109.871 74.3833 110.481C73.25 111.09 71.4832 111.407 69.7529 111.407C68.0104 111.407 65.7927 111.029 64.294 109.835C62.7952 108.641 61.796 107.337 61.333 105.57C60.8699 103.803 60.5897 100.635 62.4784 98.137C64.3671 95.6391 66.7432 95.176 67.8398 94.9933C68.8147 94.8105 69.4605 94.8348 69.5458 94.8348Z" fill="#E40F1A"/>
<path d="M71.7391 98.4051C71.9219 98.8803 72.1168 99.782 72.129 100.988C72.1534 103.096 72.1534 105.582 72.1047 106.094C72.0194 107.093 71.666 108.531 70.8252 109.238C69.9844 109.944 68.9487 109.652 68.3151 108.689C67.6692 107.727 67.4499 106.813 67.4987 104.083C67.5474 101.354 67.4012 99.4652 67.913 98.3442C68.4247 97.2231 68.9609 96.7601 69.4483 96.6748C70.4597 96.4677 71.2395 97.1622 71.7391 98.4051ZM69.5458 94.8348C69.5458 94.8348 71.666 94.713 73.3719 95.3832C75.0778 96.0533 76.3573 96.8088 77.5514 98.8559C78.7456 100.903 78.8796 103.864 78.0388 106.277C77.198 108.689 75.5043 109.871 74.3833 110.481C73.25 111.09 71.4832 111.407 69.7529 111.407C68.0104 111.407 65.7927 111.029 64.294 109.835C62.7952 108.641 61.796 107.337 61.333 105.57C60.8699 103.803 60.5897 100.635 62.4784 98.137C64.3671 95.6391 66.7432 95.176 67.8398 94.9933C68.8147 94.8105 69.4605 94.8348 69.5458 94.8348Z" stroke="#E40F1A" stroke-width="0.216" stroke-miterlimit="2.6131"/>
<path fill-rule="evenodd" clip-rule="evenodd" d="M86.4685 99.7108V110.86H80.3516V95.3607H86.4929V97.4443C86.5051 97.4565 87.3093 96.2258 88.5522 95.6287C89.7951 95.0317 91.9396 94.4833 94.133 95.4094C96.3263 96.3355 96.6797 98.2973 96.7284 99.0528L96.7406 110.86H90.7089V100.064C90.7089 99.6864 90.7089 99.0284 90.2215 98.4313C89.8804 98.017 88.8812 97.7611 88.0526 98.212C87.1996 98.6628 86.3467 99.5889 86.4685 99.7108Z" fill="#E40F1A"/>
<path d="M86.4685 99.7108V110.86H80.3516V95.3607H86.4929V97.4443C86.5051 97.4565 87.3093 96.2258 88.5522 95.6287C89.7951 95.0317 91.9396 94.4833 94.133 95.4094C96.3263 96.3355 96.6797 98.2973 96.7284 99.0528L96.7406 110.86H90.7089V100.064C90.7089 99.6864 90.7089 99.0284 90.2215 98.4313C89.8804 98.017 88.8812 97.7611 88.0526 98.212C87.1996 98.6628 86.3467 99.5889 86.4685 99.7108Z" stroke="#E40F1A" stroke-width="0.216" stroke-miterlimit="2.6131"/>
<path fill-rule="evenodd" clip-rule="evenodd" d="M99.5367 99.0376C100.755 96.5884 103.85 94.6388 107.676 94.8338C111.502 95.0287 113.696 96.4178 115.036 98.9889C116.194 101.182 116.023 104.058 116.011 104.058L104.996 104.034V107.189C104.996 107.189 105.105 107.823 105.361 108.152C105.605 108.481 106.604 109.773 109.602 109.298C112.916 108.774 112.818 106.422 112.892 106.422L115.511 106.41C115.511 106.41 115.475 107.982 114.39 109.017C113.306 110.053 111.368 111.125 109.212 111.345C107.055 111.564 103.996 111.625 101.535 109.578C100.097 108.371 99.4391 107.08 99.0127 105.874C98.4765 104.375 98.3181 101.487 99.5367 99.0376ZM104.983 101.986C104.983 101.986 104.947 99.9637 105.117 98.9889C105.288 98.0141 105.824 97.222 106.312 96.8809C106.884 96.4666 108.054 96.4057 108.688 97.0515C109.321 97.6973 109.455 98.2456 109.541 98.5259C109.626 98.8061 109.797 99.72 109.784 100.585C109.772 101.45 109.772 101.95 109.784 101.986H104.983Z" fill="#E40F1A"/>
<path d="M99.5367 99.0376C100.755 96.5884 103.85 94.6388 107.676 94.8338C111.502 95.0287 113.696 96.4178 115.036 98.9889C116.194 101.182 116.023 104.058 116.011 104.058L104.996 104.034V107.189C104.996 107.189 105.105 107.823 105.361 108.152C105.605 108.481 106.604 109.773 109.602 109.298C112.916 108.774 112.818 106.422 112.892 106.422L115.511 106.41C115.511 106.41 115.475 107.982 114.39 109.017C113.306 110.053 111.368 111.125 109.212 111.345C107.055 111.564 103.996 111.625 101.535 109.578C100.097 108.371 99.4391 107.08 99.0127 105.874C98.4765 104.375 98.3181 101.487 99.5367 99.0376ZM104.983 101.986C104.983 101.986 104.947 99.9637 105.117 98.9889C105.288 98.0141 105.824 97.222 106.312 96.8809C106.884 96.4666 108.054 96.4057 108.688 97.0515C109.321 97.6973 109.455 98.2456 109.541 98.5259C109.626 98.8061 109.797 99.72 109.784 100.585C109.772 101.45 109.772 101.95 109.784 101.986H104.983Z" stroke="#E40F1A" stroke-width="0.216" stroke-miterlimit="2.6131"/>
<path fill-rule="evenodd" clip-rule="evenodd" d="M155.148 99.0376C156.367 96.5884 159.474 94.6388 163.288 94.8338C167.102 95.0287 169.307 96.4178 170.648 98.9889C171.805 101.182 171.622 104.058 171.598 104.058L160.595 104.034V107.189C160.595 107.189 160.705 107.823 160.948 108.152C161.192 108.481 162.191 109.773 165.189 109.298C168.503 108.774 168.406 106.397 168.479 106.397H171.098C171.098 106.397 171.062 107.969 169.977 109.005C168.893 110.041 166.956 111.113 164.799 111.332C162.642 111.552 159.583 111.613 157.122 109.566C155.684 108.359 155.026 107.068 154.612 105.861C154.088 104.375 153.93 101.487 155.148 99.0376ZM160.583 101.986C160.583 101.986 160.546 99.9637 160.717 98.9889C160.887 98.0141 161.423 97.222 161.911 96.8809C162.484 96.4666 163.653 96.4057 164.287 97.0515C164.921 97.6973 165.055 98.2456 165.152 98.5259C165.237 98.8061 165.408 99.72 165.396 100.585C165.384 101.45 165.384 101.95 165.396 101.986H160.583Z" fill="#E40F1A"/>
<path d="M155.148 99.0376C156.367 96.5884 159.474 94.6388 163.288 94.8338C167.102 95.0287 169.307 96.4178 170.648 98.9889C171.805 101.182 171.622 104.058 171.598 104.058L160.595 104.034V107.189C160.595 107.189 160.705 107.823 160.948 108.152C161.192 108.481 162.191 109.773 165.189 109.298C168.503 108.774 168.406 106.397 168.479 106.397H171.098C171.098 106.397 171.062 107.969 169.977 109.005C168.893 110.041 166.956 111.113 164.799 111.332C162.642 111.552 159.583 111.613 157.122 109.566C155.684 108.359 155.026 107.068 154.612 105.861C154.088 104.375 153.93 101.487 155.148 99.0376ZM160.583 101.986C160.583 101.986 160.546 99.9637 160.717 98.9889C160.887 98.0141 161.423 97.222 161.911 96.8809C162.484 96.4666 163.653 96.4057 164.287 97.0515C164.921 97.6973 165.055 98.2456 165.152 98.5259C165.237 98.8061 165.408 99.72 165.396 100.585C165.384 101.45 165.384 101.95 165.396 101.986H160.583Z" stroke="#E40F1A" stroke-width="0.216" stroke-miterlimit="2.6131"/>
<path fill-rule="evenodd" clip-rule="evenodd" d="M115.474 95.3594H122.127L124.978 102.731L128.013 95.3594L136.396 95.3837L139.089 104.072L141.465 95.3594H146.814L149.446 103.938L151.798 95.3594H154.552L150.287 110.883H145.267L142.464 101.83L139.991 110.883H134.836L130.242 95.9077L123.796 111.7C123.796 111.7 122.87 114.283 121.725 115.294C120.58 116.306 119.337 117.061 117.265 116.696C115.194 116.33 114.377 115.246 114.231 113.978C114.085 112.711 114.731 111.371 116.193 111.09C117.655 110.81 118.606 111.371 118.947 112.077C119.288 112.784 119.361 113.588 119.166 114.039C118.971 114.49 118.654 114.77 118.654 114.77C118.654 114.77 119.471 114.99 120.226 114.185C120.982 113.393 121.408 112.272 121.542 111.809C121.676 111.358 121.676 111.2 121.676 111.2L115.474 95.3594Z" fill="#E40F1A"/>
<path d="M115.474 95.3594H122.127L124.978 102.731L128.013 95.3594L136.396 95.3837L139.089 104.072L141.465 95.3594H146.814L149.446 103.938L151.798 95.3594H154.552L150.287 110.883H145.267L142.464 101.83L139.991 110.883H134.836L130.242 95.9077L123.796 111.7C123.796 111.7 122.87 114.283 121.725 115.294C120.58 116.306 119.337 117.061 117.265 116.696C115.194 116.33 114.377 115.246 114.231 113.978C114.085 112.711 114.731 111.371 116.193 111.09C117.655 110.81 118.606 111.371 118.947 112.077C119.288 112.784 119.361 113.588 119.166 114.039C118.971 114.49 118.654 114.77 118.654 114.77C118.654 114.77 119.471 114.99 120.226 114.185C120.982 113.393 121.408 112.272 121.542 111.809C121.676 111.358 121.676 111.2 121.676 111.2L115.474 95.3594Z" stroke="#E40F1A" stroke-width="0.216" stroke-miterlimit="2.6131"/>
<path fill-rule="evenodd" clip-rule="evenodd" d="M173.43 89.5586H179.291V110.883H173.43V89.5586Z" fill="#E40F1A"/>
<path d="M173.43 89.5586H179.291V110.883H173.43V89.5586Z" stroke="#E40F1A" stroke-width="0.216" stroke-miterlimit="2.6131"/>
<path fill-rule="evenodd" clip-rule="evenodd" d="M181.141 89.582H187.002V110.906H181.141V89.582Z" fill="#E40F1A"/>
<path d="M181.141 89.582H187.002V110.906H181.141V89.582Z" stroke="#E40F1A" stroke-width="0.216" stroke-miterlimit="2.6131"/>
</svg>
