<svg width="228" height="207" viewBox="0 0 228 207" fill="none" xmlns="http://www.w3.org/2000/svg">
<rect width="228" height="207" fill="white"/>
<g clip-path="url(#clip0_1483_14111)">
<path d="M66.8593 132.992V131.637C66.5852 131.637 66.037 131.502 65.6259 131.502C65.0778 131.366 64.6667 131.231 64.3926 131.095C63.9815 130.824 63.4333 130.553 63.0222 130.147C62.6111 129.741 62.063 129.199 61.5148 128.386C60.1444 126.625 59.0481 125.135 58.2259 123.915C57.2667 122.696 56.1704 121.206 54.8 119.309C55.7593 119.038 56.7185 118.632 57.5407 118.226C58.363 117.819 59.0481 117.277 59.5963 116.735C60.2815 116.193 60.6926 115.381 60.9667 114.568C61.2407 113.755 61.5148 112.807 61.5148 111.723C61.5148 110.504 61.2407 109.555 60.8296 108.607C60.4185 107.794 59.7333 107.117 58.9111 106.575C58.0889 106.033 57.1296 105.627 56.1704 105.356C55.2111 105.085 54.1148 104.949 52.8815 104.949H40V106.304C40.4111 106.304 40.8222 106.439 41.3704 106.439C41.9185 106.575 42.3296 106.575 42.6037 106.71C43.0148 106.846 43.4259 107.117 43.563 107.523C43.7 107.93 43.7 108.336 43.7 108.742V128.792C43.7 129.334 43.563 129.741 43.4259 130.012C43.2889 130.283 43.0148 130.553 42.6037 130.689C42.3296 130.824 41.9185 130.824 41.3704 130.96C40.8222 130.96 40.2741 131.095 40 131.095V132.45H51.6481V131.095C51.237 131.095 50.6889 131.095 50.1407 130.96C49.5926 130.824 49.1815 130.824 48.9074 130.689C48.4963 130.553 48.0852 130.283 47.9481 129.876C47.8111 129.47 47.6741 129.063 47.6741 128.657V119.851H50.5519C52.0593 121.883 53.5667 123.78 54.937 125.676C56.3074 127.573 57.8148 129.876 59.4593 132.45H66.8593V132.992ZM50.4148 118.632H47.8111V106.71H51.1C52.8815 106.71 54.2519 107.252 55.2111 108.201C56.1704 109.149 56.7185 110.504 56.7185 112.265C56.7185 114.297 56.1704 115.787 54.937 117.006C53.7037 118.09 52.1963 118.632 50.4148 118.632Z" fill="#131718"/>
<path d="M123.183 95.3304C121.402 96.6851 119.209 96.8206 117.428 96.0077C117.428 96.0077 116.879 95.8723 116.468 95.3304C116.057 94.7885 106.191 83.6798 106.191 83.6798C109.205 84.2216 112.494 82.7314 114.276 80.1575C116.057 77.5835 115.92 74.0612 114.276 71.4872C112.357 68.7778 108.52 67.8295 105.368 68.2359C99.8868 69.0487 95.9127 73.9257 94.6794 79.0737C93.4461 84.899 94.2683 90.4534 96.3238 95.7368C96.735 96.8206 97.4201 98.0398 98.1053 98.9881C92.3498 96.4142 87.2794 91.8081 84.5387 85.4409C81.5238 78.6673 81.6609 70.1325 85.0868 63.2234C87.8276 57.94 92.7609 53.063 98.7905 50.8954C105.094 48.3215 113.728 48.8634 119.894 52.3856C127.431 56.1789 133.187 65.5265 133.187 73.9257C133.598 82.325 129.898 90.1824 123.183 95.3304Z" fill="#D2AB67"/>
<path d="M102.076 98.581C99.1987 95.4651 97.0061 91.5364 98.6505 87.4722C100.158 84.3564 101.528 81.105 102.213 77.4473C102.488 81.2405 104.817 84.6273 105.913 88.2851C106.325 90.0462 106.325 91.8073 105.639 93.7039C104.954 95.736 103.721 97.3617 102.213 98.8519L102.076 98.581Z" fill="#D2AB67"/>
<path d="M45.4779 157.783H39.9964V157.241C40.1334 157.241 40.4075 157.241 40.6816 157.241C40.9557 157.241 41.2297 157.241 41.2297 157.106C41.3668 156.97 41.5038 156.97 41.6409 156.835C41.7779 156.699 41.7779 156.564 41.7779 156.293V147.487C41.7779 147.352 41.7779 147.081 41.6409 146.945C41.6409 146.81 41.3668 146.674 41.2297 146.674C41.0927 146.539 40.8186 146.539 40.5446 146.539C40.2705 146.539 40.1334 146.403 39.8594 146.403V145.861H45.4779V146.403C45.3409 146.403 45.0668 146.403 44.7927 146.403C44.5186 146.403 44.3816 146.539 44.1075 146.539C43.8334 146.539 43.6964 146.674 43.6964 146.81C43.5594 146.945 43.5594 147.081 43.5594 147.352V156.022C43.5594 156.157 43.5594 156.428 43.6964 156.564C43.8334 156.699 43.9705 156.835 44.1075 156.97C44.2446 156.97 44.3816 157.106 44.6557 157.106C44.9297 157.106 45.2038 157.241 45.3409 157.241V157.783H45.4779Z" fill="#131718"/>
<path d="M56.3065 157.782H52.1954V157.24C52.3324 157.24 52.4694 157.24 52.6065 157.24C52.7435 157.24 52.8806 157.24 53.0176 157.24C53.1546 157.24 53.2917 157.105 53.4287 156.969C53.5657 156.834 53.5657 156.698 53.5657 156.427V151.957C53.5657 151.415 53.4287 150.873 53.1546 150.602C52.8806 150.331 52.4694 150.06 52.1954 150.06C51.9213 150.06 51.6472 150.06 51.3731 150.196C50.962 150.331 50.825 150.467 50.5509 150.602C50.4139 150.738 50.2769 150.873 50.1398 151.008C50.0028 151.144 50.0028 151.279 49.8657 151.415V156.292C49.8657 156.427 49.8657 156.698 50.0028 156.834C50.1398 156.969 50.1398 157.105 50.4139 157.105C50.5509 157.105 50.688 157.24 50.825 157.24C50.962 157.24 51.0991 157.24 51.2361 157.24V157.782H47.125V157.24C47.262 157.24 47.3991 157.24 47.5361 157.24C47.6731 157.24 47.8102 157.24 47.9472 157.24C48.0843 157.24 48.2213 157.105 48.3583 156.969C48.4954 156.834 48.4954 156.698 48.4954 156.427V151.279C48.4954 151.144 48.4954 150.873 48.3583 150.738C48.2213 150.602 48.2213 150.467 47.9472 150.331C47.8102 150.331 47.6731 150.196 47.5361 150.196C47.3991 150.196 47.262 150.196 47.125 150.196V149.654L49.8657 149.518L50.0028 149.654V150.873C50.1398 150.738 50.2769 150.602 50.5509 150.331C50.688 150.196 50.962 149.925 51.0991 149.925C51.2361 149.789 51.5102 149.654 51.7843 149.518C52.0583 149.383 52.3324 149.383 52.7435 149.383C53.5657 149.383 54.1139 149.654 54.525 150.196C54.9361 150.738 55.0731 151.415 55.0731 152.228V156.563C55.0731 156.698 55.0731 156.969 55.2102 157.105C55.2102 157.24 55.3472 157.376 55.6213 157.376C55.7583 157.376 55.8954 157.511 56.0324 157.511C56.1694 157.511 56.3065 157.511 56.4435 157.511V157.782H56.3065Z" fill="#131718"/>
<path d="M63.8421 156.022V151.145C63.8421 151.01 63.7051 150.874 63.5681 150.604C63.431 150.468 63.294 150.333 63.1569 150.197C63.0199 150.062 62.7458 149.926 62.6088 149.791C62.3347 149.655 62.0606 149.655 61.7866 149.655C61.5125 149.655 61.1014 149.791 60.8273 149.926C60.5532 150.062 60.2792 150.333 60.0051 150.739C59.731 151.01 59.594 151.416 59.4569 151.958C59.3199 152.5 59.3199 153.042 59.3199 153.584C59.3199 154.126 59.3199 154.532 59.4569 154.939C59.594 155.345 59.731 155.751 59.8681 156.022C60.0051 156.293 60.2792 156.564 60.6903 156.835C60.9644 156.971 61.3755 157.106 61.7866 157.106C62.1977 157.106 62.6088 156.971 62.8829 156.835C63.431 156.564 63.7051 156.293 63.8421 156.022ZM66.8569 157.513L63.9792 157.648L63.8421 157.513V156.7C63.5681 156.971 63.1569 157.242 62.7458 157.513C62.3347 157.784 61.9236 157.784 61.3755 157.784C60.9644 157.784 60.4162 157.648 60.0051 157.513C59.594 157.242 59.1829 156.971 58.9088 156.564C58.6347 156.158 58.3606 155.751 58.0866 155.21C57.9495 154.668 57.8125 153.99 57.8125 153.448C57.8125 152.771 57.9495 152.229 58.0866 151.687C58.3606 151.145 58.6347 150.604 58.9088 150.197C59.3199 149.791 59.731 149.52 60.1421 149.249C60.6903 148.978 61.1014 148.842 61.6495 148.842C62.0606 148.842 62.4718 148.842 62.7458 148.978C63.1569 149.113 63.431 149.249 63.7051 149.384V146.404C63.7051 146.133 63.7051 145.997 63.5681 145.727C63.431 145.591 63.431 145.32 63.294 145.32C63.1569 145.185 62.8829 145.185 62.6088 145.049C62.3347 145.049 62.0606 144.914 61.7866 144.914V144.372L65.2125 144.236L65.3495 144.372V156.022C65.3495 156.158 65.3495 156.429 65.4866 156.564C65.6236 156.7 65.6236 156.835 65.7606 156.971C65.8977 156.971 66.0347 157.106 66.1718 157.106C66.3088 157.106 66.5829 157.106 66.7199 157.106V157.513H66.8569Z" fill="#131718"/>
<path d="M76.9933 157.513L74.2526 157.648V156.564C74.1156 156.7 73.9785 156.835 73.8415 156.971C73.7045 157.106 73.4304 157.242 73.2933 157.377C73.0193 157.513 72.7452 157.648 72.6082 157.784C72.3341 157.919 72.06 157.919 71.6489 157.919C70.9637 157.919 70.2785 157.648 70.0045 157.242C69.5933 156.7 69.4563 156.022 69.4563 155.074V151.01C69.4563 150.739 69.4563 150.603 69.3193 150.468C69.1822 150.333 69.1822 150.197 69.0452 150.062C68.9082 149.926 68.7711 149.926 68.6341 149.926C68.497 149.926 68.36 149.926 68.0859 149.791V149.249L70.8267 149.113L70.9637 149.249V155.074C70.9637 155.751 71.1008 156.158 71.3748 156.429C71.6489 156.7 71.923 156.835 72.3341 156.835C72.6082 156.835 72.8822 156.835 73.1563 156.7C73.4304 156.564 73.5674 156.429 73.7045 156.293C73.8415 156.158 73.9785 156.022 74.1156 155.887C74.2526 155.751 74.2526 155.616 74.3896 155.48V150.739C74.3896 150.603 74.3896 150.333 74.2526 150.197C74.1156 150.062 74.1156 149.926 73.9785 149.791C73.8415 149.791 73.7045 149.655 73.5674 149.655C73.4304 149.655 73.1563 149.655 72.8822 149.655V149.113L75.623 149.249L75.76 149.384V156.022C75.76 156.158 75.76 156.429 75.897 156.564C76.0341 156.7 76.0341 156.835 76.1711 156.971C76.3082 156.971 76.4452 157.106 76.5822 157.106C76.7193 157.106 76.8563 157.106 76.9933 157.106V157.513Z" fill="#131718"/>
<path d="M83.9815 153.583C84.2556 153.719 84.3926 153.99 84.5296 154.261C84.6667 154.532 84.6667 154.803 84.6667 155.209C84.6667 156.022 84.3926 156.564 83.8444 157.106C83.2963 157.648 82.4741 157.783 81.6519 157.783C81.1037 157.783 80.6926 157.648 80.2815 157.512C79.8704 157.377 79.5963 157.241 79.4593 156.97L79.3222 157.512H78.637L78.5 154.532H79.0481C79.0481 154.803 79.1852 155.074 79.3222 155.344C79.4593 155.615 79.5963 155.886 79.8704 156.157C80.1444 156.428 80.2815 156.564 80.6926 156.835C80.9667 156.97 81.3778 157.106 81.7889 157.106C82.337 157.106 82.7481 156.97 83.0222 156.699C83.2963 156.428 83.4333 156.157 83.4333 155.615C83.4333 155.344 83.4333 155.209 83.2963 154.938C83.1593 154.803 83.0222 154.667 82.8852 154.532C82.7481 154.396 82.4741 154.261 82.2 154.125C81.9259 153.99 81.6519 153.854 81.2407 153.854C80.9667 153.719 80.6926 153.719 80.4185 153.583C80.1444 153.448 79.8704 153.312 79.5963 153.041C79.3222 152.906 79.1852 152.635 79.0481 152.364C78.9111 152.093 78.7741 151.687 78.7741 151.28C78.7741 150.603 79.0481 150.061 79.5963 149.519C80.1444 149.113 80.8296 148.842 81.6519 148.842C81.9259 148.842 82.337 148.842 82.6111 148.977C83.0222 149.113 83.2963 149.113 83.4333 149.248L83.5704 148.842H84.1185L84.2556 151.551H83.7074C83.5704 151.009 83.2963 150.467 82.8852 150.061C82.4741 149.655 82.063 149.519 81.3778 149.519C80.9667 149.519 80.5556 149.655 80.2815 149.926C80.0074 150.197 79.8704 150.467 79.8704 150.738C79.8704 151.009 79.8704 151.145 80.0074 151.416C80.1444 151.551 80.2815 151.687 80.4185 151.822C80.5556 151.958 80.8296 152.093 81.1037 152.093C81.3778 152.229 81.6519 152.364 82.063 152.364C82.4741 152.5 82.7481 152.635 83.1593 152.77C83.4333 153.177 83.7074 153.448 83.9815 153.583Z" fill="#131718"/>
<path d="M91.5212 157.377C91.1101 157.513 90.836 157.648 90.4249 157.784C90.1508 157.919 89.7397 157.919 89.1916 157.919C88.5064 157.919 87.9582 157.784 87.6841 157.377C87.4101 156.971 87.273 156.565 87.273 155.887V150.197H85.7656V149.385H87.273V146.811H88.7804V149.385H91.1101V150.197H88.7804V154.939C88.7804 155.345 88.7804 155.616 88.7804 155.887C88.7804 156.158 88.9175 156.294 88.9175 156.565C89.0545 156.7 89.1915 156.836 89.3286 156.971C89.4656 157.106 89.7397 157.106 90.0138 157.106C90.1508 157.106 90.4249 157.106 90.699 157.106C90.973 157.106 91.1101 157.106 91.2471 156.971V157.377H91.5212Z" fill="#131718"/>
<path d="M99.195 150.468C99.195 150.739 99.0579 151.01 98.9209 151.281C98.7839 151.552 98.5098 151.552 98.2357 151.552C97.9616 151.552 97.6876 151.416 97.5505 151.281C97.4135 151.145 97.2764 150.874 97.2764 150.739C97.2764 150.603 97.2764 150.468 97.2764 150.333C97.2764 150.197 97.2764 150.062 97.2764 150.062C97.0024 150.062 96.7283 150.197 96.3172 150.333C95.9061 150.603 95.632 150.874 95.3579 151.281V156.158C95.3579 156.293 95.3579 156.564 95.495 156.7C95.632 156.835 95.632 156.971 95.9061 156.971C96.0431 156.971 96.1801 157.106 96.4542 157.106C96.7283 157.106 96.8653 157.106 97.0024 157.106V157.648H92.6172V157.106C92.7542 157.106 92.8913 157.106 93.0283 157.106C93.1653 157.106 93.3024 157.106 93.4394 156.971C93.5764 156.971 93.7135 156.835 93.8505 156.7C93.9876 156.564 93.9876 156.429 93.9876 156.158V151.01C93.9876 150.874 93.9876 150.603 93.8505 150.468C93.7135 150.333 93.7135 150.197 93.5764 150.062C93.4394 149.926 93.3024 149.926 93.1653 149.926C93.0283 149.926 92.8913 149.926 92.7542 149.926V149.384L95.495 149.249L95.632 149.384V150.603C96.0431 150.197 96.3172 149.791 96.7283 149.52C97.1394 149.249 97.5505 149.113 97.9616 149.113C98.3727 149.113 98.6468 149.249 98.7839 149.52C99.0579 149.655 99.195 150.062 99.195 150.468Z" fill="#131718"/>
<path d="M103.308 145.862C103.308 146.133 103.171 146.404 103.034 146.675C102.76 146.946 102.623 147.081 102.212 147.081C101.938 147.081 101.664 146.946 101.527 146.675C101.253 146.404 101.253 146.133 101.253 145.862C101.253 145.591 101.39 145.32 101.527 145.049C101.801 144.778 101.938 144.643 102.212 144.643C102.486 144.643 102.76 144.778 103.034 144.914C103.171 145.32 103.308 145.591 103.308 145.862ZM104.267 157.783H100.156V157.242C100.293 157.242 100.43 157.242 100.567 157.242C100.704 157.242 100.841 157.242 100.978 157.242C101.116 157.242 101.253 157.106 101.39 156.971C101.527 156.835 101.527 156.7 101.527 156.429V151.281C101.527 151.145 101.527 150.874 101.39 150.739C101.253 150.603 101.253 150.468 101.116 150.332C100.978 150.197 100.841 150.197 100.704 150.197C100.567 150.197 100.293 150.061 100.156 150.061V149.52L103.034 149.384L103.171 149.52V156.429C103.171 156.564 103.171 156.835 103.308 156.971C103.445 157.106 103.445 157.242 103.719 157.242C103.856 157.242 103.993 157.377 104.13 157.377C104.267 157.377 104.404 157.377 104.541 157.377V157.783H104.267Z" fill="#131718"/>
<path d="M111.255 152.5C111.255 152.229 111.255 151.823 111.118 151.416C111.118 151.01 110.981 150.739 110.844 150.468C110.707 150.197 110.57 150.062 110.296 149.791C110.022 149.655 109.748 149.52 109.473 149.52C108.925 149.52 108.377 149.791 107.966 150.197C107.555 150.739 107.418 151.416 107.281 152.229H111.255V152.5ZM113.173 155.751C112.762 156.429 112.351 156.971 111.803 157.377C111.255 157.784 110.57 157.919 109.748 157.919C109.062 157.919 108.514 157.784 107.966 157.513C107.418 157.242 107.007 156.971 106.733 156.564C106.459 156.158 106.185 155.616 106.048 155.074C105.773 154.668 105.773 154.126 105.773 153.448C105.773 152.907 105.91 152.365 106.048 151.823C106.185 151.281 106.459 150.874 106.87 150.468C107.144 150.062 107.555 149.791 108.103 149.52C108.514 149.249 109.062 149.113 109.748 149.113C110.296 149.113 110.844 149.249 111.255 149.384C111.666 149.52 112.077 149.791 112.351 150.197C112.625 150.468 112.762 150.874 112.899 151.281C113.036 151.687 113.036 152.229 113.036 152.636V153.313H107.555C107.555 153.855 107.555 154.397 107.692 154.803C107.829 155.21 107.966 155.616 108.24 156.022C108.514 156.293 108.788 156.564 109.062 156.835C109.473 156.971 109.885 157.106 110.296 157.106C110.844 157.106 111.255 156.971 111.529 156.7C111.94 156.429 112.214 156.022 112.625 155.48L113.173 155.751Z" fill="#131718"/>
<path d="M120.028 153.583C120.302 153.719 120.439 153.99 120.577 154.261C120.714 154.532 120.714 154.803 120.714 155.209C120.714 156.022 120.439 156.564 119.891 157.106C119.343 157.648 118.521 157.783 117.699 157.783C117.151 157.783 116.739 157.648 116.328 157.512C115.917 157.377 115.643 157.241 115.506 156.97L115.369 157.512H114.684L114.547 154.532H115.095C115.095 154.803 115.232 155.074 115.369 155.344C115.506 155.615 115.643 155.886 115.917 156.157C116.191 156.428 116.465 156.564 116.739 156.835C117.014 156.97 117.425 157.106 117.836 157.106C118.384 157.106 118.795 156.97 119.069 156.699C119.343 156.428 119.48 156.157 119.48 155.615C119.48 155.344 119.48 155.209 119.343 154.938C119.206 154.803 119.069 154.667 118.932 154.532C118.795 154.396 118.521 154.261 118.247 154.125C117.973 153.99 117.699 153.854 117.288 153.854C117.014 153.719 116.739 153.719 116.465 153.583C116.191 153.448 115.917 153.312 115.643 153.041C115.369 152.906 115.232 152.635 115.095 152.364C114.958 152.093 114.821 151.687 114.821 151.28C114.821 150.603 115.095 150.061 115.643 149.519C116.191 149.113 116.877 148.842 117.699 148.842C117.973 148.842 118.384 148.842 118.658 148.977C118.932 149.113 119.343 149.113 119.48 149.248L119.617 148.842H120.165L120.302 151.551H119.754C119.617 151.009 119.343 150.467 118.932 150.061C118.521 149.655 118.11 149.519 117.425 149.519C117.014 149.519 116.602 149.655 116.328 149.926C116.054 150.197 115.917 150.467 115.917 150.738C115.917 151.009 115.917 151.145 116.054 151.416C116.191 151.551 116.328 151.687 116.465 151.822C116.602 151.958 116.877 152.093 117.151 152.093C117.425 152.229 117.699 152.364 118.11 152.364C118.521 152.5 118.795 152.635 119.206 152.77C119.617 153.177 119.891 153.448 120.028 153.583Z" fill="#131718"/>
<path d="M136.061 154.125L135.787 157.783H126.469V157.241C126.606 157.241 126.743 157.241 127.017 157.241C127.291 157.241 127.428 157.241 127.565 157.106C127.702 156.97 127.839 156.97 127.976 156.835C128.113 156.699 128.113 156.564 128.113 156.293V147.622C128.113 147.487 128.113 147.216 127.976 147.081C127.976 146.945 127.839 146.81 127.565 146.674C127.428 146.539 127.291 146.539 127.017 146.539C126.743 146.539 126.606 146.403 126.469 146.403V145.861H131.539V146.403C131.402 146.403 131.128 146.403 130.991 146.539C130.717 146.539 130.58 146.674 130.443 146.674C130.306 146.674 130.169 146.81 130.032 147.081C129.895 147.216 129.895 147.352 129.895 147.622V155.751C129.895 156.157 129.895 156.428 129.895 156.564C129.895 156.835 130.032 156.97 130.169 157.106C130.306 157.241 130.443 157.241 130.717 157.241C130.991 157.241 131.402 157.241 131.813 157.241C132.087 157.241 132.224 157.241 132.498 157.241C132.772 157.241 132.909 157.241 133.184 157.241C133.321 157.241 133.595 157.106 133.732 157.106C133.869 157.106 134.006 156.97 134.143 156.835C134.417 156.564 134.691 156.157 134.965 155.615C135.239 155.073 135.513 154.667 135.65 154.261H136.061V154.125Z" fill="#131718"/>
<path d="M140.03 145.862C140.03 146.133 139.893 146.404 139.756 146.675C139.482 146.946 139.345 147.081 138.934 147.081C138.66 147.081 138.386 146.946 138.249 146.675C137.975 146.404 137.975 146.133 137.975 145.862C137.975 145.591 138.112 145.32 138.249 145.049C138.523 144.778 138.66 144.643 138.934 144.643C139.208 144.643 139.482 144.778 139.756 144.914C139.893 145.32 140.03 145.591 140.03 145.862ZM141.127 157.783H137.016V157.242C137.153 157.242 137.29 157.242 137.427 157.242C137.564 157.242 137.701 157.242 137.838 157.242C137.975 157.242 138.112 157.106 138.249 156.971C138.386 156.835 138.386 156.7 138.386 156.429V151.281C138.386 151.145 138.386 150.874 138.249 150.739C138.112 150.603 138.112 150.468 137.975 150.332C137.838 150.197 137.701 150.197 137.564 150.197C137.427 150.197 137.153 150.061 137.016 150.061V149.52L139.893 149.384L140.03 149.52V156.429C140.03 156.564 140.03 156.835 140.167 156.971C140.305 157.106 140.305 157.242 140.579 157.242C140.716 157.242 140.853 157.377 140.99 157.377C141.127 157.377 141.264 157.377 141.401 157.377V157.783H141.127Z" fill="#131718"/>
<path d="M156.751 157.784H152.64V157.242C152.777 157.242 152.914 157.242 153.051 157.242C153.188 157.242 153.325 157.242 153.462 157.242C153.599 157.242 153.736 157.107 153.873 156.971C154.01 156.836 154.01 156.7 154.01 156.429V151.959C154.01 151.417 153.873 150.875 153.599 150.604C153.325 150.333 153.051 150.062 152.64 150.062C152.366 150.062 152.092 150.062 151.818 150.198C151.544 150.333 151.407 150.333 151.133 150.604C150.996 150.74 150.859 150.875 150.722 151.011C150.585 151.146 150.585 151.282 150.448 151.417V156.294C150.448 156.429 150.448 156.7 150.585 156.836C150.585 156.971 150.722 157.107 150.996 157.107C151.133 157.107 151.27 157.242 151.407 157.242C151.544 157.242 151.681 157.242 151.818 157.242V157.784H147.844V157.242C147.981 157.242 148.118 157.242 148.255 157.242C148.392 157.242 148.529 157.242 148.529 157.242C148.666 157.242 148.803 157.107 148.94 156.971C149.077 156.836 149.077 156.7 149.077 156.429V151.959C149.077 151.417 148.94 150.875 148.666 150.604C148.392 150.333 148.118 150.062 147.707 150.062C147.433 150.062 147.159 150.062 146.885 150.198C146.61 150.333 146.473 150.469 146.199 150.604C146.062 150.74 145.925 150.875 145.788 151.011C145.651 151.146 145.651 151.282 145.514 151.417V156.159C145.514 156.294 145.514 156.565 145.651 156.7C145.788 156.836 145.788 156.971 146.062 156.971C146.199 156.971 146.336 157.107 146.473 157.107C146.61 157.107 146.748 157.107 146.885 157.107V157.649H142.773V157.107C142.91 157.107 143.048 157.107 143.185 157.107C143.322 157.107 143.459 157.107 143.596 157.107C143.733 157.107 143.87 156.971 144.007 156.836C144.144 156.7 144.144 156.565 144.144 156.294V151.146C144.144 151.011 144.144 150.74 144.007 150.604C143.87 150.469 143.87 150.333 143.733 150.198C143.596 150.198 143.459 150.062 143.322 150.062C143.185 150.062 143.048 149.927 142.773 149.927V149.385L145.514 149.249L145.651 149.385V150.604C145.788 150.469 145.925 150.333 146.199 150.062C146.336 149.927 146.61 149.656 146.748 149.656C146.885 149.52 147.159 149.385 147.433 149.249C147.707 149.114 147.981 149.114 148.392 149.114C148.94 149.114 149.351 149.249 149.762 149.52C150.173 149.791 150.448 150.198 150.585 150.604C150.722 150.469 150.996 150.198 151.133 150.062C151.27 149.927 151.544 149.791 151.681 149.52C151.955 149.385 152.092 149.249 152.503 149.114C152.777 148.979 153.051 148.979 153.462 148.979C154.148 148.979 154.696 149.249 155.107 149.656C155.518 150.062 155.655 150.875 155.655 151.823V156.023C155.655 156.159 155.655 156.429 155.792 156.565C155.792 156.7 155.929 156.836 156.203 156.836C156.34 156.836 156.477 156.971 156.614 156.971C156.751 156.971 156.888 156.971 157.025 156.971V157.784H156.751Z" fill="#131718"/>
<path d="M161.14 145.862C161.14 146.133 161.003 146.404 160.866 146.675C160.592 146.946 160.455 147.081 160.044 147.081C159.769 147.081 159.495 146.946 159.358 146.675C159.084 146.404 159.084 146.133 159.084 145.862C159.084 145.591 159.221 145.32 159.358 145.049C159.632 144.778 159.769 144.643 160.044 144.643C160.318 144.643 160.592 144.778 160.866 144.914C161.14 145.32 161.14 145.591 161.14 145.862ZM162.236 157.783H158.125V157.242C158.262 157.242 158.399 157.242 158.536 157.242C158.673 157.242 158.81 157.242 158.947 157.242C159.084 157.242 159.221 157.106 159.358 156.971C159.495 156.835 159.495 156.7 159.495 156.429V151.281C159.495 151.145 159.495 150.874 159.358 150.739C159.221 150.603 159.221 150.468 159.084 150.332C158.947 150.197 158.81 150.197 158.673 150.197C158.536 150.197 158.262 150.061 158.125 150.061V149.52L161.003 149.384L161.14 149.52V156.429C161.14 156.564 161.14 156.835 161.277 156.971C161.414 157.106 161.414 157.242 161.688 157.242C161.825 157.242 161.962 157.377 162.099 157.377C162.236 157.377 162.373 157.377 162.51 157.377V157.783H162.236Z" fill="#131718"/>
<path d="M168.802 157.377C168.391 157.513 168.117 157.648 167.706 157.784C167.432 157.919 167.021 157.919 166.473 157.919C165.788 157.919 165.239 157.784 164.965 157.377C164.691 156.971 164.554 156.565 164.554 155.887V150.197H163.047V149.385H164.691V146.811H166.199V149.385H168.528V150.197H166.199V154.939C166.199 155.345 166.199 155.616 166.199 155.887C166.199 156.158 166.336 156.294 166.336 156.565C166.473 156.7 166.61 156.836 166.747 156.971C166.884 157.106 167.158 157.106 167.432 157.106C167.569 157.106 167.843 157.106 168.117 157.106C168.391 157.106 168.528 157.106 168.665 156.971V157.377H168.802Z" fill="#131718"/>
<path d="M175.528 152.501C175.528 152.23 175.528 151.823 175.391 151.417C175.391 151.011 175.254 150.74 175.117 150.469C174.98 150.198 174.843 150.062 174.569 149.791C174.295 149.656 174.021 149.52 173.747 149.52C173.199 149.52 172.651 149.791 172.239 150.198C171.828 150.74 171.691 151.417 171.554 152.23H175.528V152.501ZM177.447 155.752C177.036 156.429 176.625 156.971 176.077 157.378C175.528 157.784 174.843 157.92 174.021 157.92C173.336 157.92 172.788 157.784 172.239 157.513C171.691 157.242 171.28 156.971 171.006 156.565C170.732 156.159 170.458 155.617 170.321 155.075C170.184 154.533 170.047 153.991 170.047 153.314C170.047 152.772 170.184 152.23 170.321 151.688C170.458 151.146 170.732 150.74 171.143 150.333C171.417 149.927 171.828 149.656 172.377 149.385C172.788 149.114 173.336 148.979 174.021 148.979C174.569 148.979 175.117 149.114 175.528 149.249C175.939 149.385 176.351 149.656 176.625 150.062C176.899 150.333 177.036 150.74 177.173 151.146C177.31 151.552 177.31 152.094 177.31 152.501V153.314H171.828C171.828 153.856 171.828 154.397 171.965 154.804C172.102 155.21 172.239 155.617 172.514 156.023C172.788 156.294 173.062 156.565 173.336 156.836C173.747 156.971 174.158 157.107 174.569 157.107C175.117 157.107 175.528 156.971 175.939 156.7C176.351 156.429 176.625 156.023 177.036 155.481L177.447 155.752Z" fill="#131718"/>
<path d="M184.983 156.022V151.145C184.983 151.01 184.846 150.874 184.709 150.604C184.572 150.468 184.435 150.333 184.298 150.197C184.161 150.062 183.886 149.926 183.749 149.791C183.475 149.655 183.201 149.655 182.927 149.655C182.516 149.655 182.242 149.791 181.968 149.926C181.694 150.062 181.42 150.333 181.146 150.739C180.872 151.01 180.735 151.416 180.598 151.958C180.461 152.5 180.461 153.042 180.461 153.584C180.461 154.126 180.461 154.532 180.598 154.939C180.735 155.345 180.872 155.751 181.009 156.022C181.146 156.293 181.42 156.564 181.831 156.835C182.105 156.971 182.516 157.106 182.927 157.106C183.338 157.106 183.749 156.971 184.023 156.835C184.435 156.564 184.709 156.293 184.983 156.022ZM187.998 157.513L185.12 157.648L184.983 157.513V156.7C184.709 156.971 184.298 157.242 183.886 157.513C183.475 157.784 183.064 157.784 182.516 157.784C182.105 157.784 181.557 157.648 181.146 157.513C180.735 157.242 180.323 156.971 180.049 156.564C179.775 156.158 179.501 155.751 179.227 155.21C179.09 154.668 178.953 153.99 178.953 153.448C178.953 152.771 179.09 152.229 179.227 151.687C179.501 151.145 179.775 150.604 180.049 150.197C180.461 149.791 180.872 149.52 181.283 149.249C181.831 148.978 182.242 148.842 182.79 148.842C183.201 148.842 183.612 148.842 183.886 148.978C184.298 149.113 184.572 149.249 184.846 149.384V146.404C184.846 146.133 184.846 145.997 184.709 145.727C184.572 145.591 184.572 145.32 184.435 145.32C184.298 145.185 184.023 145.185 183.749 145.049C183.475 145.049 183.201 144.914 182.927 144.914V144.372L186.353 144.236L186.49 144.372V156.022C186.49 156.158 186.49 156.429 186.627 156.564C186.764 156.7 186.764 156.835 186.901 156.971C187.038 156.971 187.175 157.106 187.312 157.106C187.449 157.106 187.723 157.106 187.861 157.106V157.513H187.998Z" fill="#131718"/>
<path d="M183.751 121.07C183.751 120.393 183.751 119.58 183.614 118.767C183.477 117.955 183.34 117.277 183.066 116.735C182.791 116.193 182.38 115.651 181.832 115.245C181.284 114.839 180.599 114.703 179.777 114.703C178.406 114.703 177.31 115.245 176.351 116.464C175.391 117.548 174.98 119.174 174.843 121.206H183.751V121.07ZM187.999 128.386C187.177 129.876 186.08 131.095 184.71 132.044C183.34 132.992 181.832 133.398 180.051 133.398C178.543 133.398 177.173 133.127 175.94 132.586C174.843 132.044 173.884 131.231 173.062 130.418C172.377 129.47 171.691 128.386 171.417 127.167C171.006 125.947 170.869 124.593 170.869 123.238C170.869 122.019 171.006 120.799 171.417 119.58C171.828 118.361 172.377 117.277 173.199 116.329C173.884 115.381 174.843 114.703 175.94 114.026C177.036 113.484 178.269 113.213 179.64 113.213C181.01 113.213 182.243 113.484 183.203 113.89C184.162 114.297 184.984 114.974 185.669 115.651C186.217 116.329 186.766 117.277 187.04 118.225C187.314 119.174 187.451 120.258 187.451 121.477V122.832H174.706C174.706 124.051 174.843 125.27 175.117 126.218C175.391 127.302 175.666 128.115 176.214 128.928C176.762 129.741 177.31 130.283 178.132 130.689C178.954 131.095 179.914 131.366 181.01 131.366C182.106 131.366 183.203 131.095 184.025 130.553C184.847 130.012 185.669 129.063 186.491 127.573L187.999 128.386ZM161.688 133.534C158.947 133.534 156.754 132.586 155.11 130.689C153.603 128.792 152.78 126.354 152.78 123.238C152.78 121.883 153.054 120.664 153.466 119.445C153.877 118.225 154.562 117.142 155.247 116.193C156.069 115.245 157.028 114.568 158.125 113.89C159.221 113.348 160.591 113.078 161.962 113.078C163.88 113.078 165.388 113.484 166.484 114.432C167.717 115.381 168.266 116.6 168.266 118.09C168.266 118.767 168.128 119.309 167.854 119.851C167.58 120.393 167.032 120.664 166.347 120.664C165.525 120.664 164.977 120.529 164.566 120.122C164.154 119.716 163.88 119.309 163.88 118.767C163.88 118.225 164.017 117.548 164.154 117.006C164.291 116.329 164.428 115.922 164.428 115.651C164.154 115.245 163.88 114.974 163.332 114.839C162.921 114.703 162.373 114.568 161.825 114.568C161.14 114.568 160.591 114.703 160.043 114.974C159.495 115.245 158.947 115.787 158.399 116.464C157.851 117.142 157.577 117.955 157.166 119.174C156.891 120.258 156.754 121.612 156.754 123.102C156.754 125.541 157.303 127.573 158.399 129.063C159.495 130.553 160.866 131.366 162.647 131.366C163.88 131.366 164.977 131.095 165.799 130.418C166.621 129.741 167.443 128.928 168.128 127.709L169.362 128.521C168.54 130.012 167.306 131.231 165.936 132.179C164.703 132.992 163.195 133.534 161.688 133.534ZM150.451 132.992H140.995V131.637C141.269 131.637 141.68 131.637 141.954 131.502C142.366 131.502 142.64 131.366 142.914 131.366C143.325 131.231 143.599 131.095 143.736 130.689C143.873 130.418 144.01 130.012 144.01 129.605V119.716C144.01 118.361 143.736 117.277 143.051 116.6C142.366 115.922 141.68 115.516 140.721 115.516C140.036 115.516 139.351 115.651 138.803 115.787C138.254 116.058 137.706 116.329 137.295 116.6C136.884 116.871 136.473 117.277 136.336 117.548C136.062 117.955 135.925 118.225 135.788 118.361V129.47C135.788 129.876 135.925 130.283 136.062 130.553C136.199 130.824 136.473 131.095 136.884 131.231C137.158 131.366 137.432 131.502 137.706 131.502C138.117 131.637 138.391 131.637 138.666 131.637V132.992H129.21V131.637C129.484 131.637 129.758 131.637 130.169 131.502C130.443 131.502 130.717 131.366 130.991 131.366C131.403 131.231 131.677 131.095 131.814 130.689C131.951 130.418 132.088 130.012 132.088 129.605V117.684C132.088 117.277 131.951 116.871 131.814 116.464C131.677 116.058 131.403 115.787 130.991 115.516C130.717 115.381 130.443 115.245 130.169 115.11C129.895 114.974 129.484 114.974 129.073 114.974V113.755L135.514 113.348L135.788 113.619V116.329H135.925C136.199 116.058 136.61 115.651 137.158 115.245C137.569 114.839 138.117 114.432 138.528 114.161C139.077 113.89 139.625 113.619 140.31 113.348C140.995 113.078 141.68 113.078 142.503 113.078C144.284 113.078 145.654 113.619 146.614 114.839C147.436 116.058 147.984 117.548 147.984 119.445V129.47C147.984 129.876 148.121 130.283 148.258 130.553C148.395 130.824 148.669 131.095 149.08 131.231C149.354 131.366 149.628 131.502 149.903 131.502C150.177 131.502 150.451 131.637 150.862 131.637V132.992H150.451ZM120.714 122.29C119.617 122.561 118.658 122.967 117.836 123.238C117.014 123.509 116.191 123.915 115.506 124.457C114.821 124.864 114.41 125.406 113.999 126.083C113.588 126.625 113.451 127.438 113.451 128.25C113.451 129.334 113.725 130.147 114.273 130.689C114.821 131.231 115.506 131.502 116.466 131.502C117.425 131.502 118.247 131.231 118.932 130.824C119.617 130.418 120.166 129.876 120.714 129.199V122.29ZM127.428 132.586C126.88 132.856 126.332 132.992 125.784 133.127C125.373 133.263 124.825 133.398 124.277 133.398C123.317 133.398 122.495 133.127 121.81 132.721C121.262 132.179 120.851 131.502 120.714 130.689H120.577C119.754 131.637 118.795 132.315 117.836 132.856C116.877 133.398 115.78 133.534 114.41 133.534C112.903 133.534 111.806 133.127 110.847 132.179C109.888 131.231 109.477 130.147 109.477 128.657C109.477 127.844 109.614 127.302 109.751 126.625C110.025 126.083 110.299 125.541 110.71 124.999C110.984 124.593 111.395 124.322 111.943 123.915C112.491 123.644 113.04 123.373 113.451 123.238C113.999 122.967 115.232 122.561 117.014 122.019C118.795 121.477 120.028 120.935 120.577 120.664V118.767C120.577 118.632 120.577 118.225 120.44 117.819C120.303 117.277 120.166 116.871 120.028 116.464C119.754 115.922 119.343 115.516 118.932 115.245C118.521 114.839 117.836 114.703 116.877 114.703C116.328 114.703 115.78 114.839 115.232 114.974C114.684 115.11 114.41 115.381 114.136 115.651C114.136 115.922 114.136 116.329 114.273 116.871C114.41 117.413 114.41 117.819 114.41 118.225C114.41 118.632 114.273 119.038 113.862 119.445C113.451 119.851 112.903 119.987 112.217 119.987C111.532 119.987 111.121 119.716 110.847 119.309C110.573 118.903 110.436 118.361 110.436 117.819C110.436 117.277 110.71 116.6 111.121 116.058C111.532 115.516 112.08 114.974 112.766 114.568C113.314 114.161 113.999 113.89 114.821 113.619C115.643 113.348 116.466 113.213 117.288 113.213C118.384 113.213 119.343 113.348 120.166 113.484C120.988 113.619 121.673 114.026 122.358 114.432C123.043 114.974 123.454 115.516 123.866 116.464C124.277 117.277 124.414 118.361 124.414 119.716C124.414 121.612 124.414 123.238 124.414 124.728C124.414 126.218 124.414 127.709 124.414 129.47C124.414 130.012 124.551 130.418 124.688 130.689C124.825 130.96 125.099 131.231 125.51 131.502C125.647 131.637 126.058 131.637 126.469 131.637C126.88 131.637 127.291 131.637 127.703 131.637V132.586H127.428ZM104.543 106.033C104.543 106.71 104.269 107.388 103.858 107.93C103.31 108.471 102.762 108.742 102.077 108.742C101.391 108.742 100.843 108.471 100.432 107.93C100.021 107.388 99.747 106.846 99.747 106.168C99.747 105.491 100.021 104.814 100.432 104.272C100.98 103.73 101.528 103.459 102.077 103.459C102.762 103.459 103.447 103.73 103.858 104.136C104.269 104.814 104.543 105.356 104.543 106.033ZM106.873 132.992H97.6914V131.637C97.9655 131.637 98.2396 131.637 98.6507 131.502C98.9248 131.502 99.1988 131.366 99.4729 131.366C99.884 131.231 100.158 131.095 100.295 130.824C100.432 130.553 100.569 130.147 100.569 129.741V117.955C100.569 117.548 100.432 117.142 100.295 116.871C100.158 116.464 99.884 116.193 99.4729 116.058C99.1988 115.922 98.9248 115.787 98.3766 115.651C97.9655 115.516 97.5544 115.516 97.1433 115.381V114.026L103.858 113.619L104.132 113.89V129.47C104.132 129.876 104.269 130.283 104.406 130.553C104.543 130.824 104.817 131.095 105.228 131.231C105.503 131.366 105.777 131.502 106.051 131.502C106.325 131.502 106.599 131.637 107.01 131.637V132.992H106.873ZM95.3618 132.992H86.3174V131.773C86.5914 131.773 86.8655 131.773 87.2766 131.637C87.5507 131.637 87.8248 131.502 88.0988 131.502C88.51 131.366 88.647 131.231 88.9211 130.96C89.0581 130.689 89.1951 130.283 89.1951 129.876L88.9211 109.284C88.9211 109.013 88.784 108.336 88.647 107.93C88.647 107.659 88.51 107.523 88.51 107.523C88.51 107.388 88.3729 107.388 88.3729 107.252C88.0988 106.981 88.51 107.388 88.0988 107.117C87.9618 106.981 88.2359 106.981 87.5507 106.981C87.0025 106.846 85.9062 107.117 85.6322 107.117V105.762L92.347 105.356L92.6211 105.627V129.741C92.6211 130.147 92.7581 130.553 92.8951 130.824C93.0322 131.095 93.3063 131.366 93.7174 131.502C93.9914 131.637 94.2655 131.773 94.5396 131.773C94.8137 131.773 95.0877 131.908 95.4988 131.908V132.992H95.3618ZM80.1507 121.07C80.1507 120.393 80.1507 119.58 80.0137 118.767C79.8766 117.955 79.7396 117.277 79.4655 116.735C79.1914 116.193 78.7803 115.651 78.2322 115.245C77.684 114.839 76.9988 114.703 76.1766 114.703C74.8062 114.703 73.71 115.245 72.7507 116.464C71.7914 117.548 71.3803 119.174 71.2433 121.206H80.1507V121.07ZM84.5359 128.386C83.7137 129.876 82.6174 131.095 81.247 132.044C79.8766 132.992 78.3692 133.398 76.5877 133.398C75.0803 133.398 73.71 133.127 72.4766 132.586C71.3803 132.044 70.4211 131.231 69.5988 130.418C68.9137 129.47 68.2285 128.386 67.9544 127.167C67.5433 125.947 67.4062 124.593 67.4062 123.238C67.4062 122.019 67.5433 120.799 67.9544 119.58C68.3655 118.361 68.9137 117.277 69.7359 116.329C70.4211 115.381 71.3803 114.703 72.4766 114.026C73.5729 113.484 74.8062 113.213 76.1766 113.213C77.547 113.213 78.7803 113.484 79.7396 113.89C80.6988 114.297 81.5211 114.974 82.2062 115.651C82.7544 116.329 83.3025 117.277 83.5766 118.225C83.8507 119.174 83.9877 120.258 83.9877 121.477V122.832H71.2433C71.2433 124.051 71.3803 125.27 71.6544 126.218C71.9285 127.302 72.3396 128.115 72.7507 128.928C73.2988 129.741 73.847 130.283 74.6692 130.689C75.4914 131.095 76.4507 131.366 77.547 131.366C78.6433 131.366 79.7396 131.095 80.5618 130.553C81.384 130.012 82.2062 129.063 83.0285 127.573L84.5359 128.386Z" fill="#131718"/>
</g>
<defs>
<clipPath id="clip0_1483_14111">
<rect width="148" height="109" fill="white" transform="translate(40 49)"/>
</clipPath>
</defs>
</svg>
