<svg width="228" height="207" viewBox="0 0 228 207" fill="none" xmlns="http://www.w3.org/2000/svg">
<rect width="228" height="207" fill="white"/>
<path d="M40.5547 88.1426V118.253H70.6648V88.1426H40.5547ZM47.6753 113.792C46.5578 112.93 45.903 111.286 45.903 111.286C44.9618 110.918 43.6208 110.024 43.6208 110.024C43.6208 110.024 44.4991 109.545 45.264 109.401C44.9776 107.789 45.3585 105.585 45.3585 105.585C45.3585 105.585 45.6292 107.578 46.5862 109.095C47.7824 108.856 48.7708 108.758 48.7708 108.758C48.7708 108.758 48.1318 109.653 47.7981 110.641C48.5316 111.374 49.9041 112.139 50.4141 112.331C49.2808 112.268 48.0059 112.061 47.5242 111.869C47.5179 112.561 47.5494 113.282 47.6753 113.792ZM50.6911 104.408C50.0363 103.036 49.605 101.232 49.605 101.232C49.605 101.232 48.009 102.22 45.6008 104.565C47.0048 101.773 48.6795 100.017 48.6795 100.017C48.6795 100.017 48.0562 99.3933 45.774 99.1856C47.9775 98.4049 50.4015 98.6599 50.4015 98.6599C50.4015 98.6599 51.4718 97.7501 53.2567 97.2401C53.2567 97.2401 52.7939 97.8634 52.4413 98.8519C54.9786 99.1226 57.3395 100.624 57.3395 100.624C57.3395 100.624 53.414 100.001 51.7551 100.53C51.1696 101.953 50.8359 103.498 50.6911 104.408ZM56.3731 112.322C56.3952 112.763 56.5683 113.21 56.5683 113.21C56.5683 113.21 56.222 113.254 55.2399 113.279C53.8579 114.075 52.1769 114.381 52.1769 114.381C52.1769 114.381 53.2472 113.679 53.7887 113.118C52.9261 112.989 52.1769 112.593 52.1769 112.593C52.1769 112.593 53.6218 112.495 54.6827 112.24C55.1769 111.73 56.1181 110.421 56.1181 110.421C56.1181 110.421 56.1654 111.154 56.2629 111.648C57.4906 111.056 58.5137 110.292 58.5137 110.292C58.5137 110.292 57.6071 111.409 56.3731 112.322ZM66.0468 94.8288C66.1664 96.9191 65.7131 99.4406 64.967 101.395C64.967 100.098 64.8411 97.7155 64.051 96.0974C63.434 96.5224 61.86 97.3094 59.647 98.4364C59.987 98.0964 61.4571 96.3524 61.882 95.6064C60.349 95.6284 57.6921 95.8204 55.4791 96.3084C56.946 95.4993 59.8201 94.5424 62.159 94.1394C61.158 93.2895 59.244 92.2255 57.7771 91.5014C58.9702 91.5455 63.5001 92.3955 65.0331 93.5854C66.0562 93.343 67.3941 93.3115 67.3941 93.3115C67.0793 93.9568 66.648 94.4322 66.0468 94.8288Z" fill="#008B6B"/>
<path d="M85.2324 103.281C86.5577 102.947 87.3793 101.88 87.3793 100.813C87.3793 99.746 86.3059 98.3672 83.904 98.3672C81.5021 98.3672 78.6406 98.3672 78.6406 98.3672C78.6406 98.3672 78.7445 101.295 78.7445 103.697C78.7445 106.102 78.6406 109.152 78.6406 109.152C78.6406 109.152 81.798 109.237 83.7781 109.237C85.7581 109.237 87.8641 108.255 87.8641 106.206C87.8641 104.159 85.7172 103.448 85.2324 103.281ZM83.0635 107.899C82.138 107.899 81.2629 107.899 81.2629 107.899C81.2629 107.899 81.2094 105.349 81.2094 103.634C81.2094 101.918 81.3132 99.598 81.3132 99.598C82.0499 99.598 84.7886 99.2203 84.7886 101.081C84.7886 102.941 82.4937 102.63 82.4937 102.63L81.946 104.219C81.946 104.219 82.5567 104.219 83.0415 104.219C83.5262 104.219 85.2954 104.534 85.2954 106.039C85.2954 107.543 83.989 107.899 83.0635 107.899Z" fill="#008B6B"/>
<path d="M162.92 103.281C164.245 102.947 165.067 101.88 165.067 100.813C165.067 99.746 163.993 98.3672 161.591 98.3672C159.19 98.3672 156.328 98.3672 156.328 98.3672C156.328 98.3672 156.432 101.295 156.432 103.697C156.432 106.102 156.328 109.152 156.328 109.152C156.328 109.152 159.486 109.237 161.466 109.237C163.446 109.237 165.552 108.255 165.552 106.206C165.552 104.159 163.405 103.448 162.92 103.281ZM160.751 107.899C159.825 107.899 158.95 107.899 158.95 107.899C158.95 107.899 158.897 105.349 158.897 103.634C158.897 101.918 159.001 99.598 159.001 99.598C159.737 99.598 162.476 99.2203 162.476 101.081C162.476 102.941 160.181 102.63 160.181 102.63L159.633 104.219C159.633 104.219 160.244 104.219 160.729 104.219C161.214 104.219 162.983 104.534 162.983 106.039C162.983 107.543 161.68 107.899 160.751 107.899Z" fill="#008B6B"/>
<path d="M90.5 98.3672C90.5 98.3672 90.6448 101.836 90.6448 103.092C90.6448 104.348 90.5 109.24 90.5 109.24H92.8137C92.8137 109.24 92.6878 106.001 92.6878 104.578C92.6878 103.155 92.6878 101.317 92.6878 101.317C92.6878 101.317 92.9365 102.028 93.8557 103.492C94.7718 104.956 97.4003 109.24 97.4003 109.24H99.2985C99.2985 109.24 99.1096 106.722 99.1096 103.738C99.1096 100.753 99.2985 98.3703 99.2985 98.3703H96.9438L97.1925 105.038L93.1285 98.3703H90.5V98.3672Z" fill="#008B6B"/>
<path d="M106.77 98.3672C102.939 98.3672 102.58 98.3672 102.555 98.3672C102.555 98.3672 102.684 101.263 102.684 103.804C102.684 106.344 102.555 109.24 102.555 109.24H105.344C105.344 109.24 105.152 107.068 105.152 104.789C106.194 104.789 111.41 105.28 111.41 101.49C111.413 100.722 111.221 98.3672 106.77 98.3672ZM105.174 103.404V99.7208C105.174 99.7208 108.901 99.3147 108.901 101.446C108.901 103.851 105.174 103.404 105.174 103.404Z" fill="#008B6B"/>
<path d="M121.621 98.3672C117.79 98.3672 117.431 98.3672 117.406 98.3672C117.406 98.3672 117.535 101.263 117.535 103.804C117.535 106.344 117.406 109.24 117.406 109.24H120.195C120.195 109.24 120.003 107.068 120.003 104.789C121.045 104.789 126.261 105.28 126.261 101.49C126.265 100.722 126.073 98.3672 121.621 98.3672ZM120.025 103.404V99.7208C120.025 99.7208 123.753 99.3147 123.753 101.446C123.753 103.851 120.025 103.404 120.025 103.404Z" fill="#008B6B"/>
<path d="M132.557 98.3672H130.621C130.621 98.3672 129.069 102.595 126.227 109.237C126.598 109.237 128.641 109.237 128.641 109.237L129.409 106.659H133.284L134.2 109.237H136.989L132.557 98.3672ZM129.938 105.214L131.342 101.594L132.768 105.214H129.938Z" fill="#008B6B"/>
<path d="M173.154 98.3672H171.215C171.215 98.3672 169.663 102.595 166.82 109.237C167.192 109.237 169.235 109.237 169.235 109.237L170.003 106.659H173.878L174.794 109.237H177.583L173.154 98.3672ZM170.538 105.214L171.942 101.594L173.368 105.214H170.538Z" fill="#008B6B"/>
<path d="M138.727 98.3672C138.727 98.3672 138.875 100.36 138.875 103.319C138.875 106.278 138.727 109.24 138.727 109.24H141.472C141.472 109.24 141.324 106.354 141.324 103.804C141.324 101.254 141.472 99.7428 141.472 99.7428C141.472 99.7428 145.07 99.2329 145.07 101.49C145.07 103.747 142.259 103.429 142.259 103.429L145.41 109.243H148.391L145.347 104.367C145.347 104.367 147.604 103.92 147.604 101.449C147.604 98.9779 144.686 98.3703 143.197 98.3703C141.708 98.3672 138.727 98.3672 138.727 98.3672Z" fill="#008B6B"/>
<path d="M150.312 98.3672C150.312 98.3672 150.527 100.102 150.527 103.426C150.527 106.747 150.312 109.24 150.312 109.24H153.124C153.124 109.24 152.932 106.643 152.932 103.385C152.932 100.127 153.124 98.3703 153.124 98.3703H150.312V98.3672Z" fill="#008B6B"/>
<path d="M186.137 97.8814C186.137 97.8814 184.679 97.4375 183.115 97.4375C181.55 97.4375 178.938 98.0765 178.938 100.582C178.938 102.603 181.088 103.475 181.9 103.862C182.658 104.224 184.607 104.772 184.654 105.924C184.692 106.894 183.71 107.162 182.687 107.124C181.705 107.086 180.131 106.5 179.098 105.88C179.098 106.752 179.098 108.317 179.098 108.317C179.098 108.317 180.965 108.849 182.539 108.849C184.113 108.849 186.999 108.282 186.999 105.496C186.999 103.5 185.202 102.65 183.543 101.971C182.026 101.347 181.286 100.869 181.286 100.104C181.286 99.3389 182.315 99.2161 182.816 99.2161C183.313 99.2161 184.254 99.2161 186.14 100.23C186.137 99.3389 186.137 97.8814 186.137 97.8814Z" fill="#008B6B"/>
</svg>
