<svg width="228" height="207" viewBox="0 0 228 207" fill="none" xmlns="http://www.w3.org/2000/svg">
<rect width="228" height="207" fill="white"/>
<path fill-rule="evenodd" clip-rule="evenodd" d="M59.2583 98.8208C58.5271 102.173 58.0136 105.63 57.6599 109.037C57.6599 109.037 57.0376 109.01 56.7927 109.01C56.6159 109.01 56.2894 109.02 56.0854 109.03C56.0854 109.033 56.0888 109.033 56.0888 109.037C56.0888 109.037 56.0513 109.037 55.9901 109.033C55.9357 109.037 55.9017 109.037 55.9017 109.037C55.9017 109.033 55.9017 109.033 55.9017 109.03C55.6739 109.023 55.3066 109.01 55.1433 109.01C54.8713 109.01 54.249 109.037 54.249 109.037C53.5722 107.469 52.5962 105.444 51.9739 104.144C51.7562 104.144 51.6202 104.144 51.542 104.144C51.2971 105.739 51.0829 107.415 50.8652 109.037C50.8652 109.037 50.2701 109.01 50.0252 109.01C49.7532 109.01 49.158 109.037 49.158 109.037C49.7566 106.299 50.2225 103.489 50.5387 100.697C49.6715 103.13 47.2604 104.901 43.9039 104.901C43.1183 104.901 42.496 104.874 42.3055 104.847C41.8736 107.792 41.4927 110.279 41.0881 113.224C41.0881 113.224 40.5201 113.142 40.0576 113.142C39.5713 113.142 39.4625 113.142 39 113.196C40.3263 107.144 41.2479 100.873 41.8702 94.7392C41.8702 94.7392 42.7102 94.7934 43.1965 94.7934L45.6893 94.7392C47.8283 94.6849 50.889 95.0377 50.889 98.6308C50.889 98.6953 50.8856 98.7597 50.8856 98.8242C51.1883 98.831 51.8412 98.8479 52.1099 98.8479C53.5994 98.8208 56.3914 98.4951 56.3914 100.873C56.3914 102.98 54.6842 103.873 53.63 104.063C54.2694 105.413 55.1978 107.34 55.9595 108.779C56.6601 105.508 57.16 102.139 57.5035 98.8208C57.5035 98.8208 58.1258 98.8479 58.3707 98.8479C58.6325 98.8479 59.2583 98.8208 59.2583 98.8208ZM48.801 98.8479C48.801 96.741 47.5019 95.9029 45.7131 95.9029C45.1179 95.9029 44.0059 95.9572 43.7644 95.9843C43.1965 99.0379 42.9517 100.551 42.4926 103.686C42.683 103.713 43.1965 103.768 43.8733 103.768C46.8251 103.768 48.801 101.576 48.801 98.8479ZM52.0249 103.279C53.6504 103.279 54.6808 102.414 54.7081 101.036C54.7081 100.253 54.1401 99.7131 53.0825 99.7131C52.756 99.7131 52.4057 99.7131 52.2697 99.7403C51.9705 101.281 51.9432 101.684 51.7018 103.252C51.7528 103.252 51.8888 103.279 52.0249 103.279Z" fill="black"/>
<path fill-rule="evenodd" clip-rule="evenodd" d="M60.7931 105.338C60.7931 107.177 61.225 108.473 62.5819 108.473C63.9898 108.473 65.0202 107.337 65.0202 107.337H65.2379L64.9386 108.578C64.9114 108.606 63.8538 109.416 62.3643 109.416C60.7387 109.416 59.0859 108.253 59.0859 105.202C59.0859 101.959 61.1706 98.7695 64.1224 98.7695C65.4215 98.7695 66.452 99.4719 66.452 99.4719C66.3159 99.8756 66.0983 100.527 66.0473 100.931H65.8568C65.8568 100.904 65.2345 99.7161 64.0408 99.7161C62.0412 99.7161 60.7931 103.068 60.7931 105.338Z" fill="black"/>
<path fill-rule="evenodd" clip-rule="evenodd" d="M85.8848 97.6367C83.8546 101.773 82.5521 104.663 79.8723 110.336C79.4948 110.255 79.0323 110.282 78.6004 110.336C78.4372 106.095 78.3828 103.12 78.1413 100.093L73.9686 110.336C73.5639 110.255 73.1014 110.282 72.6695 110.336C72.3566 106.475 72.1186 103.31 71.7309 99.9066C71.0201 99.8557 70.3808 99.8251 69.5578 99.8251C69.313 99.798 68.9355 99.798 68.7995 99.798C68.5002 101.447 68.4458 101.61 68.2043 103.259C68.3948 103.259 68.8811 103.286 69.2075 103.286C70.0475 103.286 70.6427 103.232 71.4282 103.177C71.3466 103.53 71.265 103.907 71.3194 104.232C70.5338 104.151 69.7483 104.124 69.0443 104.124C68.558 104.097 68.5036 104.151 68.0683 104.151C67.8234 105.664 67.7146 106.557 67.4732 108.178C67.5276 108.124 67.6364 108.097 67.8506 108.097C68.1499 108.097 69.2858 108.07 69.7211 108.043C70.4794 107.988 71.1834 107.88 71.1834 107.88C71.0474 108.233 71.0201 108.745 71.0474 109.044L69.8843 109.016C69.2892 108.989 68.422 108.989 67.7996 108.989C67.2589 108.989 66.742 108.989 66.3645 109.016H65.9054C65.851 109.016 65.7966 109.016 65.7422 109.016V108.962C66.3917 105.664 66.9052 102.234 67.2589 98.8548C67.2589 98.8548 68.2621 98.8819 68.6124 98.8819L70.9963 98.909C71.2004 98.909 71.4044 98.9057 71.6153 98.8989C71.5643 98.4849 71.5133 98.0676 71.4554 97.6401C71.4554 97.6401 72.0778 97.6673 72.3226 97.6673C72.5675 97.6673 73.1354 97.6401 73.1354 97.6401C73.3531 101.233 73.6489 104.477 73.9754 107.938C74.6793 106.18 77.0633 100.181 77.9849 97.6401C78.3896 97.7215 79.0969 97.6944 79.5288 97.6401C79.6921 101.047 79.8281 104.422 79.9879 107.938C80.7735 106.18 83.5621 100.046 84.4837 97.6401C84.4837 97.6401 84.9428 97.6673 85.1877 97.6673C85.4223 97.6639 85.8848 97.6367 85.8848 97.6367Z" fill="black"/>
<path fill-rule="evenodd" clip-rule="evenodd" d="M87.9861 98.8496C88.4997 102.768 88.7173 104.875 89.4213 109.038C89.4213 109.038 88.7989 108.984 88.5541 108.984C88.282 108.984 87.7685 109.038 87.7685 109.038C87.6597 107.634 87.391 105.605 87.3638 105.255C87.1462 105.228 86.4422 105.201 85.9559 105.201C85.4696 105.201 84.7384 105.255 84.5752 105.255C83.9257 106.524 83.2761 107.688 82.6776 109.038C82.6776 109.038 82.2457 109.011 82.0008 109.011C81.7288 109.011 81.2969 109.038 81.2969 109.038C82.868 106.443 84.3848 103.498 86.8775 98.8496H87.9861ZM87.255 104.417L86.8231 100.824L84.9799 104.417C85.1975 104.444 85.7383 104.444 86.1191 104.444C86.4966 104.444 87.0645 104.444 87.255 104.417Z" fill="black"/>
<path fill-rule="evenodd" clip-rule="evenodd" d="M92.711 97.7157C92.0343 100.986 91.6806 103.524 91.3303 106.931C91.3303 106.931 90.7352 106.877 90.4904 106.877C90.2183 106.877 89.6232 106.931 89.6232 106.931C90.3543 103.579 90.708 100.959 91.1127 97.7157C90.0006 97.7429 88.2969 97.8243 88.2969 97.8243C88.4329 97.4986 88.5145 97.122 88.5145 96.7148C88.5145 96.7148 90.708 96.742 92.0615 96.742C93.3878 96.742 95.6085 96.7148 95.6085 96.7148C95.4725 97.0134 95.3636 97.4172 95.3908 97.8243C95.3908 97.8209 93.8469 97.7429 92.711 97.7157Z" fill="black"/>
<path fill-rule="evenodd" clip-rule="evenodd" d="M97.3814 105.285C97.2997 105.638 97.2181 106.014 97.2725 106.34C96.487 106.258 95.7014 106.231 94.9974 106.231C94.5111 106.231 94.4567 106.258 94.0214 106.258C93.7766 107.799 93.6677 108.664 93.4263 110.313C93.4807 110.259 93.5895 110.204 93.8038 110.204C94.103 110.204 95.2389 110.177 95.6742 110.15C96.4326 110.123 97.1365 110.014 97.1365 110.014C97.0005 110.367 96.9733 110.88 97.0005 111.175L95.8374 111.12C95.2423 111.12 94.3751 111.12 93.7528 111.12C93.212 111.12 92.6951 111.12 92.3176 111.148H91.8585C91.8041 111.148 91.7497 111.148 91.6953 111.148V111.093C92.3449 107.795 92.8584 104.338 93.212 100.959C93.212 100.959 94.2153 100.959 94.5655 100.986L96.9495 101.013C97.463 101.013 97.9799 100.986 98.6022 100.932C98.4662 101.257 98.3846 101.634 98.3846 102.041C97.3542 101.987 96.5958 101.933 95.5144 101.905C95.2695 101.905 94.892 101.905 94.756 101.905C94.4567 103.554 94.4023 103.69 94.1609 105.366C94.3513 105.366 94.8376 105.393 95.1641 105.393C95.9973 105.393 96.5958 105.339 97.3814 105.285Z" fill="black"/>
<path fill-rule="evenodd" clip-rule="evenodd" d="M112.602 99.9605C111.871 103.313 111.357 106.77 111.004 110.149C111.004 110.149 110.409 110.122 110.164 110.122C109.892 110.122 109.297 110.149 109.297 110.149C109.701 108.31 109.919 106.906 110.218 105.121C109.919 105.121 108.892 105.094 108.188 105.094C107.566 105.094 106.671 105.121 106.426 105.121C106.181 106.851 105.967 108.31 105.777 110.149C105.777 110.149 105.182 110.122 104.937 110.122C104.665 110.122 104.07 110.149 104.07 110.149C104.151 109.779 104.229 109.406 104.304 109.033C104.076 109.026 103.736 109.013 103.583 109.013C103.311 109.013 102.689 109.04 102.689 109.04C102.012 107.445 101.036 105.447 100.414 104.174C100.332 104.174 100.223 104.147 100.142 104.147C99.8969 105.742 99.6826 107.391 99.465 109.04C99.465 109.04 98.8699 108.986 98.625 108.986C98.3529 108.986 97.7578 109.04 97.7578 109.04C98.489 105.688 99.0025 102.23 99.3562 98.851C99.3562 98.851 100.359 98.8782 100.71 98.8782L102.036 98.851C103.226 98.8239 104.825 99.1767 104.825 100.904C104.825 102.984 103.117 103.876 102.063 104.066C102.692 105.399 103.607 107.272 104.362 108.724C104.94 105.827 105.362 102.885 105.665 99.9571C105.665 99.9571 106.26 100.011 106.505 100.011C106.777 100.011 107.372 99.9571 107.372 99.9571C107.018 101.525 106.831 102.712 106.586 104.225C106.831 104.225 107.617 104.252 108.157 104.28C108.916 104.28 110.082 104.225 110.351 104.225C110.541 102.712 110.732 101.525 110.892 99.9571C110.892 99.9571 111.487 100.011 111.731 100.011C112.007 100.015 112.602 99.9605 112.602 99.9605ZM100.468 103.282C102.094 103.309 103.124 102.444 103.151 101.039C103.151 100.283 102.583 99.7434 101.526 99.7434C101.227 99.7434 100.985 99.7434 100.876 99.7434C100.577 101.284 100.55 101.687 100.308 103.282C100.332 103.282 100.414 103.282 100.468 103.282Z" fill="black"/>
<path fill-rule="evenodd" clip-rule="evenodd" d="M121.247 102.987C121.247 105.796 119.431 109.42 116.047 109.42C113.881 109.42 112.5 107.825 112.5 105.23C112.5 102.393 114.343 98.7695 117.727 98.7695C119.893 98.7695 121.247 100.364 121.247 102.987ZM119.594 102.851C119.594 101.338 119.24 99.7161 117.591 99.7161C115.289 99.7161 114.177 103.282 114.177 105.365C114.177 106.851 114.557 108.5 116.18 108.5C118.485 108.5 119.567 104.931 119.594 102.851Z" fill="black"/>
<path fill-rule="evenodd" clip-rule="evenodd" d="M135.273 101.364C135.11 101.768 134.92 102.338 134.869 102.742H134.651C134.651 102.687 134.27 101.527 133.026 101.527C131.914 101.527 131.155 102.338 131.155 103.23C131.155 104.312 132.077 104.716 132.862 105.174C133.294 105.391 133.73 105.632 134.053 106.012C134.379 106.389 134.621 106.905 134.621 107.743C134.621 109.392 133.185 111.281 130.72 111.281C129.448 111.281 128.336 110.416 128.336 110.416C128.499 110.012 128.713 109.388 128.768 109.012H128.985C128.985 109.039 129.553 110.335 130.856 110.335C132.182 110.335 133.049 109.174 133.049 108.146C133.049 107.444 132.617 107.118 132.073 106.796C130.934 106.094 129.744 105.636 129.744 103.987C129.744 102.015 131.097 100.607 133.158 100.607C134.488 100.607 135.246 101.337 135.273 101.364Z" fill="black"/>
<path fill-rule="evenodd" clip-rule="evenodd" d="M128.586 105.367C128.154 107.528 127.259 109.448 124.604 109.448C122.301 109.448 121.516 108.179 121.516 106.449C121.516 106.15 121.597 105.665 121.679 105.099C121.76 104.505 121.897 103.83 122.005 103.1C122.277 101.668 122.546 100.101 122.655 98.832C122.655 98.832 123.25 98.8592 123.495 98.8592C123.767 98.8592 124.362 98.832 124.362 98.832C124.172 99.8601 123.876 101.4 123.631 102.887C123.359 104.373 123.145 105.777 123.145 106.48C123.145 107.857 123.849 108.373 124.797 108.373C126.559 108.373 127.181 107.022 127.586 104.966C127.94 103.182 128.426 99.9958 128.535 98.832C128.535 98.832 128.967 98.8592 129.212 98.8592C129.484 98.8592 129.861 98.832 129.861 98.832C129.399 101.041 128.885 103.904 128.586 105.367Z" fill="black"/>
<path fill-rule="evenodd" clip-rule="evenodd" d="M150.737 110.308H151.009L150.522 112.038C150.495 112.065 148.597 113.524 145.945 113.524C143.112 113.524 140.602 111.478 140.204 107.22L139.205 107.173C138.609 107.146 137.742 107.146 137.12 107.146C136.579 107.146 136.062 107.173 135.685 107.173H135.226C135.171 107.173 135.117 107.173 135.062 107.173V107.118C135.712 103.821 136.226 100.39 136.579 96.9839C136.579 96.9839 137.582 97.011 137.933 97.011L140.317 97.0382C140.83 97.0382 141.347 97.011 141.969 96.9839C141.833 97.2825 141.752 97.6862 141.752 98.0934C140.721 98.0119 139.963 97.9577 138.882 97.9577C138.637 97.9577 138.259 97.9577 138.123 97.9577C137.824 99.5795 137.769 99.7423 137.528 101.418C137.664 101.418 137.96 101.418 138.286 101.418C138.827 101.418 139.398 101.364 140.184 101.31C140.102 101.663 140.021 102.066 140.075 102.365C139.29 102.284 138.64 102.256 138.127 102.256C137.882 102.256 137.8 102.256 137.722 102.284C137.667 102.284 137.613 102.284 137.395 102.284C137.151 103.824 137.042 104.689 136.8 106.338C136.855 106.284 136.964 106.257 137.178 106.257C137.477 106.257 138.613 106.23 139.048 106.202C139.473 106.172 139.881 106.124 140.157 106.09C140.157 106.063 140.157 106.04 140.157 106.016C140.157 99.9357 144.003 94.4766 149.094 94.4766C151.423 94.4766 153.158 95.6912 153.212 95.7183C152.886 96.4207 152.59 97.2316 152.454 97.8253H152.209C152.182 97.7982 151.07 95.6369 148.876 95.6369C145.489 95.6369 142.241 100.421 142.241 106.718C142.241 110.125 144.003 112.367 146.414 112.367C148.839 112.36 150.737 110.308 150.737 110.308Z" fill="black"/>
<path fill-rule="evenodd" clip-rule="evenodd" d="M162.744 102.962C162.744 105.771 160.901 109.394 157.572 109.394C155.351 109.394 154.701 107.745 154.538 107.179C154.239 107.718 153.103 109.449 150.774 109.449C148.607 109.449 147.227 107.854 147.227 105.231C147.227 102.395 149.07 98.7441 152.454 98.7441C154.729 98.7441 155.351 100.42 155.514 100.987C155.813 100.447 156.922 98.7984 159.252 98.7984C161.391 98.7984 162.744 100.366 162.744 102.962ZM154.321 102.826C154.321 101.313 153.967 99.6908 152.317 99.6908C150.015 99.6908 148.903 103.284 148.903 105.367C148.903 106.88 149.284 108.502 150.906 108.502C153.212 108.502 154.321 104.933 154.321 102.826ZM160.959 102.826C160.959 101.34 160.687 99.745 159.034 99.745C156.732 99.745 155.674 103.284 155.674 105.34C155.674 106.826 156 108.448 157.623 108.448C159.901 108.448 160.959 104.906 160.959 102.826Z" fill="black"/>
<path fill-rule="evenodd" clip-rule="evenodd" d="M175.217 103.172C175.136 103.525 175.054 103.902 175.108 104.227C174.323 104.146 173.537 104.092 172.833 104.092C172.347 104.092 172.293 104.146 171.857 104.119C171.613 105.659 171.504 106.524 171.262 108.173C171.317 108.119 171.425 108.065 171.643 108.065C171.942 108.092 173.078 108.038 173.514 108.038C174.272 107.983 174.976 107.875 174.976 107.875C174.84 108.228 174.813 108.74 174.84 109.038L173.673 108.984C173.078 108.984 172.211 108.984 171.589 108.984C171.048 108.984 170.531 108.984 170.154 109.011H169.694C169.64 109.011 169.586 109.011 169.531 109.011V108.957C170.181 105.659 170.698 102.229 171.048 98.8496C171.048 98.8496 172.051 98.8768 172.401 98.8768L174.785 98.9039C175.299 98.9039 175.816 98.8768 176.438 98.8496C176.302 99.1482 176.221 99.5519 176.221 99.9591C175.19 99.8776 174.432 99.8234 173.35 99.8234C173.105 99.7962 172.728 99.8234 172.592 99.8234C172.293 101.445 172.238 101.608 171.997 103.257C172.187 103.257 172.674 103.284 173 103.284C173.837 103.281 174.435 103.226 175.217 103.172Z" fill="black"/>
<path fill-rule="evenodd" clip-rule="evenodd" d="M170.1 100.876C170.1 103.146 167.906 104.442 166.172 104.442C165.495 104.442 165.114 104.442 164.982 104.414C164.737 106.009 164.55 107.387 164.332 109.008C164.332 109.008 163.737 108.981 163.492 108.981C163.22 108.981 162.625 109.008 162.625 109.008C163.356 105.656 163.87 102.226 164.223 98.8467C164.223 98.8467 165.227 98.8739 165.577 98.8739L167.311 98.8467C168.529 98.823 170.1 99.203 170.1 100.876ZM168.42 101.12C168.42 100.282 167.906 99.7425 166.74 99.7425C166.413 99.7425 165.927 99.7425 165.764 99.7425C165.465 101.391 165.386 101.822 165.142 103.498C165.25 103.498 165.468 103.526 165.655 103.526C167.338 103.526 168.42 102.606 168.42 101.12Z" fill="black"/>
<path fill-rule="evenodd" clip-rule="evenodd" d="M188.995 99.5261C188.832 99.9299 188.642 100.5 188.591 100.904H188.373C188.373 100.849 187.996 99.7161 186.747 99.7161C185.635 99.7161 184.877 100.5 184.877 101.392C184.877 102.475 185.799 102.878 186.584 103.309C187.016 103.553 187.451 103.794 187.774 104.147C188.101 104.527 188.342 105.067 188.342 105.878C188.342 107.554 186.907 109.416 184.333 109.416C181.922 109.416 180.864 108.334 179.728 106.336C179.728 106.336 178.807 104.714 178.484 104.174C178.266 104.147 178.103 104.147 178.025 104.147C177.78 105.742 177.565 107.391 177.348 109.013C177.348 109.013 176.753 108.985 176.508 108.985C176.236 108.985 175.641 109.013 175.641 109.013C176.372 105.66 176.885 102.23 177.239 98.851C177.239 98.851 178.242 98.8781 178.592 98.8781C180.082 98.851 182.792 98.5524 182.792 100.877C182.792 102.875 181.194 103.849 180.109 104.066L181.327 106.091C182.303 107.686 182.952 108.47 184.469 108.47C185.958 108.47 186.771 107.309 186.771 106.281C186.771 105.606 186.339 105.253 185.795 104.958C184.656 104.256 183.466 103.798 183.466 102.149C183.466 100.178 184.819 98.7695 186.88 98.7695C188.21 98.7695 188.968 99.499 188.995 99.5261ZM181.112 101.039C181.112 100.256 180.545 99.7433 179.487 99.7433C179.188 99.7433 178.865 99.7433 178.756 99.7433C178.456 101.284 178.429 101.687 178.188 103.255C178.242 103.282 178.378 103.282 178.514 103.282C180.14 103.282 181.112 102.339 181.112 101.039Z" fill="black"/>
</svg>
