<svg width="63" height="65" viewBox="0 0 63 65" fill="none" xmlns="http://www.w3.org/2000/svg">
<g clip-path="url(#clip0_523_6452)">
<path d="M47.0611 35.9726C46.6784 35.9726 46.3675 35.6581 46.3675 35.2711V9.52944C46.3675 8.74572 46.9941 8.11197 47.769 8.11197H49.4527H49.4622C49.4622 8.11197 49.4622 8.1023 49.4622 8.09746C49.4622 8.09746 49.4622 8.09746 49.4622 8.09262L43.7367 1.41169C43.7367 1.41169 43.7224 1.40685 43.7176 1.41169L37.9921 8.09262L37.9873 8.09746C37.9873 8.09746 37.9873 8.10714 37.9969 8.11197C37.9969 8.11197 37.9969 8.11197 38.0017 8.11197H39.9915C40.7664 8.11197 41.393 8.74572 41.393 9.52944V25.3682C41.393 25.7552 41.0821 26.0697 40.6994 26.0697C40.3167 26.0697 40.0058 25.7552 40.0058 25.3682V9.52944C40.0058 9.52944 40.001 9.51976 39.9963 9.51976H38.0064C37.4516 9.51976 36.9637 9.20047 36.7341 8.6925C36.5045 8.1797 36.5858 7.59917 36.9494 7.17345L42.6749 0.492519C42.9427 0.182903 43.3254 0.00390625 43.732 0.00390625C44.1385 0.00390625 44.526 0.182903 44.789 0.492519L50.5145 7.17345C50.8781 7.59917 50.9594 8.1797 50.7298 8.6925C50.5002 9.20531 50.0123 9.51976 49.4575 9.51976H47.7738C47.7738 9.51976 47.7642 9.5246 47.7642 9.52944V35.2759C47.7642 35.663 47.4533 35.9774 47.0706 35.9774L47.0611 35.9726Z" fill="url(#paint0_linear_523_6452)"/>
<path d="M58.7017 64.2938C58.319 64.2938 58.0081 63.9794 58.0081 63.5923V37.8458C58.0081 37.0621 58.6347 36.4284 59.4096 36.4284H61.0933H61.1029C61.1029 36.4284 61.1029 36.4187 61.1029 36.4139C61.1029 36.4139 61.1029 36.4139 61.1029 36.409L55.3774 29.7281C55.3774 29.7281 55.363 29.7233 55.3582 29.7281L49.6327 36.409L49.6279 36.4139C49.6279 36.4139 49.6279 36.4235 49.6375 36.4284C49.6375 36.4284 49.6375 36.4284 49.6423 36.4284H51.6321C52.407 36.4284 53.0336 37.0621 53.0336 37.8458V53.6846C53.0336 54.0717 52.7227 54.3861 52.34 54.3861C51.9574 54.3861 51.6465 54.0717 51.6465 53.6846V37.8458C51.6465 37.8458 51.6417 37.8362 51.6369 37.8362H49.6471C49.0922 37.8362 48.6043 37.5169 48.3747 37.0089C48.1451 36.4961 48.2265 35.9156 48.59 35.4899L54.3155 28.8089C54.5833 28.4993 54.966 28.3203 55.3726 28.3203C55.7792 28.3203 56.1666 28.4993 56.4297 28.8089L62.1552 35.4899C62.5187 35.9156 62.6 36.4961 62.3704 37.0089C62.1408 37.5217 61.6529 37.8362 61.0981 37.8362H59.4144C59.4144 37.8362 59.4048 37.841 59.4048 37.8458V63.5923C59.4048 63.9794 59.0939 64.2938 58.7113 64.2938H58.7017Z" fill="url(#paint1_linear_523_6452)"/>
<path d="M15.9401 35.9735C15.5575 35.9735 15.2466 35.659 15.2466 35.272V9.53037C15.2466 9.53037 15.2418 9.52069 15.237 9.52069H13.5533C12.9985 9.52069 12.5106 9.2014 12.281 8.69343C12.0514 8.18063 12.1327 7.6001 12.4962 7.17438L18.2122 0.488613C18.48 0.178997 18.8627 0 19.2693 0C19.6758 0 20.0633 0.178997 20.3264 0.488613L26.0519 7.16954C26.4154 7.59527 26.4967 8.1758 26.2671 8.6886C26.0375 9.2014 25.5496 9.51585 24.9948 9.51585H23.0049C23.0049 9.51585 22.9954 9.52069 22.9954 9.52553V25.3643C22.9954 25.7513 22.6845 26.0658 22.3018 26.0658C21.9192 26.0658 21.6083 25.7513 21.6083 25.3643V9.53037C21.6083 8.74665 22.2349 8.11291 23.0097 8.11291H24.9995H25.0091C25.0091 8.11291 25.0091 8.10323 25.0091 8.09839C25.0091 8.09839 25.0091 8.09839 25.0091 8.09355L19.2836 1.41262C19.2836 1.41262 19.2693 1.40779 19.2645 1.41262L13.539 8.09355L13.5342 8.09839C13.5342 8.09839 13.5342 8.10807 13.5438 8.11291C13.5438 8.11291 13.5438 8.11291 13.5485 8.11291H15.2322C16.0071 8.11291 16.6337 8.74665 16.6337 9.53037V35.2769C16.6337 35.6639 16.3228 35.9783 15.9401 35.9783V35.9735Z" fill="url(#paint2_linear_523_6452)"/>
<path d="M4.29171 64.2938C3.90905 64.2938 3.59814 63.9794 3.59814 63.5923V37.8458C3.59814 37.8458 3.59336 37.8362 3.58857 37.8362H1.90488C1.35003 37.8362 0.862143 37.5169 0.632549 37.0089C0.402955 36.4961 0.484269 35.9156 0.847794 35.4899L6.5733 28.8089C6.84116 28.4993 7.22382 28.3203 7.63039 28.3203C8.03696 28.3203 8.4244 28.4993 8.68748 28.8089L14.413 35.4899C14.7765 35.9156 14.8578 36.4961 14.6282 37.0089C14.3986 37.5217 13.9107 37.8362 13.3559 37.8362H11.3661C11.3661 37.8362 11.3565 37.841 11.3565 37.8458V53.6846C11.3565 54.0717 11.0456 54.3861 10.6629 54.3861C10.2803 54.3861 9.96938 54.0717 9.96938 53.6846V37.8458C9.96938 37.0621 10.596 36.4284 11.3709 36.4284H13.3607H13.3702C13.3702 36.4284 13.3702 36.4187 13.3702 36.4139C13.3702 36.4139 13.3702 36.4139 13.3702 36.409L7.64474 29.7281C7.64474 29.7281 7.63039 29.7233 7.62561 29.7281L1.9001 36.409L1.89532 36.4139C1.89532 36.4139 1.89532 36.4235 1.90488 36.4284C1.90488 36.4284 1.90488 36.4284 1.90967 36.4284H3.59336C4.36824 36.4284 4.99484 37.0621 4.99484 37.8458V63.5923C4.99484 63.9794 4.68393 64.2938 4.30127 64.2938H4.29171Z" fill="url(#paint3_linear_523_6452)"/>
<path d="M31.4552 47.2886C30.9099 47.9224 30.0872 48.1981 29.2453 48.4594C26.3467 49.364 23.4433 50.2638 20.559 51.2169C18.7605 51.8071 16.8568 50.7041 16.5267 48.9286C16.3785 48.1255 16.4359 47.2644 16.5028 46.442C16.6846 44.3376 16.8998 42.238 17.1486 40.1433C17.469 37.4293 18.4448 35.0781 20.9943 33.7381C21.8505 33.2882 22.7784 32.9689 23.649 32.5432C24.7539 32.0013 25.854 31.4401 26.9302 30.8354C27.5951 30.4629 28.1069 29.9114 28.2026 29.0938C28.2217 28.9052 28.1691 28.6488 28.0495 28.5181C26.5332 26.8733 25.8205 24.8656 25.4666 22.6935C25.1748 20.9132 25.1796 19.1474 25.8684 17.4494C26.6241 15.5917 27.8677 14.1984 29.7954 13.5792C32.4357 12.7326 35.1621 13.8066 36.6593 16.2399C37.6494 17.8509 37.9603 19.6167 37.8073 21.4937C37.6685 23.2353 37.2955 24.914 36.4775 26.4573C36.0997 27.1684 35.5591 27.7876 35.1239 28.4698C35.0043 28.6536 34.9086 28.9197 34.9373 29.1277C35.033 29.8969 35.5161 30.4387 36.1523 30.7967C37.2381 31.4111 38.3525 31.982 39.4718 32.5383C40.0745 32.8383 40.7155 33.0511 41.3373 33.322C43.7815 34.3912 45.3265 36.2295 45.7474 38.9096C46.0822 41.0721 46.3118 43.2539 46.551 45.4309C46.6466 46.3211 46.6706 47.2257 46.6849 48.1207C46.7232 50.3751 44.7286 51.8796 42.6 51.2072C39.5149 50.2348 36.4249 49.2769 33.3493 48.2658C32.7131 48.0578 32.1392 47.6418 31.4647 47.2838L31.4552 47.2886ZM29.915 29.776C29.5658 31.0967 28.6618 31.9142 27.5855 32.5819C27.289 32.7657 27.002 32.964 26.6911 33.1092C25.347 33.7236 24.0029 34.338 22.6445 34.9233C20.7695 35.7312 19.5784 37.081 19.1719 39.1322C18.5787 42.1074 18.3539 45.1213 18.2296 48.1401C18.1865 49.1608 19.0618 49.7655 20.052 49.4511C23.0893 48.4932 26.1314 47.5353 29.164 46.5678C30.2402 46.2243 30.6898 45.6051 30.6898 44.4779C30.6898 43.1475 30.6803 41.8123 30.6898 40.4819C30.6898 40.2884 30.6898 40.0707 30.7664 39.8965C30.9338 39.5047 31.2638 39.316 31.68 39.3644C32.1487 39.4176 32.4309 39.7466 32.4357 40.2594C32.4501 41.672 32.4405 43.0895 32.4548 44.5021C32.4644 45.5761 32.9092 46.2292 33.8707 46.5339C36.9702 47.5257 40.0697 48.5077 43.1692 49.4801C44.0589 49.7607 44.8816 49.1463 44.9199 48.203C44.9247 48.0385 44.9199 47.8691 44.9103 47.7047C44.6568 45.1116 44.4224 42.5089 44.1307 39.9207C43.8485 37.4196 42.5522 35.7119 40.1989 34.7782C38.6922 34.1783 37.2285 33.4478 35.784 32.698C34.6025 32.0836 33.6506 31.1983 33.2345 29.8534C33.2297 29.8292 33.1819 29.8195 33.1293 29.7905C32.0865 30.1291 31.0199 30.1049 29.9245 29.7663L29.915 29.776ZM36.0423 20.739C36.0853 19.6699 35.8701 18.6588 35.4157 17.7009C34.4781 15.732 32.5362 14.7209 30.5416 15.2579C28.767 15.7368 27.7864 17.0672 27.3225 18.7798C26.825 20.6036 27.112 22.4032 27.6477 24.1739C28.0112 25.3591 28.5326 26.4621 29.4462 27.3329C30.7185 28.5423 32.3783 28.5617 33.6506 27.3523C34.019 27.0039 34.3442 26.5879 34.6025 26.1525C35.5926 24.4931 35.9944 22.6596 36.0375 20.739H36.0423Z" fill="black"/>
<path d="M38.4582 54.8555C38.2525 54.1879 38.0516 53.5735 37.8794 52.9591C37.6929 52.2963 37.9033 51.7835 38.396 51.6384C38.9748 51.4691 39.3957 51.7642 39.6157 52.4753C39.7783 53.0123 39.9697 53.5445 40.1275 54.0863C40.2232 54.4104 40.3954 54.454 40.7159 54.3911C42.9257 53.9605 45.1355 53.53 47.4076 53.6219C50.1197 53.7331 52.5208 55.8617 52.7839 58.4258C53.0852 61.3913 51.3346 64.0569 48.5795 64.7584C48.0294 64.8987 47.4458 64.9712 46.8766 64.9761C40.5102 64.9906 34.1389 64.9857 27.7725 64.9857C26.8541 64.9857 26.4954 64.6423 26.5528 63.7183C26.7345 60.8011 28.1838 58.6967 30.6855 57.2986C32.2831 56.4084 34.0624 56.0311 35.7987 55.5376C36.6645 55.2909 37.5398 55.0877 38.463 54.8555H38.4582ZM28.4278 63.1474C28.6909 63.1474 28.8678 63.1474 29.0448 63.1474C33.8328 63.1474 38.6208 63.1474 43.4088 63.1474C44.7242 63.1474 46.0444 63.1716 47.3597 63.1329C49.2826 63.0748 50.9471 61.3478 51.0285 59.3691C51.1098 57.3711 49.6939 55.6586 47.6754 55.5134C46.4605 55.4264 45.2169 55.5086 44.0019 55.6682C40.7446 56.0988 37.5542 56.8922 34.402 57.8114C33.0914 58.1935 31.7856 58.5999 30.6759 59.4514C29.4753 60.3705 28.6765 61.5413 28.4278 63.1474Z" fill="black"/>
<path d="M24.6746 54.8545C25.5643 55.0867 26.4349 55.3092 27.3054 55.5317C27.4011 55.5559 27.4967 55.5801 27.5876 55.6091C28.1712 55.7978 28.4486 56.2284 28.3147 56.717C28.1616 57.2685 27.6976 57.4862 27.0662 57.3459C24.402 56.7702 21.7473 56.1558 19.0687 55.6575C17.7055 55.4011 16.304 55.1931 14.9169 55.5995C13.0323 56.1461 11.8795 57.7861 12.1235 59.5809C12.4009 61.6225 13.9889 63.1222 15.9405 63.1415C18.4421 63.1609 20.9437 63.1464 23.4453 63.1464C23.608 63.1464 23.7754 63.1367 23.938 63.156C24.4546 63.2189 24.8133 63.6011 24.8133 64.0752C24.8133 64.559 24.4116 64.9702 23.8806 64.9847C23.1918 65.0041 22.4983 64.9895 21.8047 64.9895C19.8436 64.9895 17.8872 65.0186 15.9261 64.9799C11.9513 64.9073 9.22963 60.7613 10.7316 57.0508C11.4825 55.1931 12.951 54.1627 14.8451 53.7563C16.3805 53.4225 17.9255 53.6499 19.4561 53.8676C20.4798 54.0175 21.4938 54.2159 22.5078 54.4142C22.7805 54.4674 22.9048 54.3707 22.9814 54.1288C23.1679 53.5434 23.364 52.9629 23.5554 52.3824C23.7658 51.7389 24.182 51.4729 24.7368 51.6373C25.2008 51.7728 25.4399 52.2759 25.2773 52.8661C25.1003 53.5192 24.8851 54.1578 24.6746 54.8545Z" fill="black"/>
<path d="M25.708 45.084C25.7272 45.8387 25.4354 46.2306 24.9475 46.2983C24.4548 46.366 24.0626 46.0709 23.9526 45.4953C23.6847 44.131 23.4456 42.7619 23.1825 41.3977C23.1299 41.1219 23.0342 40.8559 22.9625 40.5849C22.8142 40.0238 23.0438 39.5497 23.5412 39.3852C24.01 39.2255 24.5266 39.4964 24.6797 40.0576C24.9571 41.0784 25.201 42.1088 25.4163 43.1441C25.5598 43.8407 25.6315 44.5519 25.7128 45.084H25.708Z" fill="black"/>
<path d="M37.293 45.2429C37.69 43.5013 38.0678 41.7549 38.4888 40.0181C38.6084 39.5247 39.1345 39.2586 39.5602 39.3747C40.0338 39.5053 40.3016 39.9939 40.1964 40.5164C39.8711 42.1419 39.5506 43.7625 39.235 45.388C39.1106 46.0169 38.7327 46.3652 38.2113 46.3023C37.7139 46.2443 37.403 45.8379 37.4173 45.2767C37.3743 45.2671 37.336 45.2574 37.293 45.2477V45.2429Z" fill="black"/>
</g>
<defs>
<linearGradient id="paint0_linear_523_6452" x1="29.0192" y1="21.0995" x2="58.1228" y2="21.1198" gradientUnits="userSpaceOnUse">
<stop stop-color="#AA2F88"/>
<stop offset="0.245" stop-color="#DD4057"/>
<stop offset="0.52" stop-color="#CC2E6E"/>
<stop offset="0.765" stop-color="#F07745"/>
<stop offset="1" stop-color="#C738CA"/>
</linearGradient>
<linearGradient id="paint1_linear_523_6452" x1="40.6598" y1="49.4159" x2="69.7635" y2="49.4362" gradientUnits="userSpaceOnUse">
<stop stop-color="#AA2F88"/>
<stop offset="0.245" stop-color="#DD4057"/>
<stop offset="0.52" stop-color="#CC2E6E"/>
<stop offset="0.765" stop-color="#F07745"/>
<stop offset="1" stop-color="#C738CA"/>
</linearGradient>
<linearGradient id="paint2_linear_523_6452" x1="4.57118" y1="21.0984" x2="33.6553" y2="21.1187" gradientUnits="userSpaceOnUse">
<stop stop-color="#AA2F88"/>
<stop offset="0.245" stop-color="#DD4057"/>
<stop offset="0.52" stop-color="#CC2E6E"/>
<stop offset="0.765" stop-color="#F07745"/>
<stop offset="1" stop-color="#C738CA"/>
</linearGradient>
<linearGradient id="paint3_linear_523_6452" x1="-7.08235" y1="49.4159" x2="22.0213" y2="49.4362" gradientUnits="userSpaceOnUse">
<stop stop-color="#AA2F88"/>
<stop offset="0.245" stop-color="#DD4057"/>
<stop offset="0.52" stop-color="#CC2E6E"/>
<stop offset="0.765" stop-color="#F07745"/>
<stop offset="1" stop-color="#C738CA"/>
</linearGradient>
<clipPath id="clip0_523_6452">
<rect width="62" height="65" fill="white" transform="translate(0.5)"/>
</clipPath>
</defs>
</svg>
