<svg width="53" height="70" viewBox="0 0 53 70" fill="none" xmlns="http://www.w3.org/2000/svg">
<g clip-path="url(#clip0_523_6379)">
<path d="M51.6975 25.1028C50.1789 25.0892 48.6558 25.1074 47.1508 25.2484C45.4088 25.4122 43.685 25.7353 41.8791 26.0037C42.0068 25.5897 42.1163 25.1938 42.2576 24.8071C43.5482 21.3401 44.0909 17.7775 43.9221 14.124C43.8537 12.6725 43.1971 12.2358 41.8518 13.0092C39.5579 14.3287 37.3462 15.7756 35.1618 17.2497C34.1996 17.9049 33.4015 18.7557 32.4484 19.5929C32.3481 19.2198 32.2705 18.9787 32.2113 18.7284C31.3174 15.1386 29.8581 11.758 27.6829 8.65044C26.862 7.47657 26.1278 7.48112 25.3024 8.66409C23.1317 11.7717 21.6678 15.1477 20.7877 18.7421C20.7193 19.006 20.628 19.2653 20.5049 19.6612C20.0078 19.1789 19.6293 18.7967 19.2326 18.4327C16.843 16.1987 14.1068 14.3787 11.0696 12.9455C9.76081 12.3313 9.04484 12.7044 9.10413 14.0284C9.20445 16.3443 9.31846 18.6738 9.66961 20.967C9.92498 22.6641 10.5725 24.3202 11.0696 26.0811C10.6136 25.9901 10.2214 25.8672 9.81098 25.8263C6.97446 25.5669 4.1425 25.2803 1.29686 25.1028C0.179587 25.0346 -0.303806 25.7626 0.197829 26.627C3.14379 31.6865 7.11127 35.7177 12.6977 38.111C12.9348 37.4785 13.2084 36.8643 13.5413 36.2819C9.16797 34.4119 5.66565 31.277 2.86561 27.0138C6.17184 27.032 9.19989 27.5143 12.1276 28.4925C12.3374 28.5653 12.5426 28.7473 12.6566 28.9338C13.5732 30.4671 14.654 31.8685 15.8762 33.1516C16.355 32.6602 16.8749 32.1961 17.4313 31.7639C13.2358 27.2322 11.2657 21.7041 11.1973 15.1113C12.6429 16.044 13.9745 16.7538 15.1146 17.6729C16.7199 18.9696 18.2065 20.4073 19.7023 21.8178C19.9622 22.0681 20.1492 22.5003 20.1401 22.837C20.0534 25.2029 20.2951 27.5006 20.8378 29.7437C21.4717 29.4616 22.1421 29.2159 22.8261 29.0157C21.5401 23.2055 22.5479 16.7629 26.5109 10.7206C30.223 16.4489 31.4816 22.564 30.2868 28.5289C30.9982 28.6381 31.6914 28.7882 32.3617 28.9839C32.7357 27.2049 32.8999 25.3758 32.8497 23.5195C32.8223 22.6459 33.0732 21.9998 33.6888 21.3446C35.9644 18.9241 38.6595 16.9813 41.6557 15.2933C41.9931 20.2117 40.4654 25.9173 36.4523 30.772C37.0589 31.1451 37.638 31.5546 38.1761 31.9959C38.9012 31.1314 39.5762 30.2306 40.1872 29.2751C40.4426 28.8747 40.9351 28.4879 41.4049 28.3424C44.1821 27.4733 47.0368 27.0229 50.1607 27.0183C47.7482 30.6719 44.8205 33.511 41.268 35.4402C41.642 36.0044 41.9612 36.6004 42.2439 37.2146C46.6583 34.8578 50.1151 31.2725 52.7783 26.7089C53.321 25.7762 52.8923 25.1074 51.7112 25.0983L51.6975 25.1028Z" fill="url(#paint0_linear_523_6379)"/>
<path d="M26.4263 0.000574414C24.7298 0.0369735 23.3344 1.34734 23.38 2.88065C23.421 4.45491 24.8165 5.71068 26.5084 5.70158C28.1911 5.69248 29.6276 4.38211 29.6231 2.86245C29.6185 1.26544 28.1729 -0.0312748 26.4308 0.000574414H26.4263ZM26.4901 3.69963C26.1572 3.69508 25.5461 3.1673 25.5735 2.9125C25.6145 2.56671 26.0979 2.05712 26.4582 1.99797C26.8002 1.94338 27.238 2.38926 27.6348 2.60766C27.6348 2.74416 27.6393 2.8761 27.6393 3.0126C27.2563 3.25829 26.8686 3.69963 26.4901 3.69508V3.69963Z" fill="url(#paint1_linear_523_6379)"/>
<path d="M17.984 8.34049C16.2739 8.31774 14.8465 9.57351 14.8283 11.1114C14.8101 12.6674 16.1918 13.9778 17.8746 14.0051C19.5665 14.0415 20.9984 12.7675 21.0212 11.2115C21.044 9.6281 19.7033 8.36324 17.984 8.33594V8.34049ZM17.9339 12.0031C17.601 11.9986 16.999 11.4663 17.0264 11.2115C17.0629 10.8566 17.5326 10.3424 17.8974 10.2742C18.2212 10.215 18.659 10.6791 19.0512 10.9066C19.0512 11.0431 19.0557 11.1751 19.0557 11.3116C18.6818 11.5618 18.3033 12.0077 17.9339 11.9986V12.0031Z" fill="url(#paint2_linear_523_6379)"/>
<path d="M35.029 8.3406C33.2961 8.35425 31.9462 9.61002 31.969 11.1888C31.9964 12.7722 33.3827 14.0234 35.0837 14.0052C36.7619 13.9916 38.1984 12.6539 38.1711 11.1388C38.1483 9.58727 36.73 8.3224 35.0336 8.33605L35.029 8.3406ZM35.0655 12.0033C34.7554 12.0124 34.1397 11.4846 34.1625 11.2252C34.1899 10.8749 34.6505 10.3334 35.0016 10.2743C35.3391 10.2197 35.7815 10.6701 36.4837 11.0751C35.8179 11.5437 35.4531 11.9896 35.0655 12.0033Z" fill="url(#paint3_linear_523_6379)"/>
<path d="M29.6358 25.2889C29.4853 26.3354 29.3302 27.3682 29.1889 28.4011C28.6827 28.3556 28.1674 28.3328 27.6521 28.3328C27.4696 28.3328 27.2872 28.3374 27.1094 28.3465C27.1823 26.7767 27.3876 25.207 27.538 23.6419C27.5973 23.0276 28.0032 22.609 28.628 22.7501C29.0247 22.832 29.4762 23.287 29.5993 23.6646C29.7635 24.1651 29.6404 24.7475 29.6404 25.2889H29.6358Z" fill="url(#paint4_linear_523_6379)"/>
<path d="M26.9662 65.7646C26.3414 66.4244 25.3974 66.7065 24.4352 66.9795C21.1107 67.9167 17.7863 68.8495 14.48 69.8322C12.4233 70.4465 10.2389 69.2999 9.86043 67.4617C9.6917 66.6291 9.75554 65.7419 9.83307 64.8865C10.0383 62.7071 10.2845 60.5323 10.5718 58.3665C10.9412 55.5547 12.0585 53.1205 14.9817 51.7328C15.9621 51.2641 17.0247 50.9366 18.0234 50.4952C19.2912 49.9356 20.5498 49.3532 21.7811 48.7253C22.5427 48.3386 23.131 47.7653 23.2358 46.9235C23.2586 46.7325 23.1948 46.464 23.058 46.3275C21.3159 44.6213 20.4996 42.542 20.0983 40.2989C19.7654 38.4562 19.77 36.6272 20.5589 34.8664C21.4208 32.9417 22.8482 31.4994 25.06 30.8579C28.088 29.9798 31.2118 31.0899 32.9265 33.6151C34.062 35.2849 34.4177 37.1094 34.2444 39.0568C34.0848 40.8631 33.6607 42.6012 32.7213 44.1982C32.2881 44.9353 31.6724 45.5768 31.1708 46.282C31.034 46.4731 30.9245 46.7461 30.9565 46.9645C31.0659 47.7607 31.6223 48.3204 32.3473 48.6935C33.5923 49.3304 34.8692 49.9219 36.1507 50.4952C36.8438 50.8046 37.578 51.0275 38.2849 51.3096C41.0895 52.4198 42.8589 54.3217 43.3377 57.0925C43.7253 59.3311 43.9853 61.5924 44.2589 63.8446C44.3683 64.7682 44.3957 65.7009 44.4094 66.6291C44.4504 68.9632 42.1657 70.5193 39.7259 69.8277C36.1871 68.8222 32.6483 67.8303 29.1278 66.7838C28.3981 66.5654 27.7414 66.1377 26.9662 65.7646ZM25.2013 47.6333C24.8 48.9983 23.7648 49.8491 22.529 50.5407C22.1915 50.7318 21.8632 50.9366 21.5029 51.0867C19.9615 51.7237 18.4201 52.3607 16.8651 52.9658C14.7172 53.7984 13.3536 55.1998 12.8839 57.3246C12.2044 60.4049 11.9491 63.5261 11.8031 66.6564C11.753 67.7165 12.7608 68.3399 13.8917 68.0168C17.3758 67.025 20.8554 66.0285 24.3349 65.0321C25.5662 64.6772 26.0815 64.0311 26.0815 62.8664C26.0815 61.4877 26.0724 60.1091 26.0815 58.7305C26.0815 58.5258 26.086 58.3074 26.1727 58.1254C26.3642 57.7204 26.7427 57.5248 27.2216 57.5748C27.7597 57.6294 28.0835 57.9707 28.088 58.503C28.1063 59.9681 28.0926 61.4331 28.1063 62.8982C28.1154 64.0084 28.6307 64.6863 29.7252 65.0003C33.2731 66.024 36.8256 67.0432 40.3826 68.0532C41.4041 68.3444 42.3481 67.7029 42.3892 66.7292C42.3983 66.5563 42.3937 66.3834 42.3755 66.2105C42.0836 63.5215 41.8146 60.8326 41.4817 58.1481C41.1579 55.5592 39.6712 53.7893 36.9761 52.8202C35.2477 52.1969 33.5741 51.4416 31.9187 50.6681C30.5643 50.0311 29.4743 49.1166 29.0001 47.7198C28.991 47.697 28.9408 47.6879 28.8815 47.6561C27.6867 48.0064 26.4645 47.9837 25.2105 47.6333H25.2013ZM32.2242 38.2697C32.2744 37.164 32.0281 36.1176 31.5037 35.1211C30.4275 33.0828 28.202 32.0318 25.9219 32.5914C23.888 33.0873 22.7661 34.4614 22.2326 36.2404C21.6671 38.1286 21.9909 39.9941 22.6065 41.8231C23.0215 43.0516 23.6235 44.1936 24.6678 45.0945C26.1271 46.3457 28.0287 46.3685 29.4835 45.1172C29.903 44.7578 30.277 44.3301 30.5779 43.8751C31.7089 42.1553 32.1741 40.258 32.2242 38.2697Z" fill="black"/>
<path d="M20.3773 63.479C20.4001 64.2615 20.0672 64.6665 19.5017 64.7393C18.9362 64.8075 18.4893 64.5027 18.3616 63.9066C18.0561 62.4962 17.7779 61.0766 17.4769 59.6662C17.4176 59.3795 17.3036 59.1065 17.2261 58.8244C17.0574 58.242 17.3219 57.7507 17.8873 57.5778C18.4255 57.414 19.0183 57.6915 19.1916 58.2739C19.5063 59.3295 19.789 60.3987 20.0398 61.4725C20.204 62.1913 20.2861 62.9284 20.3773 63.4835V63.479Z" fill="black"/>
<path d="M33.6562 63.6493C34.1077 61.843 34.5455 60.0367 35.0243 58.235C35.1612 57.7254 35.7677 57.4479 36.2556 57.5662C36.7983 57.7026 37.1038 58.2077 36.9853 58.7446C36.6159 60.428 36.2465 62.1069 35.8862 63.7904C35.7449 64.441 35.3116 64.8005 34.7097 64.7368C34.1396 64.6776 33.7794 64.259 33.8022 63.6721C33.7566 63.663 33.7064 63.6539 33.6608 63.6402L33.6562 63.6493Z" fill="black"/>
<path d="M44.5692 41.9552C45.2806 41.9461 46.0513 42.6558 46.0467 43.3065C46.0467 43.857 45.5132 44.3439 44.9067 44.3484C44.2135 44.353 43.4246 43.625 43.4337 42.9834C43.4428 42.4011 43.9262 41.9597 44.5646 41.9552H44.5692Z" fill="url(#paint5_linear_523_6379)"/>
<path d="M44.6101 48.4435C44.0127 48.4617 43.4746 47.9885 43.4427 47.4243C43.4062 46.7828 44.1723 46.0366 44.8746 46.0275C45.4902 46.0184 46.0192 46.4688 46.0557 47.033C46.0922 47.6245 45.2759 48.4253 44.6101 48.4435Z" fill="url(#paint6_linear_523_6379)"/>
<path d="M49.0314 46.0274C49.7064 46.0228 50.5363 46.7781 50.5272 47.3878C50.5181 47.9247 49.9663 48.4252 49.3689 48.4343C48.7259 48.4434 47.9141 47.7199 47.8913 47.1239C47.8685 46.5278 48.3884 46.0319 49.0314 46.0274Z" fill="url(#paint7_linear_523_6379)"/>
<path d="M49.3323 41.9552C49.9799 41.9461 50.5363 42.442 50.5226 43.0108C50.5135 43.6023 49.7154 44.3348 49.0633 44.353C48.4294 44.3712 47.8867 43.8753 47.8867 43.2838C47.8867 42.6559 48.6392 41.9643 49.3278 41.9552H49.3323Z" fill="url(#paint8_linear_523_6379)"/>
<path d="M3.99497 41.9552C4.70638 41.9461 5.47707 42.6558 5.47251 43.3065C5.47251 43.857 4.93896 44.3439 4.33244 44.3484C3.63927 44.353 2.85033 43.625 2.85945 42.9834C2.86857 42.4011 3.35197 41.9597 3.99041 41.9552H3.99497Z" fill="url(#paint9_linear_523_6379)"/>
<path d="M4.03588 48.4435C3.43848 48.4617 2.90036 47.9885 2.86844 47.4243C2.83196 46.7828 3.59809 46.0366 4.30038 46.0275C4.91602 46.0184 5.44502 46.4688 5.4815 47.033C5.51799 47.6245 4.70169 48.4253 4.03588 48.4435Z" fill="url(#paint10_linear_523_6379)"/>
<path d="M8.46111 46.0274C9.13604 46.0228 9.96602 46.7781 9.9569 47.3878C9.94778 47.9247 9.39598 48.4252 8.79858 48.4343C8.15557 48.4434 7.34384 47.7199 7.32103 47.1239C7.29823 46.5278 7.81811 46.0319 8.46111 46.0274Z" fill="url(#paint11_linear_523_6379)"/>
<path d="M8.76203 41.9552C9.40959 41.9461 9.96595 42.442 9.95227 43.0108C9.94315 43.6023 9.14509 44.3348 8.49297 44.353C7.85908 44.3712 7.31641 43.8753 7.31641 43.2838C7.31641 42.6559 8.06886 41.9643 8.75747 41.9552H8.76203Z" fill="url(#paint12_linear_523_6379)"/>
</g>
<defs>
<linearGradient id="paint0_linear_523_6379" x1="-28.2154" y1="25.564" x2="80.028" y2="25.8975" gradientUnits="userSpaceOnUse">
<stop stop-color="#AA2F88"/>
<stop offset="0.245" stop-color="#DD4057"/>
<stop offset="0.52" stop-color="#CC2E6E"/>
<stop offset="0.765" stop-color="#F07745"/>
<stop offset="1" stop-color="#C738CA"/>
</linearGradient>
<linearGradient id="paint1_linear_523_6379" x1="20.0554" y1="3.34355" x2="32.8055" y2="3.36817" gradientUnits="userSpaceOnUse">
<stop stop-color="#AA2F88"/>
<stop offset="0.245" stop-color="#DD4057"/>
<stop offset="0.52" stop-color="#CC2E6E"/>
<stop offset="0.765" stop-color="#F07745"/>
<stop offset="1" stop-color="#C738CA"/>
</linearGradient>
<linearGradient id="paint2_linear_523_6379" x1="11.5317" y1="11.6609" x2="24.1781" y2="11.6852" gradientUnits="userSpaceOnUse">
<stop stop-color="#AA2F88"/>
<stop offset="0.245" stop-color="#DD4057"/>
<stop offset="0.52" stop-color="#CC2E6E"/>
<stop offset="0.765" stop-color="#F07745"/>
<stop offset="1" stop-color="#C738CA"/>
</linearGradient>
<linearGradient id="paint3_linear_523_6379" x1="28.6673" y1="11.6606" x2="41.3328" y2="11.6851" gradientUnits="userSpaceOnUse">
<stop stop-color="#AA2F88"/>
<stop offset="0.245" stop-color="#DD4057"/>
<stop offset="0.52" stop-color="#CC2E6E"/>
<stop offset="0.765" stop-color="#F07745"/>
<stop offset="1" stop-color="#C738CA"/>
</linearGradient>
<linearGradient id="paint4_linear_523_6379" x1="25.7386" y1="26.0526" x2="30.9972" y2="26.0568" gradientUnits="userSpaceOnUse">
<stop stop-color="#AA2F88"/>
<stop offset="0.245" stop-color="#DD4057"/>
<stop offset="0.52" stop-color="#CC2E6E"/>
<stop offset="0.765" stop-color="#F07745"/>
<stop offset="1" stop-color="#C738CA"/>
</linearGradient>
<linearGradient id="paint5_linear_523_6379" x1="42.0427" y1="43.3586" x2="47.3786" y2="43.3689" gradientUnits="userSpaceOnUse">
<stop stop-color="#AA2F88"/>
<stop offset="0.245" stop-color="#DD4057"/>
<stop offset="0.52" stop-color="#CC2E6E"/>
<stop offset="0.765" stop-color="#F07745"/>
<stop offset="1" stop-color="#C738CA"/>
</linearGradient>
<linearGradient id="paint6_linear_523_6379" x1="42.0493" y1="47.4445" x2="47.3899" y2="47.4547" gradientUnits="userSpaceOnUse">
<stop stop-color="#AA2F88"/>
<stop offset="0.245" stop-color="#DD4057"/>
<stop offset="0.52" stop-color="#CC2E6E"/>
<stop offset="0.765" stop-color="#F07745"/>
<stop offset="1" stop-color="#C738CA"/>
</linearGradient>
<linearGradient id="paint7_linear_523_6379" x1="46.4872" y1="47.4389" x2="51.8711" y2="47.4493" gradientUnits="userSpaceOnUse">
<stop stop-color="#AA2F88"/>
<stop offset="0.245" stop-color="#DD4057"/>
<stop offset="0.52" stop-color="#CC2E6E"/>
<stop offset="0.765" stop-color="#F07745"/>
<stop offset="1" stop-color="#C738CA"/>
</linearGradient>
<linearGradient id="paint8_linear_523_6379" x1="46.4836" y1="43.3615" x2="51.8664" y2="43.372" gradientUnits="userSpaceOnUse">
<stop stop-color="#AA2F88"/>
<stop offset="0.245" stop-color="#DD4057"/>
<stop offset="0.52" stop-color="#CC2E6E"/>
<stop offset="0.765" stop-color="#F07745"/>
<stop offset="1" stop-color="#C738CA"/>
</linearGradient>
<linearGradient id="paint9_linear_523_6379" x1="1.4685" y1="43.3586" x2="6.80438" y2="43.3689" gradientUnits="userSpaceOnUse">
<stop stop-color="#AA2F88"/>
<stop offset="0.245" stop-color="#DD4057"/>
<stop offset="0.52" stop-color="#CC2E6E"/>
<stop offset="0.765" stop-color="#F07745"/>
<stop offset="1" stop-color="#C738CA"/>
</linearGradient>
<linearGradient id="paint10_linear_523_6379" x1="1.47507" y1="47.4445" x2="6.81572" y2="47.4547" gradientUnits="userSpaceOnUse">
<stop stop-color="#AA2F88"/>
<stop offset="0.245" stop-color="#DD4057"/>
<stop offset="0.52" stop-color="#CC2E6E"/>
<stop offset="0.765" stop-color="#F07745"/>
<stop offset="1" stop-color="#C738CA"/>
</linearGradient>
<linearGradient id="paint11_linear_523_6379" x1="5.91693" y1="47.4389" x2="11.3008" y2="47.4493" gradientUnits="userSpaceOnUse">
<stop stop-color="#AA2F88"/>
<stop offset="0.245" stop-color="#DD4057"/>
<stop offset="0.52" stop-color="#CC2E6E"/>
<stop offset="0.765" stop-color="#F07745"/>
<stop offset="1" stop-color="#C738CA"/>
</linearGradient>
<linearGradient id="paint12_linear_523_6379" x1="5.91332" y1="43.3615" x2="11.2961" y2="43.372" gradientUnits="userSpaceOnUse">
<stop stop-color="#AA2F88"/>
<stop offset="0.245" stop-color="#DD4057"/>
<stop offset="0.52" stop-color="#CC2E6E"/>
<stop offset="0.765" stop-color="#F07745"/>
<stop offset="1" stop-color="#C738CA"/>
</linearGradient>
<clipPath id="clip0_523_6379">
<rect width="53" height="70" fill="white"/>
</clipPath>
</defs>
</svg>
