<svg width="57" height="62" viewBox="0 0 57 62" fill="none" xmlns="http://www.w3.org/2000/svg">
<g clip-path="url(#clip0_523_6335)">
<path d="M28.3642 40.7613C27.7168 41.5231 26.7385 41.8509 25.7366 42.1643C22.2914 43.254 18.8414 44.3292 15.4103 45.4671C13.2742 46.1759 11.0105 44.8548 10.6182 42.7236C10.4433 41.7593 10.5095 40.7324 10.5898 39.7439C10.8025 37.2223 11.0577 34.7054 11.3555 32.1934C11.7383 28.9389 12.8961 26.1231 15.9302 24.5127C16.951 23.9727 18.0474 23.5918 19.0824 23.0807C20.3963 22.4298 21.7053 21.7548 22.9814 21.0316C23.7706 20.5832 24.3802 19.9226 24.4937 18.9439C24.5173 18.7221 24.4511 18.4087 24.3094 18.2544C22.504 16.2824 21.6581 13.8716 21.2375 11.2728C20.8925 9.14172 20.8972 7.02024 21.7148 4.98074C22.6127 2.75319 24.092 1.08495 26.3841 0.342432C29.5268 -0.67491 32.7641 0.612437 34.5458 3.53428C35.7226 5.46771 36.0912 7.58436 35.9116 9.83602C35.7462 11.9286 35.3067 13.9391 34.3332 15.7906C33.8842 16.644 33.2415 17.3865 32.7216 18.2014C32.5798 18.4232 32.4664 18.7414 32.4995 18.9921C32.6129 19.913 33.1895 20.5639 33.9409 20.993C35.2358 21.7307 36.5544 22.4154 37.8871 23.0807C38.6054 23.4375 39.3663 23.6979 40.1036 24.0209C43.01 25.3035 44.8485 27.5069 45.3447 30.718C45.7464 33.312 46.0158 35.9253 46.2993 38.5386C46.4175 39.6089 46.4411 40.689 46.4553 41.7642C46.4978 44.469 44.1301 46.2723 41.597 45.4671C37.9296 44.3051 34.2575 43.1528 30.6044 41.9426C29.8435 41.6918 29.1629 41.1952 28.3595 40.7613H28.3642ZM26.5353 19.7635C26.1194 21.345 25.0419 22.3286 23.7659 23.129C23.4162 23.3459 23.0759 23.587 22.7025 23.7606C21.1051 24.4983 19.503 25.236 17.8915 25.9351C15.6608 26.8994 14.2478 28.5243 13.761 30.9832C13.0568 34.5512 12.7874 38.1625 12.6409 41.7883C12.5889 43.0129 13.6334 43.7362 14.8054 43.3649C18.4161 42.2174 22.0314 41.065 25.6374 39.9079C26.9134 39.498 27.4474 38.7507 27.4474 37.4007C27.4474 35.8048 27.438 34.2088 27.4474 32.6081C27.4474 32.3718 27.4521 32.1163 27.5419 31.909C27.7404 31.4413 28.1327 31.2147 28.6289 31.2725C29.1866 31.3352 29.5221 31.7306 29.5268 32.3477C29.5457 34.0449 29.5316 35.7421 29.5505 37.4393C29.5599 38.7266 30.094 39.5077 31.2329 39.8741C34.9144 41.0602 38.6007 42.2415 42.287 43.4083C43.3456 43.741 44.3239 43.0033 44.3664 41.8751C44.3759 41.6774 44.3711 41.4749 44.3522 41.2772C44.0498 38.1673 43.7709 35.0478 43.4259 31.9427C43.0904 28.9437 41.5497 26.8994 38.7519 25.776C36.9608 25.0576 35.2216 24.1801 33.5061 23.2833C32.1025 22.5456 30.9683 21.4848 30.4768 19.8696C30.4673 19.8407 30.4153 19.831 30.3539 19.7973C29.1157 20.2023 27.8491 20.1782 26.5447 19.7684L26.5353 19.7635ZM33.818 8.92957C33.87 7.64704 33.6148 6.43684 33.0713 5.2845C31.956 2.92677 29.645 1.70692 27.2773 2.35783C25.1695 2.93641 24.0022 4.52269 23.4492 6.58149C22.8585 8.76564 23.1988 10.9257 23.8368 13.0472C24.2668 14.4695 24.8907 15.7954 25.9776 16.8321C27.4899 18.2833 29.4654 18.3026 30.973 16.8562C31.4078 16.4367 31.8 15.9401 32.1072 15.4193C33.284 13.4281 33.7613 11.2343 33.818 8.92957Z" fill="black"/>
<path d="M36.6914 49.8408C36.4457 49.0404 36.2094 48.3075 36.0015 47.565C35.7793 46.7694 36.0298 46.1571 36.6158 45.9835C37.3058 45.781 37.8068 46.133 38.0667 46.9864C38.2605 47.6325 38.4873 48.2689 38.6764 48.915C38.7898 49.3056 38.993 49.3586 39.3758 49.2815C42.0034 48.7655 44.6264 48.2496 47.3296 48.3605C50.5527 48.4907 53.4072 51.0461 53.7191 54.1223C54.0783 57.6806 51.9942 60.8724 48.7238 61.7162C48.0669 61.8849 47.3769 61.9717 46.7011 61.9765C39.13 61.9958 31.559 61.9862 23.9927 61.9862C22.901 61.9862 22.4757 61.5763 22.5466 60.4674C22.764 56.967 24.4842 54.4453 27.4569 52.7722C29.3567 51.7019 31.474 51.2535 33.5345 50.6604C34.5648 50.3663 35.6045 50.1204 36.7009 49.8408H36.6914ZM24.7678 59.7779C25.0797 59.7779 25.2924 59.7779 25.5051 59.7779C31.1951 59.7779 36.8899 59.7779 42.58 59.7779C44.1443 59.7779 45.7086 59.8068 47.2729 59.7634C49.5603 59.6959 51.5357 57.6227 51.6303 55.2505C51.7295 52.8542 50.0471 50.8002 47.6463 50.6315C46.2001 50.5302 44.7209 50.6218 43.2842 50.8147C39.4089 51.3354 35.6234 52.2804 31.8709 53.3797C30.3114 53.8378 28.7613 54.3248 27.4427 55.3469C26.0155 56.4511 25.0703 57.8493 24.7678 59.7779Z" fill="black"/>
<path d="M20.3029 49.8296C21.3615 50.1044 22.3965 50.3744 23.4268 50.6444C23.5402 50.6733 23.6536 50.7023 23.7671 50.736C24.4618 50.9626 24.7926 51.4785 24.6319 52.0668C24.4523 52.7321 23.8994 52.9877 23.1479 52.8237C19.9815 52.1294 16.8246 51.3966 13.644 50.7987C12.023 50.495 10.3595 50.2442 8.70536 50.7264C6.46525 51.3821 5.09472 53.3493 5.383 55.4997C5.71382 57.949 7.59949 59.7475 9.91994 59.7667C12.8926 59.7909 15.8699 59.7716 18.8426 59.7716C19.0363 59.7716 19.2348 59.7619 19.4286 59.786C20.043 59.8632 20.473 60.3212 20.4683 60.8853C20.4683 61.4639 19.9863 61.9557 19.3577 61.975C18.5354 61.9991 17.7131 61.9846 16.8908 61.9846C14.5609 61.9846 12.2357 62.0184 9.90576 61.975C5.17979 61.8882 1.94249 56.9172 3.72891 52.467C4.62212 50.2394 6.37073 49.0051 8.6203 48.5133C10.4492 48.1131 12.2829 48.3831 14.1024 48.6483C15.317 48.8267 16.5221 49.0678 17.732 49.304C18.0581 49.3667 18.2046 49.251 18.2944 48.9617C18.5165 48.2626 18.7528 47.5683 18.9749 46.8692C19.2254 46.0977 19.7169 45.7795 20.3785 45.9772C20.9315 46.1411 21.215 46.739 21.0213 47.4477C20.8086 48.2288 20.5534 49.0003 20.3029 49.8296Z" fill="black"/>
<path d="M44.1226 12.4345C44.7748 12.4249 45.4884 13.1529 45.4837 13.8231C45.4837 14.3872 44.9922 14.8887 44.4345 14.8935C43.7965 14.8983 43.0734 14.151 43.0781 13.4904C43.0829 12.8926 43.5318 12.4393 44.1179 12.4297L44.1226 12.4345Z" fill="url(#paint0_linear_523_6335)"/>
<path d="M44.1529 19.1024C43.6046 19.1217 43.1037 18.6347 43.0753 18.0561C43.0423 17.4004 43.7464 16.6338 44.3939 16.6193C44.961 16.6096 45.4478 17.0725 45.4809 17.6511C45.5139 18.2586 44.7625 19.0783 44.1529 19.1024Z" fill="url(#paint1_linear_523_6335)"/>
<path d="M48.2294 16.6192C48.8532 16.6143 49.6141 17.3906 49.6047 18.0174C49.5952 18.5719 49.0848 19.083 48.5413 19.0926C47.9458 19.1022 47.1991 18.3597 47.1802 17.7474C47.1613 17.1351 47.6387 16.624 48.2294 16.6192Z" fill="url(#paint2_linear_523_6335)"/>
<path d="M48.5077 12.4337C49.1032 12.4241 49.6136 12.9303 49.6041 13.5186C49.5947 14.1261 48.8622 14.8782 48.262 14.8975C47.6807 14.912 47.175 14.4057 47.1797 13.7982C47.1797 13.157 47.8744 12.4434 48.5077 12.4337Z" fill="url(#paint3_linear_523_6335)"/>
<path d="M10.2413 11.8232C10.884 11.8232 11.5598 12.503 11.5693 13.1539C11.5787 13.7711 11.1108 14.2484 10.5012 14.2388C9.89153 14.2291 9.16373 13.5059 9.14483 12.8936C9.13065 12.3053 9.62215 11.8184 10.2365 11.8184L10.2413 11.8232Z" fill="url(#paint4_linear_523_6335)"/>
<path d="M7.45732 8.99718C7.44787 9.60469 7.02253 10.0338 6.41761 10.0386C5.7796 10.0435 5.0329 9.29129 5.04707 8.65967C5.06125 8.08591 5.53385 7.62787 6.11514 7.62305C6.78623 7.62305 7.46677 8.31252 7.45732 8.99718Z" fill="url(#paint5_linear_523_6335)"/>
<path d="M10.5371 7.62695C11.1373 7.6366 11.5673 8.07536 11.572 8.67805C11.5768 9.35788 10.8773 10.057 10.2062 10.0425C9.62967 10.0329 9.15234 9.55556 9.15234 8.98662C9.15234 8.35982 9.90377 7.62213 10.5418 7.63177L10.5371 7.62695Z" fill="url(#paint6_linear_523_6335)"/>
<path d="M6.40687 11.8164C7.0307 11.8164 7.47022 12.2648 7.46077 12.9061C7.45131 13.557 6.76605 14.2416 6.12804 14.2416C5.54675 14.2416 5.07415 13.7836 5.05524 13.205C5.03161 12.5734 5.76414 11.8212 6.4116 11.8164H6.40687Z" fill="url(#paint7_linear_523_6335)"/>
<path d="M52.2068 36.5859C51.5925 36.5955 51.1199 36.1423 51.1057 35.53C51.0915 34.8887 51.7768 34.1992 52.4242 34.1992C53.0292 34.1992 53.4639 34.6187 53.4829 35.2262C53.5065 35.8916 52.8637 36.5762 52.2068 36.5907V36.5859Z" fill="url(#paint8_linear_523_6335)"/>
<path d="M55.6634 32.9982C55.0726 32.9982 54.6189 32.545 54.6095 31.9568C54.6 31.33 55.3136 30.6115 55.9422 30.6212C56.5093 30.6308 56.9914 31.113 57.0008 31.6771C57.0055 32.3087 56.3061 32.9982 55.6634 32.9934V32.9982Z" fill="url(#paint9_linear_523_6335)"/>
<path d="M55.9494 36.5862C55.302 36.5959 54.6025 35.9257 54.5978 35.2844C54.5884 34.6673 55.0373 34.2237 55.6801 34.2092C56.3322 34.1947 56.9986 34.8698 56.9939 35.5351C56.9891 36.1137 56.526 36.5766 55.9494 36.5862Z" fill="url(#paint10_linear_523_6335)"/>
<path d="M1.33759 37.6847C0.690135 37.6895 0.00959407 37.0097 0.000142117 36.3491C-0.00930984 35.7705 0.453836 35.3125 1.05403 35.3028C1.72512 35.2932 2.38203 35.9441 2.38203 36.6288C2.38203 37.2218 1.92834 37.6799 1.33759 37.6847Z" fill="url(#paint11_linear_523_6335)"/>
<path d="M2.38111 39.9558C2.37165 40.5826 1.70529 41.2624 1.09091 41.2721C0.500167 41.2817 -0.000786558 40.7754 0.00393942 40.1824C0.00866539 39.5315 0.70811 38.8613 1.36029 38.8854C1.95104 38.9047 2.39056 39.3627 2.38111 39.9558Z" fill="url(#paint12_linear_523_6335)"/>
<path d="M4.56571 38.8867C5.22262 38.8867 5.89843 39.5617 5.88898 40.2126C5.87953 40.7864 5.39748 41.2734 4.83509 41.2734C4.19708 41.2734 3.50236 40.5694 3.51181 39.9282C3.52127 39.3255 3.96551 38.8867 4.56098 38.8867H4.56571Z" fill="url(#paint13_linear_523_6335)"/>
<path d="M52.4114 32.9982C51.7545 32.9982 51.1307 32.3811 51.1212 31.7205C51.1118 31.0793 51.5513 30.6309 52.1799 30.6309C52.8131 30.6309 53.4653 31.2866 53.4795 31.923C53.489 32.5595 53.0589 32.9982 52.4162 32.9982H52.4114Z" fill="url(#paint14_linear_523_6335)"/>
<path d="M4.58856 37.6808C3.97891 37.6856 3.50631 37.2131 3.51576 36.6008C3.52522 35.9692 4.18213 35.3135 4.81068 35.3086C5.40143 35.3038 5.86457 35.7377 5.8882 36.326C5.91183 36.9672 5.23602 37.676 4.58856 37.6808Z" fill="url(#paint15_linear_523_6335)"/>
<path d="M21.5303 38.1184C21.554 39.0248 21.209 39.4925 20.6229 39.5745C20.0369 39.6565 19.5738 39.2997 19.4367 38.6102C19.1201 36.9757 18.8318 35.3364 18.5199 33.7019C18.4584 33.3692 18.3403 33.051 18.2552 32.7231C18.0804 32.0481 18.3545 31.484 18.9452 31.2815C19.5029 31.0934 20.1173 31.4165 20.2968 32.0867C20.6229 33.3113 20.9159 34.5456 21.1759 35.7896C21.346 36.6237 21.4311 37.4771 21.5256 38.1184H21.5303Z" fill="black"/>
<path d="M35.3094 38.3124C35.7773 36.2246 36.231 34.1273 36.7272 32.0444C36.869 31.4513 37.4975 31.1331 38.0032 31.2729C38.5656 31.4272 38.8823 32.0154 38.7594 32.6422C38.3766 34.5901 37.9938 36.538 37.6157 38.4859C37.4692 39.2381 37.0202 39.6576 36.3964 39.5852C35.8056 39.5177 35.4323 39.0308 35.4512 38.3509C35.4039 38.3413 35.3519 38.3268 35.3047 38.3172L35.3094 38.3124Z" fill="black"/>
</g>
<defs>
<linearGradient id="paint0_linear_523_6335" x1="41.7977" y1="13.8745" x2="46.7097" y2="13.883" gradientUnits="userSpaceOnUse">
<stop stop-color="#AA2F88"/>
<stop offset="0.245" stop-color="#DD4057"/>
<stop offset="0.52" stop-color="#CC2E6E"/>
<stop offset="0.765" stop-color="#F07745"/>
<stop offset="1" stop-color="#C738CA"/>
</linearGradient>
<linearGradient id="paint1_linear_523_6335" x1="41.7927" y1="18.0757" x2="46.7091" y2="18.0841" gradientUnits="userSpaceOnUse">
<stop stop-color="#AA2F88"/>
<stop offset="0.245" stop-color="#DD4057"/>
<stop offset="0.52" stop-color="#CC2E6E"/>
<stop offset="0.765" stop-color="#F07745"/>
<stop offset="1" stop-color="#C738CA"/>
</linearGradient>
<linearGradient id="paint2_linear_523_6335" x1="45.8889" y1="18.0697" x2="50.8407" y2="18.0782" gradientUnits="userSpaceOnUse">
<stop stop-color="#AA2F88"/>
<stop offset="0.245" stop-color="#DD4057"/>
<stop offset="0.52" stop-color="#CC2E6E"/>
<stop offset="0.765" stop-color="#F07745"/>
<stop offset="1" stop-color="#C738CA"/>
</linearGradient>
<linearGradient id="paint3_linear_523_6335" x1="45.8892" y1="13.8787" x2="50.84" y2="13.8873" gradientUnits="userSpaceOnUse">
<stop stop-color="#AA2F88"/>
<stop offset="0.245" stop-color="#DD4057"/>
<stop offset="0.52" stop-color="#CC2E6E"/>
<stop offset="0.765" stop-color="#F07745"/>
<stop offset="1" stop-color="#C738CA"/>
</linearGradient>
<linearGradient id="paint4_linear_523_6335" x1="7.85388" y1="13.2378" x2="12.8053" y2="13.2466" gradientUnits="userSpaceOnUse">
<stop stop-color="#AA2F88"/>
<stop offset="0.245" stop-color="#DD4057"/>
<stop offset="0.52" stop-color="#CC2E6E"/>
<stop offset="0.765" stop-color="#F07745"/>
<stop offset="1" stop-color="#C738CA"/>
</linearGradient>
<linearGradient id="paint5_linear_523_6335" x1="3.76384" y1="9.03961" x2="8.686" y2="9.04827" gradientUnits="userSpaceOnUse">
<stop stop-color="#AA2F88"/>
<stop offset="0.245" stop-color="#DD4057"/>
<stop offset="0.52" stop-color="#CC2E6E"/>
<stop offset="0.765" stop-color="#F07745"/>
<stop offset="1" stop-color="#C738CA"/>
</linearGradient>
<linearGradient id="paint6_linear_523_6335" x1="7.86443" y1="9.04363" x2="12.8053" y2="9.05236" gradientUnits="userSpaceOnUse">
<stop stop-color="#AA2F88"/>
<stop offset="0.245" stop-color="#DD4057"/>
<stop offset="0.52" stop-color="#CC2E6E"/>
<stop offset="0.765" stop-color="#F07745"/>
<stop offset="1" stop-color="#C738CA"/>
</linearGradient>
<linearGradient id="paint7_linear_523_6335" x1="3.77395" y1="13.2386" x2="8.6873" y2="13.2472" gradientUnits="userSpaceOnUse">
<stop stop-color="#AA2F88"/>
<stop offset="0.245" stop-color="#DD4057"/>
<stop offset="0.52" stop-color="#CC2E6E"/>
<stop offset="0.765" stop-color="#F07745"/>
<stop offset="1" stop-color="#C738CA"/>
</linearGradient>
<linearGradient id="paint8_linear_523_6335" x1="49.8398" y1="35.6016" x2="54.6955" y2="35.6101" gradientUnits="userSpaceOnUse">
<stop stop-color="#AA2F88"/>
<stop offset="0.245" stop-color="#DD4057"/>
<stop offset="0.52" stop-color="#CC2E6E"/>
<stop offset="0.765" stop-color="#F07745"/>
<stop offset="1" stop-color="#C738CA"/>
</linearGradient>
<linearGradient id="paint9_linear_523_6335" x1="53.3365" y1="32.0151" x2="58.2197" y2="32.0237" gradientUnits="userSpaceOnUse">
<stop stop-color="#AA2F88"/>
<stop offset="0.245" stop-color="#DD4057"/>
<stop offset="0.52" stop-color="#CC2E6E"/>
<stop offset="0.765" stop-color="#F07745"/>
<stop offset="1" stop-color="#C738CA"/>
</linearGradient>
<linearGradient id="paint10_linear_523_6335" x1="53.3222" y1="35.6031" x2="58.2152" y2="35.6118" gradientUnits="userSpaceOnUse">
<stop stop-color="#AA2F88"/>
<stop offset="0.245" stop-color="#DD4057"/>
<stop offset="0.52" stop-color="#CC2E6E"/>
<stop offset="0.765" stop-color="#F07745"/>
<stop offset="1" stop-color="#C738CA"/>
</linearGradient>
<linearGradient id="paint11_linear_523_6335" x1="-1.26786" y1="36.6996" x2="3.59609" y2="36.7081" gradientUnits="userSpaceOnUse">
<stop stop-color="#AA2F88"/>
<stop offset="0.245" stop-color="#DD4057"/>
<stop offset="0.52" stop-color="#CC2E6E"/>
<stop offset="0.765" stop-color="#F07745"/>
<stop offset="1" stop-color="#C738CA"/>
</linearGradient>
<linearGradient id="paint12_linear_523_6335" x1="-1.26146" y1="40.2848" x2="3.59292" y2="40.2933" gradientUnits="userSpaceOnUse">
<stop stop-color="#AA2F88"/>
<stop offset="0.245" stop-color="#DD4057"/>
<stop offset="0.52" stop-color="#CC2E6E"/>
<stop offset="0.765" stop-color="#F07745"/>
<stop offset="1" stop-color="#C738CA"/>
</linearGradient>
<linearGradient id="paint13_linear_523_6335" x1="2.24635" y1="40.2863" x2="7.10075" y2="40.2948" gradientUnits="userSpaceOnUse">
<stop stop-color="#AA2F88"/>
<stop offset="0.245" stop-color="#DD4057"/>
<stop offset="0.52" stop-color="#CC2E6E"/>
<stop offset="0.765" stop-color="#F07745"/>
<stop offset="1" stop-color="#C738CA"/>
</linearGradient>
<linearGradient id="paint14_linear_523_6335" x1="49.8657" y1="32.0191" x2="54.6818" y2="32.0276" gradientUnits="userSpaceOnUse">
<stop stop-color="#AA2F88"/>
<stop offset="0.245" stop-color="#DD4057"/>
<stop offset="0.52" stop-color="#CC2E6E"/>
<stop offset="0.765" stop-color="#F07745"/>
<stop offset="1" stop-color="#C738CA"/>
</linearGradient>
<linearGradient id="paint15_linear_523_6335" x1="2.25248" y1="36.6997" x2="7.09835" y2="36.7083" gradientUnits="userSpaceOnUse">
<stop stop-color="#AA2F88"/>
<stop offset="0.245" stop-color="#DD4057"/>
<stop offset="0.52" stop-color="#CC2E6E"/>
<stop offset="0.765" stop-color="#F07745"/>
<stop offset="1" stop-color="#C738CA"/>
</linearGradient>
<clipPath id="clip0_523_6335">
<rect width="57" height="62" fill="white"/>
</clipPath>
</defs>
</svg>
