<svg width="75" height="75" viewBox="0 0 75 75" fill="none" xmlns="http://www.w3.org/2000/svg">
<path fill-rule="evenodd" clip-rule="evenodd" d="M36.8788 0C57.2461 0 73.7577 16.5115 73.7577 36.8788C73.7577 57.2461 57.2461 73.7577 36.8788 73.7577C16.5115 73.7577 0 57.2461 0 36.8788C0 16.5115 16.5115 0 36.8788 0Z" fill="#E02435"/>
<path fill-rule="evenodd" clip-rule="evenodd" d="M19.2917 24.2678C19.5744 20.339 27.2148 19.5621 28.1341 24.2678V38.9717C28.1341 57.8025 -1.87941 49.5005 10.2879 39.8371C13.136 43.7871 18.6014 43.5255 19.1841 39.6255L19.2917 24.2678ZM53.3283 27.2236C59.8167 27.2236 65.0725 32.3505 65.0725 38.6755C65.0725 45.0025 59.8167 50.1275 53.3283 50.1275C46.8437 50.1275 41.5821 45.0025 41.5821 38.6755C41.5821 32.3505 46.8437 27.2236 53.3283 27.2236ZM53.3283 33.8082C55.8744 33.8082 57.936 35.989 57.936 38.6755C57.936 41.364 55.8744 43.543 53.3283 43.543C50.784 43.543 48.7225 41.364 48.7225 38.6755C48.7225 35.989 50.786 33.8082 53.3283 33.8082ZM34.1898 17.6602H35.8494C37.7629 17.6602 39.3283 19.2275 39.3283 21.139V21.9967C39.3283 23.9082 37.7591 25.4755 35.8494 25.4755H34.1898C32.2744 25.4755 30.7071 23.9102 30.7071 21.9967V21.139C30.7071 19.2275 32.2744 17.6602 34.1898 17.6602ZM34.2514 27.7505H35.786C37.7321 27.7505 39.3283 29.3448 39.3283 31.289V46.1236C39.3283 48.0698 37.7321 49.6659 35.786 49.6659H34.2514C32.3033 49.6659 30.7091 48.0698 30.7091 46.1236V31.289C30.7071 29.3448 32.3014 27.7505 34.2514 27.7505Z" fill="white"/>
</svg>
