<svg width="77" height="55" viewBox="0 0 77 55" fill="none" xmlns="http://www.w3.org/2000/svg">
<path d="M43.208 23.3803C42.3072 24.0372 41.1231 24.1382 40.2052 23.7099C40.2052 23.7099 39.9562 23.6113 39.7218 23.3491C39.5216 23.1013 34.4485 17.4619 34.4485 17.4619L34.4314 17.445C36.0012 17.7241 37.7199 16.9855 38.6037 15.6358C39.4874 14.3534 39.4557 12.5274 38.6207 11.245C37.6198 9.84721 35.6667 9.38768 34.031 9.60181C31.1942 9.99637 29.1582 12.4793 28.5234 15.0776C27.8716 18.0369 28.3403 20.8325 29.3583 23.4646C29.5903 24.0251 29.9076 24.6001 30.2934 25.0933C27.3052 23.811 24.6685 21.4436 23.2843 18.2678C21.7487 14.8467 21.7829 10.5233 23.6017 7.05156C25.0372 4.3714 27.5737 1.88852 30.7108 0.834743C33.9969 -0.49812 38.4206 -0.219035 41.626 1.55892C45.5126 3.46679 48.452 8.22083 48.4666 12.4624C48.5985 16.8508 46.6283 20.8325 43.208 23.3803Z" fill="#D7B46D"/>
<path d="M32.2957 25.0441C30.8456 23.4971 29.6762 21.493 30.5599 19.4047C31.3436 17.8096 32.0443 16.1808 32.3787 14.3379C32.513 16.2626 33.697 17.9732 34.2634 19.8137C34.4807 20.7015 34.4978 21.6229 34.1462 22.5444C33.763 23.5476 33.1453 24.4017 32.4105 25.1764L32.2957 25.0441Z" fill="#D7B46D"/>
<path d="M13.9879 42.42H10.1232C9.26632 41.0968 8.49485 39.9516 7.79907 38.9892C7.10818 38.0269 6.35869 37.0332 5.55061 36.0083H4.08337V40.4977C4.08337 40.7287 4.11999 40.9332 4.19323 41.1112C4.26647 41.2844 4.42516 41.4216 4.66929 41.513C4.79136 41.5611 5.00131 41.6044 5.30403 41.6429C5.6092 41.6838 5.8631 41.7079 6.0755 41.7151V42.4224H0.00390625V41.7151C0.165034 41.7007 0.401843 41.679 0.709451 41.6429C1.01706 41.6117 1.2319 41.5683 1.35152 41.513C1.55171 41.4288 1.70063 41.3013 1.79096 41.1353C1.88373 40.9669 1.93012 40.7576 1.93012 40.4977V30.2655C1.93012 30.0297 1.89594 29.8276 1.82514 29.6472C1.75923 29.4667 1.60054 29.3296 1.35152 29.2382C1.18307 29.178 0.96091 29.1227 0.692363 29.0746C0.423817 29.024 0.194332 28.9928 0.00634997 28.9783V28.271H6.63456C7.24245 28.271 7.81128 28.3335 8.34349 28.4562C8.8757 28.5789 9.35909 28.7762 9.7912 29.0481C10.2087 29.3151 10.5456 29.6616 10.7921 30.0898C11.0412 30.5181 11.1681 31.0378 11.1681 31.6416C11.1681 32.1854 11.0827 32.669 10.9118 33.0876C10.7433 33.5062 10.4943 33.8671 10.1647 34.1726C9.862 34.4589 9.49581 34.7067 9.07101 34.9137C8.64622 35.1254 8.17748 35.301 7.6648 35.4478C8.37279 36.374 8.95871 37.1511 9.42989 37.7839C9.89863 38.4142 10.4723 39.1817 11.1559 40.0839C11.4537 40.4857 11.7199 40.7792 11.9615 40.9693C12.1984 41.1569 12.4376 41.3133 12.672 41.4312C12.8478 41.5154 13.065 41.5852 13.3311 41.6309C13.5948 41.6742 13.8121 41.7031 13.9879 41.7103V42.42ZM8.66575 31.8678C8.66575 31.0113 8.41673 30.3328 7.91626 29.83C7.41823 29.3296 6.71024 29.0794 5.80207 29.0794H4.08337V35.1518H5.40902C6.33672 35.1518 7.1155 34.8607 7.73316 34.2713C8.35326 33.6794 8.66575 32.8807 8.66575 31.8678ZM23.1428 40.1056C22.7254 40.8923 22.1663 41.5154 21.4656 41.9822C20.765 42.4489 19.9569 42.6799 19.0463 42.6799C18.2407 42.6799 17.54 42.5403 16.937 42.2612C16.3315 41.9822 15.8335 41.6044 15.4453 41.1257C15.0547 40.6493 14.7618 40.0887 14.5689 39.4512C14.3785 38.8112 14.2832 38.1375 14.2832 37.4254C14.2832 36.7878 14.3858 36.1623 14.5909 35.5464C14.7984 34.9305 15.0987 34.3795 15.499 33.8863C15.8823 33.4172 16.3584 33.0347 16.9297 32.7459C17.4985 32.4572 18.1381 32.3105 18.8461 32.3105C19.5761 32.3105 20.1986 32.4236 20.7186 32.6497C21.241 32.8735 21.661 33.1838 21.9832 33.576C22.2933 33.9513 22.5252 34.3892 22.6765 34.8944C22.8279 35.402 22.9036 35.9482 22.9036 36.5376V37.1968H16.2973C16.2973 37.8392 16.3584 38.4263 16.4829 38.9507C16.6074 39.4776 16.8051 39.9372 17.0761 40.3413C17.3398 40.7263 17.6816 41.0294 18.1064 41.2532C18.5312 41.4745 19.039 41.5876 19.6273 41.5876C20.2279 41.5876 20.7455 41.448 21.18 41.1714C21.6121 40.8971 22.032 40.3991 22.4373 39.6797L23.1428 40.1056ZM20.909 36.3572C20.909 35.9819 20.8773 35.5849 20.8114 35.1591C20.7455 34.7332 20.6454 34.3795 20.5038 34.0932C20.3475 33.7853 20.1351 33.5375 19.8641 33.3426C19.5956 33.1501 19.2465 33.0539 18.8217 33.0539C18.1137 33.0539 17.5253 33.3426 17.0566 33.9248C16.5879 34.5071 16.334 35.3154 16.2949 36.3548H20.909V36.3572ZM28.7823 42.42H24.0828V41.7849C24.2341 41.7728 24.3928 41.756 24.5637 41.7392C24.7346 41.7247 24.8737 41.6983 24.9836 41.667C25.1667 41.6117 25.3034 41.5082 25.3937 41.3663C25.4841 41.2219 25.5329 41.0342 25.5305 40.8033L25.3767 30.304C25.3742 30.1861 25.323 29.842 25.2595 29.6063C25.2302 29.498 25.1984 29.4138 25.1692 29.3801C25.1374 29.344 25.1276 29.3079 25.0837 29.2718C24.9153 29.1227 25.1252 29.3296 24.9665 29.19C24.8615 29.0986 25.008 29.1564 24.698 29.0938C24.3879 29.0313 23.8704 29.1708 23.6799 29.1588L23.6628 28.4683L27.1662 28.2806L27.3322 28.4226L27.3468 40.6926C27.3468 40.9163 27.3883 41.0992 27.4738 41.246C27.5592 41.3903 27.6935 41.5034 27.8839 41.578C28.028 41.6429 28.1671 41.691 28.3063 41.7223C28.4479 41.756 28.6065 41.7777 28.7799 41.7921V42.42H28.7823ZM34.8197 42.42H30.0347V41.768C30.1885 41.756 30.3448 41.7416 30.5108 41.7271C30.6768 41.7151 30.816 41.6862 30.9356 41.6453C31.1236 41.5876 31.2652 41.4841 31.353 41.335C31.4409 41.1858 31.4898 40.9933 31.4898 40.7576V34.7356C31.4898 34.5239 31.4385 34.3314 31.3408 34.1558C31.2456 33.9802 31.1089 33.8358 30.9331 33.7179C30.8062 33.6361 30.6255 33.5688 30.3838 33.5158C30.1421 33.4581 29.9249 33.4244 29.7222 33.41V32.7676L33.2158 32.5487L33.3574 32.6882V40.6397C33.3574 40.8682 33.4013 41.0607 33.4916 41.2123C33.582 41.3614 33.7236 41.4745 33.9213 41.5467C34.0678 41.6068 34.2118 41.655 34.3534 41.691C34.495 41.7247 34.6464 41.7512 34.8222 41.7656V42.42H34.8197ZM33.5576 28.7089C33.5576 29.0842 33.4331 29.4114 33.1816 29.6905C32.9301 29.9696 32.6225 30.1115 32.2539 30.1115C31.9145 30.1115 31.6167 29.9768 31.3677 29.7097C31.1162 29.4427 30.9893 29.1347 30.9893 28.7955C30.9893 28.4322 31.1162 28.117 31.3677 27.8476C31.6167 27.5781 31.9145 27.4434 32.2539 27.4434C32.6372 27.4434 32.9497 27.5685 33.1914 27.8211C33.4331 28.0761 33.5576 28.3696 33.5576 28.7089ZM45.4908 42.2396C45.1734 42.3527 44.8975 42.4441 44.6583 42.5163C44.4166 42.5836 44.1481 42.6221 43.8429 42.6221C43.3131 42.6221 42.8957 42.4994 42.5832 42.2588C42.2682 42.0134 42.068 41.6598 41.9826 41.1978H41.9216C41.4821 41.6742 41.0134 42.0423 40.508 42.2949C40.0076 42.5451 39.4021 42.6726 38.6941 42.6726C37.9446 42.6726 37.3294 42.4465 36.846 41.9942C36.3627 41.5419 36.121 40.95 36.121 40.221C36.121 39.8409 36.1771 39.5041 36.2845 39.2034C36.3944 38.9026 36.5531 38.6356 36.7704 38.3926C36.9388 38.1953 37.161 38.0173 37.4368 37.8609C37.7127 37.7045 37.9764 37.5794 38.2181 37.4855C38.5232 37.3725 39.1384 37.1632 40.0637 36.8552C40.9914 36.5497 41.6164 36.3115 41.9411 36.1358V35.1494C41.9411 35.0652 41.924 34.8968 41.8849 34.6538C41.8483 34.4084 41.7678 34.1726 41.6481 33.9561C41.5139 33.7083 41.3234 33.4942 41.0744 33.3137C40.8303 33.1309 40.4812 33.0395 40.0271 33.0395C39.717 33.0395 39.429 33.09 39.1629 33.1958C38.8968 33.2969 38.7063 33.4076 38.6014 33.5182C38.6014 33.6506 38.6331 33.8454 38.699 34.1077C38.7649 34.3651 38.7967 34.6057 38.7967 34.8246C38.7967 35.0556 38.6892 35.2673 38.4793 35.4622C38.2645 35.6571 37.9715 35.7509 37.5906 35.7509C37.2562 35.7509 37.0072 35.633 36.8485 35.3972C36.6898 35.1615 36.6092 34.8968 36.6092 34.6033C36.6092 34.2977 36.7191 34.0042 36.9364 33.7251C37.1585 33.4461 37.4393 33.1983 37.7933 32.9793C38.096 32.7917 38.4622 32.6353 38.8943 32.5029C39.3264 32.373 39.7463 32.3081 40.1589 32.3081C40.7253 32.3081 41.2185 32.349 41.6457 32.4236C42.0656 32.4981 42.4464 32.6641 42.7907 32.9168C43.1349 33.1622 43.3961 33.4942 43.5743 33.9176C43.7526 34.341 43.8429 34.8848 43.8429 35.5488C43.8429 36.5015 43.8331 37.3436 43.8112 38.0774C43.7916 38.8136 43.7819 39.6148 43.7819 40.4881C43.7819 40.7455 43.8258 40.95 43.921 41.104C44.0113 41.258 44.1529 41.3855 44.3385 41.4962C44.4435 41.5539 44.6021 41.5876 44.8194 41.5948C45.0416 41.602 45.2662 41.6044 45.4932 41.6044V42.2396H45.4908ZM41.9631 36.9731C41.3894 37.1391 40.8864 37.3027 40.4543 37.4639C40.0222 37.6251 39.6218 37.82 39.2532 38.063C38.9138 38.2891 38.6502 38.5562 38.4524 38.8665C38.2596 39.1721 38.1595 39.5402 38.1595 39.966C38.1595 40.517 38.3084 40.926 38.6014 41.1834C38.8943 41.4432 39.2678 41.5732 39.717 41.5732C40.198 41.5732 40.6203 41.4577 40.9841 41.2291C41.3479 41.0006 41.6555 40.7287 41.902 40.4159L41.9631 36.9731ZM57.4997 42.42H52.6121V41.7632C52.7684 41.7488 52.9393 41.7368 53.1224 41.7223C53.3079 41.7079 53.4593 41.6814 53.5838 41.6405C53.7693 41.5828 53.9109 41.4769 54.0013 41.3278C54.094 41.1786 54.1404 40.9837 54.1404 40.7455V35.6883C54.1404 34.9906 53.972 34.4541 53.64 34.074C53.3055 33.6963 52.8978 33.5062 52.4217 33.5062C52.0629 33.5062 51.7357 33.5615 51.4379 33.6698C51.1449 33.7781 50.8788 33.9152 50.6493 34.074C50.4296 34.228 50.2489 34.3916 50.1171 34.5672C49.9853 34.7428 49.8901 34.8824 49.8315 34.9882V40.6445C49.8315 40.8706 49.8754 41.0559 49.9731 41.2026C50.0658 41.3494 50.2074 41.4625 50.3979 41.5395C50.5395 41.6092 50.6908 41.655 50.8568 41.6886C51.0228 41.7223 51.1937 41.7464 51.3695 41.7608V42.4176H46.482V41.7608C46.6358 41.7464 46.7969 41.7344 46.9629 41.7199C47.1289 41.7055 47.2705 41.679 47.395 41.6381C47.5806 41.5804 47.7222 41.4745 47.8125 41.3253C47.9053 41.1762 47.9516 40.9813 47.9516 40.7431V34.6731C47.9516 34.4445 47.9028 34.2376 47.8027 34.0499C47.7051 33.8599 47.5684 33.7035 47.395 33.5832C47.2681 33.5038 47.1143 33.4461 46.9385 33.41C46.7627 33.3715 46.5723 33.3498 46.3721 33.3354V32.6882L49.6899 32.4669L49.8315 32.6064V33.9922H49.8803C50.0439 33.8358 50.2465 33.6409 50.4882 33.422C50.7323 33.2007 50.9618 33.0178 51.1767 32.8783C51.4281 32.7195 51.726 32.5848 52.0677 32.4789C52.412 32.373 52.8001 32.3201 53.2323 32.3201C54.1893 32.3201 54.8997 32.616 55.3635 33.2007C55.8274 33.7901 56.0544 34.572 56.0544 35.5488V40.6637C56.0544 40.8971 56.0959 41.0848 56.1789 41.2291C56.2571 41.3711 56.3962 41.4841 56.594 41.5635C56.7551 41.6309 56.8942 41.6766 57.0114 41.7031C57.1286 41.7295 57.2946 41.7512 57.5021 41.7656V42.42H57.4997ZM63.3394 42.6775C61.8965 42.6775 60.7662 42.2035 59.9484 41.2628C59.1329 40.3197 58.7252 39.0542 58.7252 37.4639C58.7252 36.7734 58.8351 36.1262 59.0524 35.5248C59.2745 34.9233 59.5919 34.3771 60.0094 33.8839C60.4073 33.4148 60.9078 33.0322 61.5084 32.7435C62.1065 32.4548 62.7632 32.3081 63.4712 32.3081C64.4502 32.3081 65.246 32.539 65.8588 33.0034C66.474 33.4653 66.7816 34.0957 66.7816 34.892C66.7816 35.2264 66.7011 35.5175 66.5399 35.7726C66.3788 36.03 66.1127 36.1575 65.7392 36.1575C65.3413 36.1575 65.0361 36.0564 64.8139 35.8568C64.5966 35.6595 64.4868 35.4357 64.4868 35.1903C64.4868 34.892 64.5283 34.584 64.6089 34.2689C64.6919 33.9537 64.7358 33.7203 64.7505 33.5736C64.6308 33.3691 64.4502 33.2295 64.2085 33.1622C63.9692 33.09 63.7104 33.0563 63.4346 33.0563C63.1148 33.0563 62.8023 33.1237 62.5093 33.2608C62.2163 33.3979 61.9332 33.6481 61.6548 34.0138C61.4034 34.3483 61.2032 34.7958 61.047 35.3611C60.8907 35.9265 60.8126 36.6002 60.8126 37.3821C60.8126 38.6211 61.0933 39.6292 61.65 40.4111C62.2066 41.1906 62.939 41.5828 63.8398 41.5828C64.4966 41.5828 65.0434 41.4264 65.4877 41.1136C65.9272 40.8009 66.3373 40.3341 66.7133 39.7086L67.3627 40.1272C66.9183 40.9139 66.33 41.5347 65.6025 41.9918C64.8676 42.4513 64.1133 42.6775 63.3394 42.6775ZM76.9986 40.1056C76.5811 40.8923 76.0221 41.5154 75.3214 41.9822C74.6208 42.4489 73.8127 42.6799 72.9045 42.6799C72.0989 42.6799 71.3982 42.5403 70.7952 42.2612C70.1922 41.9822 69.6941 41.6044 69.3035 41.1257C68.9129 40.6493 68.62 40.0887 68.4271 39.4512C68.2367 38.8112 68.1414 38.1375 68.1414 37.4254C68.1414 36.7878 68.244 36.1623 68.4491 35.5464C68.6566 34.9305 68.9569 34.3795 69.3572 33.8863C69.7405 33.4172 70.2166 33.0347 70.7879 32.7459C71.3567 32.4572 71.9963 32.3105 72.7043 32.3105C73.4343 32.3105 74.0568 32.4236 74.5768 32.6497C75.0993 32.8735 75.5216 33.1838 75.8414 33.576C76.1515 33.9513 76.3834 34.3892 76.5348 34.8944C76.6861 35.402 76.7618 35.9482 76.7618 36.5376V37.1968H70.1555C70.1555 37.8392 70.219 38.4263 70.3411 38.9507C70.4656 39.4776 70.6634 39.9372 70.9368 40.3413C71.198 40.7263 71.5398 41.0294 71.9646 41.2532C72.3894 41.4745 72.8972 41.5876 73.4855 41.5876C74.0861 41.5876 74.6037 41.448 75.0382 41.1714C75.4703 40.8971 75.8927 40.3991 76.2955 39.6797L76.9986 40.1056ZM74.7648 36.3572C74.7648 35.9819 74.7331 35.5849 74.6671 35.1591C74.6012 34.7332 74.5011 34.3795 74.3595 34.0932C74.2033 33.7853 73.9909 33.5375 73.7199 33.3426C73.4489 33.1501 73.1022 33.0539 72.6775 33.0539C71.9695 33.0539 71.3836 33.3426 70.9124 33.9248C70.4412 34.5071 70.1897 35.3154 70.1482 36.3548H74.7648V36.3572Z" fill="#2C2C2B"/>
<path d="M2.81485 54.8885H0.00488371V54.5974C0.0854476 54.5926 0.197746 54.583 0.349109 54.5709C0.49803 54.5613 0.603009 54.5445 0.664042 54.5204C0.759254 54.4867 0.830052 54.4362 0.876437 54.3761C0.920381 54.3135 0.93991 54.2269 0.93991 54.1186V49.8939C0.93991 49.7977 0.925263 49.7183 0.891084 49.6533C0.859347 49.5883 0.783665 49.5354 0.661599 49.4897C0.573711 49.456 0.463851 49.4271 0.329577 49.3983C0.195304 49.3694 0.0854466 49.3526 0 49.3478V49.0566H2.80997V49.3478C2.7172 49.3502 2.60978 49.3598 2.48527 49.379C2.36077 49.3959 2.25091 49.4199 2.1557 49.4464C2.04584 49.4801 1.97016 49.533 1.93109 49.6052C1.89203 49.6798 1.87494 49.7616 1.87494 49.8506V54.0705C1.87494 54.1595 1.89447 54.2413 1.93842 54.3111C1.97992 54.3809 2.05316 54.4386 2.1557 54.4771C2.21673 54.4988 2.31682 54.5228 2.45842 54.5493C2.59757 54.5757 2.71476 54.5902 2.81241 54.5926V54.8885H2.81485Z" fill="#2C2C2B"/>
<path d="M8.49106 54.8877H6.3671V54.6182C6.43546 54.6134 6.5087 54.6062 6.58926 54.6014C6.66983 54.5966 6.73575 54.5846 6.78946 54.5677C6.87002 54.5437 6.93105 54.5004 6.97011 54.4378C7.01161 54.3753 7.03114 54.2959 7.03114 54.1972V52.1113C7.03114 51.8226 6.95791 51.6013 6.81387 51.4473C6.66739 51.2909 6.49161 51.2139 6.2841 51.2139C6.12785 51.2139 5.98381 51.2356 5.85687 51.2813C5.72992 51.327 5.61273 51.3823 5.51508 51.4473C5.41987 51.5098 5.34174 51.5772 5.28315 51.6518C5.227 51.724 5.18306 51.7817 5.15865 51.825V54.1563C5.15865 54.2477 5.17818 54.3271 5.21968 54.3873C5.26118 54.4474 5.32222 54.4931 5.40278 54.5268C5.46381 54.5557 5.52972 54.5749 5.60296 54.5894C5.6762 54.6038 5.74945 54.6134 5.82513 54.6182V54.8877H3.70117V54.6182C3.76709 54.6134 3.83788 54.6062 3.90868 54.6014C3.98192 54.5966 4.04296 54.5846 4.09667 54.5677C4.17723 54.5437 4.23826 54.5004 4.27732 54.4378C4.31883 54.3753 4.33836 54.2959 4.33836 54.1972V51.6951C4.33836 51.6013 4.31639 51.5146 4.27244 51.4377C4.23094 51.3583 4.16991 51.2957 4.09667 51.2452C4.04052 51.2139 3.9746 51.1899 3.89892 51.173C3.82324 51.1586 3.74023 51.149 3.65234 51.1417V50.8747L5.09517 50.7833L5.1562 50.841V51.4112H5.17573C5.24653 51.3462 5.33442 51.2668 5.4394 51.1754C5.54438 51.084 5.64447 51.0094 5.73724 50.9517C5.8471 50.8867 5.97649 50.8314 6.12541 50.7881C6.27433 50.7448 6.44279 50.7207 6.63077 50.7207C7.0458 50.7207 7.35584 50.8434 7.55603 51.084C7.75622 51.327 7.85632 51.6494 7.85632 52.0512V54.1587C7.85632 54.255 7.87341 54.3319 7.91003 54.3921C7.9442 54.4522 8.00524 54.498 8.09068 54.5292C8.16148 54.5581 8.22251 54.5749 8.27378 54.587C8.32505 54.599 8.39585 54.6062 8.48618 54.611V54.8877H8.49106Z" fill="#2C2C2B"/>
<path d="M13.9818 54.8135L12.4706 54.9049L12.4047 54.8472V54.467L12.3705 54.4598C12.2167 54.621 12.0312 54.7485 11.8041 54.8496C11.5795 54.9506 11.35 55.0011 11.1132 55.0011C10.8666 55.0011 10.6298 54.9482 10.4004 54.8472C10.1709 54.7461 9.97068 54.5994 9.79979 54.4141C9.62646 54.224 9.48974 53.9979 9.38964 53.7332C9.28955 53.4662 9.23828 53.1751 9.23828 52.8551C9.23828 52.5616 9.29199 52.2849 9.39941 52.0202C9.50927 51.758 9.65819 51.527 9.84861 51.3297C10.0268 51.1469 10.2466 51.0001 10.5053 50.8895C10.7641 50.7812 11.0278 50.7259 11.2988 50.7259C11.5014 50.7259 11.6991 50.7499 11.8945 50.798C12.0898 50.8462 12.2582 50.9063 12.3974 50.9809V49.571C12.3974 49.4556 12.3778 49.3497 12.3363 49.2583C12.2948 49.162 12.2387 49.0899 12.1654 49.0418C12.0824 48.9888 11.9726 48.9527 11.8334 48.9287C11.6943 48.907 11.5429 48.8902 11.3818 48.8782V48.6231L13.1517 48.5293L13.2177 48.5919V54.0556C13.2177 54.1519 13.2372 54.2337 13.2762 54.301C13.3153 54.366 13.3739 54.4237 13.4496 54.4694C13.5057 54.5031 13.5839 54.5224 13.6913 54.532C13.7963 54.5392 13.8915 54.5464 13.9818 54.5488V54.8135ZM12.3949 54.1013V51.7315C12.3729 51.6594 12.3339 51.5848 12.2802 51.5006C12.2289 51.4188 12.163 51.3442 12.0824 51.2744C11.9994 51.2071 11.8993 51.1493 11.7846 51.1036C11.6698 51.0579 11.5356 51.0362 11.3842 51.0362C11.2084 51.0362 11.0449 51.0771 10.8984 51.1637C10.7495 51.248 10.6201 51.3707 10.5053 51.5294C10.3955 51.6834 10.31 51.8783 10.2466 52.1141C10.1831 52.3523 10.1513 52.6121 10.1513 52.9008C10.1513 53.1318 10.1758 53.3387 10.2221 53.5263C10.2685 53.714 10.3491 53.8872 10.4589 54.0484C10.5639 54.2024 10.6933 54.3251 10.8544 54.4189C11.0131 54.5127 11.2036 54.5585 11.4233 54.5585C11.6576 54.5585 11.8529 54.5103 12.0067 54.4141C12.163 54.3227 12.2899 54.2168 12.3949 54.1013Z" fill="#2C2C2B"/>
<path d="M19.2679 54.815L17.8568 54.9064L17.7909 54.8487V54.3338H17.7665C17.6957 54.4036 17.6176 54.4782 17.5272 54.5552C17.4394 54.6346 17.3368 54.7043 17.2245 54.7669C17.0927 54.8415 16.9657 54.8968 16.8412 54.9353C16.7167 54.9738 16.5434 54.9931 16.3188 54.9931C15.9355 54.9931 15.6425 54.8752 15.4424 54.6418C15.2422 54.4084 15.1421 54.0668 15.1421 53.6193V51.6801C15.1421 51.5815 15.1201 51.4997 15.081 51.4323C15.042 51.365 14.9834 51.3072 14.9077 51.2567C14.8564 51.223 14.7905 51.2014 14.7124 51.1845C14.6318 51.1677 14.5488 51.1581 14.4609 51.1533V50.8862L15.9062 50.7876L15.9721 50.8453V53.6602C15.9721 53.9537 16.0429 54.1727 16.1845 54.3218C16.3261 54.4686 16.4946 54.5432 16.6899 54.5432C16.851 54.5432 16.995 54.5191 17.1196 54.4734C17.2465 54.4277 17.3515 54.3723 17.4369 54.3098C17.5175 54.252 17.5858 54.1895 17.6444 54.1269C17.7055 54.062 17.7519 54.0018 17.7811 53.9465V51.6489C17.7811 51.5599 17.7616 51.4781 17.7201 51.4083C17.6811 51.3385 17.6225 51.2784 17.5492 51.2302C17.498 51.1966 17.4174 51.1773 17.3149 51.1701C17.2099 51.1629 17.0951 51.1581 16.9657 51.1508V50.8838L18.5404 50.7852L18.6063 50.8429V54.0596C18.6063 54.1534 18.6283 54.2328 18.6674 54.2978C18.7089 54.3651 18.7674 54.4205 18.8407 54.4662C18.8944 54.4974 18.9554 54.5167 19.0287 54.5263C19.1019 54.5359 19.1825 54.5432 19.2704 54.5456V54.815H19.2679Z" fill="#2C2C2B"/>
<path d="M22.8798 52.9018C22.9994 53.0004 23.0922 53.1135 23.1581 53.241C23.224 53.3709 23.2533 53.5273 23.2533 53.715C23.2533 54.0903 23.1044 54.3959 22.8017 54.6364C22.5014 54.8746 22.1108 54.9949 21.6347 54.9949C21.3833 54.9949 21.1489 54.954 20.9389 54.8674C20.7265 54.7832 20.5752 54.7062 20.4824 54.634L20.397 54.9011H20.0674L20.0234 53.4912H20.3262C20.3506 53.5971 20.3994 53.7222 20.4775 53.8642C20.5532 54.0085 20.646 54.136 20.7534 54.2515C20.8681 54.3718 21.0049 54.4728 21.166 54.5546C21.3271 54.6364 21.5053 54.6773 21.7055 54.6773C21.9887 54.6773 22.2036 54.6172 22.3574 54.4969C22.5087 54.3766 22.5844 54.2082 22.5844 53.9844C22.5844 53.869 22.56 53.7703 22.5136 53.6861C22.4648 53.6019 22.394 53.5297 22.3012 53.4648C22.2036 53.4022 22.0839 53.3469 21.9448 53.294C21.8032 53.2434 21.6469 53.1929 21.476 53.1448C21.3369 53.1039 21.1855 53.0534 21.0171 52.986C20.8486 52.9186 20.7046 52.8392 20.5825 52.7502C20.4531 52.654 20.3481 52.5361 20.2651 52.399C20.1821 52.2594 20.1431 52.0934 20.1431 51.9058C20.1431 51.5737 20.2749 51.2947 20.5386 51.0637C20.8022 50.8327 21.1562 50.7173 21.5981 50.7173C21.7666 50.7173 21.9423 50.7389 22.1181 50.7798C22.2939 50.8207 22.4404 50.8712 22.5502 50.929L22.6503 50.7148H22.9677L23.0336 52.0188H22.7309C22.6698 51.7277 22.5356 51.4944 22.3305 51.3115C22.1279 51.1287 21.8789 51.0372 21.5859 51.0372C21.3442 51.0372 21.1562 51.0926 21.0195 51.2056C20.8803 51.3187 20.812 51.4535 20.812 51.6122C20.812 51.7349 20.834 51.8384 20.8803 51.9202C20.9267 52.002 20.9926 52.0718 21.0854 52.1295C21.1733 52.1848 21.2832 52.2354 21.4174 52.2835C21.5517 52.3316 21.7153 52.3845 21.913 52.4447C22.1059 52.5024 22.289 52.5698 22.4599 52.6444C22.6259 52.7238 22.7675 52.808 22.8798 52.9018Z" fill="#2C2C2B"/>
<path d="M26.808 54.7091C26.6176 54.7837 26.4369 54.8463 26.2685 54.8968C26.0976 54.9473 25.8901 54.9738 25.6435 54.9738C25.2797 54.9738 25.0234 54.8872 24.8769 54.7163C24.728 54.5455 24.6548 54.3049 24.6548 53.9922V51.2471H23.8711V50.8525H24.6719V49.5918H25.4726V50.8525H26.7152V51.2471H25.4775V53.5134C25.4775 53.6818 25.4848 53.8238 25.4995 53.9392C25.5117 54.0523 25.5434 54.1534 25.5947 54.2376C25.6411 54.317 25.7119 54.3771 25.8046 54.418C25.8998 54.4589 26.0243 54.4806 26.183 54.4806C26.2563 54.4806 26.3637 54.4758 26.5053 54.4637C26.6469 54.4517 26.747 54.4349 26.808 54.4156V54.7091Z" fill="#2C2C2B"/>
<path d="M30.7733 51.3575C30.7733 51.497 30.7367 51.6197 30.6635 51.7304C30.5902 51.8387 30.4755 51.8916 30.3241 51.8916C30.1606 51.8916 30.0336 51.8531 29.9482 51.7713C29.8603 51.6919 29.8163 51.6053 29.8163 51.5091C29.8163 51.4489 29.8237 51.3936 29.831 51.3455C29.8407 51.2949 29.8505 51.2444 29.8578 51.1963C29.7211 51.1963 29.56 51.2468 29.3745 51.3527C29.1889 51.4585 29.0327 51.6053 28.9057 51.7978V54.158C28.9057 54.2542 28.9252 54.3312 28.9643 54.3913C29.0058 54.4515 29.0668 54.4972 29.1523 54.5261C29.2255 54.5549 29.3207 54.5742 29.4355 54.5886C29.5502 54.603 29.6503 54.6127 29.7358 54.6175V54.8869H27.4507V54.6175C27.5166 54.6127 27.5874 54.6055 27.6582 54.6006C27.7314 54.5958 27.7925 54.5838 27.8462 54.567C27.9267 54.5429 27.9878 54.4996 28.0293 54.437C28.0708 54.3745 28.0903 54.2951 28.0903 54.1964V51.6943C28.0903 51.6101 28.0683 51.5259 28.0268 51.4441C27.9853 51.3623 27.9243 51.2974 27.8486 51.2468C27.7925 51.2156 27.7266 51.1915 27.6509 51.1746C27.5752 51.1602 27.4922 51.1506 27.4043 51.1434V50.8763L28.8471 50.7849L28.9082 50.8426V51.4128H28.9301C29.1108 51.1915 29.3134 51.0231 29.538 50.9076C29.7602 50.7921 29.9653 50.7344 30.1484 50.7344C30.3315 50.7344 30.4828 50.7921 30.5976 50.9028C30.7147 51.0183 30.7733 51.1698 30.7733 51.3575Z" fill="#2C2C2B"/>
<path d="M33.4657 54.8881H31.3686V54.6186C31.437 54.6138 31.5054 54.6066 31.5786 54.6018C31.6518 54.597 31.7129 54.585 31.7641 54.5681C31.8471 54.5441 31.9082 54.5008 31.9472 54.4382C31.9863 54.3756 32.0083 54.2963 32.0083 54.1976V51.6955C32.0083 51.6065 31.9863 51.5271 31.9448 51.4549C31.9033 51.3827 31.8423 51.3226 31.7666 51.272C31.7104 51.2384 31.6323 51.2095 31.5249 51.1878C31.4199 51.1638 31.3247 51.1493 31.2344 51.1445V50.8775L32.7651 50.7861L32.8261 50.8438V54.1495C32.8261 54.2457 32.8456 54.3251 32.8847 54.3877C32.9238 54.4502 32.9873 54.4959 33.0727 54.5272C33.1362 54.5513 33.1996 54.5729 33.2631 54.5874C33.3242 54.6018 33.3925 54.6138 33.4682 54.6186V54.8881H33.4657ZM32.914 49.1885C32.914 49.3449 32.8603 49.4797 32.748 49.5975C32.6381 49.713 32.5039 49.7732 32.3403 49.7732C32.1914 49.7732 32.062 49.7178 31.9521 49.6072C31.8423 49.4965 31.7886 49.369 31.7886 49.227C31.7886 49.0755 31.8447 48.9456 31.9521 48.8325C32.062 48.7194 32.1914 48.6641 32.3403 48.6641C32.5087 48.6641 32.6455 48.717 32.7529 48.8204C32.8603 48.9263 32.914 49.0466 32.914 49.1885Z" fill="#2C2C2B"/>
<path d="M38.0653 53.9315C37.8847 54.2563 37.6405 54.5113 37.3354 54.7038C37.0302 54.8963 36.6786 54.9925 36.2856 54.9925C35.9365 54.9925 35.6313 54.9348 35.3676 54.8193C35.104 54.7038 34.8891 54.5498 34.7182 54.3501C34.5498 54.1529 34.4204 53.9219 34.3374 53.6597C34.2544 53.3974 34.2129 53.1183 34.2129 52.8248C34.2129 52.5626 34.2568 52.3051 34.3472 52.0501C34.4375 51.7975 34.5669 51.5689 34.7427 51.3668C34.9087 51.1744 35.1162 51.0156 35.3628 50.8953C35.6118 50.7774 35.8876 50.7148 36.1953 50.7148C36.5126 50.7148 36.7836 50.7606 37.0082 50.8568C37.2353 50.9482 37.4184 51.0757 37.5575 51.2393C37.6918 51.3933 37.7943 51.5737 37.8602 51.7807C37.9262 51.99 37.9603 52.2161 37.9603 52.4591V52.731H35.0893C35.0893 52.9956 35.1162 53.2362 35.1699 53.4527C35.2236 53.6693 35.309 53.8593 35.4262 54.0254C35.541 54.1841 35.6899 54.3092 35.873 54.4007C36.0585 54.4921 36.2783 54.5378 36.5346 54.5378C36.7958 54.5378 37.0204 54.4801 37.2084 54.367C37.3964 54.2539 37.5795 54.0494 37.7553 53.7535L38.0653 53.9315ZM37.0937 52.3869C37.0937 52.233 37.079 52.067 37.0522 51.8937C37.0229 51.7181 36.9814 51.5713 36.9203 51.4535C36.852 51.3283 36.7592 51.2249 36.642 51.1455C36.5248 51.0661 36.3735 51.0276 36.1904 51.0276C35.8828 51.0276 35.6264 51.1455 35.4238 51.3861C35.2187 51.6243 35.1089 51.9587 35.0918 52.3869H37.0937Z" fill="#2C2C2B"/>
<path d="M41.6435 52.9018C41.7631 53.0004 41.8559 53.1135 41.9218 53.241C41.9877 53.3709 42.0194 53.5273 42.0194 53.715C42.0194 54.0903 41.8681 54.3959 41.5678 54.6364C41.2675 54.8746 40.8769 54.9949 40.4008 54.9949C40.1494 54.9949 39.915 54.954 39.7051 54.8674C39.4927 54.7832 39.3413 54.7062 39.2485 54.634L39.1606 54.9011H38.8311L38.7871 53.4912H39.0898C39.1143 53.5971 39.1631 53.7222 39.2412 53.8642C39.3169 54.0085 39.4097 54.136 39.5171 54.2515C39.6318 54.3718 39.7685 54.4728 39.9272 54.5546C40.0883 54.6364 40.2666 54.6773 40.4667 54.6773C40.7499 54.6773 40.9648 54.6172 41.1186 54.4969C41.2699 54.3766 41.3456 54.2082 41.3456 53.9844C41.3456 53.869 41.3212 53.7703 41.2748 53.6861C41.2236 53.6019 41.1552 53.5297 41.0624 53.4648C40.9648 53.4022 40.8452 53.3469 40.706 53.294C40.5644 53.2434 40.4106 53.1929 40.2373 53.1448C40.0981 53.1039 39.9467 53.0534 39.7783 52.986C39.6098 52.9186 39.4658 52.8392 39.3437 52.7502C39.2143 52.654 39.1094 52.5361 39.0288 52.399C38.9458 52.2594 38.9067 52.0934 38.9067 51.9058C38.9067 51.5737 39.0386 51.2947 39.3022 51.0637C39.5659 50.8327 39.9199 50.7173 40.3618 50.7173C40.5302 50.7173 40.706 50.7389 40.8818 50.7798C41.0576 50.8207 41.204 50.8712 41.3163 50.929L41.4164 50.7148H41.7338L41.7997 52.0188H41.497C41.436 51.7277 41.3017 51.4944 41.0991 51.3115C40.8964 51.1287 40.6474 51.0372 40.3544 51.0372C40.1128 51.0372 39.9248 51.0926 39.7856 51.2056C39.6465 51.3187 39.5781 51.4535 39.5781 51.6122C39.5781 51.7349 39.6001 51.8384 39.6465 51.9202C39.6928 52.002 39.7588 52.0718 39.8515 52.1295C39.9394 52.1848 40.0493 52.2354 40.1836 52.2835C40.3178 52.3316 40.4838 52.3845 40.6791 52.4447C40.872 52.5024 41.0551 52.5698 41.226 52.6444C41.392 52.7238 41.5336 52.808 41.6435 52.9018Z" fill="#2C2C2B"/>
<path d="M49.9686 53.1539L49.8368 54.8885H44.9614V54.5974C45.0322 54.5926 45.1348 54.5806 45.2666 54.5685C45.4009 54.5565 45.4936 54.5373 45.5449 54.5156C45.6328 54.4795 45.6963 54.429 45.7353 54.3592C45.7768 54.2895 45.7939 54.2028 45.7939 54.097V49.9204C45.7939 49.8289 45.7768 49.7447 45.7427 49.6725C45.7109 49.6004 45.6426 49.5426 45.5425 49.4993C45.4741 49.468 45.3813 49.4344 45.2593 49.4031C45.1372 49.3718 45.0371 49.355 44.959 49.3478V49.0566H47.5932V49.3478C47.5102 49.3502 47.4052 49.3646 47.2758 49.3887C47.144 49.4127 47.0512 49.4344 46.9926 49.4536C46.8925 49.4849 46.8242 49.5426 46.7875 49.622C46.7509 49.7014 46.7338 49.7856 46.7338 49.877V53.7938C46.7338 53.9743 46.7436 54.1138 46.7631 54.2149C46.7827 54.3135 46.8266 54.3929 46.8974 54.4482C46.9658 54.4964 47.0659 54.53 47.1977 54.5445C47.332 54.5613 47.5175 54.5661 47.7568 54.5661C47.8666 54.5661 47.9789 54.5637 48.0961 54.5589C48.2133 54.5517 48.3231 54.5421 48.4306 54.5252C48.5331 54.5084 48.6283 54.4867 48.7138 54.4579C48.7992 54.429 48.8651 54.3929 48.9042 54.3472C49.0238 54.2221 49.163 54.0296 49.3241 53.7746C49.4828 53.5172 49.5951 53.3103 49.6561 53.1515H49.9686V53.1539Z" fill="#2C2C2B"/>
<path d="M52.6005 54.8881H50.5034V54.6186C50.5718 54.6138 50.6401 54.6066 50.7134 54.6018C50.7866 54.597 50.8476 54.585 50.8989 54.5681C50.9819 54.5441 51.0429 54.5008 51.082 54.4382C51.1211 54.3756 51.143 54.2963 51.143 54.1976V51.6955C51.143 51.6065 51.1211 51.5271 51.0796 51.4549C51.0381 51.3827 50.977 51.3226 50.9013 51.272C50.8452 51.2384 50.7671 51.2095 50.6597 51.1878C50.5547 51.1638 50.4595 51.1493 50.3691 51.1445V50.8775L51.8999 50.7861L51.9609 50.8438V54.1495C51.9609 54.2457 51.9804 54.3251 52.0195 54.3877C52.0585 54.4502 52.122 54.4959 52.2075 54.5272C52.2709 54.5513 52.3344 54.5729 52.3954 54.5874C52.4565 54.6018 52.5248 54.6138 52.6005 54.6186V54.8881ZM52.0463 49.1885C52.0463 49.3449 51.9926 49.4797 51.8803 49.5975C51.7705 49.713 51.6362 49.7732 51.4726 49.7732C51.3237 49.7732 51.1943 49.7178 51.0844 49.6072C50.9746 49.4965 50.9184 49.369 50.9184 49.227C50.9184 49.0755 50.9746 48.9456 51.0844 48.8325C51.1943 48.7194 51.3237 48.6641 51.4726 48.6641C51.6411 48.6641 51.7778 48.717 51.8828 48.8204C51.9926 48.9263 52.0463 49.0466 52.0463 49.1885Z" fill="#2C2C2B"/>
<path d="M60.7761 54.8871H58.6619V54.6177C58.7303 54.6128 58.7962 54.6056 58.867 54.6008C58.9378 54.596 58.9988 54.584 59.0501 54.5671C59.1331 54.5431 59.1942 54.4998 59.2332 54.4372C59.2723 54.3747 59.2918 54.2953 59.2918 54.1966V52.1059C59.2918 51.8196 59.2235 51.6007 59.0843 51.4443C58.9451 51.2903 58.7694 51.2133 58.5643 51.2133C58.4203 51.2133 58.286 51.235 58.159 51.2735C58.0321 51.3144 57.9173 51.3721 57.8124 51.4467C57.7269 51.5068 57.6561 51.5718 57.6 51.6416C57.5414 51.7113 57.4999 51.7691 57.4681 51.8172V54.1557C57.4681 54.252 57.4852 54.3289 57.5218 54.3915C57.5585 54.4541 57.6171 54.4998 57.7025 54.5334C57.7684 54.5599 57.8319 54.5768 57.8856 54.5888C57.9393 54.6008 58.0101 54.6104 58.098 54.6152V54.8847H56.0277V54.6152C56.0961 54.6104 56.162 54.6032 56.2231 54.5984C56.2865 54.5936 56.3427 54.5816 56.3964 54.5647C56.4794 54.5407 56.538 54.4974 56.5795 54.4348C56.6185 54.3722 56.6381 54.2929 56.6381 54.1942V52.1035C56.6381 51.8172 56.5697 51.5983 56.4306 51.4419C56.2914 51.2879 56.1181 51.2109 55.9106 51.2109C55.7665 51.2109 55.6323 51.2326 55.5077 51.2735C55.3808 51.3168 55.2636 51.3745 55.1586 51.4491C55.0732 51.5092 55.0024 51.5766 54.9438 51.6536C54.8852 51.7282 54.8413 51.7859 54.812 51.822V54.1461C54.812 54.2375 54.8315 54.3169 54.873 54.3795C54.9121 54.442 54.9731 54.4901 55.0561 54.5214C55.1171 54.5503 55.1806 54.5695 55.2441 54.584C55.3076 54.5984 55.3808 54.608 55.4589 54.6128V54.8823H53.3545V54.6128C53.4204 54.608 53.4912 54.6008 53.562 54.596C53.6328 54.5912 53.6963 54.5792 53.75 54.5623C53.8306 54.5383 53.8916 54.495 53.9306 54.4324C53.9697 54.3698 53.9917 54.2905 53.9917 54.1918V51.6728C53.9917 51.5838 53.9697 51.5068 53.9282 51.4347C53.8867 51.3649 53.8257 51.3071 53.7524 51.2566C53.6963 51.2253 53.6279 51.1965 53.5449 51.1772C53.4619 51.1556 53.3789 51.1435 53.291 51.1363V50.8693L54.7412 50.7779L54.8022 50.8356V51.4154H54.8315C54.9047 51.3456 54.9951 51.2662 55.1 51.1724C55.205 51.081 55.3051 51.004 55.393 50.9463C55.4955 50.8813 55.6249 50.826 55.7787 50.7827C55.9325 50.7394 56.0985 50.7153 56.2768 50.7153C56.56 50.7153 56.7992 50.7875 57.0018 50.927C57.2045 51.069 57.3485 51.2398 57.4388 51.4395C57.5438 51.3432 57.6366 51.259 57.7171 51.1869C57.7953 51.1147 57.9027 51.0377 58.0345 50.9535C58.1468 50.8813 58.2787 50.8236 58.4276 50.7803C58.5789 50.7369 58.7474 50.7129 58.9329 50.7129C59.2991 50.7129 59.5897 50.826 59.802 51.0497C60.0144 51.2759 60.1243 51.6199 60.1243 52.0867V54.1461C60.1243 54.2423 60.1414 54.3193 60.1756 54.3819C60.2098 54.4444 60.2708 54.4901 60.3562 54.5238C60.4246 54.5503 60.4905 54.5671 60.5564 54.5792C60.6223 54.5912 60.698 54.6008 60.7786 54.6056V54.8871H60.7761Z" fill="#2C2C2B"/>
<path d="M63.6054 54.8881H61.5083V54.6186C61.5767 54.6138 61.645 54.6066 61.7158 54.6018C61.7891 54.597 61.8501 54.585 61.9013 54.5681C61.9844 54.5441 62.0454 54.5008 62.0844 54.4382C62.1235 54.3756 62.1455 54.2963 62.1455 54.1976V51.6955C62.1455 51.6065 62.1235 51.5271 62.0796 51.4549C62.0381 51.3827 61.977 51.3226 61.9013 51.272C61.8452 51.2384 61.7671 51.2095 61.6597 51.1878C61.5547 51.1638 61.4595 51.1493 61.3691 51.1445V50.8775L62.8999 50.7861L62.9609 50.8438V54.1495C62.9609 54.2457 62.9804 54.3251 63.0195 54.3877C63.0585 54.4502 63.122 54.4959 63.2075 54.5272C63.2734 54.5513 63.3344 54.5729 63.3979 54.5874C63.4589 54.6018 63.5273 54.6138 63.603 54.6186V54.8881H63.6054ZM63.0512 49.1885C63.0512 49.3449 62.9975 49.4797 62.8852 49.5975C62.7754 49.713 62.6411 49.7732 62.4775 49.7732C62.3286 49.7732 62.1992 49.7178 62.0893 49.6072C61.9795 49.4965 61.9233 49.369 61.9233 49.227C61.9233 49.0755 61.9795 48.9456 62.0893 48.8325C62.1992 48.7194 62.3286 48.6641 62.4775 48.6641C62.646 48.6641 62.7827 48.717 62.8876 48.8204C62.9975 48.9263 63.0512 49.0466 63.0512 49.1885Z" fill="#2C2C2B"/>
<path d="M67.0326 54.7091C66.8422 54.7837 66.6615 54.8463 66.4931 54.8968C66.3222 54.9473 66.1147 54.9738 65.8681 54.9738C65.5043 54.9738 65.248 54.8872 65.1015 54.7163C64.9526 54.5455 64.8794 54.3049 64.8794 53.9922V51.2471H64.0957V50.8525H64.8965V49.5918H65.6972V50.8525H66.9399V51.2471H65.7045V53.5134C65.7045 53.6818 65.7119 53.8238 65.7265 53.9392C65.7387 54.0523 65.7705 54.1534 65.8217 54.2376C65.8681 54.317 65.9389 54.3771 66.0317 54.418C66.1269 54.4589 66.2514 54.4806 66.4101 54.4806C66.4833 54.4806 66.5907 54.4758 66.7323 54.4637C66.8764 54.4517 66.9765 54.4349 67.0326 54.4156V54.7091Z" fill="#2C2C2B"/>
<path d="M71.5297 53.9315C71.349 54.2563 71.1049 54.5113 70.7997 54.7038C70.4945 54.8963 70.143 54.9925 69.7499 54.9925C69.4008 54.9925 69.0957 54.9348 68.8344 54.8193C68.5708 54.7038 68.3559 54.5498 68.185 54.3501C68.0141 54.1529 67.8872 53.9219 67.8042 53.6597C67.7212 53.3974 67.6797 53.1183 67.6797 52.8248C67.6797 52.5626 67.7261 52.3051 67.814 52.0501C67.9043 51.7975 68.0337 51.5689 68.2095 51.3668C68.3755 51.1744 68.583 51.0156 68.832 50.8953C69.0786 50.7774 69.3569 50.7148 69.6645 50.7148C69.9818 50.7148 70.2528 50.7606 70.4774 50.8568C70.7045 50.9482 70.8876 51.0757 71.0267 51.2393C71.161 51.3933 71.2611 51.5737 71.327 51.7807C71.3929 51.99 71.4271 52.2161 71.4271 52.4591V52.731H68.5561C68.5561 52.9956 68.583 53.2362 68.6367 53.4527C68.6904 53.6693 68.7758 53.8593 68.8955 54.0254C69.0102 54.1841 69.1591 54.3092 69.3422 54.4007C69.5253 54.4921 69.7475 54.5378 70.0038 54.5378C70.265 54.5378 70.4897 54.4801 70.6801 54.367C70.8681 54.2539 71.0512 54.0494 71.2269 53.7535L71.5297 53.9315ZM70.5605 52.3869C70.5605 52.233 70.5458 52.067 70.5189 51.8937C70.4896 51.7181 70.4457 51.5713 70.3847 51.4535C70.3163 51.3283 70.2235 51.2249 70.1064 51.1455C69.9892 51.0661 69.8378 51.0276 69.6523 51.0276C69.3447 51.0276 69.0908 51.1455 68.8857 51.3861C68.6806 51.6243 68.5708 51.9587 68.5537 52.3869H70.5605Z" fill="#2C2C2B"/>
<path d="M76.9984 54.8135L75.4848 54.9049L75.4188 54.8472V54.467L75.3847 54.4598C75.2309 54.621 75.0429 54.7485 74.8183 54.8496C74.5937 54.9506 74.3642 55.0011 74.1274 55.0011C73.8808 55.0011 73.644 54.9482 73.4121 54.8472C73.1826 54.7461 72.9824 54.5994 72.8115 54.4141C72.6382 54.224 72.5015 53.9979 72.4014 53.7332C72.3013 53.4662 72.25 53.1751 72.25 52.8551C72.25 52.5616 72.3037 52.2849 72.4136 52.0202C72.5234 51.758 72.6724 51.527 72.8628 51.3297C73.041 51.1469 73.2607 51.0001 73.5195 50.8895C73.7783 50.7812 74.0444 50.7259 74.3129 50.7259C74.5156 50.7259 74.7133 50.7499 74.9086 50.798C75.1039 50.8462 75.2724 50.9063 75.4115 50.9809V49.571C75.4115 49.4556 75.392 49.3497 75.3505 49.2583C75.309 49.162 75.2528 49.0899 75.1796 49.0418C75.0966 48.9888 74.9867 48.9527 74.8476 48.9287C74.7084 48.907 74.5571 48.8902 74.3984 48.8782V48.6231L76.1683 48.5293L76.2343 48.5919V54.0556C76.2343 54.1519 76.2538 54.2337 76.2953 54.301C76.3343 54.366 76.3929 54.4237 76.4686 54.4694C76.5248 54.5031 76.6029 54.5224 76.7103 54.532C76.8153 54.5392 76.9105 54.5464 77.0008 54.5488V54.8135H76.9984ZM75.4115 54.1013V51.7315C75.3896 51.6594 75.3505 51.5848 75.2968 51.5006C75.2431 51.4188 75.1772 51.3442 75.099 51.2744C75.016 51.2071 74.9159 51.1493 74.8012 51.1036C74.6865 51.0579 74.5546 51.0362 74.4008 51.0362C74.225 51.0362 74.0615 51.0771 73.915 51.1637C73.7661 51.248 73.6367 51.3707 73.5219 51.5294C73.4121 51.6834 73.3266 51.8783 73.2632 52.1141C73.1997 52.3523 73.1679 52.6121 73.1679 52.9008C73.1679 53.1318 73.1924 53.3387 73.2387 53.5263C73.2851 53.714 73.3657 53.8872 73.4756 54.0484C73.5781 54.2024 73.7099 54.3251 73.8686 54.4189C74.0273 54.5127 74.2177 54.5585 74.4374 54.5585C74.6718 54.5585 74.8671 54.5103 75.0209 54.4141C75.1772 54.3227 75.3065 54.2168 75.4115 54.1013Z" fill="#2C2C2B"/>
</svg>
