<svg width="121" height="41" viewBox="0 0 121 41" fill="none" xmlns="http://www.w3.org/2000/svg">
<path d="M35.2481 13.5054V36.898C35.2641 38.7045 36.2492 39.5535 37.6791 39.6634H46.3221C46.8673 39.6443 46.8386 38.139 45.8997 38.2393C44.5894 38.3779 43.939 37.7328 43.9741 36.2242V13.3286C43.9151 12.3011 43.2631 11.8933 42.2094 11.9125H36.839C35.7518 11.8838 35.2178 12.4158 35.2481 13.5054ZM22.8303 3.94766C22.7171 1.7669 23.8362 0.707581 26.1858 0.761741H33.3799C35.1238 0.761741 36.1296 1.78602 36.0021 3.60996V9.23151C35.9527 10.2462 34.5037 10.157 34.4814 9.23151V4.75529C34.4814 2.17311 31.3841 2.11257 31.3841 4.7983V36.898C31.3618 37.6372 32.7885 37.72 32.8156 36.898V30.9388C32.7885 29.8619 34.3953 29.6326 34.4192 30.9388V37.1991C34.4192 38.8462 33.026 39.6379 31.4734 39.5806H25.6837C23.6688 39.442 22.6613 37.6802 22.6613 35.5584L22.8303 3.94766ZM13.9529 16.9144C12.6856 15.9347 11.9237 14.8244 11.879 13.773C11.8217 12.384 13.2866 11.6448 14.3881 12.3282C15.4625 12.9941 16.0794 13.8893 16.1607 15.0506C16.2388 16.1609 15.2585 17.9243 13.9529 16.9144ZM1.80451 25.8732L7.80938 23.232L12.2505 28.0284C14.5332 30.4912 15.5916 33.9351 11.6782 35.6603L6.2169 38.0721C5.45494 38.5372 5.85186 39.6969 6.80033 39.4978C11.8073 37.8267 16.4126 35.8101 20.1762 33.0749C25.2995 29.357 20.2973 22.1823 16.7027 19.5427C19.3919 15.1382 18.2569 11.1447 13.7473 9.35257C10.1638 7.92847 5.67014 9.50391 3.95013 13.0036C2.52503 15.8534 3.33323 18.7048 6.38587 21.5547L0.336376 24.6291C-0.747593 25.193 1.10631 26.1806 1.80451 25.8732Z" fill="#ED3237"/>
<path d="M53.8926 19.3734L57.5382 19.1456C57.6179 19.7382 57.7789 20.1874 58.0196 20.4997C58.4118 21.0014 58.9793 21.2499 59.7125 21.2499C60.2593 21.2499 60.6817 21.1225 60.9782 20.866C61.2731 20.6096 61.4198 20.3117 61.4198 19.974C61.4198 19.6538 61.2811 19.3655 60.9974 19.1106C60.7152 18.8573 60.0632 18.6168 59.0335 18.3938C57.3533 18.0162 56.1562 17.516 55.4404 16.8916C54.7183 16.2656 54.3596 15.4691 54.3596 14.499C54.3596 13.8618 54.5446 13.2597 54.9128 12.6942C55.2826 12.1287 55.8389 11.6858 56.5802 11.3593C57.3214 11.0359 58.3368 10.875 59.628 10.875C61.2141 10.875 62.424 11.1681 63.2546 11.7575C64.0851 12.3453 64.5792 13.2836 64.737 14.5675L61.1265 14.7778C61.0308 14.2202 60.8284 13.814 60.5191 13.5607C60.2131 13.3106 59.7906 13.1832 59.2502 13.1832C58.8023 13.1832 58.466 13.2756 58.2412 13.4651C58.018 13.6547 57.9049 13.8841 57.9049 14.1549C57.9049 14.3508 57.9973 14.5277 58.1822 14.687C58.3655 14.851 58.7912 15.0024 59.4686 15.1425C61.144 15.5041 62.3427 15.8705 63.068 16.2385C63.7933 16.6081 64.321 17.0621 64.6494 17.6116C64.9793 18.158 65.1467 18.7697 65.1467 19.4467C65.1467 20.24 64.9251 20.9728 64.4852 21.6402C64.0468 22.3125 63.4315 22.8206 62.6408 23.1663C61.8534 23.512 60.8571 23.684 59.6567 23.684C57.5478 23.684 56.086 23.281 55.2778 22.4686C54.4569 21.6562 54.001 20.6271 53.8926 19.3734Z" fill="#848688"/>
<path d="M66.5391 11.084H69.9838V15.6478C70.4509 15.1651 70.9164 14.8163 71.3787 14.6076C71.8393 14.3989 72.3893 14.2938 73.0221 14.2938C73.9579 14.2938 74.6927 14.5789 75.2347 15.1492C75.7703 15.7179 76.0397 16.5908 76.0397 17.7664V23.4724H72.5822V18.5374C72.5822 17.9751 72.477 17.5785 72.2681 17.3427C72.0577 17.107 71.766 16.9923 71.3882 16.9923C70.9738 16.9923 70.631 17.15 70.376 17.4638C70.1177 17.7792 69.9854 18.3479 69.9854 19.1635V23.4724H66.5407V11.084H66.5391Z" fill="#848688"/>
<path d="M77.7731 14.4985H80.9931V15.9672C81.3055 15.3332 81.6259 14.8935 81.9559 14.6546C82.2843 14.4156 82.6908 14.293 83.177 14.293C83.6839 14.293 84.2386 14.4523 84.8412 14.7677L83.7763 17.2192C83.3715 17.0488 83.0479 16.966 82.8119 16.966C82.3624 16.966 82.0117 17.1539 81.7646 17.5235C81.4092 18.0476 81.229 19.0304 81.229 20.4657V23.4732H77.7715V14.4985H77.7731Z" fill="#848688"/>
<path d="M91.9229 18.1909C91.856 17.5251 91.6774 17.0472 91.3873 16.7637C91.0956 16.4753 90.7146 16.3304 90.2412 16.3304C89.6928 16.3304 89.2576 16.5502 88.9261 16.9819C88.7188 17.2527 88.5865 17.6557 88.5308 18.1909H91.9229ZM95.4235 19.8381H88.5244C88.585 20.3924 88.7364 20.8018 88.9723 21.0726C89.3055 21.4613 89.7407 21.6556 90.2747 21.6556C90.6126 21.6556 90.9362 21.5728 91.2391 21.4024C91.4272 21.2956 91.6264 21.1076 91.8384 20.8368L95.2306 21.1491C94.711 22.0523 94.0877 22.6974 93.356 23.0893C92.6227 23.4796 91.5722 23.6771 90.1997 23.6771C89.0137 23.6771 88.0764 23.5082 87.3926 23.1737C86.7119 22.8376 86.146 22.3056 85.6981 21.576C85.2517 20.8464 85.0254 19.9878 85.0254 19.0018C85.0254 17.6 85.4765 16.4626 86.374 15.5976C87.273 14.7294 88.5148 14.293 90.1009 14.293C91.3857 14.293 92.4028 14.4889 93.1456 14.8776C93.89 15.2647 94.4591 15.8302 94.8465 16.5661C95.2338 17.3053 95.4283 18.2658 95.4283 19.4494L95.4235 19.8381Z" fill="#848688"/>
<path d="M102.987 18.1909C102.918 17.5251 102.74 17.0472 102.451 16.7637C102.161 16.4753 101.778 16.3304 101.307 16.3304C100.757 16.3304 100.321 16.5502 99.9914 16.9819C99.7842 17.2527 99.6519 17.6557 99.5961 18.1909H102.987ZM106.487 19.8381H99.5881C99.6487 20.3924 99.7985 20.8018 100.034 21.0726C100.368 21.4613 100.803 21.6556 101.337 21.6556C101.673 21.6556 101.998 21.5728 102.301 21.4024C102.489 21.2956 102.687 21.1076 102.901 20.8368L106.293 21.1491C105.773 22.0523 105.15 22.6974 104.418 23.0893C103.683 23.4796 102.631 23.6771 101.26 23.6771C100.074 23.6771 99.137 23.5082 98.4515 23.1737C97.7709 22.8376 97.205 22.3056 96.7586 21.576C96.3107 20.8464 96.0859 19.9878 96.0859 19.0018C96.0859 17.6 96.5355 16.4626 97.4329 15.5976C98.3336 14.7294 99.5754 14.293 101.16 14.293C102.445 14.293 103.46 14.4889 104.201 14.8776C104.947 15.2647 105.516 15.8302 105.902 16.5661C106.291 17.3053 106.486 18.2658 106.486 19.4494L106.487 19.8381Z" fill="#848688"/>
<path d="M62.2912 35.1515L65.5288 36.1296C65.3088 37.036 64.9661 37.7926 64.5006 38.4011C64.0319 39.0096 63.4517 39.4684 62.7583 39.779C62.0633 40.0913 61.1802 40.2426 60.1137 40.2426C58.8145 40.2426 57.7513 40.0546 56.9288 39.6771C56.1062 39.2996 55.3937 38.6337 54.7959 37.6843C54.1997 36.7349 53.8984 35.5179 53.8984 34.0348C53.8984 32.058 54.4261 30.5367 55.4766 29.4774C56.5287 28.4149 58.0207 27.8828 59.94 27.8828C61.4448 27.8828 62.6276 28.1855 63.4916 28.7956C64.3539 29.4025 64.9948 30.3376 65.4108 31.5976L62.1478 32.3256C62.0362 31.9592 61.9166 31.6932 61.7923 31.5243C61.585 31.244 61.3348 31.0257 61.0367 30.8728C60.7338 30.7199 60.4007 30.645 60.0276 30.645C59.1939 30.645 58.5531 30.9811 58.1052 31.6534C57.7688 32.1551 57.5999 32.9389 57.5999 34.0093C57.5999 35.3363 57.8039 36.2411 58.204 36.7349C58.6057 37.2271 59.1716 37.4708 59.8969 37.4708C60.6047 37.4708 61.1387 37.2749 61.5022 36.8751C61.8656 36.4832 62.127 35.9066 62.2912 35.1515Z" fill="#848688"/>
<path d="M73.2012 34.9355C73.1359 34.2936 72.9637 33.8348 72.6832 33.5576C72.4026 33.2804 72.036 33.1403 71.5785 33.1403C71.0492 33.1403 70.6316 33.3521 70.3128 33.7679C70.1135 34.0307 69.9844 34.4162 69.9318 34.9339H73.2012V34.9355ZM76.5775 36.5237H69.9238C69.9828 37.0558 70.1279 37.4524 70.3558 37.7152C70.6762 38.0896 71.0971 38.276 71.6104 38.276C71.9371 38.276 72.2496 38.1947 72.5429 38.0322C72.723 37.9303 72.9159 37.7471 73.1199 37.4874L76.3894 37.7869C75.8888 38.6583 75.2895 39.2795 74.5833 39.6587C73.8739 40.033 72.8601 40.221 71.5402 40.221C70.3941 40.221 69.4887 40.0601 68.8319 39.7383C68.1751 39.4149 67.6284 38.902 67.198 38.1979C66.7676 37.4938 66.5508 36.6687 66.5508 35.7177C66.5508 34.3652 66.9844 33.2693 67.8499 32.4362C68.7187 31.5983 69.9143 31.1777 71.443 31.1777C72.68 31.1777 73.6587 31.3673 74.3761 31.7416C75.0934 32.1144 75.6434 32.6608 76.0148 33.3696C76.3894 34.0817 76.5791 35.0088 76.5791 36.1478L76.5775 36.5237Z" fill="#848688"/>
<path d="M77.6543 31.3769H80.75V32.6385C81.2011 32.1112 81.6458 31.7385 82.1002 31.5123C82.5545 31.2892 83.1044 31.1793 83.7452 31.1793C84.4355 31.1793 84.9806 31.302 85.3839 31.5457C85.7856 31.7894 86.114 32.1542 86.3707 32.6369C86.8903 32.0746 87.3654 31.6875 87.7974 31.4836C88.2246 31.2813 88.7554 31.1777 89.3867 31.1777C90.3176 31.1777 91.0429 31.4517 91.5626 32.0061C92.0854 32.5572 92.3421 33.4206 92.3421 34.593V40.0266H89.0168V35.098C89.0168 34.7077 88.9435 34.4146 88.7905 34.2267C88.5689 33.9288 88.2915 33.7774 87.9584 33.7774C87.5694 33.7774 87.2522 33.9192 87.0115 34.1996C86.7724 34.4847 86.6576 34.9387 86.6576 35.5632V40.0266H83.3276V35.2605C83.3276 34.8798 83.3037 34.6249 83.2638 34.4895C83.1921 34.2713 83.0678 34.096 82.8956 33.9606C82.7218 33.8284 82.5194 33.7615 82.2851 33.7615C81.9041 33.7615 81.5916 33.9065 81.3478 34.1932C81.1039 34.4815 80.9811 34.9546 80.9811 35.6109V40.0266H77.6559L77.6543 31.3769Z" fill="#848688"/>
<path d="M99.8916 34.9355C99.8246 34.2936 99.6525 33.8348 99.3735 33.5576C99.0929 33.2804 98.7263 33.1403 98.2688 33.1403C97.7396 33.1403 97.3203 33.3521 97.0047 33.7679C96.8039 34.0307 96.6747 34.4162 96.6221 34.9339H99.8916V34.9355ZM103.265 36.5237H96.6142C96.6716 37.0558 96.8166 37.4524 97.0414 37.7152C97.3634 38.0896 97.7842 38.276 98.2991 38.276C98.6243 38.276 98.9367 38.1947 99.23 38.0322C99.4086 37.9303 99.603 37.7471 99.8071 37.4874L103.078 37.7869C102.578 38.6583 101.975 39.2795 101.269 39.6587C100.561 40.033 99.5488 40.221 98.2258 40.221C97.078 40.221 96.1774 40.0601 95.5174 39.7383C94.8607 39.4149 94.3155 38.902 93.8835 38.1979C93.4547 37.4938 93.2363 36.6687 93.2363 35.7177C93.2363 34.3652 93.6699 33.2693 94.5339 32.4362C95.4011 31.5983 96.5998 31.1777 98.1269 31.1777C99.3687 31.1777 100.346 31.3673 101.06 31.7416C101.779 32.1144 102.329 32.6608 102.702 33.3696C103.078 34.0817 103.263 35.0088 103.263 36.1478L103.265 36.5237Z" fill="#848688"/>
<path d="M104.32 31.3792H107.413V32.7857C107.873 32.2107 108.341 31.8029 108.817 31.5544C109.289 31.3059 109.866 31.1816 110.545 31.1816C111.463 31.1816 112.182 31.4556 112.702 32.002C113.22 32.5484 113.475 33.3911 113.475 34.5284V40.0305H110.143V35.274C110.143 34.7308 110.045 34.3469 109.844 34.1222C109.641 33.8945 109.359 33.7829 108.996 33.7829C108.594 33.7829 108.267 33.9359 108.02 34.2401C107.767 34.5428 107.644 35.0908 107.644 35.8761V40.0305H104.324L104.32 31.3792Z" fill="#848688"/>
<path d="M119.055 28.0859V31.3786H120.88V33.7983H119.055V36.8679C119.055 37.2375 119.093 37.4828 119.16 37.6023C119.27 37.7855 119.458 37.8795 119.731 37.8795C119.975 37.8795 120.319 37.8078 120.759 37.6644L121.001 39.9567C120.18 40.1351 119.417 40.2243 118.704 40.2243C117.879 40.2243 117.27 40.1192 116.877 39.9073C116.485 39.697 116.194 39.3752 116.01 38.942C115.821 38.5103 115.728 37.811 115.728 36.844V33.7967H114.504V31.377H115.728V29.7856L119.055 28.0859Z" fill="#848688"/>
</svg>
