<svg width="151" height="36" viewBox="0 0 151 36" fill="none" xmlns="http://www.w3.org/2000/svg">
<g clip-path="url(#clip0_2056_917)">
<mask id="mask0_2056_917" style="mask-type:luminance" maskUnits="userSpaceOnUse" x="0" y="0" width="151" height="36">
<path d="M0 0H150.713V36H0V0Z" fill="white"/>
</mask>
<g mask="url(#mask0_2056_917)">
<path d="M41.6791 10.3496H46.5388V16.9842H52.9563V10.3496H57.8106V28.0815H52.9563V21.3441H46.5335V28.0815H41.6738V10.3496H41.6791ZM62.0163 19.2643V19.2156C62.0163 14.1246 65.9827 9.99219 71.39 9.99219C76.7973 9.99219 80.7105 14.0704 80.7105 19.1614V19.2102C80.7105 24.3012 76.7441 28.4282 71.3368 28.4282C65.9295 28.4336 62.0163 24.3554 62.0163 19.2643ZM75.7552 19.2643V19.2156C75.7552 16.6593 74.0165 14.4279 71.3421 14.4279C68.689 14.4279 67.0035 16.6051 67.0035 19.1669V19.2156C67.0035 21.7719 68.7422 24.0033 71.3953 24.0033C74.0644 24.0033 75.7552 21.8261 75.7552 19.2643ZM85.1395 10.3496H89.9991V23.7758H98.0277V28.0815H85.1395V10.3496ZM100.468 19.2643V19.2156C100.468 14.0488 104.397 9.99219 109.709 9.99219C113.287 9.99219 115.595 11.5141 117.147 13.6913L113.489 16.5564C112.49 15.289 111.336 14.4766 109.661 14.4766C107.21 14.4766 105.482 16.578 105.482 19.1614V19.2102C105.482 21.8694 107.21 23.9492 109.661 23.9492C111.49 23.9492 112.564 23.088 113.617 21.7936L117.275 24.4258C115.621 26.733 113.394 28.4282 109.512 28.4282C104.498 28.4336 100.468 24.5612 100.468 19.2643ZM121.635 10.3496H126.516V28.0815H121.635V10.3496ZM131.54 10.3496H136.671L141.126 17.2171L145.582 10.3496H150.713V28.0815H145.88V17.71L141.126 24.6532H141.025L136.293 17.7641V28.0815H131.535V10.3496H131.54Z" fill="#1D4370"/>
<path d="M23.0541 0C18.4018 0 14.4088 3.03295 13.3348 7.70694C13.1115 8.70889 12.9573 9.99789 12.9573 11.7689V15.2189H20.2042V7.38198H25.9039V20.1149C30.083 18.8584 33.1562 14.9264 33.1562 10.247C33.1562 4.47901 28.7219 0 23.0541 0ZM10.0117 35.4638C14.6693 35.4638 18.7474 32.4309 19.8214 27.7569C20.0447 26.7549 20.1989 25.4659 20.1989 23.6949V20.2449H12.952V28.0818H7.25225V15.3489C3.07317 16.6054 0 20.5374 0 25.2114C0 31.2285 4.10465 35.4638 10.0117 35.4638Z" fill="url(#paint0_linear_2056_917)"/>
</g>
</g>
<defs>
<linearGradient id="paint0_linear_2056_917" x1="-0.959169" y1="25.3002" x2="34.2202" y2="10.6406" gradientUnits="userSpaceOnUse">
<stop offset="0.15" stop-color="#94C12E"/>
<stop offset="0.186" stop-color="#8DC137"/>
<stop offset="0.245" stop-color="#7BC04F"/>
<stop offset="0.32" stop-color="#5EBF77"/>
<stop offset="0.407" stop-color="#36BDAE"/>
<stop offset="0.5" stop-color="#04BBF1"/>
<stop offset="0.586" stop-color="#05B7ED"/>
<stop offset="0.674" stop-color="#08ABE0"/>
<stop offset="0.764" stop-color="#0C98CC"/>
<stop offset="0.855" stop-color="#117DAF"/>
<stop offset="0.946" stop-color="#185B8A"/>
<stop offset="1" stop-color="#1D4370"/>
</linearGradient>
<clipPath id="clip0_2056_917">
<rect width="151" height="36" fill="white"/>
</clipPath>
</defs>
</svg>
