<svg width="62" height="99" viewBox="0 0 62 99" fill="none" xmlns="http://www.w3.org/2000/svg">
<g clip-path="url(#clip0_2056_941)">
<path fill-rule="evenodd" clip-rule="evenodd" d="M8.22656 8.11719L31.0625 49.5648L14.2177 80.2365L8.22656 8.11719Z" fill="#2E3192"/>
<path fill-rule="evenodd" clip-rule="evenodd" d="M53.7805 8.11719L31.0625 49.5648L47.9129 80.2365L53.7805 8.11719Z" fill="#2E3192"/>
<path d="M10.6349 0H51.3656C54.291 0 56.9524 1.19983 58.8783 3.13195C60.8043 5.0697 62.0059 7.73974 62.0059 10.6689V88.3255C62.0059 91.2546 60.8099 93.9247 58.8783 95.8624C56.9524 97.8002 54.291 99 51.3656 99H10.6349C7.71515 99 5.05368 97.8002 3.12776 95.868C1.20184 93.9359 0.00585938 91.2659 0.00585938 88.3367V10.6689C0.00585938 7.73974 1.20184 5.0697 3.12776 3.13758C5.05929 1.19983 7.71515 0 10.6349 0ZM51.3656 2.08984H10.6349C8.28226 2.08984 6.14297 3.05309 4.59325 4.6078C3.04353 6.1625 2.08338 8.30868 2.08338 10.6745V88.3311C2.08338 90.6913 3.04353 92.8375 4.59325 94.3922C6.14297 95.9469 8.28226 96.9158 10.6349 96.9158H51.3656C53.7182 96.9158 55.8575 95.9525 57.4072 94.3922C58.957 92.8375 59.9171 90.6913 59.9171 88.3311V10.6689C59.9171 8.30868 58.957 6.1625 57.4072 4.6078C55.8575 3.05309 53.7182 2.08421 51.3656 2.08421V2.08984Z" fill="#2E3192"/>
<path fill-rule="evenodd" clip-rule="evenodd" d="M23.6607 68.9766V72.9422C23.6607 73.0999 23.6383 73.252 23.5877 73.3928C23.5372 73.5337 23.4137 73.6013 23.2171 73.6013C23.0206 73.6013 22.9027 73.483 22.8466 73.252C22.7904 73.0154 22.7623 72.7 22.7623 72.3H20.9487C20.8589 73.2464 21.0329 73.9618 21.4709 74.4406C21.9089 74.9194 22.5377 75.156 23.3575 75.156C23.5147 75.156 23.7281 75.1334 23.9864 75.0884C24.2447 75.0433 24.503 74.9419 24.7556 74.7898C25.0083 74.6377 25.2217 74.4124 25.407 74.1195C25.5866 73.8266 25.6765 73.4379 25.6765 72.9478V68.9822H23.6607V68.9766Z" fill="#2E3192"/>
<path fill-rule="evenodd" clip-rule="evenodd" d="M28.7933 70.4568C28.5519 70.4568 28.288 70.4962 28.0016 70.5695C27.7153 70.6427 27.4457 70.7666 27.1987 70.9469C26.9516 71.1215 26.7495 71.3581 26.581 71.651C26.4182 71.9495 26.334 72.3157 26.334 72.7494C26.334 73.1832 26.407 73.5662 26.553 73.8704C26.699 74.1746 26.8955 74.4224 27.1313 74.6083C27.3727 74.7942 27.6423 74.935 27.9399 75.0195C28.2431 75.104 28.5463 75.1491 28.8607 75.1491C29.1751 75.1491 29.4727 75.104 29.7703 75.0083C30.0679 74.9181 30.3374 74.7717 30.5733 74.5802C30.8091 74.3886 31 74.1408 31.1404 73.8366C31.2807 73.5324 31.3481 73.1719 31.3313 72.7438C31.3144 72.327 31.2246 71.9664 31.0674 71.6735C30.9101 71.3806 30.7136 71.144 30.4722 70.9638C30.2307 70.7835 29.9668 70.6483 29.6692 70.5695C29.3717 70.4906 29.0797 70.4512 28.7821 70.4512L28.7933 70.4568ZM28.7933 71.713C28.9393 71.713 29.0628 71.7468 29.1639 71.8087C29.265 71.8707 29.338 71.9552 29.3997 72.0566C29.4559 72.158 29.5008 72.2706 29.5289 72.3946C29.557 72.5185 29.5682 72.6368 29.5682 72.7438C29.5682 72.8508 29.557 72.986 29.5401 73.1269C29.5233 73.2677 29.484 73.3916 29.4334 73.5099C29.3829 73.6282 29.3099 73.7239 29.2201 73.8028C29.1302 73.8817 29.0123 73.9155 28.8663 73.9155C28.7203 73.9155 28.6024 73.876 28.5013 73.8028C28.4003 73.7239 28.3161 73.6282 28.2543 73.5099C28.1925 73.3916 28.142 73.2677 28.1139 73.1269C28.0858 72.986 28.0746 72.8621 28.0746 72.7438C28.0746 72.6255 28.0858 72.5129 28.1139 72.3946C28.142 72.2706 28.1869 72.158 28.2431 72.0566C28.2992 71.9552 28.3778 71.8707 28.4677 71.8087C28.5575 71.7468 28.6698 71.713 28.7877 71.713H28.7933Z" fill="#2E3192"/>
<path fill-rule="evenodd" clip-rule="evenodd" d="M31.7969 68.9763V74.9642H33.5656V72.542C33.5656 72.3223 33.6273 72.1533 33.7565 72.0407C33.88 71.928 34.0204 71.8717 34.1776 71.8717C34.3348 71.8717 34.4696 71.928 34.5987 72.0407C34.7222 72.1533 34.7896 72.3223 34.7896 72.542V74.9642H36.5415V71.9675C36.5415 71.545 36.418 71.207 36.1765 70.9648C35.9351 70.7226 35.6487 70.5648 35.3174 70.4916C34.9862 70.4184 34.6605 70.4353 34.3292 70.5423C33.9979 70.6493 33.7453 70.8409 33.5712 71.1169V68.9707H31.8025L31.7969 68.9763Z" fill="#2E3192"/>
<path fill-rule="evenodd" clip-rule="evenodd" d="M36.9746 70.5924V74.9636H38.7433V72.4851C38.7433 72.2879 38.8051 72.1415 38.923 72.0457C39.0409 71.95 39.1757 71.9049 39.3216 71.9049C39.4676 71.9049 39.5968 71.95 39.7203 72.0457C39.8382 72.1415 39.9 72.2879 39.9 72.4851V74.9636H41.6575V71.8936C41.6575 71.505 41.5339 71.1952 41.2869 70.9529C41.0398 70.7163 40.7535 70.5643 40.4166 70.5023C40.0797 70.4403 39.7372 70.4629 39.389 70.5812C39.0409 70.6994 38.7545 70.9191 38.5412 71.2458V70.5868H36.9746V70.5924Z" fill="#2E3192"/>
<path fill-rule="evenodd" clip-rule="evenodd" d="M17.5195 77.6504V83.6383H19.5409V81.6893L19.9339 81.2949L21.3545 83.6383H23.7689L21.3545 79.9261L23.5219 77.6504H21.1805L19.5409 79.4529V77.6504H17.5195Z" fill="#2E3192"/>
<path fill-rule="evenodd" clip-rule="evenodd" d="M25.7506 80.8959C25.8236 80.6425 25.9247 80.4735 26.0482 80.3833C26.1718 80.2932 26.3121 80.2482 26.475 80.2482C26.6715 80.2482 26.8455 80.2932 26.9971 80.3833C27.1488 80.4735 27.2554 80.6425 27.3228 80.8959H25.7562H25.7506ZM25.7506 81.8198H29.0129C29.0241 81.6733 29.0129 81.448 28.9736 81.1494C28.9343 80.8509 28.8332 80.5523 28.6536 80.2538C28.4795 79.9552 28.2156 79.6961 27.8675 79.4708C27.5193 79.2455 27.0308 79.1328 26.4132 79.1328C25.8629 79.1328 25.4025 79.2455 25.0432 79.4821C24.6838 79.713 24.4087 80.0003 24.2346 80.3495C24.0549 80.6988 23.9707 81.0706 23.9707 81.4705C23.9707 81.8705 24.0718 82.2422 24.2627 82.5858C24.4536 82.9295 24.7343 83.2111 25.0993 83.4364C25.4699 83.6617 25.9247 83.7688 26.4693 83.7575C26.8624 83.7575 27.1993 83.7181 27.4856 83.6392C27.772 83.5604 28.0134 83.4533 28.2044 83.3181C28.3953 83.1829 28.5525 83.0252 28.6592 82.845C28.7715 82.6647 28.8445 82.4788 28.8781 82.2817H27.1824C27.1431 82.4281 27.0533 82.5351 26.9129 82.6027C26.7669 82.6703 26.6153 82.6929 26.4469 82.6647C26.2841 82.6365 26.1268 82.5577 25.9921 82.4225C25.8517 82.2873 25.7731 82.0901 25.7506 81.831V81.8198Z" fill="#2E3192"/>
<path fill-rule="evenodd" clip-rule="evenodd" d="M31.0553 80.8959C31.1283 80.6425 31.2294 80.4735 31.3529 80.3833C31.4764 80.2932 31.6168 80.2482 31.7796 80.2482C31.9762 80.2482 32.1502 80.2932 32.3018 80.3833C32.4534 80.4735 32.5601 80.6425 32.6275 80.8959H31.0609H31.0553ZM31.0553 81.8198H34.3176C34.3288 81.6733 34.3176 81.448 34.2783 81.1494C34.239 80.8509 34.1379 80.5523 33.9582 80.2538C33.7842 79.9552 33.5203 79.6961 33.1721 79.4708C32.824 79.2455 32.3355 79.1328 31.7179 79.1328C31.1676 79.1328 30.7072 79.2455 30.3478 79.4821C29.9885 79.713 29.7134 80.0003 29.5393 80.3495C29.3596 80.6988 29.2754 81.0706 29.2754 81.4705C29.2754 81.8705 29.3765 82.2422 29.5674 82.5858C29.7583 82.9295 30.039 83.2111 30.404 83.4364C30.7746 83.6617 31.2294 83.7688 31.774 83.7575C32.1671 83.7575 32.504 83.7181 32.7903 83.6392C33.0767 83.5604 33.3181 83.4533 33.509 83.3181C33.7 83.1829 33.8572 83.0252 33.9639 82.845C34.0762 82.6647 34.1491 82.4788 34.1828 82.2817H32.4871C32.4478 82.4281 32.358 82.5351 32.2176 82.6027C32.0716 82.6703 31.92 82.6929 31.7516 82.6647C31.5887 82.6365 31.4315 82.5577 31.2968 82.4225C31.1564 82.2873 31.0778 82.0901 31.0553 81.831V81.8198Z" fill="#2E3192"/>
<path fill-rule="evenodd" clip-rule="evenodd" d="M34.9805 77.5781V83.6392H36.7379V77.5781H34.9805Z" fill="#2E3192"/>
<path fill-rule="evenodd" clip-rule="evenodd" d="M37.7715 77.5781V83.6392H39.5346V77.5781H37.7715Z" fill="#2E3192"/>
<path fill-rule="evenodd" clip-rule="evenodd" d="M42.9708 80.5739H44.5374C44.5542 80.4162 44.5317 80.2528 44.4587 80.0895C44.3858 79.9261 44.2678 79.7796 44.105 79.6501C43.9422 79.5205 43.7176 79.4135 43.4481 79.329C43.1729 79.2445 42.8473 79.2051 42.4598 79.2051C42.2914 79.2051 42.1286 79.222 41.9657 79.2501C41.8029 79.2783 41.6569 79.3177 41.5165 79.3628C41.3818 79.4079 41.2695 79.4473 41.1796 79.4811C41.0898 79.5205 41.0393 79.5374 41.028 79.5431C40.8259 79.6783 40.6799 79.8247 40.5901 79.9881C40.5002 80.1458 40.4497 80.3035 40.4328 80.4612C40.416 80.6133 40.4272 80.7598 40.4553 80.8893C40.489 81.0189 40.5171 81.1147 40.5451 81.1879C40.6013 81.3006 40.7024 81.4076 40.854 81.5146C41.0056 81.6216 41.1852 81.723 41.393 81.8132C41.6008 81.9033 41.8253 81.9878 42.0724 82.0554C42.3138 82.1286 42.5609 82.1793 42.8136 82.2187C42.9146 82.2356 42.982 82.2751 43.0269 82.337C43.0719 82.3934 43.0831 82.4553 43.0719 82.5229C43.0606 82.5849 43.0213 82.6468 42.9539 82.6919C42.8866 82.7426 42.7911 82.7708 42.6676 82.7764C42.516 82.7764 42.3532 82.7482 42.1903 82.6863C42.0219 82.6299 41.9208 82.5116 41.8759 82.337H40.1914C40.2419 82.6637 40.3374 82.9229 40.4834 83.12C40.6294 83.3115 40.8034 83.4636 41.0112 83.5707C41.2189 83.6777 41.4548 83.7453 41.7187 83.7791C41.977 83.8129 42.2521 83.8298 42.5328 83.8298C42.9539 83.8298 43.3189 83.7791 43.6221 83.6833C43.9253 83.5819 44.1668 83.4524 44.3521 83.289C44.5317 83.1256 44.6553 82.9398 44.717 82.7257C44.7788 82.5117 44.7732 82.292 44.7058 82.0554C44.644 81.8413 44.5374 81.6667 44.3858 81.5259C44.2342 81.3907 44.0657 81.2837 43.8804 81.1992C43.6951 81.1147 43.4986 81.0527 43.2908 81.0076C43.0831 80.9626 42.8922 80.9175 42.7181 80.8837C42.5441 80.8443 42.3981 80.8049 42.2745 80.7654C42.1566 80.7204 42.0836 80.6584 42.0556 80.5795C42.0275 80.4556 42.0556 80.3655 42.1398 80.3035C42.224 80.2415 42.3251 80.2134 42.443 80.2134C42.5609 80.2134 42.6732 80.2472 42.7799 80.3035C42.8866 80.3598 42.9483 80.4556 42.9708 80.5795V80.5739Z" fill="#2E3192"/>
<path fill-rule="evenodd" clip-rule="evenodd" d="M12.668 86.2637V92.2516H14.6837V89.9589H16.4468V92.2516H18.4626V86.2637H16.4468V88.2747H14.6837V86.2637H12.668Z" fill="#2E3192"/>
<path fill-rule="evenodd" clip-rule="evenodd" d="M21.3929 87.74C21.1515 87.74 20.8876 87.7794 20.6012 87.8527C20.3149 87.9259 20.0453 88.0498 19.7983 88.2301C19.5512 88.4047 19.3491 88.6413 19.1806 88.9342C19.0178 89.2328 18.9336 89.5989 18.9336 90.0326C18.9336 90.4664 19.0066 90.8494 19.1526 91.1536C19.2986 91.4578 19.4951 91.7056 19.7309 91.8915C19.9724 92.0774 20.2419 92.2182 20.5395 92.3027C20.8427 92.3872 21.1459 92.4323 21.4603 92.4323C21.7747 92.4323 22.0723 92.3872 22.3699 92.2915C22.6675 92.2013 22.937 92.0549 23.1729 91.8634C23.4087 91.6718 23.5996 91.424 23.74 91.1198C23.8803 90.8156 23.9477 90.4551 23.9309 90.027C23.914 89.6102 23.8242 89.2497 23.667 88.9567C23.5098 88.6638 23.3132 88.4272 23.0718 88.247C22.8304 88.0667 22.5664 87.9315 22.2689 87.8527C21.9713 87.7738 21.6793 87.7344 21.3817 87.7344L21.3929 87.74ZM21.3929 88.9962C21.5389 88.9962 21.6624 89.03 21.7635 89.0919C21.8646 89.1539 21.9376 89.2384 21.9993 89.3398C22.0555 89.4412 22.1004 89.5538 22.1285 89.6778C22.1566 89.8017 22.1678 89.92 22.1678 90.027C22.1678 90.134 22.1566 90.2692 22.1397 90.4101C22.1229 90.5509 22.0836 90.6748 22.033 90.7931C21.9825 90.9114 21.9095 91.0071 21.8197 91.086C21.7298 91.1649 21.6119 91.1987 21.4659 91.1987C21.3199 91.1987 21.202 91.1592 21.101 91.086C20.9999 91.0071 20.9157 90.9114 20.8539 90.7931C20.7921 90.6748 20.7416 90.5509 20.7135 90.4101C20.6854 90.2692 20.6742 90.1453 20.6742 90.027C20.6742 89.9087 20.6854 89.7961 20.7135 89.6778C20.7416 89.5538 20.7865 89.4412 20.8427 89.3398C20.8988 89.2384 20.9774 89.1539 21.0673 89.0919C21.1571 89.03 21.2694 88.9962 21.3873 88.9962H21.3929Z" fill="#2E3192"/>
<path fill-rule="evenodd" clip-rule="evenodd" d="M24.5996 86.1855V92.2523H26.3571V86.1855H24.5996Z" fill="#2E3192"/>
<path fill-rule="evenodd" clip-rule="evenodd" d="M30.074 86.1855V88.2022C29.9674 88.0613 29.8214 87.9487 29.6249 87.8585C29.4283 87.7684 29.2206 87.7234 28.9904 87.7121C28.7602 87.7008 28.5243 87.7346 28.2829 87.8079C28.0414 87.8867 27.8281 88.0163 27.6316 88.2022C27.435 88.3881 27.2778 88.6359 27.1599 88.9401C27.0364 89.2499 26.9746 89.6329 26.9746 90.0836C26.9746 90.5342 27.0476 90.9229 27.1936 91.2271C27.3396 91.5313 27.5305 91.7735 27.7551 91.9425C27.9853 92.1171 28.2324 92.2298 28.4963 92.2861C28.7602 92.3424 29.0184 92.3537 29.2655 92.3199C29.5126 92.2861 29.7259 92.2129 29.9056 92.0946C30.0853 91.9763 30.2032 91.8355 30.2593 91.6721V92.2523H31.8259V86.1912H30.0684L30.074 86.1855ZM29.4339 91.075C29.1869 91.075 29.0016 90.9736 28.8837 90.7708C28.7602 90.568 28.6984 90.3427 28.6984 90.1005C28.6984 89.8583 28.7602 89.6329 28.8837 89.4302C29.0072 89.2274 29.1925 89.126 29.4339 89.126C29.6922 89.126 29.8831 89.2274 30.0067 89.4302C30.1302 89.6329 30.1863 89.8583 30.1807 90.1005C30.1751 90.3427 30.1077 90.568 29.9842 90.7708C29.8607 90.9736 29.6754 91.075 29.4339 91.075Z" fill="#2E3192"/>
<path fill-rule="evenodd" clip-rule="evenodd" d="M32.7188 87.9374V92.2523H34.4594V87.9374H32.7188ZM32.7188 86.1855V87.4811H34.4594V86.1855H32.7188Z" fill="#2E3192"/>
<path fill-rule="evenodd" clip-rule="evenodd" d="M35.25 87.8795V92.2507H37.0187V89.7722C37.0187 89.5751 37.0805 89.4286 37.1984 89.3328C37.3163 89.2371 37.4511 89.192 37.597 89.192C37.743 89.192 37.8722 89.2371 37.9957 89.3328C38.1136 89.4286 38.1754 89.5751 38.1754 89.7722V92.2507H39.9328V89.1808C39.9328 88.7921 39.8093 88.4823 39.5623 88.24C39.3152 88.0035 39.0288 87.8514 38.692 87.7894C38.3551 87.7274 38.0125 87.75 37.6644 87.8683C37.3163 87.9866 37.0299 88.2062 36.8166 88.533V87.8739H35.25V87.8795Z" fill="#2E3192"/>
<path fill-rule="evenodd" clip-rule="evenodd" d="M43.6162 87.8812V88.3544C43.5264 88.1967 43.386 88.0671 43.1951 87.977C43.0098 87.8869 42.802 87.8362 42.5718 87.8193C42.3472 87.8024 42.1114 87.8306 41.87 87.8925C41.6285 87.9601 41.4039 88.0728 41.1962 88.2305C40.9884 88.3882 40.82 88.5966 40.6796 88.8558C40.5392 89.1092 40.4606 89.4191 40.4382 89.7739C40.4101 90.3485 40.5112 90.8104 40.747 91.1597C40.9828 91.5089 41.2748 91.7568 41.6173 91.9032C41.9598 92.0497 42.3192 92.0947 42.6954 92.044C43.0716 91.9933 43.3748 91.8469 43.6162 91.6047V92.1229C43.6162 92.3144 43.5601 92.4552 43.4534 92.551C43.3467 92.6411 43.2232 92.6975 43.0884 92.72C42.9537 92.7369 42.8245 92.72 42.6954 92.6693C42.5718 92.6186 42.4932 92.5397 42.4595 92.444H40.7021C40.7133 92.5848 40.7638 92.7313 40.8537 92.889C40.9435 93.0411 41.0783 93.1819 41.2636 93.3115C41.4489 93.4354 41.6903 93.5424 41.9935 93.6213C42.2967 93.7001 42.6617 93.7396 43.0996 93.7396C43.8071 93.7396 44.3405 93.5649 44.6999 93.2157C45.0592 92.8665 45.2389 92.4045 45.2389 91.8243V87.8869H43.6162V87.8812ZM42.8975 89.0529C43.1221 89.0529 43.2962 89.143 43.4028 89.3289C43.5095 89.5148 43.5713 89.7176 43.5713 89.9373C43.5713 90.157 43.5151 90.3654 43.4028 90.5457C43.2905 90.7259 43.1221 90.8217 42.9031 90.8217C42.6841 90.8217 42.5213 90.7316 42.409 90.5457C42.2967 90.3598 42.2349 90.157 42.2349 89.9373C42.2349 89.7176 42.2855 89.5092 42.3978 89.3289C42.5101 89.143 42.6785 89.0529 42.9031 89.0529H42.8975Z" fill="#2E3192"/>
<path fill-rule="evenodd" clip-rule="evenodd" d="M48.5079 89.1813H50.0745C50.0913 89.0236 50.0689 88.8602 49.9959 88.6969C49.9229 88.5335 49.805 88.3871 49.6421 88.2575C49.4793 88.1279 49.2547 88.0209 48.9852 87.9364C48.71 87.8519 48.3844 87.8125 47.9969 87.8125C47.8285 87.8125 47.6657 87.8294 47.5028 87.8576C47.34 87.8857 47.194 87.9252 47.0536 87.9702C46.9189 88.0153 46.8066 88.0547 46.7167 88.0885C46.6269 88.128 46.5764 88.1449 46.5651 88.1505C46.363 88.2857 46.217 88.4321 46.1272 88.5955C46.0373 88.7532 45.9868 88.9109 45.97 89.0687C45.9531 89.2207 45.9643 89.3672 45.9924 89.4968C46.0261 89.6263 46.0542 89.7221 46.0823 89.7953C46.1384 89.908 46.2395 90.015 46.3911 90.122C46.5427 90.2291 46.7224 90.3305 46.9301 90.4206C47.1379 90.5107 47.3625 90.5952 47.6095 90.6628C47.851 90.736 48.098 90.7867 48.3507 90.8262C48.4518 90.8431 48.5191 90.8825 48.5641 90.9444C48.609 91.0008 48.6202 91.0627 48.609 91.1303C48.5977 91.1923 48.5584 91.2543 48.4911 91.2993C48.4237 91.35 48.3282 91.3782 48.2047 91.3838C48.0531 91.3838 47.8903 91.3557 47.7274 91.2937C47.559 91.2374 47.4579 91.1191 47.413 90.9444H45.7285C45.779 91.2712 45.8745 91.5303 46.0205 91.7274C46.1665 91.919 46.3405 92.071 46.5483 92.1781C46.756 92.2851 46.9919 92.3527 47.2558 92.3865C47.5141 92.4203 47.7892 92.4372 48.0699 92.4372C48.4911 92.4372 48.856 92.3865 49.1592 92.2907C49.4624 92.1893 49.7039 92.0598 49.8892 91.8964C50.0689 91.7331 50.1924 91.5472 50.2541 91.3331C50.3159 91.1191 50.3103 90.8994 50.2429 90.6628C50.1812 90.4487 50.0745 90.2741 49.9229 90.1333C49.7713 89.9981 49.6028 89.8911 49.4175 89.8066C49.2322 89.7221 49.0357 89.6601 48.828 89.6151C48.6202 89.57 48.4293 89.5249 48.2552 89.4911C48.0812 89.4517 47.9352 89.4123 47.8117 89.3728C47.6937 89.3278 47.6207 89.2658 47.5927 89.187C47.5646 89.063 47.5927 88.9729 47.6769 88.9109C47.7611 88.849 47.8622 88.8208 47.9801 88.8208C48.098 88.8208 48.2103 88.8546 48.317 88.9109C48.4237 88.9673 48.4854 89.063 48.5079 89.187V89.1813Z" fill="#2E3192"/>
</g>
<defs>
<clipPath id="clip0_2056_941">
<rect width="62" height="99" fill="white"/>
</clipPath>
</defs>
</svg>
