<svg width="155" height="40" viewBox="0 0 155 40" fill="none" xmlns="http://www.w3.org/2000/svg">
<g clip-path="url(#clip0_2056_4997)">
<path d="M45.0401 5.46875H33.6662C33.1085 5.46875 32.5793 5.77505 32.274 6.24658L30.3526 9.37001H41.8119C42.5365 9.41837 43.1064 10.0874 43.1064 10.9015C43.1064 10.9136 43.1064 16.8662 43.1064 16.8662H34.5089V15.1534C34.5089 14.8148 34.7572 14.5408 35.0625 14.5408H41.067V12.3363C41.067 11.7962 40.7657 11.4939 40.3546 11.4939H32.0257C31.008 11.4939 30.1816 12.4088 30.1816 13.5373V18.9781C30.1816 19.0023 30.1898 19.0305 30.202 19.0667C30.316 19.8849 30.951 20.4813 31.7204 20.4813H47.9629V8.71308C47.9629 6.92366 46.6562 5.46875 45.0442 5.46875" fill="#E51636"/>
<path d="M148.661 5.46875H137.291C136.729 5.46875 136.204 5.77505 135.899 6.24658L133.974 9.37001H145.437C146.157 9.41837 146.736 10.0874 146.736 10.9015C146.736 10.9136 146.731 16.8662 146.731 16.8662H138.134V15.1534C138.134 14.8148 138.382 14.5408 138.688 14.5408H144.696V12.3363C144.696 11.7962 144.391 11.4939 143.98 11.4939H135.651C134.633 11.4939 133.807 12.4088 133.807 13.5373V18.9781C133.807 19.0023 133.815 19.0305 133.827 19.0667C133.941 19.8849 134.576 20.4813 135.345 20.4813H151.588V8.71308C151.588 6.92366 150.281 5.46875 148.665 5.46875" fill="#E51636"/>
<path d="M112.855 0.0117188V16.7372H105.719C105.226 16.7372 104.88 16.2495 104.88 15.8465V10.9054C104.88 10.051 105.499 9.36991 106.264 9.36991H109.871C110.412 9.36991 110.962 9.02734 111.19 8.60819L112.851 5.47268C112.851 5.47268 102.853 5.47268 102.845 5.47268C101.233 5.47268 99.9219 6.92356 99.9219 8.71298C99.9219 8.72507 99.9219 8.73313 99.9219 8.74119C99.9219 8.74925 99.9219 17.1362 99.9219 17.7971C99.9219 19.522 101.176 20.4812 102.32 20.4812H117.801V0.0117188H112.847H112.855Z" fill="#E51636"/>
<path d="M123.086 5.47266C121.856 5.47266 121.059 6.52858 121.059 7.66107V20.4812H126.013V10.9256C126.013 10.0671 126.562 9.35376 127.348 9.35376H131.012C131.545 9.31346 132.005 8.97089 132.29 8.50742C132.302 8.48324 134.211 5.47266 134.211 5.47266H123.086Z" fill="#E51636"/>
<path d="M71.666 10.3537V20.4816H76.5835V5.64635C76.5835 5.64635 74.2998 7.22217 72.6878 8.33854C72.0731 8.77783 71.666 9.51537 71.666 10.3537ZM71.666 0H76.5835V3.78035L71.666 7.40353V0Z" fill="#E51636"/>
<path d="M23.6636 0.0117188H0V20.4812H4.91346V4.79157H10.1648C10.6655 4.79963 11.0644 5.25504 11.0644 5.81122V20.4812H15.982V5.81122C15.982 5.24698 16.3972 4.78754 16.9061 4.78754C16.9061 4.78754 16.9101 4.78754 16.9142 4.78754H20.7855C21.5305 4.78754 22.137 5.45656 22.137 6.28678V20.4812H27.0546V3.77595C27.0586 1.70038 25.5402 0.0117188 23.6636 0.0117188Z" fill="#E51636"/>
<path d="M93.8076 5.47278C93.7588 5.47278 79.8203 5.48084 79.8203 5.48084V20.4773H84.7704V9.36195H90.4044C91.1697 9.36195 91.7885 10.0471 91.7885 10.8934V20.4733H96.7264V8.70905C96.7264 6.91963 95.4196 5.46875 93.8035 5.46875" fill="#E51636"/>
<path d="M68.4182 8.71285C68.4182 6.92343 67.1114 5.47255 65.4953 5.47255C65.4831 5.47255 65.4546 5.47255 65.4505 5.47255H59.0268C58.4488 5.47255 58.1679 5.79497 57.8707 6.29069C57.8544 6.31487 55.9371 9.36978 55.9371 9.36978H62.1776C62.9144 9.40605 63.5047 10.0791 63.5047 10.9013C63.5047 10.9093 63.5047 20.4771 63.5047 20.4771H68.4222V8.70882M51.0195 0.015625H55.9411V20.4811H51.0195V0.015625Z" fill="#E51636"/>
<path d="M125.408 28.9931C125.408 28.4732 125.319 28.046 125.148 27.6994C124.973 27.3568 124.749 27.0788 124.46 26.8652C124.175 26.6556 123.853 26.5065 123.491 26.4178C123.129 26.3332 122.754 26.2888 122.376 26.2888C121.997 26.2888 121.61 26.2929 121.224 26.3009C120.837 26.309 120.45 26.313 120.076 26.313L119.4 32.3785C119.795 32.4188 120.182 32.447 120.552 32.4793C120.927 32.5075 121.305 32.5236 121.704 32.5236C122.897 32.5236 123.809 32.2254 124.448 31.6329C125.087 31.0405 125.408 30.1579 125.408 28.9891M127.114 38.9155C127.114 39.2259 126.968 39.4717 126.674 39.645C126.381 39.8223 125.881 39.911 125.172 39.911C125.001 39.911 124.851 39.8586 124.716 39.7498C124.59 39.645 124.488 39.516 124.419 39.3629L121.908 33.6722C121.822 33.6924 121.708 33.7004 121.57 33.7004H121.285C120.906 33.7004 120.572 33.6843 120.287 33.6561C120.002 33.6279 119.669 33.5835 119.29 33.5271L118.57 39.7055C118.484 39.7458 118.374 39.774 118.244 39.7901C118.114 39.8102 117.955 39.8223 117.764 39.8223C117.47 39.8223 117.271 39.7579 117.157 39.6329C117.043 39.508 116.986 39.3105 116.986 39.0445C116.986 38.9478 117.006 38.7301 117.039 38.3835C117.071 38.0369 117.116 37.6097 117.169 37.0898C117.218 36.5699 117.283 35.9896 117.352 35.3367C117.422 34.6838 117.499 33.9946 117.584 33.2692C117.723 32.1004 117.865 30.9397 118.012 29.7911C118.158 28.6425 118.305 27.4818 118.439 26.313L116.758 26.2566C116.689 26.1599 116.656 26.0269 116.656 25.8536C116.656 25.2611 117.08 24.9629 117.922 24.9629H122.718C123.235 24.9629 123.752 25.0233 124.265 25.1362C124.786 25.249 125.25 25.4505 125.653 25.7367C126.056 26.0228 126.385 26.4057 126.638 26.8853C126.886 27.3609 127.012 27.9533 127.012 28.6626C127.012 29.9805 126.699 31.0123 126.068 31.7458C125.441 32.4793 124.57 33.0314 123.467 33.3941L125.82 38.5004L126.935 38.3835C127.057 38.5206 127.114 38.6939 127.114 38.9115" fill="#656263"/>
<path d="M132.753 25.5271C132.753 25.8898 132.647 26.18 132.439 26.3895C132.231 26.6031 131.93 26.7079 131.531 26.7079C131.238 26.7079 131.002 26.6354 130.823 26.4943C130.64 26.3492 130.55 26.1034 130.55 25.7608C130.55 25.4182 130.664 25.1321 130.888 24.9145C131.112 24.6928 131.421 24.584 131.82 24.584C132.166 24.584 132.407 24.6686 132.545 24.8419C132.687 25.0152 132.757 25.2449 132.757 25.5311M133.204 38.9155C133.204 39.1895 133.038 39.4192 132.708 39.6046C132.378 39.79 131.833 39.8827 131.051 39.8827C130.567 39.8827 130.204 39.7779 129.964 39.5643C129.72 39.3548 129.602 38.9719 129.602 38.4157C129.602 38.0127 129.651 37.4203 129.756 36.6344L130.64 29.8233L129.007 29.8797C128.885 29.7669 128.824 29.6137 128.824 29.4203C128.824 29.0938 128.991 28.856 129.329 28.7029C129.667 28.5497 130.249 28.4732 131.079 28.4732C131.58 28.4732 131.906 28.5417 132.061 28.6868C132.215 28.8318 132.272 29.114 132.215 29.5331L131.674 33.9744C131.552 34.9296 131.446 35.7598 131.36 36.4691C131.275 37.1744 131.23 37.6419 131.23 37.8716C131.23 38.1417 131.271 38.3069 131.36 38.3754C131.446 38.4439 131.658 38.4762 131.983 38.4762C132.101 38.4762 132.272 38.452 132.488 38.3996C132.708 38.3512 132.875 38.3109 132.993 38.2706C133.131 38.3875 133.2 38.6011 133.2 38.9114" fill="#656263"/>
<path d="M142.243 29.5375C142.243 29.8075 142.198 30.005 142.104 30.1259C142.007 30.2508 141.864 30.3516 141.677 30.4322C141.331 30.1219 140.948 29.9163 140.537 29.8115C140.122 29.7067 139.654 29.6543 139.141 29.6543C138.396 29.6543 137.83 29.8357 137.443 30.1984C137.053 30.5652 136.857 30.9642 136.857 31.4075C136.857 31.6936 136.89 31.9355 136.959 32.137C137.028 32.3385 137.158 32.5239 137.35 32.6972C137.537 32.8705 137.802 33.0357 138.135 33.2009C138.473 33.3622 138.901 33.5516 139.418 33.7611C139.886 33.9707 140.268 34.1722 140.574 34.3657C140.875 34.5591 141.111 34.7647 141.282 34.9823C141.453 35.1999 141.579 35.4418 141.644 35.6997C141.714 35.9576 141.75 36.2397 141.75 36.5501C141.75 36.9531 141.677 37.3561 141.526 37.7551C141.376 38.1581 141.156 38.5168 140.851 38.8352C140.549 39.1496 140.163 39.4035 139.699 39.5969C139.23 39.7904 138.681 39.8831 138.038 39.8831C137.793 39.8831 137.464 39.875 137.04 39.8589C136.617 39.8387 136.194 39.7783 135.77 39.6735C135.347 39.5727 134.98 39.4115 134.671 39.1979C134.362 38.9843 134.207 38.6861 134.207 38.3072C134.207 38.0372 134.284 37.8276 134.443 37.6745C134.594 37.5214 134.797 37.4045 135.037 37.3319C135.4 37.7914 135.884 38.1219 136.487 38.3234C137.093 38.5249 137.659 38.6256 138.196 38.6256C138.852 38.6256 139.365 38.4685 139.735 38.1501C140.106 37.8317 140.293 37.4166 140.293 36.8967C140.293 36.4735 140.146 36.1188 139.849 35.8327C139.556 35.5425 139.002 35.2362 138.192 34.9098C137.675 34.7163 137.236 34.5148 136.869 34.3052C136.507 34.0957 136.218 33.8659 136.002 33.612C135.787 33.3622 135.628 33.076 135.522 32.7496C135.416 32.4231 135.367 32.0402 135.367 31.5969C135.367 31.1133 135.469 30.674 135.664 30.271C135.864 29.868 136.141 29.5173 136.495 29.2191C136.845 28.9208 137.268 28.6871 137.765 28.5138C138.253 28.3405 138.791 28.2559 139.381 28.2559C140.277 28.2559 140.981 28.3727 141.482 28.6145C141.978 28.8523 142.231 29.1667 142.231 29.5496" fill="#656263"/>
<path d="M150.22 31.1781C150.22 30.6582 150.078 30.2552 149.793 29.953C149.508 29.6587 149.003 29.5096 148.278 29.5096C147.948 29.5096 147.607 29.5661 147.24 29.6829C146.878 29.7998 146.532 29.9892 146.206 30.2593C145.876 30.5293 145.583 30.892 145.315 31.3514C145.046 31.8109 144.842 32.3872 144.704 33.0764C144.997 33.1368 145.364 33.1771 145.807 33.2094C146.247 33.2376 146.646 33.2537 147.012 33.2537C148.201 33.2537 149.035 33.0764 149.508 32.7217C149.984 32.3671 150.22 31.8512 150.22 31.1822M151.62 30.9766C151.62 33.2739 150.114 34.4265 147.114 34.4265C146.715 34.4265 146.3 34.4104 145.868 34.3822C145.437 34.354 144.997 34.3016 144.549 34.225C144.533 34.3378 144.521 34.4547 144.521 34.5676V34.8537C144.521 37.3444 145.445 38.5897 147.289 38.5897C147.863 38.5897 148.429 38.5252 148.999 38.3882C149.573 38.2552 150.13 38.0457 150.684 37.7555C150.888 37.9247 150.993 38.1464 150.993 38.4164C150.993 38.8033 150.688 39.158 150.09 39.4925C149.483 39.827 148.49 39.9963 147.11 39.9963C144.362 39.9963 142.99 38.4043 142.99 35.2245C142.99 34.1928 143.112 33.2416 143.357 32.3832C143.597 31.5207 143.951 30.7832 144.415 30.1706C144.883 29.558 145.461 29.0865 146.153 28.7479C146.845 28.4134 147.647 28.2441 148.563 28.2441C149.149 28.2441 149.638 28.3167 150.025 28.4577C150.415 28.6028 150.725 28.7923 150.957 29.0341C151.193 29.2718 151.364 29.562 151.462 29.8965C151.567 30.231 151.62 30.5897 151.62 30.9726" fill="#656263"/>
<path d="M155 38.4763C155 38.8995 154.878 39.2219 154.637 39.4517C154.393 39.6814 154.059 39.7942 153.628 39.7942C153.319 39.7942 153.058 39.7136 152.85 39.5484C152.647 39.3872 152.541 39.1131 152.541 38.7302C152.541 38.3474 152.663 38.029 152.907 37.7791C153.148 37.5292 153.494 37.4043 153.941 37.4043C154.32 37.4043 154.597 37.501 154.76 37.6904C154.922 37.8839 155.004 38.1418 155.004 38.4683" fill="#656263"/>
</g>
<defs>
<clipPath id="clip0_2056_4997">
<rect width="155" height="40" fill="white"/>
</clipPath>
</defs>
</svg>
