<svg width="178" height="37" viewBox="0 0 178 37" fill="none" xmlns="http://www.w3.org/2000/svg">
<path d="M0.333984 0V36.3701H36.7041V0H0.333984ZM8.93505 30.9821C7.58519 29.9402 6.79429 27.9554 6.79429 27.9554C5.65737 27.5105 4.03754 26.4306 4.03754 26.4306C4.03754 26.4306 5.09841 25.8526 6.0224 25.6777C5.67638 23.7309 6.13647 21.0692 6.13647 21.0692C6.13647 21.0692 6.46348 23.4761 7.61941 25.3089C9.06433 25.0199 10.2583 24.902 10.2583 24.902C10.2583 24.902 9.4864 25.9819 9.08335 27.1759C9.96931 28.0618 11.6272 28.9858 12.2432 29.2178C10.8743 29.1417 9.33431 28.8908 8.75254 28.6588C8.74493 29.4954 8.78295 30.3661 8.93505 30.9821ZM12.5778 19.6471C11.7869 17.9892 11.2659 15.8105 11.2659 15.8105C11.2659 15.8105 9.33811 17.0044 6.42926 19.8372C8.12514 16.4645 10.148 14.3427 10.148 14.3427C10.148 14.3427 9.39514 13.5898 6.63839 13.3389C9.30008 12.3959 12.2279 12.7039 12.2279 12.7039C12.2279 12.7039 13.5208 11.605 15.6767 10.989C15.6767 10.989 15.1178 11.7419 14.6919 12.9358C17.7567 13.2628 20.6085 15.0766 20.6085 15.0766C20.6085 15.0766 15.8669 14.3237 13.863 14.9625C13.1557 16.6812 12.7527 18.5482 12.5778 19.6471ZM19.4411 29.2064C19.4677 29.7387 19.6769 30.2787 19.6769 30.2787C19.6769 30.2787 19.2586 30.3319 18.0723 30.3623C16.403 31.3243 14.3725 31.6932 14.3725 31.6932C14.3725 31.6932 15.6653 30.8452 16.3193 30.1684C15.2775 30.0125 14.3725 29.5334 14.3725 29.5334C14.3725 29.5334 16.1178 29.4155 17.3992 29.1075C17.9962 28.4915 19.1331 26.9097 19.1331 26.9097C19.1331 26.9097 19.1902 27.7957 19.308 28.3927C20.791 27.6778 22.0268 26.7538 22.0268 26.7538C22.0268 26.7538 20.9317 28.1037 19.4411 29.2064ZM31.126 8.07634C31.2705 10.6011 30.7229 13.6469 29.8217 16.0082C29.8217 14.4416 29.6696 11.5632 28.7152 9.60872C27.97 10.122 26.0687 11.0726 23.3956 12.4339C23.8063 12.0232 25.582 9.9167 26.0954 9.01553C24.2436 9.04215 21.0343 9.2741 18.3612 9.86347C20.1332 8.88625 23.6048 7.73032 26.43 7.24361C25.2208 6.21696 22.9089 4.93174 21.137 4.05718C22.5781 4.11042 28.0498 5.13707 29.9016 6.57438C31.1374 6.2816 32.7534 6.24357 32.7534 6.24357C32.3732 7.02307 31.8522 7.59724 31.126 8.07634Z" fill="#008B6B"/>
<path d="M54.3002 29.1758C55.901 28.7728 56.8934 27.4837 56.8934 26.1947C56.8934 24.9057 55.5968 23.2402 52.6955 23.2402C49.7943 23.2402 46.3379 23.2402 46.3379 23.2402C46.3379 23.2402 46.4634 26.7765 46.4634 29.6777C46.4634 32.5828 46.3379 36.2673 46.3379 36.2673C46.3379 36.2673 50.1517 36.37 52.5434 36.37C54.9352 36.37 57.479 35.1836 57.479 32.7083C57.479 30.2367 54.8857 29.3773 54.3002 29.1758ZM51.6803 34.754C50.5624 34.754 49.5053 34.754 49.5053 34.754C49.5053 34.754 49.4407 31.674 49.4407 29.6017C49.4407 27.5294 49.5661 24.727 49.5661 24.727C50.4559 24.727 53.764 24.2707 53.764 26.5179C53.764 28.7652 50.9921 28.3887 50.9921 28.3887L50.3304 30.3089C50.3304 30.3089 51.0681 30.3089 51.6537 30.3089C52.2392 30.3089 54.3762 30.6892 54.3762 32.5067C54.3762 34.3243 52.7982 34.754 51.6803 34.754Z" fill="#008B6B"/>
<path d="M148.148 29.1758C149.749 28.7728 150.741 27.4837 150.741 26.1947C150.741 24.9057 149.444 23.2402 146.543 23.2402C143.642 23.2402 140.186 23.2402 140.186 23.2402C140.186 23.2402 140.311 26.7765 140.311 29.6777C140.311 32.5828 140.186 36.2673 140.186 36.2673C140.186 36.2673 143.999 36.37 146.391 36.37C148.783 36.37 151.327 35.1836 151.327 32.7083C151.327 30.2367 148.733 29.3773 148.148 29.1758ZM145.528 34.754C144.41 34.754 143.353 34.754 143.353 34.754C143.353 34.754 143.288 31.674 143.288 29.6017C143.288 27.5294 143.414 24.727 143.414 24.727C144.304 24.727 147.612 24.2707 147.612 26.5179C147.612 28.7652 144.84 28.3887 144.84 28.3887L144.178 30.3089C144.178 30.3089 144.916 30.3089 145.501 30.3089C146.087 30.3089 148.224 30.6892 148.224 32.5067C148.224 34.3243 146.65 34.754 145.528 34.754Z" fill="#008B6B"/>
<path d="M60.6621 23.2402C60.6621 23.2402 60.837 27.4305 60.837 28.9477C60.837 30.4648 60.6621 36.3738 60.6621 36.3738H63.4569C63.4569 36.3738 63.3048 32.4611 63.3048 30.7424C63.3048 29.0237 63.3048 26.8031 63.3048 26.8031C63.3048 26.8031 63.6052 27.6624 64.7155 29.4306C65.822 31.1987 68.997 36.3738 68.997 36.3738H71.2899C71.2899 36.3738 71.0617 33.3319 71.0617 29.7272C71.0617 26.1225 71.2899 23.244 71.2899 23.244H68.4457L68.7461 31.2976L63.8371 23.244H60.6621V23.2402Z" fill="#008B6B"/>
<path d="M80.318 23.2402C75.6905 23.2402 75.257 23.2402 75.2266 23.2402C75.2266 23.2402 75.3825 26.7385 75.3825 29.807C75.3825 32.8756 75.2266 36.3738 75.2266 36.3738H78.5955C78.5955 36.3738 78.3636 33.7501 78.3636 30.9972C79.6222 30.9972 85.9228 31.5903 85.9228 27.0122C85.9266 26.0844 85.6946 23.2402 80.318 23.2402ZM78.3902 29.3241V24.8753C78.3902 24.8753 82.8922 24.3848 82.8922 26.959C82.8922 29.864 78.3902 29.3241 78.3902 29.3241Z" fill="#008B6B"/>
<path d="M98.2594 23.2402C93.6319 23.2402 93.1984 23.2402 93.168 23.2402C93.168 23.2402 93.3239 26.7385 93.3239 29.807C93.3239 32.8756 93.168 36.3738 93.168 36.3738H96.5369C96.5369 36.3738 96.305 33.7501 96.305 30.9972C97.5636 30.9972 103.864 31.5903 103.864 27.0122C103.868 26.0844 103.636 23.2402 98.2594 23.2402ZM96.3316 29.3241V24.8753C96.3316 24.8753 100.834 24.3848 100.834 26.959C100.834 29.864 96.3316 29.3241 96.3316 29.3241Z" fill="#008B6B"/>
<path d="M111.461 23.2402H109.123C109.123 23.2402 107.248 28.3469 103.814 36.37C104.263 36.37 106.731 36.37 106.731 36.37L107.659 33.2558H112.339L113.446 36.37H116.815L111.461 23.2402ZM108.298 31.5105L109.993 27.1377L111.716 31.5105H108.298Z" fill="#008B6B"/>
<path d="M160.496 23.2402H158.154C158.154 23.2402 156.279 28.3469 152.846 36.37C153.294 36.37 155.762 36.37 155.762 36.37L156.69 33.2558H161.371L162.477 36.37H165.846L160.496 23.2402ZM157.336 31.5105L159.032 27.1377L160.755 31.5105H157.336Z" fill="#008B6B"/>
<path d="M118.924 23.2402C118.924 23.2402 119.103 25.6472 119.103 29.2214C119.103 32.7957 118.924 36.3738 118.924 36.3738H122.24C122.24 36.3738 122.061 32.887 122.061 29.807C122.061 26.7271 122.24 24.9019 122.24 24.9019C122.24 24.9019 126.586 24.2859 126.586 27.0122C126.586 29.7386 123.19 29.3545 123.19 29.3545L126.996 36.3776H130.597L126.92 30.4876C126.92 30.4876 129.647 29.9477 129.647 26.9628C129.647 23.9779 126.122 23.244 124.323 23.244C122.525 23.2402 118.924 23.2402 118.924 23.2402Z" fill="#008B6B"/>
<path d="M132.91 23.2402C132.91 23.2402 133.169 25.3354 133.169 29.3507C133.169 33.3623 132.91 36.3738 132.91 36.3738H136.306C136.306 36.3738 136.074 33.2368 136.074 29.3013C136.074 25.3658 136.306 23.244 136.306 23.244H132.91V23.2402Z" fill="#008B6B"/>
<path d="M176.181 23.3506C176.181 23.3506 174.42 22.8145 172.53 22.8145C170.64 22.8145 167.484 23.5864 167.484 26.6131C167.484 29.0542 170.081 30.1075 171.062 30.5752C171.979 31.0125 174.333 31.6741 174.39 33.0658C174.435 34.2369 173.249 34.5601 172.013 34.5145C170.827 34.4689 168.925 33.7616 167.678 33.0125C167.678 34.0658 167.678 35.9556 167.678 35.9556C167.678 35.9556 169.933 36.5982 171.834 36.5982C173.736 36.5982 177.222 35.9138 177.222 32.5486C177.222 30.1379 175.051 29.1113 173.047 28.2899C171.215 27.5371 170.321 26.9591 170.321 26.0351C170.321 25.1111 171.564 24.9628 172.169 24.9628C172.77 24.9628 173.907 24.9628 176.184 26.1872C176.181 25.1111 176.181 23.3506 176.181 23.3506Z" fill="#008B6B"/>
</svg>
