<svg width="66" height="63" viewBox="0 0 66 63" fill="none" xmlns="http://www.w3.org/2000/svg">
<g clip-path="url(#clip0_2056_2037)">
<path fill-rule="evenodd" clip-rule="evenodd" d="M45.0573 57.5099H39.8165V47.7406H44.9111C46.3309 47.7406 47.6255 48.3668 48.3562 49.0974C48.7947 49.5358 49.087 49.9115 49.3585 50.496C50.4442 52.9384 49.3585 55.7773 46.9991 56.9672C46.5397 57.1968 45.6837 57.5099 45.0573 57.5099ZM44.2639 41.2694H39.8165V33.3161H43.9716C45.1199 33.3161 46.4353 33.8171 47.1452 34.2972C49.7761 36.0924 48.9618 39.5785 45.9342 40.8101C45.5375 40.9771 44.7859 41.2485 44.2639 41.2485V41.2694ZM0.082913 27.1163C0.082913 31.2704 2.67197 32.4394 6.2006 32.4394H12.9029V45.9244C15.2832 45.9244 25.4932 46.0706 27.1636 45.7575C27.7065 45.6531 28.3955 45.34 28.7087 45.0477C29.523 44.2753 29.8988 43.2734 29.8988 41.7078V36.8857H23.5514V39.5785H20.0437V33.4622H33.4692V57.4473H8.60174C8.37206 57.4473 6.7017 55.6521 6.43027 55.3807C5.65773 54.6083 4.61376 53.4811 3.77858 52.7922C3.56978 52.6252 3.42363 52.4582 3.21483 52.2495C2.85988 51.8946 0.312587 49.2227 -0.0214844 49.1392C-0.0214844 49.5149 0.0620335 49.5358 0.0620335 49.9324V62.9791H46.143C48.2519 62.9791 50.3398 62.3738 51.9266 61.33C52.2189 61.1421 52.386 61.0169 52.6574 60.8081C53.9937 59.7227 54.5992 59.0338 55.5388 57.4056C56.7498 55.2763 56.7916 54.3579 56.7916 52.0408C56.7916 50.162 55.9146 48.0119 54.7871 46.5507C53.9728 45.507 52.8036 44.6928 51.6134 44.1083C51.3838 44.004 51.1959 43.9205 50.9662 43.8161C50.653 43.6909 50.486 43.7535 50.4651 43.3777C50.9453 43.2734 51.8014 42.6262 52.1772 42.334C53.7431 41.1233 54.7662 38.7435 54.7662 36.5308C54.7662 34.3181 54.6618 33.3996 53.597 31.5626C52.3442 29.3916 50.3816 27.826 47.9804 26.9702C46.8947 26.5736 45.2034 26.0934 43.7419 26.0934H20.0437V20.7078H23.5514V23.338H29.8988V18.161C29.8988 16.8877 28.8548 15.8439 28.0614 15.3221C27.1427 14.7376 25.7647 14.3618 24.2822 14.3618H12.6941V26.0308H7.45337V11.8151C7.45337 11.5229 10.9194 8.32903 11.5875 7.64016C11.7963 7.43141 12.8611 6.2833 13.0699 6.2833H53.9728C54.2025 6.2833 56.6245 8.83002 56.8333 9.03877C57.0421 9.24751 59.5894 11.669 59.5894 11.8986V19.9145C59.5894 20.2068 58.6707 20.8748 58.4828 21.0626L53.3882 26.1769H62.8675C64.0994 26.1769 63.7653 25.9682 65.1016 24.6322C65.2895 24.4443 65.9994 23.8598 65.9994 23.6302V0.208748C65.9994 0.0417495 65.9576 0 65.7906 0H0.082913V27.1163Z" fill="#2E3192"/>
<path fill-rule="evenodd" clip-rule="evenodd" d="M59.5691 57.8847C59.5691 58.2395 58.1075 59.4085 57.6899 59.8052C57.0635 60.4314 54.7459 62.665 54.5371 62.9781H65.4153C65.6867 62.9781 65.9164 63.0407 65.9164 62.7694V35.9453H59.5691V57.8847Z" fill="#2E3192"/>
<path fill-rule="evenodd" clip-rule="evenodd" d="M62.6594 28.4121C64.4133 28.4121 65.854 29.8316 65.854 31.6059C65.854 33.3803 64.4342 34.7998 62.6594 34.7998C60.8846 34.7998 59.4648 33.3803 59.4648 31.6059C59.4648 29.8316 60.8846 28.4121 62.6594 28.4121Z" fill="#2E3192"/>
</g>
<defs>
<clipPath id="clip0_2056_2037">
<rect width="66" height="63" fill="white"/>
</clipPath>
</defs>
</svg>
