<svg width="210" height="48" viewBox="0 0 210 48" fill="none" xmlns="http://www.w3.org/2000/svg">
<path d="M18.9766 10.5547V22.9359L23.8969 18.5928V15.1851C23.904 12.626 21.6959 10.5547 18.9766 10.5547Z" fill="#CC2E6E"/>
<path d="M23.9047 41.5452V27.0859L18.9844 31.3823V36.9147C18.9773 39.4738 21.1854 41.5452 23.9047 41.5452Z" fill="#CC2E6E"/>
<path d="M9.53539 23.2657C10.9199 25.5241 11.2749 27.6823 10.785 29.5732C11.5589 28.277 11.992 26.787 11.992 25.2034C11.992 20.3191 7.83138 16.3301 2.66963 16.2031H2.46372C1.10761 16.2031 0 17.2388 0 18.5217C0 19.7979 1.10051 20.8402 2.46372 20.8402H5.06235C6.90836 20.8402 8.61238 21.769 9.53539 23.2657Z" fill="url(#paint0_linear_2056_6082)"/>
<path d="M39.4132 10.4274C36.3388 10.4274 33.5201 11.4831 31.3475 13.2271L31.312 13.2605C31.0706 13.4542 30.8434 13.6547 30.6162 13.8618L23.9066 19.715V19.6482L18.9863 23.9913V24.0047L17.403 25.3878L17.3391 25.4412L17.0764 25.6684L15.8622 26.7308C15.3936 22.3543 12.3619 18.686 8.20839 17.069C10.9916 18.8263 12.8234 21.8064 12.8234 25.194C12.8234 27.6596 11.8507 29.918 10.239 31.6352L8.94678 32.7577L8.66278 33.0049L8.22967 33.3858C8.22257 33.3925 8.22258 33.3925 8.21548 33.3991C6.92326 34.388 5.27606 34.976 3.48684 34.976H2.47153C1.11542 34.976 0.0078125 36.0117 0.0078125 37.2946C0.0078125 38.5708 1.10832 39.6131 2.47153 39.6131H3.48684C6.52567 39.6131 9.31598 38.5841 11.4815 36.8736C11.4886 36.8669 11.5028 36.8603 11.5099 36.8536C11.8081 36.6197 12.0921 36.3725 12.3619 36.1119L12.3761 36.0985L18.9934 30.3256V30.3322L21.876 27.8132L23.9137 26.0292L25.4757 24.6661L27.0448 23.2964C27.5063 27.6729 30.5381 31.3479 34.6987 32.9581C31.9226 31.2009 30.0908 28.2208 30.0908 24.8399C30.0908 22.361 31.0777 20.0959 32.7036 18.3653L34.0313 17.2094L34.223 17.0423L34.6277 16.6882C35.9341 15.6659 37.6097 15.0512 39.4344 15.0512H40.4498C41.8059 15.0512 42.9135 14.0155 42.9135 12.7326C42.9135 11.4564 41.813 10.4141 40.4498 10.4141H39.4132V10.4274Z" fill="url(#paint1_linear_2056_6082)"/>
<path d="M31.8924 22.1325C31.8924 21.5579 31.9634 20.9966 32.1054 20.4688C31.3386 21.765 30.8984 23.255 30.8984 24.8453C30.8984 29.7296 35.0591 33.7186 40.2208 33.8455H40.4267C41.7828 33.8455 42.8905 32.8099 42.8905 31.527C42.8905 30.2508 41.7899 29.2084 40.4267 29.2084H39.4114C35.265 29.2084 31.8924 26.0346 31.8924 22.1325Z" fill="url(#paint2_linear_2056_6082)"/>
<path d="M71.2511 37L66.04 27.7959H63.8066V37H59.0692V13.3806H67.935C69.7622 13.3806 71.3188 13.7077 72.6047 14.362C73.8906 14.9936 74.8493 15.8621 75.481 16.9675C76.1352 18.0504 76.4623 19.2686 76.4623 20.6221C76.4623 22.1787 76.0111 23.5886 75.1087 24.8519C74.2064 26.0927 72.8641 26.9499 71.082 27.4237L76.733 37H71.2511ZM63.8066 24.2428H67.7658C69.0516 24.2428 70.0104 23.9383 70.642 23.3292C71.2737 22.6975 71.5895 21.829 71.5895 20.7236C71.5895 19.6408 71.2737 18.8061 70.642 18.2196C70.0104 17.6105 69.0516 17.3059 67.7658 17.3059H63.8066V24.2428ZM85.4845 13.3806V37H80.7471V13.3806H85.4845ZM106.611 20.4868C106.069 19.4942 105.325 18.7384 104.377 18.2196C103.43 17.7007 102.324 17.4413 101.061 17.4413C99.6625 17.4413 98.4217 17.7571 97.3389 18.3888C96.256 19.0204 95.4101 19.9228 94.801 21.0958C94.1919 22.2689 93.8873 23.6225 93.8873 25.1565C93.8873 26.7356 94.1919 28.1117 94.801 29.2848C95.4326 30.4579 96.3012 31.3602 97.4066 31.9919C98.5119 32.6235 99.7978 32.9394 101.264 32.9394C103.069 32.9394 104.546 32.4656 105.697 31.5181C106.848 30.5481 107.603 29.2058 107.964 27.4913H99.8429V23.8706H112.634V27.9989C112.318 29.6457 111.641 31.1685 110.604 32.5671C109.566 33.9658 108.224 35.0938 106.577 35.951C104.953 36.7857 103.125 37.203 101.095 37.203C98.8165 37.203 96.7523 36.6955 94.9025 35.6803C93.0752 34.6426 91.6314 33.2101 90.5711 31.3828C89.5334 29.5555 89.0146 27.4801 89.0146 25.1565C89.0146 22.8329 89.5334 20.7575 90.5711 18.9302C91.6314 17.0803 93.0752 15.6478 94.9025 14.6327C96.7523 13.595 98.8052 13.0761 101.061 13.0761C103.723 13.0761 106.035 13.7303 107.998 15.0387C109.961 16.3246 111.314 18.1406 112.059 20.4868H106.611ZM137.356 13.3806L128.693 37H122.94L114.278 13.3806H119.354L125.851 32.1611L132.314 13.3806H137.356ZM144.933 17.2044V23.1262H152.886V26.8823H144.933V33.1424H153.901V37H140.196V13.3468H153.901V17.2044H144.933ZM166.462 13.3806C168.944 13.3806 171.121 13.8657 172.993 14.8357C174.888 15.8057 176.343 17.1931 177.358 18.9979C178.396 20.78 178.915 22.8555 178.915 25.2242C178.915 27.5929 178.396 29.6683 177.358 31.4505C176.343 33.2101 174.888 34.5749 172.993 35.5449C171.121 36.515 168.944 37 166.462 37H158.206V13.3806H166.462ZM166.293 32.9732C168.775 32.9732 170.692 32.2964 172.046 30.9429C173.399 29.5893 174.076 27.6831 174.076 25.2242C174.076 22.7652 173.399 20.8477 172.046 19.4716C170.692 18.0729 168.775 17.3736 166.293 17.3736H162.943V32.9732H166.293Z" fill="#1D3499"/>
<path d="M185.241 13.165V37H182.854V13.165H185.241ZM204.593 13.165V15.1427H197.978V37H195.591V15.1427H188.941V13.165H204.593Z" fill="#CC2E6E"/>
<defs>
<linearGradient id="paint0_linear_2056_6082" x1="10.8564" y1="25.0577" x2="2.85389" y2="16.5542" gradientUnits="userSpaceOnUse">
<stop stop-color="#F2B45C"/>
<stop offset="1" stop-color="#ED1C24"/>
</linearGradient>
<linearGradient id="paint1_linear_2056_6082" x1="1.97686" y1="37.5736" x2="40.936" y2="9.20799" gradientUnits="userSpaceOnUse">
<stop stop-color="#6811CE"/>
<stop offset="0.257" stop-color="#F44940"/>
<stop offset="0.486" stop-color="#FFB243"/>
<stop offset="0.7263" stop-color="#F44940"/>
<stop offset="1" stop-color="#6811CE"/>
</linearGradient>
<linearGradient id="paint2_linear_2056_6082" x1="32.4006" y1="25.6487" x2="40.2267" y2="31.0543" gradientUnits="userSpaceOnUse">
<stop stop-color="#F2B45C"/>
<stop offset="1" stop-color="#ED1C24"/>
</linearGradient>
</defs>
</svg>
