<svg width="405" height="405" viewBox="0 0 405 405" fill="none" xmlns="http://www.w3.org/2000/svg">
<path d="M306.023 370.324C304.888 371.026 304.553 372.496 305.24 373.631C305.704 374.349 306.486 374.766 307.285 374.766C307.716 374.766 308.147 374.637 308.547 374.399C309.665 373.695 310.017 372.225 309.313 371.107C308.628 369.97 307.143 369.62 306.023 370.324Z" fill="#808080"/>
<path d="M322.495 358.929C321.456 359.743 321.25 361.245 322.064 362.3C322.528 362.907 323.247 363.227 323.966 363.227C324.478 363.227 324.988 363.069 325.421 362.733C326.476 361.934 326.666 360.416 325.868 359.377C325.052 358.321 323.551 358.131 322.495 358.929Z" fill="#808080"/>
<path d="M337.761 345.936C336.787 346.847 336.755 348.365 337.666 349.323C338.128 349.819 338.767 350.075 339.407 350.075C339.998 350.075 340.589 349.865 341.052 349.419C342.011 348.507 342.059 346.989 341.148 346.031C340.239 345.072 338.719 345.025 337.761 345.936Z" fill="#808080"/>
<path d="M349.755 333.654C348.781 334.566 348.75 336.084 349.66 337.042C350.122 337.538 350.761 337.794 351.401 337.794C351.992 337.794 352.583 337.584 353.046 337.138C354.006 336.226 354.053 334.708 353.142 333.75C352.233 332.79 350.714 332.744 349.755 333.654Z" fill="#808080"/>
<path d="M362.755 317.654C361.781 318.566 361.75 320.084 362.66 321.042C363.122 321.538 363.761 321.794 364.401 321.794C364.992 321.794 365.583 321.584 366.046 321.138C367.006 320.226 367.053 318.708 366.142 317.75C365.233 316.79 363.714 316.744 362.755 317.654Z" fill="#808080"/>
<path d="M374.755 298.654C373.781 299.566 373.75 301.084 374.66 302.042C375.122 302.538 375.761 302.794 376.401 302.794C376.992 302.794 377.583 302.584 378.046 302.138C379.006 301.226 379.053 299.708 378.142 298.75C377.233 297.79 375.714 297.744 374.755 298.654Z" fill="#808080"/>
<path d="M393.685 260.081C392.423 259.681 391.065 260.383 390.665 261.647C390.28 262.927 390.969 264.268 392.231 264.651C392.471 264.731 392.727 264.762 392.966 264.762C393.972 264.762 394.915 264.106 395.251 263.084C395.65 261.822 394.947 260.481 393.685 260.081Z" fill="#808080"/>
<path d="M398.543 240.394C397.248 240.123 395.971 240.971 395.715 242.264C395.444 243.559 396.275 244.821 397.569 245.094C397.744 245.125 397.904 245.14 398.064 245.14C399.166 245.14 400.173 244.359 400.413 243.224C400.667 241.929 399.837 240.667 398.543 240.394Z" fill="#808080"/>
<path d="M386.827 279.175C385.612 278.648 384.206 279.206 383.679 280.437C383.152 281.636 383.71 283.057 384.924 283.585C385.245 283.712 385.564 283.777 385.884 283.777C386.811 283.777 387.69 283.233 388.073 282.323C388.616 281.107 388.041 279.702 386.827 279.175Z" fill="#808080"/>
<path d="M385.885 125.504C386.205 125.504 386.524 125.44 386.828 125.312C388.042 124.786 388.602 123.378 388.073 122.164C387.563 120.95 386.139 120.39 384.925 120.917C383.711 121.429 383.151 122.851 383.68 124.065C384.063 124.962 384.958 125.504 385.885 125.504Z" fill="#808080"/>
<path d="M398.048 164.14C398.208 164.14 398.385 164.123 398.544 164.092C399.839 163.821 400.67 162.557 400.397 161.264C400.141 159.971 398.863 159.123 397.569 159.394C396.274 159.665 395.443 160.929 395.716 162.222C395.939 163.357 396.945 164.14 398.048 164.14Z" fill="#808080"/>
<path d="M400.384 180.796C400.544 180.796 400.721 180.78 400.88 180.748C402.175 180.477 403.006 179.214 402.733 177.92C402.477 176.627 401.198 175.78 399.905 176.05C398.61 176.321 397.779 177.585 398.052 178.878C398.275 180.013 399.281 180.796 400.384 180.796Z" fill="#808080"/>
<path d="M402.384 199.796C402.544 199.796 402.721 199.78 402.88 199.748C404.175 199.477 405.006 198.214 404.733 196.92C404.477 195.627 403.198 194.78 401.905 195.05C400.61 195.321 399.779 196.585 400.052 197.878C400.275 199.013 401.281 199.796 402.384 199.796Z" fill="#808080"/>
<path d="M402.384 213.796C402.544 213.796 402.721 213.78 402.88 213.748C404.175 213.477 405.006 212.214 404.733 210.92C404.477 209.627 403.198 208.78 401.905 209.05C400.61 209.321 399.779 210.585 400.052 211.878C400.275 213.013 401.281 213.796 402.384 213.796Z" fill="#808080"/>
<path d="M400.384 229.796C400.544 229.796 400.721 229.78 400.88 229.748C402.175 229.477 403.006 228.214 402.733 226.92C402.477 225.627 401.198 224.78 399.905 225.05C398.61 225.321 397.779 226.585 398.052 227.878C398.275 229.013 399.281 229.796 400.384 229.796Z" fill="#808080"/>
<path d="M392.962 144.521C393.187 144.521 393.441 144.474 393.666 144.409C394.944 144.009 395.631 142.668 395.248 141.405C394.849 140.143 393.491 139.439 392.229 139.839C390.967 140.238 390.263 141.58 390.663 142.843C390.997 143.867 391.938 144.521 392.962 144.521Z" fill="#808080"/>
<path d="M306.024 34.1663C306.407 34.4207 306.84 34.533 307.271 34.533C308.071 34.533 308.868 34.1333 309.316 33.3982C310.02 32.2635 309.668 30.7934 308.533 30.0897C307.415 29.4025 305.945 29.7379 305.241 30.8726C304.537 32.0074 304.891 33.4792 306.024 34.1663Z" fill="#808080"/>
<path d="M339.403 59.2072C340.028 59.2072 340.665 58.9511 341.144 58.4556C342.056 57.4959 342.006 55.9796 341.032 55.0678C340.074 54.1576 338.554 54.2055 337.644 55.1636C336.749 56.1381 336.782 57.6413 337.756 58.5514C338.221 58.999 338.812 59.2072 339.403 59.2072Z" fill="#808080"/>
<path d="M352.405 72.7931C353.03 72.7931 353.667 72.5371 354.146 72.0415C355.058 71.0819 355.008 69.5655 354.034 68.6537C353.076 67.7436 351.556 67.7915 350.646 68.7495C349.751 69.7241 349.784 71.2272 350.758 72.1373C351.223 72.585 351.814 72.7931 352.405 72.7931Z" fill="#808080"/>
<path d="M363.405 87.7931C364.03 87.7931 364.667 87.5371 365.146 87.0415C366.058 86.0819 366.008 84.5655 365.034 83.6537C364.076 82.7436 362.556 82.7915 361.646 83.7495C360.751 84.7241 360.784 86.2272 361.758 87.1373C362.223 87.585 362.814 87.7931 363.405 87.7931Z" fill="#808080"/>
<path d="M375.405 104.793C376.03 104.793 376.667 104.537 377.146 104.042C378.058 103.082 378.008 101.565 377.034 100.654C376.076 99.7436 374.556 99.7915 373.646 100.75C372.751 101.724 372.784 103.227 373.758 104.137C374.223 104.585 374.814 104.793 375.405 104.793Z" fill="#808080"/>
<path d="M325.421 41.758C324.365 40.9585 322.864 41.1501 322.064 42.2056C321.25 43.2446 321.456 44.7626 322.495 45.5621C322.927 45.8974 323.453 46.0576 323.949 46.0576C324.668 46.0576 325.386 45.7372 325.867 45.131C326.666 44.0755 326.475 42.574 325.421 41.758Z" fill="#808080"/>
<path d="M32.4898 307.802C31.3715 308.521 31.0511 310.008 31.7713 311.124C31.7713 311.109 31.7713 311.109 31.7713 311.109C32.2189 311.83 33.0018 312.228 33.7848 312.228C34.2324 312.228 34.6801 312.1 35.0798 311.844C36.1815 311.124 36.5185 309.656 35.8 308.538C35.0947 307.418 33.608 307.099 32.4898 307.802Z" fill="#808080"/>
<path d="M21.5216 116.782C21.8569 116.942 22.2087 117.021 22.5771 117.021C23.4558 117.021 24.3032 116.526 24.7178 115.678C25.3091 114.481 24.8136 113.057 23.6309 112.467C22.4317 111.891 20.993 112.386 20.4182 113.569C19.8434 114.768 20.3224 116.189 21.5216 116.782Z" fill="#808080"/>
<path d="M60.627 343.304C59.7003 344.247 59.7152 345.765 60.6584 346.692C61.1374 347.138 61.7288 347.379 62.3366 347.379C62.9593 347.379 63.5837 347.138 64.0627 346.659C64.9729 345.715 64.9729 344.197 64.0148 343.271C63.0717 342.344 61.5537 342.361 60.627 343.304Z" fill="#808080"/>
<path d="M21.6021 287.899C20.4194 288.474 19.9239 289.912 20.5003 291.11C20.9149 291.957 21.7788 292.453 22.6576 292.453C23.0094 292.453 23.3778 292.373 23.7131 292.197C24.8958 291.622 25.3913 290.183 24.8148 289C24.2235 287.803 22.7848 287.324 21.6021 287.899Z" fill="#808080"/>
<path d="M62.2285 62.027C62.8347 62.027 63.4425 61.804 63.9067 61.3398C64.8499 60.4132 64.8664 58.8952 63.9381 57.952C63.0114 57.0088 61.4934 56.9923 60.5503 57.9206C60.5354 57.9206 60.5354 57.9206 60.5354 57.9206C59.5922 58.8473 59.5773 60.3653 60.5189 61.3084C60.9814 61.7858 61.6041 62.027 62.2285 62.027Z" fill="#808080"/>
<path d="M45.5619 326.349C44.5394 327.182 44.3792 328.681 45.21 329.722C45.6891 330.297 46.3762 330.601 47.0633 330.601C47.6068 330.601 48.1337 330.424 48.5813 330.074C49.6038 329.226 49.764 327.725 48.9332 326.702C48.1023 325.662 46.5843 325.502 45.5619 326.349Z" fill="#808080"/>
<path d="M45.443 78.2789C45.8907 78.6472 46.4176 78.8223 46.9445 78.8223C47.6482 78.8223 48.3353 78.5184 48.8143 77.927C49.6452 76.9046 49.485 75.3866 48.4625 74.5557C47.44 73.7249 45.9204 73.8851 45.0895 74.9076C44.2603 75.9465 44.4206 77.448 45.443 78.2789Z" fill="#808080"/>
<path d="M32.3863 96.8522C32.786 97.1066 33.232 97.2354 33.6647 97.2354C34.4642 97.2354 35.2307 96.8357 35.6948 96.1172C36.415 94.9989 36.078 93.5288 34.9598 92.8086C33.858 92.0901 32.3714 92.4254 31.6529 93.5437C30.9476 94.6636 31.268 96.1337 32.3863 96.8522Z" fill="#808080"/>
<path d="M6.05393 224.733C5.91022 223.423 4.71102 222.48 3.40115 222.624C2.09128 222.768 1.1481 223.965 1.29181 225.275C1.419 226.491 2.45798 227.401 3.67205 227.401C3.75133 227.401 3.84713 227.401 3.94294 227.384C5.25446 227.242 6.19763 226.043 6.05393 224.733Z" fill="#808080"/>
<path d="M3.39094 182.089C3.47188 182.104 3.56768 182.104 3.66348 182.104C4.86103 182.104 5.90001 181.21 6.02885 179.98C6.18742 178.668 5.22938 177.471 3.91951 177.327C2.60964 177.183 1.41043 178.126 1.26673 179.453C1.12137 180.763 2.06455 181.945 3.39094 182.089Z" fill="#808080"/>
<path d="M6.91766 159.684C7.09275 159.732 7.28436 159.748 7.4611 159.748C8.54632 159.748 9.5374 158.997 9.79343 157.878C10.0808 156.6 9.28302 155.305 7.98802 155.018C6.69301 154.714 5.41453 155.513 5.1106 156.808C4.82484 158.102 5.62431 159.382 6.91766 159.684Z" fill="#808080"/>
<path d="M9.84159 246.83C9.53766 245.535 8.25918 244.721 6.96582 245.025C5.67082 245.327 4.873 246.607 5.17528 247.9C5.43131 249.004 6.40587 249.754 7.49275 249.754C7.68435 249.754 7.85944 249.739 8.03618 249.689C9.33119 249.402 10.129 248.107 9.84159 246.813V246.83Z" fill="#808080"/>
<path d="M12.9891 137.81C13.26 137.905 13.516 137.953 13.7886 137.953C14.7797 137.953 15.7063 137.331 16.0581 136.356C16.4893 135.111 15.8335 133.735 14.588 133.289C13.3409 132.858 11.9667 133.513 11.5355 134.759C11.0879 136.004 11.742 137.36 12.9891 137.81Z" fill="#808080"/>
<path d="M13.0563 266.883C11.8092 267.316 11.1551 268.688 11.6011 269.936C11.9529 270.927 12.8796 271.533 13.8541 271.533C14.125 271.533 14.3976 271.485 14.6685 271.389C15.9156 270.956 16.5548 269.584 16.1237 268.337C15.6761 267.091 14.3018 266.435 13.0563 266.883Z" fill="#808080"/>
<path d="M2.39675 204.754C3.72044 204.754 4.7935 203.681 4.7935 202.358C4.7935 201.034 3.72044 199.961 2.39675 199.961C1.07306 199.961 0 201.034 0 202.358C0 203.681 1.07306 204.754 2.39675 204.754Z" fill="#808080"/>
<path d="M183.27 5.65565C183.349 5.65565 183.43 5.65565 183.493 5.63914H183.51C184.819 5.51195 185.794 4.34411 185.667 3.03424C185.54 1.70785 184.372 0.748171 183.045 0.860493C181.735 0.987681 180.761 2.15551 180.888 3.4819C181 4.72735 182.056 5.65565 183.27 5.65565Z" fill="#808080"/>
<path d="M205.892 4.79367H205.909C205.923 4.79367 205.923 4.79367 205.94 4.79367C207.25 4.79367 208.32 3.75467 208.337 2.4448C208.368 1.11841 207.314 0.0150239 205.988 0.0001578C204.661 -0.0147083 203.576 1.02261 203.543 2.349C203.527 3.67539 204.582 4.77881 205.892 4.79367Z" fill="#808080"/>
<path d="M183.712 398.878C182.402 398.751 181.236 399.724 181.107 401.036C180.98 402.362 181.953 403.528 183.279 403.655C183.279 403.64 183.279 403.64 183.279 403.64C183.343 403.655 183.423 403.655 183.504 403.655C184.718 403.655 185.773 402.729 185.886 401.483C185.996 400.173 185.038 398.991 183.712 398.878Z" fill="#808080"/>
<path d="M161.572 395.536C160.262 395.265 159 396.096 158.728 397.389C158.455 398.684 159.286 399.946 160.581 400.218C160.741 400.265 160.901 400.265 161.076 400.265C162.178 400.265 163.186 399.498 163.425 398.363C163.696 397.07 162.865 395.792 161.572 395.536Z" fill="#808080"/>
<path d="M228.265 6.46253C228.378 6.47905 228.473 6.47904 228.586 6.47904C229.768 6.47904 230.791 5.60029 230.951 4.40109C231.126 3.09122 230.201 1.8755 228.89 1.71693C227.58 1.54019 226.381 2.46685 226.206 3.77837C226.027 5.08824 226.955 6.28744 228.265 6.46253Z" fill="#808080"/>
<path d="M250.082 10.7672C250.194 10.7837 250.29 10.7837 250.402 10.7837C251.585 10.7837 252.607 9.90498 252.768 8.70578C252.943 7.39591 252.018 6.18019 250.706 6.02162C249.396 5.84488 248.197 6.77153 248.022 8.08306C247.844 9.39293 248.772 10.5921 250.082 10.7672Z" fill="#808080"/>
<path d="M272.082 16.7672C272.194 16.7837 272.29 16.7837 272.402 16.7837C273.585 16.7837 274.607 15.905 274.768 14.7058C274.943 13.3959 274.018 12.1802 272.706 12.0216C271.396 11.8449 270.197 12.7715 270.022 14.0831C269.844 15.3929 270.772 16.5921 272.082 16.7672Z" fill="#808080"/>
<path d="M290.082 24.7672C290.194 24.7837 290.29 24.7837 290.402 24.7837C291.585 24.7837 292.607 23.905 292.768 22.7058C292.943 21.3959 292.018 20.1802 290.706 20.0216C289.396 19.8449 288.197 20.7715 288.022 22.0831C287.844 23.3929 288.772 24.5921 290.082 24.7672Z" fill="#808080"/>
<path d="M206.121 399.696C204.811 399.727 203.741 400.814 203.772 402.139C203.804 403.45 204.859 404.489 206.169 404.489C206.184 404.489 206.2 404.489 206.217 404.489C207.543 404.473 208.599 403.371 208.566 402.044C208.549 400.733 207.447 399.679 206.121 399.696Z" fill="#808080"/>
<path d="M228.489 398.014C227.163 398.189 226.253 399.386 226.413 400.698C226.588 401.912 227.612 402.791 228.793 402.791C228.905 402.791 229.001 402.774 229.113 402.759C230.423 402.583 231.35 401.385 231.175 400.075C230.998 398.765 229.801 397.837 228.489 398.014Z" fill="#808080"/>
<path d="M249.095 394.022C247.768 394.197 246.858 395.394 247.018 396.706C247.193 397.92 248.217 398.799 249.399 398.799C249.511 398.799 249.607 398.782 249.719 398.767C251.029 398.59 251.955 397.393 251.78 396.083C251.604 394.773 250.406 393.845 249.095 394.022Z" fill="#808080"/>
<path d="M270.095 388.022C268.768 388.197 267.858 389.394 268.018 390.706C268.193 391.92 269.217 392.799 270.399 392.799C270.511 392.799 270.607 392.782 270.719 392.767C272.029 392.59 272.955 391.393 272.78 390.083C272.604 388.773 271.406 387.845 270.095 388.022Z" fill="#808080"/>
<path d="M289.095 380.022C287.768 380.197 286.858 381.394 287.018 382.706C287.193 383.92 288.217 384.799 289.399 384.799C289.511 384.799 289.607 384.782 289.719 384.767C291.029 384.59 291.955 383.393 291.78 382.083C291.604 380.773 290.406 379.845 289.095 380.022Z" fill="#808080"/>
<path d="M160.847 9.06299C161.008 9.06299 161.183 9.04814 161.343 9.0151C162.638 8.74421 163.469 7.46407 163.196 6.17071C162.925 4.87571 161.645 4.04484 160.352 4.31739C159.058 4.58828 158.228 5.86677 158.498 7.16177C158.738 8.28004 159.729 9.06299 160.847 9.06299Z" fill="#808080"/>
<path d="M117.884 23.3982C118.219 23.3982 118.571 23.3338 118.89 23.1736C120.089 22.6153 120.616 21.1931 120.056 19.9939C119.496 18.7947 118.074 18.2678 116.876 18.8426C115.662 19.4025 115.152 20.8247 115.71 22.0223C116.11 22.8862 116.972 23.3982 117.884 23.3982Z" fill="#808080"/>
<path d="M99.3127 370.804C98.1944 370.117 96.7078 370.469 96.0206 371.603C95.3335 372.722 95.6853 374.208 96.8201 374.894C97.2033 375.135 97.6344 375.247 98.0656 375.247C98.865 375.247 99.6628 374.847 100.112 374.096C100.799 372.976 100.447 371.491 99.3127 370.804Z" fill="#808080"/>
<path d="M97.9105 34.1434C98.3416 34.1434 98.7728 34.0162 99.156 33.7767C100.291 33.0896 100.643 31.6195 99.9554 30.4847C99.2518 29.3664 97.7833 28.9997 96.6486 29.7018C96.6651 29.7018 96.6651 29.7018 96.6651 29.7018C95.5303 30.3889 95.1801 31.859 95.8656 32.9938C96.3116 33.7288 97.1111 34.1434 97.9105 34.1434Z" fill="#808080"/>
<path d="M80.8841 358.037C79.8452 357.223 78.3272 357.414 77.5128 358.451C76.7134 359.49 76.8901 360.992 77.9291 361.808C78.3767 362.158 78.8871 362.318 79.414 362.318C80.1177 362.318 80.8214 361.999 81.3004 361.392C82.1147 360.354 81.9231 358.851 80.8841 358.037Z" fill="#808080"/>
<path d="M138.961 15.0058C139.215 15.0058 139.471 14.958 139.71 14.8787C140.972 14.4641 141.645 13.1046 141.228 11.8427C140.812 10.5972 139.454 9.90842 138.192 10.3247C136.945 10.7558 136.258 12.1152 136.674 13.3607C137.011 14.3666 137.955 15.0058 138.961 15.0058Z" fill="#808080"/>
<path d="M139.918 389.686C138.656 389.27 137.297 389.94 136.88 391.202C136.466 392.449 137.136 393.807 138.398 394.223C138.654 394.319 138.909 394.352 139.15 394.352C140.156 394.352 141.099 393.713 141.434 392.705C141.851 391.458 141.163 390.1 139.918 389.686Z" fill="#808080"/>
<path d="M79.2777 47.0773C79.7881 47.0773 80.3167 46.9187 80.7478 46.5669C81.8033 45.7526 81.9784 44.2494 81.1641 43.2105C80.3481 42.1715 78.8466 41.9799 77.8076 42.7959C76.7522 43.6102 76.5771 45.1117 77.3914 46.1672C77.8556 46.7585 78.5741 47.0773 79.2777 47.0773Z" fill="#808080"/>
<path d="M119.078 381.403C117.862 380.845 116.44 381.37 115.882 382.569C115.322 383.767 115.851 385.205 117.048 385.765C117.383 385.911 117.719 385.99 118.054 385.99C118.964 385.99 119.828 385.463 120.226 384.599C120.788 383.4 120.276 381.961 119.078 381.403Z" fill="#808080"/>
</svg>
