<svg width="926" height="925" viewBox="0 0 926 925" fill="none" xmlns="http://www.w3.org/2000/svg">
<path d="M923.713 416.044C925.156 430.555 925.927 445.264 925.995 460.138C925.601 460.14 925.282 460.46 925.283 460.855C925.284 461.051 925.284 461.248 925.285 461.444C925.285 461.724 925.286 462.005 925.286 462.285C925.286 462.763 925.285 463.239 925.283 463.716C925.282 464.111 925.601 464.431 925.995 464.433C925.927 479.307 925.156 494.016 923.713 508.527C923.32 508.488 922.97 508.774 922.93 509.166C922.835 510.113 922.736 511.06 922.635 512.005C922.593 512.397 922.876 512.749 923.268 512.792C921.662 527.55 919.361 542.1 916.397 556.408C916.01 556.327 915.632 556.575 915.552 556.961C915.357 557.893 915.16 558.823 914.96 559.752C914.877 560.138 915.122 560.518 915.507 560.601C912.366 575.082 908.545 589.311 904.08 603.252C903.704 603.131 903.302 603.337 903.181 603.713C902.89 604.617 902.596 605.52 902.299 606.422C902.176 606.797 902.38 607.201 902.754 607.324C898.11 621.37 892.81 635.117 886.89 648.53C886.529 648.371 886.107 648.534 885.947 648.894C885.563 649.762 885.175 650.628 884.786 651.493C884.624 651.853 884.784 652.276 885.143 652.438C879.053 665.896 872.335 679.011 865.029 691.746C864.687 691.549 864.251 691.667 864.054 692.009C863.58 692.831 863.105 693.651 862.626 694.47C862.427 694.81 862.542 695.248 862.882 695.447C855.421 708.176 847.368 720.517 838.761 732.431C838.441 732.2 837.995 732.272 837.763 732.591C837.207 733.359 836.648 734.125 836.087 734.889C835.853 735.207 835.922 735.654 836.24 735.888C827.498 747.755 818.203 759.191 808.392 770.156C808.098 769.893 807.647 769.918 807.383 770.211C806.75 770.917 806.114 771.621 805.476 772.323C805.211 772.615 805.233 773.066 805.524 773.332C795.605 784.215 785.172 794.624 774.264 804.52C773.999 804.228 773.547 804.205 773.255 804.47C772.552 805.106 771.846 805.74 771.139 806.372C770.845 806.635 770.819 807.086 771.082 807.38C760.096 817.165 748.639 826.434 736.751 835.15C736.518 834.832 736.071 834.763 735.753 834.996C734.987 835.555 734.22 836.112 733.451 836.667C733.131 836.898 733.058 837.344 733.289 837.664C721.357 846.244 708.999 854.271 696.253 861.708C696.055 861.367 695.618 861.251 695.277 861.449C694.457 861.926 693.636 862.4 692.813 862.872C692.47 863.068 692.352 863.504 692.548 863.847C679.8 871.127 666.673 877.819 653.202 883.887C653.041 883.527 652.618 883.367 652.258 883.528C651.393 883.916 650.526 884.302 649.657 884.685C649.296 884.845 649.133 885.266 649.292 885.627C635.869 891.524 622.114 896.803 608.06 901.428C607.938 901.053 607.534 900.849 607.159 900.972C606.257 901.267 605.353 901.56 604.448 901.85C604.073 901.97 603.866 902.372 603.986 902.748C590.04 907.194 575.807 910.998 561.322 914.126C561.239 913.74 560.859 913.495 560.474 913.578C559.544 913.777 558.614 913.973 557.682 914.167C557.296 914.247 557.048 914.625 557.128 915.011C542.818 917.962 528.266 920.253 513.507 921.852C513.465 921.46 513.113 921.176 512.721 921.218C511.775 921.319 510.829 921.417 509.882 921.512C509.489 921.552 509.203 921.902 509.242 922.294C494.731 923.731 480.022 924.499 465.147 924.566C465.146 924.172 464.825 923.853 464.431 923.854C464.174 923.855 463.917 923.856 463.66 923.856C463.44 923.856 463.22 923.857 463 923.857C462.523 923.857 462.046 923.856 461.569 923.854C461.175 923.853 460.854 924.172 460.853 924.566C445.978 924.499 431.269 923.731 416.758 922.294C416.797 921.902 416.511 921.552 416.118 921.512C415.716 921.472 415.313 921.431 414.911 921.389C414.367 921.333 413.823 921.276 413.279 921.218C412.887 921.176 412.535 921.46 412.493 921.852C397.733 920.253 383.182 917.962 368.872 915.011C368.952 914.625 368.704 914.247 368.318 914.167C367.386 913.973 366.456 913.777 365.526 913.578C365.14 913.495 364.761 913.74 364.678 914.126C350.193 910.998 335.96 907.194 322.014 902.748C322.134 902.372 321.927 901.97 321.552 901.85C320.647 901.56 319.743 901.267 318.841 900.972C318.466 900.849 318.062 901.053 317.939 901.428C303.886 896.803 290.13 891.524 276.708 885.627C276.867 885.266 276.704 884.844 276.343 884.685C275.474 884.302 274.607 883.916 273.742 883.528C273.382 883.367 272.959 883.527 272.797 883.887C259.327 877.819 246.2 871.127 233.452 863.847C233.648 863.504 233.53 863.068 233.187 862.872C232.364 862.4 231.543 861.926 230.723 861.449C230.382 861.251 229.945 861.367 229.746 861.707C217.001 854.271 204.643 846.244 192.711 837.664C192.942 837.344 192.869 836.898 192.549 836.667C191.78 836.112 191.013 835.555 190.247 834.995C189.929 834.763 189.482 834.832 189.249 835.15C177.361 826.434 165.904 817.165 154.918 807.38C155.181 807.086 155.155 806.635 154.861 806.372C154.154 805.74 153.448 805.106 152.745 804.47C152.452 804.205 152.001 804.228 151.736 804.52C140.828 794.624 130.395 784.215 120.476 773.332C120.767 773.066 120.789 772.615 120.524 772.323C119.886 771.621 119.25 770.917 118.617 770.211C118.353 769.918 117.902 769.893 117.608 770.156C107.797 759.191 98.5016 747.755 89.7605 735.888C90.0782 735.654 90.1466 735.207 89.9131 734.889C89.352 734.125 88.7931 733.359 88.2366 732.591C88.0051 732.272 87.5587 732.2 87.2392 732.431C78.6316 720.517 70.5785 708.176 63.1176 695.447C63.4579 695.248 63.5726 694.81 63.3737 694.47C62.8954 693.651 62.4196 692.831 61.9463 692.009C61.7495 691.667 61.3129 691.549 60.971 691.746C53.6645 679.011 46.9475 665.896 40.857 652.438C41.2164 652.276 41.3764 651.853 41.2143 651.493C40.8245 650.628 40.4373 649.762 40.0527 648.894C39.8929 648.534 39.4711 648.371 39.1105 648.53C33.1902 635.117 27.8899 621.37 23.2457 607.324C23.6202 607.201 23.8239 606.797 23.7006 606.422C23.4039 605.52 23.11 604.617 22.8187 603.713C22.6978 603.337 22.2956 603.131 21.9201 603.252C17.4547 589.311 13.6338 575.082 10.4925 560.601C10.878 560.518 11.1231 560.138 11.0401 559.752C10.84 558.823 10.6428 557.893 10.4483 556.961C10.3677 556.575 9.9895 556.327 9.6034 556.408C6.63937 542.1 4.3376 527.55 2.73151 512.792C3.12359 512.749 3.40726 512.397 3.36519 512.005C3.26377 511.06 3.1652 510.113 3.0695 509.166C3.02986 508.773 2.67973 508.487 2.28734 508.527C0.843963 494.016 0.0726391 479.307 0.0048894 464.433C0.399249 464.431 0.717878 464.111 0.71668 463.716C0.715231 463.239 0.714506 462.763 0.714506 462.285C0.714506 461.808 0.715231 461.332 0.71668 460.855C0.717878 460.46 0.399249 460.14 0.00488967 460.138C0.0726413 445.264 0.843968 430.555 2.28735 416.044C2.67974 416.083 3.02986 415.797 3.06951 415.405C3.16521 414.458 3.26377 413.511 3.3652 412.566C3.40727 412.174 3.1236 411.822 2.73152 411.779C4.33761 397.021 6.63938 382.471 9.60341 368.163C9.98951 368.244 10.3677 367.996 10.4483 367.61C10.6428 366.678 10.84 365.748 11.0401 364.819C11.1231 364.433 10.878 364.053 10.4925 363.97C13.6338 349.489 17.4547 335.26 21.9201 321.319C22.2956 321.44 22.6978 321.234 22.8187 320.858C23.11 319.954 23.404 319.051 23.7006 318.149C23.8239 317.774 23.6202 317.37 23.2457 317.247C27.8899 303.201 33.1902 289.454 39.1105 276.041C39.4711 276.2 39.8929 276.037 40.0527 275.677C40.4373 274.809 40.8245 273.943 41.2144 273.078C41.3764 272.718 41.2164 272.295 40.857 272.133C46.9475 258.675 53.6645 245.56 60.9711 232.825C61.3129 233.022 61.7495 232.904 61.9463 232.562C62.4197 231.74 62.8955 230.92 63.3737 230.101C63.5726 229.76 63.458 229.323 63.1176 229.124C70.5785 216.395 78.6316 204.054 87.2392 192.139C87.5587 192.371 88.0051 192.299 88.2366 191.98C88.7932 191.212 89.352 190.446 89.9132 189.682C90.1466 189.364 90.0782 188.917 89.7605 188.683C98.5016 176.816 107.797 165.38 117.608 154.415C117.902 154.678 118.353 154.653 118.617 154.36C119.25 153.654 119.886 152.95 120.524 152.248C120.789 151.956 120.767 151.505 120.476 151.239C130.395 140.356 140.828 129.947 151.736 120.051C152.001 120.343 152.453 120.366 152.745 120.101C153.448 119.465 154.154 118.831 154.861 118.199C155.155 117.936 155.181 117.485 154.918 117.191C165.904 107.406 177.361 98.1367 189.249 89.4205C189.482 89.7388 189.929 89.8081 190.247 89.5754C191.013 89.0159 191.78 88.4588 192.549 87.9039C192.869 87.6732 192.942 87.2269 192.711 86.9069C204.643 78.3267 217.001 70.2997 229.747 62.8634C229.945 63.2042 230.382 63.3198 230.723 63.1215C231.543 62.6449 232.364 62.1707 233.187 61.699C233.53 61.5029 233.648 61.0666 233.452 60.7243C246.2 53.4441 259.327 46.7517 272.798 40.6839C272.959 41.0436 273.382 41.2043 273.742 41.0429C274.607 40.6545 275.474 40.2688 276.343 39.8857C276.704 39.7264 276.867 39.305 276.708 38.944C290.131 33.0474 303.886 27.7684 317.94 23.1432C318.063 23.5178 318.466 23.7221 318.841 23.5994C319.743 23.3039 320.647 23.0111 321.552 22.7211C321.927 22.6007 322.134 22.1987 322.014 21.8231C335.96 17.3768 350.193 13.5725 364.678 10.4449C364.761 10.8305 365.141 11.076 365.526 10.9933C366.456 10.7941 367.386 10.5977 368.318 10.4041C368.704 10.3238 368.952 9.94587 368.872 9.5597C383.182 6.60901 397.734 4.31767 412.493 2.71891C412.535 3.11101 412.887 3.39485 413.279 3.35298C414.225 3.25203 415.171 3.15394 416.118 3.0587C416.511 3.01923 416.797 2.66924 416.758 2.27683C431.269 0.840067 445.978 0.0723035 460.853 0.00486679C460.854 0.399227 461.175 0.717862 461.569 0.716669C462.046 0.715228 462.523 0.714506 463 0.714506C463.477 0.714506 463.954 0.715228 464.431 0.71667C464.825 0.717863 465.146 0.399227 465.147 0.00486707C480.022 0.0723057 494.731 0.840072 509.242 2.27684C509.203 2.66925 509.489 3.01924 509.882 3.05871C510.829 3.15395 511.775 3.25204 512.721 3.35298C513.113 3.39486 513.465 3.11101 513.507 2.71892C528.267 4.31768 542.818 6.60903 557.128 9.55973C557.048 9.94589 557.296 10.3239 557.682 10.4041C558.614 10.5977 559.544 10.7941 560.474 10.9933C560.86 11.076 561.239 10.8305 561.322 10.4449C575.807 13.5725 590.04 17.3769 603.986 21.8232C603.866 22.1988 604.073 22.6007 604.448 22.7211C605.353 23.0112 606.257 23.3039 607.159 23.5994C607.534 23.7221 607.938 23.5179 608.061 23.1432C622.114 27.7684 635.87 33.0474 649.292 38.9441C649.133 39.305 649.296 39.7265 649.657 39.8857C650.526 40.2689 651.393 40.6546 652.258 41.0429C652.618 41.2044 653.041 41.0437 653.203 40.684C666.673 46.7518 679.8 53.4442 692.548 60.7243C692.352 61.0666 692.47 61.5029 692.813 61.6991C693.636 62.1708 694.457 62.645 695.277 63.1216C695.618 63.3198 696.055 63.2043 696.253 62.8635C708.999 70.2997 721.357 78.3268 733.289 86.9069C733.058 87.2269 733.131 87.6732 733.451 87.904C734.22 88.4589 734.987 89.016 735.753 89.5755C736.071 89.8082 736.518 89.7388 736.751 89.4206C748.639 98.1368 760.096 107.406 771.082 117.191C770.819 117.485 770.845 117.936 771.139 118.199C771.846 118.831 772.552 119.465 773.255 120.101C773.548 120.366 773.999 120.343 774.264 120.051C785.172 129.947 795.605 140.356 805.524 151.239C805.233 151.505 805.211 151.956 805.476 152.248C806.114 152.95 806.75 153.654 807.383 154.36C807.647 154.653 808.098 154.678 808.392 154.415C818.203 165.38 827.498 176.816 836.24 188.683C835.922 188.917 835.853 189.364 836.087 189.682C836.648 190.446 837.207 191.212 837.763 191.98C837.995 192.299 838.441 192.371 838.761 192.14C847.368 204.054 855.422 216.395 862.882 229.124C862.542 229.323 862.427 229.76 862.626 230.101C863.105 230.92 863.58 231.74 864.054 232.562C864.25 232.904 864.687 233.022 865.029 232.825C872.336 245.56 879.053 258.675 885.143 272.133C884.784 272.295 884.624 272.718 884.786 273.078C885.175 273.943 885.563 274.809 885.947 275.677C886.107 276.037 886.529 276.2 886.89 276.041C892.81 289.454 898.11 303.201 902.754 317.247C902.38 317.37 902.176 317.774 902.299 318.149C902.596 319.051 902.89 319.954 903.181 320.858C903.302 321.234 903.704 321.44 904.08 321.319C908.545 335.26 912.366 349.489 915.507 363.97C915.122 364.053 914.877 364.433 914.96 364.819C915.039 365.185 915.117 365.552 915.195 365.919C915.315 366.482 915.434 367.046 915.552 367.61C915.632 367.996 916.01 368.244 916.397 368.163C919.361 382.471 921.662 397.021 923.268 411.779C922.876 411.822 922.593 412.174 922.635 412.566C922.677 412.962 922.719 413.358 922.761 413.755C922.818 414.305 922.875 414.855 922.93 415.405C922.97 415.797 923.32 416.084 923.713 416.044Z" stroke="black" stroke-width="1.42901" stroke-linecap="round" stroke-linejoin="round" stroke-dasharray="2.86 45.73"/>
<g clip-path="url(#clip0_102_3)">
<path d="M849.392 554.518L712.68 517.888C720.858 481.274 720.858 443.299 712.68 406.685L849.392 370.055C863.893 430.684 863.893 493.889 849.392 554.518Z" fill="#4FC6B7"/>
<path d="M555.944 847.954C495.315 862.452 432.11 862.452 371.477 847.954L408.111 711.242C444.725 719.42 482.7 719.42 519.314 711.242L555.944 847.954Z" fill="#CEDE47"/>
<path d="M555.944 76.6153L519.314 213.327C482.7 205.15 444.725 205.15 408.111 213.327L371.477 76.6153C432.11 62.1178 495.315 62.1178 555.944 76.6153Z" fill="#FBAD88"/>
<path d="M736.425 174.404L636.344 274.485C608.725 249.094 575.84 230.11 540.039 218.884L576.673 82.1719C636.433 99.9324 691.164 131.531 736.425 174.404Z" fill="#768BA0"/>
<path d="M387.378 218.884C351.582 230.11 318.696 249.094 291.074 274.485L190.996 174.404C236.254 131.531 290.989 99.9324 350.748 82.1719L387.378 218.884Z" fill="#BCE6FE"/>
<path d="M387.378 705.687L350.748 842.4C290.989 824.639 236.254 793.041 190.996 750.168L291.074 650.086C318.696 675.478 351.582 694.461 387.378 705.687Z" fill="#195478"/>
<path d="M736.425 750.168C691.164 793.041 636.433 824.639 576.673 842.4L540.039 705.687C575.84 694.461 608.725 675.478 636.344 650.086L736.425 750.168Z" fill="#7F5AAF"/>
<path d="M843.833 349.33L707.121 385.964C695.895 350.164 676.911 317.278 651.52 289.656L751.597 189.578C794.474 234.836 826.073 289.571 843.833 349.33Z" fill="#FD5807"/>
<path d="M275.907 289.656C250.515 317.282 231.528 350.164 220.302 385.964L83.5938 349.33C101.35 289.571 132.952 234.836 175.826 189.578L275.907 289.656Z" fill="#E67B7B"/>
<path d="M275.907 634.922L175.826 735.004C132.952 689.746 101.35 635.011 83.5938 575.252L220.302 538.617C231.528 574.418 250.515 607.299 275.907 634.922Z" fill="#75DDD0"/>
<path d="M843.833 575.252C826.073 635.011 794.474 689.746 751.597 735.004L651.52 634.926C676.911 607.303 695.895 574.418 707.121 538.617L843.833 575.252Z" fill="#3886CE"/>
<path d="M214.752 517.888L78.0402 554.518C63.5387 493.889 63.5387 430.684 78.0402 370.055L214.752 406.685C206.574 443.299 206.574 481.274 214.752 517.888Z" fill="#F0E472"/>
<g filter="url(#filter0_dii_102_3)">
<path fill-rule="evenodd" clip-rule="evenodd" d="M837.367 390.547C846.586 438.229 846.586 487.244 837.367 534.926L731.645 506.599C736.404 477.552 736.404 447.92 731.645 418.874L837.367 390.547Z" fill="url(#paint0_linear_102_3)"/>
<path d="M836.843 536.881L838.942 537.443L839.355 535.31C848.622 487.374 848.622 438.099 839.355 390.163L838.942 388.029L836.843 388.592L731.121 416.919L729.351 417.393L729.647 419.201C734.37 448.031 734.37 477.442 729.647 506.271L729.351 508.08L731.121 508.554L836.843 536.881Z" stroke="white" stroke-width="4.04845"/>
</g>
<g filter="url(#filter1_dii_102_3)">
<path fill-rule="evenodd" clip-rule="evenodd" d="M507.633 730.625L535.96 836.347C488.278 845.563 439.263 845.563 391.578 836.347L419.908 730.625C448.955 735.384 478.587 735.384 507.633 730.625Z" fill="url(#paint1_linear_102_3)"/>
<path d="M536.344 838.334L538.478 837.922L537.915 835.823L509.588 730.101L509.114 728.331L507.306 728.627C478.476 733.351 449.065 733.351 420.235 728.627L418.427 728.331L417.953 730.101L389.623 835.823L389.06 837.922L391.194 838.334C439.133 847.599 488.408 847.599 536.344 838.334Z" stroke="white" stroke-width="4.04845"/>
</g>
<g filter="url(#filter2_dii_102_3)">
<path fill-rule="evenodd" clip-rule="evenodd" d="M391.578 89.8261C439.263 80.6101 488.278 80.6101 535.96 89.826L507.633 195.548C478.587 190.789 448.955 190.789 419.908 195.548L391.578 89.8261Z" fill="url(#paint2_linear_102_3)"/>
<path d="M537.915 90.3499L538.478 88.2509L536.344 87.8386C488.408 78.5736 439.133 78.5736 391.194 87.8386L389.06 88.251L389.623 90.35L417.953 196.072L418.427 197.842L420.235 197.545C449.065 192.822 478.476 192.822 507.306 197.545L509.114 197.841L509.588 196.072L537.915 90.3499Z" stroke="white" stroke-width="4.04845"/>
</g>
<g filter="url(#filter3_dii_102_3)">
<path fill-rule="evenodd" clip-rule="evenodd" d="M712.941 174.76L635.547 252.154C612.771 233.508 587.11 218.694 559.574 208.292L587.904 102.57C633.808 118.43 676.253 142.935 712.941 174.76Z" fill="url(#paint3_linear_102_3)"/>
<path d="M634.264 253.72L635.682 254.881L636.978 253.585L714.373 176.191L715.909 174.654L714.268 173.23C677.385 141.237 634.714 116.601 588.565 100.657L586.511 99.9475L585.949 102.046L557.619 207.768L557.145 209.538L558.859 210.186C586.189 220.51 611.659 235.213 634.264 253.72Z" stroke="white" stroke-width="4.04845"/>
</g>
<g filter="url(#filter4_dii_102_3)">
<path fill-rule="evenodd" clip-rule="evenodd" d="M339.748 102.57L368.075 208.293C340.542 218.694 314.88 233.508 292.103 252.154L214.711 174.759C251.396 142.936 293.843 118.43 339.748 102.57Z" fill="url(#paint4_linear_102_3)"/>
<path d="M368.791 210.186L370.505 209.539L370.03 207.769L341.703 102.046L341.141 99.9474L339.087 100.657C292.938 116.601 250.265 141.237 213.385 173.23L211.743 174.654L213.28 176.191L290.672 253.586L291.967 254.881L293.385 253.721C315.993 235.214 341.463 220.51 368.791 210.186Z" stroke="white" stroke-width="4.04845"/>
</g>
<g filter="url(#filter5_dii_102_3)">
<path fill-rule="evenodd" clip-rule="evenodd" d="M292.103 672.422C314.88 691.068 340.542 705.882 368.075 716.284L339.748 822.006C293.843 806.146 251.396 781.641 214.711 749.817L292.103 672.422Z" fill="url(#paint5_linear_102_3)"/>
<path d="M370.03 716.808L370.505 715.038L368.791 714.39C341.463 704.066 315.993 689.362 293.385 670.856L291.967 669.695L290.672 670.991L213.28 748.386L211.743 749.922L213.385 751.346C250.265 783.339 292.938 807.975 339.087 823.919L341.141 824.629L341.703 822.53L370.03 716.808Z" stroke="white" stroke-width="4.04845"/>
</g>
<g filter="url(#filter6_dii_102_3)">
<path fill-rule="evenodd" clip-rule="evenodd" d="M635.641 672.422L713.035 749.816C676.347 781.641 633.902 806.146 587.998 822.006L559.668 716.284C587.203 705.882 612.865 691.068 635.641 672.422Z" fill="url(#paint6_linear_102_3)"/>
<path d="M714.361 751.346L716.003 749.922L714.466 748.385L637.072 670.991L635.776 669.695L634.358 670.856C611.753 689.363 586.283 704.066 558.953 714.39L557.238 715.038L557.713 716.808L586.043 822.53L586.605 824.629L588.659 823.919C634.807 807.975 677.478 783.339 714.361 751.346Z" stroke="white" stroke-width="4.04845"/>
</g>
<g filter="url(#filter7_dii_102_3)">
<path fill-rule="evenodd" clip-rule="evenodd" d="M751.013 213.047C782.84 249.732 807.345 292.18 823.206 338.085L717.484 366.415C707.082 338.879 692.267 313.217 673.621 290.439L751.013 213.047Z" fill="url(#paint7_linear_102_3)"/>
<path d="M823.729 340.04L825.828 339.478L825.119 337.424C809.174 291.274 784.538 248.601 752.542 211.72L751.118 210.079L749.582 211.616L672.19 289.008L670.894 290.303L672.055 291.721C690.562 314.329 705.266 339.8 715.59 367.13L716.237 368.845L718.007 368.37L823.729 340.04Z" stroke="white" stroke-width="4.04845"/>
</g>
<g filter="url(#filter8_dii_102_3)">
<path fill-rule="evenodd" clip-rule="evenodd" d="M209.512 366.852C219.915 339.316 234.732 313.655 253.379 290.877L175.983 213.484C144.158 250.17 119.651 292.618 103.793 338.522L209.512 366.852Z" fill="url(#paint8_linear_102_3)"/>
<path d="M254.945 292.159L256.106 290.741L254.81 289.446L177.414 212.053L175.878 210.517L174.454 212.158C142.46 249.039 117.822 291.712 101.88 337.861L101.17 339.915L103.269 340.477L208.988 368.807L210.758 369.282L211.406 367.568C221.731 340.236 236.438 314.768 254.945 292.159Z" stroke="white" stroke-width="4.04845"/>
</g>
<g filter="url(#filter9_dii_102_3)">
<path fill-rule="evenodd" clip-rule="evenodd" d="M209.512 558.453C219.915 585.989 234.732 611.649 253.378 634.425L175.983 711.821C144.158 675.135 119.651 632.687 103.793 586.783L209.512 558.453Z" fill="url(#paint9_linear_102_3)"/>
<path d="M254.809 635.857L256.105 634.561L254.944 633.143C236.437 610.537 221.731 585.068 211.406 557.738L210.758 556.024L208.988 556.498L103.269 584.828L101.17 585.39L101.88 587.444C117.822 633.593 142.46 676.266 174.454 713.147L175.878 714.789L177.414 713.252L254.809 635.857Z" stroke="white" stroke-width="4.04845"/>
</g>
<g filter="url(#filter10_dii_102_3)">
<path fill-rule="evenodd" clip-rule="evenodd" d="M717.503 558.453L823.225 586.783C807.365 632.688 782.859 675.136 751.033 711.821L673.641 634.429C692.287 611.651 707.101 585.989 717.503 558.453Z" fill="url(#paint10_linear_102_3)"/>
<path d="M825.138 587.444L825.848 585.39L823.749 584.828L718.027 556.498L716.257 556.024L715.609 557.738C705.285 585.068 690.581 610.539 672.074 633.147L670.914 634.565L672.209 635.86L749.601 713.253L751.138 714.789L752.562 713.148C784.558 676.267 809.194 633.594 825.138 587.444Z" stroke="white" stroke-width="4.04845"/>
</g>
<g filter="url(#filter11_dii_102_3)">
<mask id="path-36-outside-1_102_3" maskUnits="userSpaceOnUse" x="68.8828" y="383.836" width="131" height="156" fill="black">
<rect fill="white" x="68.8828" y="383.836" width="131" height="156"/>
<path fill-rule="evenodd" clip-rule="evenodd" d="M73.8828 385.836C73.8828 385.836 73.8828 385.836 73.8828 385.836ZM195.285 418.364C190.526 447.411 190.526 477.043 195.285 506.089L89.5626 534.416C80.3439 486.734 80.3439 437.719 89.5626 390.037L195.285 418.364Z"/>
</mask>
<path fill-rule="evenodd" clip-rule="evenodd" d="M73.8828 385.836C73.8828 385.836 73.8828 385.836 73.8828 385.836ZM195.285 418.364C190.526 447.411 190.526 477.043 195.285 506.089L89.5626 534.416C80.3439 486.734 80.3439 437.719 89.5626 390.037L195.285 418.364Z" fill="url(#paint11_linear_102_3)"/>
<path d="M75.8292 386.392L75.8292 386.392L71.9365 385.28L71.9365 385.28L75.8292 386.392ZM195.285 506.089L196.333 510L199.873 509.051L199.28 505.434L195.285 506.089ZM195.285 418.364L199.28 419.019L199.873 415.402L196.333 414.454L195.285 418.364ZM89.5626 534.416L85.5877 535.185L86.4126 539.451L90.6103 538.327L89.5626 534.416ZM89.5626 390.037L90.6103 386.127L86.4126 385.002L85.5877 389.269L89.5626 390.037ZM69.8344 385.836C69.8344 385.547 69.8653 385.295 69.9037 385.09C69.923 384.987 69.9445 384.894 69.9657 384.813C69.987 384.731 70.0086 384.659 70.0286 384.597C70.0485 384.535 70.0675 384.481 70.0838 384.437C70.1002 384.392 70.1148 384.355 70.1262 384.327C70.1376 384.298 70.147 384.276 70.1527 384.262C70.1556 384.255 70.158 384.25 70.1594 384.246C70.1608 384.243 70.1619 384.241 70.1617 384.241C70.1617 384.241 70.1617 384.241 70.1617 384.241C70.1617 384.241 70.1617 384.241 70.1617 384.241C70.1616 384.241 70.1616 384.241 70.1616 384.242C70.1615 384.242 70.1613 384.242 70.1611 384.242C70.1608 384.243 70.1602 384.245 70.1594 384.246C70.158 384.25 70.1556 384.255 70.1527 384.262C70.147 384.276 70.1376 384.298 70.1262 384.327C70.1148 384.355 70.1002 384.392 70.0838 384.437C70.0675 384.481 70.0485 384.535 70.0286 384.597C70.0086 384.659 69.987 384.731 69.9657 384.813C69.9445 384.894 69.923 384.987 69.9037 385.09C69.8653 385.295 69.8344 385.547 69.8344 385.836H77.9313C77.9313 386.125 77.9003 386.377 77.8619 386.582C77.8427 386.685 77.8212 386.777 77.7999 386.859C77.7786 386.94 77.757 387.013 77.7371 387.075C77.7171 387.137 77.6981 387.191 77.6818 387.235C77.6655 387.279 77.6508 387.317 77.6394 387.345C77.6281 387.373 77.6186 387.396 77.6129 387.41C77.61 387.416 77.6076 387.422 77.6062 387.425C77.6049 387.429 77.6037 387.431 77.6039 387.431C77.6039 387.431 77.6039 387.431 77.6039 387.431C77.6039 387.431 77.604 387.431 77.604 387.431C77.604 387.431 77.604 387.43 77.6041 387.43C77.6042 387.43 77.6043 387.43 77.6045 387.429C77.6049 387.429 77.6054 387.427 77.6062 387.425C77.6076 387.422 77.61 387.416 77.6129 387.41C77.6186 387.396 77.6281 387.373 77.6394 387.345C77.6508 387.317 77.6655 387.279 77.6818 387.235C77.6981 387.191 77.7171 387.137 77.7371 387.075C77.757 387.013 77.7786 386.94 77.7999 386.859C77.8212 386.777 77.8427 386.685 77.8619 386.582C77.9003 386.377 77.9313 386.125 77.9313 385.836H69.8344ZM199.28 505.434C194.592 476.821 194.592 447.632 199.28 419.019L191.29 417.71C186.46 447.19 186.46 477.264 191.29 506.744L199.28 505.434ZM90.6103 538.327L196.333 510L194.237 502.178L88.5148 530.506L90.6103 538.327ZM85.5877 389.269C76.2709 437.458 76.2709 486.995 85.5877 535.185L93.5374 533.648C84.4169 486.473 84.4169 437.98 93.5374 390.806L85.5877 389.269ZM196.333 414.454L90.6103 386.127L88.5148 393.948L194.237 422.275L196.333 414.454Z" fill="white" mask="url(#path-36-outside-1_102_3)"/>
</g>
</g>
<path d="M39 89.1563L77.1665 89.1563L134 130.156L77.1665 89.1563L39 89.1563Z" stroke="#4D4D4D" stroke-width="0.556535"/>
<path d="M134.236 137.156C138.129 137.156 141.287 133.999 141.287 130.107C141.287 126.215 138.129 123.057 134.236 123.057C130.342 123.057 127.184 126.215 127.184 130.107C127.184 133.999 130.342 137.156 134.236 137.156Z" fill="#E57B7B"/>
<path d="M25 809.156L63.1665 809.156L120 768.156L63.1665 809.156L25 809.156Z" stroke="#4D4D4D" stroke-width="0.556535"/>
<path d="M120.236 761.156C124.129 761.156 127.287 764.314 127.287 768.206C127.287 772.098 124.129 775.255 120.236 775.255C116.342 775.255 113.184 772.098 113.184 768.206C113.184 764.314 116.342 761.156 120.236 761.156Z" fill="#70D0C4"/>
<path d="M902.289 814.156L864.123 814.156L807.289 773.156L864.123 814.156L902.289 814.156Z" stroke="#4D4D4D" stroke-width="0.556535"/>
<path d="M807.054 766.156C803.16 766.156 800.002 769.314 800.002 773.206C800.002 777.098 803.16 780.255 807.054 780.255C810.947 780.255 814.105 777.098 814.105 773.206C814.105 769.314 810.947 766.156 807.054 766.156Z" fill="#70D0C4"/>
<path d="M888.289 89.1563L850.123 89.1563L793.289 130.156L850.123 89.1563L888.289 89.1563Z" stroke="#4D4D4D" stroke-width="0.556535"/>
<path d="M793.054 137.156C789.16 137.156 786.002 133.999 786.002 130.107C786.002 126.215 789.16 123.057 793.054 123.057C796.947 123.057 800.105 126.215 800.105 130.107C800.105 133.999 796.947 137.156 793.054 137.156Z" fill="#70D0C4"/>
<g opacity="0.1">
<path d="M446.955 359.211V441.589L479.693 412.692V390.02C479.74 372.993 465.048 359.211 446.955 359.211Z" fill="#CC2E6E"/>
<path d="M479.744 565.408V469.203L447.006 497.789V534.599C446.959 551.626 461.651 565.408 479.744 565.408Z" fill="#CC2E6E"/>
<path d="M384.137 443.78C393.349 458.806 395.711 473.166 392.451 485.747C397.601 477.123 400.482 467.209 400.482 456.672C400.482 424.174 372.8 397.634 338.456 396.789H337.086C328.063 396.789 320.693 403.68 320.693 412.216C320.693 420.707 328.016 427.642 337.086 427.642H354.376C366.658 427.642 377.996 433.822 384.137 443.78Z" fill="url(#paint12_linear_102_3)"/>
<path d="M582.93 358.362C562.475 358.362 543.721 365.387 529.265 376.99L529.029 377.212C527.423 378.501 525.911 379.835 524.399 381.213L479.757 420.157V419.713L447.019 448.61V448.699L436.485 457.901L436.06 458.257L434.312 459.768L426.234 466.837C423.116 437.718 402.944 413.311 375.309 402.552C393.827 414.245 406.015 434.072 406.015 456.612C406.015 473.017 399.543 488.043 388.819 499.468L380.222 506.937L378.332 508.582L375.45 511.116C375.403 511.16 375.403 511.16 375.356 511.205C366.758 517.785 355.798 521.697 343.894 521.697H337.138C328.116 521.697 320.746 528.588 320.746 537.123C320.746 545.615 328.068 552.55 337.138 552.55H343.894C364.113 552.55 382.678 545.703 397.086 534.322C397.134 534.278 397.228 534.234 397.275 534.189C399.26 532.633 401.149 530.988 402.944 529.254L403.039 529.165L447.067 490.755V490.799L466.246 474.039L479.804 462.169L490.197 453.1L500.637 443.986C503.708 473.105 523.88 497.557 551.562 508.271C533.091 496.579 520.903 476.751 520.903 454.256C520.903 437.762 527.47 422.691 538.288 411.177L547.122 403.486L548.397 402.375L551.09 400.018C559.782 393.217 570.931 389.126 583.072 389.126H589.827C598.85 389.126 606.219 382.236 606.219 373.7C606.219 365.209 598.897 358.273 589.827 358.273H582.93V358.362Z" fill="url(#paint13_linear_102_3)"/>
<path d="M532.891 436.242C532.891 432.418 533.363 428.684 534.308 425.172C529.206 433.796 526.277 443.71 526.277 454.291C526.277 486.789 553.96 513.33 588.304 514.174H589.674C598.697 514.174 606.066 507.284 606.066 498.748C606.066 490.257 598.744 483.321 589.674 483.321H582.919C555.33 483.321 532.891 462.204 532.891 436.242Z" fill="url(#paint14_linear_102_3)"/>
</g>
<defs>
<filter id="filter0_dii_102_3" x="706.814" y="377.411" width="161.758" height="194.938" filterUnits="userSpaceOnUse" color-interpolation-filters="sRGB">
<feFlood flood-opacity="0" result="BackgroundImageFix"/>
<feColorMatrix in="SourceAlpha" type="matrix" values="0 0 0 0 0 0 0 0 0 0 0 0 0 0 0 0 0 0 127 0" result="hardAlpha"/>
<feOffset dy="12.1454"/>
<feGaussianBlur stdDeviation="10.1211"/>
<feColorMatrix type="matrix" values="0 0 0 0 0.2 0 0 0 0 0.2 0 0 0 0 0.2 0 0 0 0.2 0"/>
<feBlend mode="normal" in2="BackgroundImageFix" result="effect1_dropShadow_102_3"/>
<feBlend mode="normal" in="SourceGraphic" in2="effect1_dropShadow_102_3" result="shape"/>
<feColorMatrix in="SourceAlpha" type="matrix" values="0 0 0 0 0 0 0 0 0 0 0 0 0 0 0 0 0 0 127 0" result="hardAlpha"/>
<feOffset dy="6.73219"/>
<feGaussianBlur stdDeviation="3.36609"/>
<feComposite in2="hardAlpha" operator="arithmetic" k2="-1" k3="1"/>
<feColorMatrix type="matrix" values="0 0 0 0 1 0 0 0 0 1 0 0 0 0 1 0 0 0 1 0"/>
<feBlend mode="normal" in2="shape" result="effect2_innerShadow_102_3"/>
<feColorMatrix in="SourceAlpha" type="matrix" values="0 0 0 0 0 0 0 0 0 0 0 0 0 0 0 0 0 0 127 0" result="hardAlpha"/>
<feOffset dy="-6.73219"/>
<feGaussianBlur stdDeviation="3.36609"/>
<feComposite in2="hardAlpha" operator="arithmetic" k2="-1" k3="1"/>
<feColorMatrix type="matrix" values="0 0 0 0 0.8 0 0 0 0 0.8 0 0 0 0 0.8 0 0 0 1 0"/>
<feBlend mode="normal" in2="effect2_innerShadow_102_3" result="effect3_innerShadow_102_3"/>
</filter>
<filter id="filter1_dii_102_3" x="366.301" y="717.942" width="194.938" height="161.75" filterUnits="userSpaceOnUse" color-interpolation-filters="sRGB">
<feFlood flood-opacity="0" result="BackgroundImageFix"/>
<feColorMatrix in="SourceAlpha" type="matrix" values="0 0 0 0 0 0 0 0 0 0 0 0 0 0 0 0 0 0 127 0" result="hardAlpha"/>
<feOffset dy="12.1454"/>
<feGaussianBlur stdDeviation="10.1211"/>
<feColorMatrix type="matrix" values="0 0 0 0 0.2 0 0 0 0 0.2 0 0 0 0 0.2 0 0 0 0.2 0"/>
<feBlend mode="normal" in2="BackgroundImageFix" result="effect1_dropShadow_102_3"/>
<feBlend mode="normal" in="SourceGraphic" in2="effect1_dropShadow_102_3" result="shape"/>
<feColorMatrix in="SourceAlpha" type="matrix" values="0 0 0 0 0 0 0 0 0 0 0 0 0 0 0 0 0 0 127 0" result="hardAlpha"/>
<feOffset dy="6.73219"/>
<feGaussianBlur stdDeviation="3.36609"/>
<feComposite in2="hardAlpha" operator="arithmetic" k2="-1" k3="1"/>
<feColorMatrix type="matrix" values="0 0 0 0 1 0 0 0 0 1 0 0 0 0 1 0 0 0 1 0"/>
<feBlend mode="normal" in2="shape" result="effect2_innerShadow_102_3"/>
<feColorMatrix in="SourceAlpha" type="matrix" values="0 0 0 0 0 0 0 0 0 0 0 0 0 0 0 0 0 0 127 0" result="hardAlpha"/>
<feOffset dy="-6.73219"/>
<feGaussianBlur stdDeviation="3.36609"/>
<feComposite in2="hardAlpha" operator="arithmetic" k2="-1" k3="1"/>
<feColorMatrix type="matrix" values="0 0 0 0 0.8 0 0 0 0 0.8 0 0 0 0 0.8 0 0 0 1 0"/>
<feBlend mode="normal" in2="effect2_innerShadow_102_3" result="effect3_innerShadow_102_3"/>
</filter>
<filter id="filter2_dii_102_3" x="366.301" y="70.7703" width="194.938" height="161.75" filterUnits="userSpaceOnUse" color-interpolation-filters="sRGB">
<feFlood flood-opacity="0" result="BackgroundImageFix"/>
<feColorMatrix in="SourceAlpha" type="matrix" values="0 0 0 0 0 0 0 0 0 0 0 0 0 0 0 0 0 0 127 0" result="hardAlpha"/>
<feOffset dy="12.1454"/>
<feGaussianBlur stdDeviation="10.1211"/>
<feColorMatrix type="matrix" values="0 0 0 0 0.2 0 0 0 0 0.2 0 0 0 0 0.2 0 0 0 0.2 0"/>
<feBlend mode="normal" in2="BackgroundImageFix" result="effect1_dropShadow_102_3"/>
<feBlend mode="normal" in="SourceGraphic" in2="effect1_dropShadow_102_3" result="shape"/>
<feColorMatrix in="SourceAlpha" type="matrix" values="0 0 0 0 0 0 0 0 0 0 0 0 0 0 0 0 0 0 127 0" result="hardAlpha"/>
<feOffset dy="6.73219"/>
<feGaussianBlur stdDeviation="3.36609"/>
<feComposite in2="hardAlpha" operator="arithmetic" k2="-1" k3="1"/>
<feColorMatrix type="matrix" values="0 0 0 0 1 0 0 0 0 1 0 0 0 0 1 0 0 0 1 0"/>
<feBlend mode="normal" in2="shape" result="effect2_innerShadow_102_3"/>
<feColorMatrix in="SourceAlpha" type="matrix" values="0 0 0 0 0 0 0 0 0 0 0 0 0 0 0 0 0 0 127 0" result="hardAlpha"/>
<feOffset dy="-6.73219"/>
<feGaussianBlur stdDeviation="3.36609"/>
<feComposite in2="hardAlpha" operator="arithmetic" k2="-1" k3="1"/>
<feColorMatrix type="matrix" values="0 0 0 0 0.8 0 0 0 0 0.8 0 0 0 0 0.8 0 0 0 1 0"/>
<feBlend mode="normal" in2="effect2_innerShadow_102_3" result="effect3_innerShadow_102_3"/>
</filter>
<filter id="filter3_dii_102_3" x="534.473" y="89.2312" width="204.647" height="200.766" filterUnits="userSpaceOnUse" color-interpolation-filters="sRGB">
<feFlood flood-opacity="0" result="BackgroundImageFix"/>
<feColorMatrix in="SourceAlpha" type="matrix" values="0 0 0 0 0 0 0 0 0 0 0 0 0 0 0 0 0 0 127 0" result="hardAlpha"/>
<feOffset dy="12.1454"/>
<feGaussianBlur stdDeviation="10.1211"/>
<feColorMatrix type="matrix" values="0 0 0 0 0.2 0 0 0 0 0.2 0 0 0 0 0.2 0 0 0 0.2 0"/>
<feBlend mode="normal" in2="BackgroundImageFix" result="effect1_dropShadow_102_3"/>
<feBlend mode="normal" in="SourceGraphic" in2="effect1_dropShadow_102_3" result="shape"/>
<feColorMatrix in="SourceAlpha" type="matrix" values="0 0 0 0 0 0 0 0 0 0 0 0 0 0 0 0 0 0 127 0" result="hardAlpha"/>
<feOffset dy="6.73219"/>
<feGaussianBlur stdDeviation="3.36609"/>
<feComposite in2="hardAlpha" operator="arithmetic" k2="-1" k3="1"/>
<feColorMatrix type="matrix" values="0 0 0 0 1 0 0 0 0 1 0 0 0 0 1 0 0 0 1 0"/>
<feBlend mode="normal" in2="shape" result="effect2_innerShadow_102_3"/>
<feColorMatrix in="SourceAlpha" type="matrix" values="0 0 0 0 0 0 0 0 0 0 0 0 0 0 0 0 0 0 127 0" result="hardAlpha"/>
<feOffset dy="-6.73219"/>
<feGaussianBlur stdDeviation="3.36609"/>
<feComposite in2="hardAlpha" operator="arithmetic" k2="-1" k3="1"/>
<feColorMatrix type="matrix" values="0 0 0 0 0.8 0 0 0 0 0.8 0 0 0 0 0.8 0 0 0 1 0"/>
<feBlend mode="normal" in2="effect2_innerShadow_102_3" result="effect3_innerShadow_102_3"/>
</filter>
<filter id="filter4_dii_102_3" x="188.533" y="89.2312" width="204.643" height="200.766" filterUnits="userSpaceOnUse" color-interpolation-filters="sRGB">
<feFlood flood-opacity="0" result="BackgroundImageFix"/>
<feColorMatrix in="SourceAlpha" type="matrix" values="0 0 0 0 0 0 0 0 0 0 0 0 0 0 0 0 0 0 127 0" result="hardAlpha"/>
<feOffset dy="12.1454"/>
<feGaussianBlur stdDeviation="10.1211"/>
<feColorMatrix type="matrix" values="0 0 0 0 0.2 0 0 0 0 0.2 0 0 0 0 0.2 0 0 0 0.2 0"/>
<feBlend mode="normal" in2="BackgroundImageFix" result="effect1_dropShadow_102_3"/>
<feBlend mode="normal" in="SourceGraphic" in2="effect1_dropShadow_102_3" result="shape"/>
<feColorMatrix in="SourceAlpha" type="matrix" values="0 0 0 0 0 0 0 0 0 0 0 0 0 0 0 0 0 0 127 0" result="hardAlpha"/>
<feOffset dy="6.73219"/>
<feGaussianBlur stdDeviation="3.36609"/>
<feComposite in2="hardAlpha" operator="arithmetic" k2="-1" k3="1"/>
<feColorMatrix type="matrix" values="0 0 0 0 1 0 0 0 0 1 0 0 0 0 1 0 0 0 1 0"/>
<feBlend mode="normal" in2="shape" result="effect2_innerShadow_102_3"/>
<feColorMatrix in="SourceAlpha" type="matrix" values="0 0 0 0 0 0 0 0 0 0 0 0 0 0 0 0 0 0 127 0" result="hardAlpha"/>
<feOffset dy="-6.73219"/>
<feGaussianBlur stdDeviation="3.36609"/>
<feComposite in2="hardAlpha" operator="arithmetic" k2="-1" k3="1"/>
<feColorMatrix type="matrix" values="0 0 0 0 0.8 0 0 0 0 0.8 0 0 0 0 0.8 0 0 0 1 0"/>
<feBlend mode="normal" in2="effect2_innerShadow_102_3" result="effect3_innerShadow_102_3"/>
</filter>
<filter id="filter5_dii_102_3" x="188.533" y="658.872" width="204.643" height="200.766" filterUnits="userSpaceOnUse" color-interpolation-filters="sRGB">
<feFlood flood-opacity="0" result="BackgroundImageFix"/>
<feColorMatrix in="SourceAlpha" type="matrix" values="0 0 0 0 0 0 0 0 0 0 0 0 0 0 0 0 0 0 127 0" result="hardAlpha"/>
<feOffset dy="12.1454"/>
<feGaussianBlur stdDeviation="10.1211"/>
<feColorMatrix type="matrix" values="0 0 0 0 0.2 0 0 0 0 0.2 0 0 0 0 0.2 0 0 0 0.2 0"/>
<feBlend mode="normal" in2="BackgroundImageFix" result="effect1_dropShadow_102_3"/>
<feBlend mode="normal" in="SourceGraphic" in2="effect1_dropShadow_102_3" result="shape"/>
<feColorMatrix in="SourceAlpha" type="matrix" values="0 0 0 0 0 0 0 0 0 0 0 0 0 0 0 0 0 0 127 0" result="hardAlpha"/>
<feOffset dy="6.73219"/>
<feGaussianBlur stdDeviation="3.36609"/>
<feComposite in2="hardAlpha" operator="arithmetic" k2="-1" k3="1"/>
<feColorMatrix type="matrix" values="0 0 0 0 1 0 0 0 0 1 0 0 0 0 1 0 0 0 1 0"/>
<feBlend mode="normal" in2="shape" result="effect2_innerShadow_102_3"/>
<feColorMatrix in="SourceAlpha" type="matrix" values="0 0 0 0 0 0 0 0 0 0 0 0 0 0 0 0 0 0 127 0" result="hardAlpha"/>
<feOffset dy="-6.73219"/>
<feGaussianBlur stdDeviation="3.36609"/>
<feComposite in2="hardAlpha" operator="arithmetic" k2="-1" k3="1"/>
<feColorMatrix type="matrix" values="0 0 0 0 0.8 0 0 0 0 0.8 0 0 0 0 0.8 0 0 0 1 0"/>
<feBlend mode="normal" in2="effect2_innerShadow_102_3" result="effect3_innerShadow_102_3"/>
</filter>
<filter id="filter6_dii_102_3" x="534.566" y="658.872" width="204.647" height="200.766" filterUnits="userSpaceOnUse" color-interpolation-filters="sRGB">
<feFlood flood-opacity="0" result="BackgroundImageFix"/>
<feColorMatrix in="SourceAlpha" type="matrix" values="0 0 0 0 0 0 0 0 0 0 0 0 0 0 0 0 0 0 127 0" result="hardAlpha"/>
<feOffset dy="12.1454"/>
<feGaussianBlur stdDeviation="10.1211"/>
<feColorMatrix type="matrix" values="0 0 0 0 0.2 0 0 0 0 0.2 0 0 0 0 0.2 0 0 0 0.2 0"/>
<feBlend mode="normal" in2="BackgroundImageFix" result="effect1_dropShadow_102_3"/>
<feBlend mode="normal" in="SourceGraphic" in2="effect1_dropShadow_102_3" result="shape"/>
<feColorMatrix in="SourceAlpha" type="matrix" values="0 0 0 0 0 0 0 0 0 0 0 0 0 0 0 0 0 0 127 0" result="hardAlpha"/>
<feOffset dy="6.73219"/>
<feGaussianBlur stdDeviation="3.36609"/>
<feComposite in2="hardAlpha" operator="arithmetic" k2="-1" k3="1"/>
<feColorMatrix type="matrix" values="0 0 0 0 1 0 0 0 0 1 0 0 0 0 1 0 0 0 1 0"/>
<feBlend mode="normal" in2="shape" result="effect2_innerShadow_102_3"/>
<feColorMatrix in="SourceAlpha" type="matrix" values="0 0 0 0 0 0 0 0 0 0 0 0 0 0 0 0 0 0 127 0" result="hardAlpha"/>
<feOffset dy="-6.73219"/>
<feGaussianBlur stdDeviation="3.36609"/>
<feComposite in2="hardAlpha" operator="arithmetic" k2="-1" k3="1"/>
<feColorMatrix type="matrix" values="0 0 0 0 0.8 0 0 0 0 0.8 0 0 0 0 0.8 0 0 0 1 0"/>
<feBlend mode="normal" in2="effect2_innerShadow_102_3" result="effect3_innerShadow_102_3"/>
</filter>
<filter id="filter7_dii_102_3" x="647.926" y="199.012" width="200.768" height="204.649" filterUnits="userSpaceOnUse" color-interpolation-filters="sRGB">
<feFlood flood-opacity="0" result="BackgroundImageFix"/>
<feColorMatrix in="SourceAlpha" type="matrix" values="0 0 0 0 0 0 0 0 0 0 0 0 0 0 0 0 0 0 127 0" result="hardAlpha"/>
<feOffset dy="12.1454"/>
<feGaussianBlur stdDeviation="10.1211"/>
<feColorMatrix type="matrix" values="0 0 0 0 0.2 0 0 0 0 0.2 0 0 0 0 0.2 0 0 0 0.2 0"/>
<feBlend mode="normal" in2="BackgroundImageFix" result="effect1_dropShadow_102_3"/>
<feBlend mode="normal" in="SourceGraphic" in2="effect1_dropShadow_102_3" result="shape"/>
<feColorMatrix in="SourceAlpha" type="matrix" values="0 0 0 0 0 0 0 0 0 0 0 0 0 0 0 0 0 0 127 0" result="hardAlpha"/>
<feOffset dy="6.73219"/>
<feGaussianBlur stdDeviation="3.36609"/>
<feComposite in2="hardAlpha" operator="arithmetic" k2="-1" k3="1"/>
<feColorMatrix type="matrix" values="0 0 0 0 1 0 0 0 0 1 0 0 0 0 1 0 0 0 1 0"/>
<feBlend mode="normal" in2="shape" result="effect2_innerShadow_102_3"/>
<feColorMatrix in="SourceAlpha" type="matrix" values="0 0 0 0 0 0 0 0 0 0 0 0 0 0 0 0 0 0 127 0" result="hardAlpha"/>
<feOffset dy="-6.73219"/>
<feGaussianBlur stdDeviation="3.36609"/>
<feComposite in2="hardAlpha" operator="arithmetic" k2="-1" k3="1"/>
<feColorMatrix type="matrix" values="0 0 0 0 0.8 0 0 0 0 0.8 0 0 0 0 0.8 0 0 0 1 0"/>
<feBlend mode="normal" in2="effect2_innerShadow_102_3" result="effect3_innerShadow_102_3"/>
</filter>
<filter id="filter8_dii_102_3" x="78.3046" y="199.45" width="200.77" height="204.649" filterUnits="userSpaceOnUse" color-interpolation-filters="sRGB">
<feFlood flood-opacity="0" result="BackgroundImageFix"/>
<feColorMatrix in="SourceAlpha" type="matrix" values="0 0 0 0 0 0 0 0 0 0 0 0 0 0 0 0 0 0 127 0" result="hardAlpha"/>
<feOffset dy="12.1454"/>
<feGaussianBlur stdDeviation="10.1211"/>
<feColorMatrix type="matrix" values="0 0 0 0 0.2 0 0 0 0 0.2 0 0 0 0 0.2 0 0 0 0.2 0"/>
<feBlend mode="normal" in2="BackgroundImageFix" result="effect1_dropShadow_102_3"/>
<feBlend mode="normal" in="SourceGraphic" in2="effect1_dropShadow_102_3" result="shape"/>
<feColorMatrix in="SourceAlpha" type="matrix" values="0 0 0 0 0 0 0 0 0 0 0 0 0 0 0 0 0 0 127 0" result="hardAlpha"/>
<feOffset dy="6.73219"/>
<feGaussianBlur stdDeviation="3.36609"/>
<feComposite in2="hardAlpha" operator="arithmetic" k2="-1" k3="1"/>
<feColorMatrix type="matrix" values="0 0 0 0 1 0 0 0 0 1 0 0 0 0 1 0 0 0 1 0"/>
<feBlend mode="normal" in2="shape" result="effect2_innerShadow_102_3"/>
<feColorMatrix in="SourceAlpha" type="matrix" values="0 0 0 0 0 0 0 0 0 0 0 0 0 0 0 0 0 0 127 0" result="hardAlpha"/>
<feOffset dy="-6.73219"/>
<feGaussianBlur stdDeviation="3.36609"/>
<feComposite in2="hardAlpha" operator="arithmetic" k2="-1" k3="1"/>
<feColorMatrix type="matrix" values="0 0 0 0 0.8 0 0 0 0 0.8 0 0 0 0 0.8 0 0 0 1 0"/>
<feBlend mode="normal" in2="effect2_innerShadow_102_3" result="effect3_innerShadow_102_3"/>
</filter>
<filter id="filter9_dii_102_3" x="78.3046" y="545.497" width="200.77" height="204.649" filterUnits="userSpaceOnUse" color-interpolation-filters="sRGB">
<feFlood flood-opacity="0" result="BackgroundImageFix"/>
<feColorMatrix in="SourceAlpha" type="matrix" values="0 0 0 0 0 0 0 0 0 0 0 0 0 0 0 0 0 0 127 0" result="hardAlpha"/>
<feOffset dy="12.1454"/>
<feGaussianBlur stdDeviation="10.1211"/>
<feColorMatrix type="matrix" values="0 0 0 0 0.2 0 0 0 0 0.2 0 0 0 0 0.2 0 0 0 0.2 0"/>
<feBlend mode="normal" in2="BackgroundImageFix" result="effect1_dropShadow_102_3"/>
<feBlend mode="normal" in="SourceGraphic" in2="effect1_dropShadow_102_3" result="shape"/>
<feColorMatrix in="SourceAlpha" type="matrix" values="0 0 0 0 0 0 0 0 0 0 0 0 0 0 0 0 0 0 127 0" result="hardAlpha"/>
<feOffset dy="6.73219"/>
<feGaussianBlur stdDeviation="3.36609"/>
<feComposite in2="hardAlpha" operator="arithmetic" k2="-1" k3="1"/>
<feColorMatrix type="matrix" values="0 0 0 0 1 0 0 0 0 1 0 0 0 0 1 0 0 0 1 0"/>
<feBlend mode="normal" in2="shape" result="effect2_innerShadow_102_3"/>
<feColorMatrix in="SourceAlpha" type="matrix" values="0 0 0 0 0 0 0 0 0 0 0 0 0 0 0 0 0 0 127 0" result="hardAlpha"/>
<feOffset dy="-6.73219"/>
<feGaussianBlur stdDeviation="3.36609"/>
<feComposite in2="hardAlpha" operator="arithmetic" k2="-1" k3="1"/>
<feColorMatrix type="matrix" values="0 0 0 0 0.8 0 0 0 0 0.8 0 0 0 0 0.8 0 0 0 1 0"/>
<feBlend mode="normal" in2="effect2_innerShadow_102_3" result="effect3_innerShadow_102_3"/>
</filter>
<filter id="filter10_dii_102_3" x="647.945" y="545.497" width="200.768" height="204.649" filterUnits="userSpaceOnUse" color-interpolation-filters="sRGB">
<feFlood flood-opacity="0" result="BackgroundImageFix"/>
<feColorMatrix in="SourceAlpha" type="matrix" values="0 0 0 0 0 0 0 0 0 0 0 0 0 0 0 0 0 0 127 0" result="hardAlpha"/>
<feOffset dy="12.1454"/>
<feGaussianBlur stdDeviation="10.1211"/>
<feColorMatrix type="matrix" values="0 0 0 0 0.2 0 0 0 0 0.2 0 0 0 0 0.2 0 0 0 0.2 0"/>
<feBlend mode="normal" in2="BackgroundImageFix" result="effect1_dropShadow_102_3"/>
<feBlend mode="normal" in="SourceGraphic" in2="effect1_dropShadow_102_3" result="shape"/>
<feColorMatrix in="SourceAlpha" type="matrix" values="0 0 0 0 0 0 0 0 0 0 0 0 0 0 0 0 0 0 127 0" result="hardAlpha"/>
<feOffset dy="6.73219"/>
<feGaussianBlur stdDeviation="3.36609"/>
<feComposite in2="hardAlpha" operator="arithmetic" k2="-1" k3="1"/>
<feColorMatrix type="matrix" values="0 0 0 0 1 0 0 0 0 1 0 0 0 0 1 0 0 0 1 0"/>
<feBlend mode="normal" in2="shape" result="effect2_innerShadow_102_3"/>
<feColorMatrix in="SourceAlpha" type="matrix" values="0 0 0 0 0 0 0 0 0 0 0 0 0 0 0 0 0 0 127 0" result="hardAlpha"/>
<feOffset dy="-6.73219"/>
<feGaussianBlur stdDeviation="3.36609"/>
<feComposite in2="hardAlpha" operator="arithmetic" k2="-1" k3="1"/>
<feColorMatrix type="matrix" values="0 0 0 0 0.8 0 0 0 0 0.8 0 0 0 0 0.8 0 0 0 1 0"/>
<feBlend mode="normal" in2="effect2_innerShadow_102_3" result="effect3_innerShadow_102_3"/>
</filter>
<filter id="filter11_dii_102_3" x="49.5917" y="376.145" width="170.524" height="195.695" filterUnits="userSpaceOnUse" color-interpolation-filters="sRGB">
<feFlood flood-opacity="0" result="BackgroundImageFix"/>
<feColorMatrix in="SourceAlpha" type="matrix" values="0 0 0 0 0 0 0 0 0 0 0 0 0 0 0 0 0 0 127 0" result="hardAlpha"/>
<feOffset dy="12.1454"/>
<feGaussianBlur stdDeviation="10.1211"/>
<feColorMatrix type="matrix" values="0 0 0 0 0.2 0 0 0 0 0.2 0 0 0 0 0.2 0 0 0 0.2 0"/>
<feBlend mode="normal" in2="BackgroundImageFix" result="effect1_dropShadow_102_3"/>
<feBlend mode="normal" in="SourceGraphic" in2="effect1_dropShadow_102_3" result="shape"/>
<feColorMatrix in="SourceAlpha" type="matrix" values="0 0 0 0 0 0 0 0 0 0 0 0 0 0 0 0 0 0 127 0" result="hardAlpha"/>
<feOffset dy="6.73219"/>
<feGaussianBlur stdDeviation="3.36609"/>
<feComposite in2="hardAlpha" operator="arithmetic" k2="-1" k3="1"/>
<feColorMatrix type="matrix" values="0 0 0 0 1 0 0 0 0 1 0 0 0 0 1 0 0 0 1 0"/>
<feBlend mode="normal" in2="shape" result="effect2_innerShadow_102_3"/>
<feColorMatrix in="SourceAlpha" type="matrix" values="0 0 0 0 0 0 0 0 0 0 0 0 0 0 0 0 0 0 127 0" result="hardAlpha"/>
<feOffset dy="-6.73219"/>
<feGaussianBlur stdDeviation="3.36609"/>
<feComposite in2="hardAlpha" operator="arithmetic" k2="-1" k3="1"/>
<feColorMatrix type="matrix" values="0 0 0 0 0.8 0 0 0 0 0.8 0 0 0 0 0.8 0 0 0 1 0"/>
<feBlend mode="normal" in2="effect2_innerShadow_102_3" result="effect3_innerShadow_102_3"/>
</filter>
<linearGradient id="paint0_linear_102_3" x1="793.001" y1="390.547" x2="793.001" y2="539.127" gradientUnits="userSpaceOnUse">
<stop stop-color="white"/>
<stop offset="1" stop-color="#D6D6D6"/>
</linearGradient>
<linearGradient id="paint1_linear_102_3" x1="463.769" y1="730.625" x2="463.769" y2="843.259" gradientUnits="userSpaceOnUse">
<stop stop-color="white"/>
<stop offset="1" stop-color="#D6D6D6"/>
</linearGradient>
<linearGradient id="paint2_linear_102_3" x1="463.769" y1="82.9141" x2="463.769" y2="195.548" gradientUnits="userSpaceOnUse">
<stop stop-color="white"/>
<stop offset="1" stop-color="#D6D6D6"/>
</linearGradient>
<linearGradient id="paint3_linear_102_3" x1="636.258" y1="102.57" x2="636.258" y2="252.154" gradientUnits="userSpaceOnUse">
<stop stop-color="white"/>
<stop offset="1" stop-color="#D6D6D6"/>
</linearGradient>
<linearGradient id="paint4_linear_102_3" x1="291.393" y1="102.57" x2="291.393" y2="252.154" gradientUnits="userSpaceOnUse">
<stop stop-color="white"/>
<stop offset="1" stop-color="#D6D6D6"/>
</linearGradient>
<linearGradient id="paint5_linear_102_3" x1="291.393" y1="672.422" x2="291.393" y2="822.006" gradientUnits="userSpaceOnUse">
<stop stop-color="white"/>
<stop offset="1" stop-color="#D6D6D6"/>
</linearGradient>
<linearGradient id="paint6_linear_102_3" x1="636.351" y1="672.422" x2="636.351" y2="822.006" gradientUnits="userSpaceOnUse">
<stop stop-color="white"/>
<stop offset="1" stop-color="#D6D6D6"/>
</linearGradient>
<linearGradient id="paint7_linear_102_3" x1="748.413" y1="213.047" x2="748.413" y2="366.415" gradientUnits="userSpaceOnUse">
<stop stop-color="white"/>
<stop offset="1" stop-color="#D6D6D6"/>
</linearGradient>
<linearGradient id="paint8_linear_102_3" x1="178.586" y1="213.484" x2="178.586" y2="366.852" gradientUnits="userSpaceOnUse">
<stop stop-color="white"/>
<stop offset="1" stop-color="#D6D6D6"/>
</linearGradient>
<linearGradient id="paint9_linear_102_3" x1="178.586" y1="558.453" x2="178.586" y2="711.821" gradientUnits="userSpaceOnUse">
<stop stop-color="white"/>
<stop offset="1" stop-color="#D6D6D6"/>
</linearGradient>
<linearGradient id="paint10_linear_102_3" x1="748.433" y1="558.453" x2="748.433" y2="711.821" gradientUnits="userSpaceOnUse">
<stop stop-color="white"/>
<stop offset="1" stop-color="#D6D6D6"/>
</linearGradient>
<linearGradient id="paint11_linear_102_3" x1="134.584" y1="385.836" x2="134.584" y2="534.416" gradientUnits="userSpaceOnUse">
<stop stop-color="white"/>
<stop offset="1" stop-color="#D6D6D6"/>
</linearGradient>
<linearGradient id="paint12_linear_102_3" x1="392.926" y1="455.703" x2="339.682" y2="399.125" gradientUnits="userSpaceOnUse">
<stop stop-color="#F2B45C"/>
<stop offset="1" stop-color="#ED1C24"/>
</linearGradient>
<linearGradient id="paint13_linear_102_3" x1="333.847" y1="538.98" x2="593.062" y2="350.249" gradientUnits="userSpaceOnUse">
<stop stop-color="#6811CE"/>
<stop offset="0.257" stop-color="#F44940"/>
<stop offset="0.486" stop-color="#FFB243"/>
<stop offset="0.7263" stop-color="#F44940"/>
<stop offset="1" stop-color="#6811CE"/>
</linearGradient>
<linearGradient id="paint14_linear_102_3" x1="536.272" y1="459.637" x2="588.343" y2="495.603" gradientUnits="userSpaceOnUse">
<stop stop-color="#F2B45C"/>
<stop offset="1" stop-color="#ED1C24"/>
</linearGradient>
<clipPath id="clip0_102_3">
<rect width="793.096" height="793.088" fill="white" transform="translate(67.1641 65.7344)"/>
</clipPath>
</defs>
</svg>
