<svg width="280" height="279" viewBox="0 0 280 279" fill="none" xmlns="http://www.w3.org/2000/svg">
<path opacity="0.2" d="M140 274C214.558 274 275 213.782 275 139.5C275 65.2177 214.558 5 140 5C65.4416 5 5 65.2177 5 139.5C5 213.782 65.4416 274 140 274Z" fill="white" stroke="#F4A07F" stroke-width="9.96205" stroke-miterlimit="10"/>
<path opacity="0.2" d="M209.66 75.0016C196.975 75.0016 185.348 79.6296 176.378 87.276L176.37 87.2681L176.226 87.4032C175.236 88.2496 174.287 89.129 173.365 90.0509L173.357 90.0587L145.652 115.733V115.437L125.342 134.487V134.555L118.793 140.629L118.538 140.866L117.447 141.873L112.429 146.526C110.508 127.348 97.9918 111.25 80.8306 104.178C92.3049 111.877 99.8706 124.963 99.8706 139.792C99.8706 150.603 95.8427 160.492 89.2164 168.038L89.2085 168.046L83.8861 172.977L82.7189 174.06L82.7111 174.068L80.917 175.727C80.8997 175.744 80.8746 175.761 80.8495 175.786C75.5176 180.11 68.7311 182.698 61.335 182.698H57.1547C51.5464 182.698 47 187.242 47 192.849C47 198.455 51.5464 203 57.1547 203H61.335C73.8854 203 85.4021 198.483 94.3299 190.978C94.3644 190.944 94.4068 190.911 94.4398 190.876C95.6589 189.845 96.834 188.761 97.9525 187.619L98.02 187.552L125.345 162.241V162.267L137.234 151.226L145.655 143.418L152.094 137.454L158.568 131.447C160.472 150.633 172.996 166.739 190.158 173.803C178.692 166.105 171.126 153.026 171.126 138.206C171.126 127.328 175.197 117.397 181.898 109.826L187.365 104.767L188.152 104.04L189.828 102.484C195.211 98.0003 202.124 95.3024 209.665 95.3024H213.845C219.454 95.3024 224 90.7576 224 85.1512C224 79.5448 219.454 75 213.845 75H209.665L209.66 75.0016Z" fill="url(#paint0_linear_73_5)"/>
<defs>
<linearGradient id="paint0_linear_73_5" x1="55.1486" y1="194.023" x2="222.552" y2="79.282" gradientUnits="userSpaceOnUse">
<stop stop-color="#6811CE"/>
<stop offset="0.26" stop-color="#F44940"/>
<stop offset="0.49" stop-color="#FFB243"/>
<stop offset="0.73" stop-color="#F44940"/>
<stop offset="1" stop-color="#6811CE"/>
</linearGradient>
</defs>
</svg>
