<svg width="1337" height="779" viewBox="0 0 1337 779" fill="none" xmlns="http://www.w3.org/2000/svg">
<path d="M359.342 370.554V431.59H332V370.554C332 333.634 346.367 298.938 372.487 272.818L498.493 146.812L517.82 166.14L391.814 292.146C370.874 313.085 359.342 340.916 359.342 370.53V370.554Z" fill="url(#paint0_linear_91_132)"/>
<path d="M468.236 318.835C461.223 318.835 454.626 316.098 449.666 311.138L316.697 178.169C311.737 173.209 309 166.611 309 159.599C309 152.586 311.737 145.989 316.697 141.029L449.178 8.54825C454.138 3.58816 460.735 0.851562 467.747 0.851562C474.76 0.851562 481.357 3.58816 486.317 8.54825L619.287 141.518C629.524 151.756 629.524 168.42 619.287 178.657L486.806 311.138C481.846 316.098 475.249 318.835 468.236 318.835Z" fill="url(#paint1_linear_91_132)"/>
<g filter="url(#filter0_d_91_132)">
<path d="M456.088 15.7593L323.605 148.242C317.336 154.512 317.336 164.676 323.605 170.945L456.572 303.912C462.841 310.181 473.005 310.181 479.275 303.912L611.758 171.429C618.027 165.16 618.027 154.995 611.758 148.726L478.791 15.7593C472.522 9.49021 462.357 9.49023 456.088 15.7593Z" fill="url(#paint2_linear_91_132)"/>
</g>
<path d="M952.479 370.554V431.59H979.82V370.554C979.82 333.634 965.453 298.938 939.333 272.818L813.327 146.812L794 166.14L920.006 292.146C940.946 313.085 952.479 340.916 952.479 370.53V370.554Z" fill="url(#paint3_linear_91_132)"/>
<path d="M843.729 318.835C850.742 318.835 857.339 316.098 862.299 311.138L995.268 178.169C1000.23 173.209 1002.96 166.611 1002.96 159.599C1002.96 152.586 1000.23 145.989 995.268 141.029L862.787 8.54825C857.827 3.58816 851.23 0.851562 844.218 0.851562C837.205 0.851562 830.608 3.58816 825.648 8.54825L692.678 141.518C682.441 151.756 682.441 168.42 692.678 178.657L825.159 311.138C830.119 316.098 836.716 318.835 843.729 318.835Z" fill="url(#paint4_linear_91_132)"/>
<g filter="url(#filter1_d_91_132)">
<path d="M700.045 171.423L832.528 303.907C838.797 310.176 848.961 310.176 855.23 303.907L988.197 170.94C994.466 164.671 994.466 154.506 988.197 148.237L855.714 15.754C849.445 9.4849 839.281 9.48488 833.011 15.754L700.044 148.721C693.775 154.99 693.775 165.154 700.045 171.423Z" fill="url(#paint5_linear_91_132)"/>
</g>
<path d="M292.275 448.421V509.457H319.617V448.421C319.617 411.502 305.25 376.805 279.13 350.686L153.124 224.68L133.797 244.007L259.803 370.013C280.743 390.953 292.275 418.783 292.275 448.397V448.421Z" fill="url(#paint6_linear_91_132)"/>
<path d="M158.729 428.819C165.742 428.819 172.339 426.083 177.299 421.123L310.268 288.153C315.228 283.193 317.965 276.596 317.965 269.583C317.965 262.571 315.228 255.974 310.268 251.013L177.787 118.533C172.827 113.573 166.23 110.836 159.218 110.836C152.205 110.836 145.608 113.573 140.648 118.533L7.67837 251.502C-2.55946 261.74 -2.55946 278.404 7.67837 288.642L140.159 421.123C145.119 426.083 151.716 428.819 158.729 428.819Z" fill="url(#paint7_linear_91_132)"/>
<g filter="url(#filter2_d_91_132)">
<path d="M14.439 281.416L146.922 413.899C153.191 420.168 163.356 420.168 169.625 413.899L302.592 280.932C308.861 274.663 308.861 264.498 302.592 258.229L170.108 125.746C163.839 119.477 153.675 119.477 147.406 125.746L14.439 258.713C8.1699 264.982 8.16991 275.146 14.439 281.416Z" fill="url(#paint8_linear_91_132)"/>
</g>
<path d="M1018.16 448.421V509.457H990.82V448.421C990.82 411.502 1005.19 376.805 1031.31 350.686L1157.31 224.68L1176.64 244.007L1050.63 370.013C1029.69 390.953 1018.16 418.783 1018.16 448.397V448.421Z" fill="url(#paint9_linear_91_132)"/>
<path d="M1145.73 428.827C1152.74 428.827 1159.34 426.09 1164.3 421.13L1297.27 288.161C1302.23 283.201 1304.96 276.604 1304.96 269.591C1304.96 262.579 1302.23 255.981 1297.27 251.021L1164.79 118.54C1159.83 113.58 1153.23 110.844 1146.22 110.844C1139.21 110.844 1132.61 113.58 1127.65 118.54L994.678 251.51C984.441 261.748 984.441 278.412 994.678 288.65L1127.16 421.13C1132.12 426.09 1138.72 428.827 1145.73 428.827Z" fill="url(#paint10_linear_91_132)"/>
<g filter="url(#filter3_d_91_132)">
<path d="M1002.04 281.431L1134.52 413.914C1140.79 420.183 1150.95 420.183 1157.22 413.914L1290.19 280.947C1296.46 274.678 1296.46 264.514 1290.19 258.245L1157.71 125.762C1151.44 119.493 1141.27 119.493 1135 125.762L1002.04 258.729C995.767 264.998 995.768 275.162 1002.04 281.431Z" fill="url(#paint11_linear_91_132)"/>
</g>
<path d="M451.238 503.96L597.378 357.82L616.705 377.148L472.52 521.332L451.238 503.96Z" fill="url(#paint12_linear_91_132)"/>
<path d="M841.791 503.96L695.651 357.82L676.324 377.148L820.509 521.332L841.791 503.96Z" fill="url(#paint13_linear_91_132)"/>
<path d="M879.348 591.702L753.317 717.708C740.946 730.079 731.858 744.865 726.492 761C722.776 772.175 721.223 752.232 720.844 766.117C720.466 780.002 720.844 773.476 720.844 773.476L693.527 772.525C697.433 757.916 699.622 780.725 703.527 766.117C703.527 766.117 695.049 772.324 698 761C704.12 737.524 716.386 716.001 733.99 698.381L860.02 572.375L879.348 591.702Z" fill="url(#paint14_linear_91_132)"/>
<path d="M926.729 703.139C933.742 703.139 940.339 700.403 945.299 695.443L1078.27 562.473C1083.23 557.513 1085.96 550.916 1085.96 543.904C1085.96 536.891 1083.23 530.294 1078.27 525.334L945.787 392.853C940.827 387.893 934.23 385.156 927.218 385.156C920.205 385.156 913.608 387.893 908.648 392.853L775.678 525.822C765.441 536.06 765.441 552.724 775.678 562.962L908.159 695.443C913.119 700.403 919.716 703.139 926.729 703.139Z" fill="url(#paint15_linear_91_132)"/>
<g filter="url(#filter4_d_91_132)">
<path d="M782.166 555.744L914.649 688.227C920.918 694.496 931.082 694.496 937.351 688.227L1070.32 555.26C1076.59 548.991 1076.59 538.827 1070.32 532.557L937.835 400.074C931.566 393.805 921.402 393.805 915.132 400.074L782.166 533.041C775.896 539.31 775.896 549.475 782.166 555.744Z" fill="url(#paint16_linear_91_132)"/>
</g>
<path d="M619.82 765.742C619.82 779.177 619.82 773.321 619.82 773.321L592.479 773.394V765.742C592.479 765.742 590.056 768.963 585.414 756.625C579.93 742.045 571.348 728.675 560.006 717.333L434 591.327L453.327 572L579.358 698.006C595.957 714.62 607.81 734.705 614.239 756.625C617.918 769.165 619.82 752.306 619.82 765.742Z" fill="url(#paint17_linear_91_132)"/>
<path d="M384.236 703.155C377.223 703.155 370.626 700.419 365.666 695.458L232.697 562.489C227.737 557.529 225 550.932 225 543.919C225 536.907 227.737 530.309 232.697 525.349L365.177 392.869C370.138 387.908 376.735 385.172 383.747 385.172C390.76 385.172 397.357 387.908 402.317 392.869L535.287 525.838C545.524 536.076 545.524 552.74 535.287 562.978L402.806 695.458C397.846 700.419 391.249 703.155 384.236 703.155Z" fill="url(#paint18_linear_91_132)"/>
<g filter="url(#filter5_d_91_132)">
<path d="M371.94 400.087L239.457 532.571C233.188 538.84 233.188 549.004 239.457 555.273L372.424 688.24C378.693 694.509 388.857 694.509 395.126 688.24L527.609 555.757C533.878 549.488 533.878 539.323 527.609 533.054L394.642 400.087C388.373 393.818 378.209 393.818 371.94 400.087Z" fill="url(#paint19_linear_91_132)"/>
</g>
<path d="M668.697 363.562V763.623L641.355 763.672V363.562H668.697Z" fill="url(#paint20_linear_91_132)"/>
<path d="M654.776 512.249C661.788 512.249 668.386 509.512 673.346 504.552L806.315 371.583C811.275 366.623 814.012 360.025 814.012 353.013C814.012 346 811.275 339.403 806.315 334.443L673.834 201.962C668.874 197.002 662.277 194.266 655.265 194.266C648.252 194.266 641.655 197.002 636.695 201.962L503.725 334.932C493.487 345.17 493.487 361.834 503.725 372.071L636.206 504.552C641.166 509.512 647.763 512.249 654.776 512.249Z" fill="url(#paint21_linear_91_132)"/>
<g filter="url(#filter6_d_91_132)">
<path d="M510.943 364.869L643.426 497.352C649.695 503.621 659.859 503.621 666.129 497.352L799.095 364.385C805.365 358.116 805.365 347.952 799.095 341.682L666.612 209.199C660.343 202.93 650.179 202.93 643.91 209.199L510.943 342.166C504.674 348.435 504.674 358.6 510.943 364.869Z" fill="url(#paint22_linear_91_132)"/>
</g>
<g filter="url(#filter7_d_91_132)">
<path d="M232.97 213.946L176.088 157.064C166.461 147.437 150.823 147.437 141.196 157.064L84.3143 213.946C77.2284 221.032 82.2618 233.127 92.2553 233.127H225.054C235.047 233.127 240.056 221.032 232.995 213.946H232.97Z" fill="url(#paint23_linear_91_132)"/>
</g>
<path d="M156.957 207.992V192.962L152.395 194.579L151.139 190.84L161.029 187.346H161.346V207.992H156.957Z" fill="white"/>
<g filter="url(#filter8_d_91_132)">
<path d="M541.97 103.977L485.088 47.0952C475.461 37.4683 459.823 37.4683 450.196 47.0952L393.314 103.977C386.228 111.063 391.262 123.158 401.255 123.158H534.054C544.047 123.158 549.056 111.063 541.995 103.977H541.97Z" fill="url(#paint24_linear_91_132)"/>
</g>
<path d="M459.898 98.4375V95.2901L464.2 91.4352C465.529 90.2417 466.568 89.2503 467.319 88.461C468.07 87.6717 468.599 86.9787 468.907 86.382C469.215 85.7852 469.369 85.1836 469.369 84.5772C469.369 83.6821 469.071 82.9939 468.474 82.5126C467.887 82.0314 467.045 81.7907 465.947 81.7907C465.071 81.7907 464.229 81.964 463.421 82.3105C462.612 82.657 461.885 83.1671 461.241 83.8409L459.609 80.3614C460.523 79.5433 461.577 78.9128 462.771 78.4701C463.964 78.0177 465.182 77.7915 466.424 77.7915C467.916 77.7915 469.215 78.0514 470.322 78.5711C471.429 79.0909 472.281 79.8176 472.877 80.7512C473.484 81.6752 473.787 82.7533 473.787 83.9853C473.787 84.8131 473.623 85.6216 473.296 86.4108C472.969 87.2001 472.391 88.0904 471.564 89.0818C470.745 90.0636 469.59 91.2571 468.098 92.6624L466.121 94.5104H474.321V98.4375H459.898Z" fill="white"/>
<g filter="url(#filter9_d_91_132)">
<path d="M770.328 103.977L827.21 47.0952C836.837 37.4683 852.475 37.4683 862.102 47.0952L918.984 103.977C926.07 111.063 921.036 123.158 911.043 123.158H778.244C768.251 123.158 763.242 111.063 770.303 103.977H770.328Z" fill="url(#paint25_linear_91_132)"/>
</g>
<path d="M842.876 98.8706C841.981 98.8706 841.1 98.7696 840.234 98.5674C839.377 98.3749 838.598 98.1102 837.895 97.7734C837.192 97.4365 836.639 97.0515 836.235 96.6183L837.664 92.8356C838.203 93.4517 838.92 93.9425 839.815 94.3083C840.72 94.6644 841.639 94.8425 842.573 94.8425C843.275 94.8425 843.891 94.7318 844.421 94.5104C844.95 94.2794 845.359 93.957 845.648 93.5431C845.946 93.1292 846.096 92.6431 846.096 92.0849C846.096 91.209 845.773 90.5304 845.128 90.0492C844.493 89.5679 843.665 89.3273 842.645 89.3273C842.279 89.3273 841.894 89.3561 841.49 89.4139C841.095 89.462 840.691 89.539 840.277 89.6449L839.007 86.6563L844.291 82.0939H836.466V78.2246H849.676V81.7907L844.796 86.5119C845.768 86.5793 846.692 86.844 847.568 87.306C848.444 87.768 849.161 88.4273 849.719 89.284C850.278 90.131 850.557 91.1801 850.557 92.4314C850.557 93.6827 850.23 94.7944 849.575 95.7665C848.921 96.729 848.016 97.4894 846.861 98.0477C845.706 98.5963 844.378 98.8706 842.876 98.8706Z" fill="white"/>
<g filter="url(#filter10_d_91_132)">
<path d="M579.386 297.399L636.269 240.517C645.896 230.89 661.533 230.89 671.16 240.517L728.043 297.399C735.128 304.485 730.095 316.58 720.101 316.58H587.303C577.31 316.58 572.301 304.485 579.362 297.399H579.386Z" fill="url(#paint26_linear_91_132)"/>
</g>
<path d="M652.939 292.511C651.621 292.511 650.374 292.324 649.2 291.948C648.026 291.573 647.054 291.053 646.284 290.389L647.655 286.65C648.291 287.285 649.051 287.752 649.936 288.05C650.822 288.339 651.736 288.483 652.68 288.483C653.421 288.483 654.061 288.377 654.6 288.165C655.148 287.954 655.567 287.631 655.856 287.198C656.154 286.765 656.303 286.221 656.303 285.567C656.303 285.018 656.149 284.542 655.841 284.137C655.543 283.733 655.12 283.425 654.571 283.213C654.032 282.992 653.392 282.881 652.651 282.881C652.169 282.881 651.664 282.939 651.135 283.055C650.605 283.17 650.071 283.348 649.532 283.589L647.569 281.423L648.637 271.88L660.274 271.909V275.994H651.929L651.467 279.532C651.823 279.445 652.174 279.378 652.521 279.33C652.877 279.281 653.243 279.257 653.618 279.257C655.014 279.257 656.246 279.517 657.314 280.037C658.392 280.557 659.234 281.308 659.841 282.289C660.447 283.261 660.75 284.426 660.75 285.783C660.75 287.15 660.423 288.339 659.769 289.349C659.124 290.35 658.214 291.13 657.04 291.688C655.875 292.237 654.508 292.511 652.939 292.511Z" fill="white"/>
<g filter="url(#filter11_d_91_132)">
<path d="M457.97 488.306L401.088 431.423C391.461 421.796 375.823 421.796 366.196 431.423L309.314 488.306C302.228 495.391 307.262 507.486 317.255 507.486H450.054C460.047 507.486 465.056 495.391 457.995 488.306H457.97Z" fill="url(#paint27_linear_91_132)"/>
</g>
<path d="M383.838 483.597C382.279 483.597 380.888 483.265 379.666 482.601C378.453 481.927 377.495 480.974 376.793 479.742C376.1 478.501 375.753 477.028 375.753 475.324C375.753 473.621 376.085 472.052 376.75 470.618C377.414 469.174 378.338 467.899 379.522 466.792C380.705 465.675 382.082 464.756 383.651 464.034C385.229 463.302 386.923 462.797 388.733 462.518L390.35 466.041C389.137 466.185 388.045 466.416 387.073 466.734C386.11 467.052 385.253 467.441 384.503 467.903C383.761 468.365 383.126 468.88 382.597 469.448C382.077 470.006 381.654 470.608 381.326 471.253C381.779 470.878 382.303 470.584 382.9 470.372C383.497 470.151 384.127 470.04 384.791 470.04C386.11 470.04 387.284 470.319 388.314 470.878C389.354 471.436 390.172 472.206 390.769 473.188C391.365 474.169 391.664 475.291 391.664 476.552C391.664 477.533 391.471 478.453 391.086 479.309C390.711 480.166 390.177 480.917 389.484 481.561C388.791 482.197 387.968 482.697 387.015 483.063C386.062 483.419 385.003 483.597 383.838 483.597ZM383.838 479.757C384.493 479.757 385.07 479.627 385.571 479.367C386.081 479.107 386.481 478.751 386.769 478.299C387.058 477.837 387.202 477.307 387.202 476.71C387.202 476.133 387.053 475.613 386.755 475.151C386.466 474.689 386.067 474.328 385.557 474.068C385.056 473.799 384.483 473.664 383.838 473.664C383.203 473.664 382.631 473.799 382.12 474.068C381.62 474.328 381.22 474.689 380.922 475.151C380.624 475.613 380.474 476.133 380.474 476.71C380.474 477.307 380.619 477.837 380.908 478.299C381.206 478.751 381.605 479.107 382.106 479.367C382.616 479.627 383.194 479.757 383.838 479.757Z" fill="white"/>
<g filter="url(#filter12_d_91_132)">
<path d="M1219.97 213.946L1163.09 157.064C1153.46 147.437 1137.82 147.437 1128.2 157.064L1071.31 213.946C1064.23 221.032 1069.26 233.127 1079.26 233.127H1212.05C1222.05 233.127 1227.06 221.032 1219.99 213.946H1219.97Z" fill="url(#paint28_linear_91_132)"/>
</g>
<path d="M1147.11 207.992V204.195H1137.51V200.788L1143.9 187.779H1148.63L1142.42 200.369H1147.11V196.428H1151.07V200.369H1153.82V204.195H1151.07V207.992H1147.11Z" fill="white"/>
<g filter="url(#filter13_d_91_132)">
<path d="M852.328 488.29L909.21 431.408C918.837 421.781 934.475 421.781 944.102 431.408L1000.98 488.29C1008.07 495.376 1003.04 507.471 993.043 507.471H860.244C850.251 507.471 845.242 495.376 852.303 488.29H852.328Z" fill="url(#paint29_linear_91_132)"/>
</g>
<path d="M920.177 483.156L928.002 467.203H919.166V462.943H933.315V466.307L925.215 483.156H920.177Z" fill="white"/>
<path d="M507.461 751.224V778.297H802.085V750.711L507.461 751.224Z" fill="#B7BBBC"/>
<defs>
<filter id="filter0_d_91_132" x="311.572" y="3.72451" width="346.426" height="346.43" filterUnits="userSpaceOnUse" color-interpolation-filters="sRGB">
<feFlood flood-opacity="0" result="BackgroundImageFix"/>
<feColorMatrix in="SourceAlpha" type="matrix" values="0 0 0 0 0 0 0 0 0 0 0 0 0 0 0 0 0 0 127 0" result="hardAlpha"/>
<feOffset dx="17.1038" dy="17.1038"/>
<feGaussianBlur stdDeviation="12.217"/>
<feColorMatrix type="matrix" values="0 0 0 0 0.686275 0 0 0 0 0.686275 0 0 0 0 0.686275 0 0 0 0.6 0"/>
<feBlend mode="normal" in2="BackgroundImageFix" result="effect1_dropShadow_91_132"/>
<feBlend mode="normal" in="SourceGraphic" in2="effect1_dropShadow_91_132" result="shape"/>
</filter>
<filter id="filter1_d_91_132" x="688.014" y="3.72451" width="346.423" height="346.423" filterUnits="userSpaceOnUse" color-interpolation-filters="sRGB">
<feFlood flood-opacity="0" result="BackgroundImageFix"/>
<feColorMatrix in="SourceAlpha" type="matrix" values="0 0 0 0 0 0 0 0 0 0 0 0 0 0 0 0 0 0 127 0" result="hardAlpha"/>
<feOffset dx="17.1038" dy="17.1038"/>
<feGaussianBlur stdDeviation="12.217"/>
<feColorMatrix type="matrix" values="0 0 0 0 0.686275 0 0 0 0 0.686275 0 0 0 0 0.686275 0 0 0 0.6 0"/>
<feBlend mode="normal" in2="BackgroundImageFix" result="effect1_dropShadow_91_132"/>
<feBlend mode="normal" in="SourceGraphic" in2="effect1_dropShadow_91_132" result="shape"/>
</filter>
<filter id="filter2_d_91_132" x="2.4081" y="113.717" width="346.423" height="346.423" filterUnits="userSpaceOnUse" color-interpolation-filters="sRGB">
<feFlood flood-opacity="0" result="BackgroundImageFix"/>
<feColorMatrix in="SourceAlpha" type="matrix" values="0 0 0 0 0 0 0 0 0 0 0 0 0 0 0 0 0 0 127 0" result="hardAlpha"/>
<feOffset dx="17.1038" dy="17.1038"/>
<feGaussianBlur stdDeviation="12.217"/>
<feColorMatrix type="matrix" values="0 0 0 0 0.686275 0 0 0 0 0.686275 0 0 0 0 0.686275 0 0 0 0.6 0"/>
<feBlend mode="normal" in2="BackgroundImageFix" result="effect1_dropShadow_91_132"/>
<feBlend mode="normal" in="SourceGraphic" in2="effect1_dropShadow_91_132" result="shape"/>
</filter>
<filter id="filter3_d_91_132" x="990.006" y="113.732" width="346.423" height="346.423" filterUnits="userSpaceOnUse" color-interpolation-filters="sRGB">
<feFlood flood-opacity="0" result="BackgroundImageFix"/>
<feColorMatrix in="SourceAlpha" type="matrix" values="0 0 0 0 0 0 0 0 0 0 0 0 0 0 0 0 0 0 127 0" result="hardAlpha"/>
<feOffset dx="17.1038" dy="17.1038"/>
<feGaussianBlur stdDeviation="12.217"/>
<feColorMatrix type="matrix" values="0 0 0 0 0.686275 0 0 0 0 0.686275 0 0 0 0 0.686275 0 0 0 0.6 0"/>
<feBlend mode="normal" in2="BackgroundImageFix" result="effect1_dropShadow_91_132"/>
<feBlend mode="normal" in="SourceGraphic" in2="effect1_dropShadow_91_132" result="shape"/>
</filter>
<filter id="filter4_d_91_132" x="770.135" y="388.045" width="346.423" height="346.423" filterUnits="userSpaceOnUse" color-interpolation-filters="sRGB">
<feFlood flood-opacity="0" result="BackgroundImageFix"/>
<feColorMatrix in="SourceAlpha" type="matrix" values="0 0 0 0 0 0 0 0 0 0 0 0 0 0 0 0 0 0 127 0" result="hardAlpha"/>
<feOffset dx="17.1038" dy="17.1038"/>
<feGaussianBlur stdDeviation="12.217"/>
<feColorMatrix type="matrix" values="0 0 0 0 0.686275 0 0 0 0 0.686275 0 0 0 0 0.686275 0 0 0 0.6 0"/>
<feBlend mode="normal" in2="BackgroundImageFix" result="effect1_dropShadow_91_132"/>
<feBlend mode="normal" in="SourceGraphic" in2="effect1_dropShadow_91_132" result="shape"/>
</filter>
<filter id="filter5_d_91_132" x="227.424" y="388.053" width="346.426" height="346.43" filterUnits="userSpaceOnUse" color-interpolation-filters="sRGB">
<feFlood flood-opacity="0" result="BackgroundImageFix"/>
<feColorMatrix in="SourceAlpha" type="matrix" values="0 0 0 0 0 0 0 0 0 0 0 0 0 0 0 0 0 0 127 0" result="hardAlpha"/>
<feOffset dx="17.1038" dy="17.1038"/>
<feGaussianBlur stdDeviation="12.217"/>
<feColorMatrix type="matrix" values="0 0 0 0 0.686275 0 0 0 0 0.686275 0 0 0 0 0.686275 0 0 0 0.6 0"/>
<feBlend mode="normal" in2="BackgroundImageFix" result="effect1_dropShadow_91_132"/>
<feBlend mode="normal" in="SourceGraphic" in2="effect1_dropShadow_91_132" result="shape"/>
</filter>
<filter id="filter6_d_91_132" x="498.912" y="197.17" width="346.423" height="346.423" filterUnits="userSpaceOnUse" color-interpolation-filters="sRGB">
<feFlood flood-opacity="0" result="BackgroundImageFix"/>
<feColorMatrix in="SourceAlpha" type="matrix" values="0 0 0 0 0 0 0 0 0 0 0 0 0 0 0 0 0 0 127 0" result="hardAlpha"/>
<feOffset dx="17.1038" dy="17.1038"/>
<feGaussianBlur stdDeviation="12.217"/>
<feColorMatrix type="matrix" values="0 0 0 0 0.686275 0 0 0 0 0.686275 0 0 0 0 0.686275 0 0 0 0.6 0"/>
<feBlend mode="normal" in2="BackgroundImageFix" result="effect1_dropShadow_91_132"/>
<feBlend mode="normal" in="SourceGraphic" in2="effect1_dropShadow_91_132" result="shape"/>
</filter>
<filter id="filter7_d_91_132" x="73.6698" y="142.514" width="204.165" height="132.149" filterUnits="userSpaceOnUse" color-interpolation-filters="sRGB">
<feFlood flood-opacity="0" result="BackgroundImageFix"/>
<feColorMatrix in="SourceAlpha" type="matrix" values="0 0 0 0 0 0 0 0 0 0 0 0 0 0 0 0 0 0 127 0" result="hardAlpha"/>
<feOffset dx="17.1038" dy="17.1038"/>
<feGaussianBlur stdDeviation="12.217"/>
<feColorMatrix type="matrix" values="0 0 0 0 0.686275 0 0 0 0 0.686275 0 0 0 0 0.686275 0 0 0 0.6 0"/>
<feBlend mode="normal" in2="BackgroundImageFix" result="effect1_dropShadow_91_132"/>
<feBlend mode="normal" in="SourceGraphic" in2="effect1_dropShadow_91_132" result="shape"/>
</filter>
<filter id="filter8_d_91_132" x="382.67" y="32.5448" width="204.165" height="132.149" filterUnits="userSpaceOnUse" color-interpolation-filters="sRGB">
<feFlood flood-opacity="0" result="BackgroundImageFix"/>
<feColorMatrix in="SourceAlpha" type="matrix" values="0 0 0 0 0 0 0 0 0 0 0 0 0 0 0 0 0 0 127 0" result="hardAlpha"/>
<feOffset dx="17.1038" dy="17.1038"/>
<feGaussianBlur stdDeviation="12.217"/>
<feColorMatrix type="matrix" values="0 0 0 0 0.686275 0 0 0 0 0.686275 0 0 0 0 0.686275 0 0 0 0.6 0"/>
<feBlend mode="normal" in2="BackgroundImageFix" result="effect1_dropShadow_91_132"/>
<feBlend mode="normal" in="SourceGraphic" in2="effect1_dropShadow_91_132" result="shape"/>
</filter>
<filter id="filter9_d_91_132" x="759.67" y="32.5448" width="204.165" height="132.149" filterUnits="userSpaceOnUse" color-interpolation-filters="sRGB">
<feFlood flood-opacity="0" result="BackgroundImageFix"/>
<feColorMatrix in="SourceAlpha" type="matrix" values="0 0 0 0 0 0 0 0 0 0 0 0 0 0 0 0 0 0 127 0" result="hardAlpha"/>
<feOffset dx="17.1038" dy="17.1038"/>
<feGaussianBlur stdDeviation="12.217"/>
<feColorMatrix type="matrix" values="0 0 0 0 0.686275 0 0 0 0 0.686275 0 0 0 0 0.686275 0 0 0 0.6 0"/>
<feBlend mode="normal" in2="BackgroundImageFix" result="effect1_dropShadow_91_132"/>
<feBlend mode="normal" in="SourceGraphic" in2="effect1_dropShadow_91_132" result="shape"/>
</filter>
<filter id="filter10_d_91_132" x="568.728" y="225.967" width="204.165" height="132.149" filterUnits="userSpaceOnUse" color-interpolation-filters="sRGB">
<feFlood flood-opacity="0" result="BackgroundImageFix"/>
<feColorMatrix in="SourceAlpha" type="matrix" values="0 0 0 0 0 0 0 0 0 0 0 0 0 0 0 0 0 0 127 0" result="hardAlpha"/>
<feOffset dx="17.1038" dy="17.1038"/>
<feGaussianBlur stdDeviation="12.217"/>
<feColorMatrix type="matrix" values="0 0 0 0 0.686275 0 0 0 0 0.686275 0 0 0 0 0.686275 0 0 0 0.6 0"/>
<feBlend mode="normal" in2="BackgroundImageFix" result="effect1_dropShadow_91_132"/>
<feBlend mode="normal" in="SourceGraphic" in2="effect1_dropShadow_91_132" result="shape"/>
</filter>
<filter id="filter11_d_91_132" x="298.67" y="416.873" width="204.165" height="132.149" filterUnits="userSpaceOnUse" color-interpolation-filters="sRGB">
<feFlood flood-opacity="0" result="BackgroundImageFix"/>
<feColorMatrix in="SourceAlpha" type="matrix" values="0 0 0 0 0 0 0 0 0 0 0 0 0 0 0 0 0 0 127 0" result="hardAlpha"/>
<feOffset dx="17.1038" dy="17.1038"/>
<feGaussianBlur stdDeviation="12.217"/>
<feColorMatrix type="matrix" values="0 0 0 0 0.686275 0 0 0 0 0.686275 0 0 0 0 0.686275 0 0 0 0.6 0"/>
<feBlend mode="normal" in2="BackgroundImageFix" result="effect1_dropShadow_91_132"/>
<feBlend mode="normal" in="SourceGraphic" in2="effect1_dropShadow_91_132" result="shape"/>
</filter>
<filter id="filter12_d_91_132" x="1060.67" y="142.514" width="204.165" height="132.149" filterUnits="userSpaceOnUse" color-interpolation-filters="sRGB">
<feFlood flood-opacity="0" result="BackgroundImageFix"/>
<feColorMatrix in="SourceAlpha" type="matrix" values="0 0 0 0 0 0 0 0 0 0 0 0 0 0 0 0 0 0 127 0" result="hardAlpha"/>
<feOffset dx="17.1038" dy="17.1038"/>
<feGaussianBlur stdDeviation="12.217"/>
<feColorMatrix type="matrix" values="0 0 0 0 0.686275 0 0 0 0 0.686275 0 0 0 0 0.686275 0 0 0 0.6 0"/>
<feBlend mode="normal" in2="BackgroundImageFix" result="effect1_dropShadow_91_132"/>
<feBlend mode="normal" in="SourceGraphic" in2="effect1_dropShadow_91_132" result="shape"/>
</filter>
<filter id="filter13_d_91_132" x="841.67" y="416.857" width="204.165" height="132.149" filterUnits="userSpaceOnUse" color-interpolation-filters="sRGB">
<feFlood flood-opacity="0" result="BackgroundImageFix"/>
<feColorMatrix in="SourceAlpha" type="matrix" values="0 0 0 0 0 0 0 0 0 0 0 0 0 0 0 0 0 0 127 0" result="hardAlpha"/>
<feOffset dx="17.1038" dy="17.1038"/>
<feGaussianBlur stdDeviation="12.217"/>
<feColorMatrix type="matrix" values="0 0 0 0 0.686275 0 0 0 0 0.686275 0 0 0 0 0.686275 0 0 0 0.6 0"/>
<feBlend mode="normal" in2="BackgroundImageFix" result="effect1_dropShadow_91_132"/>
<feBlend mode="normal" in="SourceGraphic" in2="effect1_dropShadow_91_132" result="shape"/>
</filter>
<linearGradient id="paint0_linear_91_132" x1="427.195" y1="246.503" x2="316.118" y2="450.722" gradientUnits="userSpaceOnUse">
<stop stop-color="#6CC0F4"/>
<stop offset="1" stop-color="#EA9600"/>
</linearGradient>
<linearGradient id="paint1_linear_91_132" x1="358.063" y1="49.9149" x2="561.525" y2="253.376" gradientUnits="userSpaceOnUse">
<stop stop-color="#6CC0F4"/>
<stop offset="1" stop-color="#EA9600"/>
</linearGradient>
<linearGradient id="paint2_linear_91_132" x1="318.918" y1="159.842" x2="616.475" y2="159.842" gradientUnits="userSpaceOnUse">
<stop stop-color="#E4EAED"/>
<stop offset="1" stop-color="#FAFBFC"/>
</linearGradient>
<linearGradient id="paint3_linear_91_132" x1="977.499" y1="431.248" x2="880.912" y2="239.93" gradientUnits="userSpaceOnUse">
<stop stop-color="#F2BF4E"/>
<stop offset="1" stop-color="#EA9600"/>
</linearGradient>
<linearGradient id="paint4_linear_91_132" x1="774.679" y1="61.4233" x2="925.534" y2="275.733" gradientUnits="userSpaceOnUse">
<stop stop-color="#F2BF4E"/>
<stop offset="1" stop-color="#EA9600"/>
</linearGradient>
<linearGradient id="paint5_linear_91_132" x1="695.354" y1="-8.55532" x2="992.91" y2="-8.55536" gradientUnits="userSpaceOnUse">
<stop stop-color="#E4EAED"/>
<stop offset="1" stop-color="#FAFBFC"/>
</linearGradient>
<linearGradient id="paint6_linear_91_132" x1="201.112" y1="345.457" x2="331.687" y2="476.056" gradientUnits="userSpaceOnUse">
<stop stop-color="#6CC0F4"/>
<stop offset="1" stop-color="#4B5AE8"/>
</linearGradient>
<linearGradient id="paint7_linear_91_132" x1="46.5528" y1="157.407" x2="262.207" y2="373.061" gradientUnits="userSpaceOnUse">
<stop stop-color="#6CC0F4"/>
<stop offset="1" stop-color="#4B5AE8"/>
</linearGradient>
<linearGradient id="paint8_linear_91_132" x1="9.70969" y1="269.825" x2="307.266" y2="269.825" gradientUnits="userSpaceOnUse">
<stop stop-color="#E4EAED"/>
<stop offset="1" stop-color="#FAFBFC"/>
</linearGradient>
<linearGradient id="paint9_linear_91_132" x1="1006.51" y1="451.451" x2="1117.58" y2="318.286" gradientUnits="userSpaceOnUse">
<stop stop-color="#6CE1F4"/>
<stop offset="1" stop-color="#E09913"/>
</linearGradient>
<linearGradient id="paint10_linear_91_132" x1="1054.1" y1="177.964" x2="1226.58" y2="350.443" gradientUnits="userSpaceOnUse">
<stop stop-color="#6CE1F4"/>
<stop offset="1" stop-color="#E09913"/>
</linearGradient>
<linearGradient id="paint11_linear_91_132" x1="997.359" y1="269.858" x2="1294.89" y2="269.858" gradientUnits="userSpaceOnUse">
<stop stop-color="#E4EAED"/>
<stop offset="1" stop-color="#FAFBFC"/>
</linearGradient>
<linearGradient id="paint12_linear_91_132" x1="497.467" y1="477.082" x2="560.947" y2="413.579" gradientUnits="userSpaceOnUse">
<stop stop-color="#A109D3"/>
<stop offset="1" stop-color="#6CC0F4"/>
</linearGradient>
<linearGradient id="paint13_linear_91_132" x1="733.329" y1="414.825" x2="830.673" y2="512.169" gradientUnits="userSpaceOnUse">
<stop stop-color="#D4007C"/>
<stop offset="1" stop-color="#A109D3"/>
</linearGradient>
<linearGradient id="paint14_linear_91_132" x1="932.003" y1="636.367" x2="676.863" y2="891.482" gradientUnits="userSpaceOnUse">
<stop stop-color="#D4007C"/>
<stop offset="1" stop-color="#A109D3"/>
</linearGradient>
<linearGradient id="paint15_linear_91_132" x1="812.769" y1="658.377" x2="1045.01" y2="426.132" gradientUnits="userSpaceOnUse">
<stop stop-color="#D4007C"/>
<stop offset="1" stop-color="#A109D3"/>
</linearGradient>
<linearGradient id="paint16_linear_91_132" x1="777.498" y1="544.167" x2="1075.05" y2="544.167" gradientUnits="userSpaceOnUse">
<stop stop-color="#E4EAED"/>
<stop offset="1" stop-color="#FAFBFC"/>
</linearGradient>
<linearGradient id="paint17_linear_91_132" x1="343.032" y1="398.348" x2="614.102" y2="885.903" gradientUnits="userSpaceOnUse">
<stop stop-color="#A109D3"/>
<stop offset="1" stop-color="#6CC0F4"/>
</linearGradient>
<linearGradient id="paint18_linear_91_132" x1="492.381" y1="652.552" x2="286.598" y2="446.77" gradientUnits="userSpaceOnUse">
<stop stop-color="#A109D3"/>
<stop offset="1" stop-color="#6CC0F4"/>
</linearGradient>
<linearGradient id="paint19_linear_91_132" x1="535.623" y1="696.257" x2="347.041" y2="507.675" gradientUnits="userSpaceOnUse">
<stop stop-color="#E4EAED"/>
<stop offset="1" stop-color="#FAFBFC"/>
</linearGradient>
<linearGradient id="paint20_linear_91_132" x1="502.277" y1="429.681" x2="832.282" y2="956.696" gradientUnits="userSpaceOnUse">
<stop stop-color="#6CC0F4"/>
<stop offset="1" stop-color="#4B5AE8"/>
</linearGradient>
<linearGradient id="paint21_linear_91_132" x1="567.327" y1="244.38" x2="738.438" y2="456.857" gradientUnits="userSpaceOnUse">
<stop stop-color="#6CC0F4"/>
<stop offset="1" stop-color="#4B5AE8"/>
</linearGradient>
<linearGradient id="paint22_linear_91_132" x1="506.235" y1="353.287" x2="803.791" y2="353.287" gradientUnits="userSpaceOnUse">
<stop stop-color="#E4EAED"/>
<stop offset="1" stop-color="#FAFBFC"/>
</linearGradient>
<linearGradient id="paint23_linear_91_132" x1="123.726" y1="180.374" x2="181.684" y2="249.351" gradientUnits="userSpaceOnUse">
<stop stop-color="#6CC0F4"/>
<stop offset="1" stop-color="#4B5AE8"/>
</linearGradient>
<linearGradient id="paint24_linear_91_132" x1="413.375" y1="57.6996" x2="496.181" y2="140.482" gradientUnits="userSpaceOnUse">
<stop stop-color="#6CC0F4"/>
<stop offset="1" stop-color="#EA9600"/>
</linearGradient>
<linearGradient id="paint25_linear_91_132" x1="805.513" y1="57.8462" x2="870.825" y2="148.007" gradientUnits="userSpaceOnUse">
<stop stop-color="#F2BF4E"/>
<stop offset="1" stop-color="#EA9600"/>
</linearGradient>
<linearGradient id="paint26_linear_91_132" x1="598.103" y1="243.547" x2="697.451" y2="353.939" gradientUnits="userSpaceOnUse">
<stop stop-color="#6CC0F4"/>
<stop offset="1" stop-color="#4B5AE8"/>
</linearGradient>
<linearGradient id="paint27_linear_91_132" x1="450.64" y1="563.293" x2="322.777" y2="435.431" gradientUnits="userSpaceOnUse">
<stop stop-color="#A109D3"/>
<stop offset="1" stop-color="#6CC0F4"/>
</linearGradient>
<linearGradient id="paint28_linear_91_132" x1="1099.93" y1="176.196" x2="1229.57" y2="305.842" gradientUnits="userSpaceOnUse">
<stop stop-color="#6CE1F4"/>
<stop offset="1" stop-color="#E09913"/>
</linearGradient>
<linearGradient id="paint29_linear_91_132" x1="882.504" y1="452.103" x2="977.601" y2="547.176" gradientUnits="userSpaceOnUse">
<stop stop-color="#D4007C"/>
<stop offset="1" stop-color="#A109D3"/>
</linearGradient>
</defs>
</svg>
