<svg width="151" height="20" viewBox="0 0 151 20" fill="none" xmlns="http://www.w3.org/2000/svg">
<g clip-path="url(#clip0_1988_52823)">
<path d="M65.1878 12.9262H75.1656L69.8897 4.33491L60.2066 19.8684H55.7997L67.5775 1.20937C68.0896 0.455471 68.9431 0 69.8897 0C70.8052 0 71.6586 0.439772 72.1552 1.17796L83.9796 19.8684H79.5727L77.4933 16.3973H67.3913L65.1878 12.9262ZM110.965 16.3973V0.188475H107.225V17.9836C107.225 18.4705 107.411 18.9417 107.768 19.303C108.125 19.6642 108.606 19.8684 109.134 19.8684H126.187L128.391 16.3973H110.965ZM49.0961 13.4917C52.7273 13.4917 55.6756 10.5232 55.6756 6.84792C55.6756 3.17266 52.7273 0.188475 49.0961 0.188475H32.7359V19.8684H36.4741V3.65956H48.8478C50.5858 3.65956 51.9824 5.08881 51.9824 6.84792C51.9824 8.60701 50.5858 10.0363 48.8478 10.0363L38.3052 10.0206L49.4685 19.8684H54.8997L47.3892 13.4917H49.0961ZM9.7234 19.8684C4.35581 19.8684 0 15.4706 0 10.0363C0 4.60192 4.35581 0.188475 9.7234 0.188475H21.0248C26.3938 0.188475 30.7466 4.60192 30.7466 10.0363C30.7466 15.4706 26.3938 19.8684 21.0248 19.8684H9.7234ZM20.7734 16.3973C24.2509 16.3973 27.0674 13.5545 27.0674 10.0363C27.0674 6.51808 24.2509 3.65956 20.7734 3.65956H9.97318C6.49724 3.65956 3.67919 6.51808 3.67919 10.0363C3.67919 13.5545 6.49724 16.3973 9.97318 16.3973H20.7734ZM91.7849 19.8684C86.4158 19.8684 82.0555 15.4706 82.0555 10.0363C82.0555 4.60192 86.4158 0.188475 91.7849 0.188475H105.208L103.02 3.65956H92.0332C88.5573 3.65956 85.7331 6.51808 85.7331 10.0363C85.7331 13.5545 88.5573 16.3973 92.0332 16.3973H105.518L103.315 19.8684H91.7849ZM137.515 16.3973C134.644 16.3973 132.208 14.4497 131.463 11.764H147.447L149.65 8.29289H131.463C132.208 5.62283 134.644 3.65956 137.515 3.65956H148.486L150.705 0.188475H137.267C131.898 0.188475 127.538 4.60192 127.538 10.0363C127.538 15.4706 131.898 19.8684 137.267 19.8684H148.797L151 16.3973H137.515Z" fill="#FF141D"/>
</g>
<defs>
<clipPath id="clip0_1988_52823">
<rect width="151" height="20" fill="white"/>
</clipPath>
</defs>
</svg>
