<svg width="128" height="36" viewBox="0 0 128 36" fill="none" xmlns="http://www.w3.org/2000/svg">
<g clip-path="url(#clip0_1988_52843)">
<path d="M44.2376 17.6223C44.7486 17.9414 45.5135 18.1968 46.4717 18.3883C47.43 18.6437 48.4503 18.7075 49.4725 18.7075C50.4946 18.7075 51.3872 18.5798 52.2177 18.3245C53.0481 18.0691 53.7491 17.6861 54.3879 17.2392C55.0267 16.7924 55.4739 16.154 55.7916 15.5173C56.111 14.879 56.3027 14.1146 56.3027 13.2848C56.3027 12.2634 55.9832 11.3714 55.4083 10.5415C54.8334 9.77542 53.813 9.13877 52.4076 8.69191L49.6624 7.79818C48.6403 7.479 47.8754 7.09597 47.4921 6.71294C47.1088 6.32992 46.9172 5.9469 46.9172 5.31025C46.9172 4.5442 47.2366 3.90755 47.8115 3.58836C48.3865 3.26917 49.2791 3.01382 50.429 3.01382C51.8326 3.01382 53.0464 3.26917 54.1945 3.77987C54.514 3.90755 54.7695 4.03522 54.9611 4.03522C55.2805 4.03522 55.4083 3.84371 55.4083 3.39685V2.50312C55.4083 2.24777 55.3444 1.99242 55.2167 1.86475C55.0889 1.73707 54.8972 1.54556 54.6417 1.35405C54.4501 1.22637 54.1307 1.0987 53.8113 1.03486C53.4918 0.907186 53.1086 0.843348 52.7253 0.715673C52.342 0.651835 51.8948 0.524161 51.4493 0.460324C51.0022 0.396486 50.555 0.396484 50.1095 0.396484C49.2791 0.396484 48.4503 0.52416 47.6838 0.715673C46.9172 0.971023 46.2162 1.29021 45.6413 1.73707C45.0663 2.24777 44.5553 2.75847 44.2376 3.39512C43.9182 4.0335 43.7265 4.73398 43.7265 5.56387C43.7265 6.58527 44.0459 7.54111 44.6847 8.37099C45.3236 9.26472 46.344 9.90137 47.8132 10.3482L50.6223 11.242C51.5806 11.5611 52.2177 11.8803 52.601 12.2634C52.9842 12.6464 53.112 13.0932 53.112 13.6022C53.112 14.3683 52.7926 15.0049 52.0899 15.4518C51.3872 15.8986 50.4946 16.0902 49.2169 16.0902C48.4503 16.0902 47.6855 16.0263 46.9189 15.8348C46.1523 15.6433 45.4513 15.4518 44.7486 15.1326C44.557 15.0688 44.3653 15.0049 44.2376 14.9411C44.1098 14.8772 43.982 14.8772 43.8543 14.8772C43.5349 14.8772 43.4071 15.0688 43.4071 15.5156V16.4732C43.4071 16.6647 43.471 16.8562 43.5349 17.0477C43.6626 17.3031 43.9182 17.4307 44.2376 17.6223ZM11.2969 8.18121C10.5942 8.05353 9.89318 8.05353 9.25436 8.05353C7.27574 8.05353 5.68042 8.56423 4.46666 9.58391C3.31678 10.6053 2.67969 11.9442 2.67969 13.6022C2.67969 15.1964 3.12686 16.4093 4.08337 17.3652C5.0416 18.3227 6.31751 18.7679 7.97672 18.7679C10.2747 18.7679 12.1895 17.8742 13.7227 16.0884C13.9143 16.5353 14.1059 16.9183 14.2976 17.2375C14.4892 17.5567 14.7448 17.8759 15.0003 18.1312C15.1919 18.3227 15.3836 18.3866 15.5752 18.3866C15.703 18.3866 15.8946 18.3227 16.0863 18.1951L17.2983 17.3652C17.5539 17.1737 17.6816 16.9822 17.6816 16.7906C17.6816 16.663 17.6177 16.5353 17.5539 16.3438C17.2983 15.8331 17.0428 15.3862 16.915 14.9411C16.7873 14.4942 16.6595 13.9197 16.6595 13.2192V6.84062C16.6595 4.73571 16.0846 3.1415 15.0642 2.05626C14.0421 0.971024 12.2551 0.462048 9.95707 0.462048C8.87107 0.462048 7.85068 0.589723 6.89245 0.845073C5.93422 1.10042 5.10548 1.41961 4.46666 1.7388C4.21113 1.86647 4.01948 1.99415 3.9556 2.12182C3.89172 2.2495 3.82784 2.50485 3.82784 2.82404V3.7816C3.82784 4.16462 3.9556 4.41997 4.21113 4.41997C4.27501 4.41997 4.40278 4.41997 4.53054 4.35614C4.65831 4.2923 4.91383 4.22846 5.23324 4.10078C5.93595 3.84543 6.63692 3.59008 7.33963 3.46241C8.04233 3.2709 8.74331 3.20706 9.44601 3.20706C10.9136 3.20706 11.9996 3.52625 12.6384 4.10078C13.2772 4.67532 13.5327 5.75884 13.5327 7.2271V8.6298C12.7005 8.43656 11.9996 8.30888 11.2969 8.18121ZM13.531 11.6267C13.531 12.2651 13.4671 12.8379 13.3394 13.2848C13.2116 13.7316 13.02 14.1785 12.7005 14.5598C12.1895 15.1343 11.5507 15.5812 10.8497 15.771C10.147 15.9625 9.44601 16.154 8.80719 16.154C7.91284 16.154 7.21186 15.8986 6.76469 15.4518C6.25363 15.0049 6.06199 14.3027 6.06199 13.4107C6.06199 12.4531 6.3814 11.6888 7.02022 11.1781C7.65904 10.6674 8.61554 10.4121 9.89318 10.4121C10.4681 10.4121 11.1052 10.4759 11.744 10.5397C12.3829 10.6036 12.9561 10.7313 13.531 10.8589V11.6267ZM23.2981 17.3031C23.4258 17.6861 23.5536 17.9414 23.6814 18.0691C23.8091 18.1968 24.0646 18.2606 24.4479 18.2606H26.1071C26.4904 18.2606 26.746 18.1968 26.8737 18.0691C27.0015 17.9414 27.1293 17.6861 27.257 17.3031L30.2578 4.73571L33.3224 17.3031C33.3863 17.6861 33.514 17.9414 33.7057 18.0691C33.8973 18.1968 34.1528 18.2606 34.4722 18.2606H36.1315C36.4509 18.2606 36.7064 18.1968 36.898 18.0691C37.0258 17.9414 37.2175 17.6861 37.2813 17.3031L42.0052 2.24777C42.069 2.05626 42.1329 1.86475 42.1329 1.73707C42.1329 1.6094 42.1968 1.54556 42.1968 1.41789C42.1968 1.0987 42.069 0.907185 41.6857 0.907185H39.8988C39.5155 0.907185 39.26 0.971023 39.1322 1.0987C39.0044 1.22637 38.8767 1.48172 38.7489 1.86475L35.3649 14.9411L32.3003 1.92858C32.2364 1.54556 32.1086 1.29021 31.917 1.16253C31.7892 1.03486 31.4698 0.971022 31.1504 0.971022H29.5551C29.1718 0.971022 28.9162 1.03486 28.7885 1.16253C28.6607 1.29021 28.4691 1.48172 28.4052 1.92858L25.3406 14.8151L22.0843 1.86475C21.9565 1.48172 21.8288 1.22637 21.701 1.0987C21.5732 0.971023 21.3177 0.907185 20.9344 0.907185H19.0197C18.7003 0.907185 18.5086 1.03486 18.5086 1.41789C18.5086 1.54556 18.5725 1.80091 18.7003 2.18393C18.702 2.18566 23.2981 17.3031 23.2981 17.3031Z" fill="black"/>
<path d="M52.2159 26.7447C45.0024 29.8072 37.214 31.2737 30.0644 31.2737C19.5307 31.2737 9.31824 28.4028 1.08263 23.5546C0.379927 23.1077 -0.193285 23.8738 0.44381 24.3845C8.10448 31.2737 18.1892 35.4197 29.4256 35.4197C37.4056 35.4197 46.7255 32.9318 53.1724 28.1474C54.1963 27.4469 53.3019 26.2979 52.2159 26.7447Z" fill="#F49819"/>
<path d="M48.1949 24.0637C47.6199 24.4467 47.7477 25.0213 48.3226 24.9574C50.3651 24.7021 54.9612 24.1914 55.7917 25.2128C56.6221 26.298 54.8973 30.5717 54.1325 32.5489C53.8769 33.1235 54.388 33.3788 54.899 32.9319C58.3469 30.061 59.2396 24.0016 58.5369 23.1717C57.898 22.2141 51.8344 21.4481 48.1949 24.0637Z" fill="#F49819"/>
<path d="M73.984 14.2405C73.8563 14.2405 73.7285 14.1767 73.7285 13.9851V3.45887C73.7285 3.33119 73.7924 3.20352 73.984 3.20352H74.3035C74.4951 3.20352 74.559 3.26735 74.559 3.45887L74.6229 4.09724C75.07 3.71422 75.5811 3.45887 76.0265 3.26736C76.472 3.07584 76.9209 3.012 77.4302 3.012C78.4523 3.012 79.2172 3.39503 79.7921 4.09724C80.3671 4.79945 80.6865 5.81913 80.6865 7.03204C80.6865 8.30706 80.3671 9.32846 79.7921 10.0945C79.2172 10.8606 78.3885 11.2436 77.3025 11.2436C76.3442 11.2436 75.5155 10.8606 74.685 10.1583V13.9851C74.685 14.1128 74.6211 14.2405 74.4295 14.2405H73.984ZM77.1747 10.4137C78.0052 10.4137 78.6423 10.1583 79.0894 9.58381C79.5366 9.00928 79.7282 8.18111 79.7282 7.09588C79.7282 4.92713 78.8978 3.84189 77.2386 3.84189C76.4081 3.84189 75.5155 4.16108 74.685 4.79945V9.32846C75.1322 9.71149 75.5155 9.96684 75.8971 10.0945C76.2821 10.286 76.7275 10.3499 77.1747 10.4137ZM84.4521 11.1797C83.7494 11.1797 83.1762 10.9882 82.729 10.5414C82.3457 10.1584 82.0902 9.58381 82.0902 8.88333C82.0902 8.11728 82.3457 7.54447 82.8567 7.0976C83.3678 6.65074 84.0688 6.45923 84.9631 6.45923C85.6658 6.45923 86.3668 6.5869 87.1973 6.84225V5.56723C87.1973 4.92885 87.0695 4.48199 86.7501 4.22837C86.4307 3.97302 85.9835 3.84534 85.2825 3.84534C84.5798 3.84534 83.815 3.97302 83.0484 4.22837C82.9845 4.22837 82.8567 4.2922 82.7929 4.2922C82.6651 4.2922 82.6651 4.22837 82.6651 4.10069V3.84534C82.6651 3.7815 82.6651 3.71767 82.729 3.65383L82.8567 3.52616C83.6872 3.20697 84.516 3.01545 85.4742 3.01545C86.4324 3.01545 87.0695 3.20697 87.5167 3.58999C87.9639 3.97302 88.1555 4.54755 88.1555 5.31188V10.7985C88.1555 10.9261 88.0916 11.0538 87.9 11.0538H87.5806C87.4528 11.0538 87.325 10.99 87.325 10.7985L87.2612 10.1601C86.3668 10.8606 85.4103 11.2436 84.4521 11.1797ZM84.5798 10.4137C84.9631 10.4137 85.4103 10.3499 85.8558 10.1583C86.3029 9.96684 86.7501 9.77533 87.2594 9.45614V7.54274C86.593 7.36331 85.9058 7.27876 85.2169 7.28739C83.7494 7.28739 83.0467 7.86193 83.0467 8.94544C83.0467 9.45614 83.1744 9.77533 83.43 10.0307C83.6855 10.286 84.0688 10.3499 84.5798 10.4137ZM90.7712 11.0521C90.6435 11.0521 90.5157 10.9882 90.5157 10.7967V3.46059C90.5157 3.33292 90.5796 3.20524 90.7712 3.20524H91.0906C91.2823 3.20524 91.3462 3.26908 91.3462 3.46059L91.41 4.35432C91.7933 3.90745 92.1766 3.58827 92.5599 3.46059C92.9432 3.26908 93.3904 3.20524 93.8358 3.20524H94.2191C94.3469 3.20524 94.4747 3.26908 94.4747 3.46059V3.84362C94.4747 3.90745 94.4747 3.90745 94.4108 3.97129C94.4108 4.03513 94.3469 4.03513 94.283 4.03513H93.7081C93.2609 4.03513 92.8137 4.09897 92.4322 4.29048C92.0489 4.48199 91.7295 4.73734 91.3462 5.12037V10.7985C91.3462 10.9261 91.2823 11.0538 91.0906 11.0538C91.0906 11.0521 90.7712 11.0521 90.7712 11.0521ZM98.5597 11.1159C97.9208 11.1159 97.4737 10.9882 97.156 10.6052C96.8366 10.286 96.6449 9.83916 96.6449 9.20251V4.03513H95.4329C95.3051 4.03513 95.1774 3.97129 95.1774 3.77978V3.6521C95.1774 3.58827 95.1774 3.52443 95.2412 3.46059C95.3051 3.39675 95.3051 3.39676 95.4329 3.39676L96.7088 3.26908L96.8366 1.22801C96.8366 1.16417 96.9004 1.10033 96.9004 1.03649C96.9004 0.972655 96.9643 0.972656 97.0921 0.972656H97.3476C97.4754 0.972656 97.6032 1.03649 97.6032 1.22801V3.26908H99.8373C99.9651 3.26908 100.093 3.33292 100.093 3.52443V3.84362C100.093 3.97129 100.029 4.09897 99.8373 4.09897H97.6032V9.13868C97.6032 9.58554 97.667 9.84089 97.8587 10.0324C98.0503 10.2239 98.3697 10.2878 98.753 10.2878C99.0724 10.2878 99.328 10.2878 99.5196 10.2239C99.6474 10.2239 99.7113 10.1601 99.7751 10.1601H99.9029C100.031 10.1601 100.095 10.2239 100.095 10.3516V10.6069C100.095 10.7984 100.031 10.8623 99.9029 10.9261C99.5179 11.0521 99.0707 11.1159 98.5597 11.1159ZM102.008 11.0521C101.88 11.0521 101.752 10.9882 101.752 10.7967V3.46059C101.752 3.33292 101.816 3.20524 102.008 3.20524H102.327C102.519 3.20524 102.582 3.26908 102.582 3.46059L102.646 4.09897C103.157 3.71594 103.669 3.46059 104.242 3.26908C104.817 3.07757 105.328 2.94989 105.901 2.94989C106.668 2.94989 107.241 3.1414 107.624 3.52443C108.007 3.90745 108.199 4.48199 108.199 5.31015V10.7329C108.199 10.8606 108.135 10.9882 107.943 10.9882H107.56C107.432 10.9882 107.305 10.9244 107.305 10.7329V5.69318C107.305 5.0548 107.177 4.5441 106.921 4.22664C106.666 3.90745 106.219 3.77978 105.709 3.77978C104.687 3.77978 103.667 4.09897 102.709 4.73734V10.7329C102.709 10.8606 102.645 10.9882 102.453 10.9882L102.008 11.0521ZM113.881 11.2436C112.669 11.2436 111.711 10.9244 111.072 10.2222C110.433 9.51998 110.114 8.5003 110.114 7.09588C110.114 5.82085 110.433 4.79945 111.072 4.0334C111.711 3.33119 112.603 2.94817 113.689 2.94817C114.648 2.94817 115.349 3.20352 115.86 3.77805C116.371 4.28875 116.626 5.11691 116.626 6.07448C116.626 6.52134 116.626 6.77669 116.562 7.03204C116.498 7.15971 116.435 7.28739 116.307 7.28739H111.072C111.072 8.37263 111.327 9.20079 111.775 9.71149C112.222 10.2222 112.987 10.4775 113.945 10.4775C114.711 10.4775 115.412 10.3499 116.051 10.0945C116.179 10.0307 116.307 10.0307 116.307 10.0307C116.371 10.0307 116.371 10.0307 116.435 10.0945C116.498 10.1584 116.498 10.1584 116.498 10.2222V10.4137C116.498 10.6052 116.435 10.6691 116.307 10.7329C115.606 11.0521 114.775 11.2436 113.881 11.2436ZM115.797 6.5869V6.0762C115.797 5.31015 115.606 4.73734 115.223 4.35432C114.839 3.97129 114.328 3.77978 113.627 3.77978C111.968 3.77978 111.138 4.73734 111.01 6.52307H115.797V6.5869ZM118.86 11.0521C118.733 11.0521 118.605 10.9882 118.605 10.7967V3.46059C118.605 3.33292 118.669 3.20524 118.86 3.20524H119.18C119.371 3.20524 119.435 3.26908 119.435 3.46059L119.499 4.35432C119.882 3.90745 120.266 3.58827 120.649 3.46059C121.032 3.26908 121.48 3.20524 121.925 3.20524H122.308C122.436 3.20524 122.564 3.26908 122.564 3.46059V3.84362C122.564 3.90745 122.564 3.90745 122.5 3.97129C122.5 4.03513 122.436 4.03513 122.372 4.03513H121.797C121.35 4.03513 120.903 4.09897 120.521 4.29048C120.138 4.48199 119.819 4.73734 119.435 5.12037V10.7985C119.435 10.9261 119.371 11.0538 119.18 11.0538C119.178 11.0521 118.86 11.0521 118.86 11.0521ZM73.984 28.2123C73.8563 28.2123 73.7285 28.1484 73.7285 27.9569V20.6846C73.7285 20.557 73.7924 20.4293 73.984 20.4293H74.3035C74.4951 20.4293 74.559 20.4931 74.559 20.6846L74.6229 21.323C75.1339 20.94 75.645 20.6846 76.2182 20.4931C76.7931 20.3016 77.3042 20.1739 77.8774 20.1739C78.644 20.1739 79.2172 20.3654 79.6005 20.7485C79.9838 21.1315 80.1754 21.706 80.1754 22.5342V27.9569C80.1754 28.0846 80.1115 28.2123 79.9199 28.2123H79.4727C79.345 28.2123 79.2172 28.1484 79.2172 27.9569V22.9172C79.2172 22.215 79.0894 21.7681 78.8339 21.4507C78.5784 21.1315 78.1312 21.0038 77.6219 21.0038C76.5998 21.0038 75.5794 21.323 74.6211 22.0252V28.0208C74.6211 28.1484 74.5573 28.2761 74.3656 28.2761C74.4295 28.2123 73.984 28.2123 73.984 28.2123ZM85.8558 28.4659C84.6437 28.4659 83.6855 28.1467 83.0467 27.4445C82.4078 26.7423 82.0884 25.7226 82.0884 24.3182C82.0884 23.0432 82.4078 22.0218 83.0467 21.2557C83.6855 20.5535 84.5781 20.1705 85.6641 20.1705C86.6223 20.1705 87.3233 20.4258 87.8344 21.0004C88.3454 21.5111 88.601 22.2754 88.601 23.2968C88.601 23.7437 88.601 23.999 88.5371 24.2544C88.4732 24.382 88.4093 24.5097 88.2815 24.5097H83.0467C83.0467 25.5949 83.3022 26.4231 83.7494 26.9338C84.1965 27.4445 84.9614 27.6999 85.9196 27.6999C86.6862 27.6999 87.3872 27.5722 88.026 27.3168C88.1538 27.253 88.2815 27.253 88.2815 27.253C88.3454 27.253 88.3454 27.253 88.4093 27.3168C88.4732 27.3807 88.4732 27.3807 88.4732 27.4445V27.6999C88.4732 27.8914 88.4093 27.9552 88.2815 28.019C87.5806 28.2744 86.7501 28.4659 85.8558 28.4659ZM87.7722 23.7454V23.2347C87.7722 22.4686 87.5806 21.8958 87.1973 21.5128C86.814 21.1298 86.3029 20.9383 85.602 20.9383C83.9427 20.9383 83.1123 21.832 82.9845 23.6815L87.7722 23.7454ZM93.0054 28.3382C92.3665 28.3382 91.9194 28.2106 91.6017 27.8275C91.2823 27.5083 91.0906 27.0615 91.0906 26.4248V21.1936H89.8786C89.7508 21.1936 89.6231 21.1298 89.6231 20.9383V20.8106C89.6231 20.7467 89.6231 20.6829 89.6869 20.6191C89.7508 20.5552 89.7508 20.5552 89.8786 20.5552L91.1545 20.4276L91.2823 18.3865C91.2823 18.3226 91.3462 18.2588 91.3462 18.195C91.41 18.1311 91.41 18.1311 91.5378 18.1311H91.7933C91.9211 18.1311 92.0489 18.195 92.0489 18.3865V20.4276H94.283C94.4108 20.4276 94.5385 20.4914 94.5385 20.6829V21.0021C94.5385 21.1298 94.4747 21.2574 94.283 21.2574H92.0489V26.361C92.0489 26.8079 92.1127 27.0632 92.3044 27.2547C92.496 27.4462 92.8154 27.5101 93.1987 27.5101C93.5182 27.5101 93.7737 27.5101 93.9653 27.4462C94.0931 27.4462 94.157 27.3824 94.2209 27.3824H94.3486C94.4764 27.3824 94.5403 27.4462 94.5403 27.5739V27.8293C94.5403 28.0208 94.4764 28.0846 94.3486 28.1484C93.9636 28.2761 93.5164 28.3382 93.0054 28.3382ZM98.0486 28.2123C97.9208 28.2123 97.7931 28.1484 97.7292 28.0208L95.3034 20.8123C95.2395 20.6846 95.2395 20.6208 95.2395 20.557C95.2395 20.4293 95.3034 20.4293 95.4312 20.4293H95.9422C96.07 20.4293 96.1977 20.4931 96.1977 20.6208L98.3041 27.1909L100.155 20.6208C100.219 20.4931 100.283 20.4293 100.474 20.4293H101.049C101.177 20.4293 101.305 20.4931 101.369 20.6208L103.22 27.1909L105.39 20.557C105.454 20.4293 105.518 20.3654 105.645 20.3654H106.093C106.22 20.3654 106.284 20.4293 106.284 20.4931C106.284 20.557 106.284 20.6208 106.22 20.7485L103.667 27.9569C103.603 28.0846 103.539 28.1484 103.347 28.1484H102.836C102.709 28.1484 102.581 28.0846 102.517 27.9569L100.666 21.3868L98.8152 27.9569C98.7513 28.0846 98.6874 28.1484 98.4958 28.1484L98.0486 28.2123ZM110.88 28.4659C109.73 28.4659 108.838 28.0829 108.263 27.3807C107.688 26.6785 107.305 25.6588 107.305 24.3182C107.305 22.9776 107.624 22.0218 108.263 21.2557C108.902 20.4897 109.794 20.1705 110.88 20.1705C111.966 20.1705 112.923 20.5535 113.498 21.2557C114.137 21.9579 114.456 22.9776 114.456 24.3182C114.456 25.6588 114.137 26.6146 113.498 27.3807C112.923 28.0846 112.028 28.4659 110.88 28.4659ZM110.88 27.6377C112.667 27.6377 113.562 26.5525 113.562 24.3199C113.562 22.0873 112.667 21.0021 110.88 21.0021C109.093 21.0021 108.199 22.0873 108.199 24.3199C108.199 26.5525 109.093 27.6377 110.88 27.6377ZM116.754 28.2123C116.626 28.2123 116.498 28.1484 116.498 27.9569V20.6846C116.498 20.557 116.562 20.4293 116.754 20.4293H117.073C117.265 20.4293 117.329 20.4931 117.329 20.6846L117.393 21.5784C117.776 21.1315 118.159 20.8123 118.543 20.6846C118.926 20.4931 119.373 20.4293 119.819 20.4293H120.202C120.33 20.4293 120.457 20.4931 120.457 20.6846V21.0677C120.457 21.1315 120.457 21.1315 120.394 21.1953C120.394 21.1953 120.33 21.2592 120.266 21.2592H119.691C119.244 21.2592 118.796 21.323 118.415 21.5145C118.032 21.706 117.712 21.9614 117.329 22.3444V28.0225C117.329 28.1502 117.265 28.2778 117.073 28.2778C117.073 28.2744 116.754 28.2123 116.754 28.2123ZM122.051 28.2123C121.923 28.2123 121.795 28.1484 121.795 27.9569V16.9855C121.795 16.8578 121.859 16.7302 122.051 16.7302H122.498C122.626 16.7302 122.754 16.794 122.754 16.9855V23.8748L126.455 20.557C126.583 20.4293 126.711 20.4293 126.839 20.4293H127.414C127.541 20.4293 127.605 20.4931 127.605 20.557C127.605 20.6208 127.541 20.6846 127.414 20.8123L123.648 24.1301L127.733 27.8931C127.797 27.9569 127.861 28.0208 127.861 28.0846C127.861 28.2123 127.797 28.2123 127.669 28.2123H127.03C126.903 28.2123 126.775 28.1484 126.711 28.0846L122.754 24.4493V28.0208C122.754 28.1484 122.69 28.2761 122.498 28.2761L122.051 28.2123Z" fill="black"/>
</g>
<defs>
<clipPath id="clip0_1988_52843">
<rect width="128" height="36" fill="white"/>
</clipPath>
</defs>
</svg>
