<svg width="141" height="34" viewBox="0 0 141 34" fill="none" xmlns="http://www.w3.org/2000/svg">
<g clip-path="url(#clip0_939_1653)">
<path d="M47.7829 13.8168C47.0442 9.08095 42.9452 5.44604 38.0127 5.44604C36.1571 5.44604 34.374 5.96026 32.8275 6.91939C30.4746 2.95876 26.2389 0.494141 21.5332 0.494141C14.2639 0.494141 8.34961 6.41804 8.34961 13.6992C8.34961 13.7443 8.34961 13.7911 8.35126 13.8362C3.67932 14.6244 0 18.7042 0 23.603C0 29.0643 4.54515 33.5068 9.99756 33.5068H46.2524C51.7048 33.5068 56.25 29.0643 56.25 23.603C56.25 18.6624 52.5111 14.5568 47.7829 13.8168Z" fill="#0078AD"/>
</g>
<path d="M74.5481 21.6043V13.8303H76.7851V21.6043C76.7851 23.7937 75.3889 25.0154 73.3423 25.0154C71.2639 25.0154 69.8043 23.762 69.8043 21.525H72.0255C72.0413 22.461 72.4697 23.0322 73.3106 23.0322C74.1356 23.0322 74.5481 22.4769 74.5481 21.6043ZM79.3761 24.9043V16.1149H81.5973V24.9043H79.3761ZM80.5025 15.0678C79.7093 15.0678 79.1381 14.4966 79.1381 13.7668C79.1381 13.037 79.7093 12.4658 80.5025 12.4658C81.2799 12.4658 81.867 13.037 81.867 13.7668C81.867 14.4966 81.2799 15.0678 80.5025 15.0678ZM92.2797 20.5096C92.2797 23.2702 90.249 25.0471 87.6946 25.0471C85.1562 25.0471 83.2365 23.2702 83.2365 20.5096C83.2365 17.7331 85.2196 15.9721 87.7581 15.9721C90.2966 15.9721 92.2797 17.7331 92.2797 20.5096ZM85.4894 20.5096C85.4894 22.2548 86.5047 23.1115 87.6946 23.1115C88.8687 23.1115 89.9951 22.2548 89.9951 20.5096C89.9951 18.7485 88.9004 17.9077 87.7264 17.9077C86.5523 17.9077 85.4894 18.7485 85.4894 20.5096ZM93.3696 19.3514C93.3696 16.0355 95.797 13.6875 98.986 13.6875C101.445 13.6875 103.444 15.0043 104.19 17.273H101.635C101.112 16.2101 100.16 15.6865 98.9701 15.6865C97.0345 15.6865 95.6542 17.0985 95.6542 19.3514C95.6542 21.5884 97.0345 23.0163 98.9701 23.0163C100.16 23.0163 101.112 22.4928 101.635 21.4139H104.19C103.444 23.6985 101.445 24.9995 98.986 24.9995C95.797 24.9995 93.3696 22.6673 93.3696 19.3514ZM106.087 24.9043V13.1639H108.308V24.9043H106.087ZM118.991 20.5096C118.991 23.2702 116.96 25.0471 114.406 25.0471C111.867 25.0471 109.947 23.2702 109.947 20.5096C109.947 17.7331 111.931 15.9721 114.469 15.9721C117.007 15.9721 118.991 17.7331 118.991 20.5096ZM112.2 20.5096C112.2 22.2548 113.216 23.1115 114.406 23.1115C115.58 23.1115 116.706 22.2548 116.706 20.5096C116.706 18.7485 115.611 17.9077 114.437 17.9077C113.263 17.9077 112.2 18.7485 112.2 20.5096ZM128.918 16.1149V24.9043H126.68V23.7937C126.125 24.5394 125.157 25.0154 124.063 25.0154C122.016 25.0154 120.541 23.6827 120.541 21.2711V16.1149H122.762V20.9538C122.762 22.3658 123.539 23.1274 124.713 23.1274C125.919 23.1274 126.68 22.3658 126.68 20.9538V16.1149H128.918ZM130.538 20.4779C130.538 17.7331 132.315 15.9721 134.568 15.9721C135.726 15.9721 136.836 16.5115 137.439 17.3365V13.1639H139.692V24.9043H137.439V23.6033C136.916 24.4125 135.932 25.0471 134.552 25.0471C132.315 25.0471 130.538 23.2226 130.538 20.4779ZM137.455 20.5096C137.455 18.8437 136.345 17.9235 135.123 17.9235C133.933 17.9235 132.807 18.812 132.807 20.4779C132.807 22.1437 133.933 23.0956 135.123 23.0956C136.345 23.0956 137.455 22.1755 137.455 20.5096Z" fill="black"/>
<defs>
<clipPath id="clip0_939_1653">
<rect width="56.25" height="33.1731" fill="white" transform="translate(0 0.414062)"/>
</clipPath>
</defs>
</svg>
