<svg width="84" height="85" viewBox="0 0 84 85" fill="none" xmlns="http://www.w3.org/2000/svg">
<path d="M-0.00195312 80.5026V4.99898C-0.00195312 2.78071 1.79634 0.982422 4.01461 0.982422H79.9821C82.2003 0.982422 83.9986 2.78071 83.9986 4.99898V80.5026C83.9986 82.7209 82.2003 84.5192 79.9821 84.5192H4.01548C1.79634 84.5192 -0.00195312 82.7209 -0.00195312 80.5026Z" fill="#EDEDED"/>
<path d="M46.8421 21.743L47.9775 21.764L51.0629 18.6786L51.2129 17.3722C48.7614 15.1925 45.5357 13.8633 42.0048 13.8633C35.6104 13.8633 30.2164 18.2121 28.6172 24.1068C28.9548 23.8736 29.6728 24.048 29.6728 24.048L35.8384 23.0353C35.8384 23.0353 36.1576 22.511 36.3154 22.5435C37.7261 21.0003 39.7541 20.0288 42.004 20.0288C43.8347 20.0288 45.5181 20.6715 46.8421 21.743Z" fill="#EA4335"/>
<path d="M55.3932 24.1151C54.6778 21.4725 53.1995 19.1403 51.2083 17.3691L46.8375 21.7399C48.5876 23.1542 49.709 25.3155 49.709 27.7345V28.5052C51.8335 28.5052 53.5625 30.2342 53.5625 32.3587C53.5625 34.4831 51.8335 36.2122 49.7081 36.2122H42.002L41.2305 36.9872V41.6123L42.002 42.3795H49.7081C55.2319 42.3795 59.7272 37.8851 59.7272 32.3604C59.7272 28.9445 58.0078 25.9248 55.3915 24.116L55.3932 24.1151Z" fill="#4285F4"/>
<path d="M34.2996 42.3782H42.0004V36.2126H34.3014C33.735 36.2126 33.1993 36.0873 32.7144 35.8672L31.6044 36.2074L28.5181 39.2937L28.248 40.3353C29.9315 41.6163 32.0296 42.3782 34.3023 42.38L34.2996 42.3782Z" fill="#34A853"/>
<path d="M34.2983 22.3438C28.7746 22.3438 24.2793 26.8382 24.2793 32.3628C24.2793 35.6157 25.8382 38.5099 28.2476 40.3416L32.7166 35.8726C31.3786 35.2667 30.4449 33.9235 30.4449 32.3628C30.4449 30.2383 32.1739 28.5093 34.2983 28.5093C35.859 28.5093 37.204 29.4431 37.8081 30.7811L42.2771 26.3121C40.4464 23.9036 37.5512 22.3438 34.2983 22.3438Z" fill="#FBBC05"/>
<path d="M25.6055 71.9539V64.5547H28.1683C28.4989 64.5547 28.811 64.6108 29.1039 64.7195C29.3958 64.83 29.6527 64.9852 29.8728 65.1851C30.0929 65.385 30.2673 65.6252 30.3945 65.9032C30.5216 66.1811 30.5856 66.4906 30.5856 66.8282C30.5856 67.1658 30.5216 67.4639 30.3945 67.7427C30.2673 68.0215 30.0929 68.2617 29.8728 68.4608C29.6527 68.6607 29.3958 68.8159 29.1039 68.9263C28.8119 69.0368 28.4997 69.0912 28.1683 69.0912H26.7733V71.9539H25.6063H25.6055ZM28.199 67.975C28.3919 67.975 28.5646 67.9426 28.7154 67.8768C28.8671 67.812 28.9943 67.7234 29.0986 67.6138C29.2021 67.5033 29.281 67.3797 29.3362 67.2412C29.3906 67.1035 29.4186 66.9659 29.4186 66.8282C29.4186 66.6835 29.3906 66.5424 29.3362 66.4047C29.2801 66.267 29.2012 66.1452 29.0986 66.0382C28.9951 65.9312 28.868 65.8436 28.7154 65.7752C28.5638 65.7068 28.3919 65.6717 28.199 65.6717H26.7725V67.9759L28.199 67.975Z" fill="#5F6368"/>
<path d="M34.4376 71.3343H34.3762C34.2245 71.5342 34.0281 71.7148 33.787 71.877C33.5459 72.0383 33.239 72.1199 32.8672 72.1199C32.5981 72.1199 32.3473 72.0769 32.1132 71.991C31.8791 71.9051 31.6757 71.7841 31.5038 71.6289C31.332 71.4737 31.1952 71.2913 31.0952 71.0809C30.9953 70.8705 30.9453 70.639 30.9453 70.3838C30.9453 70.1147 30.9988 69.8744 31.1058 69.6614C31.2127 69.4483 31.3609 69.2694 31.5503 69.1239C31.7397 68.9792 31.9659 68.8679 32.2263 68.789C32.4885 68.7101 32.7708 68.6706 33.0733 68.6706C33.4108 68.6706 33.6932 68.703 33.9202 68.7688C34.1473 68.8337 34.3192 68.8942 34.4367 68.9494V68.753C34.4367 68.6013 34.4042 68.461 34.3385 68.3295C34.2736 68.198 34.1833 68.0867 34.0693 67.9946C33.9553 67.9017 33.8264 67.8298 33.6818 67.778C33.5371 67.7254 33.3863 67.7 33.2267 67.7C32.9716 67.7 32.7427 67.75 32.5402 67.8499C32.3377 67.9499 32.1562 68.1095 31.9975 68.3304L31.0882 67.7307C31.3293 67.4001 31.6292 67.1503 31.9878 66.981C32.3464 66.8127 32.7524 66.7285 33.2074 66.7285C33.958 66.7285 34.5384 66.9144 34.9487 67.2862C35.3582 67.6588 35.5633 68.1892 35.5633 68.8784V71.9577H34.4367V71.3378L34.4376 71.3343ZM34.4376 69.8472C34.2859 69.7578 34.1175 69.6859 33.9316 69.6307C33.7458 69.5763 33.5327 69.5483 33.2916 69.5483C32.933 69.5483 32.648 69.6307 32.4341 69.7964C32.221 69.9621 32.1141 70.162 32.1141 70.3961C32.1141 70.5206 32.1421 70.6285 32.1965 70.7223C32.2508 70.8152 32.3219 70.8959 32.4087 70.9651C32.4946 71.0335 32.5945 71.0861 32.7077 71.1203C32.8216 71.1554 32.9365 71.1729 33.0531 71.1729C33.239 71.1729 33.4161 71.137 33.5853 71.0642C33.7537 70.9923 33.901 70.8959 34.0255 70.7758C34.15 70.6548 34.249 70.5162 34.3244 70.3567C34.3999 70.198 34.4384 70.0296 34.4384 69.8508L34.4376 69.8472Z" fill="#5F6368"/>
<path d="M37.6714 67.7398H37.7328C37.8704 67.4513 38.0782 67.2269 38.3579 67.0682C38.6367 66.9095 38.9454 66.8306 39.2829 66.8306C39.3934 66.8306 39.4741 66.8341 39.5258 66.8411C39.5767 66.8481 39.6301 66.8586 39.6863 66.8727V68.0309C39.6109 68.0028 39.5363 67.9844 39.4644 67.9739C39.3925 67.9634 39.297 67.959 39.1804 67.959C38.7463 67.959 38.3974 68.0914 38.1317 68.3571C37.866 68.6227 37.7337 68.9717 37.7337 69.4057V72.0404H36.5859V66.977H37.6705V67.7416L37.6714 67.7398ZM41.2364 67.9046H40.3474V66.892H41.2364V65.3418H42.3841V66.892H43.6353V67.9046H42.3841V70.2185C42.3841 70.3465 42.3982 70.4631 42.4262 70.5692C42.4543 70.6762 42.4946 70.7638 42.5507 70.8349C42.6682 70.969 42.8164 71.0365 42.9953 71.0365C43.1057 71.0365 43.1917 71.0286 43.2539 71.0111C43.3153 70.9936 43.3819 70.9681 43.4503 70.9331L43.8019 71.9458C43.6572 72.0001 43.5064 72.044 43.3468 72.0746C43.1881 72.1062 43.0093 72.1211 42.8094 72.1211C42.5683 72.1211 42.3543 72.0825 42.1693 72.0054C41.9834 71.9273 41.8212 71.823 41.6836 71.6897C41.3881 71.3872 41.239 70.976 41.239 70.4561V67.9055L41.2364 67.9046Z" fill="#5F6368"/>
<path d="M45.5308 67.5735H45.5922C45.7438 67.3324 45.9586 67.1316 46.2383 66.9694C46.5172 66.8081 46.8328 66.7266 47.1835 66.7266C47.8236 66.7266 48.3032 66.9177 48.6197 67.3C48.9362 67.6831 49.0958 68.1899 49.0958 68.8247V71.9566H47.9481V68.9808C47.9481 68.5398 47.8464 68.2311 47.643 68.0558C47.4395 67.8804 47.173 67.7927 46.8425 67.7927C46.6425 67.7927 46.4663 67.8348 46.3155 67.9172C46.1638 67.9997 46.0323 68.1119 45.9236 68.2522C45.8131 68.3933 45.7307 68.5547 45.6754 68.7379C45.6193 68.9203 45.593 69.1114 45.593 69.3113V71.9566H44.4453V66.8931H45.5299V67.5744L45.5308 67.5735Z" fill="#5F6368"/>
<path d="M54.7799 70.7466C54.5668 71.1386 54.2634 71.4673 53.8706 71.7286C53.4787 71.9908 52.9956 72.1206 52.4239 72.1206C52.0443 72.1206 51.6953 72.053 51.3753 71.9189C51.0553 71.7847 50.7782 71.5962 50.5432 71.356C50.3091 71.1149 50.1267 70.8308 49.9952 70.5029C49.8637 70.1758 49.7988 69.8164 49.7988 69.4227C49.7988 69.0571 49.8602 68.7116 49.9847 68.3846C50.1092 68.0575 50.2828 67.7717 50.5064 67.5271C50.73 67.2824 51.0009 67.0869 51.3174 66.9431C51.6339 66.7993 51.9855 66.7266 52.3713 66.7266C52.7562 66.7266 53.114 66.7914 53.42 66.923C53.726 67.0545 53.9864 67.236 54.1994 67.471C54.4125 67.7051 54.5764 67.9874 54.6904 68.3179C54.8044 68.6485 54.8614 69.0106 54.8614 69.4025V69.4955C54.8544 69.5305 54.8509 69.5603 54.8509 69.5884C54.8439 69.6165 54.8404 69.6445 54.8404 69.6708H50.9439C50.965 69.9119 51.0228 70.1224 51.1193 70.3012C51.2157 70.4801 51.3341 70.6283 51.4752 70.7458C51.6164 70.8632 51.7734 70.9492 51.9452 71.0044C52.1171 71.0605 52.2863 71.0868 52.4511 71.0868C52.7817 71.0868 53.0535 71.0079 53.2683 70.8492C53.4813 70.6905 53.6567 70.4941 53.7952 70.26L54.7772 70.7458L54.7799 70.7466ZM53.7163 68.794C53.7023 68.6906 53.6698 68.5757 53.6181 68.4486C53.5673 68.3206 53.4866 68.2039 53.3805 68.097C53.2735 67.99 53.1359 67.8988 52.9675 67.8234C52.7983 67.748 52.594 67.7094 52.3529 67.7094C52.0224 67.7094 51.7383 67.8076 51.4998 68.004C51.2622 68.2004 51.1017 68.4635 51.0193 68.794H53.7163Z" fill="#5F6368"/>
<path d="M55.622 66.8914H56.7066V67.656H56.7679C56.8293 67.5244 56.9144 67.4034 57.0204 67.2895C57.1274 67.1755 57.2475 67.079 57.3826 66.9992C57.5167 66.9195 57.6579 66.8546 57.806 66.8028C57.9542 66.752 58.0971 66.7266 58.2357 66.7266C58.4005 66.7266 58.5417 66.7432 58.6592 66.773C58.7766 66.8046 58.8827 66.8476 58.9792 66.9019L58.6486 67.9462C58.5732 67.9111 58.4882 67.8857 58.3961 67.8681C58.3032 67.8506 58.191 67.8427 58.0612 67.8427C57.8753 67.8427 57.7052 67.8813 57.5491 67.9576C57.394 68.0338 57.2581 68.1373 57.1406 68.2688C57.0231 68.4003 56.9319 68.5564 56.867 68.7362C56.8021 68.9159 56.7688 69.1062 56.7688 69.3069V71.9557H55.6211V66.8923L55.622 66.8914Z" fill="#5F6368"/>
<path d="M21.9217 57.1041C21.9217 58.002 21.6552 58.7166 21.1221 59.2496C20.5232 59.8844 19.7367 60.201 18.7618 60.201C17.7868 60.201 17.0389 59.8783 16.3927 59.2321C15.7465 58.5859 15.4238 57.7898 15.4238 56.8446C15.4238 55.8994 15.7465 55.1033 16.3927 54.4571C17.0389 53.8109 17.8289 53.4883 18.7618 53.4883C19.2343 53.4883 19.6798 53.5716 20.098 53.7399C20.5171 53.9074 20.8617 54.1441 21.1308 54.4492L20.539 55.042C20.3417 54.8026 20.0857 54.6158 19.7718 54.4817C19.457 54.3467 19.1212 54.28 18.7626 54.28C18.063 54.28 17.4702 54.5229 16.9854 55.0078C16.5058 55.4988 16.2673 56.1108 16.2673 56.8481C16.2673 57.5855 16.5067 58.1975 16.9854 58.6885C17.4702 59.1734 18.0621 59.4162 18.7626 59.4162C19.4027 59.4162 19.9358 59.2365 20.3601 58.8779C20.7845 58.5193 21.0309 58.0248 21.0958 57.397H18.7626V56.6254H21.877C21.9068 56.7929 21.9226 56.9551 21.9226 57.1103L21.9217 57.1041Z" fill="#5F6368"/>
<path d="M22.4863 57.8586C22.4863 57.1826 22.6985 56.6232 23.1229 56.1813C23.5534 55.7385 24.0952 55.5176 24.7476 55.5176C25.3999 55.5176 25.9382 55.7394 26.3626 56.1813C26.7931 56.6241 27.0088 57.1835 27.0088 57.8586C27.0088 58.5337 26.7931 59.1001 26.3626 59.5359C25.9382 59.9787 25.3999 60.1996 24.7476 60.1996C24.0952 60.1996 23.5534 59.9778 23.1229 59.5359C22.6985 59.0931 22.4863 58.5346 22.4863 57.8586ZM23.3123 57.8586C23.3123 58.3312 23.4499 58.7135 23.7252 59.0072C24.0005 59.3009 24.3416 59.4473 24.7484 59.4473C25.1553 59.4473 25.4972 59.3009 25.7717 59.0072C26.0461 58.7135 26.1846 58.3312 26.1846 57.8586C26.1846 57.386 26.047 57.0116 25.7717 56.7197C25.4911 56.4207 25.15 56.2707 24.7484 56.2707C24.3469 56.2707 24.0067 56.4207 23.7252 56.7197C23.4508 57.0134 23.3123 57.3921 23.3123 57.8586Z" fill="#5F6368"/>
<path d="M27.5137 57.8586C27.5137 57.1826 27.7259 56.6232 28.1502 56.1813C28.5807 55.7385 29.1226 55.5176 29.7749 55.5176C30.4272 55.5176 30.9656 55.7394 31.3899 56.1813C31.8205 56.6241 32.0361 57.1835 32.0361 57.8586C32.0361 58.5337 31.8205 59.1001 31.3899 59.5359C30.9656 59.9787 30.4272 60.1996 29.7749 60.1996C29.1226 60.1996 28.5807 59.9778 28.1502 59.5359C27.7259 59.0931 27.5137 58.5346 27.5137 57.8586ZM28.3396 57.8586C28.3396 58.3312 28.4773 58.7135 28.7526 59.0072C29.0279 59.3009 29.369 59.4473 29.7758 59.4473C30.1826 59.4473 30.5246 59.3009 30.799 59.0072C31.0734 58.7135 31.212 58.3312 31.212 57.8586C31.212 57.386 31.0743 57.0116 30.799 56.7197C30.5184 56.4207 30.1773 56.2707 29.7758 56.2707C29.3742 56.2707 29.034 56.4207 28.7526 56.7197C28.4773 57.0134 28.3396 57.3921 28.3396 57.8586Z" fill="#5F6368"/>
<path d="M34.7361 62.1408C34.4897 62.1408 34.26 62.1093 34.0443 62.047C33.8286 61.9848 33.6322 61.8962 33.456 61.7822C33.2798 61.6682 33.1289 61.5341 33.0027 61.378C32.8773 61.2228 32.7809 61.0484 32.7151 60.8572L33.4963 60.5346C33.5857 60.7923 33.7409 60.9984 33.9628 61.1544C34.1846 61.3096 34.4406 61.3877 34.7343 61.3877C35.1833 61.3877 35.5322 61.2535 35.7847 60.9843C36.0372 60.7152 36.1617 60.3443 36.1617 59.8717V59.4491H36.1258C35.9706 59.6823 35.7593 59.8664 35.4936 60.0015C35.2271 60.1356 34.9386 60.2031 34.6282 60.2031C34.054 60.2031 33.5594 59.9795 33.1474 59.5298C32.7405 59.0694 32.5371 58.5118 32.5371 57.8604C32.5371 57.2089 32.7405 56.6548 33.1474 56.1997C33.5603 55.7447 34.0531 55.5176 34.6282 55.5176C34.9395 55.5176 35.228 55.5851 35.4936 55.7192C35.7593 55.8543 35.9706 56.0384 36.1258 56.2716H36.1617V55.6614H36.9517V59.8708C36.9517 60.5766 36.7509 61.1299 36.3511 61.5315C35.9443 61.9383 35.406 62.1417 34.7361 62.1417V62.1408ZM34.7633 59.4482C35.1701 59.4482 35.5024 59.3018 35.7602 59.0081C36.0294 58.7143 36.1644 58.3321 36.1644 57.8595C36.1644 57.3869 36.0294 57.0195 35.7602 56.7205C35.4971 56.4215 35.1648 56.2716 34.7633 56.2716C34.3617 56.2716 34.0373 56.4215 33.7664 56.7205C33.4972 57.0195 33.3622 57.3992 33.3622 57.8595C33.3622 58.3198 33.4972 58.7065 33.7664 58.9984C34.0355 59.2983 34.3678 59.4482 34.7633 59.4482Z" fill="#5F6368"/>
<path d="M38.783 53.6328V60.0579H37.957V53.6328H38.783Z" fill="#5F6368"/>
<path d="M41.7194 60.2024C41.0732 60.2024 40.541 59.9806 40.1219 59.5387C39.7028 59.0959 39.4941 58.5366 39.4941 57.8614C39.4941 57.1863 39.6976 56.6339 40.1044 56.1876C40.5112 55.7422 41.0311 55.5195 41.6659 55.5195C42.3007 55.5195 42.8364 55.7308 43.2231 56.1517C43.6098 56.5743 43.8018 57.1644 43.8018 57.9246L43.7921 58.014H40.3367C40.3481 58.4445 40.4919 58.7917 40.7672 59.0547C41.0425 59.3178 41.3713 59.4493 41.7545 59.4493C42.2814 59.4493 42.6935 59.1863 42.9925 58.6593L43.7281 59.0179C43.5309 59.3888 43.2573 59.679 42.9066 59.8877C42.5559 60.0964 42.1604 60.2024 41.7177 60.2024H41.7194ZM40.3999 57.331H42.9224C42.8978 57.0258 42.7742 56.7733 42.5497 56.5726C42.3262 56.3718 42.0245 56.2718 41.6484 56.2718C41.3371 56.2718 41.0697 56.3683 40.8453 56.5594C40.6208 56.7505 40.4726 57.0083 40.4007 57.331H40.3999Z" fill="#5F6368"/>
<path d="M49.5185 60.2018C48.5672 60.2018 47.7711 59.8818 47.131 59.2409C46.4962 58.6008 46.1797 57.8021 46.1797 56.8446C46.1797 55.8872 46.4962 55.0919 47.131 54.4571C47.7658 53.8109 48.5602 53.4883 49.5185 53.4883C50.4768 53.4883 51.2738 53.839 51.8788 54.5387L51.287 55.113C50.8267 54.5562 50.2366 54.2791 49.5185 54.2791C48.8004 54.2791 48.2112 54.5185 47.7325 54.9972C47.2599 55.4698 47.0232 56.0871 47.0232 56.8455C47.0232 57.6039 47.2599 58.2212 47.7325 58.6938C48.2103 59.1734 48.8065 59.4119 49.5185 59.4119C50.2673 59.4119 50.9152 59.0971 51.4667 58.4693L52.0673 59.0533C51.7622 59.4189 51.3887 59.7003 50.945 59.9011C50.5022 60.1019 50.027 60.2018 49.5185 60.2018Z" fill="#5F6368"/>
<path d="M53.6267 53.6328V60.0579H52.8008V53.6328H53.6267Z" fill="#5F6368"/>
<path d="M54.3379 57.8586C54.3379 57.1826 54.5501 56.6232 54.9744 56.1813C55.4049 55.7385 55.9468 55.5176 56.5991 55.5176C57.2515 55.5176 57.7898 55.7394 58.2142 56.1813C58.6447 56.6241 58.8604 57.1835 58.8604 57.8586C58.8604 58.5337 58.6447 59.1001 58.2142 59.5359C57.7898 59.9787 57.2515 60.1996 56.5991 60.1996C55.9468 60.1996 55.4049 59.9778 54.9744 59.5359C54.5501 59.0931 54.3379 58.5346 54.3379 57.8586ZM55.1638 57.8586C55.1638 58.3312 55.3015 58.7135 55.5768 59.0072C55.8521 59.3009 56.1932 59.4473 56.6 59.4473C57.0068 59.4473 57.3488 59.3009 57.6232 59.0072C57.8976 58.7135 58.0362 58.3312 58.0362 57.8586C58.0362 57.386 57.8985 57.0116 57.6232 56.7197C57.3426 56.4207 57.0016 56.2707 56.6 56.2707C56.1984 56.2707 55.8582 56.4207 55.5768 56.7197C55.3024 57.0134 55.1638 57.3921 55.1638 57.8586Z" fill="#5F6368"/>
<path d="M63.429 60.0583H62.639V59.4481H62.603C62.4776 59.6638 62.2839 59.8426 62.0244 59.9864C61.7648 60.1302 61.493 60.2021 61.2124 60.2021C60.6741 60.2021 60.2603 60.0478 59.97 59.74C59.6798 59.4314 59.5352 58.9939 59.5352 58.4257V55.6621H60.3611V58.3723C60.3786 59.0903 60.7407 59.449 61.4474 59.449C61.7771 59.449 62.0515 59.3157 62.2734 59.05C62.4952 58.7843 62.6048 58.4652 62.6048 58.0943V55.6621H63.4307V60.0592L63.429 60.0583Z" fill="#5F6368"/>
<path d="M66.2298 60.2017C65.6555 60.2017 65.161 59.9746 64.7489 59.5196C64.3421 59.0592 64.1387 58.5051 64.1387 57.8589C64.1387 57.2127 64.3421 56.6595 64.7489 56.1983C65.1619 55.7432 65.6546 55.5161 66.2298 55.5161C66.5525 55.5161 66.8471 55.5845 67.1136 55.7231C67.3793 55.8607 67.5844 56.0431 67.7282 56.2711H67.7642L67.7282 55.6608V53.6328H68.5542V60.0579H67.7642V59.4477H67.7282C67.5844 59.6748 67.3802 59.8571 67.1136 59.9957C66.8471 60.1333 66.5534 60.2017 66.2298 60.2017ZM66.3648 59.4477C66.7717 59.4477 67.104 59.3012 67.3617 59.0075C67.6309 58.7138 67.7651 58.3315 67.7651 57.8589C67.7651 57.3863 67.6309 57.019 67.3617 56.72C67.0987 56.421 66.7664 56.2711 66.3648 56.2711C65.9633 56.2711 65.6389 56.421 65.3679 56.72C65.0988 57.019 64.9646 57.3986 64.9646 57.8589C64.9646 58.3192 65.0988 58.7059 65.3679 58.9979C65.6371 59.2977 65.9694 59.4477 66.3648 59.4477Z" fill="#5F6368"/>
</svg>
