<svg width="355" height="375" viewBox="0 0 355 375" fill="none" xmlns="http://www.w3.org/2000/svg">
<path d="M177.195 64.457C143.234 64.457 112.487 78.229 90.2295 100.494L177.195 187.492V64.457Z" fill="#C0C662"/>
<path d="M177.195 187.48L264.161 274.478C286.418 252.212 300.185 221.454 300.185 187.48H177.195Z" fill="#3EB2D2"/>
<path d="M177.195 310.515C211.156 310.515 241.904 296.743 264.161 274.478L177.195 187.48V310.515Z" fill="#56BBAF"/>
<path d="M54.2051 187.48C54.2051 221.454 67.972 252.212 90.2292 274.478L177.195 187.48H54.2051Z" fill="#9587CB"/>
<path d="M90.2295 274.478C112.487 296.743 143.234 310.515 177.195 310.515V187.48L90.2295 274.478Z" fill="#758EE1"/>
<path d="M264.161 100.494C241.904 78.229 211.156 64.457 177.195 64.457V187.492L264.161 100.494Z" fill="#F8CB4B"/>
<path d="M90.2292 100.498C67.972 122.763 54.2051 153.522 54.2051 187.495H177.195L90.2292 100.498Z" fill="#DC5B7E"/>
<path d="M300.171 187.48C300.171 153.506 286.404 122.748 264.147 100.482L177.182 187.48H300.171Z" fill="#F58A63"/>
<path d="M177.195 64.457V187.479V64.457Z" stroke="white" stroke-width="3.70554"/>
<path d="M90.2295 100.498L177.195 187.483L90.2295 100.498Z" stroke="white" stroke-width="3.70554"/>
<path d="M54.2051 187.48H177.195H54.2051Z" stroke="white" stroke-width="3.70554"/>
<path d="M90.2295 274.478L177.195 187.48L90.2295 274.478Z" stroke="white" stroke-width="3.70554"/>
<path d="M177.195 310.515V187.48V310.515Z" stroke="white" stroke-width="3.70554"/>
<path d="M264.161 274.478L177.195 187.48L264.161 274.478Z" stroke="white" stroke-width="3.70554"/>
<path d="M300.185 187.493L177.195 187.48L300.185 187.493Z" stroke="white" stroke-width="3.70554"/>
<path d="M264.161 100.498L177.195 187.483L264.161 100.498Z" stroke="white" stroke-width="3.70554"/>
<g style="mix-blend-mode:multiply">
<path d="M142.058 91.1607L136.393 100.392L131.529 88.6465L142.058 91.1607Z" fill="#CCCCCC"/>
</g>
<g style="mix-blend-mode:multiply">
<path d="M84.2651 144.234L86.7784 154.767L75.0371 149.901L84.2651 144.234Z" fill="#CCCCCC"/>
</g>
<g style="mix-blend-mode:multiply">
<path d="M80.9135 222.641L90.129 228.307L78.3877 233.16L80.9135 222.641Z" fill="#CCCCCC"/>
</g>
<g style="mix-blend-mode:multiply">
<path d="M133.956 280.438L144.484 277.924L139.62 289.669L133.956 280.438Z" fill="#CCCCCC"/>
</g>
<g style="mix-blend-mode:multiply">
<path d="M212.33 283.809L217.994 274.578L222.858 286.324L212.33 283.809Z" fill="#CCCCCC"/>
</g>
<g style="mix-blend-mode:multiply">
<path d="M270.111 230.73L267.598 220.197L279.339 225.063L270.111 230.73Z" fill="#CCCCCC"/>
</g>
<g style="mix-blend-mode:multiply">
<path d="M273.476 152.326L264.248 146.66L275.989 141.807L273.476 152.326Z" fill="#CCCCCC"/>
</g>
<g style="mix-blend-mode:multiply">
<path d="M220.42 94.5262L209.892 97.0405L214.756 85.2949L220.42 94.5262Z" fill="#CCCCCC"/>
</g>
<path d="M177.601 273.377C225.054 273.377 263.516 234.901 263.516 187.431C263.516 139.961 225.041 101.484 177.601 101.484C130.16 101.484 91.6855 139.973 91.6855 187.431C91.6855 234.889 130.148 273.377 177.601 273.377Z" fill="url(#paint0_radial_866_295)"/>
<path d="M88.8301 0.726562V24.8181L124.692 60.6928L88.8301 24.8181V0.726562Z" stroke="#4D4D4D" stroke-width="0.556535"/>
<path d="M129.132 60.6945C129.132 63.1461 127.144 65.135 124.693 65.135C122.242 65.135 120.254 63.1461 120.254 60.6945C120.254 58.2428 122.242 56.2539 124.693 56.2539C127.144 56.2539 129.132 58.2428 129.132 60.6945Z" fill="#C0C662"/>
<path d="M0 107.17H22.6698L50.4538 134.964L22.6698 107.17H0Z" stroke="#4D4D4D" stroke-width="0.556535"/>
<path d="M54.8945 134.96C54.8945 137.412 52.9063 139.401 50.4555 139.401C48.0047 139.401 46.0166 137.412 46.0166 134.96C46.0166 132.508 48.0047 130.52 50.4555 130.52C52.9063 130.52 54.8945 132.508 54.8945 134.96Z" fill="#DC5B7E"/>
<path d="M0 267.8H22.6823L50.4538 240.006L22.6823 267.8H0Z" stroke="#4D4D4D" stroke-width="0.556535"/>
<path d="M54.8925 240.005C54.8925 237.553 52.9044 235.564 50.4536 235.564C48.0028 235.564 46.0146 237.553 46.0146 240.005C46.0146 242.457 48.0028 244.446 50.4536 244.446C52.9044 244.446 54.8925 242.457 54.8925 240.005Z" fill="#9587CB"/>
<path d="M88.8301 374.244V350.152L124.692 314.277L88.8301 350.152V374.244Z" stroke="#4D4D4D" stroke-width="0.556535"/>
<path d="M129.132 314.276C129.132 311.825 127.144 309.836 124.693 309.836C122.242 309.836 120.254 311.825 120.254 314.276C120.254 316.728 122.242 318.717 124.693 318.717C127.144 318.717 129.132 316.728 129.132 314.276Z" fill="#758EE1"/>
<path d="M265.557 374.244V350.152L229.683 314.277L265.557 350.152V374.244Z" stroke="#4D4D4D" stroke-width="0.556535"/>
<path d="M225.244 314.276C225.244 311.825 227.232 309.836 229.683 309.836C232.134 309.836 234.122 311.825 234.122 314.276C234.122 316.728 232.134 318.717 229.683 318.717C227.232 318.717 225.244 316.728 225.244 314.276Z" fill="#56BBAF"/>
<path d="M354.371 267.8H331.701L303.93 240.006L331.701 267.8H354.371Z" stroke="#4D4D4D" stroke-width="0.556535"/>
<path d="M299.491 240.005C299.491 237.553 301.479 235.564 303.93 235.564C306.381 235.564 308.369 237.553 308.369 240.005C308.369 242.457 306.381 244.446 303.93 244.446C301.479 244.446 299.491 242.457 299.491 240.005Z" fill="#3EB2D2"/>
<path d="M354.371 107.17H331.701L303.93 134.964L331.701 107.17H354.371Z" stroke="#4D4D4D" stroke-width="0.556535"/>
<path d="M299.491 134.96C299.491 137.412 301.479 139.401 303.93 139.401C306.381 139.401 308.369 137.412 308.369 134.96C308.369 132.508 306.381 130.52 303.93 130.52C301.479 130.52 299.491 132.508 299.491 134.96Z" fill="#F58A63"/>
<path d="M265.56 0.726562V24.8181L229.686 60.6928L265.56 24.8181V0.726562Z" stroke="#4D4D4D" stroke-width="0.556535"/>
<path d="M225.261 60.6945C225.261 63.1461 227.249 65.135 229.7 65.135C232.15 65.135 234.139 63.1461 234.139 60.6945C234.139 58.2428 232.15 56.2539 229.7 56.2539C227.249 56.2539 225.261 58.2428 225.261 60.6945Z" fill="#F8CB4B"/>
<defs>
<radialGradient id="paint0_radial_866_295" cx="0" cy="0" r="1" gradientUnits="userSpaceOnUse" gradientTransform="translate(239.008 127.177) rotate(180) scale(170.905 170.967)">
<stop offset="0.2" stop-color="white"/>
<stop offset="0.59" stop-color="#FCFCFC"/>
<stop offset="0.79" stop-color="#F5F5F5"/>
<stop offset="0.94" stop-color="#E8E8E8"/>
<stop offset="1" stop-color="#E0E0E0"/>
</radialGradient>
</defs>
</svg>
