<svg width="280" height="280" viewBox="0 0 280 280" fill="none" xmlns="http://www.w3.org/2000/svg">
<path opacity="0.2" d="M140 274.273C214.558 274.273 275 214.056 275 139.773C275 65.4911 214.558 5.27344 140 5.27344C65.4416 5.27344 5 65.4911 5 139.773C5 214.056 65.4416 274.273 140 274.273Z" fill="white" stroke="#F4A07F" stroke-width="9.96205" stroke-miterlimit="10"/>
<path opacity="0.2" d="M209.66 75.275C196.975 75.275 185.348 79.903 176.378 87.5494L176.37 87.5415L176.226 87.6766C175.236 88.523 174.287 89.4025 173.365 90.3243L173.357 90.3322L145.652 116.007V115.71L125.342 134.761V134.828L118.793 140.903L118.538 141.14L117.447 142.147L112.429 146.8C110.508 127.622 97.9918 111.523 80.8306 104.452C92.3049 112.15 99.8706 125.236 99.8706 140.066C99.8706 150.876 95.8427 160.765 89.2164 168.311L89.2085 168.319L83.8861 173.25L82.7189 174.334L82.7111 174.342L80.917 176C80.8997 176.017 80.8746 176.035 80.8495 176.06C75.5176 180.383 68.7311 182.971 61.335 182.971H57.1547C51.5464 182.971 47 187.516 47 193.122C47 198.729 51.5464 203.273 57.1547 203.273H61.335C73.8854 203.273 85.4021 198.757 94.3299 191.252C94.3644 191.217 94.4068 191.184 94.4398 191.15C95.6589 190.118 96.834 189.034 97.9525 187.893L98.02 187.825L125.345 162.515V162.54L137.234 151.5L145.655 143.692L152.094 137.727L158.568 131.721C160.472 150.906 172.996 167.012 190.158 174.076C178.692 166.378 171.126 153.3 171.126 138.48C171.126 127.601 175.197 117.67 181.898 110.099L187.365 105.041L188.152 104.314L189.828 102.757C195.211 98.2738 202.124 95.5758 209.665 95.5758H213.845C219.454 95.5758 224 91.031 224 85.4246C224 79.8182 219.454 75.2734 213.845 75.2734H209.665L209.66 75.275Z" fill="url(#paint0_linear_867_339)"/>
<defs>
<linearGradient id="paint0_linear_867_339" x1="55.1486" y1="194.297" x2="222.552" y2="79.5555" gradientUnits="userSpaceOnUse">
<stop stop-color="#6811CE"/>
<stop offset="0.26" stop-color="#F44940"/>
<stop offset="0.49" stop-color="#FFB243"/>
<stop offset="0.73" stop-color="#F44940"/>
<stop offset="1" stop-color="#6811CE"/>
</linearGradient>
</defs>
</svg>
