<svg width="339" height="341" viewBox="0 0 339 341" fill="none" xmlns="http://www.w3.org/2000/svg">
<g opacity="0.7">
<path opacity="0.01" d="M244.111 102.101C301.605 124.111 330.37 188.563 308.36 246.056C286.35 303.551 221.899 332.316 164.405 310.306C106.911 288.296 78.1452 223.845 100.156 166.351C122.166 108.856 186.617 80.0905 244.111 102.101Z" fill="#F0F0F0"/>
<path opacity="0.0139" d="M243.543 101.593C301.008 123.593 329.759 188.011 307.759 245.476C285.76 302.941 221.342 331.692 163.876 309.693C106.412 287.693 77.6601 223.276 99.6597 165.811C121.659 108.345 186.078 79.5939 243.543 101.593Z" fill="#EDEDED"/>
<path opacity="0.0208" d="M242.982 101.086C300.417 123.074 329.153 187.46 307.165 244.895C285.178 302.331 220.792 331.068 163.356 309.08C105.92 287.092 77.1834 222.707 99.1715 165.271C121.16 107.834 185.545 79.0975 242.982 101.086Z" fill="#EBEBEB"/>
<path opacity="0.0277" d="M242.413 100.574C299.82 122.552 328.542 186.904 306.564 244.311C284.588 301.718 220.235 330.44 162.827 308.463C105.421 286.486 76.6984 222.133 98.6757 164.727C120.653 107.318 185.006 78.597 242.413 100.574Z" fill="#E8E8E8"/>
<path opacity="0.0347" d="M241.848 100.066C299.226 122.033 327.933 186.353 305.967 243.73C284.001 301.109 219.68 329.815 162.303 307.85C104.926 285.884 76.2177 221.564 98.1835 164.186C120.149 106.808 184.47 78.1005 241.848 100.066Z" fill="#E6E6E6"/>
<path opacity="0.0416" d="M241.283 99.557C298.632 121.512 327.325 185.8 305.37 243.148C283.415 300.497 219.127 329.19 161.778 307.236C104.43 285.281 75.737 220.993 97.6914 163.645C119.646 106.295 183.934 77.6019 241.283 99.557Z" fill="#E4E4E4"/>
<path opacity="0.0485" d="M240.715 99.0495C298.034 120.993 326.712 185.249 304.769 242.568C282.826 299.888 218.57 328.566 161.25 306.623C103.931 284.679 75.252 220.424 97.1956 163.105C119.139 105.784 183.395 77.1053 240.715 99.0495Z" fill="#E1E1E1"/>
<path opacity="0.0554" d="M240.15 98.5417C297.44 120.475 326.103 184.698 304.171 241.987C282.239 299.278 218.016 327.942 160.725 306.01C103.436 284.077 74.7713 219.855 96.7034 162.564C118.636 105.273 182.859 76.6089 240.15 98.5417Z" fill="#DFDFDF"/>
<path opacity="0.0624" d="M239.585 98.0342C296.846 119.956 325.495 184.146 303.574 241.407C281.653 298.669 217.463 327.318 160.201 305.397C102.94 283.475 74.2902 219.285 96.2116 162.024C118.133 104.762 182.323 76.1122 239.585 98.0342Z" fill="#DCDCDC"/>
<path opacity="0.0693" d="M239.016 97.5264C296.248 119.437 324.883 183.594 302.972 240.826C281.063 298.059 216.905 326.694 159.673 304.783C102.441 282.873 73.8056 218.716 95.7155 161.483C117.625 104.251 181.783 75.6158 239.016 97.5264Z" fill="#DADADA"/>
<path opacity="0.0762" d="M238.452 97.0128C295.654 118.912 324.275 183.037 302.376 240.24C280.477 297.444 216.352 326.064 159.148 304.165C101.946 282.266 73.3245 218.141 95.2236 160.938C117.123 103.733 181.248 75.1137 238.452 97.0128Z" fill="#D8D8D8"/>
<path opacity="0.0832" d="M237.883 96.505C295.057 118.393 323.662 182.486 301.775 239.659C279.887 296.834 215.794 325.44 158.62 303.551C101.446 281.663 72.8399 217.571 94.7275 160.397C116.616 103.223 180.708 74.6173 237.883 96.505Z" fill="#D5D5D5"/>
<path opacity="0.0901" d="M237.318 95.9974C294.463 117.875 323.054 181.934 301.177 239.079C279.301 296.224 215.241 324.816 158.095 302.939C100.951 281.062 72.3588 217.003 94.2356 159.858C116.112 102.712 180.173 74.1206 237.318 95.9974Z" fill="#D3D3D3"/>
<path opacity="0.097" d="M236.749 95.49C293.865 117.356 322.441 181.383 300.576 238.498C278.711 295.615 214.684 324.191 157.567 302.326C100.451 280.46 71.8742 216.433 93.7395 159.317C115.606 102.2 179.633 73.624 236.749 95.49Z" fill="#D0D0D0"/>
<path opacity="0.104" d="M236.184 94.9821C293.271 116.837 321.833 180.832 299.979 237.918C278.124 295.006 214.129 323.567 157.042 301.713C99.9556 279.858 71.3932 215.864 93.2477 158.777C115.102 101.689 179.097 73.1276 236.184 94.9821Z" fill="#CECECE"/>
<path opacity="0.1109" d="M235.619 94.4727C292.677 116.316 321.224 180.279 299.381 237.336C277.538 294.394 213.576 322.942 156.518 301.099C99.46 279.255 70.9121 215.293 92.7558 158.236C114.599 101.176 178.561 72.629 235.619 94.4727Z" fill="#CCCCCC"/>
<path opacity="0.1178" d="M235.051 93.9649C292.079 115.798 320.612 179.727 298.78 236.755C276.948 293.785 213.019 322.317 155.989 300.485C98.961 278.653 70.4271 214.724 92.26 157.695C114.092 100.665 178.022 72.1326 235.051 93.9649Z" fill="#C9C9C9"/>
<path opacity="0.1248" d="M234.49 93.4535C291.489 115.275 320.007 179.172 298.186 236.171C276.366 293.171 212.469 321.689 155.469 299.869C98.469 278.047 69.9504 214.151 91.7718 157.151C113.593 100.151 177.489 71.632 234.49 93.4535Z" fill="#C7C7C7"/>
<path opacity="0.1317" d="M233.921 92.9456C290.891 114.756 319.395 178.62 297.585 235.591C275.775 292.562 211.911 321.066 154.94 299.256C97.9697 277.446 69.4657 213.582 91.2757 156.611C113.086 99.6396 176.95 71.1356 233.921 92.9456Z" fill="#C4C4C4"/>
<path opacity="0.1386" d="M233.356 92.4382C290.298 114.237 318.787 178.069 296.988 235.01C275.189 291.953 211.358 320.441 154.416 298.643C97.4746 276.844 68.9846 213.013 90.7838 156.071C112.582 99.1283 176.414 70.639 233.356 92.4382Z" fill="#C2C2C2"/>
<path opacity="0.1455" d="M232.791 91.9287C289.704 113.717 318.178 177.516 296.391 234.428C274.603 291.341 210.804 319.816 153.891 298.028C96.9792 276.241 68.5039 212.441 90.2916 155.529C112.079 98.6151 175.879 70.1404 232.791 91.9287Z" fill="#C0C0C0"/>
<path opacity="0.1525" d="M232.223 91.4209C289.107 113.198 317.567 176.965 295.79 233.847C274.014 290.731 210.247 319.191 153.363 297.415C96.4797 275.638 68.019 211.872 89.7959 154.989C111.573 98.1047 175.34 69.644 232.223 91.4209Z" fill="#BDBDBD"/>
<path opacity="0.1594" d="M231.658 90.9131C288.512 112.679 316.958 176.413 295.192 233.267C273.427 290.122 209.693 318.568 152.838 296.802C95.9843 275.037 67.5382 211.303 89.3037 154.448C111.069 97.5931 174.804 69.1477 231.658 90.9131Z" fill="#BBBBBB"/>
<path opacity="0.1663" d="M231.094 90.4017C287.919 112.156 316.35 175.858 294.595 232.683C272.841 289.509 209.14 317.94 152.314 296.185C95.4892 274.43 67.0571 210.729 88.8118 153.904C110.566 97.0785 174.268 68.647 231.094 90.4017Z" fill="#B8B8B8"/>
<path opacity="0.1733" d="M230.528 89.894C287.324 111.638 315.741 175.307 293.997 232.102C272.254 288.899 208.586 317.315 151.789 295.572C94.9933 273.829 66.5765 210.16 88.3197 153.364C110.063 96.5669 173.732 68.1508 230.528 89.894Z" fill="#B6B6B6"/>
<path opacity="0.1802" d="M229.96 89.3842C286.727 111.117 315.129 174.753 293.397 231.52C271.665 288.288 208.029 316.689 151.261 294.957C94.4943 273.225 66.0915 209.589 87.8238 152.821C109.556 96.054 173.193 67.6525 229.96 89.3842Z" fill="#B4B4B4"/>
<path opacity="0.1871" d="M229.395 88.8766C286.134 110.598 314.52 174.202 292.799 230.939C271.079 287.678 207.475 316.065 150.736 294.344C93.9989 272.623 65.6107 209.02 87.3316 152.281C109.053 95.5433 172.657 67.1557 229.395 88.8766Z" fill="#B1B1B1"/>
<path opacity="0.1941" d="M228.83 88.3692C285.539 110.079 313.912 173.65 292.202 230.359C270.492 287.069 206.921 315.441 150.212 293.731C93.503 272.021 65.1301 208.45 86.8395 151.742C108.549 95.032 172.12 66.6591 228.83 88.3692Z" fill="#AFAFAF"/>
<path opacity="0.201" d="M228.262 87.8614C284.941 109.561 313.3 173.099 291.601 229.779C269.902 286.459 206.364 314.817 149.684 293.119C93.004 271.42 64.6451 207.882 86.3437 151.202C108.043 94.521 171.581 66.1627 228.262 87.8614Z" fill="#ADADAD"/>
<path opacity="0.2079" d="M227.7 87.3539C284.351 109.042 312.695 172.548 291.007 229.198C269.32 285.85 205.814 314.193 149.163 292.506C92.5125 270.818 64.1682 207.312 85.8554 150.661C107.543 94.0097 171.049 65.6661 227.7 87.3539Z" fill="#AAAAAA"/>
<path opacity="0.2149" d="M227.132 86.8402C283.754 108.517 312.083 171.99 290.406 228.612C268.73 285.234 205.257 313.563 148.635 291.887C92.013 270.211 63.6833 206.737 85.3597 150.115C107.037 93.4928 170.51 65.1639 227.132 86.8402Z" fill="#A8A8A8"/>
<path opacity="0.2218" d="M226.567 86.3327C283.159 107.998 311.474 171.439 289.809 228.032C268.144 284.625 204.703 312.939 148.11 291.274C91.5173 269.609 63.2023 206.168 84.8678 149.576C106.533 92.9821 169.974 64.6671 226.567 86.3327Z" fill="#A5A5A5"/>
<path opacity="0.2287" d="M226.002 85.8249C282.565 107.48 310.865 170.888 289.211 227.451C267.557 284.015 204.149 312.315 147.585 290.661C91.0222 269.007 62.7212 205.599 84.3759 149.035C106.029 92.4712 169.438 64.1708 226.002 85.8249Z" fill="#A3A3A3"/>
<path opacity="0.2356" d="M191.738 297.192C252.201 294.171 298.767 242.708 295.747 182.244C292.726 121.781 241.262 75.2148 180.799 78.2355C120.335 81.2563 73.7691 132.72 76.7898 193.183C79.8106 253.647 131.274 300.213 191.738 297.192Z" fill="#A1A1A1"/>
<path opacity="0.2426" d="M194.981 296.262C255.267 291.143 299.99 238.121 294.871 177.834C289.752 117.547 236.731 72.824 176.444 77.9427C116.157 83.0614 71.4347 136.083 76.5534 196.37C81.6721 256.658 134.694 301.38 194.981 296.262Z" fill="#9E9E9E"/>
<path opacity="0.2495" d="M190.363 295.971C250.771 293.093 297.407 241.79 294.528 181.382C291.65 120.975 240.346 74.3391 179.939 77.2176C119.532 80.0962 72.896 131.399 75.7746 191.807C78.6531 252.214 129.956 298.85 190.363 295.971Z" fill="#9C9C9C"/>
<path opacity="0.2564" d="M185.071 295.448C245.513 295.194 294.306 245.99 294.052 185.547C293.798 125.105 244.594 76.3119 184.152 76.5657C123.709 76.8196 74.9167 126.024 75.1706 186.467C75.4245 246.909 124.628 295.702 185.071 295.448Z" fill="#999999"/>
<path opacity="0.2634" d="M261.397 262.781C304.114 220.064 304.114 150.807 261.397 108.09C218.68 65.3727 149.422 65.3727 106.705 108.09C63.9883 150.807 63.9883 220.064 106.705 262.781C149.422 305.498 218.68 305.498 261.397 262.781Z" fill="#979797"/>
<path opacity="0.2703" d="M292.803 187.546C294.289 127.184 246.56 77.046 186.198 75.5607C125.836 74.0753 75.6983 121.805 74.2129 182.167C72.7276 242.529 120.457 292.667 180.819 294.152C241.181 295.638 291.318 247.908 292.803 187.546Z" fill="#959595"/>
<path opacity="0.2772" d="M188.736 293.433C249 290.247 295.271 238.81 292.085 178.545C288.898 118.28 237.461 72.0089 177.197 75.1953C116.932 78.3817 70.6612 129.819 73.8477 190.084C77.0341 250.349 128.471 296.62 188.736 293.433Z" fill="#929292"/>
<path opacity="0.2842" d="M191.884 292.514C251.973 287.29 296.45 234.344 291.227 174.255C286.003 114.167 233.057 69.6895 172.968 74.913C112.88 80.1366 68.4025 133.083 73.626 193.171C78.8496 253.26 131.796 297.737 191.884 292.514Z" fill="#909090"/>
<path opacity="0.2911" d="M259.055 260.376C301.684 217.748 301.684 148.633 259.055 106.004C216.426 63.3747 147.311 63.3745 104.682 106.003C62.0535 148.632 62.0537 217.747 104.683 260.376C147.312 303.005 216.427 303.005 259.055 260.376Z" fill="#8D8D8D"/>
<path opacity="0.298" d="M184.113 291.734C244.351 290.191 291.933 240.108 290.39 179.871C288.848 119.633 238.765 72.0511 178.527 73.5937C118.289 75.1362 70.7075 125.219 72.2501 185.457C73.7926 245.694 123.875 293.276 184.113 291.734Z" fill="#8B8B8B"/>
<path opacity="0.3049" d="M289.823 185.298C291.605 125.097 244.248 74.8498 184.048 73.0671C123.847 71.2845 73.6003 118.642 71.8176 178.843C70.035 239.043 117.392 289.291 177.592 291.073C237.793 292.856 288.04 245.499 289.823 185.298Z" fill="#898989"/>
<path opacity="0.3119" d="M289.189 184.101C290.61 123.925 242.979 73.9918 182.804 72.5713C122.629 71.1507 72.6959 118.781 71.2753 178.957C69.8547 239.132 117.485 289.066 177.66 290.486C237.835 291.907 287.768 244.276 289.189 184.101Z" fill="#868686"/>
<path opacity="0.3188" d="M181.02 289.856C241.177 289.116 289.343 239.75 288.603 179.593C287.863 119.436 238.497 71.2697 178.341 72.0097C118.184 72.7497 70.0179 122.116 70.7579 182.273C71.4979 242.43 120.864 290.596 181.02 289.856Z" fill="#848484"/>
<path opacity="0.3257" d="M287.641 189.18C292.5 129.247 247.853 76.7229 187.921 71.8643C127.988 67.0057 75.4645 111.652 70.6059 171.585C65.7473 231.518 110.394 284.042 170.326 288.901C230.259 293.759 282.782 249.113 287.641 189.18Z" fill="#818181"/>
<path opacity="0.3327" d="M287.394 181.029C288.037 120.934 239.842 71.6971 179.748 71.0541C119.654 70.411 70.4168 118.606 69.7738 178.7C69.1307 238.794 117.325 288.031 177.419 288.674C237.514 289.317 286.751 241.123 287.394 181.029Z" fill="#7F7F7F"/>
<path opacity="0.3396" d="M254.96 256.169C297.435 213.694 297.435 144.829 254.96 102.355C212.485 59.8798 143.62 59.8798 101.146 102.354C58.6708 144.829 58.6708 213.694 101.146 256.169C143.62 298.644 212.485 298.644 254.96 256.169Z" fill="#7D7D7D"/>
<path opacity="0.3465" d="M286.201 180.145C286.993 120.113 238.97 70.8052 178.938 70.0127C118.906 69.2202 69.5985 117.243 68.806 177.275C68.0135 237.307 116.037 286.615 176.069 287.408C236.1 288.2 285.408 240.177 286.201 180.145Z" fill="#7A7A7A"/>
<path opacity="0.3535" d="M285.274 186.675C289.997 126.854 245.331 74.5311 185.511 69.8086C125.69 65.086 73.3672 109.752 68.6447 169.573C63.9221 229.394 108.588 281.717 168.409 286.44C228.229 291.162 280.552 246.496 285.274 186.675Z" fill="#787878"/>
<path opacity="0.3604" d="M253.2 254.366C295.609 211.957 295.609 143.199 253.2 100.79C210.791 58.3813 142.033 58.3813 99.6239 100.79C57.2151 143.199 57.2151 211.957 99.6239 254.366C142.033 296.775 210.791 296.775 253.2 254.366Z" fill="#757575"/>
<path opacity="0.3673" d="M252.615 253.766C295.002 211.379 295.002 142.656 252.615 100.27C210.228 57.8829 141.506 57.8829 99.1191 100.27C56.7323 142.656 56.7323 211.379 99.1191 253.766C141.506 296.152 210.228 296.152 252.615 253.766Z" fill="#737373"/>
<path opacity="0.3743" d="M282.976 189.784C290.345 130.326 248.119 76.1514 188.661 68.7821C129.203 61.4127 75.0292 103.639 67.6598 163.097C60.2905 222.555 102.517 276.73 161.974 284.099C221.432 291.469 275.606 249.242 282.976 189.784Z" fill="#717171"/>
<path opacity="0.3812" d="M251.446 252.563C293.789 210.22 293.789 141.569 251.446 99.2262C209.104 56.8834 140.453 56.8834 98.1097 99.2262C55.767 141.569 55.767 210.22 98.1097 252.563C140.452 294.906 209.104 294.906 251.446 252.563Z" fill="#6E6E6E"/>
<path opacity="0.3881" d="M250.858 251.958C293.178 209.638 293.178 141.022 250.858 98.7018C208.537 56.3811 139.922 56.3811 97.6009 98.7018C55.2803 141.022 55.2803 209.638 97.6009 251.958C139.922 294.279 208.537 294.279 250.858 251.958Z" fill="#6C6C6C"/>
<path opacity="0.395" d="M250.27 251.36C292.569 209.061 292.569 140.482 250.27 98.1828C207.971 55.884 139.391 55.884 97.0926 98.1828C54.7938 140.482 54.7939 209.061 97.0926 251.36C139.391 293.659 207.971 293.659 250.27 251.36Z" fill="#696969"/>
<path opacity="0.402" d="M280.941 183.979C286.34 124.435 242.447 71.7887 182.904 66.3898C123.36 60.9909 70.7137 104.884 65.3147 164.428C59.9158 223.972 103.809 276.619 163.352 282.018C222.896 287.417 275.543 243.523 280.941 183.979Z" fill="#676767"/>
<path opacity="0.4089" d="M280.227 184.993C286.508 125.564 243.423 72.2957 183.994 66.0151C124.565 59.7346 71.297 102.82 65.0165 162.249C58.7359 221.679 101.821 274.947 161.25 281.227C220.679 287.508 273.947 244.422 280.227 184.993Z" fill="#656565"/>
<path opacity="0.4158" d="M248.52 249.557C290.753 207.324 290.753 138.852 248.52 96.6189C206.288 54.3862 137.815 54.3862 95.5823 96.6189C53.3496 138.852 53.3497 207.324 95.5823 249.557C137.815 291.79 206.288 291.79 248.52 249.557Z" fill="#626262"/>
<path opacity="0.4228" d="M247.932 248.956C290.143 206.745 290.143 138.308 247.932 96.0975C205.722 53.8869 137.285 53.8871 95.074 96.0979C52.8632 138.309 52.863 206.746 95.0735 248.956C137.284 291.167 205.721 291.167 247.932 248.956Z" fill="#606060"/>
<path opacity="0.4297" d="M247.348 248.352C289.537 206.164 289.537 137.762 247.348 95.5735C205.159 53.3848 136.758 53.3848 94.5691 95.5735C52.3804 137.762 52.3804 206.164 94.5691 248.352C136.758 290.541 205.159 290.541 247.348 248.352Z" fill="#5D5D5D"/>
<path opacity="0.4366" d="M246.759 247.754C288.926 205.587 288.926 137.222 246.759 95.0549C204.592 52.8883 136.227 52.8883 94.0603 95.0549C51.8937 137.222 51.8937 205.587 94.0603 247.754C136.227 289.92 204.592 289.92 246.759 247.754Z" fill="#5B5B5B"/>
<path opacity="0.4436" d="M246.175 247.154C288.32 205.009 288.32 136.679 246.175 94.534C204.031 52.3892 135.701 52.3892 93.5559 94.534C51.4111 136.679 51.4111 205.009 93.5559 247.154C135.701 289.298 204.031 289.298 246.175 247.154Z" fill="#595959"/>
<path opacity="0.4505" d="M245.59 246.553C287.713 204.43 287.713 136.136 245.59 94.0135C203.468 51.8909 135.174 51.8909 93.051 94.0135C50.9284 136.136 50.9284 204.43 93.051 246.553C135.174 288.676 203.468 288.676 245.59 246.553Z" fill="#565656"/>
<path opacity="0.4574" d="M245.003 245.949C287.104 203.848 287.104 135.589 245.003 93.4886C202.902 51.3879 134.643 51.3879 92.5426 93.4886C50.4419 135.589 50.4419 203.848 92.5426 245.949C134.643 288.05 202.902 288.05 245.003 245.949Z" fill="#545454"/>
<path opacity="0.4644" d="M244.418 245.35C286.497 203.272 286.497 135.049 244.418 92.97C202.339 50.8914 134.116 50.8914 92.0377 92.9701C49.9591 135.049 49.9591 203.272 92.0378 245.35C134.116 287.429 202.339 287.429 244.418 245.35Z" fill="#515151"/>
<path opacity="0.4713" d="M243.833 244.745C285.89 202.689 285.89 134.501 243.834 92.4448C201.777 50.3882 133.59 50.3884 91.5333 92.4452C49.4765 134.502 49.4764 202.689 91.5329 244.746C133.589 286.802 201.777 286.802 243.833 244.745Z" fill="#4F4F4F"/>
<path opacity="0.4782" d="M243.245 244.146C285.28 202.111 285.28 133.959 243.245 91.9247C201.211 49.89 133.059 49.89 91.0245 91.9247C48.9899 133.959 48.9899 202.111 91.0245 244.146C133.059 286.18 201.211 286.18 243.245 244.146Z" fill="#4D4D4D"/>
<path opacity="0.4851" d="M242.657 243.547C284.669 201.534 284.669 133.419 242.657 91.4062C200.644 49.3936 132.528 49.3936 90.5157 91.4061C48.5032 133.419 48.5032 201.534 90.5158 243.547C132.528 285.56 200.644 285.56 242.657 243.547Z" fill="#4A4A4A"/>
<path opacity="0.4921" d="M242.073 242.943C284.064 200.952 284.064 132.872 242.073 90.8813C200.082 48.8906 132.002 48.8906 90.0113 90.8813C48.0206 132.872 48.0206 200.952 90.0113 242.943C132.002 284.934 200.082 284.934 242.073 242.943Z" fill="#484848"/>
<path opacity="0.499" d="M241.488 242.342C283.457 200.374 283.457 132.329 241.488 90.3608C199.519 48.3922 131.475 48.3922 89.5064 90.3608C47.5378 132.329 47.5379 200.374 89.5064 242.342C131.475 284.311 199.519 284.311 241.488 242.342Z" fill="#454545"/>
<path opacity="0.5059" d="M240.904 241.739C282.85 199.793 282.85 131.784 240.904 89.8374C198.958 47.891 130.949 47.8911 89.002 89.8378C47.0553 131.785 47.0551 199.793 89.0016 241.74C130.948 283.686 198.957 283.686 240.904 241.739Z" fill="#434343"/>
<path opacity="0.5129" d="M240.316 241.14C282.24 199.215 282.24 131.242 240.316 89.3173C198.391 47.3927 130.418 47.3928 88.4932 89.3173C46.5686 131.242 46.5686 199.215 88.4932 241.14C130.418 283.064 198.391 283.064 240.316 241.14Z" fill="#414141"/>
<path opacity="0.5198" d="M239.731 240.539C281.633 198.637 281.633 130.699 239.731 88.7969C197.828 46.8944 129.891 46.8944 87.9883 88.7969C46.0858 130.699 46.0859 198.637 87.9883 240.539C129.891 282.442 197.828 282.442 239.731 240.539Z" fill="#3E3E3E"/>
<path opacity="0.5267" d="M239.143 239.941C281.024 198.06 281.024 130.158 239.143 88.2779C197.262 46.3973 129.361 46.3972 87.48 88.2778C45.5994 130.158 45.5994 198.06 87.48 239.941C129.361 281.822 197.262 281.822 239.143 239.941Z" fill="#3C3C3C"/>
<path opacity="0.5337" d="M238.562 239.336C280.42 197.478 280.42 129.612 238.562 87.7534C196.703 45.8949 128.837 45.8949 86.979 87.7534C45.1205 129.612 45.1205 197.478 86.979 239.336C128.837 281.195 196.704 281.195 238.562 239.336Z" fill="#3A3A3A"/>
<path opacity="0.5406" d="M237.978 238.736C279.815 196.9 279.815 129.069 237.978 87.2325C196.142 45.3959 128.311 45.3959 86.4745 87.2325C44.6379 129.069 44.638 196.9 86.4746 238.736C128.311 280.573 196.142 280.573 237.978 238.736Z" fill="#373737"/>
<path opacity="0.5475" d="M237.393 238.134C279.208 196.319 279.208 128.524 237.393 86.71C195.579 44.8955 127.784 44.8955 85.9697 86.71C44.1552 128.525 44.1551 196.319 85.9696 238.134C127.784 279.948 195.579 279.948 237.393 238.134Z" fill="#353535"/>
<path opacity="0.5545" d="M236.805 237.533C278.598 195.74 278.598 127.981 236.805 86.1886C195.013 44.3962 127.254 44.3964 85.4613 86.1891C43.6687 127.982 43.6685 195.741 85.4609 237.533C127.253 279.326 195.012 279.325 236.805 237.533Z" fill="#323232"/>
<path opacity="0.5614" d="M236.221 236.929C277.991 195.159 277.991 127.435 236.221 85.6647C194.45 43.8941 126.727 43.8941 84.9565 85.6646C43.1859 127.435 43.1859 195.159 84.9565 236.929C126.727 278.7 194.45 278.7 236.221 236.929Z" fill="#303030"/>
<path opacity="0.5683" d="M235.632 236.334C277.38 194.586 277.38 126.898 235.632 85.15C193.884 43.4016 126.196 43.4016 84.4477 85.15C42.6993 126.898 42.6992 194.586 84.4476 236.334C126.196 278.083 193.884 278.083 235.632 236.334Z" fill="#2E2E2E"/>
<path opacity="0.5752" d="M235.045 235.73C276.771 194.004 276.771 126.352 235.045 84.6251C193.318 42.8986 125.666 42.8986 83.9393 84.6251C42.2128 126.352 42.2128 194.004 83.9393 235.73C125.666 277.457 193.318 277.457 235.045 235.73Z" fill="#2B2B2B"/>
<path opacity="0.5822" d="M234.46 235.13C276.164 193.425 276.164 125.809 234.46 84.1046C192.755 42.4002 125.139 42.4002 83.4345 84.1046C41.73 125.809 41.73 193.425 83.4344 235.13C125.139 276.834 192.755 276.834 234.46 235.13Z" fill="#292929"/>
<path opacity="0.5891" d="M233.875 234.527C275.558 192.844 275.558 125.264 233.875 83.5812C192.193 41.8989 124.613 41.8991 82.93 83.5817C41.2474 125.264 41.2472 192.845 82.9295 234.527C124.612 276.21 192.192 276.209 233.875 234.527Z" fill="#262626"/>
<path opacity="0.596" d="M233.291 233.927C274.951 192.267 274.951 124.722 233.291 83.0612C191.631 41.4007 124.086 41.4007 82.4251 83.0612C40.7647 124.722 40.7647 192.267 82.4251 233.927C124.086 275.588 191.63 275.587 233.291 233.927Z" fill="#242424"/>
<path opacity="0.603" d="M232.703 233.326C274.341 191.687 274.341 124.178 232.703 82.5398C191.065 40.9014 123.555 40.9016 81.9168 82.5402C40.2782 124.179 40.278 191.688 81.9163 233.326C123.555 274.965 191.064 274.965 232.703 233.326Z" fill="#222222"/>
<path opacity="0.6099" d="M232.119 232.728C273.735 191.112 273.735 123.638 232.119 82.0217C190.502 40.4052 123.028 40.4052 81.4119 82.0217C39.7954 123.638 39.7954 191.112 81.4119 232.728C123.028 274.345 190.502 274.345 232.119 232.728Z" fill="#1F1F1F"/>
<path opacity="0.6168" d="M231.53 232.124C273.124 190.529 273.124 123.092 231.53 81.4973C189.935 39.9029 122.497 39.9029 80.9031 81.4973C39.3087 123.092 39.3087 190.529 80.9031 232.124C122.497 273.718 189.935 273.718 231.53 232.124Z" fill="#1D1D1D"/>
<path opacity="0.6238" d="M230.946 231.524C272.519 189.951 272.518 122.549 230.946 80.9763C189.373 39.4038 121.971 39.4038 80.3987 80.9763C38.8262 122.549 38.8261 189.951 80.3986 231.524C121.971 273.096 189.374 273.096 230.946 231.524Z" fill="#1A1A1A"/>
<path opacity="0.6307" d="M230.361 230.921C271.911 189.371 271.911 122.004 230.361 80.4539C188.811 38.9035 121.444 38.9035 79.8938 80.4539C38.3434 122.004 38.3434 189.371 79.8938 230.921C121.444 272.472 188.811 272.472 230.361 230.921Z" fill="#181818"/>
<path opacity="0.6376" d="M229.777 230.32C271.305 188.792 271.305 121.461 229.777 79.9325C188.249 38.4042 120.918 38.4044 79.3894 79.9329C37.8608 121.461 37.8607 188.792 79.3889 230.321C120.917 271.849 188.248 271.849 229.777 230.32Z" fill="#161616"/>
<path opacity="0.6446" d="M229.192 229.717C270.699 188.21 270.699 120.915 229.192 79.4085C187.686 37.9021 120.391 37.9021 78.8845 79.4085C37.3781 120.915 37.378 188.21 78.8844 229.716C120.391 271.223 187.686 271.223 229.192 229.717Z" fill="#131313"/>
<path opacity="0.6515" d="M228.608 229.117C270.093 187.633 270.093 120.373 228.608 78.889C187.124 37.4047 119.865 37.4049 78.38 78.8895C36.8955 120.374 36.8953 187.634 78.3796 229.118C119.864 270.602 187.123 270.602 228.608 229.117Z" fill="#111111"/>
<path opacity="0.6584" d="M228.02 228.518C269.482 187.055 269.482 119.831 228.02 78.369C186.558 36.9066 119.334 36.9066 77.8712 78.369C36.4088 119.831 36.4088 187.055 77.8713 228.518C119.334 269.98 186.558 269.98 228.02 228.518Z" fill="#0E0E0E"/>
<path opacity="0.6653" d="M227.431 227.917C268.871 186.477 268.871 119.289 227.431 77.8485C185.991 36.4082 118.803 36.4082 77.3625 77.8485C35.9221 119.289 35.9221 186.477 77.3625 227.917C118.803 269.357 185.991 269.357 227.431 227.917Z" fill="#0C0C0C"/>
<path opacity="0.6723" d="M226.847 227.315C268.266 185.897 268.266 118.744 226.848 77.3256C185.429 35.9072 118.276 35.9071 76.858 77.3256C35.4396 118.744 35.4396 185.897 76.858 227.315C118.276 268.734 185.429 268.734 226.847 227.315Z" fill="#0A0A0A"/>
<path opacity="0.6792" d="M226.263 226.714C267.659 185.318 267.659 118.201 226.263 76.805C184.866 35.4087 117.749 35.4087 76.3531 76.8051C34.9568 118.201 34.9568 185.318 76.3531 226.714C117.749 268.111 184.866 268.111 226.263 226.714Z" fill="#070707"/>
<path opacity="0.6861" d="M225.678 226.113C267.052 184.739 267.053 117.658 225.678 76.2837C184.304 34.9094 117.223 34.9096 75.8487 76.2841C34.4742 117.659 34.474 184.74 75.8483 226.114C117.222 267.488 184.304 267.488 225.678 226.113Z" fill="#050505"/>
<path opacity="0.6931" d="M225.09 225.512C266.442 184.159 266.442 117.114 225.09 75.7617C183.738 34.4093 116.692 34.4093 75.3399 75.7617C33.9875 117.114 33.9876 184.159 75.3399 225.512C116.692 266.864 183.738 266.864 225.09 225.512Z" fill="#020202"/>
<path opacity="0.7" d="M224.505 224.911C265.835 183.581 265.835 116.571 224.505 75.2411C183.175 33.9109 116.165 33.9109 74.835 75.2411C33.5048 116.571 33.5048 183.581 74.835 224.911C116.165 266.241 183.175 266.241 224.505 224.911Z" fill="black"/>
</g>
</svg>
