<svg width="80" height="81" viewBox="0 0 80 81" fill="none" xmlns="http://www.w3.org/2000/svg">
<path d="M77.573 50.9084H40.7245C39.9973 50.9084 39.5124 50.4235 39.5124 49.6963C39.5124 48.969 39.9973 48.4841 40.7245 48.4841H76.3609V43.1508H39.9973C39.27 43.1508 38.7852 42.666 38.7852 41.9387C38.7852 41.2114 39.27 40.7266 39.9973 40.7266H77.573C78.3003 40.7266 78.7852 41.2114 78.7852 41.9387V49.6963C78.7852 50.4235 78.3003 50.9084 77.573 50.9084Z" fill="#F7615A"/>
<path d="M16.8468 50.9084H2.90743C2.18016 50.9084 1.69531 50.4235 1.69531 49.6963V41.9387C1.69531 41.2114 2.18016 40.7266 2.90743 40.7266H18.1802C18.9074 40.7266 19.3923 41.2114 19.3923 41.9387C19.3923 42.666 18.9074 43.1508 18.1802 43.1508H4.11955V48.4841H16.8468C17.5741 48.4841 18.0589 48.969 18.0589 49.6963C18.0589 50.4235 17.4529 50.9084 16.8468 50.9084Z" fill="#F7615A"/>
<path d="M77.5739 79.5124H47.1496C46.4223 79.5124 45.9375 79.0276 45.9375 78.3003V63.9973C45.9375 63.27 46.4223 62.7852 47.1496 62.7852H77.5739C78.3011 62.7852 78.786 63.27 78.786 63.9973V78.3003C78.786 79.0276 78.3011 79.5124 77.5739 79.5124ZM48.3617 77.0882H76.3617V65.2094H48.3617V77.0882Z" fill="#F7615A"/>
<path d="M47.1496 65.2116C46.4223 65.2116 45.9375 64.7268 45.9375 63.9995V49.6965C45.9375 48.9692 46.4223 48.4844 47.1496 48.4844C47.8769 48.4844 48.3617 48.9692 48.3617 49.6965V63.9995C48.3617 64.7268 47.7557 65.2116 47.1496 65.2116Z" fill="#F7615A"/>
<path d="M77.5754 65.2116C76.8481 65.2116 76.3633 64.7268 76.3633 63.9995V49.6965C76.3633 48.9692 76.8481 48.4844 77.5754 48.4844C78.3027 48.4844 78.7875 48.9692 78.7875 49.6965V63.9995C78.7875 64.7268 78.3027 65.2116 77.5754 65.2116Z" fill="#F7615A"/>
<path d="M10.9074 79.5147H2.90743C2.18016 79.5147 1.69531 79.0298 1.69531 78.3026V49.6965C1.69531 48.9692 2.18016 48.4844 2.90743 48.4844C3.63471 48.4844 4.11956 48.9692 4.11956 49.6965V77.0904H9.69531V49.6965C9.69531 48.9692 10.1802 48.4844 10.9074 48.4844C11.6347 48.4844 12.1196 48.9692 12.1196 49.6965V78.3026C12.1196 79.0298 11.6347 79.5147 10.9074 79.5147Z" fill="#F7615A"/>
<path d="M35.8811 55.8776H22.3053C20.6084 55.8776 18.9114 55.1503 17.6993 53.817C16.4872 52.4837 16.0023 50.7867 16.1235 49.0897L18.5478 26.6655C18.9114 23.514 21.4569 21.2109 24.6084 21.2109H33.3357C36.4872 21.2109 39.0326 23.514 39.3963 26.6655L41.8205 49.0897C42.0629 50.7867 41.4569 52.4837 40.2447 53.817C39.275 55.1503 37.5781 55.8776 35.8811 55.8776ZM24.7296 23.6352C22.7902 23.6352 21.2144 25.0897 21.0932 26.9079L18.669 49.3321C18.5478 50.4231 18.9114 51.3928 19.6387 52.2412C20.366 53.0897 21.3357 53.4534 22.4266 53.4534H36.0023C37.0932 53.4534 38.0629 52.9685 38.7902 52.2412C39.5175 51.514 39.8811 50.4231 39.7599 49.3321L37.3356 26.9079C37.0932 25.0897 35.5175 23.6352 33.6993 23.6352H24.7296Z" fill="#F7615A"/>
<path d="M29.091 62.4228C28.3638 62.4228 27.8789 61.938 27.8789 61.2107V54.6652C27.8789 53.938 28.3638 53.4531 29.091 53.4531C29.8183 53.4531 30.3031 53.938 30.3031 54.6652V61.2107C30.3031 61.8168 29.6971 62.4228 29.091 62.4228Z" fill="#F7615A"/>
<path d="M37.8187 68.3635H20.1217C17.5762 68.3635 15.5156 66.3029 15.5156 63.7575V61.3332C15.5156 60.6059 16.0005 60.1211 16.7277 60.1211H41.2126C41.9399 60.1211 42.4247 60.6059 42.4247 61.3332V63.7575C42.4247 66.3029 40.3641 68.3635 37.8187 68.3635ZM18.0611 62.5453V63.7575C18.0611 64.9696 19.0308 65.9393 20.2429 65.9393H37.9399C39.152 65.9393 40.1217 64.9696 40.1217 63.7575V62.5453H18.0611Z" fill="#F7615A"/>
<path d="M22.6652 79.5133C22.3016 79.5133 22.0592 79.392 21.8168 79.1496C21.3319 78.6648 21.3319 77.9375 21.8168 77.4527L27.7562 71.5133V67.1496C27.7562 66.4223 28.241 65.9375 28.9683 65.9375C29.6955 65.9375 30.1804 66.4223 30.1804 67.1496V71.9981C30.1804 72.3617 30.0592 72.6042 29.8168 72.8466L23.5137 79.1496C23.3925 79.392 23.0289 79.5133 22.6652 79.5133Z" fill="#F7615A"/>
<path d="M29.091 79.5134C28.3638 79.5134 27.8789 79.0286 27.8789 78.3013V71.9983C27.8789 71.5134 28.1213 71.0286 28.6062 70.9074C29.091 70.665 29.5759 70.7862 29.9395 71.1498L36.2425 77.4528C36.7274 77.9377 36.7274 78.6649 36.2425 79.1498C35.7577 79.6346 35.0304 79.6346 34.5456 79.1498L30.3031 74.9074V78.3013C30.3031 79.0286 29.6971 79.5134 29.091 79.5134Z" fill="#F7615A"/>
<path d="M72.2425 36.6027H47.2728C45.4547 36.6027 43.8789 35.1482 43.8789 33.2088V14.7846C43.8789 12.9664 45.3335 11.3906 47.2728 11.3906H72.2425C74.0607 11.3906 75.6365 12.8452 75.6365 14.7846V33.33C75.6365 35.1482 74.0607 36.6027 72.2425 36.6027ZM47.2728 13.8149C46.788 13.8149 46.3031 14.1785 46.3031 14.7846V33.33C46.3031 33.8149 46.6668 34.2997 47.2728 34.2997H72.2425C72.7274 34.2997 73.2122 33.9361 73.2122 33.33V14.7846C73.2122 14.2997 72.8486 13.8149 72.2425 13.8149H47.2728Z" fill="#F7615A"/>
<path d="M74.4242 31.8774H45.2121C44.4848 31.8774 44 31.3925 44 30.6652C44 29.938 44.4848 29.4531 45.2121 29.4531H74.4242C75.1515 29.4531 75.6364 29.938 75.6364 30.6652C75.6364 31.3925 75.0303 31.8774 74.4242 31.8774Z" fill="#F7615A"/>
<path d="M64.1184 43.1494C63.3911 43.1494 62.9062 42.6645 62.9062 41.9373V35.3918C62.9062 34.6645 63.3911 34.1797 64.1184 34.1797C64.8456 34.1797 65.3305 34.6645 65.3305 35.3918V41.9373C65.3305 42.5433 64.8456 43.1494 64.1184 43.1494Z" fill="#F7615A"/>
<path d="M55.3918 43.1494C54.6645 43.1494 54.1797 42.6645 54.1797 41.9373V35.3918C54.1797 34.6645 54.6645 34.1797 55.3918 34.1797C56.1191 34.1797 56.6039 34.6645 56.6039 35.3918V41.9373C56.6039 42.5433 56.1191 43.1494 55.3918 43.1494Z" fill="#F7615A"/>
<path d="M10.9079 21.2103C5.57457 21.2103 1.21094 16.8467 1.21094 11.5134C1.21094 6.18004 5.57457 1.81641 10.9079 1.81641C16.2412 1.81641 20.6049 6.18004 20.6049 11.5134C20.6049 16.8467 16.2412 21.2103 10.9079 21.2103ZM10.9079 4.36186C6.90791 4.36186 3.63518 7.63459 3.63518 11.6346C3.63518 15.6346 6.90791 18.9073 10.9079 18.9073C14.9079 18.9073 18.1806 15.6346 18.1806 11.6346C18.1806 7.63459 14.9079 4.36186 10.9079 4.36186Z" fill="#F7615A"/>
<path d="M10.9074 15.9963C10.1802 15.9963 9.69531 15.5115 9.69531 14.7842V11.6327C9.69531 11.2691 9.81652 11.0266 10.0589 10.7842L12.7256 8.11754C13.2105 7.63269 13.9377 7.63269 14.4226 8.11754C14.9074 8.60239 14.9074 9.32966 14.4226 9.81451L12.1196 12.1175V14.7842C12.1196 15.3903 11.5135 15.9963 10.9074 15.9963Z" fill="#F7615A"/>
<path d="M65.5739 58.0571H59.1496C58.4223 58.0571 57.9375 57.5722 57.9375 56.8449C57.9375 56.1177 58.4223 55.6328 59.1496 55.6328H65.5739C66.3011 55.6328 66.786 56.1177 66.786 56.8449C66.786 57.5722 66.1799 58.0571 65.5739 58.0571Z" fill="#F7615A"/>
<path d="M65.5739 72.3617H59.1496C58.4223 72.3617 57.9375 71.8769 57.9375 71.1496C57.9375 70.4223 58.4223 69.9375 59.1496 69.9375H65.5739C66.3011 69.9375 66.786 70.4223 66.786 71.1496C66.786 71.8769 66.1799 72.3617 65.5739 72.3617Z" fill="#F7615A"/>
</svg>
